<svg version="1.1" xmlns="http://www.w3.org/2000/svg" viewBox="0 0 456.66664123535156 315" width="1369.9999237060547" height="945">
  <!-- svg-source:excalidraw -->
  
  <defs>
    <style class="style-fonts">
      @font-face {
        font-family: "Virgil";
        src: url("https://excalidraw.com/Virgil.woff2");
      }
      @font-face {
        font-family: "Cascadia";
        src: url("https://excalidraw.com/Cascadia.woff2");
      }
    </style>
  </defs>
  <g stroke-linecap="round" transform="translate(10 10) rotate(0 218.33332061767578 147.5)"><path d="M1.28 1.91 C105.08 -0.25, 211.92 2.29, 438.54 1.15 M0.2 0.93 C89.54 -2.57, 178.33 -2.19, 437.58 -0.34 M435.27 -1.95 C430.68 115.16, 430.6 224.19, 435.23 294.89 M436.29 -0.76 C436.71 60.57, 434.8 123.05, 437.61 296.06 M435.12 296.5 C273.64 292.26, 109.94 290.56, 1.55 294.97 M436.23 294.82 C265.17 296.17, 92.61 294.98, -0.65 295.25 M-1.06 295.44 C-2.81 212.94, -2.53 125.6, -2.07 -1.45 M0.6 294.83 C-2.54 210.94, -3.81 125.3, -0.73 -1.29" stroke="transparent" stroke-width="2" fill="none"></path></g><g transform="translate(24.026728973204854 146.9154502483052) rotate(0 93.56848179539708 53.41783945918644)" stroke="none"><path fill="#ced4da" d="M 1.60,-5.08 Q 1.60,-5.08 6.00,-5.74 10.41,-6.41 15.00,-5.54 19.59,-4.66 25.03,-4.23 30.48,-3.80 35.66,-4.11 40.84,-4.42 46.26,-5.16 51.69,-5.91 56.81,-6.67 61.93,-7.43 66.25,-7.64 70.58,-7.85 75.00,-7.92 79.43,-7.99 84.23,-8.06 89.04,-8.14 94.14,-8.13 99.24,-8.13 104.35,-7.81 109.45,-7.49 114.06,-7.49 118.66,-7.48 124.33,-7.19 130.01,-6.89 135.70,-5.55 141.39,-4.21 145.05,-0.85 148.72,2.49 149.52,7.02 150.32,11.54 149.97,16.08 149.62,20.61 146.91,25.09 144.19,29.56 139.72,33.12 135.24,36.69 131.82,40.21 128.40,43.73 124.43,47.78 120.45,51.82 117.35,54.93 114.25,58.03 112.06,61.76 109.87,65.48 114.37,66.60 118.87,67.72 124.47,67.89 130.08,68.07 134.91,67.95 139.75,67.84 144.41,68.13 149.07,68.43 153.89,70.48 158.71,72.53 162.65,76.43 166.60,80.34 167.31,85.33 168.02,90.32 165.65,95.15 163.27,99.98 167.39,97.98 171.50,95.99 175.86,95.68 180.21,95.38 182.22,98.50 184.22,101.61 184.95,101.16 185.67,100.71 186.49,100.51 187.32,100.32 188.17,100.39 189.01,100.47 189.79,100.82 190.57,101.16 191.19,101.73 191.82,102.31 192.23,103.05 192.64,103.80 192.79,104.63 192.94,105.47 192.82,106.31 192.70,107.15 192.31,107.91 191.93,108.67 191.32,109.26 190.71,109.85 189.95,110.22 189.18,110.59 188.34,110.70 187.49,110.81 186.66,110.64 185.83,110.47 185.09,110.04 184.36,109.62 183.80,108.98 183.24,108.34 182.91,107.55 182.58,106.77 182.52,105.92 182.46,105.07 182.67,104.25 182.89,103.43 183.35,102.72 183.82,102.01 184.49,101.48 185.15,100.96 185.96,100.67 186.76,100.39 187.61,100.37 188.46,100.36 189.27,100.62 190.08,100.88 190.76,101.38 191.45,101.88 191.93,102.58 192.42,103.27 192.66,104.09 192.90,104.90 192.87,105.75 192.84,106.60 192.54,107.40 192.24,108.19 191.70,108.85 191.16,109.50 191.16,109.50 191.16,109.50 185.78,112.51 180.40,115.51 176.11,115.87 171.83,116.24 166.38,116.40 160.92,116.56 155.06,114.79 149.20,113.02 145.84,109.48 142.48,105.93 142.29,101.00 142.11,96.08 145.69,93.43 149.26,90.79 144.60,89.72 139.93,88.64 132.92,88.88 125.92,89.12 120.76,88.70 115.60,88.29 107.98,85.70 100.36,83.11 95.94,78.66 91.53,74.21 90.57,68.70 89.61,63.18 90.86,58.65 92.11,54.11 94.70,50.05 97.30,45.99 100.86,42.59 104.42,39.19 107.71,36.22 111.00,33.25 114.05,29.89 117.09,26.52 120.75,23.57 124.41,20.62 127.41,17.13 130.41,13.65 125.15,13.35 119.88,13.05 115.59,13.04 111.29,13.03 106.24,12.69 101.19,12.35 96.88,12.33 92.58,12.30 88.14,12.29 83.70,12.28 79.35,12.20 75.01,12.12 70.36,12.05 65.72,11.98 61.27,12.29 56.83,12.61 52.12,13.22 47.41,13.83 42.87,14.10 38.32,14.37 32.73,14.56 27.13,14.74 22.52,14.33 17.90,13.91 11.37,12.57 4.84,11.23 1.61,8.15 -1.60,5.08 -2.18,4.81 -2.77,4.54 -3.27,4.15 -3.78,3.75 -4.17,3.24 -4.56,2.73 -4.83,2.15 -5.09,1.56 -5.20,0.93 -5.31,0.30 -5.27,-0.33 -5.23,-0.98 -5.04,-1.59 -4.84,-2.20 -4.51,-2.75 -4.18,-3.30 -3.72,-3.75 -3.26,-4.20 -2.71,-4.53 -2.16,-4.86 -1.55,-5.05 -0.93,-5.24 -0.29,-5.28 0.34,-5.31 0.97,-5.19 1.60,-5.08 1.60,-5.08 L 1.60,-5.08 Z"></path></g><g transform="translate(229.3188178751759 238.38914677438288) rotate(0 77.15909078625555 -100.20209633907211)" stroke="none"><path fill="#ced4da" d="M -6.05,-2.32 Q -6.05,-2.32 -5.85,-5.24 -5.66,-8.17 -3.93,-12.13 -2.19,-16.09 0.54,-20.98 3.27,-25.88 5.70,-30.42 8.13,-34.96 10.21,-39.44 12.30,-43.92 15.27,-49.03 18.24,-54.14 22.82,-61.55 27.40,-68.95 31.67,-74.90 35.93,-80.84 38.73,-84.69 41.53,-88.53 44.62,-92.06 47.72,-95.59 50.86,-99.10 54.00,-102.62 57.31,-106.49 60.61,-110.37 63.98,-114.27 67.35,-118.17 70.92,-122.31 74.50,-126.45 78.06,-130.56 81.63,-134.67 85.12,-138.81 88.61,-142.95 91.42,-146.57 94.24,-150.18 98.53,-153.86 102.83,-157.53 106.29,-160.90 109.75,-164.28 114.04,-167.63 118.33,-170.99 122.40,-174.07 126.47,-177.14 129.72,-180.30 132.96,-183.46 136.11,-188.02 139.27,-192.58 141.72,-196.11 144.17,-199.64 144.68,-201.53 145.19,-203.43 145.76,-204.45 146.33,-205.48 147.12,-206.33 147.92,-207.19 148.90,-207.83 149.88,-208.47 150.98,-208.86 152.09,-209.25 153.25,-209.36 154.42,-209.47 155.57,-209.30 156.73,-209.13 157.82,-208.69 158.90,-208.25 159.84,-207.56 160.79,-206.87 161.55,-205.97 162.30,-205.08 162.82,-204.03 163.33,-202.98 163.59,-201.84 163.84,-200.70 163.81,-199.53 163.78,-198.36 163.47,-197.23 163.16,-196.10 154.55,-199.61 145.94,-203.12 146.47,-204.06 147.00,-205.01 147.73,-205.80 148.47,-206.59 149.38,-207.18 150.28,-207.78 151.30,-208.14 152.32,-208.49 153.40,-208.60 154.48,-208.70 155.55,-208.54 156.62,-208.39 157.62,-207.98 158.62,-207.57 159.50,-206.93 160.37,-206.30 161.07,-205.47 161.77,-204.64 162.24,-203.67 162.72,-202.70 162.96,-201.65 163.19,-200.59 163.16,-199.51 163.14,-198.43 162.85,-197.38 162.57,-196.34 159.99,-191.33 157.41,-186.32 155.20,-182.43 152.99,-178.54 150.73,-174.79 148.46,-171.04 145.75,-167.70 143.04,-164.37 140.13,-161.14 137.21,-157.91 134.27,-154.67 131.33,-151.42 128.10,-147.52 124.86,-143.63 121.95,-140.02 119.05,-136.42 116.01,-133.12 112.97,-129.82 109.60,-125.95 106.22,-122.08 102.71,-117.88 99.19,-113.68 96.50,-110.20 93.81,-106.71 90.26,-101.53 86.71,-96.35 84.29,-92.76 81.87,-89.16 78.91,-84.81 75.95,-80.47 72.96,-77.00 69.97,-73.53 67.22,-70.15 64.46,-66.77 61.56,-62.20 58.65,-57.64 55.68,-52.57 52.71,-47.50 49.43,-42.45 46.14,-37.41 43.30,-32.94 40.46,-28.47 37.80,-23.91 35.14,-19.36 27.63,-16.94 20.12,-14.52 19.37,-14.92 18.62,-15.32 18.03,-15.93 17.45,-16.55 17.10,-17.33 16.74,-18.10 16.65,-18.94 16.56,-19.79 16.75,-20.62 16.93,-21.45 17.37,-22.17 17.81,-22.90 18.46,-23.45 19.11,-24.00 19.90,-24.31 20.69,-24.62 21.54,-24.67 22.39,-24.71 23.21,-24.48 24.02,-24.25 24.73,-23.77 25.43,-23.30 25.94,-22.62 26.45,-21.94 26.72,-21.13 26.99,-20.33 26.99,-19.48 26.99,-18.63 26.71,-17.82 26.44,-17.02 25.93,-16.34 25.41,-15.67 24.70,-15.19 24.00,-14.72 23.18,-14.49 22.36,-14.27 21.51,-14.31 20.66,-14.36 19.87,-14.68 19.09,-15.00 18.44,-15.55 17.79,-16.10 17.36,-16.83 16.92,-17.56 16.74,-18.39 16.56,-19.22 16.65,-20.06 16.75,-20.91 17.11,-21.68 17.47,-22.45 18.05,-23.07 18.64,-23.68 19.39,-24.08 20.14,-24.47 20.98,-24.61 21.82,-24.74 22.66,-24.60 23.50,-24.46 23.50,-24.46 23.50,-24.46 20.98,-26.11 18.46,-27.75 20.79,-31.66 23.13,-35.58 25.37,-39.30 27.61,-43.02 30.01,-46.64 32.41,-50.26 35.27,-54.91 38.13,-59.56 41.50,-64.53 44.86,-69.51 47.31,-73.57 49.75,-77.64 52.76,-81.32 55.77,-85.01 59.41,-89.36 63.06,-93.71 65.81,-97.86 68.57,-102.01 71.34,-106.08 74.11,-110.14 76.56,-113.74 79.02,-117.35 81.95,-121.13 84.88,-124.91 88.69,-129.47 92.51,-134.03 96.05,-138.08 99.58,-142.14 102.64,-145.31 105.69,-148.49 108.96,-152.50 112.23,-156.51 115.13,-160.17 118.03,-163.83 121.12,-167.21 124.21,-170.59 127.45,-173.92 130.69,-177.25 133.59,-181.87 136.49,-186.48 138.86,-190.48 141.24,-194.47 143.59,-198.80 145.94,-203.12 146.47,-204.06 147.00,-205.01 147.73,-205.80 148.47,-206.59 149.38,-207.18 150.28,-207.78 151.30,-208.13 152.32,-208.49 153.40,-208.60 154.48,-208.70 155.55,-208.54 156.62,-208.39 157.62,-207.98 158.62,-207.57 159.50,-206.93 160.37,-206.30 161.07,-205.47 161.77,-204.64 162.24,-203.67 162.72,-202.70 162.96,-201.65 163.19,-200.59 163.16,-199.51 163.14,-198.43 162.85,-197.38 162.57,-196.34 153.88,-199.88 145.19,-203.43 145.76,-204.45 146.32,-205.47 147.12,-206.33 147.92,-207.19 148.90,-207.83 149.88,-208.47 150.98,-208.86 152.09,-209.24 153.25,-209.36 154.42,-209.47 155.57,-209.30 156.73,-209.13 157.81,-208.69 158.90,-208.25 159.84,-207.56 160.79,-206.87 161.54,-205.98 162.30,-205.08 162.82,-204.03 163.33,-202.98 163.59,-201.84 163.84,-200.70 163.81,-199.53 163.78,-198.36 163.47,-197.23 163.16,-196.10 162.87,-195.02 162.58,-193.93 160.42,-189.85 158.27,-185.76 155.57,-182.25 152.88,-178.73 150.17,-174.85 147.46,-170.96 143.26,-166.85 139.06,-162.73 135.59,-160.03 132.12,-157.32 128.40,-154.64 124.67,-151.95 120.97,-148.55 117.27,-145.15 114.00,-142.30 110.73,-139.45 107.16,-136.01 103.59,-132.56 100.22,-128.84 96.85,-125.12 93.15,-120.82 89.45,-116.53 86.61,-113.27 83.77,-110.01 80.32,-106.20 76.87,-102.39 73.50,-98.35 70.12,-94.31 66.99,-90.84 63.86,-87.37 59.81,-82.80 55.76,-78.22 52.75,-74.13 49.73,-70.05 45.87,-64.70 42.00,-59.36 37.64,-52.36 33.28,-45.36 29.37,-38.62 25.46,-31.87 23.08,-27.06 20.69,-22.25 17.92,-17.52 15.15,-12.78 12.41,-7.52 9.67,-2.26 7.86,0.03 6.05,2.32 5.68,3.01 5.32,3.70 4.79,4.29 4.27,4.87 3.63,5.31 2.98,5.75 2.25,6.03 1.52,6.30 0.74,6.39 -0.03,6.48 -0.80,6.38 -1.58,6.29 -2.31,6.00 -3.04,5.72 -3.68,5.28 -4.32,4.83 -4.83,4.24 -5.35,3.65 -5.71,2.96 -6.07,2.27 -6.25,1.51 -6.44,0.75 -6.43,-0.03 -6.43,-0.81 -6.24,-1.57 -6.05,-2.32 -6.05,-2.32 L -6.05,-2.32 Z"></path></g><g transform="translate(227.92223043354784 222.3288706612741) rotate(0 53.76698631959323 -61.09883065533381)" stroke="none"><path fill="#ced4da" d="M -5.95,-1.70 Q -5.95,-1.70 -5.71,-6.19 -5.48,-10.68 -3.78,-15.58 -2.09,-20.49 0.18,-25.69 2.47,-30.89 4.78,-34.91 7.10,-38.93 9.56,-42.66 12.02,-46.39 14.67,-49.84 17.32,-53.29 20.47,-56.91 23.63,-60.54 27.01,-63.96 30.39,-67.39 34.08,-70.53 37.77,-73.67 41.71,-77.20 45.65,-80.74 49.96,-84.39 54.28,-88.05 57.93,-90.75 61.59,-93.45 65.79,-96.88 69.99,-100.31 74.31,-104.17 78.64,-108.04 82.90,-112.02 87.16,-116.00 90.96,-119.36 94.76,-122.71 98.37,-121.43 101.99,-120.16 101.80,-120.99 101.61,-121.82 101.69,-122.66 101.78,-123.51 102.13,-124.28 102.48,-125.06 103.06,-125.68 103.64,-126.30 104.39,-126.70 105.14,-127.11 105.98,-127.25 106.81,-127.39 107.65,-127.26 108.49,-127.13 109.25,-126.74 110.00,-126.35 110.59,-125.73 111.18,-125.12 111.54,-124.35 111.90,-123.58 112.00,-122.74 112.10,-121.90 111.92,-121.06 111.75,-120.23 111.31,-119.50 110.88,-118.77 110.24,-118.21 109.59,-117.66 108.81,-117.34 108.02,-117.02 107.17,-116.97 106.32,-116.91 105.50,-117.14 104.68,-117.36 103.97,-117.83 103.27,-118.30 102.75,-118.97 102.23,-119.65 101.95,-120.45 101.67,-121.25 101.67,-122.10 101.66,-122.95 101.93,-123.76 102.19,-124.57 102.70,-125.25 103.21,-125.93 103.91,-126.41 104.61,-126.89 105.43,-127.13 106.25,-127.36 107.09,-127.32 107.94,-127.28 108.74,-126.97 109.53,-126.66 110.18,-126.12 110.83,-125.57 111.27,-124.85 111.72,-124.12 111.72,-124.12 111.72,-124.12 108.71,-116.34 105.70,-108.55 102.36,-105.63 99.02,-102.70 95.28,-99.13 91.55,-95.55 87.38,-91.92 83.20,-88.29 79.10,-84.94 75.00,-81.59 70.19,-77.87 65.38,-74.15 61.43,-70.78 57.48,-67.41 53.28,-63.69 49.08,-59.97 45.33,-56.71 41.57,-53.44 37.54,-49.26 33.51,-45.08 30.84,-41.73 28.17,-38.38 25.48,-34.78 22.79,-31.18 20.17,-27.20 17.56,-23.22 15.47,-18.85 13.38,-14.49 11.84,-10.33 10.29,-6.17 8.12,-2.23 5.95,1.70 5.66,2.39 5.37,3.07 4.93,3.67 4.48,4.27 3.90,4.75 3.33,5.22 2.65,5.54 1.98,5.87 1.25,6.02 0.52,6.17 -0.22,6.14 -0.97,6.11 -1.69,5.91 -2.40,5.70 -3.05,5.33 -3.70,4.96 -4.24,4.45 -4.78,3.93 -5.18,3.30 -5.58,2.67 -5.82,1.96 -6.06,1.26 -6.12,0.51 -6.19,-0.22 -6.07,-0.96 -5.95,-1.70 -5.95,-1.70 L -5.95,-1.70 Z"></path></g><g transform="translate(387.1283401942601 29.605685161464635) rotate(0 -61.797108393960684 94.96505325483815)" stroke="none"><path fill="#ced4da" d="M 5.31,2.12 Q 5.31,2.12 4.98,5.48 4.65,8.85 2.30,13.52 -0.05,18.19 -1.71,22.12 -3.38,26.05 -5.08,30.13 -6.78,34.21 -9.89,39.44 -13.01,44.68 -16.16,49.17 -19.32,53.66 -22.00,57.78 -24.68,61.89 -27.83,67.05 -30.98,72.20 -33.57,76.66 -36.16,81.13 -39.02,85.78 -41.87,90.43 -45.29,94.98 -48.71,99.52 -51.25,103.06 -53.79,106.59 -56.47,111.69 -59.15,116.78 -61.44,120.40 -63.73,124.02 -66.28,129.40 -68.83,134.78 -71.71,138.95 -74.59,143.13 -77.42,147.10 -80.25,151.07 -83.36,155.01 -86.47,158.95 -89.15,162.62 -91.83,166.29 -95.53,171.57 -99.23,176.84 -102.45,180.31 -105.67,183.78 -109.71,187.18 -113.74,190.57 -116.07,190.71 -118.41,190.84 -118.73,191.63 -119.06,192.41 -119.62,193.05 -120.17,193.69 -120.91,194.12 -121.64,194.55 -122.47,194.72 -123.31,194.89 -124.15,194.79 -124.99,194.69 -125.76,194.32 -126.53,193.95 -127.14,193.36 -127.75,192.77 -128.13,192.01 -128.52,191.26 -128.65,190.42 -128.78,189.58 -128.63,188.74 -128.48,187.90 -128.07,187.16 -127.66,186.41 -127.04,185.84 -126.42,185.26 -125.64,184.91 -124.86,184.57 -124.02,184.48 -123.17,184.40 -122.34,184.60 -121.52,184.79 -120.79,185.24 -120.07,185.69 -119.53,186.34 -118.99,187.00 -118.68,187.79 -118.38,188.58 -118.34,189.43 -118.31,190.28 -118.55,191.10 -118.79,191.91 -119.27,192.61 -119.76,193.31 -120.44,193.81 -121.12,194.32 -121.93,194.58 -122.74,194.84 -123.59,194.83 -124.44,194.82 -125.24,194.54 -126.05,194.25 -126.71,193.73 -127.38,193.21 -127.85,192.50 -128.32,191.79 -128.54,190.97 -128.75,190.14 -128.70,189.30 -128.64,188.45 -128.64,188.45 -128.64,188.45 -127.34,183.36 -126.05,178.26 -122.04,173.99 -118.03,169.72 -114.62,165.90 -111.20,162.08 -108.20,157.59 -105.20,153.10 -102.01,149.50 -98.81,145.90 -96.21,142.26 -93.61,138.62 -90.59,134.86 -87.56,131.11 -84.69,126.64 -81.82,122.17 -79.39,117.59 -76.96,113.01 -74.60,108.80 -72.25,104.60 -69.45,100.02 -66.65,95.44 -63.16,91.07 -59.66,86.70 -56.58,82.47 -53.49,78.24 -51.11,74.41 -48.72,70.57 -45.47,65.05 -42.22,59.53 -39.26,55.25 -36.31,50.97 -33.63,47.04 -30.95,43.10 -28.42,39.57 -25.88,36.04 -23.31,31.83 -20.75,27.62 -18.96,23.42 -17.17,19.21 -15.34,15.05 -13.52,10.88 -11.50,7.03 -9.47,3.19 -7.39,0.53 -5.31,-2.12 -4.98,-2.73 -4.65,-3.33 -4.18,-3.84 -3.71,-4.35 -3.14,-4.73 -2.56,-5.11 -1.91,-5.35 -1.27,-5.58 -0.58,-5.65 0.10,-5.72 0.78,-5.63 1.47,-5.53 2.11,-5.27 2.75,-5.02 3.31,-4.61 3.87,-4.21 4.32,-3.69 4.77,-3.16 5.08,-2.55 5.39,-1.93 5.54,-1.26 5.69,-0.58 5.68,0.10 5.67,0.79 5.49,1.46 5.31,2.12 5.31,2.12 L 5.31,2.12 Z"></path></g><g transform="translate(264.23241712715276 213.2513399700597) rotate(0 -19.5516168596821 19.551616859681985)" stroke="none"><path fill="#ced4da" d="M 4.46,4.05 Q 4.46,4.05 3.06,6.82 1.66,9.58 -1.54,12.69 -4.76,15.80 -9.20,18.25 -13.63,20.69 -16.41,24.66 -19.18,28.62 -21.42,32.55 -23.65,36.48 -27.13,39.79 -30.62,43.09 -36.15,44.48 -41.68,45.86 -44.65,42.80 -47.63,39.73 -47.00,35.45 -46.37,31.18 -44.56,26.68 -42.76,22.19 -41.00,18.03 -39.24,13.88 -34.75,9.32 -30.25,4.77 -29.47,4.43 -28.70,4.09 -27.85,4.01 -27.00,3.94 -26.18,4.14 -25.35,4.34 -24.63,4.79 -23.91,5.24 -23.37,5.90 -22.84,6.56 -22.54,7.35 -22.24,8.15 -22.21,9.00 -22.18,9.85 -22.42,10.66 -22.66,11.48 -23.16,12.17 -23.65,12.86 -24.33,13.36 -25.02,13.87 -25.83,14.12 -26.64,14.38 -27.49,14.36 -28.34,14.34 -29.14,14.06 -29.94,13.77 -30.61,13.24 -31.27,12.72 -31.74,12.00 -32.20,11.29 -32.41,10.47 -32.62,9.64 -32.56,8.80 -32.50,7.95 -32.17,7.17 -31.84,6.38 -31.27,5.75 -30.71,5.11 -29.97,4.68 -29.24,4.26 -28.40,4.09 -27.57,3.93 -26.73,4.04 -25.89,4.14 -25.12,4.52 -24.36,4.89 -23.75,5.48 -23.15,6.08 -22.76,6.84 -22.38,7.60 -22.26,8.44 -22.14,9.28 -22.29,10.12 -22.44,10.95 -22.86,11.69 -23.27,12.44 -23.90,13.01 -24.53,13.58 -24.53,13.58 -24.53,13.58 -23.74,15.65 -22.96,17.71 -24.46,21.86 -25.95,26.01 -28.82,29.86 -31.69,33.72 -36.76,33.06 -41.83,32.40 -38.59,29.39 -35.34,26.37 -33.13,22.41 -30.91,18.44 -27.50,14.42 -24.08,10.40 -20.26,7.65 -16.44,4.90 -13.07,2.07 -9.69,-0.75 -7.08,-2.40 -4.46,-4.05 -3.91,-4.53 -3.36,-5.01 -2.71,-5.34 -2.06,-5.67 -1.35,-5.83 -0.65,-6.00 0.07,-5.99 0.80,-5.98 1.50,-5.79 2.21,-5.61 2.85,-5.26 3.49,-4.92 4.03,-4.43 4.56,-3.94 4.97,-3.33 5.37,-2.73 5.62,-2.05 5.87,-1.36 5.95,-0.64 6.03,0.07 5.93,0.79 5.84,1.51 5.57,2.19 5.30,2.87 4.88,3.46 4.46,4.06 4.46,4.06 L 4.46,4.05 Z"></path></g><g transform="translate(231.64990875817784 185.88107548702737) rotate(0 69.21262899749695 -35.31257452425416)" stroke="none"><path fill="#000000" d="M -1.27,-0.63 Q -1.27,-0.63 -0.93,-2.49 -0.58,-4.35 0.29,-5.80 1.16,-7.24 2.08,-8.43 2.99,-9.61 4.12,-11.27 5.24,-12.93 5.88,-13.85 6.52,-14.77 7.84,-16.45 9.16,-18.13 10.17,-19.39 11.18,-20.65 12.58,-22.21 13.97,-23.78 15.32,-25.16 16.67,-26.53 17.86,-27.97 19.06,-29.40 20.24,-30.63 21.42,-31.86 22.30,-32.90 23.18,-33.94 24.84,-35.72 26.51,-37.51 27.78,-38.79 29.05,-40.07 30.62,-41.81 32.20,-43.56 33.23,-44.83 34.26,-46.10 36.00,-48.00 37.74,-49.91 38.69,-50.88 39.64,-51.85 41.18,-53.41 42.72,-54.97 43.45,-55.86 44.19,-56.76 45.94,-58.44 47.68,-60.12 48.54,-60.94 49.40,-61.76 50.49,-63.00 51.59,-64.25 52.93,-65.67 54.27,-67.08 55.26,-67.93 56.24,-68.78 57.07,-69.88 57.91,-70.99 59.30,-72.82 60.68,-74.65 62.05,-76.06 63.41,-77.46 64.53,-78.75 65.66,-80.05 67.54,-81.88 69.42,-83.72 70.83,-85.22 72.23,-86.72 73.25,-87.95 74.26,-89.19 75.67,-90.74 77.08,-92.30 78.35,-93.76 79.62,-95.21 80.39,-96.35 81.17,-97.49 82.46,-98.99 83.76,-100.49 84.82,-101.87 85.87,-103.26 87.35,-104.88 88.83,-106.49 89.70,-107.36 90.57,-108.22 91.46,-109.09 92.34,-109.95 94.47,-110.71 96.60,-111.47 98.21,-110.70 99.82,-109.93 100.98,-109.34 102.14,-108.75 103.74,-107.92 105.34,-107.09 107.02,-106.24 108.70,-105.39 110.26,-104.39 111.83,-103.40 112.83,-102.52 113.84,-101.64 114.84,-100.98 115.83,-100.32 117.07,-99.31 118.30,-98.30 119.77,-97.39 121.24,-96.48 122.17,-95.97 123.10,-95.45 124.35,-94.46 125.60,-93.47 127.07,-92.19 128.55,-90.90 129.78,-89.68 131.02,-88.45 131.76,-87.66 132.51,-86.88 133.56,-85.82 134.61,-84.76 135.66,-83.47 136.71,-82.17 137.43,-81.10 138.15,-80.02 138.79,-78.94 139.43,-77.85 140.26,-76.30 141.08,-74.74 141.44,-73.61 141.81,-72.49 141.13,-70.76 140.45,-69.04 139.75,-68.16 139.04,-67.28 137.96,-66.30 136.88,-65.32 136.10,-64.21 135.32,-63.10 134.36,-62.00 133.40,-60.91 132.50,-59.92 131.60,-58.94 130.52,-57.65 129.45,-56.36 128.34,-55.00 127.22,-53.65 126.59,-52.75 125.95,-51.85 124.61,-49.70 123.28,-47.55 122.72,-46.51 122.16,-45.46 120.97,-43.73 119.78,-42.00 119.11,-40.94 118.45,-39.87 117.58,-38.54 116.71,-37.21 115.91,-36.29 115.11,-35.36 114.12,-33.92 113.12,-32.49 112.30,-31.28 111.49,-30.08 110.87,-29.15 110.25,-28.22 109.29,-26.84 108.33,-25.47 107.26,-24.21 106.19,-22.96 105.28,-22.02 104.37,-21.08 103.28,-19.98 102.19,-18.88 101.35,-18.05 100.51,-17.21 99.51,-16.20 98.50,-15.20 97.17,-13.87 95.84,-12.54 94.74,-11.52 93.64,-10.49 92.82,-9.62 92.00,-8.75 90.85,-7.62 89.71,-6.48 88.51,-5.24 87.31,-4.01 86.46,-3.02 85.62,-2.03 84.82,-1.15 84.02,-0.27 82.50,1.22 80.97,2.72 79.94,4.05 78.90,5.39 77.73,6.84 76.55,8.29 75.72,9.48 74.88,10.67 73.79,11.99 72.70,13.31 72.02,14.15 71.35,14.99 70.42,16.05 69.50,17.11 68.02,18.75 66.55,20.39 65.81,21.34 65.08,22.29 64.36,23.13 63.63,23.96 62.55,24.87 61.48,25.79 59.93,27.14 58.38,28.49 57.25,29.66 56.12,30.83 55.24,31.57 54.36,32.31 53.46,32.96 52.56,33.62 51.60,34.29 50.64,34.95 49.58,35.66 48.53,36.37 46.72,37.57 44.92,38.76 43.00,39.35 41.07,39.93 40.87,40.01 40.68,40.09 40.47,40.10 40.25,40.12 40.05,40.06 39.84,40.01 39.67,39.89 39.49,39.77 39.36,39.60 39.23,39.43 39.16,39.23 39.09,39.03 39.09,38.82 39.09,38.61 39.16,38.41 39.22,38.20 39.35,38.03 39.48,37.86 39.65,37.74 39.83,37.62 40.03,37.56 40.24,37.51 40.45,37.52 40.66,37.53 40.86,37.60 41.06,37.68 41.22,37.82 41.38,37.95 41.49,38.14 41.60,38.32 41.65,38.52 41.70,38.73 41.68,38.94 41.65,39.15 41.57,39.35 41.48,39.54 41.33,39.70 41.19,39.85 41.00,39.95 40.81,40.05 40.60,40.09 40.40,40.12 40.19,40.09 39.98,40.06 39.79,39.96 39.60,39.86 39.45,39.71 39.30,39.56 39.21,39.36 39.12,39.17 39.10,38.96 39.07,38.75 39.12,38.54 39.16,38.33 39.27,38.15 39.38,37.97 39.54,37.83 39.70,37.69 39.70,37.69 39.70,37.69 40.27,36.49 40.84,35.29 42.10,34.13 43.36,32.97 44.93,32.12 46.50,31.26 47.92,30.04 49.34,28.82 50.37,27.99 51.40,27.17 52.15,26.37 52.89,25.57 53.74,24.79 54.58,24.02 55.66,23.11 56.74,22.19 57.78,21.25 58.81,20.31 59.62,19.51 60.43,18.71 61.30,17.59 62.16,16.47 64.29,14.08 66.42,11.68 67.37,10.50 68.31,9.31 69.60,7.89 70.89,6.47 71.99,4.85 73.09,3.24 73.76,2.35 74.44,1.45 75.49,0.11 76.54,-1.22 77.64,-2.42 78.74,-3.61 79.81,-4.62 80.88,-5.63 81.98,-6.91 83.07,-8.20 84.42,-9.61 85.78,-11.01 86.74,-11.94 87.71,-12.87 88.45,-13.64 89.19,-14.41 90.42,-15.58 91.66,-16.75 92.98,-18.08 94.30,-19.40 95.30,-20.41 96.31,-21.41 97.14,-22.25 97.97,-23.08 99.05,-24.16 100.13,-25.23 100.95,-26.08 101.77,-26.93 102.60,-27.88 103.43,-28.82 104.54,-30.41 105.64,-32.00 106.24,-32.89 106.84,-33.77 107.61,-34.92 108.38,-36.06 109.06,-36.94 109.73,-37.82 110.75,-39.17 111.76,-40.52 112.43,-41.50 113.10,-42.48 114.03,-43.98 114.97,-45.47 115.95,-46.87 116.93,-48.27 117.59,-49.49 118.25,-50.71 120.02,-53.41 121.78,-56.10 122.61,-57.19 123.44,-58.29 124.30,-59.37 125.16,-60.46 125.94,-61.26 126.71,-62.06 127.88,-63.49 129.05,-64.91 129.80,-65.75 130.56,-66.59 131.42,-67.66 132.28,-68.73 133.28,-69.77 134.29,-70.81 135.57,-72.24 136.85,-73.67 136.86,-72.30 136.87,-70.93 136.28,-71.85 135.70,-72.78 135.02,-73.87 134.35,-74.96 133.78,-75.88 133.21,-76.81 132.60,-77.92 131.99,-79.03 131.22,-79.86 130.45,-80.69 129.40,-81.75 128.35,-82.81 127.25,-84.15 126.15,-85.48 125.20,-86.24 124.24,-87.00 123.19,-87.89 122.14,-88.79 121.18,-89.59 120.23,-90.40 118.28,-91.58 116.33,-92.76 114.42,-94.16 112.50,-95.56 111.01,-96.81 109.51,-98.06 108.12,-98.90 106.74,-99.75 105.68,-100.35 104.62,-100.94 102.91,-101.82 101.21,-102.69 99.72,-103.52 98.23,-104.36 96.94,-105.03 95.65,-105.69 94.69,-106.51 93.73,-107.32 95.46,-107.60 97.18,-107.87 96.41,-106.75 95.64,-105.62 94.67,-104.65 93.70,-103.67 92.43,-102.18 91.16,-100.68 90.32,-99.72 89.49,-98.76 88.82,-97.85 88.15,-96.93 86.98,-95.62 85.81,-94.30 84.88,-92.95 83.96,-91.60 82.56,-90.01 81.17,-88.43 79.88,-87.02 78.59,-85.62 77.53,-84.33 76.47,-83.04 74.79,-81.29 73.10,-79.54 71.47,-77.97 69.83,-76.40 68.60,-74.99 67.36,-73.58 66.22,-72.43 65.09,-71.29 63.65,-69.43 62.22,-67.56 60.22,-65.44 58.22,-63.31 56.94,-61.98 55.65,-60.64 54.39,-59.24 53.14,-57.84 52.27,-57.01 51.40,-56.18 49.85,-54.76 48.31,-53.33 47.41,-52.26 46.52,-51.19 44.98,-49.66 43.44,-48.13 42.50,-47.18 41.57,-46.23 39.95,-44.49 38.33,-42.76 37.26,-41.46 36.19,-40.16 34.47,-38.28 32.76,-36.39 31.51,-35.13 30.26,-33.87 28.70,-32.22 27.14,-30.57 26.14,-29.40 25.13,-28.22 24.02,-27.06 22.90,-25.91 21.63,-24.40 20.35,-22.89 19.05,-21.56 17.74,-20.23 16.48,-18.83 15.21,-17.43 14.21,-16.17 13.21,-14.91 11.96,-13.36 10.71,-11.81 10.02,-10.85 9.33,-9.88 8.14,-8.17 6.95,-6.47 6.18,-5.54 5.40,-4.60 4.62,-3.37 3.83,-2.14 2.55,-0.75 1.27,0.63 1.18,0.78 1.08,0.92 0.96,1.04 0.83,1.15 0.68,1.24 0.53,1.32 0.36,1.36 0.19,1.41 0.02,1.41 -0.14,1.42 -0.31,1.38 -0.48,1.34 -0.63,1.26 -0.78,1.19 -0.91,1.07 -1.05,0.96 -1.15,0.82 -1.25,0.68 -1.31,0.52 -1.37,0.36 -1.40,0.19 -1.42,0.02 -1.41,-0.14 -1.39,-0.31 -1.33,-0.47 -1.27,-0.63 -1.27,-0.63 L -1.27,-0.63 Z"></path></g><g transform="translate(317.5300622752786 185.3160571211431) rotate(0 -12.43001609396731 41.52759550308758)" stroke="none"><path fill="#000000" d="M 0.47,-1.26 Q 0.47,-1.26 1.94,-1.22 3.40,-1.18 5.04,-0.51 6.68,0.15 8.01,0.91 9.35,1.67 10.29,2.48 11.24,3.28 12.04,4.03 12.85,4.78 13.70,6.24 14.56,7.71 15.02,9.09 15.47,10.48 15.27,12.27 15.06,14.07 14.54,15.25 14.02,16.44 13.43,17.33 12.84,18.22 12.01,19.17 11.19,20.13 10.49,20.93 9.79,21.74 8.90,22.66 8.02,23.57 7.21,24.36 6.40,25.15 5.49,26.01 4.58,26.88 3.07,28.10 1.55,29.32 0.50,30.20 -0.53,31.08 -1.61,31.65 -2.68,32.22 -3.87,32.93 -5.06,33.64 -6.40,34.22 -7.73,34.80 -8.80,35.23 -9.86,35.65 -11.28,36.35 -12.70,37.05 -13.91,37.51 -15.12,37.97 -16.51,38.44 -17.89,38.90 -19.15,39.50 -20.42,40.10 -22.09,40.72 -23.76,41.33 -25.41,41.97 -27.05,42.61 -28.83,43.00 -30.62,43.40 -32.04,43.70 -33.45,43.99 -35.01,44.28 -36.56,44.56 -38.36,44.98 -40.17,45.40 -41.62,45.58 -43.06,45.76 -44.94,46.05 -46.82,46.35 -48.20,46.37 -49.57,46.40 -51.08,46.61 -52.59,46.82 -54.07,46.88 -55.56,46.94 -56.96,46.94 -58.37,46.95 -59.46,46.94 -60.56,46.93 -61.71,46.92 -62.86,46.92 -63.68,47.60 -64.51,48.28 -65.30,49.22 -66.08,50.16 -66.52,51.92 -66.95,53.67 -66.84,55.04 -66.72,56.40 -66.73,57.81 -66.73,59.22 -66.76,60.43 -66.78,61.64 -65.97,62.59 -65.17,63.54 -64.18,64.56 -63.20,65.59 -62.33,66.47 -61.45,67.34 -59.12,69.02 -56.78,70.70 -55.44,71.62 -54.11,72.53 -52.95,73.20 -51.79,73.87 -50.67,74.48 -49.54,75.08 -48.09,75.59 -46.64,76.10 -44.70,76.81 -42.76,77.53 -41.13,77.86 -39.50,78.20 -37.40,78.51 -35.30,78.82 -33.77,79.16 -32.25,79.50 -30.57,79.78 -28.88,80.07 -27.51,80.12 -26.14,80.16 -25.03,80.36 -23.93,80.55 -22.28,80.63 -20.62,80.71 -18.70,80.72 -16.78,80.74 -15.30,80.75 -13.81,80.75 -11.57,80.75 -9.34,80.75 -7.64,80.75 -5.94,80.75 -4.80,80.75 -3.66,80.74 -2.60,80.75 -1.53,80.75 -0.25,80.75 1.02,80.75 2.89,80.60 4.75,80.45 6.41,80.19 8.07,79.93 9.80,79.80 11.53,79.67 13.19,79.42 14.86,79.17 16.39,78.91 17.92,78.64 19.06,78.36 20.21,78.09 21.56,77.70 22.91,77.31 24.67,76.87 26.43,76.42 28.02,76.00 29.61,75.59 30.75,75.40 31.88,75.22 33.53,75.18 35.19,75.15 36.37,75.14 37.56,75.14 38.93,75.14 40.30,75.15 41.34,75.40 42.39,75.66 42.84,77.18 43.29,78.71 43.45,78.74 43.60,78.78 43.74,78.85 43.89,78.92 44.01,79.02 44.13,79.12 44.22,79.25 44.31,79.38 44.37,79.52 44.44,79.67 44.46,79.83 44.48,79.98 44.47,80.14 44.45,80.30 44.40,80.45 44.35,80.60 44.26,80.73 44.18,80.86 44.06,80.97 43.94,81.08 43.81,81.16 43.67,81.23 43.52,81.27 43.36,81.32 43.20,81.32 43.05,81.33 43.36,81.28 43.68,81.23 43.48,81.28 43.27,81.33 43.06,81.31 42.85,81.29 42.65,81.21 42.46,81.12 42.30,80.98 42.14,80.84 42.04,80.65 41.93,80.46 41.89,80.26 41.86,80.05 41.89,79.84 41.92,79.63 42.01,79.44 42.11,79.25 42.26,79.10 42.41,78.95 42.60,78.85 42.79,78.76 43.00,78.73 43.21,78.70 43.42,78.75 43.63,78.79 43.81,78.89 44.00,79.00 44.14,79.16 44.28,79.32 44.36,79.51 44.44,79.71 44.46,79.92 44.48,80.13 44.43,80.34 44.37,80.54 44.26,80.72 44.14,80.90 43.98,81.03 43.81,81.16 43.61,81.24 43.41,81.31 43.20,81.31 42.98,81.32 42.78,81.25 42.58,81.19 42.41,81.07 42.24,80.94 42.11,80.77 41.99,80.59 41.93,80.39 41.87,80.19 41.87,79.98 41.88,79.76 41.95,79.56 42.03,79.37 42.16,79.20 42.30,79.04 42.79,78.87 43.29,78.71 43.45,78.74 43.60,78.78 43.74,78.85 43.89,78.92 44.01,79.02 44.13,79.12 44.22,79.25 44.31,79.38 44.37,79.52 44.44,79.67 44.46,79.83 44.48,79.98 44.47,80.14 44.45,80.30 44.40,80.45 44.35,80.60 44.26,80.73 44.18,80.86 44.06,80.97 43.94,81.08 43.81,81.15 43.67,81.23 43.52,81.27 43.36,81.32 43.20,81.32 43.05,81.33 41.62,81.05 40.19,80.78 38.87,80.79 37.56,80.79 36.39,80.79 35.22,80.79 33.58,80.84 31.95,80.90 30.78,81.18 29.61,81.47 28.21,81.75 26.81,82.04 25.10,82.60 23.38,83.17 21.89,83.49 20.40,83.80 19.04,84.13 17.68,84.46 15.82,84.73 13.96,85.00 12.86,85.20 11.76,85.41 10.42,85.51 9.08,85.61 7.35,85.87 5.61,86.13 3.31,86.31 1.02,86.48 -0.25,86.48 -1.53,86.48 -2.60,86.48 -3.66,86.49 -4.80,86.48 -5.94,86.48 -7.64,86.48 -9.34,86.48 -10.69,86.48 -12.04,86.48 -13.49,86.48 -14.94,86.48 -16.93,86.47 -18.93,86.46 -20.60,86.41 -22.26,86.37 -24.29,86.13 -26.32,85.89 -27.85,85.83 -29.39,85.77 -30.61,85.64 -31.83,85.51 -33.34,85.19 -34.86,84.87 -36.47,84.46 -38.09,84.05 -39.38,83.92 -40.68,83.80 -42.83,83.29 -44.98,82.78 -46.78,82.12 -48.59,81.47 -50.41,80.79 -52.23,80.10 -53.46,79.45 -54.68,78.79 -56.00,78.01 -57.31,77.22 -58.74,76.25 -60.16,75.28 -62.79,73.29 -65.42,71.30 -66.32,70.38 -67.22,69.46 -68.36,68.22 -69.50,66.98 -70.38,65.65 -71.26,64.32 -71.73,63.14 -72.20,61.97 -72.22,60.59 -72.25,59.22 -72.25,57.79 -72.25,56.37 -72.22,55.16 -72.18,53.95 -71.81,52.51 -71.44,51.07 -71.12,49.71 -70.81,48.34 -70.26,47.39 -69.71,46.44 -68.94,45.20 -68.17,43.96 -67.07,42.96 -65.96,41.96 -64.41,41.58 -62.86,41.21 -61.71,41.21 -60.56,41.20 -59.47,41.19 -58.37,41.18 -56.99,41.18 -55.61,41.17 -54.40,41.11 -53.20,41.05 -51.40,40.82 -49.61,40.58 -47.76,40.55 -45.91,40.51 -44.77,40.24 -43.63,39.98 -42.57,39.86 -41.52,39.75 -40.46,39.49 -39.40,39.24 -37.87,38.95 -36.34,38.67 -34.71,38.46 -33.09,38.24 -31.69,37.90 -30.30,37.55 -29.07,37.17 -27.85,36.79 -26.67,36.29 -25.49,35.79 -24.05,35.25 -22.61,34.72 -21.26,34.10 -19.92,33.48 -17.80,32.77 -15.68,32.06 -14.45,31.54 -13.23,31.02 -11.94,30.43 -10.66,29.84 -9.23,29.23 -7.81,28.63 -6.42,27.85 -5.04,27.06 -3.85,26.27 -2.66,25.47 -1.18,24.38 0.29,23.30 1.39,22.24 2.48,21.19 3.57,20.14 4.66,19.09 5.45,18.28 6.25,17.46 7.14,16.56 8.03,15.67 9.00,14.36 9.97,13.04 10.55,12.14 11.13,11.24 10.59,10.32 10.04,9.39 9.06,8.14 8.08,6.88 7.29,6.11 6.50,5.35 5.51,4.81 4.53,4.27 3.16,3.70 1.79,3.13 0.65,2.19 -0.47,1.26 -0.62,1.19 -0.76,1.11 -0.88,1.00 -1.01,0.90 -1.10,0.76 -1.19,0.63 -1.25,0.48 -1.31,0.32 -1.33,0.16 -1.35,0.00 -1.33,-0.15 -1.31,-0.31 -1.25,-0.47 -1.20,-0.62 -1.10,-0.75 -1.01,-0.89 -0.89,-1.00 -0.77,-1.11 -0.62,-1.18 -0.48,-1.26 -0.32,-1.30 -0.16,-1.34 -0.00,-1.34 0.15,-1.34 0.31,-1.30 0.47,-1.26 0.47,-1.26 L 0.47,-1.26 Z"></path></g><g transform="translate(228.82492038355258 187.01106049139776) rotate(0 0.2824833192431697 37.00757789450893)" stroke="none"><path fill="#000000" d="M 1.44,0.60 Q 1.44,0.60 0.96,2.68 0.47,4.77 -0.02,5.95 -0.53,7.13 -1.12,9.44 -1.71,11.75 -2.02,12.84 -2.34,13.93 -2.57,15.22 -2.80,16.52 -3.11,18.26 -3.43,20.01 -3.89,21.79 -4.35,23.57 -4.66,25.20 -4.98,26.84 -5.23,27.92 -5.49,29.00 -5.76,30.11 -6.02,31.22 -6.15,32.51 -6.28,33.81 -6.47,35.02 -6.67,36.22 -6.97,37.67 -7.27,39.12 -7.34,40.63 -7.42,42.14 -7.68,43.52 -7.94,44.89 -8.14,45.96 -8.34,47.02 -8.59,48.15 -8.84,49.28 -9.13,50.94 -9.43,52.60 -9.70,54.41 -9.97,56.23 -10.25,58.18 -10.52,60.14 -10.62,61.63 -10.72,63.11 -10.92,64.22 -11.12,65.33 -11.39,67.40 -11.66,69.47 -11.77,70.87 -11.87,72.28 -13.35,71.87 -14.84,71.46 -13.40,70.54 -11.95,69.62 -10.43,69.03 -8.90,68.45 -7.04,67.64 -5.18,66.82 -3.77,66.13 -2.36,65.45 -1.20,64.79 -0.05,64.12 1.27,63.08 2.59,62.04 3.61,61.49 4.62,60.94 5.99,60.20 7.37,59.45 8.85,58.87 10.33,58.28 11.49,57.89 12.65,57.49 13.58,57.51 14.50,57.52 14.57,57.33 14.65,57.13 14.78,56.96 14.91,56.80 15.09,56.68 15.27,56.57 15.48,56.52 15.69,56.47 15.90,56.49 16.11,56.51 16.30,56.59 16.50,56.68 16.66,56.82 16.81,56.96 16.92,57.15 17.02,57.33 17.06,57.54 17.10,57.75 17.07,57.96 17.04,58.17 16.94,58.36 16.85,58.55 16.70,58.70 16.54,58.85 16.35,58.94 16.16,59.04 15.95,59.07 15.74,59.09 15.53,59.05 15.32,59.01 15.14,58.90 14.96,58.80 14.81,58.64 14.67,58.48 14.59,58.28 14.51,58.09 14.49,57.88 14.48,57.67 14.53,57.46 14.58,57.25 14.70,57.08 14.81,56.90 14.98,56.76 15.15,56.63 15.35,56.56 15.55,56.49 15.76,56.48 15.97,56.48 16.17,56.54 16.38,56.61 16.55,56.73 16.72,56.86 16.84,57.03 16.96,57.20 17.03,57.41 17.09,57.61 17.08,57.82 17.07,58.04 17.07,58.04 17.07,58.04 14.95,60.71 12.83,63.38 11.26,64.02 9.70,64.66 8.52,65.31 7.34,65.96 5.80,66.78 4.25,67.61 2.87,68.67 1.49,69.73 0.22,70.36 -1.04,70.99 -2.87,71.85 -4.70,72.71 -6.49,73.51 -8.27,74.30 -10.01,74.92 -11.74,75.54 -13.33,75.85 -14.92,76.16 -16.25,75.11 -17.58,74.06 -17.47,71.95 -17.35,69.84 -17.08,68.41 -16.80,66.98 -16.54,64.94 -16.28,62.89 -16.14,61.09 -16.00,59.28 -15.71,57.32 -15.41,55.36 -15.11,53.46 -14.81,51.56 -14.48,49.82 -14.16,48.08 -13.92,47.04 -13.68,46.00 -13.39,44.45 -13.10,42.89 -12.92,41.70 -12.74,40.50 -12.45,38.56 -12.15,36.61 -11.90,35.07 -11.65,33.52 -11.44,31.72 -11.24,29.92 -10.96,28.83 -10.68,27.73 -10.42,26.68 -10.16,25.63 -9.71,23.76 -9.26,21.89 -8.81,20.40 -8.36,18.92 -8.00,17.22 -7.63,15.51 -7.00,13.14 -6.37,10.77 -5.96,9.05 -5.56,7.32 -5.15,6.30 -4.74,5.27 -4.23,4.15 -3.72,3.02 -2.58,1.20 -1.44,-0.60 -1.35,-0.76 -1.26,-0.93 -1.13,-1.07 -1.00,-1.20 -0.84,-1.31 -0.68,-1.41 -0.50,-1.47 -0.32,-1.53 -0.13,-1.55 0.05,-1.57 0.23,-1.54 0.42,-1.51 0.59,-1.43 0.77,-1.36 0.92,-1.25 1.07,-1.14 1.20,-0.99 1.32,-0.85 1.40,-0.67 1.48,-0.50 1.52,-0.32 1.56,-0.13 1.55,0.05 1.55,0.23 1.50,0.42 1.44,0.60 1.44,0.60 L 1.44,0.60 Z"></path></g><g transform="translate(227.12991701329815 187.5760788572818) rotate(0 20.340040443055386 20.05753126011325)" stroke="none"><path fill="#000000" d="M 1.50,-0.64 Q 1.50,-0.64 2.22,0.39 2.95,1.42 3.36,2.64 3.77,3.86 4.75,5.73 5.72,7.60 6.47,9.01 7.21,10.42 8.13,11.90 9.05,13.38 9.86,14.57 10.67,15.76 11.37,16.95 12.07,18.14 12.64,19.10 13.21,20.06 13.95,20.84 14.70,21.61 15.76,22.87 16.83,24.12 17.94,25.03 19.06,25.93 20.41,26.74 21.77,27.55 23.20,28.33 24.63,29.10 25.67,29.41 26.71,29.73 27.97,30.17 29.22,30.62 30.54,31.22 31.86,31.83 33.14,32.54 34.43,33.26 35.56,33.85 36.69,34.44 38.12,35.20 39.55,35.96 40.58,37.54 41.60,39.13 41.69,39.32 41.78,39.52 41.80,39.73 41.82,39.94 41.77,40.15 41.72,40.36 41.61,40.54 41.50,40.72 41.33,40.85 41.17,40.99 40.97,41.06 40.77,41.14 40.56,41.15 40.35,41.16 40.14,41.10 39.94,41.04 39.77,40.92 39.59,40.80 39.46,40.63 39.34,40.46 39.27,40.25 39.21,40.05 39.21,39.84 39.21,39.63 39.28,39.43 39.35,39.22 39.48,39.06 39.61,38.89 39.79,38.77 39.97,38.66 40.17,38.60 40.38,38.55 40.59,38.56 40.80,38.58 41.00,38.66 41.20,38.74 41.36,38.88 41.52,39.02 41.62,39.20 41.73,39.38 41.78,39.59 41.82,39.80 41.79,40.01 41.77,40.22 41.68,40.41 41.58,40.60 41.44,40.76 41.29,40.91 41.10,41.01 40.91,41.10 40.70,41.14 40.49,41.17 40.28,41.13 40.07,41.09 39.88,40.99 39.70,40.89 39.55,40.73 39.41,40.58 39.41,40.58 39.41,40.58 37.78,40.09 36.15,39.59 34.99,38.98 33.84,38.36 32.62,37.39 31.41,36.41 30.37,35.99 29.33,35.56 28.27,35.30 27.21,35.03 26.04,34.73 24.88,34.43 23.73,33.98 22.59,33.54 21.34,32.87 20.08,32.20 18.66,31.32 17.24,30.45 16.33,29.80 15.43,29.16 14.36,28.22 13.29,27.27 12.26,26.02 11.23,24.76 10.44,23.84 9.65,22.91 8.91,21.73 8.17,20.56 7.63,19.57 7.09,18.58 6.16,17.19 5.22,15.79 4.17,14.00 3.12,12.22 2.43,10.90 1.74,9.59 1.22,8.52 0.69,7.46 0.17,6.33 -0.35,5.21 -0.67,4.16 -1.00,3.12 -1.25,1.88 -1.50,0.64 -1.55,0.45 -1.61,0.26 -1.62,0.06 -1.63,-0.12 -1.59,-0.32 -1.55,-0.51 -1.46,-0.69 -1.38,-0.87 -1.26,-1.02 -1.13,-1.17 -0.97,-1.29 -0.82,-1.41 -0.63,-1.49 -0.45,-1.57 -0.26,-1.60 -0.06,-1.63 0.12,-1.61 0.32,-1.60 0.51,-1.54 0.69,-1.47 0.86,-1.37 1.03,-1.26 1.16,-1.12 1.30,-0.98 1.40,-0.81 1.50,-0.64 1.50,-0.64 L 1.50,-0.64 Z"></path></g><g transform="translate(225.99988028152984 181.36105787844895) rotate(0 33.05256571996483 -38.98507751585612)" stroke="none"><path fill="#000000" d="M -1.42,0.20 Q -1.42,0.20 -2.06,-0.86 -2.71,-1.93 -3.04,-3.64 -3.36,-5.36 -3.87,-7.00 -4.37,-8.65 -4.97,-10.44 -5.56,-12.24 -6.04,-14.10 -6.52,-15.96 -7.11,-17.63 -7.70,-19.30 -8.21,-21.29 -8.72,-23.29 -9.00,-24.38 -9.28,-25.47 -9.71,-27.34 -10.13,-29.21 -10.35,-30.64 -10.58,-32.07 -10.71,-33.34 -10.85,-34.62 -10.89,-36.12 -10.94,-37.61 -10.70,-39.03 -10.45,-40.46 -9.86,-42.04 -9.27,-43.63 -8.68,-44.59 -8.09,-45.56 -7.61,-46.52 -7.13,-47.48 -6.20,-48.63 -5.27,-49.77 -4.46,-50.62 -3.65,-51.46 -2.51,-52.16 -1.36,-52.85 -0.45,-53.46 0.44,-54.08 1.49,-54.86 2.53,-55.65 3.41,-56.26 4.30,-56.87 5.45,-57.76 6.61,-58.65 7.48,-59.33 8.36,-60.00 9.66,-60.97 10.96,-61.94 12.13,-62.61 13.30,-63.29 14.76,-64.11 16.22,-64.94 18.04,-65.83 19.87,-66.72 21.39,-67.36 22.92,-68.01 24.25,-68.66 25.58,-69.32 26.68,-69.67 27.78,-70.03 28.98,-70.57 30.19,-71.12 32.00,-71.92 33.80,-72.72 35.35,-73.44 36.89,-74.17 38.43,-74.92 39.97,-75.67 41.08,-76.08 42.19,-76.49 43.53,-77.09 44.88,-77.70 46.55,-78.33 48.21,-78.96 49.47,-79.31 50.72,-79.67 52.53,-80.07 54.35,-80.47 55.58,-80.77 56.81,-81.07 58.00,-81.35 59.20,-81.63 60.50,-81.69 61.80,-81.76 63.27,-81.77 64.74,-81.79 65.85,-81.78 66.97,-81.78 68.18,-81.78 69.40,-81.77 70.53,-81.52 71.65,-81.28 72.73,-80.32 73.80,-79.36 73.95,-79.31 74.10,-79.27 74.24,-79.19 74.38,-79.10 74.49,-78.99 74.60,-78.88 74.68,-78.75 74.77,-78.61 74.81,-78.46 74.86,-78.31 74.87,-78.15 74.88,-77.99 74.85,-77.84 74.82,-77.68 74.76,-77.54 74.70,-77.39 74.60,-77.27 74.50,-77.14 74.38,-77.04 74.25,-76.95 74.11,-76.88 73.96,-76.82 73.81,-76.79 73.65,-76.76 73.50,-76.77 73.34,-76.78 73.69,-76.81 74.04,-76.84 73.83,-76.80 73.62,-76.76 73.41,-76.78 73.20,-76.81 73.01,-76.90 72.82,-76.99 72.66,-77.14 72.51,-77.29 72.42,-77.48 72.32,-77.67 72.29,-77.88 72.26,-78.09 72.29,-78.30 72.33,-78.51 72.43,-78.69 72.54,-78.88 72.69,-79.02 72.85,-79.17 73.04,-79.25 73.24,-79.34 73.45,-79.36 73.66,-79.38 73.87,-79.33 74.07,-79.28 74.25,-79.17 74.43,-79.06 74.57,-78.89 74.70,-78.73 74.78,-78.53 74.86,-78.33 74.86,-78.12 74.87,-77.91 74.81,-77.70 74.75,-77.50 74.63,-77.32 74.51,-77.15 74.34,-77.02 74.17,-76.90 73.97,-76.83 73.76,-76.77 73.55,-76.77 73.34,-76.78 73.14,-76.85 72.94,-76.92 72.77,-77.05 72.60,-77.18 72.49,-77.36 72.37,-77.53 72.32,-77.74 72.26,-77.95 72.28,-78.16 72.29,-78.37 72.37,-78.57 72.45,-78.76 72.59,-78.92 72.73,-79.08 73.27,-79.22 73.80,-79.36 73.95,-79.31 74.10,-79.27 74.24,-79.19 74.38,-79.10 74.49,-78.99 74.60,-78.88 74.68,-78.75 74.77,-78.61 74.81,-78.46 74.86,-78.31 74.87,-78.15 74.88,-77.99 74.85,-77.84 74.82,-77.68 74.76,-77.54 74.70,-77.39 74.60,-77.27 74.50,-77.14 74.38,-77.04 74.25,-76.95 74.11,-76.88 73.96,-76.82 73.81,-76.79 73.65,-76.76 73.50,-76.77 73.34,-76.78 71.33,-76.60 69.33,-76.42 68.15,-76.41 66.97,-76.41 65.86,-76.41 64.75,-76.40 63.34,-76.39 61.94,-76.39 60.58,-76.31 59.21,-76.23 57.97,-75.98 56.73,-75.73 55.31,-75.38 53.89,-75.03 52.32,-74.53 50.74,-74.03 49.63,-73.69 48.53,-73.35 47.49,-72.87 46.45,-72.40 44.84,-71.77 43.23,-71.14 42.20,-70.71 41.18,-70.28 40.13,-69.70 39.08,-69.12 37.37,-68.31 35.66,-67.51 34.06,-66.79 32.45,-66.06 30.24,-65.19 28.02,-64.31 26.64,-63.64 25.25,-62.96 23.79,-62.35 22.32,-61.74 20.39,-60.79 18.46,-59.84 17.35,-59.20 16.24,-58.57 14.74,-57.74 13.23,-56.90 11.67,-55.63 10.11,-54.36 8.95,-53.51 7.80,-52.65 6.20,-51.49 4.61,-50.33 3.37,-49.59 2.14,-48.84 1.09,-48.29 0.04,-47.73 -0.99,-46.66 -2.03,-45.59 -2.74,-44.72 -3.44,-43.85 -4.23,-42.53 -5.01,-41.21 -5.50,-39.94 -5.99,-38.66 -6.00,-37.16 -6.01,-35.65 -5.91,-34.34 -5.82,-33.02 -5.57,-31.38 -5.33,-29.74 -4.96,-28.20 -4.59,-26.66 -4.32,-25.57 -4.04,-24.48 -3.78,-23.44 -3.52,-22.41 -3.14,-20.99 -2.76,-19.57 -2.28,-18.30 -1.81,-17.02 -1.45,-15.54 -1.09,-14.05 -0.62,-12.85 -0.14,-11.65 0.21,-10.16 0.57,-8.68 1.06,-6.72 1.55,-4.77 1.80,-3.69 2.06,-2.61 1.74,-1.41 1.42,-0.20 1.43,-0.03 1.43,0.14 1.39,0.31 1.35,0.48 1.28,0.63 1.20,0.79 1.09,0.92 0.97,1.05 0.83,1.16 0.69,1.26 0.53,1.32 0.37,1.39 0.20,1.41 0.03,1.44 -0.14,1.42 -0.31,1.40 -0.47,1.34 -0.64,1.29 -0.78,1.19 -0.93,1.09 -1.05,0.97 -1.16,0.84 -1.25,0.69 -1.33,0.53 -1.38,0.37 -1.42,0.20 -1.42,0.20 L -1.42,0.20 Z"></path></g><g transform="translate(229.38988702203915 184.18607211677272) rotate(0 -2.2599958724399585 -7.627515166145827)" stroke="none"><path fill="#000000" d="M -1.39,0.46 Q -1.39,0.46 -2.03,-0.40 -2.68,-1.27 -3.18,-2.89 -3.69,-4.51 -4.04,-6.04 -4.40,-7.58 -4.90,-8.93 -5.40,-10.28 -5.52,-12.30 -5.65,-14.31 -5.66,-14.52 -5.67,-14.74 -5.62,-14.94 -5.56,-15.15 -5.45,-15.32 -5.33,-15.50 -5.16,-15.63 -4.99,-15.76 -4.79,-15.83 -4.59,-15.90 -4.38,-15.90 -4.17,-15.91 -3.97,-15.84 -3.76,-15.78 -3.59,-15.65 -3.42,-15.52 -3.30,-15.35 -3.18,-15.17 -3.12,-14.97 -3.06,-14.77 -3.07,-14.55 -3.08,-14.34 -3.16,-14.14 -3.23,-13.94 -3.37,-13.78 -3.50,-13.62 -3.69,-13.51 -3.87,-13.39 -4.07,-13.35 -4.28,-13.30 -4.49,-13.32 -4.70,-13.34 -4.90,-13.43 -5.09,-13.51 -5.25,-13.66 -5.40,-13.80 -5.50,-13.99 -5.61,-14.18 -5.64,-14.38 -5.68,-14.59 -5.65,-14.80 -5.62,-15.01 -5.52,-15.20 -5.42,-15.39 -5.27,-15.54 -5.12,-15.69 -4.92,-15.78 -4.73,-15.87 -4.52,-15.90 -4.31,-15.92 -4.10,-15.88 -3.89,-15.83 -3.71,-15.73 -3.53,-15.62 -3.39,-15.46 -3.25,-15.30 -3.17,-15.10 -3.09,-14.91 -3.09,-14.91 -3.09,-14.91 -2.38,-13.53 -1.68,-12.15 -1.12,-10.82 -0.57,-9.48 -0.32,-8.42 -0.06,-7.36 0.23,-6.13 0.54,-4.91 0.96,-3.77 1.38,-2.62 1.38,-1.54 1.39,-0.46 1.42,-0.29 1.46,-0.11 1.45,0.05 1.44,0.23 1.40,0.40 1.35,0.57 1.26,0.72 1.17,0.88 1.05,1.01 0.92,1.13 0.77,1.23 0.62,1.32 0.46,1.38 0.29,1.43 0.11,1.45 -0.05,1.46 -0.23,1.43 -0.40,1.41 -0.57,1.34 -0.73,1.27 -0.87,1.16 -1.01,1.05 -1.12,0.92 -1.24,0.78 -1.31,0.62 -1.39,0.46 -1.39,0.46 L -1.39,0.46 Z"></path></g><g transform="translate(335.61013270959324 70.0558279438294) rotate(0 23.165028817680422 16.102532017418753)" stroke="none"><path fill="#000000" d="M 0,-1.46 Q 0,-1.46 1.46,-1.92 2.92,-2.38 4.34,-2.22 5.77,-2.05 7.17,-1.82 8.58,-1.60 9.61,-1.30 10.64,-1.01 12.88,-0.26 15.12,0.48 16.70,1.08 18.27,1.68 19.35,2.18 20.43,2.69 21.76,3.41 23.08,4.13 24.96,5.17 26.85,6.20 27.78,6.99 28.71,7.78 30.14,9.32 31.58,10.85 32.96,12.14 34.35,13.44 35.31,14.38 36.27,15.33 37.63,16.77 38.98,18.22 40.31,19.55 41.64,20.89 42.81,22.32 43.98,23.75 44.84,24.87 45.70,26.00 46.35,26.93 46.99,27.86 46.21,29.14 45.43,30.43 45.51,30.56 45.59,30.70 45.64,30.85 45.68,31.00 45.69,31.16 45.70,31.32 45.67,31.47 45.64,31.63 45.58,31.77 45.51,31.92 45.41,32.04 45.31,32.17 45.19,32.26 45.06,32.36 44.92,32.42 44.77,32.49 44.62,32.52 44.46,32.54 44.30,32.53 44.15,32.52 44.00,32.48 43.84,32.43 43.71,32.34 43.57,32.26 43.46,32.15 43.35,32.04 43.41,32.10 43.46,32.16 43.34,31.99 43.21,31.81 43.15,31.61 43.09,31.41 43.09,31.19 43.10,30.98 43.17,30.78 43.25,30.58 43.38,30.42 43.52,30.25 43.70,30.14 43.87,30.02 44.08,29.97 44.29,29.92 44.50,29.94 44.71,29.96 44.91,30.04 45.10,30.13 45.26,30.27 45.42,30.41 45.52,30.60 45.62,30.78 45.66,30.99 45.70,31.20 45.67,31.41 45.64,31.62 45.55,31.81 45.45,32.00 45.30,32.15 45.15,32.30 44.96,32.40 44.77,32.49 44.56,32.52 44.35,32.55 44.14,32.50 43.93,32.46 43.75,32.36 43.56,32.25 43.42,32.10 43.28,31.94 43.20,31.74 43.11,31.55 43.10,31.33 43.08,31.12 43.13,30.92 43.19,30.71 43.30,30.53 43.42,30.35 43.58,30.22 43.75,30.09 43.95,30.01 44.15,29.94 44.36,29.94 44.57,29.93 44.77,29.99 44.98,30.06 45.20,30.24 45.43,30.43 45.51,30.56 45.59,30.70 45.64,30.85 45.68,31.00 45.69,31.16 45.70,31.32 45.67,31.47 45.64,31.63 45.58,31.77 45.51,31.92 45.41,32.04 45.31,32.17 45.19,32.26 45.06,32.36 44.92,32.42 44.77,32.49 44.62,32.52 44.46,32.54 44.30,32.53 44.15,32.52 44.00,32.48 43.84,32.43 43.71,32.34 43.57,32.26 43.46,32.15 43.35,32.04 42.74,30.94 42.12,29.83 41.48,28.91 40.83,28.00 40.04,26.95 39.24,25.91 38.15,24.58 37.07,23.25 36.04,22.36 35.01,21.46 34.03,20.38 33.04,19.30 32.05,18.32 31.07,17.34 30.15,16.56 29.24,15.78 28.43,14.91 27.63,14.04 26.51,12.81 25.39,11.58 24.14,10.54 22.88,9.49 21.77,8.99 20.66,8.48 19.48,7.81 18.30,7.13 16.53,6.28 14.76,5.43 13.08,4.81 11.41,4.19 9.58,3.68 7.76,3.17 6.46,2.94 5.16,2.70 4.04,2.54 2.92,2.38 1.46,1.92 0,1.46 -0.17,1.44 -0.35,1.42 -0.51,1.35 -0.68,1.29 -0.82,1.19 -0.97,1.09 -1.08,0.96 -1.20,0.83 -1.28,0.67 -1.36,0.51 -1.41,0.34 -1.45,0.17 -1.45,-0.00 -1.45,-0.17 -1.41,-0.34 -1.36,-0.51 -1.28,-0.67 -1.20,-0.83 -1.08,-0.96 -0.97,-1.09 -0.82,-1.19 -0.68,-1.29 -0.51,-1.35 -0.35,-1.42 -0.17,-1.44 0.00,-1.46 0.00,-1.46 L 0,-1.46 Z"></path></g><g transform="translate(347.47515630137536 58.19080435204705) rotate(0 23.73004718356458 18.927546255742868)" stroke="none"><path fill="#000000" d="M 0.36,-1.60 Q 0.36,-1.60 2.57,-1.50 4.77,-1.40 7.09,-0.76 9.42,-0.13 11.51,0.67 13.61,1.47 14.88,2.22 16.15,2.96 18.17,4.03 20.19,5.09 21.61,5.88 23.03,6.68 24.14,7.35 25.25,8.03 26.63,9.11 28.02,10.20 28.81,10.94 29.60,11.68 30.84,12.75 32.08,13.81 33.00,14.65 33.91,15.48 35.34,16.87 36.78,18.25 37.72,19.03 38.66,19.81 40.06,21.10 41.47,22.40 42.23,23.31 42.98,24.23 43.62,25.11 44.26,25.99 45.27,27.48 46.27,28.98 46.90,30.22 47.53,31.45 48.27,33.01 49.01,34.56 47.80,37.33 46.60,40.10 45.95,38.33 45.30,36.55 45.26,36.70 45.22,36.86 45.14,37.00 45.07,37.14 44.96,37.25 44.85,37.37 44.72,37.46 44.59,37.54 44.44,37.60 44.29,37.65 44.13,37.67 43.98,37.68 43.82,37.66 43.66,37.64 43.52,37.58 43.37,37.52 43.24,37.43 43.11,37.34 43.01,37.22 42.91,37.10 42.83,36.96 42.76,36.82 42.73,36.66 42.69,36.51 42.70,36.35 42.70,36.19 42.91,36.77 43.12,37.35 42.99,37.18 42.85,37.01 42.78,36.82 42.71,36.62 42.70,36.40 42.70,36.19 42.76,35.99 42.82,35.78 42.95,35.61 43.07,35.44 43.25,35.32 43.42,35.19 43.62,35.13 43.83,35.07 44.04,35.08 44.25,35.08 44.45,35.16 44.65,35.23 44.81,35.36 44.98,35.50 45.09,35.68 45.21,35.86 45.26,36.06 45.31,36.27 45.29,36.48 45.27,36.69 45.19,36.89 45.10,37.08 44.96,37.24 44.82,37.40 44.63,37.50 44.45,37.61 44.24,37.64 44.03,37.68 43.82,37.66 43.61,37.63 43.42,37.53 43.23,37.44 43.08,37.29 42.93,37.13 42.84,36.94 42.74,36.75 42.71,36.54 42.69,36.33 42.73,36.12 42.77,35.91 42.87,35.73 42.98,35.55 43.14,35.40 43.30,35.26 43.49,35.18 43.69,35.10 43.90,35.08 44.11,35.06 44.32,35.11 44.52,35.17 44.91,35.86 45.30,36.55 45.26,36.70 45.22,36.86 45.14,37.00 45.07,37.14 44.96,37.25 44.85,37.37 44.72,37.46 44.59,37.54 44.44,37.60 44.29,37.65 44.13,37.67 43.98,37.68 43.82,37.66 43.66,37.64 43.52,37.58 43.37,37.52 43.24,37.43 43.11,37.34 43.01,37.22 42.91,37.10 42.83,36.96 42.76,36.82 42.73,36.66 42.69,36.51 42.70,36.35 42.70,36.19 45.00,35.49 47.29,34.79 45.58,35.72 43.87,36.65 43.32,35.44 42.77,34.23 42.14,32.98 41.51,31.73 40.67,30.46 39.84,29.20 38.76,27.77 37.69,26.34 36.42,25.17 35.16,23.99 34.06,23.07 32.95,22.14 31.60,20.82 30.24,19.50 29.45,18.78 28.67,18.06 27.73,17.29 26.78,16.51 25.63,15.39 24.47,14.27 23.45,13.45 22.43,12.63 21.40,11.99 20.37,11.36 19.05,10.60 17.73,9.84 15.55,8.63 13.36,7.43 11.48,6.34 9.61,5.26 7.73,4.53 5.86,3.80 4.77,3.57 3.67,3.35 1.65,2.47 -0.36,1.60 -0.55,1.53 -0.74,1.46 -0.90,1.35 -1.07,1.24 -1.20,1.09 -1.33,0.95 -1.43,0.77 -1.52,0.60 -1.57,0.41 -1.62,0.22 -1.63,0.02 -1.63,-0.17 -1.58,-0.36 -1.54,-0.55 -1.45,-0.73 -1.36,-0.91 -1.23,-1.06 -1.10,-1.21 -0.94,-1.32 -0.78,-1.44 -0.60,-1.51 -0.41,-1.58 -0.22,-1.61 -0.02,-1.64 0.17,-1.62 0.36,-1.60 0.36,-1.60 L 0.36,-1.60 Z"></path></g><g transform="translate(353.12513305062566 138.9859736220833) rotate(0 24.860058051633928 20.622536694147925)" stroke="none"><path fill="#000000" d="M 1.08,-0.93 Q 1.08,-0.93 2.42,-0.10 3.75,0.72 5.13,2.10 6.52,3.47 7.27,4.25 8.02,5.02 9.54,6.21 11.06,7.39 12.01,8.06 12.97,8.72 14.45,9.85 15.93,10.99 17.17,11.93 18.41,12.87 19.98,14.25 21.56,15.62 22.47,16.36 23.38,17.09 25.17,18.46 26.95,19.82 28.37,20.84 29.79,21.87 31.43,23.17 33.06,24.48 34.44,25.71 35.82,26.95 36.92,27.95 38.01,28.95 39.41,30.16 40.80,31.36 41.80,32.10 42.79,32.83 44.26,34.16 45.72,35.50 46.74,36.28 47.76,37.05 48.82,38.58 49.88,40.11 50.00,40.21 50.13,40.31 50.22,40.44 50.32,40.57 50.38,40.71 50.44,40.86 50.47,41.01 50.50,41.17 50.48,41.33 50.47,41.48 50.42,41.63 50.37,41.78 50.29,41.92 50.21,42.05 50.09,42.16 49.98,42.27 49.84,42.35 49.70,42.43 49.55,42.48 49.40,42.52 49.24,42.53 49.08,42.54 48.93,42.51 48.77,42.48 48.63,42.41 48.49,42.34 48.85,42.44 49.21,42.54 49.00,42.51 48.79,42.48 48.60,42.39 48.41,42.29 48.26,42.14 48.11,41.99 48.02,41.80 47.93,41.61 47.90,41.40 47.87,41.19 47.91,40.98 47.95,40.77 48.06,40.58 48.16,40.40 48.32,40.26 48.48,40.12 48.68,40.03 48.87,39.95 49.09,39.94 49.30,39.92 49.50,39.97 49.71,40.02 49.89,40.14 50.07,40.25 50.20,40.42 50.33,40.59 50.40,40.79 50.47,40.99 50.48,41.20 50.48,41.41 50.42,41.61 50.36,41.82 50.23,41.99 50.11,42.16 49.93,42.28 49.76,42.41 49.56,42.47 49.35,42.53 49.14,42.52 48.93,42.52 48.73,42.44 48.53,42.37 48.37,42.23 48.20,42.10 48.09,41.92 47.97,41.74 47.92,41.53 47.87,41.33 47.89,41.12 47.91,40.90 48.00,40.71 48.08,40.51 48.22,40.36 48.37,40.20 48.55,40.10 48.74,39.99 49.31,40.05 49.88,40.11 50.00,40.21 50.13,40.31 50.22,40.44 50.32,40.57 50.38,40.71 50.44,40.86 50.47,41.01 50.50,41.17 50.48,41.33 50.47,41.48 50.42,41.63 50.37,41.78 50.29,41.92 50.21,42.05 50.09,42.16 49.98,42.27 49.84,42.35 49.70,42.43 49.55,42.48 49.40,42.52 49.24,42.53 49.09,42.54 48.93,42.51 48.77,42.48 48.63,42.41 48.49,42.34 46.89,42.21 45.30,42.08 44.09,41.11 42.87,40.15 41.56,39.06 40.26,37.96 39.36,37.14 38.47,36.32 37.05,35.17 35.63,34.01 34.75,33.26 33.87,32.52 32.98,31.71 32.09,30.90 30.91,29.83 29.73,28.75 28.22,27.51 26.71,26.27 25.33,25.25 23.94,24.23 21.99,22.72 20.03,21.22 18.98,20.36 17.93,19.50 16.56,18.27 15.19,17.04 13.93,16.06 12.68,15.08 11.35,13.98 10.02,12.88 8.95,12.11 7.88,11.33 6.16,9.90 4.44,8.48 3.68,7.69 2.93,6.90 1.53,5.36 0.14,3.82 -0.47,2.37 -1.08,0.93 -1.18,0.79 -1.28,0.64 -1.34,0.48 -1.39,0.32 -1.41,0.14 -1.43,-0.02 -1.41,-0.19 -1.38,-0.36 -1.32,-0.52 -1.25,-0.68 -1.15,-0.82 -1.05,-0.96 -0.92,-1.08 -0.79,-1.19 -0.64,-1.27 -0.48,-1.35 -0.31,-1.38 -0.14,-1.42 0.02,-1.42 0.19,-1.42 0.36,-1.37 0.53,-1.33 0.68,-1.25 0.83,-1.16 0.96,-1.05 1.08,-0.93 1.08,-0.93 L 1.08,-0.93 Z"></path></g><g transform="translate(404.5402525241482 175.7110552654999) rotate(0 -22.035043813309926 48.307596052256486)" stroke="none"><path fill="#000000" d="M 1.81,0 Q 1.81,0 2.14,1.78 2.47,3.57 2.50,5.14 2.53,6.71 2.38,8.89 2.22,11.06 2.01,12.70 1.81,14.34 1.35,17.18 0.90,20.02 0.53,21.97 0.16,23.92 -0.09,25.15 -0.34,26.38 -0.64,28.16 -0.95,29.94 -1.21,31.11 -1.47,32.27 -1.77,34.05 -2.07,35.83 -2.61,37.62 -3.15,39.42 -3.66,41.14 -4.18,42.86 -4.46,44.00 -4.75,45.15 -5.23,46.60 -5.72,48.06 -6.36,49.85 -6.99,51.64 -7.66,53.39 -8.34,55.14 -9.07,56.82 -9.80,58.50 -10.62,60.12 -11.44,61.73 -12.02,62.78 -12.60,63.83 -13.25,65.01 -13.90,66.18 -14.43,67.11 -14.96,68.04 -15.70,69.11 -16.45,70.19 -17.34,71.67 -18.23,73.14 -18.75,74.08 -19.27,75.01 -20.43,76.66 -21.59,78.30 -22.55,79.53 -23.51,80.76 -24.37,81.91 -25.24,83.06 -25.92,84.01 -26.60,84.95 -27.46,85.96 -28.33,86.97 -29.64,88.36 -30.95,89.75 -31.89,90.70 -32.83,91.64 -33.90,92.78 -34.98,93.91 -36.19,95.08 -37.41,96.24 -38.44,97.02 -39.46,97.79 -41.26,96.98 -43.06,96.17 -43.20,96.25 -43.33,96.34 -43.48,96.39 -43.63,96.44 -43.79,96.45 -43.95,96.46 -44.10,96.44 -44.26,96.41 -44.40,96.35 -44.55,96.29 -44.68,96.20 -44.80,96.10 -44.90,95.98 -45.00,95.86 -45.07,95.71 -45.14,95.57 -45.17,95.41 -45.20,95.26 -45.20,95.10 -45.19,94.94 -45.15,94.79 -45.10,94.64 -45.02,94.50 -44.95,94.36 -44.84,94.25 -44.73,94.14 -44.94,94.84 -45.15,95.54 -45.18,95.33 -45.21,95.12 -45.17,94.91 -45.13,94.70 -45.02,94.52 -44.92,94.33 -44.76,94.19 -44.60,94.05 -44.41,93.96 -44.21,93.88 -44.00,93.86 -43.79,93.84 -43.58,93.89 -43.38,93.95 -43.20,94.06 -43.02,94.17 -42.89,94.34 -42.75,94.50 -42.68,94.70 -42.60,94.90 -42.60,95.12 -42.59,95.33 -42.66,95.53 -42.72,95.73 -42.84,95.91 -42.96,96.08 -43.14,96.20 -43.31,96.33 -43.51,96.39 -43.72,96.45 -43.93,96.45 -44.14,96.44 -44.34,96.37 -44.54,96.30 -44.71,96.16 -44.87,96.03 -44.99,95.85 -45.10,95.67 -45.15,95.47 -45.20,95.26 -45.19,95.05 -45.17,94.84 -45.09,94.64 -45.00,94.45 -44.86,94.29 -44.72,94.13 -44.53,94.02 -44.35,93.92 -44.14,93.88 -43.93,93.84 -43.72,93.87 -43.51,93.90 -43.32,93.99 -43.13,94.08 -42.98,94.23 -42.83,94.38 -42.95,95.28 -43.06,96.17 -43.20,96.25 -43.33,96.34 -43.48,96.39 -43.63,96.44 -43.79,96.45 -43.95,96.46 -44.10,96.44 -44.26,96.41 -44.40,96.35 -44.55,96.29 -44.68,96.20 -44.80,96.10 -44.90,95.98 -45.00,95.86 -45.07,95.71 -45.14,95.57 -45.17,95.41 -45.20,95.26 -45.20,95.10 -45.19,94.94 -45.15,94.79 -45.10,94.64 -45.02,94.50 -44.95,94.36 -44.84,94.25 -44.73,94.14 -43.40,93.37 -42.07,92.60 -41.23,91.90 -40.40,91.20 -39.42,90.29 -38.44,89.38 -37.65,88.52 -36.86,87.65 -35.96,86.72 -35.05,85.80 -33.84,84.52 -32.62,83.24 -31.92,82.44 -31.21,81.65 -30.49,80.63 -29.77,79.61 -28.87,78.45 -27.97,77.28 -27.07,76.12 -26.17,74.95 -25.18,73.59 -24.19,72.22 -23.54,71.09 -22.90,69.97 -21.98,68.48 -21.07,67.00 -20.44,66.10 -19.82,65.20 -18.97,63.60 -18.12,61.99 -17.33,60.72 -16.53,59.44 -15.98,58.22 -15.42,57.01 -14.73,55.69 -14.03,54.37 -13.46,53.10 -12.89,51.82 -12.51,50.64 -12.13,49.46 -11.56,47.86 -10.98,46.26 -10.55,45.02 -10.11,43.78 -9.76,42.40 -9.40,41.02 -8.94,39.48 -8.47,37.94 -7.97,36.31 -7.47,34.69 -7.15,32.88 -6.82,31.07 -6.58,30.00 -6.33,28.92 -6.00,27.10 -5.66,25.28 -5.40,24.01 -5.13,22.74 -4.73,20.83 -4.33,18.91 -3.96,17.33 -3.59,15.75 -3.49,14.67 -3.38,13.60 -3.13,11.97 -2.87,10.35 -2.70,8.53 -2.53,6.71 -2.50,5.14 -2.47,3.57 -2.14,1.78 -1.81,0 -1.79,-0.21 -1.76,-0.43 -1.68,-0.64 -1.61,-0.84 -1.48,-1.02 -1.36,-1.20 -1.19,-1.35 -1.03,-1.49 -0.83,-1.59 -0.64,-1.70 -0.43,-1.75 -0.21,-1.80 0.00,-1.80 0.21,-1.80 0.43,-1.75 0.64,-1.70 0.83,-1.59 1.03,-1.49 1.19,-1.35 1.36,-1.20 1.48,-1.02 1.61,-0.84 1.68,-0.63 1.76,-0.43 1.79,-0.21 1.81,0.00 1.81,0.00 L 1.81,0 Z"></path></g><g transform="translate(429.40028471208325 181.36105787844895) rotate(0 -26.555035558189616 54.5226040992402)" stroke="none"><path fill="#000000" d="M 1.49,0 Q 1.49,0 1.90,1.46 2.32,2.92 2.18,4.94 2.03,6.96 1.62,9.80 1.22,12.64 0.76,14.85 0.30,17.06 0.12,18.39 -0.05,19.72 -0.29,21.32 -0.53,22.91 -0.78,24.71 -1.02,26.51 -1.32,27.73 -1.62,28.95 -1.85,30.33 -2.08,31.71 -2.35,33.14 -2.62,34.57 -2.93,35.62 -3.25,36.68 -3.50,37.81 -3.75,38.93 -4.21,40.50 -4.67,42.07 -5.26,44.19 -5.86,46.31 -6.16,47.61 -6.46,48.90 -7.11,50.90 -7.76,52.89 -8.63,55.58 -9.50,58.28 -9.99,60.09 -10.48,61.90 -10.95,63.25 -11.42,64.61 -12.25,66.58 -13.07,68.56 -13.60,69.77 -14.12,70.98 -14.70,72.21 -15.28,73.44 -16.19,75.19 -17.10,76.94 -17.75,78.20 -18.41,79.45 -19.20,80.84 -19.98,82.22 -20.73,83.28 -21.49,84.33 -22.72,86.28 -23.95,88.24 -24.81,89.60 -25.67,90.97 -26.57,92.26 -27.47,93.56 -28.15,94.57 -28.83,95.58 -29.70,96.62 -30.57,97.66 -31.43,98.59 -32.29,99.52 -33.37,100.64 -34.44,101.75 -35.42,102.74 -36.39,103.72 -37.59,104.47 -38.78,105.22 -39.92,106.02 -41.06,106.82 -42.46,107.53 -43.87,108.24 -45.03,108.85 -46.19,109.47 -47.54,110.04 -48.89,110.61 -50.79,110.47 -52.69,110.32 -52.90,110.31 -53.12,110.29 -53.31,110.21 -53.51,110.13 -53.67,109.99 -53.83,109.85 -53.94,109.67 -54.05,109.49 -54.09,109.28 -54.14,109.07 -54.11,108.86 -54.09,108.65 -54.00,108.46 -53.90,108.27 -53.76,108.11 -53.61,107.96 -53.42,107.86 -53.23,107.76 -53.02,107.73 -52.81,107.70 -52.60,107.73 -52.39,107.77 -52.21,107.87 -52.02,107.97 -51.88,108.13 -51.73,108.28 -51.64,108.48 -51.56,108.67 -51.53,108.88 -51.51,109.09 -51.56,109.30 -51.61,109.51 -51.72,109.69 -51.83,109.87 -51.99,110.01 -52.16,110.14 -52.35,110.22 -52.55,110.30 -52.76,110.31 -52.98,110.32 -53.18,110.26 -53.38,110.20 -53.56,110.08 -53.73,109.96 -53.86,109.79 -53.99,109.62 -54.05,109.42 -54.12,109.21 -54.12,109.00 -54.12,108.79 -54.05,108.59 -53.98,108.39 -53.85,108.22 -53.72,108.05 -53.54,107.93 -53.37,107.82 -53.16,107.76 -52.96,107.71 -52.96,107.71 -52.96,107.71 -51.60,106.28 -50.24,104.86 -48.97,104.48 -47.70,104.10 -46.75,103.53 -45.80,102.97 -44.59,102.18 -43.39,101.39 -41.89,100.51 -40.39,99.62 -39.46,98.68 -38.53,97.74 -37.50,96.68 -36.46,95.63 -34.99,94.00 -33.53,92.38 -32.82,91.35 -32.12,90.33 -31.29,89.13 -30.46,87.94 -29.54,86.50 -28.62,85.06 -27.35,83.05 -26.07,81.04 -25.37,80.07 -24.67,79.11 -23.96,77.85 -23.24,76.59 -22.54,75.28 -21.83,73.97 -21.08,72.51 -20.33,71.05 -19.78,69.89 -19.22,68.73 -18.62,67.38 -18.02,66.02 -17.33,64.40 -16.64,62.77 -16.23,61.63 -15.82,60.49 -15.27,58.47 -14.71,56.44 -14.12,54.83 -13.54,53.21 -13.25,52.18 -12.97,51.15 -12.36,49.38 -11.75,47.61 -11.38,46.16 -11.01,44.72 -10.42,42.62 -9.83,40.53 -9.40,39.12 -8.96,37.72 -8.40,35.62 -7.84,33.53 -7.54,32.12 -7.25,30.70 -6.67,28.23 -6.08,25.76 -5.79,23.95 -5.51,22.13 -5.25,20.57 -5.00,19.02 -4.77,17.51 -4.55,16.00 -4.05,13.83 -3.56,11.66 -3.12,9.11 -2.68,6.56 -2.50,4.74 -2.32,2.92 -1.90,1.46 -1.49,0 -1.47,-0.17 -1.45,-0.35 -1.38,-0.52 -1.32,-0.69 -1.22,-0.84 -1.11,-0.99 -0.98,-1.11 -0.84,-1.22 -0.68,-1.31 -0.52,-1.39 -0.35,-1.44 -0.18,-1.48 0.00,-1.48 0.18,-1.48 0.35,-1.44 0.52,-1.39 0.68,-1.31 0.84,-1.22 0.98,-1.11 1.11,-0.99 1.22,-0.84 1.32,-0.69 1.38,-0.52 1.45,-0.35 1.47,-0.17 1.49,0.00 1.49,0.00 L 1.49,0 Z"></path></g><g transform="translate(22.034483348791014 142.37598036259237) rotate(0 94.07268704913088 59.042621707818626)" stroke="none"><path fill="#000000" d="M -0.34,1.37 Q -0.34,1.37 -1.09,1.60 -1.83,1.83 -2.09,1.73 -2.34,1.64 -2.56,1.49 -2.78,1.33 -2.95,1.13 -3.13,0.93 -3.26,0.69 -3.38,0.45 -3.44,0.19 -3.51,-0.06 -3.51,-0.33 -3.50,-0.60 -3.44,-0.86 -3.37,-1.12 -3.25,-1.35 -3.12,-1.59 -2.94,-1.79 -2.77,-1.99 -2.54,-2.14 -2.32,-2.30 -2.07,-2.39 -1.82,-2.48 -1.55,-2.52 -1.29,-2.55 -1.02,-2.51 -0.75,-2.48 0.91,-2.66 2.58,-2.85 4.11,-2.89 5.65,-2.94 8.30,-2.80 10.95,-2.66 12.51,-2.61 14.07,-2.56 15.27,-2.35 16.46,-2.15 17.86,-1.93 19.25,-1.72 20.82,-1.48 22.39,-1.23 24.39,-1.12 26.38,-1.01 28.05,-1.01 29.72,-1.01 31.89,-1.01 34.07,-1.02 35.97,-1.03 37.87,-1.04 39.65,-1.05 41.43,-1.05 42.51,-1.05 43.60,-1.05 44.87,-1.06 46.14,-1.06 47.65,-1.07 49.17,-1.09 50.63,-1.09 52.08,-1.09 54.73,-1.10 57.37,-1.11 59.84,-1.12 62.31,-1.12 63.88,-1.12 65.46,-1.13 67.27,-1.13 69.08,-1.12 70.17,-1.12 71.26,-1.13 72.70,-1.13 74.14,-1.13 76.06,-1.13 77.97,-1.13 79.27,-1.14 80.57,-1.14 82.09,-1.14 83.62,-1.14 85.82,-1.29 88.01,-1.45 89.51,-1.52 91.01,-1.60 93.19,-1.64 95.37,-1.69 96.70,-1.70 98.03,-1.70 99.88,-1.70 101.73,-1.70 103.02,-1.71 104.31,-1.71 106.13,-1.71 107.96,-1.71 109.41,-1.71 110.85,-1.71 112.28,-1.71 113.71,-1.71 115.62,-1.71 117.53,-1.71 118.82,-1.71 120.12,-1.71 121.79,-1.71 123.45,-1.71 124.83,-1.71 126.21,-1.71 127.93,-1.71 129.64,-1.70 131.32,-1.71 133.00,-1.71 134.28,-1.53 135.56,-1.35 137.15,-1.12 138.73,-0.89 139.82,-0.80 140.90,-0.71 142.59,-0.31 144.28,0.08 146.04,0.47 147.81,0.87 148.91,1.43 150.02,1.99 151.37,2.67 152.71,3.34 153.73,3.91 154.75,4.47 156.09,5.33 157.44,6.19 158.70,7.31 159.96,8.43 160.73,9.23 161.49,10.04 162.17,10.99 162.84,11.94 163.29,13.63 163.75,15.33 163.78,16.55 163.81,17.77 163.82,19.26 163.82,20.75 163.31,22.20 162.79,23.64 162.21,24.73 161.64,25.81 160.85,26.86 160.07,27.90 158.71,29.35 157.34,30.80 156.21,32.17 155.08,33.54 153.70,34.73 152.31,35.91 150.99,36.86 149.67,37.80 148.12,38.99 146.57,40.17 144.99,41.24 143.41,42.31 142.23,43.13 141.05,43.95 140.13,44.62 139.21,45.29 138.16,46.06 137.12,46.84 135.61,48.01 134.11,49.19 133.16,50.06 132.22,50.93 130.59,52.09 128.96,53.24 127.33,54.56 125.71,55.88 124.38,56.92 123.05,57.96 121.75,58.97 120.46,59.99 119.09,61.49 117.71,63.00 116.58,64.52 115.44,66.03 114.84,67.12 114.23,68.22 113.65,69.61 113.07,71.00 113.30,72.29 113.54,73.58 113.54,74.85 113.54,76.11 114.48,77.37 115.43,78.63 117.29,79.09 119.16,79.55 120.97,79.85 122.79,80.16 124.39,80.42 126.00,80.68 127.68,80.73 129.36,80.79 130.71,80.79 132.06,80.79 133.70,80.56 135.35,80.34 136.77,80.07 138.19,79.81 139.32,79.52 140.45,79.24 141.83,78.95 143.21,78.67 144.94,78.38 146.67,78.09 147.88,77.82 149.09,77.55 150.19,77.48 151.29,77.42 152.89,77.41 154.49,77.40 155.64,77.40 156.79,77.39 157.99,77.39 159.20,77.40 160.43,77.40 161.66,77.40 163.34,77.84 165.02,78.29 166.27,78.59 167.53,78.90 168.64,79.23 169.74,79.55 170.88,80.26 172.02,80.97 173.09,81.81 174.16,82.66 175.20,83.60 176.23,84.54 176.95,85.88 177.66,87.22 178.02,88.45 178.38,89.67 178.45,91.33 178.53,92.98 178.28,94.48 178.03,95.98 177.27,97.36 176.52,98.75 175.04,100.50 173.57,102.24 172.80,103.35 172.03,104.46 171.90,105.72 171.77,106.98 172.38,108.00 172.99,109.01 173.79,109.87 174.60,110.73 175.54,111.27 176.48,111.81 177.86,112.73 179.23,113.64 180.36,113.88 181.49,114.12 182.75,114.30 184.00,114.48 185.51,114.58 187.02,114.68 189.47,116.21 191.93,117.74 192.03,117.93 192.13,118.12 192.16,118.33 192.20,118.54 192.17,118.75 192.13,118.96 192.03,119.14 191.94,119.33 191.78,119.48 191.63,119.63 191.44,119.72 191.24,119.81 191.03,119.83 190.82,119.85 190.61,119.81 190.41,119.76 190.22,119.66 190.04,119.55 189.90,119.39 189.76,119.22 189.68,119.03 189.60,118.83 189.59,118.62 189.58,118.41 189.64,118.20 189.69,118.00 189.81,117.82 189.93,117.64 190.10,117.51 190.27,117.38 190.47,117.32 190.67,117.25 190.88,117.25 191.09,117.24 191.29,117.31 191.50,117.38 191.67,117.51 191.84,117.63 191.96,117.81 192.08,117.98 192.13,118.19 192.19,118.39 192.18,118.61 192.17,118.82 192.09,119.02 192.01,119.21 191.88,119.38 191.74,119.54 191.56,119.65 191.38,119.76 191.17,119.81 190.96,119.85 190.75,119.83 190.54,119.81 190.35,119.72 190.15,119.63 190.00,119.49 189.84,119.34 189.84,119.34 189.84,119.34 188.29,119.84 186.74,120.33 185.38,120.27 184.02,120.21 182.79,119.94 181.55,119.66 180.26,119.36 178.96,119.05 177.33,118.32 175.69,117.59 174.53,117.06 173.37,116.53 172.30,115.71 171.23,114.88 169.91,113.68 168.58,112.48 167.84,111.25 167.09,110.01 166.60,108.42 166.12,106.84 166.21,105.63 166.30,104.42 166.83,102.84 167.35,101.27 168.50,99.72 169.66,98.17 170.65,96.99 171.63,95.80 172.24,94.45 172.84,93.09 172.80,91.61 172.76,90.13 172.25,88.97 171.75,87.81 170.78,87.10 169.82,86.40 168.48,85.49 167.15,84.57 165.98,84.29 164.80,84.00 163.18,83.53 161.56,83.05 160.38,83.05 159.20,83.05 157.99,83.06 156.79,83.06 155.65,83.06 154.50,83.05 153.01,83.06 151.51,83.08 150.37,83.17 149.23,83.26 147.83,83.50 146.44,83.75 144.67,84.04 142.89,84.34 141.73,84.57 140.56,84.81 139.22,85.16 137.87,85.52 136.21,85.80 134.54,86.08 133.30,86.26 132.06,86.44 130.69,86.43 129.32,86.42 127.62,86.36 125.92,86.29 124.24,86.01 122.57,85.72 121.26,85.47 119.96,85.21 118.32,84.87 116.68,84.53 115.22,84.14 113.75,83.75 112.36,82.75 110.97,81.75 109.79,80.59 108.61,79.43 108.27,77.77 107.93,76.10 107.93,74.83 107.94,73.56 107.97,71.99 108.01,70.41 108.41,69.27 108.82,68.13 109.06,66.88 109.31,65.63 110.06,64.28 110.82,62.94 111.81,61.52 112.80,60.10 113.92,58.93 115.03,57.77 116.05,56.68 117.08,55.60 118.43,54.53 119.79,53.47 121.05,52.50 122.30,51.52 124.00,50.14 125.70,48.76 127.09,47.79 128.48,46.83 129.60,45.81 130.73,44.79 132.27,43.58 133.80,42.37 134.87,41.58 135.93,40.79 136.92,40.07 137.91,39.35 139.24,38.42 140.57,37.50 141.88,36.60 143.19,35.70 144.82,34.46 146.45,33.21 147.47,32.51 148.49,31.81 149.70,30.77 150.92,29.74 152.10,28.31 153.29,26.87 154.51,25.59 155.73,24.31 156.35,23.34 156.97,22.36 157.58,20.99 158.20,19.61 158.19,18.21 158.17,16.81 157.81,15.38 157.45,13.95 156.66,12.90 155.87,11.86 154.91,11.23 153.94,10.60 152.78,9.92 151.61,9.23 150.37,8.48 149.12,7.74 147.79,7.05 146.46,6.36 144.68,5.98 142.90,5.60 141.66,5.27 140.41,4.94 139.16,4.83 137.92,4.72 135.45,4.35 132.99,3.97 131.32,3.97 129.64,3.96 127.93,3.97 126.21,3.97 124.83,3.97 123.45,3.97 121.79,3.97 120.12,3.97 118.82,3.97 117.53,3.97 115.62,3.97 113.71,3.97 112.28,3.97 110.85,3.97 109.41,3.97 107.96,3.97 106.14,3.97 104.31,3.97 103.02,3.97 101.74,3.97 99.90,3.97 98.05,3.98 96.74,3.98 95.43,3.98 93.36,4.03 91.29,4.07 89.98,4.13 88.67,4.19 86.15,4.36 83.62,4.53 82.09,4.53 80.57,4.53 79.27,4.53 77.97,4.52 76.06,4.52 74.14,4.52 72.70,4.52 71.26,4.52 70.17,4.51 69.08,4.51 67.27,4.52 65.46,4.52 63.88,4.51 62.31,4.51 59.84,4.51 57.37,4.50 54.73,4.49 52.08,4.48 50.63,4.48 49.17,4.47 47.65,4.46 46.14,4.45 44.87,4.45 43.59,4.44 42.51,4.44 41.43,4.43 39.64,4.43 37.86,4.42 35.95,4.40 34.04,4.38 31.85,4.36 29.65,4.34 27.92,4.30 26.19,4.26 23.86,4.05 21.54,3.84 19.96,3.55 18.39,3.26 16.12,2.81 13.86,2.35 12.16,2.27 10.45,2.18 8.07,2.01 5.69,1.85 4.19,1.82 2.69,1.80 1.50,1.81 0.32,1.81 -0.75,1.82 -1.83,1.83 -2.09,1.73 -2.34,1.64 -2.56,1.49 -2.78,1.33 -2.95,1.13 -3.13,0.93 -3.26,0.69 -3.38,0.45 -3.44,0.19 -3.51,-0.06 -3.51,-0.33 -3.50,-0.60 -3.44,-0.86 -3.37,-1.12 -3.25,-1.35 -3.12,-1.59 -2.94,-1.79 -2.77,-1.99 -2.54,-2.14 -2.32,-2.30 -2.07,-2.39 -1.82,-2.48 -1.55,-2.52 -1.29,-2.55 -1.02,-2.51 -0.75,-2.48 -0.20,-1.92 0.34,-1.37 0.50,-1.31 0.66,-1.24 0.80,-1.15 0.94,-1.05 1.05,-0.92 1.16,-0.79 1.24,-0.64 1.32,-0.49 1.36,-0.33 1.40,-0.16 1.40,0.00 1.40,0.17 1.36,0.34 1.31,0.50 1.24,0.65 1.16,0.80 1.04,0.93 0.93,1.06 0.79,1.15 0.65,1.25 0.49,1.31 0.33,1.37 0.16,1.39 -0.00,1.41 -0.17,1.39 -0.34,1.37 -0.34,1.37 L -0.34,1.37 Z"></path></g><g transform="translate(356.3582147954414 51.08522747585448) rotate(0 34.44489481738401 3.280459022235391)" stroke="none"><path fill="#000000" d="M -1.07,-1.19 Q -1.07,-1.19 0.03,-2.66 1.14,-4.14 1.88,-5.00 2.63,-5.87 3.65,-6.79 4.67,-7.72 5.57,-8.96 6.48,-10.21 7.30,-11.12 8.12,-12.04 8.90,-13.09 9.67,-14.15 10.77,-15.55 11.87,-16.95 12.92,-18.09 13.97,-19.23 14.88,-20.52 15.79,-21.82 16.58,-22.65 17.37,-23.49 18.07,-24.42 18.77,-25.35 19.78,-26.36 20.79,-27.37 21.70,-28.23 22.60,-29.10 23.65,-29.54 24.70,-29.98 26.00,-29.81 27.30,-29.65 29.25,-29.27 31.20,-28.89 32.36,-28.61 33.51,-28.33 35.22,-27.92 36.92,-27.50 38.72,-27.03 40.51,-26.56 41.84,-25.83 43.17,-25.11 44.63,-24.59 46.09,-24.07 47.54,-23.29 49.00,-22.52 50.19,-21.81 51.38,-21.10 52.80,-20.16 54.22,-19.22 55.31,-18.41 56.41,-17.60 57.56,-16.67 58.71,-15.74 59.84,-14.48 60.97,-13.21 61.97,-12.49 62.97,-11.76 63.89,-10.96 64.80,-10.16 65.79,-9.02 66.78,-7.87 67.61,-6.97 68.43,-6.06 69.52,-4.66 70.62,-3.26 70.97,-1.96 71.33,-0.66 71.60,0.82 71.86,2.32 71.29,3.92 70.73,5.51 70.04,6.50 69.35,7.49 68.66,8.43 67.96,9.37 67.23,10.18 66.50,10.99 65.80,12.12 65.10,13.25 64.26,14.24 63.42,15.23 62.58,16.29 61.73,17.35 61.04,18.30 60.34,19.26 59.47,20.39 58.61,21.51 57.59,22.67 56.57,23.82 55.76,24.84 54.96,25.86 53.86,27.42 52.76,28.98 52.05,29.95 51.33,30.91 50.39,31.68 49.45,32.44 48.70,33.24 47.95,34.04 45.44,34.45 42.94,34.86 42.73,34.90 42.52,34.94 42.31,34.91 42.10,34.88 41.91,34.78 41.72,34.69 41.57,34.53 41.42,34.38 41.33,34.19 41.23,34.00 41.20,33.79 41.18,33.58 41.22,33.37 41.26,33.16 41.36,32.98 41.47,32.79 41.63,32.65 41.79,32.51 41.98,32.43 42.18,32.35 42.39,32.33 42.60,32.31 42.81,32.37 43.01,32.42 43.19,32.53 43.37,32.65 43.50,32.81 43.63,32.98 43.71,33.18 43.78,33.38 43.78,33.59 43.79,33.81 43.73,34.01 43.66,34.21 43.54,34.38 43.41,34.55 43.24,34.68 43.07,34.80 42.86,34.86 42.66,34.92 42.45,34.92 42.24,34.91 42.04,34.84 41.84,34.76 41.67,34.63 41.51,34.49 41.39,34.32 41.28,34.14 41.23,33.93 41.18,33.72 41.20,33.51 41.22,33.30 41.30,33.10 41.39,32.91 41.53,32.75 41.67,32.59 41.86,32.49 42.04,32.39 42.04,32.39 42.04,32.39 43.50,30.34 44.95,28.30 45.94,27.22 46.93,26.13 47.62,25.20 48.30,24.27 49.33,22.87 50.36,21.47 51.14,20.44 51.92,19.42 52.74,18.54 53.56,17.66 54.36,16.64 55.16,15.62 56.24,14.15 57.31,12.67 58.28,11.52 59.25,10.37 60.29,9.29 61.33,8.20 62.39,6.79 63.44,5.39 64.10,4.55 64.77,3.71 65.53,2.38 66.28,1.06 65.55,-0.32 64.82,-1.71 63.96,-2.52 63.11,-3.33 62.20,-4.24 61.30,-5.15 60.43,-5.97 59.57,-6.79 58.72,-7.44 57.88,-8.10 57.01,-8.94 56.15,-9.78 54.85,-11.08 53.54,-12.38 52.61,-13.07 51.67,-13.76 50.52,-14.45 49.38,-15.15 47.97,-16.09 46.55,-17.03 45.07,-17.85 43.59,-18.66 42.66,-19.20 41.74,-19.73 40.38,-20.27 39.02,-20.81 37.54,-21.14 36.05,-21.46 34.99,-21.84 33.94,-22.22 32.56,-22.59 31.19,-22.96 29.94,-23.19 28.69,-23.43 27.05,-24.17 25.40,-24.92 24.42,-23.95 23.44,-22.98 22.72,-22.03 22.00,-21.07 21.19,-19.98 20.38,-18.88 19.59,-17.84 18.79,-16.80 18.03,-16.00 17.26,-15.21 16.21,-13.93 15.16,-12.65 14.44,-11.77 13.72,-10.88 12.93,-9.86 12.14,-8.83 11.30,-7.98 10.47,-7.13 9.22,-5.62 7.96,-4.11 7.04,-3.38 6.12,-2.65 5.18,-1.68 4.24,-0.70 2.65,0.24 1.07,1.19 0.91,1.30 0.75,1.41 0.57,1.48 0.39,1.55 0.20,1.57 0.01,1.60 -0.17,1.58 -0.37,1.55 -0.55,1.49 -0.73,1.42 -0.89,1.31 -1.05,1.20 -1.18,1.06 -1.31,0.92 -1.40,0.75 -1.49,0.58 -1.54,0.39 -1.59,0.20 -1.59,0.01 -1.59,-0.18 -1.54,-0.36 -1.50,-0.55 -1.41,-0.72 -1.32,-0.90 -1.19,-1.04 -1.07,-1.19 -1.07,-1.19 L -1.07,-1.19 Z"></path></g><g transform="translate(236.4286705320676 202.1494513744194) rotate(0 52.870706166465425 -59.143514588890525)" stroke="none"><path fill="#000000" d="M -1.45,-0.72 Q -1.45,-0.72 -1.02,-2.12 -0.60,-3.52 0.25,-4.82 1.10,-6.12 2.45,-8.04 3.79,-9.96 4.61,-11.26 5.44,-12.55 6.72,-14.28 8.00,-16.02 8.79,-17.15 9.59,-18.29 11.25,-20.38 12.92,-22.46 14.31,-23.91 15.71,-25.35 16.61,-26.15 17.52,-26.94 18.44,-27.95 19.36,-28.95 20.27,-30.03 21.19,-31.10 22.36,-32.47 23.53,-33.85 24.26,-34.78 24.99,-35.71 26.10,-37.05 27.22,-38.39 28.89,-40.20 30.56,-42.01 31.65,-43.11 32.74,-44.21 33.89,-45.24 35.04,-46.27 36.69,-47.71 38.33,-49.15 39.54,-50.17 40.76,-51.19 42.26,-52.59 43.77,-53.98 44.85,-54.91 45.92,-55.84 47.44,-57.46 48.95,-59.07 49.86,-60.12 50.77,-61.16 52.34,-62.96 53.92,-64.75 54.95,-65.97 55.98,-67.20 57.23,-68.53 58.49,-69.87 60.31,-71.93 62.13,-73.99 63.55,-75.43 64.96,-76.87 66.76,-78.87 68.55,-80.86 69.79,-82.13 71.04,-83.40 71.91,-84.41 72.77,-85.41 73.93,-86.75 75.09,-88.10 75.99,-89.08 76.89,-90.07 77.61,-90.95 78.34,-91.83 79.59,-93.43 80.85,-95.03 82.59,-97.22 84.33,-99.40 85.19,-100.27 86.05,-101.14 87.16,-102.25 88.26,-103.36 89.89,-104.99 91.51,-106.61 92.42,-107.65 93.33,-108.68 94.27,-109.68 95.22,-110.68 96.49,-111.99 97.76,-113.29 99.15,-114.68 100.54,-116.07 102.56,-117.53 104.58,-118.98 104.75,-119.11 104.93,-119.23 105.13,-119.29 105.33,-119.36 105.54,-119.35 105.76,-119.35 105.96,-119.27 106.16,-119.20 106.32,-119.07 106.49,-118.93 106.60,-118.75 106.72,-118.57 106.77,-118.37 106.82,-118.16 106.80,-117.95 106.78,-117.74 106.70,-117.54 106.62,-117.35 106.47,-117.19 106.33,-117.03 106.15,-116.93 105.96,-116.82 105.75,-116.78 105.55,-116.74 105.33,-116.77 105.12,-116.80 104.93,-116.89 104.74,-116.99 104.59,-117.14 104.44,-117.29 104.35,-117.48 104.25,-117.67 104.23,-117.88 104.20,-118.09 104.24,-118.30 104.28,-118.51 104.38,-118.69 104.49,-118.88 104.64,-119.02 104.80,-119.16 105.00,-119.25 105.19,-119.33 105.40,-119.35 105.62,-119.36 105.82,-119.31 106.03,-119.26 106.21,-119.15 106.39,-119.03 106.52,-118.87 106.65,-118.70 106.73,-118.50 106.80,-118.30 106.81,-118.09 106.81,-117.88 106.75,-117.67 106.69,-117.47 106.56,-117.30 106.44,-117.13 106.44,-117.13 106.44,-117.13 104.99,-115.11 103.53,-113.09 102.16,-111.70 100.78,-110.31 99.54,-109.04 98.30,-107.77 97.41,-106.82 96.51,-105.87 95.52,-104.74 94.52,-103.61 92.89,-101.99 91.26,-100.36 89.45,-98.56 87.64,-96.75 85.94,-94.63 84.24,-92.51 82.92,-90.82 81.60,-89.14 80.80,-88.17 80.01,-87.21 79.15,-86.27 78.29,-85.34 77.13,-83.99 75.97,-82.64 75.02,-81.54 74.06,-80.44 72.84,-79.20 71.63,-77.95 70.59,-76.86 69.55,-75.77 68.77,-74.84 67.99,-73.91 66.60,-72.49 65.22,-71.07 64.10,-69.90 62.98,-68.72 62.28,-67.85 61.58,-66.98 60.40,-65.72 59.23,-64.47 58.19,-63.23 57.14,-61.99 55.55,-60.18 53.96,-58.38 52.97,-57.25 51.99,-56.12 50.34,-54.38 48.69,-52.64 47.69,-51.79 46.70,-50.93 45.09,-49.44 43.48,-47.95 42.27,-46.94 41.07,-45.93 39.46,-44.52 37.85,-43.12 36.80,-42.18 35.75,-41.25 34.68,-40.16 33.61,-39.07 32.04,-37.37 30.47,-35.68 29.40,-34.39 28.33,-33.10 27.54,-32.10 26.76,-31.09 25.58,-29.72 24.41,-28.35 23.44,-27.22 22.48,-26.08 20.62,-24.24 18.76,-22.41 17.41,-21.01 16.06,-19.62 14.56,-17.74 13.05,-15.86 12.20,-14.65 11.35,-13.44 10.17,-11.86 9.00,-10.28 8.08,-8.83 7.15,-7.39 5.89,-5.59 4.62,-3.79 3.90,-2.71 3.17,-1.62 2.31,-0.45 1.45,0.72 1.34,0.88 1.23,1.05 1.09,1.18 0.94,1.31 0.77,1.41 0.60,1.50 0.41,1.55 0.22,1.60 0.03,1.60 -0.16,1.61 -0.35,1.57 -0.54,1.52 -0.71,1.43 -0.89,1.35 -1.04,1.22 -1.19,1.09 -1.30,0.94 -1.42,0.78 -1.49,0.60 -1.56,0.41 -1.59,0.22 -1.62,0.03 -1.60,-0.16 -1.58,-0.35 -1.51,-0.54 -1.45,-0.72 -1.45,-0.72 L -1.45,-0.72 Z"></path></g><g transform="translate(253.45481867306898 216.9353287397405) rotate(0 54.66294739950956 -57.799338791711534)" stroke="none"><path fill="#000000" d="M -1.11,-0.74 Q -1.11,-0.74 -0.42,-2.51 0.27,-4.28 1.38,-5.77 2.49,-7.25 3.86,-8.97 5.23,-10.69 6.59,-12.17 7.94,-13.66 8.63,-14.49 9.32,-15.32 10.65,-16.75 11.97,-18.18 12.85,-19.07 13.72,-19.95 15.61,-21.91 17.51,-23.87 19.48,-25.73 21.45,-27.59 23.12,-29.01 24.79,-30.43 25.92,-31.62 27.05,-32.81 28.26,-33.92 29.48,-35.04 30.55,-36.20 31.62,-37.36 32.97,-38.88 34.32,-40.41 35.59,-41.75 36.87,-43.10 38.20,-44.46 39.52,-45.83 40.33,-46.69 41.14,-47.54 42.16,-48.87 43.18,-50.19 44.09,-51.18 45.01,-52.17 45.99,-53.30 46.97,-54.43 48.74,-56.35 50.50,-58.27 52.27,-60.00 54.03,-61.73 55.79,-63.68 57.56,-65.63 58.92,-67.14 60.28,-68.66 61.30,-69.74 62.31,-70.82 63.73,-72.45 65.14,-74.09 66.26,-75.36 67.38,-76.64 68.93,-78.26 70.49,-79.88 71.91,-81.33 73.34,-82.79 74.65,-84.37 75.97,-85.95 76.69,-86.79 77.42,-87.63 78.22,-88.61 79.02,-89.58 80.06,-90.70 81.09,-91.82 82.39,-93.34 83.68,-94.86 84.51,-95.92 85.34,-96.97 86.11,-97.77 86.87,-98.57 87.78,-99.36 88.69,-100.14 89.63,-101.14 90.58,-102.15 91.96,-103.42 93.35,-104.69 94.62,-105.56 95.89,-106.44 96.93,-107.47 97.97,-108.50 99.19,-109.52 100.42,-110.54 101.55,-111.64 102.69,-112.75 103.68,-113.69 104.68,-114.63 106.18,-114.84 107.67,-115.05 107.63,-115.26 107.60,-115.47 107.63,-115.68 107.66,-115.89 107.75,-116.08 107.85,-116.27 108.00,-116.42 108.15,-116.57 108.34,-116.66 108.53,-116.75 108.75,-116.78 108.96,-116.81 109.16,-116.76 109.37,-116.72 109.56,-116.62 109.74,-116.51 109.88,-116.35 110.02,-116.19 110.10,-115.99 110.19,-115.80 110.20,-115.59 110.22,-115.38 110.16,-115.17 110.11,-114.96 109.99,-114.79 109.88,-114.61 109.71,-114.48 109.54,-114.34 109.34,-114.27 109.14,-114.20 108.93,-114.20 108.72,-114.19 108.52,-114.26 108.31,-114.32 108.14,-114.45 107.97,-114.57 107.85,-114.75 107.73,-114.92 107.67,-115.12 107.61,-115.33 107.61,-115.54 107.62,-115.75 107.70,-115.95 107.77,-116.15 107.91,-116.32 108.04,-116.48 108.22,-116.59 108.40,-116.70 108.61,-116.75 108.81,-116.80 109.03,-116.78 109.24,-116.77 109.43,-116.68 109.63,-116.59 109.78,-116.45 109.94,-116.31 110.04,-116.12 110.15,-115.94 110.15,-115.94 110.15,-115.94 108.38,-113.04 106.60,-110.15 105.45,-109.02 104.29,-107.88 103.27,-107.05 102.25,-106.22 101.21,-105.37 100.17,-104.51 99.46,-103.70 98.75,-102.88 97.61,-102.12 96.46,-101.36 95.26,-100.28 94.06,-99.19 92.86,-97.94 91.66,-96.68 90.20,-95.31 88.75,-93.94 87.90,-92.87 87.05,-91.79 85.74,-90.25 84.43,-88.72 83.49,-87.70 82.54,-86.69 81.70,-85.67 80.87,-84.66 80.17,-83.84 79.46,-83.03 78.03,-81.31 76.59,-79.60 75.18,-78.17 73.77,-76.73 72.29,-75.18 70.81,-73.63 69.64,-72.31 68.47,-70.98 67.05,-69.34 65.63,-67.70 64.69,-66.71 63.75,-65.72 62.30,-64.10 60.85,-62.48 59.74,-61.32 58.62,-60.16 57.93,-59.34 57.23,-58.51 55.44,-56.75 53.65,-54.99 52.03,-53.22 50.41,-51.45 49.37,-50.26 48.33,-49.06 47.54,-48.23 46.75,-47.39 45.76,-46.26 44.78,-45.13 43.76,-43.90 42.74,-42.67 41.43,-41.33 40.13,-39.99 38.94,-38.75 37.76,-37.51 36.33,-35.90 34.91,-34.29 33.70,-33.01 32.49,-31.72 31.39,-30.72 30.28,-29.72 28.97,-28.37 27.66,-27.01 25.97,-25.58 24.27,-24.14 23.19,-23.28 22.11,-22.42 21.33,-21.54 20.55,-20.67 18.70,-18.76 16.85,-16.86 15.99,-15.99 15.13,-15.12 13.90,-13.82 12.67,-12.52 11.87,-11.58 11.08,-10.64 9.85,-9.31 8.63,-7.98 7.29,-6.31 5.95,-4.64 4.90,-3.27 3.84,-1.89 2.48,-0.57 1.11,0.74 1.01,0.86 0.90,0.99 0.77,1.08 0.64,1.17 0.49,1.23 0.34,1.29 0.18,1.32 0.02,1.34 -0.13,1.32 -0.30,1.30 -0.45,1.25 -0.60,1.19 -0.73,1.10 -0.87,1.01 -0.98,0.90 -1.09,0.78 -1.17,0.63 -1.24,0.49 -1.28,0.33 -1.33,0.18 -1.33,0.02 -1.33,-0.14 -1.29,-0.29 -1.26,-0.45 -1.19,-0.60 -1.11,-0.74 -1.11,-0.74 L -1.11,-0.74 Z"></path></g><g transform="translate(221.19472260327643 240.68233022861546) rotate(0 4.928612114829434 4.480572316985217)" stroke="none"><path fill="#000000" d="M 0.73,1.10 Q 0.73,1.10 0.58,1.48 0.43,1.87 0.32,2.09 0.21,2.32 0.01,2.42 -0.19,2.53 -0.41,2.58 -0.64,2.63 -0.87,2.62 -1.10,2.62 -1.32,2.56 -1.54,2.50 -1.75,2.39 -1.95,2.28 -2.12,2.13 -2.29,1.97 -2.42,1.78 -2.54,1.59 -2.62,1.37 -2.70,1.16 -2.72,0.93 -2.75,0.70 -2.72,0.47 -2.69,0.24 -2.60,0.03 -2.52,-0.18 -2.38,-0.36 -2.25,-0.55 -2.07,-0.70 -1.90,-0.85 -0.81,-1.00 0.27,-1.14 1.33,-1.00 2.39,-0.86 3.52,-0.43 4.65,-0.00 5.84,0.52 7.03,1.05 8.42,2.07 9.81,3.09 10.67,3.76 11.52,4.43 11.32,6.11 11.12,7.78 11.24,7.87 11.37,7.97 11.47,8.09 11.58,8.21 11.65,8.35 11.72,8.49 11.75,8.65 11.79,8.80 11.78,8.96 11.78,9.12 11.74,9.27 11.70,9.42 11.62,9.56 11.54,9.70 11.43,9.82 11.33,9.93 11.19,10.02 11.06,10.11 10.91,10.16 10.76,10.21 10.61,10.23 10.45,10.24 10.29,10.22 10.14,10.20 9.99,10.14 9.84,10.08 10.05,10.15 10.25,10.22 10.05,10.15 9.85,10.08 9.68,9.95 9.52,9.82 9.40,9.65 9.28,9.47 9.23,9.26 9.17,9.06 9.19,8.85 9.20,8.63 9.28,8.44 9.36,8.24 9.50,8.08 9.64,7.92 9.82,7.81 10.00,7.70 10.21,7.66 10.42,7.62 10.63,7.64 10.84,7.67 11.03,7.76 11.23,7.85 11.38,8.00 11.53,8.14 11.63,8.33 11.73,8.52 11.76,8.73 11.79,8.94 11.76,9.15 11.72,9.36 11.62,9.55 11.52,9.73 11.36,9.88 11.21,10.02 11.01,10.11 10.82,10.20 10.61,10.22 10.40,10.24 10.19,10.19 9.98,10.14 9.80,10.03 9.62,9.92 9.48,9.76 9.35,9.60 9.27,9.40 9.19,9.20 9.18,8.99 9.17,8.77 9.23,8.57 9.29,8.37 9.41,8.19 9.53,8.02 9.70,7.89 9.87,7.76 10.08,7.70 10.28,7.63 10.70,7.71 11.12,7.78 11.24,7.87 11.37,7.97 11.47,8.09 11.58,8.21 11.65,8.35 11.72,8.49 11.75,8.65 11.79,8.80 11.78,8.96 11.78,9.12 11.74,9.27 11.70,9.42 11.62,9.56 11.54,9.70 11.43,9.82 11.33,9.93 11.19,10.02 11.06,10.11 10.91,10.16 10.76,10.21 10.61,10.23 10.45,10.24 10.29,10.22 10.14,10.20 9.99,10.14 9.84,10.08 9.13,8.77 8.41,7.46 7.61,6.65 6.80,5.83 5.60,5.12 4.40,4.41 3.25,3.95 2.11,3.49 1.16,2.90 0.21,2.32 0.01,2.42 -0.19,2.53 -0.41,2.58 -0.64,2.63 -0.87,2.62 -1.10,2.62 -1.32,2.56 -1.54,2.50 -1.75,2.39 -1.95,2.28 -2.12,2.13 -2.29,1.97 -2.42,1.78 -2.54,1.59 -2.62,1.37 -2.70,1.16 -2.72,0.93 -2.75,0.70 -2.72,0.47 -2.69,0.24 -2.60,0.03 -2.52,-0.18 -2.38,-0.36 -2.25,-0.55 -2.07,-0.70 -1.90,-0.85 -1.94,-0.84 -1.98,-0.83 -1.35,-0.97 -0.73,-1.10 -0.59,-1.18 -0.45,-1.25 -0.29,-1.28 -0.13,-1.32 0.02,-1.32 0.18,-1.31 0.33,-1.27 0.49,-1.23 0.63,-1.16 0.77,-1.08 0.89,-0.97 1.01,-0.86 1.10,-0.73 1.18,-0.59 1.24,-0.44 1.29,-0.29 1.31,-0.13 1.33,0.02 1.30,0.18 1.28,0.33 1.22,0.48 1.16,0.63 1.07,0.76 0.98,0.89 0.86,1.00 0.73,1.10 0.73,1.10 L 0.73,1.10 Z"></path></g><g transform="translate(220.74665203980726 243.37067156776493) rotate(0 -0.896100106105223 6.944888629608158)" stroke="none"><path fill="#000000" d="M 1.57,0.17 Q 1.57,0.17 1.62,1.35 1.66,2.53 1.48,4.22 1.30,5.92 1.07,7.55 0.84,9.18 0.18,11.49 -0.46,13.80 -0.51,14.01 -0.57,14.21 -0.68,14.39 -0.80,14.57 -0.96,14.70 -1.13,14.84 -1.33,14.91 -1.53,14.98 -1.74,14.99 -1.95,14.99 -2.15,14.93 -2.36,14.87 -2.53,14.74 -2.70,14.62 -2.83,14.45 -2.95,14.27 -3.01,14.07 -3.07,13.87 -3.07,13.66 -3.06,13.44 -2.99,13.24 -2.91,13.04 -2.78,12.88 -2.65,12.71 -2.47,12.60 -2.29,12.49 -2.08,12.43 -1.88,12.38 -1.66,12.40 -1.45,12.42 -1.26,12.50 -1.06,12.59 -0.90,12.73 -0.75,12.87 -0.64,13.06 -0.54,13.24 -0.50,13.45 -0.46,13.66 -0.49,13.87 -0.52,14.08 -0.61,14.27 -0.71,14.46 -0.86,14.61 -1.01,14.76 -1.20,14.86 -1.39,14.95 -1.60,14.98 -1.81,15.01 -2.02,14.97 -2.23,14.92 -2.41,14.82 -2.60,14.71 -2.74,14.56 -2.88,14.40 -2.96,14.20 -3.05,14.01 -3.06,13.80 -3.08,13.58 -3.08,13.58 -3.08,13.58 -3.07,10.82 -3.07,8.05 -2.85,6.70 -2.64,5.34 -2.41,3.72 -2.18,2.10 -1.88,0.96 -1.57,-0.17 -1.53,-0.36 -1.49,-0.54 -1.40,-0.71 -1.31,-0.88 -1.19,-1.03 -1.06,-1.17 -0.90,-1.28 -0.75,-1.39 -0.57,-1.46 -0.39,-1.53 -0.20,-1.56 -0.01,-1.58 0.17,-1.56 0.36,-1.54 0.54,-1.48 0.72,-1.41 0.88,-1.30 1.04,-1.19 1.17,-1.05 1.29,-0.91 1.38,-0.74 1.47,-0.57 1.52,-0.39 1.57,-0.20 1.57,-0.01 1.57,0.17 1.57,0.17 L 1.57,0.17 Z"></path></g><g transform="translate(223.4349933789565 249.6434748625859) rotate(0 1.5682059513093236 -0.44806030826111964)" stroke="none"><path fill="#000000" d="M 1.48,-0.24 Q 1.48,-0.24 1.78,0.47 2.08,1.20 2.26,1.55 2.44,1.89 2.45,2.12 2.46,2.34 2.41,2.56 2.37,2.77 2.28,2.98 2.18,3.18 2.04,3.35 1.90,3.52 1.72,3.66 1.55,3.79 1.34,3.88 1.14,3.97 0.92,4.00 0.70,4.04 0.48,4.02 0.26,4.00 0.05,3.94 -0.15,3.87 -0.34,3.75 -0.53,3.63 -0.68,3.47 -0.84,3.31 -0.95,3.12 -1.06,2.93 -1.13,2.71 -1.19,2.50 -0.68,1.28 -0.17,0.07 0.28,-0.94 0.75,-1.95 1.81,-2.07 2.87,-2.20 2.60,-1.02 2.32,0.15 1.82,0.71 1.32,1.27 1.29,1.42 1.26,1.58 1.19,1.72 1.12,1.86 1.02,1.99 0.92,2.11 0.79,2.20 0.67,2.30 0.52,2.36 0.38,2.42 0.22,2.45 0.06,2.47 -0.08,2.46 -0.24,2.45 -0.39,2.40 -0.54,2.35 -0.68,2.26 -0.81,2.18 -0.92,2.06 -1.03,1.95 -1.11,1.81 -1.19,1.68 -1.23,1.52 -1.28,1.37 -1.28,1.21 -1.29,1.06 -1.26,0.91 -1.23,0.76 -1.13,0.57 -1.04,0.38 -0.88,0.23 -0.73,0.09 -0.54,-0.00 -0.35,-0.09 -0.14,-0.11 0.06,-0.14 0.27,-0.10 0.48,-0.05 0.66,0.04 0.85,0.15 0.99,0.31 1.13,0.47 1.21,0.67 1.29,0.86 1.30,1.07 1.32,1.29 1.26,1.49 1.21,1.70 1.09,1.87 0.98,2.05 0.81,2.18 0.64,2.31 0.44,2.38 0.24,2.46 0.03,2.46 -0.17,2.46 -0.38,2.40 -0.58,2.33 -0.75,2.20 -0.92,2.08 -1.04,1.90 -1.16,1.73 -1.22,1.53 -1.28,1.32 -1.27,1.11 -1.27,0.90 -1.19,0.70 -1.11,0.50 -0.98,0.34 -0.84,0.17 -0.66,0.06 -0.48,-0.04 -0.27,-0.09 -0.07,-0.14 0.13,-0.12 0.35,-0.10 0.54,-0.01 0.73,0.07 0.89,0.21 1.05,0.35 1.15,0.54 1.25,0.73 1.29,0.93 1.32,1.14 1.32,1.21 1.32,1.27 1.29,1.42 1.26,1.58 1.19,1.72 1.12,1.86 1.02,1.99 0.92,2.11 0.79,2.20 0.67,2.30 0.52,2.36 0.38,2.42 0.22,2.45 0.06,2.47 -0.08,2.46 -0.24,2.45 -0.39,2.40 -0.54,2.35 -0.68,2.26 -0.81,2.18 -0.92,2.06 -1.03,1.95 -1.11,1.81 -1.19,1.68 -1.23,1.52 -1.28,1.37 -1.28,1.21 -1.29,1.06 -1.23,0.26 -1.17,-0.52 -0.80,-1.55 -0.42,-2.58 0.11,-3.50 0.65,-4.43 1.97,-4.89 3.29,-5.35 4.01,-3.82 4.72,-2.30 4.27,-1.07 3.82,0.16 3.13,1.03 2.44,1.89 2.45,2.12 2.46,2.34 2.41,2.56 2.37,2.77 2.28,2.98 2.18,3.18 2.04,3.35 1.90,3.52 1.72,3.66 1.55,3.79 1.34,3.88 1.14,3.97 0.92,4.00 0.70,4.04 0.48,4.02 0.26,4.01 0.05,3.94 -0.15,3.87 -0.34,3.75 -0.53,3.63 -0.68,3.47 -0.84,3.31 -0.95,3.12 -1.06,2.93 -1.13,2.71 -1.19,2.50 -1.38,2.19 -1.56,1.88 -1.52,1.06 -1.48,0.24 -1.48,0.06 -1.49,-0.11 -1.46,-0.29 -1.42,-0.46 -1.34,-0.63 -1.27,-0.79 -1.15,-0.93 -1.04,-1.07 -0.90,-1.18 -0.75,-1.29 -0.58,-1.36 -0.42,-1.44 -0.24,-1.47 -0.06,-1.50 0.11,-1.48 0.29,-1.47 0.46,-1.41 0.63,-1.35 0.79,-1.26 0.94,-1.16 1.07,-1.03 1.19,-0.90 1.28,-0.75 1.37,-0.59 1.43,-0.42 1.48,-0.24 1.48,-0.24 L 1.48,-0.24 Z"></path></g><g transform="translate(223.8830639424259 246.95513352343642) rotate(0 -1.344170669574737 3.584451700462978)" stroke="none"><path fill="#000000" d="M 1.50,0.60 Q 1.50,0.60 1.16,1.95 0.82,3.31 -0.27,5.32 -1.37,7.33 -1.46,7.53 -1.55,7.72 -1.69,7.87 -1.84,8.03 -2.03,8.13 -2.21,8.23 -2.42,8.26 -2.63,8.29 -2.84,8.26 -3.05,8.22 -3.24,8.12 -3.43,8.02 -3.57,7.87 -3.72,7.72 -3.81,7.52 -3.90,7.33 -3.92,7.12 -3.94,6.91 -3.90,6.70 -3.85,6.49 -3.74,6.31 -3.63,6.13 -3.47,5.99 -3.31,5.85 -3.11,5.78 -2.91,5.70 -2.70,5.69 -2.49,5.68 -2.28,5.73 -2.08,5.79 -1.90,5.91 -1.73,6.03 -1.60,6.20 -1.47,6.37 -1.40,6.57 -1.34,6.77 -1.34,6.98 -1.34,7.19 -1.40,7.40 -1.47,7.60 -1.60,7.77 -1.73,7.94 -1.91,8.05 -2.08,8.17 -2.29,8.23 -2.49,8.29 -2.70,8.27 -2.92,8.26 -3.11,8.18 -3.31,8.10 -3.47,7.97 -3.63,7.83 -3.74,7.65 -3.85,7.46 -3.90,7.26 -3.94,7.05 -3.92,6.84 -3.90,6.63 -3.90,6.63 -3.90,6.63 -3.39,4.23 -2.88,1.83 -2.19,0.61 -1.50,-0.60 -1.40,-0.77 -1.31,-0.94 -1.18,-1.08 -1.05,-1.23 -0.88,-1.33 -0.72,-1.44 -0.54,-1.51 -0.35,-1.57 -0.16,-1.59 0.02,-1.61 0.22,-1.59 0.41,-1.56 0.59,-1.49 0.77,-1.41 0.93,-1.30 1.09,-1.19 1.22,-1.04 1.34,-0.89 1.43,-0.72 1.52,-0.54 1.56,-0.35 1.60,-0.16 1.60,0.02 1.60,0.22 1.55,0.41 1.50,0.60 1.50,0.60 L 1.50,0.60 Z"></path></g><g transform="translate(222.53889327285128 253.22793681825692) rotate(0 4.0325120087240975 -3.1364016474103664)" stroke="none"><path fill="#000000" d="M -0.93,-1.20 Q -0.93,-1.20 0.10,-2.25 1.14,-3.30 2.01,-4.15 2.88,-5.00 5.19,-6.24 7.51,-7.47 7.72,-7.50 7.93,-7.53 8.14,-7.50 8.35,-7.46 8.54,-7.36 8.72,-7.26 8.87,-7.10 9.01,-6.95 9.10,-6.75 9.19,-6.56 9.21,-6.35 9.23,-6.13 9.18,-5.93 9.13,-5.72 9.02,-5.54 8.91,-5.36 8.74,-5.22 8.58,-5.09 8.38,-5.01 8.18,-4.94 7.97,-4.93 7.76,-4.92 7.56,-4.98 7.35,-5.04 7.18,-5.16 7.00,-5.28 6.88,-5.45 6.75,-5.62 6.68,-5.82 6.62,-6.02 6.62,-6.24 6.62,-6.45 6.69,-6.65 6.76,-6.85 6.90,-7.02 7.03,-7.19 7.20,-7.30 7.38,-7.42 7.59,-7.47 7.79,-7.53 8.00,-7.51 8.22,-7.50 8.41,-7.42 8.61,-7.34 8.77,-7.20 8.93,-7.06 9.04,-6.88 9.14,-6.69 9.19,-6.48 9.23,-6.28 9.20,-6.07 9.18,-5.85 9.09,-5.66 9.00,-5.47 8.85,-5.32 8.70,-5.17 8.51,-5.07 8.32,-4.97 8.32,-4.97 8.32,-4.97 7.07,-3.76 5.81,-2.55 4.65,-1.42 3.48,-0.29 2.21,0.45 0.93,1.20 0.77,1.30 0.62,1.39 0.44,1.44 0.26,1.50 0.08,1.51 -0.09,1.52 -0.27,1.49 -0.45,1.45 -0.62,1.38 -0.79,1.30 -0.93,1.19 -1.08,1.07 -1.19,0.93 -1.30,0.78 -1.38,0.61 -1.45,0.44 -1.49,0.26 -1.52,0.08 -1.51,-0.09 -1.50,-0.28 -1.44,-0.45 -1.39,-0.63 -1.29,-0.78 -1.19,-0.94 -1.06,-1.07 -0.93,-1.20 -0.93,-1.20 L -0.93,-1.20 Z"></path></g><g transform="translate(229.70781718419425 246.50708347038335) rotate(0 0.672085334787198 2.464306057414774)" stroke="none"><path fill="#000000" d="M 1.51,-0.50 Q 1.51,-0.50 1.88,0.22 2.26,0.95 2.70,2.14 3.13,3.33 2.50,2.58 1.87,1.82 1.87,1.98 1.86,2.14 1.81,2.29 1.77,2.44 1.69,2.58 1.61,2.71 1.50,2.83 1.39,2.94 1.26,3.02 1.12,3.11 0.97,3.16 0.82,3.21 0.66,3.22 0.50,3.23 0.35,3.20 0.19,3.18 0.05,3.12 -0.09,3.05 -0.21,2.96 -0.34,2.86 -0.44,2.74 -0.54,2.61 -0.61,2.47 -0.67,2.33 -0.70,2.17 -0.74,2.02 -0.74,1.94 -0.74,1.87 -0.70,1.66 -0.65,1.45 -0.55,1.27 -0.44,1.09 -0.28,0.94 -0.12,0.80 0.06,0.72 0.26,0.64 0.47,0.63 0.68,0.61 0.89,0.66 1.10,0.72 1.27,0.83 1.45,0.95 1.58,1.12 1.71,1.28 1.79,1.48 1.86,1.68 1.86,1.90 1.86,2.11 1.80,2.31 1.73,2.51 1.61,2.69 1.48,2.86 1.31,2.98 1.14,3.10 0.93,3.16 0.73,3.22 0.52,3.21 0.30,3.21 0.10,3.13 -0.08,3.05 -0.25,2.92 -0.41,2.79 -0.52,2.60 -0.64,2.42 -0.69,2.22 -0.74,2.01 -0.72,1.80 -0.70,1.59 -0.61,1.39 -0.52,1.20 -0.38,1.04 -0.24,0.89 -0.05,0.78 0.12,0.68 0.33,0.64 0.54,0.61 0.75,0.64 0.96,0.67 1.15,0.76 1.34,0.86 1.49,1.01 1.64,1.16 1.73,1.35 1.82,1.55 1.85,1.68 1.87,1.82 1.87,1.98 1.86,2.14 1.81,2.29 1.77,2.44 1.69,2.58 1.61,2.71 1.50,2.83 1.39,2.94 1.26,3.02 1.12,3.11 0.97,3.16 0.82,3.21 0.66,3.22 0.50,3.23 0.35,3.20 0.19,3.18 0.05,3.12 -0.09,3.05 -0.21,2.96 -0.34,2.86 -0.44,2.74 -0.54,2.61 -0.61,2.47 -0.67,2.33 -0.70,2.17 -0.74,2.02 -0.73,3.14 -0.72,4.27 -0.97,3.20 -1.23,2.13 -1.37,1.31 -1.51,0.50 -1.55,0.31 -1.59,0.12 -1.58,-0.06 -1.57,-0.25 -1.52,-0.44 -1.46,-0.62 -1.37,-0.79 -1.27,-0.95 -1.14,-1.09 -1.00,-1.23 -0.84,-1.33 -0.68,-1.44 -0.50,-1.50 -0.31,-1.56 -0.12,-1.57 0.06,-1.59 0.25,-1.56 0.44,-1.53 0.62,-1.45 0.79,-1.38 0.95,-1.26 1.10,-1.15 1.22,-1.00 1.34,-0.85 1.43,-0.67 1.51,-0.50 1.51,-0.50 L 1.51,-0.50 Z"></path></g><g transform="translate(231.05198785376865 248.74735424606365) rotate(0 0.44805005305272516 1.1201456430484313)" stroke="none"><path fill="#000000" d="M 1.32,-0.66 Q 1.32,-0.66 1.36,-0.40 1.39,-0.14 1.44,-0.00 1.50,0.14 1.51,0.30 1.53,0.46 1.50,0.62 1.48,0.77 1.42,0.92 1.36,1.07 1.27,1.19 1.18,1.32 1.06,1.43 0.94,1.53 0.80,1.60 0.66,1.67 0.50,1.70 0.35,1.74 0.19,1.74 0.03,1.73 -0.11,1.69 -0.27,1.65 -0.40,1.58 -0.54,1.50 -0.66,1.39 -0.78,1.28 -0.86,1.15 -0.95,1.02 -1.01,0.82 -1.08,0.61 -1.07,0.40 -1.07,0.19 -0.99,-0.00 -0.92,-0.20 -0.79,-0.37 -0.66,-0.53 -0.48,-0.65 -0.30,-0.76 -0.09,-0.81 0.10,-0.87 0.32,-0.85 0.53,-0.83 0.72,-0.75 0.92,-0.67 1.08,-0.52 1.24,-0.38 1.34,-0.20 1.45,-0.01 1.49,0.18 1.53,0.39 1.50,0.60 1.47,0.81 1.38,1.01 1.28,1.20 1.13,1.35 0.98,1.50 0.79,1.59 0.60,1.69 0.39,1.72 0.18,1.75 -0.02,1.71 -0.23,1.67 -0.41,1.56 -0.60,1.46 -0.74,1.30 -0.88,1.14 -0.96,0.95 -1.05,0.75 -1.07,0.54 -1.09,0.33 -1.03,0.12 -0.98,-0.07 -0.87,-0.25 -0.76,-0.43 -0.59,-0.56 -0.43,-0.70 -0.23,-0.77 -0.03,-0.85 0.18,-0.85 0.39,-0.86 0.59,-0.80 0.79,-0.74 0.97,-0.61 1.14,-0.49 1.26,-0.32 1.39,-0.14 1.39,-0.14 1.39,-0.14 1.44,-0.00 1.50,0.14 1.51,0.30 1.53,0.46 1.50,0.62 1.48,0.77 1.42,0.92 1.36,1.07 1.27,1.19 1.18,1.32 1.06,1.43 0.94,1.53 0.80,1.60 0.66,1.67 0.50,1.70 0.35,1.74 0.19,1.74 0.03,1.73 -0.11,1.69 -0.27,1.65 -0.40,1.58 -0.54,1.50 -0.66,1.39 -0.78,1.28 -0.86,1.15 -0.95,1.02 -1.14,0.84 -1.32,0.66 -1.39,0.49 -1.45,0.32 -1.46,0.14 -1.48,-0.02 -1.46,-0.20 -1.43,-0.38 -1.36,-0.55 -1.30,-0.71 -1.19,-0.86 -1.09,-1.00 -0.95,-1.12 -0.82,-1.24 -0.66,-1.32 -0.49,-1.40 -0.32,-1.43 -0.15,-1.47 0.02,-1.47 0.20,-1.47 0.38,-1.42 0.55,-1.37 0.71,-1.29 0.86,-1.20 1.00,-1.08 1.13,-0.96 1.23,-0.81 1.32,-0.66 1.32,-0.66 L 1.32,-0.66 Z"></path></g><g transform="translate(229.25974662072463 248.74735424606365) rotate(0 -3.5844619556713724 2.0162560043620488)" stroke="none"><path fill="#000000" d="M 0.55,1.49 Q 0.55,1.49 -0.39,2.08 -1.34,2.68 -3.62,3.65 -5.90,4.63 -6.07,4.75 -6.24,4.87 -6.45,4.93 -6.65,4.99 -6.87,4.98 -7.08,4.97 -7.28,4.89 -7.47,4.81 -7.64,4.68 -7.80,4.54 -7.91,4.36 -8.02,4.18 -8.07,3.97 -8.12,3.76 -8.09,3.55 -8.07,3.34 -7.99,3.15 -7.90,2.95 -7.75,2.80 -7.61,2.64 -7.42,2.54 -7.23,2.44 -7.02,2.41 -6.82,2.37 -6.61,2.40 -6.40,2.44 -6.21,2.53 -6.02,2.63 -5.87,2.78 -5.72,2.94 -5.63,3.13 -5.54,3.32 -5.52,3.53 -5.49,3.74 -5.54,3.95 -5.58,4.16 -5.69,4.34 -5.80,4.53 -5.96,4.66 -6.12,4.80 -6.32,4.88 -6.51,4.96 -6.73,4.98 -6.94,4.99 -7.14,4.93 -7.35,4.88 -7.52,4.76 -7.70,4.64 -7.83,4.47 -7.96,4.31 -8.03,4.11 -8.10,3.90 -8.10,3.69 -8.10,3.48 -8.04,3.28 -7.97,3.08 -7.84,2.91 -7.72,2.74 -7.72,2.74 -7.72,2.74 -5.24,0.80 -2.77,-1.13 -1.66,-1.31 -0.55,-1.49 -0.37,-1.53 -0.18,-1.58 0.00,-1.58 0.19,-1.58 0.38,-1.53 0.57,-1.48 0.73,-1.39 0.90,-1.30 1.05,-1.17 1.19,-1.05 1.30,-0.89 1.41,-0.73 1.48,-0.55 1.54,-0.37 1.57,-0.18 1.59,0.00 1.56,0.19 1.54,0.38 1.47,0.56 1.40,0.74 1.29,0.90 1.18,1.06 1.04,1.18 0.89,1.31 0.72,1.40 0.55,1.49 0.55,1.49 L 0.55,1.49 Z"></path></g><g transform="translate(216.71414003108316 235.75371811378636) rotate(0 6.720853347873458 6.048768013086033)" stroke="none"><path fill="#000000" d="M 1.07,-0.76 Q 1.07,-0.76 1.95,-0.03 2.83,0.69 3.60,1.60 4.37,2.51 5.06,3.79 5.75,5.07 6.68,5.81 7.61,6.55 8.67,7.33 9.72,8.10 11.88,9.51 14.04,10.91 14.19,11.06 14.35,11.21 14.45,11.40 14.54,11.58 14.58,11.79 14.61,12.00 14.57,12.21 14.54,12.42 14.44,12.61 14.34,12.80 14.18,12.94 14.03,13.09 13.83,13.18 13.64,13.26 13.43,13.29 13.22,13.31 13.01,13.26 12.80,13.21 12.62,13.10 12.44,12.99 12.30,12.83 12.17,12.67 12.09,12.47 12.01,12.27 12.00,12.06 11.99,11.84 12.05,11.64 12.11,11.44 12.23,11.26 12.35,11.09 12.52,10.96 12.69,10.83 12.89,10.76 13.09,10.70 13.30,10.70 13.52,10.70 13.72,10.77 13.92,10.84 14.09,10.97 14.26,11.10 14.37,11.28 14.49,11.45 14.55,11.66 14.60,11.86 14.59,12.07 14.58,12.29 14.50,12.48 14.42,12.68 14.28,12.84 14.14,13.00 13.96,13.11 13.77,13.22 13.57,13.26 13.36,13.31 13.15,13.28 12.94,13.26 12.74,13.17 12.55,13.08 12.55,13.08 12.55,13.08 10.92,12.71 9.28,12.35 8.42,11.70 7.56,11.05 6.50,10.31 5.43,9.58 4.48,8.81 3.54,8.03 2.53,6.54 1.52,5.04 0.63,3.97 -0.26,2.90 -0.66,1.83 -1.07,0.76 -1.15,0.62 -1.22,0.48 -1.26,0.33 -1.30,0.18 -1.31,0.02 -1.31,-0.13 -1.27,-0.29 -1.24,-0.44 -1.17,-0.59 -1.09,-0.73 -0.99,-0.85 -0.89,-0.97 -0.76,-1.06 -0.63,-1.15 -0.48,-1.21 -0.33,-1.27 -0.17,-1.29 -0.02,-1.32 0.13,-1.30 0.29,-1.28 0.44,-1.23 0.59,-1.17 0.72,-1.09 0.85,-1.00 0.96,-0.88 1.07,-0.76 1.07,-0.76 L 1.07,-0.76 Z"></path></g><g transform="translate(227.01947584504478 246.0590129069144) rotate(0 2.016256004361935 0.8961206165220119)" stroke="none"><path fill="#000000" d="M 0.37,-1.29 Q 0.37,-1.29 1.34,-1.27 2.31,-1.24 2.24,-0.89 2.17,-0.53 2.30,-0.45 2.44,-0.36 2.55,-0.25 2.66,-0.14 2.74,-0.00 2.82,0.12 2.87,0.28 2.91,0.43 2.92,0.59 2.93,0.74 2.90,0.90 2.87,1.06 2.80,1.20 2.73,1.34 2.63,1.47 2.53,1.59 2.41,1.69 2.28,1.78 2.14,1.84 1.99,1.91 1.83,1.93 1.68,1.96 1.52,1.95 1.36,1.94 1.21,1.89 1.06,1.84 0.91,1.74 0.76,1.65 0.63,1.48 0.49,1.32 0.41,1.12 0.33,0.93 0.32,0.71 0.31,0.50 0.37,0.30 0.43,0.09 0.55,-0.07 0.67,-0.25 0.84,-0.38 1.01,-0.50 1.21,-0.57 1.41,-0.64 1.62,-0.64 1.83,-0.64 2.04,-0.57 2.24,-0.50 2.40,-0.37 2.57,-0.24 2.69,-0.06 2.81,0.10 2.87,0.31 2.92,0.51 2.91,0.72 2.90,0.94 2.82,1.13 2.74,1.33 2.60,1.49 2.46,1.65 2.28,1.76 2.10,1.87 1.89,1.92 1.68,1.96 1.47,1.94 1.26,1.91 1.07,1.82 0.87,1.73 0.72,1.59 0.57,1.44 0.47,1.25 0.37,1.06 0.34,0.85 0.30,0.64 0.34,0.43 0.37,0.22 0.47,0.04 0.57,-0.14 0.73,-0.29 0.88,-0.43 1.08,-0.52 1.27,-0.61 1.48,-0.63 1.69,-0.65 1.90,-0.61 2.11,-0.56 2.14,-0.55 2.17,-0.53 2.30,-0.45 2.44,-0.36 2.55,-0.25 2.66,-0.14 2.74,-0.00 2.82,0.12 2.87,0.28 2.91,0.43 2.92,0.59 2.93,0.74 2.90,0.90 2.87,1.06 2.80,1.20 2.73,1.34 2.63,1.47 2.53,1.59 2.41,1.69 2.28,1.78 2.14,1.84 1.99,1.91 1.84,1.93 1.68,1.96 1.52,1.95 1.36,1.94 1.21,1.89 1.06,1.84 1.18,2.06 1.29,2.27 0.46,1.78 -0.37,1.29 -0.52,1.23 -0.67,1.17 -0.80,1.07 -0.93,0.97 -1.03,0.85 -1.13,0.72 -1.20,0.57 -1.27,0.43 -1.31,0.27 -1.34,0.11 -1.33,-0.04 -1.33,-0.21 -1.28,-0.36 -1.24,-0.52 -1.16,-0.66 -1.08,-0.80 -0.97,-0.92 -0.85,-1.04 -0.72,-1.13 -0.58,-1.21 -0.42,-1.27 -0.27,-1.32 -0.11,-1.33 0.04,-1.34 0.21,-1.32 0.37,-1.29 0.37,-1.29 L 0.37,-1.29 Z"></path></g></svg>