<svg version="1.1" xmlns="http://www.w3.org/2000/svg" viewBox="0 0 1077.142857142857 382.856968470982" width="3231.4285714285716" height="1148.570905412946">
  <!-- svg-source:excalidraw -->
  
  <defs>
    <style class="style-fonts">
      @font-face {
        font-family: "Virgil";
        src: url("https://excalidraw.com/Virgil.woff2");
      }
      @font-face {
        font-family: "Cascadia";
        src: url("https://excalidraw.com/Cascadia.woff2");
      }
    </style>
  </defs>
  <g transform="translate(408.47619338262666 192.380879720052) rotate(0 -35.23812430245539 35.238124302455276)" stroke="none"><path fill="#000000" d="M 2.43,3.42 Q 2.43,3.42 -7.33,11.71 -17.10,20.00 -24.26,25.06 -31.43,30.13 -39.05,35.82 -46.66,41.52 -50.67,44.70 -54.68,47.89 -57.55,50.10 -60.42,52.31 -62.88,53.96 -65.33,55.61 -65.38,53.24 -65.43,50.86 -59.66,51.52 -53.89,52.19 -49.68,53.37 -45.48,54.54 -38.36,56.10 -31.25,57.67 -27.24,58.65 -23.24,59.62 -18.45,60.55 -13.66,61.47 -11.35,61.85 -9.04,62.23 -6.60,62.69 -4.17,63.16 -2.35,63.00 -0.54,62.85 -0.32,62.48 -0.10,62.11 0.21,61.84 0.53,61.56 0.93,61.40 1.32,61.24 1.75,61.22 2.17,61.19 2.58,61.30 2.99,61.42 3.34,61.65 3.70,61.89 3.96,62.23 4.21,62.56 4.35,62.96 4.49,63.37 4.49,63.79 4.49,64.22 4.36,64.62 4.23,65.02 3.97,65.36 3.72,65.70 3.37,65.94 3.01,66.18 2.61,66.30 2.20,66.41 1.77,66.39 1.35,66.37 0.95,66.22 0.56,66.06 0.23,65.79 -0.08,65.52 -0.30,65.15 -0.53,64.79 -0.62,64.37 -0.71,63.96 -0.67,63.54 -0.62,63.11 -0.45,62.73 -0.27,62.34 0.01,62.03 0.30,61.72 0.67,61.52 1.05,61.32 1.47,61.25 1.89,61.18 2.31,61.24 2.73,61.31 3.10,61.51 3.48,61.71 3.77,62.01 4.07,62.32 4.25,62.70 4.43,63.09 4.48,63.51 4.52,63.93 4.43,64.35 4.34,64.76 4.34,64.76 4.34,64.76 3.99,69.43 3.63,74.10 -1.51,75.28 -6.67,76.46 -8.99,76.04 -11.32,75.61 -13.77,75.18 -16.22,74.74 -21.34,73.75 -26.45,72.77 -30.31,71.83 -34.16,70.88 -41.66,69.22 -49.16,67.55 -53.59,66.29 -58.01,65.02 -66.02,62.16 -74.03,59.29 -75.78,56.89 -77.53,54.49 -77.13,51.92 -76.74,49.35 -74.84,47.30 -72.95,45.25 -70.64,43.69 -68.33,42.12 -65.53,39.93 -62.74,37.74 -58.56,34.42 -54.38,31.11 -46.60,25.39 -38.82,19.67 -31.67,14.61 -24.51,9.56 -13.47,3.07 -2.43,-3.42 -1.98,-3.66 -1.54,-3.90 -1.05,-4.03 -0.56,-4.16 -0.05,-4.16 0.44,-4.17 0.94,-4.06 1.43,-3.94 1.88,-3.71 2.33,-3.48 2.72,-3.15 3.10,-2.82 3.39,-2.41 3.69,-2.00 3.87,-1.53 4.06,-1.05 4.13,-0.55 4.19,-0.05 4.14,0.44 4.08,0.94 3.91,1.42 3.74,1.90 3.46,2.32 3.18,2.74 2.80,3.08 2.43,3.42 2.43,3.42 L 2.43,3.42 Z"></path></g><g transform="translate(485.619050525484 169.52373686290912) rotate(0 -23.80950927734375 51.904776436941916)" stroke="none"><path fill="#000000" d="M 3.34,1.98 Q 3.34,1.98 -0.09,9.93 -3.53,17.88 -6.18,22.41 -8.83,26.94 -12.43,35.66 -16.03,44.39 -18.76,50.71 -21.48,57.04 -24.19,64.73 -26.90,72.42 -28.38,76.57 -29.87,80.72 -32.17,86.47 -34.47,92.22 -35.98,95.79 -37.49,99.36 -38.53,101.31 -39.56,103.27 -40.21,104.30 -40.85,105.32 -41.30,105.97 -41.74,106.62 -42.33,107.14 -42.92,107.67 -43.61,108.03 -44.31,108.40 -45.07,108.59 -45.84,108.78 -46.62,108.78 -47.41,108.78 -48.17,108.59 -48.94,108.41 -49.64,108.04 -50.33,107.68 -50.92,107.16 -51.51,106.63 -51.96,105.99 -52.41,105.34 -52.69,104.61 -52.97,103.87 -53.07,103.09 -53.16,102.31 -53.07,101.53 -52.97,100.75 -52.70,100.01 -52.42,99.27 -51.27,99.54 -50.13,99.80 -50.18,99.38 -50.24,98.96 -50.16,98.54 -50.07,98.12 -49.86,97.75 -49.65,97.39 -49.33,97.10 -49.02,96.82 -48.62,96.66 -48.23,96.49 -47.81,96.46 -47.39,96.43 -46.97,96.53 -46.56,96.64 -46.21,96.87 -45.85,97.10 -45.58,97.43 -45.32,97.76 -45.18,98.16 -45.03,98.56 -45.02,98.99 -45.01,99.41 -45.14,99.82 -45.27,100.22 -45.52,100.57 -45.77,100.91 -46.11,101.16 -46.46,101.40 -46.87,101.52 -47.27,101.65 -47.70,101.63 -48.12,101.62 -48.52,101.47 -48.92,101.32 -49.25,101.05 -49.58,100.79 -49.81,100.43 -50.03,100.07 -50.13,99.65 -50.23,99.24 -50.20,98.82 -50.16,98.39 -49.99,98.00 -49.82,97.62 -49.53,97.30 -49.25,96.99 -48.88,96.78 -48.51,96.57 -48.09,96.49 -47.67,96.42 -47.25,96.48 -46.83,96.54 -46.45,96.73 -46.07,96.92 -45.77,97.22 -45.47,97.52 -45.29,97.90 -45.10,98.29 -45.10,98.29 -45.10,98.29 -42.97,101.80 -40.85,105.32 -41.29,105.97 -41.74,106.62 -42.33,107.14 -42.92,107.66 -43.61,108.03 -44.31,108.40 -45.07,108.59 -45.84,108.78 -46.62,108.78 -47.41,108.78 -48.17,108.59 -48.94,108.41 -49.64,108.04 -50.33,107.68 -50.92,107.16 -51.51,106.64 -51.96,105.99 -52.41,105.34 -52.69,104.61 -52.97,103.87 -53.07,103.09 -53.16,102.31 -53.07,101.53 -52.97,100.75 -52.70,100.01 -52.42,99.27 -50.94,96.72 -49.46,94.16 -47.95,90.77 -46.44,87.38 -44.21,81.92 -41.97,76.46 -40.52,72.27 -39.07,68.08 -36.16,60.00 -33.25,51.93 -30.49,45.65 -27.73,39.37 -23.57,30.01 -19.41,20.66 -16.70,16.17 -13.98,11.68 -8.66,4.85 -3.34,-1.98 -3.05,-2.35 -2.77,-2.72 -2.40,-3.01 -2.04,-3.31 -1.61,-3.50 -1.18,-3.70 -0.72,-3.79 -0.26,-3.87 0.19,-3.85 0.66,-3.83 1.11,-3.69 1.56,-3.56 1.96,-3.32 2.37,-3.08 2.70,-2.75 3.04,-2.42 3.28,-2.02 3.53,-1.62 3.67,-1.18 3.81,-0.73 3.85,-0.26 3.88,0.20 3.80,0.66 3.72,1.12 3.53,1.55 3.34,1.98 3.34,1.98 L 3.34,1.98 Z"></path></g><g transform="translate(522.7619076683409 181.90471830822162) rotate(0 22.38093784877219 40.95236642020086)" stroke="none"><path fill="#000000" d="M 2.08,-3.60 Q 2.08,-3.60 7.76,-1.41 13.44,0.77 19.06,3.60 24.69,6.44 27.68,7.97 30.67,9.50 34.13,11.23 37.59,12.96 40.60,14.20 43.61,15.43 45.83,16.61 48.05,17.78 50.31,20.93 52.57,24.08 52.26,26.75 51.96,29.43 48.71,34.05 45.47,38.67 43.01,41.62 40.54,44.57 36.16,49.23 31.78,53.89 27.51,58.32 23.24,62.75 20.48,65.30 17.72,67.84 15.61,69.94 13.49,72.05 11.67,74.45 9.85,76.86 8.59,78.67 7.33,80.47 3.25,80.59 -0.82,80.71 -1.05,80.93 -1.28,81.15 -1.55,81.30 -1.83,81.46 -2.13,81.55 -2.44,81.64 -2.75,81.65 -3.07,81.66 -3.38,81.60 -3.69,81.53 -3.98,81.40 -4.26,81.26 -4.51,81.06 -4.75,80.86 -4.94,80.60 -5.13,80.35 -5.25,80.06 -5.38,79.77 -5.43,79.45 -5.48,79.14 -5.45,78.83 -5.42,78.51 -5.32,78.21 -5.22,77.91 -5.05,77.64 -4.88,77.38 -5.10,78.66 -5.32,79.94 -5.40,79.52 -5.48,79.10 -5.42,78.68 -5.36,78.26 -5.17,77.88 -4.98,77.50 -4.68,77.20 -4.38,76.90 -4.00,76.72 -3.61,76.53 -3.19,76.47 -2.77,76.42 -2.35,76.50 -1.94,76.58 -1.57,76.79 -1.20,77.00 -0.92,77.32 -0.63,77.64 -0.47,78.03 -0.30,78.42 -0.27,78.84 -0.23,79.27 -0.34,79.68 -0.44,80.09 -0.67,80.45 -0.90,80.80 -1.24,81.07 -1.57,81.33 -1.97,81.48 -2.37,81.62 -2.79,81.63 -3.22,81.64 -3.62,81.52 -4.03,81.39 -4.37,81.14 -4.72,80.89 -4.96,80.55 -5.21,80.20 -5.33,79.79 -5.46,79.39 -5.44,78.96 -5.43,78.54 -5.28,78.14 -5.13,77.74 -4.87,77.41 -4.60,77.08 -4.24,76.85 -3.88,76.63 -3.47,76.52 -3.06,76.42 -2.63,76.46 -2.21,76.50 -1.82,76.67 -1.43,76.83 -1.11,77.12 -0.80,77.40 -0.81,79.06 -0.82,80.71 -1.05,80.93 -1.28,81.15 -1.55,81.30 -1.83,81.46 -2.13,81.55 -2.44,81.64 -2.75,81.65 -3.07,81.66 -3.38,81.60 -3.69,81.53 -3.98,81.40 -4.26,81.26 -4.51,81.06 -4.75,80.86 -4.94,80.60 -5.13,80.35 -5.25,80.06 -5.38,79.77 -5.43,79.45 -5.48,79.14 -5.45,78.83 -5.42,78.51 -5.32,78.21 -5.22,77.91 -5.05,77.64 -4.88,77.38 -4.12,74.87 -3.37,72.37 -1.95,70.63 -0.53,68.89 1.97,65.76 4.49,62.64 6.81,60.51 9.12,58.38 11.65,56.12 14.17,53.85 18.47,49.56 22.76,45.26 26.94,40.97 31.11,36.68 33.32,34.05 35.53,31.41 37.46,29.02 39.38,26.63 35.77,25.21 32.16,23.79 28.69,22.04 25.22,20.29 22.20,18.79 19.19,17.29 13.28,14.28 7.36,11.27 2.63,7.43 -2.08,3.60 -2.48,3.30 -2.88,3.00 -3.20,2.61 -3.52,2.22 -3.73,1.76 -3.95,1.31 -4.05,0.82 -4.15,0.33 -4.13,-0.17 -4.10,-0.67 -3.96,-1.15 -3.82,-1.63 -3.57,-2.07 -3.32,-2.50 -2.97,-2.86 -2.62,-3.22 -2.20,-3.49 -1.78,-3.76 -1.30,-3.92 -0.82,-4.08 -0.32,-4.12 0.17,-4.16 0.66,-4.07 1.16,-3.99 1.62,-3.80 2.08,-3.60 2.08,-3.60 L 2.08,-3.60 Z"></path></g><g transform="translate(314.7620500837047 143.3331298828125) rotate(0 -10.95236642020086 84.7619192940848)" stroke="none"><path fill="#000000" d="M -2.79,0.31 Q -2.79,0.31 -4.24,-2.02 -5.69,-4.35 -7.28,-5.99 -8.88,-7.63 -12.21,-8.11 -15.53,-8.60 -17.70,-7.16 -19.87,-5.73 -21.07,-1.82 -22.26,2.08 -20.84,8.07 -19.43,14.05 -18.41,16.85 -17.39,19.64 -15.91,23.20 -14.43,26.76 -13.45,29.58 -12.46,32.39 -11.43,36.18 -10.40,39.97 -9.50,45.01 -8.59,50.05 -8.56,54.27 -8.52,58.49 -9.63,62.52 -10.75,66.55 -13.67,70.26 -16.59,73.97 -21.20,76.45 -25.81,78.94 -28.95,79.98 -32.09,81.03 -33.76,81.23 -35.43,81.43 -36.08,81.44 -36.73,81.45 -37.36,81.31 -37.99,81.17 -38.57,80.88 -39.15,80.59 -39.65,80.17 -40.14,79.75 -40.52,79.23 -40.90,78.70 -41.14,78.10 -41.38,77.50 -41.47,76.86 -41.56,76.22 -41.50,75.58 -41.43,74.93 -41.22,74.32 -41.00,73.71 -40.64,73.17 -40.29,72.63 -39.81,72.19 -39.33,71.75 -38.77,71.44 -38.20,71.13 -37.58,70.96 -36.95,70.79 -34.79,70.83 -32.63,70.88 -30.36,70.87 -28.09,70.87 -23.74,71.93 -19.38,72.98 -15.76,75.37 -12.14,77.76 -10.72,79.70 -9.29,81.63 -8.00,85.02 -6.71,88.41 -5.47,94.15 -4.23,99.90 -3.72,105.22 -3.21,110.54 -3.14,112.69 -3.07,114.84 -3.00,118.52 -2.92,122.21 -3.16,128.16 -3.39,134.11 -3.79,139.61 -4.20,145.12 -4.35,149.25 -4.51,153.38 -4.83,155.49 -5.16,157.61 -5.23,160.85 -5.30,164.08 -5.10,167.11 -4.89,170.14 -2.64,171.97 -0.38,173.80 2.45,174.97 5.28,176.14 9.60,178.19 13.93,180.25 14.35,180.31 14.77,180.37 15.15,180.56 15.52,180.76 15.82,181.06 16.12,181.36 16.30,181.75 16.49,182.13 16.54,182.55 16.59,182.97 16.51,183.39 16.42,183.81 16.21,184.17 16.00,184.54 15.68,184.82 15.36,185.10 14.96,185.26 14.57,185.43 14.15,185.46 13.72,185.49 13.31,185.38 12.90,185.27 12.55,185.04 12.19,184.81 11.93,184.47 11.67,184.14 11.52,183.74 11.38,183.34 11.38,182.91 11.37,182.49 11.50,182.08 11.63,181.68 11.88,181.34 12.13,180.99 12.48,180.75 12.83,180.51 13.24,180.39 13.64,180.27 14.07,180.28 14.49,180.30 14.89,180.45 15.29,180.60 15.61,180.87 15.94,181.14 16.17,181.50 16.39,181.86 16.49,182.28 16.59,182.69 16.55,183.11 16.51,183.54 16.34,183.92 16.16,184.31 15.88,184.63 15.59,184.94 15.22,185.14 14.84,185.35 14.43,185.42 14.01,185.50 14.01,185.50 14.01,185.50 10.57,187.03 7.12,188.56 2.09,187.34 -2.93,186.12 -7.28,183.24 -11.63,180.37 -14.23,176.57 -16.83,172.78 -17.19,170.18 -17.56,167.58 -17.41,164.27 -17.26,160.95 -16.76,157.03 -16.26,153.10 -16.03,148.55 -15.79,144.01 -15.43,140.78 -15.07,137.55 -14.96,135.40 -14.85,133.26 -14.57,127.77 -14.28,122.28 -14.29,116.65 -14.31,111.02 -14.67,106.45 -15.03,101.88 -16.03,96.91 -17.03,91.93 -18.10,88.92 -19.17,85.91 -20.96,84.52 -22.75,83.14 -25.45,82.31 -28.14,81.49 -31.79,81.46 -35.43,81.43 -36.08,81.44 -36.73,81.45 -37.36,81.31 -37.99,81.17 -38.57,80.88 -39.15,80.59 -39.65,80.17 -40.14,79.75 -40.52,79.23 -40.90,78.70 -41.14,78.10 -41.38,77.50 -41.47,76.86 -41.56,76.22 -41.50,75.58 -41.43,74.93 -41.22,74.32 -41.00,73.71 -40.64,73.17 -40.29,72.63 -39.81,72.19 -39.34,71.75 -38.77,71.44 -38.20,71.13 -37.58,70.96 -36.95,70.79 -35.62,70.64 -34.29,70.49 -32.05,69.60 -29.80,68.71 -27.03,67.39 -24.27,66.06 -22.63,64.23 -21.00,62.40 -20.23,59.92 -19.47,57.44 -19.42,54.55 -19.37,51.67 -20.16,47.20 -20.94,42.72 -21.79,39.32 -22.64,35.92 -23.51,33.41 -24.37,30.90 -25.96,27.08 -27.55,23.27 -28.58,20.31 -29.62,17.35 -31.42,10.74 -33.23,4.13 -32.89,1.88 -32.54,-0.37 -31.42,-4.39 -30.31,-8.42 -28.62,-10.93 -26.93,-13.44 -23.47,-15.95 -20.01,-18.47 -17.28,-18.74 -14.56,-19.02 -10.31,-18.43 -6.06,-17.85 -4.08,-16.77 -2.09,-15.69 0.67,-12.79 3.44,-9.88 4.02,-7.69 4.59,-5.50 3.69,-2.90 2.79,-0.31 2.79,0.02 2.78,0.36 2.70,0.69 2.61,1.02 2.45,1.32 2.29,1.62 2.07,1.87 1.84,2.12 1.56,2.31 1.28,2.50 0.96,2.62 0.64,2.73 0.30,2.77 -0.02,2.81 -0.36,2.76 -0.70,2.72 -1.01,2.59 -1.33,2.47 -1.60,2.28 -1.88,2.08 -2.10,1.82 -2.33,1.57 -2.48,1.27 -2.63,0.97 -2.71,0.64 -2.79,0.31 -2.79,0.31 L -2.79,0.31 Z"></path></g><g transform="translate(589.0477643694189 122.3808070591516) rotate(0 7.619018554687727 89.04763357979908)" stroke="none"><path fill="#000000" d="M -3.11,-2.07 Q -3.11,-2.07 -2.72,-4.22 -2.32,-6.37 0.00,-8.50 2.33,-10.63 4.27,-11.63 6.22,-12.63 10.48,-13.17 14.75,-13.71 18.41,-12.94 22.06,-12.17 24.43,-11.03 26.80,-9.89 29.00,-7.42 31.19,-4.94 32.50,0.99 33.81,6.92 33.63,9.63 33.46,12.34 31.87,17.04 30.28,21.74 28.23,26.93 26.18,32.11 24.52,36.00 22.85,39.89 21.74,43.59 20.62,47.28 20.02,50.81 19.42,54.34 19.51,57.68 19.59,61.03 20.92,62.89 22.24,64.76 24.90,65.20 27.57,65.64 29.56,69.67 31.55,73.70 29.38,77.15 27.21,80.60 25.49,82.42 23.77,84.25 22.59,86.20 21.40,88.16 20.35,91.59 19.29,95.01 19.88,97.38 20.48,99.76 21.43,102.69 22.39,105.61 23.88,109.16 25.37,112.70 26.32,116.24 27.27,119.78 27.85,122.73 28.43,125.67 28.90,128.18 29.36,130.68 29.65,134.03 29.93,137.39 29.98,140.22 30.03,143.05 30.04,145.35 30.06,147.65 30.04,150.02 30.03,152.38 30.04,154.65 30.05,156.91 30.05,159.39 30.04,161.87 29.68,164.90 29.32,167.94 28.16,170.72 27.01,173.50 25.33,176.03 23.66,178.55 21.87,180.42 20.07,182.29 18.09,183.65 16.12,185.01 13.41,186.31 10.70,187.61 7.79,188.68 4.88,189.74 1.97,190.56 -0.93,191.37 -4.28,192.13 -7.64,192.89 -10.28,191.09 -12.92,189.28 -13.34,189.22 -13.76,189.16 -14.14,188.97 -14.52,188.79 -14.82,188.49 -15.13,188.18 -15.31,187.80 -15.50,187.42 -15.56,187.00 -15.62,186.58 -15.54,186.16 -15.46,185.75 -15.25,185.38 -15.04,185.01 -14.72,184.72 -14.41,184.44 -14.02,184.27 -13.62,184.10 -13.20,184.07 -12.78,184.03 -12.37,184.14 -11.95,184.24 -11.59,184.47 -11.24,184.70 -10.97,185.03 -10.70,185.36 -10.56,185.76 -10.41,186.16 -10.40,186.58 -10.39,187.01 -10.51,187.41 -10.64,187.82 -10.89,188.17 -11.13,188.51 -11.48,188.76 -11.83,189.01 -12.23,189.13 -12.64,189.26 -13.06,189.24 -13.49,189.23 -13.89,189.09 -14.29,188.94 -14.62,188.67 -14.95,188.41 -15.18,188.05 -15.40,187.69 -15.51,187.28 -15.61,186.86 -15.58,186.44 -15.54,186.02 -15.37,185.63 -15.20,185.24 -14.92,184.92 -14.64,184.60 -14.27,184.40 -13.90,184.19 -13.48,184.11 -13.06,184.03 -13.06,184.03 -13.06,184.03 -11.33,181.95 -9.59,179.87 -7.10,179.37 -4.62,178.87 -2.39,178.32 -0.16,177.77 2.48,176.87 5.12,175.97 7.23,175.02 9.34,174.07 11.52,172.80 13.70,171.54 15.33,169.36 16.97,167.18 17.27,164.52 17.57,161.87 17.56,159.39 17.56,156.91 17.57,154.65 17.58,152.39 17.56,150.03 17.55,147.67 17.55,145.40 17.55,143.12 17.52,140.49 17.50,137.86 17.37,135.60 17.25,133.34 16.74,130.70 16.23,128.06 15.75,125.42 15.27,122.78 14.64,120.03 14.01,117.28 13.20,115.19 12.39,113.11 11.58,111.11 10.77,109.11 9.68,105.26 8.59,101.40 8.25,96.83 7.90,92.27 9.79,87.10 11.69,81.92 13.57,79.12 15.45,76.31 17.07,74.65 18.69,73.00 20.45,71.42 22.22,69.84 21.53,72.70 20.84,75.57 17.51,74.25 14.18,72.93 12.33,71.26 10.47,69.59 9.42,65.84 8.36,62.09 8.36,57.37 8.35,52.64 9.01,48.64 9.66,44.63 11.16,39.91 12.67,35.18 14.29,31.35 15.91,27.51 17.16,24.79 18.41,22.08 19.05,19.99 19.69,17.90 21.17,12.78 22.64,7.66 22.03,3.71 21.42,-0.22 18.45,-1.42 15.48,-2.61 13.14,-2.60 10.80,-2.59 8.75,-1.39 6.71,-0.19 4.91,0.94 3.11,2.07 2.82,2.41 2.52,2.76 2.15,3.02 1.79,3.28 1.37,3.45 0.95,3.61 0.50,3.68 0.06,3.74 -0.38,3.69 -0.83,3.64 -1.26,3.49 -1.68,3.34 -2.06,3.09 -2.43,2.84 -2.74,2.50 -3.04,2.17 -3.26,1.77 -3.47,1.38 -3.59,0.94 -3.70,0.51 -3.71,0.05 -3.72,-0.39 -3.62,-0.83 -3.51,-1.27 -3.31,-1.67 -3.11,-2.07 -3.11,-2.07 L -3.11,-2.07 Z"></path></g><g transform="translate(252.857317243303 58.57125418526766) rotate(0 60 13.80950927734375)" stroke="none"><path fill="#000000" d="M -2.06,-3.23 Q -2.06,-3.23 0.74,-5.48 3.54,-7.72 8.54,-10.37 13.53,-13.01 17.69,-14.72 21.84,-16.44 29.31,-18.37 36.78,-20.31 41.08,-21.11 45.38,-21.91 53.13,-21.78 60.89,-21.64 64.54,-21.55 68.20,-21.47 73.55,-19.68 78.90,-17.89 82.22,-16.23 85.54,-14.58 90.00,-11.23 94.46,-7.88 96.79,-5.95 99.12,-4.02 102.53,-0.60 105.93,2.81 107.69,4.89 109.46,6.96 111.86,10.86 114.26,14.75 115.44,16.85 116.61,18.96 117.89,22.48 119.17,26.00 120.72,29.86 122.27,33.71 123.12,35.90 123.96,38.09 122.81,42.14 121.65,46.19 121.45,46.56 121.26,46.94 120.95,47.23 120.64,47.52 120.25,47.70 119.87,47.88 119.45,47.93 119.02,47.97 118.61,47.88 118.19,47.79 117.83,47.57 117.46,47.35 117.19,47.03 116.91,46.71 116.76,46.31 116.60,45.92 116.57,45.49 116.55,45.07 116.66,44.66 116.78,44.25 117.02,43.90 117.25,43.55 117.59,43.29 117.93,43.03 118.33,42.90 118.74,42.76 119.16,42.76 119.59,42.76 119.99,42.89 120.39,43.03 120.73,43.29 121.07,43.54 121.31,43.90 121.55,44.25 121.66,44.66 121.77,45.07 121.75,45.49 121.73,45.91 121.57,46.31 121.41,46.70 121.14,47.03 120.86,47.35 120.50,47.57 120.14,47.79 119.72,47.88 119.31,47.97 118.88,47.93 118.46,47.88 118.08,47.70 117.69,47.53 117.38,47.23 117.07,46.94 116.87,46.57 116.67,46.19 116.61,45.77 116.54,45.35 116.60,44.93 116.67,44.51 116.67,44.51 116.67,44.51 114.77,43.56 112.86,42.60 112.13,40.30 111.40,38.00 109.82,33.84 108.24,29.69 107.44,27.08 106.65,24.46 105.54,22.45 104.42,20.43 102.71,17.20 101.00,13.98 99.54,12.19 98.08,10.40 95.18,7.30 92.29,4.20 90.10,2.38 87.91,0.57 84.32,-2.31 80.73,-5.19 77.99,-6.61 75.25,-8.03 71.50,-9.61 67.75,-11.19 64.16,-11.30 60.57,-11.40 53.85,-11.72 47.13,-12.04 43.15,-11.34 39.17,-10.64 32.31,-9.02 25.45,-7.41 21.65,-5.95 17.86,-4.48 13.18,-2.21 8.49,0.05 5.28,1.64 2.06,3.23 1.64,3.43 1.22,3.63 0.77,3.73 0.31,3.82 -0.14,3.80 -0.60,3.79 -1.05,3.66 -1.49,3.53 -1.89,3.30 -2.29,3.07 -2.63,2.75 -2.96,2.43 -3.21,2.04 -3.46,1.65 -3.61,1.21 -3.76,0.77 -3.79,0.31 -3.83,-0.14 -3.76,-0.60 -3.69,-1.05 -3.51,-1.48 -3.33,-1.91 -3.05,-2.28 -2.77,-2.65 -2.41,-2.94 -2.06,-3.24 -2.06,-3.24 L -2.06,-3.23 Z"></path></g><g transform="translate(328.0954415457586 89.99982561383922) rotate(0 34.76187569754461 -8.571428571428555)" stroke="none"><path fill="#000000" d="M 1.36,-3.11 Q 1.36,-3.11 6.26,-2.37 11.15,-1.64 13.59,-0.52 16.03,0.58 21.52,2.58 27.02,4.59 30.03,5.80 33.04,7.01 35.07,7.75 37.09,8.50 39.55,9.15 42.01,9.80 44.19,10.58 46.38,11.36 48.57,6.92 50.77,2.48 52.19,-0.10 53.62,-2.69 56.00,-8.49 58.38,-14.28 59.39,-17.05 60.39,-19.81 60.95,-22.37 61.50,-24.93 62.27,-27.92 63.05,-30.91 64.95,-32.41 66.85,-33.91 66.96,-34.32 67.06,-34.73 67.29,-35.09 67.51,-35.45 67.84,-35.72 68.17,-35.98 68.57,-36.13 68.97,-36.28 69.40,-36.29 69.82,-36.30 70.23,-36.18 70.63,-36.05 70.98,-35.81 71.33,-35.56 71.57,-35.22 71.82,-34.87 71.95,-34.46 72.07,-34.06 72.06,-33.63 72.05,-33.21 71.91,-32.81 71.76,-32.41 71.50,-32.08 71.23,-31.75 70.87,-31.52 70.52,-31.29 70.10,-31.18 69.69,-31.08 69.27,-31.11 68.84,-31.15 68.45,-31.32 68.06,-31.48 67.75,-31.77 67.43,-32.05 67.22,-32.42 67.01,-32.79 66.93,-33.20 66.85,-33.62 66.90,-34.04 66.96,-34.46 67.15,-34.85 67.34,-35.23 67.64,-35.53 67.94,-35.83 68.32,-36.02 68.70,-36.21 69.12,-36.27 69.54,-36.32 69.96,-36.25 70.37,-36.17 70.74,-35.96 71.11,-35.75 71.40,-35.43 71.68,-35.12 71.85,-34.73 72.02,-34.34 72.06,-33.91 72.09,-33.49 72.09,-33.49 72.09,-33.49 73.44,-30.56 74.79,-27.64 74.13,-24.75 73.47,-21.86 72.56,-18.71 71.65,-15.57 70.51,-12.63 69.36,-9.70 66.68,-3.37 63.99,2.94 62.52,5.67 61.05,8.40 56.85,13.97 52.66,19.53 48.71,21.09 44.76,22.65 41.88,22.00 39.00,21.35 35.97,20.52 32.94,19.69 30.81,18.89 28.67,18.10 25.76,16.97 22.85,15.85 16.99,13.64 11.13,11.43 8.74,10.37 6.36,9.30 2.50,6.21 -1.36,3.11 -1.71,2.90 -2.06,2.69 -2.36,2.41 -2.65,2.12 -2.87,1.77 -3.08,1.42 -3.21,1.03 -3.33,0.64 -3.36,0.23 -3.39,-0.16 -3.32,-0.57 -3.25,-0.97 -3.09,-1.35 -2.92,-1.72 -2.67,-2.05 -2.43,-2.38 -2.11,-2.63 -1.79,-2.89 -1.41,-3.06 -1.04,-3.23 -0.64,-3.31 -0.24,-3.39 0.16,-3.37 0.57,-3.35 0.97,-3.23 1.36,-3.11 1.36,-3.11 L 1.36,-3.11 Z"></path></g><g transform="translate(544.2858886718741 316.66652134486606) rotate(0 76.19044712611617 28.09522356305797)" stroke="none"><path fill="#000000" d="M 3.11,-0.38 Q 3.11,-0.38 5.11,3.81 7.10,8.01 7.34,10.48 7.58,12.95 8.91,16.25 10.24,19.55 12.85,23.92 15.45,28.28 18.80,32.68 22.14,37.07 25.46,39.83 28.77,42.59 30.56,43.89 32.34,45.19 35.20,46.24 38.05,47.28 40.66,48.06 43.27,48.84 47.39,49.07 51.51,49.30 54.55,49.48 57.59,49.66 62.75,49.44 67.91,49.22 71.68,48.88 75.45,48.54 80.61,46.88 85.77,45.21 89.03,44.18 92.29,43.15 99.02,39.88 105.75,36.60 109.38,34.45 113.01,32.30 119.90,27.21 126.79,22.12 130.57,19.10 134.35,16.08 137.23,13.49 140.10,10.89 144.97,9.05 149.84,7.21 150.21,7.01 150.58,6.81 151.00,6.73 151.42,6.66 151.84,6.73 152.26,6.79 152.64,6.99 153.01,7.18 153.31,7.49 153.61,7.79 153.79,8.18 153.97,8.56 154.02,8.98 154.07,9.40 153.98,9.82 153.90,10.24 153.68,10.60 153.46,10.97 153.14,11.25 152.82,11.53 152.43,11.69 152.04,11.85 151.61,11.88 151.19,11.90 150.78,11.79 150.37,11.68 150.01,11.45 149.66,11.21 149.40,10.88 149.14,10.54 149.00,10.14 148.86,9.74 148.85,9.31 148.85,8.89 148.98,8.48 149.11,8.08 149.37,7.74 149.62,7.40 149.97,7.16 150.32,6.92 150.73,6.80 151.14,6.68 151.56,6.70 151.99,6.72 152.38,6.87 152.78,7.02 153.10,7.30 153.43,7.57 153.65,7.93 153.88,8.29 153.97,8.71 154.07,9.12 154.03,9.54 153.98,9.97 153.81,10.35 153.63,10.74 153.35,11.05 153.06,11.36 153.06,11.36 153.06,11.36 152.18,14.19 151.30,17.02 149.72,18.46 148.15,19.89 145.02,22.67 141.89,25.44 137.98,28.62 134.07,31.79 126.73,37.41 119.38,43.03 115.30,45.45 111.21,47.88 103.65,51.51 96.10,55.14 92.80,56.19 89.50,57.23 83.08,59.16 76.66,61.09 72.52,61.47 68.39,61.86 62.68,62.05 56.96,62.25 53.75,62.11 50.53,61.97 45.09,61.46 39.66,60.94 36.52,59.98 33.38,59.02 29.15,57.24 24.93,55.46 22.94,53.99 20.96,52.52 18.17,50.25 15.38,47.98 13.70,46.22 12.03,44.47 10.15,41.79 8.26,39.12 6.74,37.12 5.22,35.11 2.97,31.63 0.73,28.15 -0.25,25.94 -1.25,23.74 -2.86,18.97 -4.46,14.21 -4.68,11.86 -4.91,9.51 -4.01,4.95 -3.11,0.38 -3.11,0.01 -3.12,-0.36 -3.03,-0.73 -2.94,-1.10 -2.76,-1.43 -2.59,-1.77 -2.34,-2.05 -2.09,-2.34 -1.78,-2.56 -1.46,-2.77 -1.11,-2.91 -0.76,-3.04 -0.38,-3.09 -0.01,-3.14 0.36,-3.09 0.74,-3.05 1.09,-2.91 1.45,-2.78 1.76,-2.57 2.07,-2.35 2.32,-2.07 2.57,-1.79 2.75,-1.45 2.93,-1.12 3.02,-0.75 3.11,-0.38 3.11,-0.38 L 3.11,-0.38 Z"></path></g><g transform="translate(670.0001743861603 313.8093784877233) rotate(0 24.28571428571422 16.66665213448647)" stroke="none"><path fill="#000000" d="M 0,-4.15 Q 0,-4.15 7.11,-5.36 14.23,-6.57 18.35,-6.56 22.46,-6.56 26.98,-7.29 31.51,-8.02 34.32,-8.61 37.13,-9.20 40.12,-10.31 43.11,-11.42 48.32,-8.21 53.53,-5.00 53.06,-0.58 52.58,3.83 51.59,6.96 50.59,10.09 48.80,15.03 47.00,19.98 45.66,23.24 44.32,26.51 42.57,29.86 40.81,33.20 39.76,35.81 38.70,38.41 35.84,37.88 32.98,37.35 32.83,37.63 32.68,37.91 32.47,38.14 32.26,38.38 32.00,38.56 31.73,38.74 31.44,38.85 31.14,38.96 30.83,38.99 30.51,39.03 30.20,38.99 29.88,38.95 29.59,38.83 29.29,38.72 29.03,38.54 28.77,38.36 28.57,38.12 28.36,37.88 28.21,37.60 28.07,37.32 27.99,37.01 27.92,36.70 27.92,36.38 27.92,36.07 28.00,35.76 28.08,35.45 27.99,35.85 27.91,36.24 28.00,35.83 28.10,35.41 28.32,35.05 28.54,34.69 28.86,34.42 29.19,34.14 29.58,33.99 29.98,33.83 30.40,33.81 30.83,33.79 31.24,33.91 31.65,34.02 32.00,34.26 32.35,34.51 32.60,34.85 32.86,35.18 32.99,35.59 33.12,35.99 33.12,36.42 33.12,36.84 32.98,37.24 32.84,37.65 32.58,37.98 32.32,38.32 31.97,38.56 31.62,38.79 31.21,38.90 30.80,39.01 30.37,38.99 29.95,38.96 29.56,38.80 29.16,38.64 28.84,38.37 28.52,38.09 28.30,37.72 28.08,37.36 28.00,36.94 27.91,36.53 27.95,36.11 28.00,35.68 28.18,35.30 28.36,34.91 28.66,34.61 28.95,34.30 29.33,34.10 29.71,33.91 30.13,33.84 30.55,33.77 30.96,33.85 31.38,33.92 31.76,34.12 32.13,34.32 32.42,34.63 32.71,34.94 32.89,35.33 33.06,35.71 33.02,36.53 32.98,37.35 32.83,37.63 32.68,37.91 32.47,38.14 32.26,38.38 32.00,38.56 31.73,38.74 31.44,38.85 31.14,38.96 30.83,38.99 30.51,39.03 30.20,38.99 29.88,38.95 29.59,38.83 29.29,38.72 29.03,38.54 28.77,38.36 28.57,38.12 28.36,37.88 28.21,37.60 28.07,37.32 27.99,37.01 27.92,36.70 27.92,36.38 27.92,36.07 28.00,35.76 28.08,35.45 26.96,34.43 25.83,33.40 27.32,29.98 28.81,26.56 30.35,23.96 31.89,21.35 33.15,18.35 34.40,15.34 36.14,10.68 37.87,6.03 38.74,3.32 39.62,0.61 40.96,-2.26 42.29,-5.14 43.64,-1.80 44.99,1.52 42.40,2.47 39.82,3.42 36.70,4.08 33.59,4.73 28.04,5.65 22.49,6.56 18.36,6.56 14.23,6.57 7.11,5.36 0,4.15 -0.49,4.09 -0.99,4.03 -1.46,3.85 -1.92,3.67 -2.34,3.39 -2.75,3.10 -3.08,2.73 -3.41,2.35 -3.64,1.91 -3.88,1.47 -4.00,0.98 -4.12,0.50 -4.12,-0.00 -4.12,-0.50 -4.00,-0.98 -3.88,-1.47 -3.64,-1.91 -3.41,-2.35 -3.08,-2.73 -2.75,-3.10 -2.34,-3.39 -1.92,-3.67 -1.46,-3.85 -0.99,-4.03 -0.49,-4.09 0.00,-4.15 0.00,-4.15 L 0,-4.15 Z"></path></g><g transform="translate(29.047589983258604 98.57142857142844) rotate(0 1.9047764369420292 21.428571428571445)" stroke="none"><path fill="#000000" d="M 3.53,0 Q 3.53,0 4.27,4.10 5.01,8.21 6.16,17.89 7.31,27.57 6.52,31.94 5.73,36.31 5.70,36.73 5.68,37.16 5.53,37.55 5.37,37.95 5.09,38.27 4.82,38.59 4.46,38.81 4.09,39.03 3.68,39.13 3.26,39.22 2.84,39.17 2.42,39.13 2.03,38.95 1.64,38.77 1.34,38.48 1.03,38.19 0.83,37.81 0.63,37.44 0.56,37.02 0.49,36.60 0.56,36.18 0.63,35.76 0.83,35.38 1.02,35.01 1.33,34.71 1.64,34.42 2.03,34.24 2.41,34.06 2.83,34.02 3.26,33.97 3.67,34.06 4.09,34.15 4.45,34.37 4.81,34.59 5.09,34.91 5.37,35.24 5.52,35.63 5.68,36.03 5.70,36.45 5.73,36.88 5.61,37.29 5.50,37.70 5.26,38.05 5.03,38.40 4.69,38.66 4.35,38.91 3.95,39.05 3.54,39.19 3.12,39.19 2.69,39.19 2.29,39.05 1.89,38.92 1.55,38.66 1.21,38.40 0.97,38.05 0.73,37.70 0.62,37.29 0.51,36.88 0.51,36.88 0.51,36.88 -1.20,32.79 -2.92,28.69 -3.97,18.45 -5.01,8.21 -4.27,4.10 -3.53,0 -3.48,-0.42 -3.43,-0.84 -3.28,-1.24 -3.13,-1.64 -2.88,-1.99 -2.64,-2.34 -2.32,-2.62 -2.00,-2.91 -1.63,-3.10 -1.25,-3.30 -0.84,-3.40 -0.42,-3.51 0.00,-3.51 0.42,-3.51 0.84,-3.40 1.25,-3.30 1.63,-3.10 2.00,-2.91 2.32,-2.62 2.64,-2.34 2.89,-1.99 3.13,-1.64 3.28,-1.24 3.43,-0.84 3.48,-0.42 3.53,0.00 3.53,0.00 L 3.53,0 Z"></path></g><g transform="translate(10 74.76189749581454) rotate(0 17.61904035295754 -5.238091605050215)" stroke="none"><path fill="#000000" d="M -1.11,-3.74 Q -1.11,-3.74 9.07,-6.57 19.25,-9.41 23.68,-10.25 28.12,-11.10 28.54,-11.15 28.96,-11.20 29.38,-11.12 29.80,-11.04 30.16,-10.82 30.53,-10.61 30.81,-10.29 31.09,-9.97 31.26,-9.58 31.42,-9.19 31.45,-8.77 31.48,-8.34 31.38,-7.93 31.27,-7.52 31.04,-7.16 30.81,-6.81 30.47,-6.54 30.14,-6.28 29.74,-6.14 29.34,-5.99 28.91,-5.99 28.49,-5.98 28.08,-6.11 27.68,-6.24 27.34,-6.49 26.99,-6.74 26.75,-7.09 26.50,-7.43 26.38,-7.84 26.26,-8.25 26.28,-8.67 26.29,-9.10 26.44,-9.49 26.59,-9.89 26.86,-10.22 27.13,-10.55 27.49,-10.78 27.85,-11.00 28.27,-11.10 28.68,-11.20 29.10,-11.16 29.53,-11.12 29.91,-10.95 30.30,-10.78 30.62,-10.49 30.93,-10.21 31.14,-9.83 31.34,-9.46 31.42,-9.04 31.49,-8.63 31.43,-8.21 31.37,-7.78 31.18,-7.41 30.99,-7.03 30.68,-6.73 30.38,-6.43 30.00,-6.25 29.62,-6.06 29.62,-6.06 29.62,-6.06 25.44,-4.34 21.26,-2.63 11.19,0.55 1.11,3.74 0.64,3.81 0.18,3.89 -0.28,3.86 -0.75,3.82 -1.20,3.68 -1.64,3.53 -2.04,3.28 -2.44,3.04 -2.77,2.70 -3.10,2.36 -3.34,1.96 -3.57,1.55 -3.71,1.10 -3.84,0.65 -3.87,0.18 -3.89,-0.28 -3.80,-0.74 -3.71,-1.21 -3.51,-1.63 -3.31,-2.06 -3.01,-2.42 -2.72,-2.79 -2.34,-3.08 -1.97,-3.36 -1.54,-3.55 -1.11,-3.74 -1.11,-3.74 L -1.11,-3.74 Z"></path></g><g transform="translate(53.80950927734375 86.1904689243861) rotate(0 15.238102504185349 19.04763357979914)" stroke="none"><path fill="#000000" d="M 3.34,-0.45 Q 3.34,-0.45 4.73,5.48 6.12,11.43 7.56,19.37 9.00,27.31 9.62,31.33 10.25,35.35 10.62,37.91 10.99,40.48 10.99,41.02 11.00,41.57 10.87,42.10 10.75,42.63 10.50,43.12 10.25,43.60 9.90,44.02 9.54,44.43 9.09,44.74 8.65,45.06 8.14,45.26 7.63,45.46 7.09,45.53 6.55,45.60 6.01,45.54 5.47,45.48 4.95,45.30 4.44,45.11 3.99,44.80 3.53,44.50 3.17,44.09 2.80,43.69 2.54,43.21 2.28,42.73 2.15,42.20 2.01,41.67 1.51,38.69 1.02,35.71 0.53,32.76 0.05,29.81 0.37,24.49 0.68,19.16 1.15,16.08 1.61,13.00 4.25,8.04 6.89,3.09 9.28,0.36 11.68,-2.36 14.96,-4.32 18.24,-6.27 21.31,-5.75 24.38,-5.23 27.95,0.95 31.52,7.14 32.29,10.91 33.05,14.68 33.42,20.37 33.80,26.06 33.39,28.33 32.99,30.60 32.97,30.92 32.95,31.23 32.85,31.53 32.75,31.84 32.59,32.11 32.42,32.38 32.20,32.60 31.97,32.82 31.70,32.98 31.43,33.15 31.13,33.24 30.82,33.33 30.51,33.35 30.19,33.37 29.88,33.31 29.57,33.25 29.28,33.12 28.99,32.99 28.75,32.79 28.50,32.59 28.30,32.34 28.11,32.09 27.98,31.80 27.85,31.52 27.80,31.20 27.74,30.89 28.05,29.98 28.35,29.06 28.67,28.78 28.99,28.51 29.39,28.35 29.78,28.19 30.20,28.16 30.63,28.13 31.04,28.24 31.45,28.35 31.80,28.59 32.16,28.83 32.42,29.16 32.68,29.50 32.81,29.90 32.95,30.30 32.96,30.73 32.96,31.15 32.83,31.56 32.69,31.96 32.44,32.30 32.18,32.64 31.83,32.88 31.48,33.12 31.08,33.24 30.67,33.36 30.24,33.34 29.82,33.32 29.42,33.16 29.03,33.01 28.70,32.73 28.37,32.46 28.15,32.10 27.93,31.74 27.84,31.32 27.74,30.91 27.79,30.48 27.83,30.06 28.00,29.68 28.18,29.29 28.47,28.98 28.76,28.67 29.13,28.46 29.51,28.26 29.93,28.19 30.34,28.12 30.76,28.19 31.18,28.25 31.56,28.45 31.94,28.64 32.23,28.95 32.53,29.26 32.71,29.64 32.89,30.02 32.94,30.45 32.99,30.87 32.90,31.28 32.81,31.70 32.90,31.15 32.99,30.60 32.97,30.92 32.95,31.23 32.85,31.53 32.75,31.84 32.59,32.11 32.42,32.38 32.20,32.60 31.97,32.82 31.70,32.98 31.43,33.15 31.13,33.24 30.83,33.33 30.51,33.35 30.19,33.37 29.88,33.31 29.57,33.25 29.28,33.12 28.99,32.99 28.75,32.79 28.50,32.59 28.30,32.34 28.11,32.09 27.98,31.80 27.85,31.52 27.80,31.20 27.74,30.89 26.05,28.74 24.35,26.59 24.13,21.51 23.91,16.43 23.26,12.89 22.61,9.36 20.45,6.47 18.29,3.58 16.48,5.54 14.67,7.50 12.57,11.00 10.47,14.51 10.10,17.16 9.73,19.81 9.36,24.10 9.00,28.39 9.49,31.32 9.98,34.24 10.48,37.36 10.99,40.48 10.99,41.02 11.00,41.57 10.87,42.10 10.75,42.63 10.50,43.12 10.25,43.60 9.90,44.02 9.54,44.43 9.09,44.74 8.65,45.06 8.14,45.26 7.63,45.46 7.09,45.53 6.55,45.60 6.01,45.54 5.47,45.48 4.95,45.30 4.44,45.11 3.99,44.80 3.54,44.50 3.17,44.09 2.80,43.69 2.54,43.21 2.28,42.73 2.15,42.20 2.01,41.67 1.64,39.20 1.26,36.74 0.66,32.83 0.06,28.92 -1.39,20.79 -2.84,12.65 -3.09,6.55 -3.34,0.45 -3.34,0.04 -3.35,-0.35 -3.26,-0.75 -3.17,-1.14 -2.98,-1.51 -2.80,-1.87 -2.53,-2.18 -2.27,-2.49 -1.94,-2.72 -1.61,-2.96 -1.23,-3.11 -0.85,-3.26 -0.45,-3.31 -0.04,-3.37 0.35,-3.32 0.75,-3.28 1.14,-3.14 1.52,-3.00 1.86,-2.78 2.19,-2.55 2.47,-2.25 2.74,-1.95 2.94,-1.59 3.13,-1.24 3.23,-0.84 3.34,-0.45 3.34,-0.45 L 3.34,-0.45 Z"></path></g><g transform="translate(106.19044712611594 66.1904689243861) rotate(0 3.8095310756137906 37.619051252092675)" stroke="none"><path fill="#000000" d="M 3.75,-0.21 Q 3.75,-0.21 4.74,9.34 5.74,18.90 6.81,31.67 7.87,44.45 8.31,50.75 8.75,57.05 9.46,61.73 10.16,66.40 10.06,68.36 9.96,70.31 9.96,70.63 9.97,70.95 9.91,71.25 9.84,71.56 9.70,71.85 9.56,72.13 9.36,72.38 9.16,72.62 8.90,72.81 8.65,73.00 8.36,73.12 8.06,73.24 7.75,73.28 7.44,73.33 7.12,73.30 6.81,73.27 6.51,73.17 6.21,73.07 5.94,72.90 5.68,72.72 5.46,72.49 5.24,72.26 5.09,71.99 4.93,71.71 4.85,71.41 4.76,71.10 5.52,69.70 6.29,68.31 6.70,68.20 7.11,68.09 7.53,68.12 7.96,68.15 8.35,68.31 8.74,68.48 9.06,68.75 9.38,69.03 9.60,69.40 9.81,69.77 9.90,70.18 9.98,70.60 9.93,71.02 9.88,71.44 9.70,71.83 9.51,72.21 9.22,72.52 8.92,72.82 8.54,73.01 8.16,73.21 7.74,73.27 7.32,73.33 6.90,73.26 6.49,73.18 6.11,72.98 5.74,72.78 5.45,72.46 5.16,72.15 4.99,71.76 4.82,71.37 4.78,70.95 4.74,70.53 4.83,70.11 4.93,69.70 5.16,69.34 5.38,68.98 5.71,68.71 6.04,68.44 6.43,68.29 6.83,68.13 7.25,68.12 7.68,68.10 8.09,68.22 8.49,68.34 8.84,68.58 9.19,68.83 9.44,69.17 9.70,69.51 9.83,69.91 9.96,70.32 9.95,70.74 9.94,71.17 9.80,71.57 9.66,71.97 9.40,72.30 9.14,72.64 9.55,71.48 9.96,70.31 9.96,70.63 9.97,70.95 9.91,71.25 9.84,71.56 9.70,71.85 9.56,72.13 9.36,72.38 9.16,72.62 8.90,72.81 8.65,73.00 8.36,73.12 8.06,73.24 7.75,73.28 7.44,73.33 7.12,73.30 6.81,73.27 6.51,73.17 6.21,73.07 5.94,72.90 5.68,72.72 5.46,72.49 5.24,72.26 5.09,71.99 4.93,71.71 4.85,71.41 4.76,71.10 2.87,69.45 0.98,67.80 0.21,62.76 -0.56,57.72 -1.01,51.47 -1.47,45.22 -2.51,32.32 -3.54,19.43 -3.65,9.82 -3.75,0.21 -3.72,-0.23 -3.69,-0.69 -3.56,-1.12 -3.42,-1.55 -3.19,-1.94 -2.95,-2.33 -2.63,-2.65 -2.31,-2.97 -1.92,-3.20 -1.53,-3.43 -1.09,-3.57 -0.66,-3.70 -0.21,-3.72 0.23,-3.75 0.68,-3.67 1.13,-3.58 1.54,-3.40 1.95,-3.21 2.31,-2.93 2.67,-2.65 2.94,-2.29 3.22,-1.93 3.41,-1.52 3.59,-1.10 3.67,-0.66 3.75,-0.21 3.75,-0.21 L 3.75,-0.21 Z"></path></g><g transform="translate(105.23808070591485 64.28571428571422) rotate(0 12.857142857143003 21.428560529436425)" stroke="none"><path fill="#000000" d="M -0.65,-2.62 Q -0.65,-2.62 3.54,-4.45 7.73,-6.28 10.28,-6.77 12.83,-7.26 16.69,-6.92 20.55,-6.58 23.42,-5.11 26.29,-3.63 28.45,0.89 30.62,5.42 31.28,8.26 31.94,11.10 29.49,18.96 27.04,26.82 25.41,30.67 23.78,34.53 20.70,38.65 17.62,42.77 15.95,44.68 14.28,46.60 10.22,48.29 6.16,49.98 4.08,50.46 1.99,50.95 0.12,50.04 -1.73,49.13 -2.16,49.14 -2.58,49.14 -2.99,49.01 -3.39,48.88 -3.73,48.62 -4.07,48.37 -4.32,48.02 -4.56,47.67 -4.67,47.26 -4.79,46.85 -4.77,46.43 -4.75,46.00 -4.60,45.61 -4.44,45.21 -4.17,44.88 -3.90,44.56 -3.54,44.34 -3.18,44.11 -2.76,44.02 -2.35,43.92 -1.92,43.97 -1.50,44.01 -1.11,44.18 -0.73,44.36 -0.42,44.65 -0.10,44.94 0.09,45.31 0.29,45.69 0.36,46.10 0.43,46.52 0.37,46.94 0.30,47.36 0.11,47.74 -0.08,48.12 -0.38,48.41 -0.69,48.71 -1.07,48.89 -1.46,49.07 -1.88,49.12 -2.30,49.17 -2.72,49.08 -3.13,48.99 -3.50,48.78 -3.87,48.56 -4.14,48.24 -4.42,47.92 -4.58,47.53 -4.74,47.13 -4.77,46.71 -4.80,46.28 -4.69,45.87 -4.58,45.46 -4.34,45.11 -4.10,44.76 -3.77,44.50 -3.43,44.24 -3.03,44.10 -2.63,43.96 -2.63,43.96 -2.63,43.96 0.18,42.14 2.99,40.33 6.45,38.38 9.92,36.43 12.58,33.57 15.25,30.72 16.83,27.18 18.42,23.64 20.45,16.02 22.49,8.40 20.97,5.07 19.46,1.74 16.89,1.38 14.32,1.02 12.05,1.46 9.78,1.90 5.21,2.26 0.65,2.62 0.33,2.66 0.00,2.70 -0.31,2.66 -0.63,2.62 -0.94,2.51 -1.24,2.39 -1.51,2.21 -1.78,2.02 -2.00,1.78 -2.21,1.54 -2.37,1.25 -2.52,0.96 -2.60,0.65 -2.68,0.33 -2.68,0.00 -2.68,-0.31 -2.60,-0.63 -2.52,-0.94 -2.37,-1.23 -2.22,-1.52 -2.01,-1.77 -1.79,-2.01 -1.53,-2.20 -1.26,-2.38 -0.95,-2.50 -0.65,-2.62 -0.65,-2.62 L -0.65,-2.62 Z"></path></g><g transform="translate(149.0475899832586 51.904754638671875) rotate(0 27.142857142857224 17.14285714285711)" stroke="none"><path fill="#000000" d="M 3.48,-0.40 Q 3.48,-0.40 4.51,4.18 5.54,8.78 7.43,16.81 9.33,24.84 10.57,28.92 11.81,33.00 13.83,34.87 15.84,36.75 17.60,35.53 19.36,34.32 21.01,32.06 22.66,29.81 25.27,24.17 27.88,18.53 29.35,15.17 30.82,11.82 32.51,6.98 34.21,2.15 34.93,-0.17 35.65,-2.49 36.57,-4.79 37.50,-7.10 40.15,-9.78 42.81,-12.47 44.76,-11.56 46.72,-10.64 47.74,-6.29 48.77,-1.93 49.23,2.89 49.69,7.72 49.88,10.05 50.06,12.38 50.89,14.77 51.72,17.16 53.27,19.22 54.82,21.28 55.26,23.27 55.70,25.26 55.93,25.62 56.16,25.98 56.26,26.39 56.36,26.80 56.32,27.23 56.29,27.65 56.12,28.04 55.95,28.43 55.67,28.75 55.38,29.06 55.01,29.27 54.64,29.48 54.22,29.56 53.80,29.64 53.38,29.58 52.96,29.52 52.58,29.33 52.20,29.14 51.90,28.84 51.60,28.54 51.42,28.15 51.23,27.77 51.17,27.35 51.12,26.93 51.20,26.51 51.28,26.10 51.49,25.73 51.70,25.36 52.02,25.07 52.33,24.79 52.73,24.63 53.12,24.46 53.54,24.43 53.96,24.39 54.38,24.50 54.79,24.60 55.15,24.83 55.50,25.06 55.77,25.39 56.03,25.72 56.18,26.12 56.32,26.52 56.33,26.95 56.34,27.37 56.22,27.78 56.09,28.18 55.84,28.53 55.59,28.87 55.25,29.12 54.90,29.37 54.49,29.49 54.09,29.61 53.66,29.60 53.24,29.59 52.84,29.44 52.44,29.29 52.11,29.02 51.78,28.76 51.78,28.76 51.78,28.76 49.78,28.00 47.78,27.25 45.27,23.61 42.76,19.96 41.79,16.55 40.82,13.14 40.65,10.84 40.48,8.53 40.09,3.74 39.71,-1.04 40.03,-3.86 40.35,-6.67 43.40,-6.51 46.45,-6.34 45.26,-3.13 44.08,0.08 43.33,2.56 42.58,5.04 40.82,10.22 39.05,15.41 37.54,18.88 36.03,22.35 32.91,28.92 29.80,35.48 27.00,38.75 24.20,42.01 20.01,43.95 15.82,45.90 12.50,44.44 9.17,42.98 6.21,39.53 3.25,36.07 1.80,31.47 0.36,26.87 -1.49,18.35 -3.35,9.83 -3.41,5.12 -3.48,0.40 -3.48,-0.01 -3.48,-0.43 -3.37,-0.84 -3.27,-1.25 -3.07,-1.63 -2.88,-2.00 -2.59,-2.31 -2.31,-2.63 -1.96,-2.87 -1.61,-3.11 -1.22,-3.26 -0.82,-3.40 -0.40,-3.45 0.01,-3.50 0.43,-3.45 0.85,-3.40 1.24,-3.25 1.64,-3.10 1.98,-2.85 2.33,-2.61 2.61,-2.29 2.89,-1.98 3.09,-1.60 3.28,-1.23 3.38,-0.82 3.48,-0.40 3.48,-0.40 L 3.48,-0.40 Z"></path></g><g transform="translate(204.28571428571422 35.71428571428555) rotate(0 20 -6.666673932756737)" stroke="none"><path fill="#000000" d="M -0.97,-3.67 Q -0.97,-3.67 3.00,-5.22 6.98,-6.78 9.83,-7.56 12.67,-8.34 17.85,-10.05 23.03,-11.75 25.75,-12.73 28.47,-13.72 31.32,-14.71 34.16,-15.69 36.05,-15.44 37.94,-15.18 38.34,-15.33 38.74,-15.48 39.16,-15.49 39.59,-15.50 39.99,-15.38 40.40,-15.25 40.74,-15.01 41.09,-14.76 41.34,-14.42 41.59,-14.07 41.71,-13.66 41.84,-13.26 41.83,-12.83 41.82,-12.41 41.67,-12.01 41.53,-11.61 41.26,-11.28 41.00,-10.95 40.64,-10.72 40.28,-10.49 39.87,-10.38 39.46,-10.28 39.03,-10.31 38.61,-10.35 38.22,-10.51 37.83,-10.68 37.51,-10.96 37.19,-11.25 36.98,-11.62 36.77,-11.99 36.69,-12.40 36.61,-12.82 36.67,-13.24 36.73,-13.66 36.91,-14.04 37.10,-14.43 37.40,-14.73 37.70,-15.03 38.08,-15.22 38.46,-15.41 38.88,-15.47 39.30,-15.52 39.72,-15.44 40.14,-15.37 40.51,-15.16 40.88,-14.95 41.16,-14.63 41.45,-14.32 41.62,-13.93 41.79,-13.54 41.82,-13.11 41.86,-12.69 41.75,-12.28 41.65,-11.87 41.42,-11.51 41.20,-11.15 40.87,-10.88 40.54,-10.61 40.54,-10.61 40.54,-10.61 38.99,-8.41 37.44,-6.20 34.62,-5.25 31.79,-4.30 28.90,-3.31 26.01,-2.31 20.56,-0.65 15.11,1.00 12.27,1.70 9.43,2.40 5.20,3.03 0.97,3.67 0.52,3.73 0.07,3.79 -0.38,3.75 -0.83,3.70 -1.27,3.55 -1.70,3.39 -2.08,3.14 -2.46,2.89 -2.77,2.55 -3.08,2.21 -3.30,1.81 -3.52,1.41 -3.64,0.97 -3.76,0.52 -3.77,0.07 -3.77,-0.38 -3.67,-0.83 -3.57,-1.27 -3.37,-1.68 -3.16,-2.09 -2.86,-2.44 -2.57,-2.79 -2.20,-3.06 -1.82,-3.32 -1.40,-3.49 -0.97,-3.67 -0.97,-3.67 L -0.97,-3.67 Z"></path></g><g transform="translate(219.52379499162907 10) rotate(0 3.33332606724332 32.38094874790738)" stroke="none"><path fill="#000000" d="M 3.62,-0.49 Q 3.62,-0.49 4.94,5.46 6.25,11.41 6.67,16.59 7.09,21.76 8.18,33.97 9.28,46.17 8.88,51.48 8.49,56.79 8.47,57.21 8.44,57.63 8.28,58.03 8.12,58.42 7.84,58.74 7.57,59.06 7.20,59.28 6.83,59.50 6.42,59.59 6.00,59.67 5.58,59.63 5.16,59.58 4.77,59.39 4.39,59.21 4.08,58.92 3.78,58.62 3.58,58.25 3.39,57.87 3.32,57.45 3.25,57.03 3.33,56.61 3.40,56.19 3.60,55.82 3.80,55.45 4.11,55.16 4.42,54.87 4.81,54.69 5.20,54.51 5.62,54.47 6.04,54.43 6.46,54.52 6.87,54.62 7.23,54.84 7.60,55.06 7.87,55.39 8.14,55.71 8.30,56.11 8.45,56.51 8.47,56.93 8.49,57.35 8.37,57.76 8.26,58.17 8.01,58.52 7.77,58.87 7.43,59.13 7.09,59.38 6.69,59.51 6.29,59.65 5.86,59.64 5.44,59.64 5.03,59.50 4.63,59.36 4.30,59.10 3.96,58.84 3.72,58.49 3.49,58.14 3.38,57.72 3.27,57.31 3.27,57.31 3.27,57.32 1.82,52.20 0.37,47.08 -1.01,34.75 -2.41,22.42 -2.69,17.55 -2.97,12.67 -3.29,6.58 -3.62,0.49 -3.63,0.05 -3.63,-0.38 -3.53,-0.81 -3.43,-1.24 -3.23,-1.64 -3.04,-2.03 -2.75,-2.36 -2.46,-2.70 -2.10,-2.95 -1.74,-3.21 -1.33,-3.37 -0.92,-3.53 -0.49,-3.59 -0.05,-3.65 0.38,-3.61 0.82,-3.56 1.23,-3.41 1.65,-3.26 2.01,-3.01 2.38,-2.77 2.68,-2.44 2.97,-2.12 3.19,-1.73 3.40,-1.34 3.51,-0.92 3.62,-0.49 3.62,-0.49 L 3.62,-0.49 Z"></path></g><g transform="translate(770.9523228236603 290.95236642020086) rotate(0 -1.4285714285713311 20.000021798269984)" stroke="none"><path fill="#000000" d="M 0,3.35 Q 0,3.35 -2.41,4.00 -4.82,4.65 -7.02,5.60 -9.21,6.54 -12.05,9.71 -14.88,12.87 -17.11,18.13 -19.33,23.40 -20.04,27.50 -20.75,31.60 -20.42,34.24 -20.10,36.88 -18.24,38.70 -16.37,40.53 -13.71,41.15 -11.05,41.77 -7.53,41.02 -4.02,40.26 -0.82,38.01 2.36,35.75 5.90,31.72 9.45,27.70 12.14,22.94 14.83,18.18 15.92,14.25 17.02,10.32 17.64,6.55 18.27,2.77 15.54,1.29 12.80,-0.18 9.53,-0.26 6.27,-0.34 4.66,-1.56 3.05,-2.78 2.68,-2.98 2.30,-3.18 1.98,-3.46 1.67,-3.74 1.43,-4.09 1.18,-4.43 1.03,-4.83 0.88,-5.23 0.83,-5.65 0.78,-6.07 0.83,-6.49 0.88,-6.91 1.03,-7.31 1.18,-7.70 1.42,-8.05 1.66,-8.40 1.98,-8.68 2.30,-8.96 2.67,-9.16 3.05,-9.36 3.46,-9.46 3.87,-9.56 4.29,-9.56 4.72,-9.56 5.13,-9.46 5.54,-9.36 4.75,-5.21 3.97,-1.06 3.67,-0.76 3.37,-0.45 2.99,-0.26 2.61,-0.07 2.19,-0.01 1.77,0.04 1.35,-0.03 0.93,-0.11 0.56,-0.31 0.19,-0.52 -0.08,-0.83 -0.37,-1.15 -0.54,-1.54 -0.71,-1.93 -0.75,-2.35 -0.79,-2.77 -0.69,-3.19 -0.59,-3.60 -0.36,-3.96 -0.13,-4.32 0.19,-4.59 0.52,-4.85 0.91,-5.00 1.31,-5.15 1.74,-5.17 2.16,-5.18 2.57,-5.06 2.97,-4.94 3.32,-4.69 3.67,-4.45 3.92,-4.10 4.17,-3.76 4.30,-3.35 4.42,-2.95 4.41,-2.52 4.41,-2.10 4.26,-1.70 4.12,-1.30 3.85,-0.97 3.59,-0.63 3.23,-0.40 2.88,-0.17 2.47,-0.07 2.05,0.03 1.63,0.00 1.21,-0.02 0.81,-0.19 0.42,-0.35 0.10,-0.64 -0.20,-0.92 -0.41,-1.29 -0.63,-1.66 -0.71,-2.07 -0.79,-2.49 -0.74,-2.91 -0.68,-3.33 -0.50,-3.71 -0.31,-4.10 -0.31,-4.10 -0.31,-4.09 1.37,-3.44 3.05,-2.78 2.68,-2.98 2.30,-3.18 1.98,-3.46 1.67,-3.74 1.43,-4.09 1.18,-4.43 1.03,-4.83 0.88,-5.23 0.83,-5.65 0.78,-6.07 0.83,-6.49 0.88,-6.91 1.03,-7.31 1.18,-7.70 1.42,-8.05 1.66,-8.40 1.98,-8.68 2.30,-8.96 2.67,-9.16 3.05,-9.36 3.46,-9.46 3.87,-9.56 4.29,-9.56 4.72,-9.56 5.13,-9.46 5.54,-9.36 7.36,-9.13 9.17,-8.89 11.46,-8.68 13.76,-8.46 18.49,-6.69 23.21,-4.92 24.77,-0.42 26.32,4.08 25.71,8.13 25.11,12.19 24.47,14.88 23.83,17.57 23.04,19.73 22.26,21.89 20.50,25.38 18.75,28.86 17.45,30.80 16.15,32.74 13.62,36.12 11.10,39.51 9.51,40.94 7.93,42.37 3.35,45.44 -1.23,48.50 -6.68,49.54 -12.14,50.57 -17.21,48.96 -22.28,47.34 -25.64,43.25 -29.00,39.16 -29.47,34.97 -29.95,30.78 -29.02,25.56 -28.09,20.35 -26.53,16.03 -24.97,11.72 -23.55,9.43 -22.13,7.14 -19.33,3.76 -16.54,0.38 -14.51,-0.89 -12.49,-2.16 -8.76,-3.41 -5.02,-4.65 -2.51,-4.00 0,-3.35 0.40,-3.30 0.80,-3.26 1.18,-3.11 1.56,-2.97 1.89,-2.74 2.22,-2.51 2.49,-2.21 2.76,-1.90 2.95,-1.54 3.14,-1.19 3.23,-0.79 3.33,-0.40 3.33,0.00 3.33,0.40 3.23,0.79 3.14,1.19 2.95,1.54 2.76,1.90 2.49,2.21 2.22,2.51 1.89,2.74 1.56,2.97 1.18,3.11 0.80,3.26 0.40,3.30 -0.00,3.35 -0.00,3.35 L 0,3.35 Z"></path></g><g transform="translate(805.2380371093745 280.47620500837047) rotate(0 19.047633579798912 10.476161411830333)" stroke="none"><path fill="#000000" d="M 3.03,0.67 Q 3.03,0.67 2.59,5.74 2.15,10.82 1.71,13.36 1.26,15.91 0.82,20.17 0.38,24.43 0.18,26.80 -0.01,29.16 -0.09,31.71 -0.16,34.27 2.59,35.41 5.35,36.55 8.77,33.78 12.19,31.01 13.68,29.27 15.18,27.53 16.96,23.67 18.73,19.81 19.85,17.21 20.98,14.61 22.88,10.00 24.78,5.40 25.52,3.00 26.26,0.61 27.80,-3.07 29.34,-6.75 31.12,-11.53 32.89,-16.31 33.22,-18.77 33.55,-21.23 33.70,-21.68 33.86,-22.13 34.12,-22.53 34.38,-22.93 34.73,-23.26 35.08,-23.59 35.50,-23.82 35.91,-24.05 36.38,-24.18 36.84,-24.31 37.31,-24.32 37.79,-24.33 38.26,-24.23 38.73,-24.13 39.16,-23.92 39.58,-23.71 39.95,-23.40 40.32,-23.09 40.60,-22.71 40.88,-22.32 41.06,-21.88 41.24,-21.44 41.31,-20.96 41.38,-20.49 41.34,-20.02 41.29,-19.54 39.75,-17.75 38.20,-15.95 37.21,-13.22 36.22,-10.48 35.71,-5.35 35.20,-0.22 34.85,2.39 34.51,5.00 35.42,7.77 36.34,10.55 37.62,12.37 38.91,14.20 40.70,15.61 42.49,17.02 42.85,17.24 43.22,17.46 43.49,17.79 43.77,18.11 43.93,18.50 44.08,18.90 44.11,19.32 44.13,19.75 44.02,20.16 43.90,20.57 43.66,20.92 43.43,21.27 43.09,21.53 42.75,21.78 42.35,21.92 41.94,22.06 41.52,22.06 41.09,22.06 40.69,21.92 40.29,21.79 39.95,21.53 39.61,21.27 39.37,20.92 39.14,20.57 39.02,20.16 38.91,19.75 38.93,19.32 38.95,18.90 39.11,18.51 39.27,18.11 39.54,17.79 39.82,17.46 40.18,17.24 40.55,17.02 40.96,16.93 41.38,16.84 41.80,16.89 42.22,16.93 42.61,17.11 42.99,17.29 43.30,17.58 43.61,17.87 43.81,18.25 44.01,18.63 44.08,19.04 44.15,19.46 44.08,19.88 44.01,20.30 43.81,20.68 43.61,21.05 43.30,21.35 42.99,21.64 42.61,21.82 42.22,22.00 41.80,22.04 41.38,22.09 40.96,22.00 40.55,21.90 40.55,21.90 40.55,21.90 36.29,20.91 32.03,19.91 29.77,16.48 27.51,13.04 26.53,8.58 25.54,4.11 25.89,1.31 26.23,-1.49 27.34,-7.83 28.44,-14.17 31.00,-17.70 33.55,-21.23 33.70,-21.68 33.86,-22.13 34.12,-22.53 34.38,-22.93 34.73,-23.26 35.08,-23.59 35.50,-23.82 35.91,-24.05 36.38,-24.18 36.84,-24.31 37.31,-24.32 37.79,-24.33 38.26,-24.23 38.73,-24.13 39.16,-23.92 39.58,-23.71 39.95,-23.40 40.32,-23.09 40.60,-22.71 40.88,-22.32 41.06,-21.88 41.24,-21.44 41.31,-20.97 41.38,-20.49 41.34,-20.02 41.29,-19.54 41.42,-19.45 41.55,-19.37 40.82,-16.45 40.09,-13.53 39.15,-10.86 38.20,-8.19 37.55,-5.95 36.89,-3.71 35.57,-0.30 34.25,3.09 33.41,5.79 32.57,8.48 30.76,13.26 28.94,18.04 27.76,20.79 26.59,23.54 24.23,28.39 21.88,33.25 20.11,35.27 18.33,37.29 14.16,40.91 9.99,44.54 7.71,44.97 5.42,45.40 0.12,44.05 -5.17,42.70 -7.14,38.36 -9.10,34.02 -9.00,31.22 -8.91,28.43 -8.71,25.95 -8.51,23.48 -8.01,18.92 -7.50,14.36 -7.02,11.63 -6.53,8.89 -4.78,4.10 -3.03,-0.67 -2.90,-1.02 -2.78,-1.37 -2.57,-1.69 -2.37,-2.00 -2.09,-2.25 -1.82,-2.51 -1.49,-2.69 -1.16,-2.87 -0.80,-2.97 -0.44,-3.07 -0.07,-3.08 0.30,-3.09 0.66,-3.00 1.03,-2.92 1.36,-2.76 1.70,-2.59 1.99,-2.35 2.27,-2.11 2.49,-1.80 2.71,-1.50 2.85,-1.15 2.99,-0.81 3.05,-0.44 3.10,-0.07 3.06,0.30 3.03,0.67 3.03,0.67 L 3.03,0.67 Z"></path></g><g transform="translate(853.8094656808032 274.7619192940847) rotate(0 20.47620500837047 -12.85714285714289)" stroke="none"><path fill="#000000" d="M -1.89,-2.65 Q -1.89,-2.65 1.48,-6.02 4.86,-9.40 7.56,-11.38 10.26,-13.35 15.07,-16.50 19.89,-19.65 24.75,-22.39 29.62,-25.13 33.77,-26.29 37.93,-27.45 38.31,-27.65 38.69,-27.84 39.11,-27.90 39.53,-27.96 39.95,-27.88 40.37,-27.81 40.74,-27.60 41.11,-27.40 41.40,-27.08 41.68,-26.77 41.85,-26.38 42.03,-25.99 42.06,-25.57 42.10,-25.14 42.00,-24.73 41.90,-24.32 41.68,-23.96 41.45,-23.60 41.12,-23.33 40.79,-23.06 40.40,-22.91 40.00,-22.76 39.57,-22.74 39.15,-22.73 38.74,-22.85 38.34,-22.97 37.99,-23.22 37.64,-23.46 37.39,-23.80 37.14,-24.15 37.01,-24.55 36.88,-24.96 36.89,-25.38 36.90,-25.81 37.04,-26.21 37.19,-26.61 37.45,-26.94 37.71,-27.27 38.07,-27.51 38.42,-27.74 38.84,-27.84 39.25,-27.95 39.67,-27.92 40.10,-27.89 40.49,-27.72 40.88,-27.56 41.20,-27.28 41.52,-27.00 41.73,-26.63 41.94,-26.26 42.02,-25.84 42.11,-25.43 42.05,-25.01 42.00,-24.58 41.81,-24.20 41.63,-23.82 41.33,-23.52 41.03,-23.21 41.03,-23.21 41.03,-23.21 37.74,-19.87 34.45,-16.52 29.83,-13.95 25.21,-11.37 20.58,-8.45 15.96,-5.53 13.21,-3.54 10.47,-1.54 6.18,0.55 1.89,2.65 1.54,2.83 1.20,3.02 0.82,3.12 0.44,3.22 0.05,3.23 -0.34,3.23 -0.72,3.15 -1.10,3.06 -1.45,2.88 -1.80,2.71 -2.10,2.45 -2.40,2.19 -2.63,1.87 -2.85,1.55 -3.00,1.19 -3.15,0.83 -3.20,0.44 -3.25,0.05 -3.21,-0.33 -3.17,-0.72 -3.04,-1.09 -2.90,-1.46 -2.69,-1.79 -2.47,-2.12 -2.18,-2.38 -1.89,-2.65 -1.89,-2.65 L -1.89,-2.65 Z"></path></g><g transform="translate(875.7142857142851 235.71428571428555) rotate(0 -4.7619192940846915 38.095245361328125)" stroke="none"><path fill="#000000" d="M 3.56,0.23 Q 3.56,0.23 3.81,4.37 4.05,8.52 3.45,16.33 2.86,24.15 2.29,28.65 1.73,33.14 0.72,41.32 -0.27,49.50 -1.01,53.64 -1.74,57.78 -2.27,62.11 -2.80,66.45 -2.98,68.82 -3.16,71.19 -4.95,73.50 -6.73,75.80 -6.89,76.19 -7.06,76.59 -7.34,76.90 -7.62,77.22 -7.99,77.44 -8.35,77.65 -8.77,77.73 -9.19,77.82 -9.61,77.76 -10.03,77.71 -10.41,77.52 -10.79,77.34 -11.10,77.04 -11.40,76.74 -11.59,76.36 -11.78,75.98 -11.85,75.56 -11.91,75.14 -11.83,74.72 -11.75,74.31 -11.55,73.93 -11.34,73.56 -11.03,73.28 -10.71,72.99 -10.33,72.82 -9.94,72.65 -9.51,72.61 -9.09,72.57 -8.68,72.67 -8.26,72.77 -7.90,72.99 -7.54,73.22 -7.27,73.55 -7.01,73.88 -6.86,74.28 -6.71,74.67 -6.69,75.10 -6.68,75.52 -6.80,75.93 -6.92,76.34 -7.16,76.68 -7.41,77.03 -7.75,77.28 -8.09,77.53 -8.50,77.66 -8.90,77.79 -9.33,77.78 -9.75,77.77 -10.15,77.63 -10.55,77.49 -10.89,77.22 -11.22,76.96 -11.45,76.61 -11.68,76.25 -11.79,75.84 -11.90,75.43 -11.87,75.00 -11.84,74.58 -11.84,74.58 -11.84,74.58 -12.54,72.37 -13.24,70.16 -12.93,67.66 -12.62,65.16 -11.98,60.60 -11.35,56.05 -10.64,52.15 -9.92,48.25 -8.81,40.10 -7.70,31.95 -7.16,27.64 -6.61,23.34 -5.88,15.62 -5.15,7.90 -4.35,3.83 -3.56,-0.23 -3.48,-0.66 -3.40,-1.08 -3.22,-1.47 -3.04,-1.86 -2.77,-2.20 -2.51,-2.54 -2.17,-2.80 -1.82,-3.06 -1.43,-3.24 -1.04,-3.41 -0.61,-3.49 -0.19,-3.56 0.23,-3.53 0.66,-3.51 1.07,-3.37 1.48,-3.24 1.85,-3.02 2.22,-2.79 2.52,-2.49 2.82,-2.18 3.04,-1.81 3.26,-1.44 3.39,-1.03 3.51,-0.62 3.54,-0.19 3.56,0.23 3.56,0.23 L 3.56,0.23 Z"></path></g><g transform="translate(909.9999999999998 247.1428571428571) rotate(0 -1.9047764369420292 41.42857142857139)" stroke="none"><path fill="#000000" d="M 3.19,-0.30 Q 3.19,-0.30 4.55,5.37 5.91,11.05 4.90,23.81 3.90,36.57 3.19,45.34 2.49,54.12 1.93,62.20 1.37,70.29 0.83,74.19 0.28,78.09 -1.34,79.80 -2.98,81.52 -3.12,81.92 -3.26,82.32 -3.52,82.66 -3.78,83.00 -4.13,83.23 -4.48,83.47 -4.89,83.58 -5.30,83.69 -5.73,83.66 -6.15,83.64 -6.54,83.48 -6.94,83.32 -7.26,83.04 -7.58,82.76 -7.80,82.40 -8.02,82.03 -8.10,81.62 -8.19,81.20 -8.14,80.78 -8.09,80.36 -7.91,79.97 -7.73,79.59 -7.44,79.28 -7.14,78.98 -6.77,78.78 -6.39,78.58 -5.97,78.52 -5.55,78.45 -5.13,78.52 -4.71,78.59 -4.34,78.80 -3.96,79.00 -3.67,79.31 -3.38,79.62 -3.21,80.01 -3.03,80.39 -2.99,80.82 -2.95,81.24 -3.04,81.65 -3.14,82.07 -3.36,82.43 -3.58,82.79 -3.90,83.07 -4.23,83.34 -4.63,83.49 -5.02,83.65 -5.45,83.67 -5.87,83.69 -6.28,83.57 -6.69,83.45 -7.04,83.21 -7.39,82.97 -7.64,82.63 -7.90,82.29 -8.03,81.89 -8.16,81.48 -8.16,81.06 -8.16,80.63 -8.16,80.63 -8.16,80.63 -9.16,78.62 -10.15,76.61 -9.65,73.06 -9.14,69.52 -8.50,61.37 -7.87,53.23 -7.06,44.43 -6.25,35.63 -4.99,23.78 -3.72,11.94 -3.46,6.12 -3.19,0.30 -3.18,-0.08 -3.17,-0.46 -3.07,-0.84 -2.97,-1.21 -2.78,-1.55 -2.59,-1.89 -2.33,-2.17 -2.06,-2.46 -1.74,-2.67 -1.41,-2.88 -1.05,-3.01 -0.68,-3.13 -0.30,-3.17 0.08,-3.21 0.46,-3.15 0.84,-3.09 1.20,-2.95 1.56,-2.80 1.88,-2.57 2.19,-2.34 2.44,-2.05 2.69,-1.75 2.86,-1.40 3.03,-1.06 3.11,-0.68 3.19,-0.30 3.19,-0.30 L 3.19,-0.30 Z"></path></g><g transform="translate(910.9523228236601 257.6190621512276) rotate(0 11.90482003348211 12.857121058872735)" stroke="none"><path fill="#000000" d="M -2.15,-2.87 Q -2.15,-2.87 -0.21,-4.87 1.72,-6.88 6.38,-8.95 11.04,-11.02 13.22,-11.83 15.40,-12.65 18.71,-13.10 22.02,-13.54 24.52,-13.40 27.01,-13.25 29.52,-12.15 32.02,-11.05 34.66,-5.69 37.29,-0.32 36.08,5.94 34.87,12.21 33.31,14.80 31.74,17.39 28.38,20.77 25.02,24.15 23.46,25.64 21.90,27.12 17.10,30.37 12.30,33.61 9.43,35.24 6.57,36.86 2.97,37.91 -0.63,38.97 -2.77,39.20 -4.91,39.43 -7.02,38.20 -9.12,36.96 -9.53,36.85 -9.94,36.74 -10.30,36.50 -10.65,36.26 -10.91,35.93 -11.17,35.59 -11.30,35.19 -11.44,34.79 -11.44,34.36 -11.44,33.94 -11.31,33.53 -11.18,33.13 -10.92,32.79 -10.66,32.45 -10.31,32.21 -9.96,31.97 -9.55,31.86 -9.15,31.74 -8.72,31.76 -8.30,31.78 -7.90,31.94 -7.51,32.09 -7.18,32.37 -6.86,32.64 -6.64,33.01 -6.41,33.37 -6.32,33.78 -6.23,34.20 -6.27,34.62 -6.32,35.04 -6.49,35.43 -6.67,35.82 -6.96,36.13 -7.25,36.44 -7.63,36.64 -8.00,36.84 -8.42,36.91 -8.84,36.98 -9.26,36.91 -9.68,36.84 -10.06,36.65 -10.43,36.45 -10.73,36.14 -11.02,35.83 -11.20,35.45 -11.38,35.06 -11.43,34.64 -11.47,34.22 -11.38,33.80 -11.29,33.39 -11.08,33.02 -10.86,32.66 -10.54,32.38 -10.21,32.11 -9.82,31.95 -9.43,31.79 -9.00,31.76 -8.58,31.74 -8.58,31.74 -8.58,31.74 -6.08,30.29 -3.59,28.84 -1.04,28.09 1.50,27.34 4.11,26.02 6.71,24.70 10.91,22.30 15.11,19.90 16.69,18.42 18.27,16.94 21.00,14.62 23.73,12.29 24.91,10.48 26.08,8.67 27.28,6.42 28.48,4.17 28.13,0.60 27.78,-2.97 25.41,-3.75 23.04,-4.54 18.81,-3.62 14.58,-2.71 10.80,-1.20 7.03,0.30 4.59,1.59 2.15,2.87 1.78,3.09 1.40,3.30 0.98,3.42 0.57,3.54 0.14,3.56 -0.29,3.58 -0.71,3.49 -1.14,3.40 -1.53,3.22 -1.92,3.03 -2.25,2.76 -2.59,2.48 -2.85,2.14 -3.11,1.79 -3.28,1.39 -3.45,0.99 -3.52,0.56 -3.59,0.14 -3.55,-0.29 -3.52,-0.72 -3.38,-1.13 -3.24,-1.54 -3.01,-1.90 -2.78,-2.27 -2.46,-2.57 -2.15,-2.87 -2.15,-2.87 L -2.15,-2.87 Z"></path></g><g transform="translate(961.4285714285713 237.61906215122758) rotate(0 22.380894252231883 3.80950927734375)" stroke="none"><path fill="#000000" d="M 3.07,0.34 Q 3.07,0.34 3.39,5.36 3.71,10.39 3.50,15.34 3.30,20.29 3.19,22.86 3.08,25.43 5.17,27.19 7.25,28.95 10.72,26.16 14.19,23.36 16.68,21.00 19.17,18.64 21.38,14.54 23.59,10.44 25.23,7.40 26.88,4.35 28.58,-1.18 30.27,-6.72 31.35,-9.86 32.44,-13.01 33.17,-16.48 33.89,-19.95 37.14,-21.67 40.38,-23.39 39.12,-20.20 37.85,-17.02 36.90,-11.19 35.94,-5.35 35.72,-2.89 35.49,-0.43 35.44,3.48 35.39,7.41 35.82,11.01 36.25,14.61 39.96,12.55 43.67,10.48 44.03,10.27 44.40,10.06 44.82,9.97 45.23,9.89 45.66,9.94 46.08,10.00 46.46,10.18 46.84,10.37 47.15,10.66 47.45,10.96 47.64,11.34 47.83,11.72 47.89,12.14 47.96,12.56 47.88,12.98 47.80,13.40 47.60,13.77 47.39,14.14 47.08,14.43 46.76,14.71 46.38,14.89 45.99,15.06 45.56,15.10 45.14,15.13 44.73,15.04 44.31,14.94 43.95,14.71 43.59,14.49 43.32,14.16 43.05,13.83 42.90,13.43 42.75,13.03 42.74,12.61 42.72,12.18 42.85,11.78 42.97,11.37 43.21,11.02 43.46,10.67 43.80,10.42 44.14,10.17 44.55,10.04 44.95,9.91 45.38,9.92 45.80,9.93 46.20,10.07 46.60,10.22 46.94,10.48 47.27,10.74 47.50,11.10 47.73,11.46 47.84,11.87 47.95,12.28 47.91,12.70 47.88,13.13 47.72,13.52 47.56,13.91 47.27,14.23 46.99,14.55 46.99,14.55 46.99,14.55 43.62,18.30 40.25,22.05 37.82,22.35 35.39,22.65 32.77,21.85 30.15,21.05 28.54,18.98 26.94,16.90 26.39,12.04 25.84,7.17 26.00,2.93 26.16,-1.30 26.40,-3.88 26.64,-6.47 27.35,-11.58 28.06,-16.69 28.84,-18.85 29.61,-21.02 31.47,-24.26 33.33,-27.50 37.18,-27.46 41.03,-27.42 41.56,-22.91 42.08,-18.40 41.38,-14.33 40.68,-10.25 39.69,-7.22 38.70,-4.19 36.81,2.19 34.92,8.59 33.29,11.72 31.65,14.86 28.71,20.15 25.77,25.44 22.60,28.42 19.42,31.40 13.41,34.73 7.40,38.06 3.06,36.89 -1.26,35.71 -2.66,33.89 -4.05,32.06 -5.32,28.82 -6.60,25.57 -6.51,22.71 -6.42,19.84 -6.16,14.58 -5.90,9.32 -4.48,4.49 -3.07,-0.34 -2.98,-0.70 -2.90,-1.06 -2.73,-1.39 -2.56,-1.72 -2.31,-2.01 -2.07,-2.29 -1.76,-2.50 -1.46,-2.72 -1.11,-2.85 -0.77,-2.99 -0.40,-3.04 -0.03,-3.09 0.33,-3.04 0.70,-3.00 1.05,-2.87 1.40,-2.75 1.71,-2.54 2.02,-2.33 2.27,-2.05 2.52,-1.78 2.70,-1.45 2.87,-1.12 2.97,-0.76 3.06,-0.40 3.06,-0.03 3.07,0.34 3.07,0.34 L 3.07,0.34 Z"></path></g><g transform="translate(1017.6190185546873 212.85714285714266) rotate(0 20 -6.190468924386096)" stroke="none"><path fill="#000000" d="M -0.34,-3.46 Q -0.34,-3.46 2.33,-4.28 5.01,-5.09 8.13,-5.82 11.25,-6.56 13.38,-7.12 15.51,-7.69 18.45,-8.74 21.38,-9.80 24.82,-11.15 28.26,-12.51 30.38,-13.28 32.50,-14.05 35.18,-14.15 37.87,-14.24 38.27,-14.37 38.68,-14.50 39.10,-14.49 39.53,-14.48 39.93,-14.34 40.33,-14.20 40.66,-13.94 41.00,-13.68 41.23,-13.32 41.46,-12.97 41.57,-12.55 41.68,-12.14 41.65,-11.72 41.62,-11.30 41.46,-10.90 41.29,-10.51 41.01,-10.19 40.73,-9.87 40.36,-9.66 40.00,-9.44 39.58,-9.36 39.16,-9.28 38.74,-9.33 38.32,-9.38 37.94,-9.56 37.55,-9.75 37.25,-10.05 36.95,-10.34 36.75,-10.72 36.56,-11.10 36.50,-11.52 36.44,-11.94 36.51,-12.36 36.59,-12.78 36.79,-13.15 37.00,-13.52 37.31,-13.81 37.62,-14.10 38.01,-14.27 38.40,-14.44 38.82,-14.48 39.25,-14.52 39.66,-14.42 40.07,-14.32 40.43,-14.10 40.79,-13.87 41.06,-13.55 41.33,-13.22 41.48,-12.82 41.64,-12.42 41.65,-12.00 41.67,-11.57 41.55,-11.17 41.43,-10.76 41.18,-10.41 40.94,-10.06 40.60,-9.81 40.26,-9.56 40.26,-9.56 40.26,-9.56 38.71,-7.49 37.16,-5.42 34.43,-4.16 31.70,-2.91 28.12,-1.65 24.54,-0.40 21.19,0.65 17.84,1.71 15.47,2.26 13.11,2.80 9.52,3.40 5.93,4.00 3.13,3.73 0.34,3.46 -0.07,3.45 -0.49,3.44 -0.89,3.33 -1.30,3.22 -1.67,3.02 -2.03,2.82 -2.34,2.53 -2.65,2.25 -2.88,1.90 -3.11,1.55 -3.25,1.15 -3.39,0.76 -3.43,0.34 -3.47,-0.07 -3.42,-0.48 -3.36,-0.90 -3.20,-1.29 -3.04,-1.68 -2.80,-2.02 -2.55,-2.36 -2.23,-2.63 -1.91,-2.90 -1.54,-3.09 -1.16,-3.27 -0.75,-3.37 -0.34,-3.46 -0.34,-3.46 L -0.34,-3.46 Z"></path></g><g transform="translate(1029.9999999999998 190.95236642020086) rotate(0 16.19044712611617 37.14287894112715)" stroke="none"><path fill="#000000" d="M 3.36,-0.17 Q 3.36,-0.17 4.23,4.99 5.10,10.17 4.41,16.86 3.72,23.55 3.14,27.67 2.56,31.79 1.81,38.13 1.05,44.48 0.72,47.69 0.39,50.90 0.31,54.06 0.23,57.23 0.64,59.93 1.05,62.64 2.02,65.05 2.99,67.46 5.81,68.64 8.63,69.82 11.21,69.30 13.79,68.78 17.83,65.83 21.88,62.88 24.99,59.85 28.10,56.82 31.29,55.05 34.49,53.28 34.82,53.02 35.16,52.76 35.56,52.62 35.96,52.47 36.38,52.47 36.81,52.46 37.21,52.59 37.62,52.72 37.96,52.97 38.30,53.22 38.55,53.57 38.79,53.92 38.91,54.33 39.03,54.74 39.01,55.16 39.00,55.58 38.84,55.98 38.69,56.38 38.42,56.71 38.15,57.04 37.79,57.26 37.43,57.48 37.02,57.58 36.60,57.68 36.18,57.64 35.76,57.60 35.37,57.43 34.98,57.26 34.67,56.97 34.36,56.68 34.15,56.31 33.95,55.94 33.87,55.52 33.80,55.10 33.86,54.68 33.92,54.26 34.11,53.88 34.31,53.50 34.61,53.21 34.92,52.91 35.30,52.72 35.68,52.54 36.10,52.49 36.52,52.44 36.94,52.52 37.36,52.61 37.72,52.82 38.09,53.03 38.37,53.35 38.65,53.67 38.82,54.06 38.98,54.46 39.01,54.88 39.04,55.30 38.93,55.72 38.82,56.13 38.59,56.48 38.36,56.84 38.36,56.84 38.36,56.84 36.81,60.57 35.26,64.31 31.75,67.35 28.23,70.39 24.64,73.29 21.04,76.19 18.73,77.18 16.43,78.17 11.48,78.77 6.52,79.37 2.84,78.10 -0.83,76.82 -3.26,74.38 -5.70,71.93 -7.00,68.64 -8.31,65.34 -8.82,61.08 -9.33,56.81 -9.13,53.37 -8.92,49.94 -8.58,46.63 -8.24,43.32 -7.41,36.91 -6.58,30.50 -6.01,26.51 -5.45,22.52 -4.73,16.58 -4.00,10.63 -3.68,5.40 -3.36,0.17 -3.34,-0.22 -3.31,-0.63 -3.18,-1.02 -3.06,-1.40 -2.85,-1.75 -2.63,-2.10 -2.34,-2.38 -2.05,-2.67 -1.70,-2.87 -1.36,-3.08 -0.97,-3.20 -0.58,-3.32 -0.17,-3.34 0.23,-3.36 0.62,-3.28 1.02,-3.21 1.39,-3.04 1.76,-2.87 2.08,-2.61 2.40,-2.36 2.65,-2.04 2.90,-1.72 3.06,-1.34 3.22,-0.97 3.29,-0.57 3.36,-0.17 3.36,-0.17 L 3.36,-0.17 Z"></path></g></svg>