<svg version="1.1" xmlns="http://www.w3.org/2000/svg" viewBox="0 0 470.07234958903155 408.5860416521955" width="1410.2170487670946" height="1225.7581249565865">
  <!-- svg-source:excalidraw -->
  
  <defs>
    <style class="style-fonts">
      @font-face {
        font-family: "Virgil";
        src: url("https://excalidraw.com/Virgil.woff2");
      }
      @font-face {
        font-family: "Cascadia";
        src: url("https://excalidraw.com/Cascadia.woff2");
      }
    </style>
  </defs>
  <g transform="translate(139.85661925256136 192.98428731365038) rotate(0 95.20377828090818 14.104261854845845)" stroke="none"><path fill="#000000" d="M -1.59,0.06 Q -1.59,0.06 -1.97,-3.02 -2.35,-6.12 -2.55,-9.18 -2.76,-12.24 -2.99,-14.46 -3.22,-16.67 -3.31,-17.78 -3.41,-18.88 -3.58,-20.10 -3.75,-21.33 -3.96,-22.66 -4.17,-23.99 -4.44,-25.86 -4.71,-27.73 -4.84,-29.78 -4.97,-31.83 -4.99,-33.77 -5.02,-35.70 -4.88,-37.94 -4.75,-40.18 -4.54,-41.37 -4.34,-42.55 -3.83,-44.44 -3.32,-46.34 -2.85,-48.06 -2.38,-49.78 -1.80,-51.74 -1.22,-53.71 -0.59,-55.63 0.02,-57.55 0.75,-59.44 1.48,-61.33 2.65,-62.84 3.81,-64.36 4.54,-65.20 5.28,-66.05 6.74,-67.43 8.20,-68.81 9.80,-70.09 11.40,-71.37 13.82,-73.26 16.24,-75.15 20.17,-77.02 24.11,-78.89 26.18,-79.67 28.25,-80.45 31.48,-81.33 34.72,-82.22 36.22,-82.59 37.72,-82.96 39.65,-83.52 41.59,-84.07 43.86,-84.87 46.12,-85.67 48.52,-86.02 50.92,-86.37 53.31,-86.51 55.70,-86.65 58.13,-86.57 60.57,-86.49 61.69,-86.46 62.81,-86.43 64.54,-86.13 66.26,-85.84 68.43,-85.55 70.59,-85.27 72.94,-84.88 75.28,-84.49 77.91,-84.20 80.54,-83.91 83.85,-83.54 87.16,-83.16 89.28,-83.05 91.39,-82.94 93.02,-83.03 94.66,-83.12 98.05,-83.59 101.45,-84.06 103.19,-84.41 104.94,-84.75 106.05,-84.91 107.16,-85.06 108.39,-85.14 109.62,-85.21 111.63,-85.25 113.65,-85.28 115.61,-85.29 117.57,-85.30 119.84,-85.00 122.12,-84.69 123.60,-84.45 125.09,-84.21 127.25,-83.77 129.41,-83.33 130.98,-83.23 132.54,-83.14 135.82,-82.95 139.10,-82.77 140.36,-82.71 141.63,-82.65 143.08,-82.62 144.53,-82.59 147.06,-82.41 149.59,-82.24 151.79,-82.15 154.00,-82.05 155.80,-81.83 157.59,-81.61 159.27,-81.39 160.95,-81.18 162.21,-80.84 163.46,-80.51 165.27,-79.80 167.08,-79.10 169.07,-78.21 171.05,-77.32 172.41,-76.56 173.76,-75.80 174.96,-75.21 176.16,-74.62 177.25,-73.86 178.34,-73.10 179.98,-71.96 181.62,-70.82 182.75,-69.66 183.89,-68.50 184.78,-67.26 185.66,-66.03 186.59,-64.34 187.52,-62.65 188.86,-59.57 190.21,-56.48 191.38,-52.63 192.56,-48.79 193.10,-46.12 193.64,-43.45 193.88,-42.16 194.11,-40.88 194.34,-39.37 194.57,-37.86 194.73,-35.66 194.88,-33.46 195.02,-31.92 195.17,-30.38 195.27,-27.89 195.38,-25.40 195.40,-23.37 195.43,-21.34 195.42,-20.20 195.42,-19.07 195.28,-15.82 195.15,-12.57 194.96,-10.10 194.78,-7.62 194.70,-6.46 194.62,-5.30 194.45,-3.55 194.27,-1.79 193.90,1.00 193.52,3.80 193.35,5.64 193.18,7.49 193.02,9.09 192.86,10.70 192.66,12.57 192.46,14.45 192.34,16.28 192.21,18.11 192.38,19.71 192.55,21.32 192.70,22.65 192.84,23.97 193.05,25.48 193.25,26.99 193.49,28.57 193.73,30.16 193.82,31.22 193.91,32.28 194.08,33.91 194.25,35.53 194.67,38.65 195.08,41.77 195.17,42.95 195.26,44.13 195.43,45.81 195.61,47.50 195.72,50.05 195.83,52.61 195.84,54.11 195.85,55.60 195.86,57.65 195.86,59.70 195.73,61.82 195.60,63.94 195.25,65.89 194.90,67.85 194.41,70.06 193.93,72.28 193.50,73.64 193.08,75.00 192.47,76.59 191.85,78.17 191.34,79.50 190.82,80.83 189.50,83.98 188.19,87.13 187.80,88.26 187.41,89.39 186.81,90.90 186.21,92.40 185.86,93.48 185.51,94.56 185.14,96.45 184.78,98.34 184.20,99.59 183.63,100.83 182.66,102.23 181.70,103.63 180.45,104.91 179.20,106.19 177.00,107.48 174.81,108.78 173.78,109.29 172.75,109.79 170.20,110.47 167.66,111.15 166.65,111.50 165.63,111.86 164.06,112.21 162.48,112.55 161.03,112.81 159.58,113.08 157.79,113.46 156.01,113.83 153.39,114.22 150.78,114.61 149.32,114.83 147.85,115.05 146.16,115.16 144.47,115.27 142.26,115.32 140.05,115.37 137.31,115.40 134.58,115.44 130.48,115.31 126.38,115.19 124.76,115.13 123.14,115.07 120.72,115.05 118.30,115.03 117.13,115.02 115.96,115.00 114.11,115.01 112.27,115.02 110.13,115.02 108.00,115.02 106.82,115.03 105.64,115.03 103.56,114.89 101.48,114.75 100.39,114.70 99.30,114.64 97.79,114.63 96.28,114.61 94.49,114.60 92.69,114.58 91.32,114.59 89.94,114.59 87.70,114.60 85.46,114.61 81.78,114.62 78.10,114.63 76.73,114.63 75.36,114.62 73.83,114.62 72.30,114.62 70.38,114.62 68.45,114.61 67.28,114.61 66.12,114.60 64.95,114.59 63.78,114.57 62.55,114.56 61.33,114.55 59.79,114.55 58.26,114.55 56.62,114.37 54.98,114.18 53.63,114.03 52.27,113.88 50.40,113.61 48.54,113.34 47.30,113.12 46.06,112.91 44.61,112.70 43.15,112.49 41.22,112.26 39.28,112.03 37.84,111.79 36.39,111.54 34.96,111.41 33.54,111.29 32.36,111.06 31.19,110.84 29.59,110.52 27.99,110.20 26.16,109.69 24.33,109.18 23.28,108.74 22.23,108.31 20.21,107.41 18.20,106.52 16.85,105.73 15.51,104.93 13.76,103.65 12.02,102.38 10.80,101.38 9.58,100.39 8.56,99.51 7.54,98.63 5.98,97.05 4.41,95.46 3.64,94.13 2.86,92.80 2.20,90.93 1.54,89.05 1.40,87.61 1.25,86.18 1.08,84.91 0.92,83.65 0.70,82.46 0.49,81.26 0.24,79.65 -0.01,78.05 -0.14,76.60 -0.27,75.16 -0.29,74.09 -0.31,73.02 -0.50,71.61 -0.68,70.20 -0.72,68.91 -0.75,67.62 -0.76,65.98 -0.78,64.34 -0.79,62.54 -0.80,60.73 -0.99,59.15 -1.17,57.56 -1.21,55.64 -1.25,53.72 -1.45,52.02 -1.64,50.31 -1.80,49.03 -1.95,47.74 -2.06,46.48 -2.17,45.21 -2.37,44.05 -2.57,42.89 -2.61,41.56 -2.66,40.22 -2.86,38.50 -3.07,36.78 -3.11,35.42 -3.14,34.07 -3.15,32.86 -3.15,31.65 -3.16,30.25 -3.17,28.86 -3.17,27.72 -3.17,26.59 -3.17,25.30 -3.17,24.02 -3.18,22.44 -3.19,20.86 -3.19,19.49 -3.19,18.13 -3.02,16.15 -2.85,14.17 -2.67,13.08 -2.49,11.99 -2.27,10.82 -2.04,9.65 -1.81,8.48 -1.57,7.31 -1.46,6.18 -1.35,5.06 -1.33,3.42 -1.31,1.79 -1.30,0.28 -1.29,-1.21 -1.69,-4.45 -2.09,-7.68 -1.95,-7.85 -1.82,-8.01 -1.65,-8.13 -1.47,-8.25 -1.26,-8.30 -1.06,-8.35 -0.84,-8.34 -0.63,-8.33 -0.44,-8.24 -0.24,-8.16 -0.08,-8.02 0.07,-7.88 0.18,-7.70 0.28,-7.51 0.32,-7.31 0.37,-7.10 0.34,-6.89 0.31,-6.68 0.22,-6.48 0.13,-6.29 -0.01,-6.14 -0.16,-5.99 -0.35,-5.89 -0.54,-5.80 -0.75,-5.76 -0.96,-5.73 -1.17,-5.77 -1.37,-5.81 -1.56,-5.91 -1.75,-6.01 -1.89,-6.17 -2.03,-6.33 -2.12,-6.52 -2.21,-6.72 -2.23,-6.93 -2.25,-7.14 -2.20,-7.35 -2.15,-7.55 -2.03,-7.73 -1.92,-7.91 -1.76,-8.05 -1.59,-8.18 -1.40,-8.26 -1.20,-8.33 -0.98,-8.34 -0.77,-8.35 -0.57,-8.29 -0.36,-8.23 -0.19,-8.11 -0.02,-7.99 0.10,-7.81 0.22,-7.64 0.29,-7.44 0.35,-7.24 0.35,-7.03 0.35,-6.81 0.28,-6.61 0.20,-6.41 0.21,-6.41 0.21,-6.41 1.83,-5.10 3.45,-3.78 3.79,-1.77 4.13,0.23 4.11,1.63 4.10,3.03 4.07,4.21 4.05,5.39 3.89,6.87 3.72,8.35 3.50,9.50 3.28,10.66 3.07,11.79 2.86,12.92 2.66,14.05 2.45,15.18 2.35,16.66 2.25,18.13 2.25,19.49 2.25,20.86 2.24,22.44 2.23,24.02 2.23,25.30 2.23,26.59 2.23,27.72 2.23,28.85 2.22,30.24 2.22,31.63 2.22,32.81 2.23,33.99 2.27,35.21 2.31,36.42 2.50,38.25 2.69,40.08 2.77,41.55 2.85,43.01 3.04,44.49 3.22,45.97 3.44,47.38 3.66,48.79 3.70,50.35 3.75,51.92 3.93,53.77 4.12,55.63 4.19,56.91 4.26,58.19 4.41,59.46 4.56,60.72 4.56,62.51 4.55,64.30 4.57,65.90 4.59,67.50 4.66,69.08 4.74,70.65 4.90,72.73 5.06,74.81 5.14,75.96 5.22,77.10 5.49,78.73 5.76,80.36 5.98,81.64 6.19,82.93 6.45,85.30 6.72,87.67 7.12,88.91 7.52,90.15 8.65,91.93 9.78,93.71 11.22,94.85 12.66,96.00 13.96,97.10 15.25,98.19 16.76,99.31 18.27,100.43 19.43,101.18 20.58,101.92 22.34,102.72 24.10,103.51 25.13,103.90 26.17,104.28 27.60,104.66 29.03,105.05 30.38,105.33 31.74,105.61 32.79,105.82 33.84,106.03 35.55,106.19 37.27,106.34 38.58,106.56 39.90,106.78 41.92,107.01 43.94,107.25 45.44,107.48 46.93,107.72 48.17,107.92 49.42,108.12 51.17,108.35 52.93,108.58 55.59,108.90 58.26,109.23 59.79,109.23 61.33,109.23 62.55,109.22 63.78,109.21 64.95,109.19 66.12,109.18 67.28,109.17 68.45,109.16 70.38,109.16 72.30,109.16 73.83,109.16 75.36,109.15 76.73,109.15 78.10,109.15 81.78,109.16 85.46,109.16 87.71,109.18 89.95,109.20 91.33,109.20 92.71,109.21 94.54,109.22 96.36,109.24 97.97,109.27 99.57,109.31 100.71,109.37 101.85,109.42 103.74,109.56 105.64,109.69 106.82,109.70 108.00,109.70 110.14,109.71 112.28,109.71 114.14,109.73 116.00,109.75 117.18,109.75 118.36,109.75 120.84,109.78 123.32,109.81 124.96,109.87 126.60,109.92 130.58,110.06 134.55,110.20 137.25,110.19 139.95,110.17 142.05,110.14 144.16,110.11 145.63,110.03 147.10,109.95 148.61,109.73 150.13,109.51 152.54,109.16 154.95,108.82 156.80,108.43 158.64,108.04 160.02,107.78 161.40,107.51 162.66,107.25 163.92,106.99 165.13,106.57 166.34,106.14 169.26,105.17 172.18,104.21 173.82,103.29 175.46,102.37 176.34,101.54 177.22,100.71 178.03,99.58 178.84,98.45 179.35,97.25 179.87,96.05 180.15,94.47 180.44,92.89 180.85,91.66 181.26,90.42 181.82,89.04 182.38,87.65 182.81,86.42 183.24,85.19 184.55,82.04 185.87,78.88 186.39,77.58 186.90,76.27 187.45,74.84 187.99,73.42 188.39,72.14 188.79,70.86 189.24,68.88 189.69,66.90 190.00,65.24 190.31,63.58 190.44,61.64 190.58,59.71 190.57,57.68 190.56,55.65 190.54,54.18 190.52,52.71 190.42,50.38 190.32,48.04 190.15,46.30 189.97,44.55 189.87,43.40 189.77,42.24 189.35,39.23 188.93,36.22 188.77,34.96 188.62,33.70 188.53,32.44 188.45,31.19 188.17,29.44 187.90,27.70 187.70,26.14 187.50,24.58 187.29,22.49 187.08,20.39 186.98,18.23 186.89,16.07 186.97,14.97 187.06,13.86 187.27,12.00 187.47,10.14 187.63,8.68 187.78,7.21 187.98,5.07 188.17,2.93 188.54,0.30 188.92,-2.32 189.08,-4.00 189.25,-5.68 189.33,-6.86 189.42,-8.04 189.62,-10.45 189.82,-12.85 189.95,-15.96 190.08,-19.06 190.07,-20.19 190.07,-21.32 190.06,-23.31 190.05,-25.30 189.97,-27.59 189.88,-29.88 189.72,-31.58 189.56,-33.29 189.44,-35.16 189.31,-37.03 189.08,-38.48 188.85,-39.93 188.63,-41.16 188.41,-42.39 187.89,-45.00 187.37,-47.61 186.87,-50.02 186.37,-52.44 185.82,-53.54 185.27,-54.65 184.11,-57.37 182.96,-60.10 182.19,-61.54 181.42,-62.98 180.79,-63.93 180.16,-64.88 179.33,-65.79 178.50,-66.69 177.64,-67.35 176.78,-68.00 175.33,-69.00 173.89,-70.01 172.73,-70.57 171.57,-71.14 170.29,-71.84 169.02,-72.54 167.11,-73.35 165.19,-74.15 163.89,-74.62 162.59,-75.09 161.45,-75.57 160.30,-76.04 158.79,-76.29 157.28,-76.53 155.59,-76.72 153.90,-76.92 151.53,-77.00 149.16,-77.07 146.80,-77.20 144.44,-77.32 142.91,-77.34 141.38,-77.36 140.10,-77.42 138.82,-77.48 136.19,-77.59 133.55,-77.69 132.10,-77.74 130.65,-77.80 129.42,-78.09 128.19,-78.39 126.23,-78.79 124.27,-79.19 122.70,-79.45 121.13,-79.71 119.35,-79.94 117.57,-80.17 115.63,-80.17 113.69,-80.16 111.80,-80.12 109.92,-80.08 107.93,-79.87 105.95,-79.66 104.08,-79.29 102.20,-78.91 97.73,-78.47 93.26,-78.04 92.18,-78.13 91.11,-78.22 88.83,-78.37 86.55,-78.52 83.32,-78.91 80.10,-79.31 77.24,-79.66 74.39,-80.01 72.20,-80.39 70.00,-80.76 67.73,-81.09 65.46,-81.42 64.06,-81.69 62.67,-81.97 61.54,-82.00 60.42,-82.04 58.19,-82.11 55.96,-82.19 53.75,-82.06 51.54,-81.94 49.47,-81.65 47.40,-81.36 46.10,-80.98 44.80,-80.61 43.81,-80.18 42.82,-79.75 40.81,-79.19 38.79,-78.62 37.34,-78.26 35.90,-77.91 32.85,-77.09 29.80,-76.26 27.89,-75.56 25.98,-74.86 22.46,-73.25 18.94,-71.63 16.55,-69.78 14.15,-67.92 12.69,-66.75 11.22,-65.58 9.24,-63.59 7.27,-61.60 6.39,-60.55 5.52,-59.50 4.87,-57.78 4.22,-56.06 3.60,-54.16 2.98,-52.27 2.44,-50.43 1.91,-48.58 1.43,-46.88 0.95,-45.18 0.30,-42.55 -0.33,-39.91 -0.45,-37.82 -0.58,-35.73 -0.57,-33.83 -0.57,-31.94 -0.49,-30.19 -0.41,-28.44 -0.16,-26.55 0.09,-24.65 0.30,-23.28 0.50,-21.91 0.68,-20.58 0.86,-19.25 0.95,-18.16 1.04,-17.08 1.24,-14.79 1.45,-12.50 1.63,-9.40 1.81,-6.30 1.70,-3.18 1.59,-0.06 1.57,0.12 1.56,0.31 1.50,0.49 1.44,0.67 1.33,0.84 1.23,1.00 1.09,1.13 0.96,1.27 0.79,1.36 0.62,1.46 0.44,1.51 0.26,1.57 0.06,1.57 -0.12,1.58 -0.31,1.55 -0.49,1.51 -0.67,1.43 -0.84,1.34 -0.99,1.22 -1.14,1.10 -1.26,0.95 -1.37,0.80 -1.45,0.62 -1.52,0.44 -1.55,0.25 -1.59,0.06 -1.59,0.06 L -1.59,0.06 Z"></path></g><g transform="translate(228.4029351494769 62.656671160171754) rotate(0 -0.7279012428953138 18.925732205924305)" stroke="none"><path fill="#444444" d="M 1.45,0.08 Q 1.45,0.08 1.53,3.66 1.61,7.23 1.53,8.94 1.44,10.66 1.40,13.86 1.36,17.06 1.35,18.65 1.33,20.23 1.11,22.47 0.90,24.70 0.81,25.99 0.71,27.29 0.68,29.06 0.64,30.83 0.61,32.85 0.59,34.86 0.22,35.05 -0.14,35.24 -0.16,35.40 -0.18,35.55 -0.23,35.70 -0.29,35.85 -0.38,35.98 -0.47,36.11 -0.59,36.21 -0.71,36.32 -0.85,36.39 -0.99,36.46 -1.15,36.50 -1.30,36.54 -1.46,36.53 -1.62,36.53 -1.77,36.49 -1.92,36.46 -2.06,36.38 -2.20,36.31 -2.32,36.20 -2.44,36.09 -2.53,35.96 -2.62,35.83 -2.67,35.68 -2.73,35.54 -2.75,35.38 -2.76,35.22 -2.73,35.02 -2.70,34.81 -2.60,34.63 -2.50,34.44 -2.34,34.29 -2.19,34.15 -2.00,34.06 -1.80,33.97 -1.59,33.94 -1.38,33.92 -1.17,33.96 -0.97,34.01 -0.78,34.12 -0.60,34.23 -0.46,34.39 -0.33,34.55 -0.25,34.75 -0.17,34.94 -0.16,35.16 -0.14,35.37 -0.20,35.57 -0.26,35.78 -0.38,35.95 -0.49,36.13 -0.66,36.26 -0.83,36.39 -1.03,36.46 -1.23,36.53 -1.45,36.53 -1.66,36.53 -1.86,36.46 -2.06,36.39 -2.23,36.26 -2.40,36.14 -2.52,35.96 -2.64,35.78 -2.70,35.58 -2.76,35.38 -2.74,35.16 -2.73,34.95 -2.66,34.75 -2.58,34.56 -2.44,34.39 -2.30,34.23 -2.12,34.12 -1.94,34.01 -1.73,33.97 -1.52,33.92 -1.31,33.94 -1.10,33.96 -0.91,34.05 -0.72,34.14 -0.56,34.29 -0.41,34.43 -0.31,34.62 -0.21,34.81 -0.17,35.02 -0.14,35.23 -0.14,35.23 -0.14,35.24 -0.16,35.40 -0.18,35.55 -0.23,35.70 -0.29,35.85 -0.38,35.98 -0.47,36.11 -0.59,36.21 -0.71,36.32 -0.85,36.39 -0.99,36.46 -1.15,36.50 -1.30,36.54 -1.46,36.53 -1.62,36.53 -1.77,36.49 -1.92,36.46 -2.06,36.38 -2.20,36.31 -2.32,36.20 -2.44,36.09 -2.53,35.96 -2.62,35.83 -2.67,35.68 -2.73,35.54 -2.75,35.38 -2.76,35.22 -3.12,35.03 -3.48,34.83 -3.46,32.79 -3.44,30.74 -3.40,28.88 -3.35,27.01 -3.26,25.65 -3.17,24.29 -2.95,22.24 -2.74,20.19 -2.72,18.60 -2.71,17.01 -2.67,13.73 -2.63,10.45 -2.54,8.72 -2.45,6.99 -1.95,3.45 -1.45,-0.08 -1.42,-0.25 -1.39,-0.43 -1.32,-0.59 -1.25,-0.75 -1.14,-0.89 -1.03,-1.03 -0.89,-1.14 -0.75,-1.24 -0.59,-1.32 -0.43,-1.39 -0.26,-1.42 -0.09,-1.45 0.08,-1.44 0.26,-1.43 0.42,-1.38 0.59,-1.33 0.74,-1.24 0.89,-1.15 1.02,-1.02 1.14,-0.90 1.24,-0.75 1.33,-0.60 1.38,-0.43 1.43,-0.26 1.44,-0.08 1.45,0.08 1.45,0.08 L 1.45,0.08 Z"></path></g><g transform="translate(229.13086971355506 62.656671160171754) rotate(0 -9.82681672440981 8.007038626284157)" stroke="none"><path fill="#444444" d="M 1.07,1.07 Q 1.07,1.07 -0.98,3.61 -3.05,6.15 -4.51,7.40 -5.97,8.65 -7.62,10.01 -9.27,11.37 -10.16,12.14 -11.04,12.90 -12.56,13.96 -14.09,15.02 -16.93,15.65 -19.77,16.28 -19.90,16.12 -20.03,15.95 -20.10,15.75 -20.17,15.55 -20.18,15.34 -20.18,15.12 -20.11,14.92 -20.05,14.72 -19.92,14.55 -19.80,14.38 -19.62,14.26 -19.45,14.13 -19.24,14.07 -19.04,14.02 -18.83,14.02 -18.62,14.03 -18.42,14.11 -18.22,14.18 -18.05,14.32 -17.89,14.46 -17.78,14.64 -17.67,14.82 -17.62,15.02 -17.57,15.23 -17.59,15.44 -17.61,15.65 -17.70,15.85 -17.78,16.04 -17.93,16.20 -18.07,16.35 -18.26,16.46 -18.44,16.56 -18.65,16.59 -18.86,16.63 -19.07,16.60 -19.28,16.57 -19.47,16.47 -19.66,16.38 -19.81,16.22 -19.96,16.07 -20.05,15.88 -20.14,15.69 -20.17,15.48 -20.19,15.27 -20.15,15.06 -20.11,14.85 -20.00,14.67 -19.89,14.48 -19.73,14.34 -19.57,14.20 -19.38,14.12 -19.18,14.04 -18.97,14.03 -18.76,14.01 -18.55,14.07 -18.34,14.12 -18.17,14.24 -17.99,14.35 -17.99,14.35 -17.99,14.35 -17.30,12.80 -16.61,11.25 -15.27,10.39 -13.93,9.53 -13.00,8.74 -12.07,7.94 -10.45,6.62 -8.82,5.30 -7.48,4.18 -6.15,3.05 -3.61,0.98 -1.07,-1.07 -0.93,-1.19 -0.79,-1.30 -0.62,-1.38 -0.45,-1.45 -0.27,-1.49 -0.09,-1.52 0.09,-1.51 0.27,-1.50 0.45,-1.44 0.62,-1.39 0.78,-1.29 0.94,-1.20 1.07,-1.07 1.20,-0.94 1.29,-0.78 1.39,-0.62 1.44,-0.45 1.50,-0.27 1.51,-0.09 1.52,0.09 1.49,0.27 1.45,0.45 1.38,0.62 1.30,0.79 1.19,0.93 1.07,1.07 1.07,1.07 L 1.07,1.07 Z"></path></g><g transform="translate(226.94713266368626 63.384589063657586) rotate(0 9.098882160331414 7.2791207227974155)" stroke="none"><path fill="#444444" d="M 1.01,-1.01 Q 1.01,-1.01 3.14,0.62 5.26,2.26 8.28,4.65 11.30,7.05 12.83,8.31 14.37,9.58 16.23,11.04 18.09,12.50 18.30,12.55 18.51,12.60 18.69,12.71 18.87,12.81 19.01,12.98 19.15,13.14 19.23,13.34 19.31,13.53 19.32,13.74 19.33,13.96 19.27,14.16 19.22,14.37 19.10,14.54 18.98,14.72 18.81,14.85 18.64,14.98 18.44,15.04 18.24,15.11 18.03,15.11 17.81,15.11 17.61,15.04 17.41,14.98 17.24,14.85 17.07,14.72 16.95,14.54 16.83,14.37 16.78,14.16 16.72,13.96 16.73,13.75 16.74,13.54 16.82,13.34 16.90,13.14 17.04,12.98 17.17,12.82 17.35,12.71 17.54,12.60 17.74,12.55 17.95,12.51 18.16,12.53 18.37,12.55 18.57,12.64 18.76,12.73 18.91,12.87 19.07,13.02 19.17,13.21 19.27,13.40 19.30,13.61 19.34,13.82 19.30,14.03 19.27,14.23 19.17,14.42 19.07,14.61 18.92,14.76 18.76,14.90 18.57,14.99 18.38,15.08 18.17,15.10 17.95,15.13 17.95,15.13 17.95,15.13 14.81,14.01 11.67,12.89 10.16,11.63 8.64,10.38 5.45,7.82 2.26,5.26 0.62,3.14 -1.01,1.01 -1.12,0.88 -1.23,0.74 -1.30,0.58 -1.37,0.42 -1.40,0.25 -1.43,0.08 -1.42,-0.08 -1.41,-0.25 -1.36,-0.42 -1.31,-0.59 -1.22,-0.73 -1.13,-0.88 -1.01,-1.01 -0.88,-1.13 -0.73,-1.22 -0.59,-1.31 -0.42,-1.36 -0.25,-1.41 -0.08,-1.42 0.08,-1.43 0.25,-1.40 0.42,-1.37 0.58,-1.30 0.74,-1.23 0.88,-1.12 1.01,-1.01 1.01,-1.01 L 1.01,-1.01 Z"></path></g><g transform="translate(341.2293271785784 208.2391522584876) rotate(0 18.561764923884994 -5.095392003224333)" stroke="none"><path fill="#444444" d="M 0.11,-1.43 Q 0.11,-1.43 5.17,-1.40 10.22,-1.37 12.56,-1.20 14.90,-1.02 18.21,-0.73 21.52,-0.44 23.11,-0.32 24.71,-0.20 26.39,-0.15 28.08,-0.10 29.59,0.15 31.10,0.40 32.41,0.53 33.72,0.65 34.85,0.79 35.99,0.92 36.42,0.62 36.84,0.32 37.10,0.36 37.35,0.40 37.59,0.50 37.83,0.60 38.04,0.75 38.25,0.91 38.42,1.11 38.58,1.31 38.70,1.54 38.81,1.78 38.86,2.03 38.92,2.29 38.91,2.55 38.90,2.81 38.83,3.06 38.76,3.31 38.63,3.53 38.51,3.76 38.33,3.95 38.15,4.14 37.93,4.28 37.71,4.42 37.47,4.50 37.22,4.59 36.96,4.61 36.70,4.63 34.73,2.95 32.75,1.27 30.58,-1.16 28.42,-3.59 27.43,-4.92 26.44,-6.25 25.43,-7.61 24.41,-8.96 23.73,-10.55 23.06,-12.14 22.98,-12.33 22.90,-12.53 22.89,-12.74 22.88,-12.96 22.94,-13.16 23.00,-13.37 23.12,-13.54 23.24,-13.72 23.41,-13.84 23.58,-13.97 23.78,-14.04 23.98,-14.11 24.19,-14.11 24.40,-14.11 24.60,-14.04 24.81,-13.97 24.97,-13.84 25.14,-13.71 25.26,-13.53 25.38,-13.36 25.44,-13.15 25.49,-12.95 25.48,-12.74 25.47,-12.52 25.39,-12.33 25.31,-12.13 25.17,-11.97 25.03,-11.81 24.85,-11.70 24.67,-11.59 24.46,-11.54 24.25,-11.50 24.04,-11.52 23.83,-11.55 23.64,-11.64 23.45,-11.73 23.29,-11.87 23.14,-12.02 23.04,-12.21 22.94,-12.39 22.91,-12.60 22.87,-12.81 22.91,-13.02 22.94,-13.23 23.04,-13.42 23.14,-13.61 23.30,-13.75 23.45,-13.90 23.65,-13.99 23.84,-14.08 24.05,-14.10 24.26,-14.12 24.47,-14.08 24.68,-14.03 24.86,-13.92 25.04,-13.81 25.18,-13.65 25.32,-13.48 25.31,-13.48 25.31,-13.48 26.70,-12.61 28.09,-11.73 29.11,-10.35 30.13,-8.96 30.99,-7.79 31.84,-6.61 34.34,-3.14 36.84,0.32 37.10,0.36 37.35,0.40 37.59,0.50 37.83,0.60 38.04,0.75 38.25,0.91 38.42,1.11 38.58,1.31 38.70,1.54 38.81,1.78 38.86,2.03 38.92,2.29 38.91,2.55 38.90,2.81 38.83,3.06 38.76,3.31 38.63,3.53 38.51,3.76 38.33,3.95 38.15,4.14 37.93,4.28 37.71,4.42 37.47,4.50 37.22,4.59 36.96,4.61 36.70,4.63 36.65,4.74 36.61,4.84 35.01,4.86 33.42,4.87 31.90,4.80 30.37,4.73 29.15,4.52 27.94,4.32 26.16,4.26 24.38,4.21 22.76,4.09 21.13,3.97 17.85,3.69 14.56,3.41 12.21,3.23 9.86,3.04 4.87,2.23 -0.11,1.43 -0.28,1.39 -0.45,1.36 -0.61,1.28 -0.77,1.21 -0.90,1.10 -1.03,0.99 -1.14,0.85 -1.24,0.71 -1.31,0.55 -1.37,0.39 -1.40,0.22 -1.43,0.05 -1.42,-0.11 -1.40,-0.29 -1.35,-0.45 -1.29,-0.61 -1.20,-0.76 -1.10,-0.91 -0.98,-1.03 -0.85,-1.14 -0.70,-1.23 -0.55,-1.32 -0.39,-1.36 -0.22,-1.41 -0.05,-1.42 0.11,-1.43 0.11,-1.43 L 0.11,-1.43 Z"></path></g><g transform="translate(376.1691199764791 211.87872511533078) rotate(0 -7.279079071318847 8.3709809174361)" stroke="none"><path fill="#444444" d="M 0.96,1.09 Q 0.96,1.09 -0.45,2.84 -1.87,4.59 -3.87,7.36 -5.87,10.13 -6.75,11.52 -7.63,12.90 -8.72,14.27 -9.81,15.63 -11.67,16.63 -13.53,17.64 -13.73,17.73 -13.92,17.81 -14.13,17.83 -14.35,17.85 -14.55,17.80 -14.76,17.75 -14.94,17.64 -15.12,17.52 -15.25,17.36 -15.39,17.20 -15.46,17.00 -15.54,16.80 -15.55,16.58 -15.55,16.37 -15.49,16.17 -15.43,15.97 -15.31,15.79 -15.19,15.62 -15.01,15.49 -14.84,15.37 -14.64,15.30 -14.44,15.24 -14.22,15.24 -14.01,15.25 -13.81,15.32 -13.61,15.39 -13.45,15.52 -13.28,15.66 -13.16,15.83 -13.05,16.01 -12.99,16.22 -12.94,16.42 -12.96,16.64 -12.97,16.85 -13.06,17.04 -13.14,17.24 -13.28,17.40 -13.42,17.56 -13.60,17.66 -13.79,17.77 -14.00,17.81 -14.20,17.85 -14.42,17.83 -14.63,17.80 -14.82,17.71 -15.01,17.61 -15.16,17.46 -15.31,17.31 -15.41,17.12 -15.50,16.93 -15.53,16.72 -15.56,16.51 -15.52,16.31 -15.49,16.10 -15.38,15.91 -15.28,15.72 -15.12,15.58 -14.97,15.44 -14.97,15.44 -14.97,15.44 -14.17,14.07 -13.37,12.71 -12.42,11.58 -11.46,10.46 -10.49,8.94 -9.52,7.42 -7.17,4.34 -4.81,1.26 -2.89,0.08 -0.96,-1.09 -0.81,-1.19 -0.67,-1.29 -0.50,-1.35 -0.34,-1.42 -0.16,-1.44 0.00,-1.46 0.18,-1.43 0.35,-1.41 0.52,-1.35 0.68,-1.28 0.83,-1.18 0.97,-1.08 1.09,-0.95 1.20,-0.82 1.28,-0.66 1.36,-0.50 1.41,-0.33 1.45,-0.16 1.45,0.00 1.44,0.18 1.40,0.35 1.36,0.52 1.28,0.68 1.19,0.83 1.07,0.96 0.96,1.09 0.96,1.09 L 0.96,1.09 Z"></path></g><g transform="translate(87.18796147208013 203.1437769158547) rotate(0 15.650093309938029 0.36395062144811163)" stroke="none"><path fill="#444444" d="M 0.12,-1.47 Q 0.12,-1.47 2.66,-1.64 5.20,-1.81 6.66,-1.72 8.12,-1.64 10.38,-1.59 12.64,-1.55 13.82,-1.54 15.01,-1.52 16.55,-1.50 18.09,-1.49 20.58,-1.45 23.06,-1.40 24.88,-1.68 26.71,-1.96 28.78,-1.63 30.85,-1.30 31.06,-1.27 31.27,-1.24 31.46,-1.14 31.65,-1.05 31.80,-0.90 31.95,-0.75 32.04,-0.56 32.14,-0.37 32.17,-0.16 32.19,0.04 32.15,0.25 32.11,0.46 32.01,0.65 31.90,0.83 31.74,0.97 31.59,1.11 31.39,1.20 31.19,1.28 30.98,1.30 30.77,1.31 30.57,1.26 30.36,1.21 30.18,1.10 30.00,0.98 29.87,0.81 29.74,0.65 29.66,0.45 29.59,0.25 29.59,0.04 29.58,-0.17 29.64,-0.37 29.71,-0.57 29.83,-0.74 29.96,-0.92 30.13,-1.04 30.30,-1.16 30.50,-1.22 30.71,-1.29 30.92,-1.28 31.13,-1.27 31.33,-1.20 31.53,-1.13 31.70,-0.99 31.86,-0.86 31.98,-0.68 32.09,-0.50 32.14,-0.29 32.19,-0.09 32.17,0.11 32.15,0.33 32.07,0.52 31.99,0.72 31.84,0.87 31.70,1.03 31.52,1.14 31.33,1.24 31.12,1.28 30.91,1.32 30.91,1.32 30.91,1.32 28.13,1.84 25.34,2.37 24.21,2.61 23.08,2.86 20.58,2.89 18.07,2.92 16.51,2.92 14.95,2.93 13.76,2.91 12.56,2.90 10.21,2.86 7.86,2.83 6.34,2.74 4.83,2.64 2.35,2.06 -0.12,1.47 -0.29,1.44 -0.47,1.40 -0.63,1.32 -0.79,1.25 -0.93,1.13 -1.07,1.02 -1.17,0.88 -1.28,0.73 -1.35,0.57 -1.42,0.40 -1.45,0.23 -1.48,0.05 -1.46,-0.12 -1.45,-0.30 -1.39,-0.46 -1.33,-0.63 -1.24,-0.79 -1.14,-0.94 -1.01,-1.06 -0.88,-1.18 -0.73,-1.27 -0.57,-1.36 -0.40,-1.41 -0.23,-1.46 -0.05,-1.47 0.12,-1.47 0.12,-1.47 L 0.12,-1.47 Z"></path></g><g transform="translate(89.37169852194938 202.41584235177652) rotate(0 6.915145110462618 -7.643079674540786)" stroke="none"><path fill="#444444" d="M -1.22,-1.12 Q -1.22,-1.12 0.92,-3.77 3.07,-6.42 4.86,-8.51 6.65,-10.60 7.64,-11.72 8.63,-12.84 10.42,-14.17 12.22,-15.50 12.39,-15.62 12.56,-15.75 12.76,-15.82 12.96,-15.89 13.17,-15.89 13.38,-15.89 13.59,-15.82 13.79,-15.75 13.96,-15.62 14.12,-15.49 14.24,-15.32 14.36,-15.14 14.42,-14.94 14.47,-14.73 14.46,-14.52 14.45,-14.31 14.37,-14.11 14.29,-13.91 14.16,-13.75 14.02,-13.59 13.83,-13.48 13.65,-13.37 13.44,-13.32 13.24,-13.28 13.03,-13.30 12.81,-13.33 12.62,-13.42 12.43,-13.51 12.28,-13.65 12.12,-13.80 12.02,-13.99 11.92,-14.17 11.89,-14.38 11.86,-14.59 11.89,-14.80 11.93,-15.01 12.03,-15.20 12.13,-15.39 12.28,-15.53 12.43,-15.68 12.63,-15.77 12.82,-15.86 13.03,-15.88 13.24,-15.90 13.45,-15.86 13.66,-15.81 13.84,-15.70 14.02,-15.59 14.16,-15.43 14.30,-15.27 14.37,-15.07 14.45,-14.87 14.46,-14.66 14.47,-14.45 14.42,-14.24 14.36,-14.04 14.24,-13.86 14.12,-13.69 14.12,-13.69 14.12,-13.69 12.94,-11.88 11.75,-10.08 10.78,-8.98 9.81,-7.89 7.97,-5.75 6.13,-3.61 3.68,-1.24 1.22,1.12 1.07,1.25 0.92,1.38 0.74,1.47 0.56,1.56 0.36,1.61 0.17,1.65 -0.02,1.65 -0.22,1.64 -0.42,1.59 -0.61,1.54 -0.79,1.45 -0.96,1.35 -1.11,1.21 -1.26,1.08 -1.37,0.91 -1.48,0.74 -1.55,0.55 -1.62,0.37 -1.64,0.17 -1.66,-0.02 -1.63,-0.22 -1.60,-0.42 -1.53,-0.61 -1.46,-0.79 -1.34,-0.96 -1.22,-1.12 -1.22,-1.12 L -1.22,-1.12 Z"></path></g><g transform="translate(90.09956644366184 201.6879411088812) rotate(0 4.731441381776676 9.098898820923296)" stroke="none"><path fill="#444444" d="M 1.27,-0.76 Q 1.27,-0.76 3.46,2.19 5.65,5.14 6.48,6.74 7.32,8.35 8.29,10.00 9.26,11.66 9.77,12.97 10.27,14.27 10.45,15.35 10.62,16.42 10.65,16.57 10.69,16.73 10.69,16.89 10.68,17.05 10.64,17.20 10.60,17.35 10.53,17.49 10.45,17.63 10.34,17.75 10.24,17.86 10.10,17.95 9.97,18.04 9.82,18.09 9.68,18.15 9.52,18.16 9.36,18.18 9.20,18.16 9.05,18.13 8.90,18.08 8.75,18.02 8.62,17.93 8.49,17.83 8.39,17.71 8.29,17.59 8.22,17.45 8.15,17.31 8.34,16.59 8.52,15.87 8.70,15.76 8.89,15.65 9.09,15.60 9.30,15.55 9.51,15.58 9.72,15.60 9.92,15.68 10.11,15.77 10.27,15.92 10.42,16.06 10.52,16.25 10.62,16.44 10.66,16.65 10.70,16.85 10.66,17.06 10.63,17.27 10.53,17.46 10.43,17.65 10.28,17.80 10.13,17.95 9.94,18.04 9.74,18.13 9.53,18.15 9.32,18.18 9.11,18.13 8.91,18.09 8.72,17.98 8.54,17.87 8.40,17.71 8.26,17.55 8.18,17.35 8.10,17.16 8.09,16.95 8.08,16.73 8.13,16.53 8.19,16.32 8.30,16.15 8.42,15.97 8.59,15.84 8.76,15.71 8.96,15.64 9.16,15.57 9.37,15.57 9.58,15.57 9.79,15.63 9.99,15.70 10.16,15.83 10.33,15.95 10.45,16.13 10.57,16.30 10.63,16.51 10.69,16.71 10.68,16.93 10.67,17.14 10.59,17.34 10.51,17.53 10.57,16.98 10.62,16.42 10.65,16.57 10.69,16.73 10.69,16.89 10.68,17.05 10.64,17.20 10.60,17.35 10.53,17.49 10.45,17.63 10.34,17.75 10.24,17.86 10.10,17.95 9.97,18.04 9.82,18.09 9.68,18.15 9.52,18.16 9.36,18.18 9.20,18.16 9.05,18.13 8.90,18.08 8.75,18.02 8.62,17.93 8.49,17.83 8.39,17.71 8.29,17.59 8.22,17.45 8.15,17.31 6.74,15.59 5.34,13.87 4.37,12.12 3.41,10.37 2.64,8.89 1.87,7.41 0.30,4.08 -1.27,0.76 -1.34,0.59 -1.41,0.43 -1.44,0.26 -1.48,0.08 -1.46,-0.09 -1.45,-0.27 -1.40,-0.44 -1.35,-0.61 -1.25,-0.76 -1.16,-0.91 -1.03,-1.04 -0.91,-1.17 -0.75,-1.26 -0.60,-1.35 -0.43,-1.40 -0.26,-1.45 -0.08,-1.47 0.09,-1.48 0.27,-1.44 0.44,-1.41 0.60,-1.34 0.77,-1.26 0.91,-1.15 1.05,-1.04 1.16,-0.90 1.27,-0.76 1.27,-0.76 L 1.27,-0.76 Z"></path></g><g transform="translate(238.5936858347427 313.0585306521916) rotate(0 -8.007013635396788 18.197814302437564)" stroke="none"><path fill="#444444" d="M 1.45,-0.08 Q 1.45,-0.08 2.08,3.44 2.71,6.98 2.81,8.92 2.90,10.87 2.73,13.90 2.56,16.93 2.49,19.39 2.41,21.85 2.39,23.12 2.36,24.38 2.35,25.53 2.34,26.68 2.33,27.80 2.31,28.92 2.30,30.94 2.29,32.96 2.21,34.48 2.12,35.99 2.02,36.02 1.92,36.05 1.88,36.33 1.85,36.61 1.75,36.88 1.65,37.14 1.49,37.37 1.33,37.60 1.12,37.79 0.90,37.98 0.66,38.11 0.41,38.24 0.13,38.31 -0.13,38.37 -0.41,38.37 -0.70,38.37 -0.97,38.31 -1.24,38.24 -1.49,38.11 -1.74,37.98 -1.95,37.79 -2.17,37.60 -2.33,37.37 -2.49,37.14 -2.59,36.87 -2.69,36.61 -2.72,36.33 -2.75,36.05 -3.81,35.48 -4.87,34.90 -5.63,34.14 -6.39,33.38 -7.81,32.06 -9.22,30.73 -10.01,29.95 -10.81,29.16 -11.90,28.29 -12.99,27.42 -14.07,26.65 -15.15,25.88 -16.17,24.50 -17.19,23.13 -17.34,22.98 -17.49,22.83 -17.58,22.64 -17.68,22.45 -17.71,22.24 -17.73,22.02 -17.70,21.82 -17.66,21.61 -17.55,21.42 -17.45,21.24 -17.29,21.09 -17.13,20.95 -16.94,20.87 -16.74,20.78 -16.53,20.77 -16.32,20.75 -16.11,20.80 -15.91,20.85 -15.73,20.96 -15.55,21.08 -15.41,21.24 -15.28,21.41 -15.21,21.61 -15.13,21.81 -15.13,22.02 -15.12,22.23 -15.18,22.44 -15.24,22.64 -15.37,22.81 -15.49,22.98 -15.66,23.11 -15.84,23.23 -16.04,23.30 -16.24,23.36 -16.45,23.35 -16.67,23.35 -16.87,23.28 -17.07,23.20 -17.23,23.07 -17.40,22.94 -17.51,22.76 -17.63,22.58 -17.68,22.37 -17.73,22.17 -17.71,21.95 -17.70,21.74 -17.61,21.55 -17.53,21.35 -17.39,21.19 -17.25,21.04 -17.06,20.93 -16.88,20.83 -16.67,20.79 -16.46,20.75 -16.25,20.77 -16.04,20.80 -15.85,20.90 -15.66,20.99 -15.66,20.99 -15.66,20.99 -13.87,21.34 -12.08,21.69 -10.91,22.58 -9.73,23.46 -8.48,24.52 -7.22,25.58 -6.44,26.37 -5.65,27.17 -4.33,28.59 -3.00,30.01 -2.24,30.77 -1.49,31.54 0.21,33.80 1.92,36.05 1.88,36.33 1.85,36.61 1.75,36.88 1.65,37.14 1.49,37.37 1.33,37.60 1.12,37.79 0.91,37.98 0.66,38.11 0.41,38.24 0.13,38.31 -0.13,38.37 -0.41,38.37 -0.70,38.37 -0.97,38.31 -1.24,38.24 -1.49,38.11 -1.74,37.98 -1.95,37.79 -2.16,37.60 -2.33,37.37 -2.49,37.14 -2.59,36.87 -2.69,36.61 -2.72,36.33 -2.75,36.05 -2.44,35.62 -2.12,35.19 -2.20,34.07 -2.29,32.95 -2.29,30.92 -2.30,28.89 -2.30,27.76 -2.30,26.63 -2.29,25.45 -2.27,24.27 -2.23,22.99 -2.20,21.72 -2.13,19.19 -2.05,16.66 -1.88,13.87 -1.71,11.08 -1.79,9.16 -1.88,7.25 -1.66,3.66 -1.45,0.08 -1.44,-0.08 -1.43,-0.26 -1.38,-0.43 -1.33,-0.60 -1.24,-0.75 -1.14,-0.90 -1.02,-1.02 -0.89,-1.15 -0.74,-1.24 -0.59,-1.33 -0.42,-1.38 -0.26,-1.43 -0.08,-1.44 0.09,-1.45 0.26,-1.42 0.43,-1.39 0.59,-1.32 0.75,-1.24 0.89,-1.14 1.03,-1.03 1.14,-0.89 1.25,-0.75 1.32,-0.59 1.39,-0.43 1.42,-0.25 1.45,-0.08 1.45,-0.08 L 1.45,-0.08 Z"></path></g><g transform="translate(238.5936858347427 346.5424876431207) rotate(0 8.007046956580098 -6.551211149606388)" stroke="none"><path fill="#444444" d="M -1.05,-1.05 Q -1.05,-1.05 -0.03,-2.54 0.98,-4.03 2.41,-5.26 3.84,-6.49 5.09,-7.46 6.34,-8.43 7.75,-9.39 9.17,-10.36 10.31,-11.12 11.45,-11.88 13.10,-12.68 14.74,-13.48 14.86,-13.66 14.98,-13.84 15.15,-13.96 15.32,-14.09 15.52,-14.16 15.72,-14.23 15.93,-14.23 16.15,-14.23 16.35,-14.16 16.55,-14.09 16.72,-13.97 16.89,-13.84 17.01,-13.66 17.13,-13.49 17.18,-13.28 17.24,-13.08 17.23,-12.86 17.22,-12.65 17.14,-12.45 17.06,-12.26 16.92,-12.09 16.78,-11.93 16.60,-11.82 16.42,-11.71 16.21,-11.67 16.00,-11.62 15.79,-11.64 15.58,-11.67 15.39,-11.76 15.20,-11.85 15.04,-11.99 14.89,-12.14 14.79,-12.33 14.69,-12.51 14.65,-12.72 14.62,-12.93 14.65,-13.14 14.69,-13.35 14.79,-13.54 14.89,-13.73 15.04,-13.87 15.20,-14.02 15.39,-14.11 15.58,-14.20 15.79,-14.22 16.00,-14.24 16.21,-14.20 16.42,-14.15 16.60,-14.04 16.78,-13.93 16.92,-13.77 17.06,-13.61 17.14,-13.41 17.22,-13.22 17.23,-13.00 17.24,-12.79 17.18,-12.59 17.13,-12.38 17.13,-12.38 17.13,-12.38 15.72,-10.39 14.31,-8.40 13.14,-7.62 11.97,-6.83 10.48,-5.86 9.00,-4.88 7.83,-4.03 6.65,-3.17 5.34,-2.08 4.03,-0.98 2.54,0.03 1.05,1.05 0.91,1.16 0.76,1.27 0.60,1.34 0.44,1.41 0.26,1.45 0.08,1.48 -0.08,1.47 -0.26,1.46 -0.43,1.40 -0.61,1.35 -0.76,1.26 -0.91,1.17 -1.04,1.04 -1.17,0.91 -1.26,0.76 -1.35,0.61 -1.40,0.43 -1.46,0.26 -1.47,0.08 -1.48,-0.08 -1.45,-0.26 -1.41,-0.44 -1.34,-0.60 -1.27,-0.76 -1.16,-0.91 -1.05,-1.05 -1.05,-1.05 L -1.05,-1.05 Z"></path></g><g transform="translate(154.8201067020118 42.45356363300198) rotate(0 7.271044015463758 -4.547473508864641e-13)" stroke="none"><path fill="#000000" d="M 0.07,-1.46 Q 0.07,-1.46 2.65,-1.62 5.23,-1.79 6.45,-1.73 7.66,-1.67 9.00,-1.79 10.34,-1.90 12.24,-1.81 14.14,-1.72 14.35,-1.75 14.56,-1.78 14.77,-1.74 14.98,-1.70 15.17,-1.60 15.35,-1.49 15.50,-1.34 15.64,-1.18 15.72,-0.98 15.81,-0.79 15.83,-0.58 15.85,-0.37 15.80,-0.16 15.75,0.04 15.63,0.22 15.52,0.40 15.35,0.53 15.19,0.67 14.99,0.74 14.79,0.81 14.58,0.82 14.37,0.83 14.16,0.77 13.96,0.71 13.79,0.58 13.61,0.46 13.49,0.29 13.36,0.12 13.30,-0.08 13.24,-0.28 13.24,-0.49 13.25,-0.70 13.32,-0.90 13.39,-1.10 13.52,-1.27 13.65,-1.44 13.83,-1.55 14.01,-1.67 14.22,-1.72 14.42,-1.77 14.63,-1.76 14.85,-1.74 15.04,-1.66 15.24,-1.57 15.40,-1.43 15.56,-1.29 15.66,-1.11 15.77,-0.92 15.81,-0.72 15.85,-0.51 15.82,-0.30 15.79,-0.09 15.70,0.10 15.61,0.29 15.46,0.44 15.31,0.59 15.12,0.68 14.93,0.78 14.93,0.78 14.93,0.78 12.79,1.50 10.65,2.23 9.06,2.34 7.47,2.44 6.24,2.38 5.01,2.33 2.46,1.89 -0.07,1.46 -0.25,1.43 -0.42,1.40 -0.58,1.33 -0.74,1.25 -0.88,1.15 -1.02,1.04 -1.13,0.90 -1.24,0.76 -1.32,0.60 -1.39,0.44 -1.42,0.27 -1.46,0.09 -1.45,-0.07 -1.44,-0.25 -1.39,-0.42 -1.34,-0.59 -1.25,-0.74 -1.16,-0.89 -1.03,-1.02 -0.91,-1.14 -0.76,-1.23 -0.61,-1.33 -0.44,-1.38 -0.27,-1.43 -0.09,-1.45 0.07,-1.46 0.07,-1.46 L 0.07,-1.46 Z"></path></g><g transform="translate(182.0278905425589 42.45356363300198) rotate(0 6.801951328558289 0.23455171187379165)" stroke="none"><path fill="#000000" d="M 0,-1.33 Q 0,-1.33 2.02,-1.72 4.04,-2.11 6.38,-2.12 8.73,-2.12 11.51,-1.47 14.28,-0.82 14.49,-0.75 14.69,-0.68 14.86,-0.56 15.02,-0.43 15.14,-0.25 15.26,-0.07 15.32,0.12 15.37,0.33 15.36,0.54 15.35,0.75 15.27,0.95 15.19,1.14 15.05,1.31 14.92,1.47 14.73,1.58 14.55,1.69 14.34,1.73 14.14,1.78 13.92,1.75 13.71,1.73 13.52,1.64 13.33,1.55 13.17,1.40 13.02,1.26 12.92,1.07 12.82,0.88 12.79,0.67 12.75,0.46 12.79,0.25 12.82,0.04 12.92,-0.14 13.02,-0.32 13.18,-0.47 13.33,-0.62 13.53,-0.70 13.72,-0.79 13.93,-0.81 14.14,-0.84 14.35,-0.79 14.56,-0.74 14.74,-0.63 14.92,-0.52 15.06,-0.36 15.20,-0.20 15.27,-0.00 15.35,0.19 15.36,0.40 15.37,0.61 15.32,0.81 15.26,1.02 15.14,1.19 15.02,1.37 14.85,1.50 14.68,1.63 14.48,1.69 14.28,1.76 14.06,1.76 13.85,1.76 13.85,1.76 13.85,1.76 11.29,1.94 8.73,2.12 6.38,2.12 4.04,2.11 2.02,1.72 0,1.33 -0.16,1.31 -0.32,1.30 -0.47,1.24 -0.62,1.18 -0.75,1.09 -0.88,1.00 -0.99,0.88 -1.10,0.76 -1.17,0.61 -1.25,0.47 -1.29,0.31 -1.32,0.16 -1.32,-0.00 -1.32,-0.16 -1.29,-0.31 -1.25,-0.47 -1.17,-0.61 -1.10,-0.76 -0.99,-0.88 -0.88,-1.00 -0.75,-1.09 -0.62,-1.18 -0.47,-1.24 -0.32,-1.30 -0.16,-1.31 0.00,-1.33 0.00,-1.33 L 0,-1.33 Z"></path></g><g transform="translate(208.29748900929553 42.92266705674956) rotate(0 8.209240126117265 0.23454634345307568)" stroke="none"><path fill="#000000" d="M 0.07,-1.33 Q 0.07,-1.33 2.52,-1.61 4.97,-1.88 7.32,-1.83 9.66,-1.77 10.81,-1.75 11.95,-1.73 14.19,-1.28 16.42,-0.84 16.63,-0.80 16.84,-0.77 17.03,-0.67 17.22,-0.57 17.36,-0.41 17.51,-0.26 17.59,-0.06 17.68,0.12 17.70,0.33 17.72,0.54 17.68,0.75 17.63,0.96 17.52,1.14 17.41,1.32 17.25,1.46 17.08,1.59 16.88,1.67 16.69,1.75 16.47,1.76 16.26,1.77 16.06,1.71 15.85,1.65 15.68,1.53 15.50,1.41 15.38,1.24 15.25,1.07 15.18,0.87 15.12,0.67 15.12,0.45 15.12,0.24 15.19,0.04 15.26,-0.15 15.39,-0.32 15.52,-0.49 15.69,-0.60 15.87,-0.72 16.08,-0.78 16.28,-0.83 16.49,-0.82 16.71,-0.81 16.90,-0.73 17.10,-0.65 17.26,-0.51 17.42,-0.37 17.53,-0.19 17.64,-0.00 17.68,0.19 17.73,0.40 17.70,0.61 17.68,0.82 17.59,1.02 17.50,1.21 17.35,1.36 17.20,1.52 17.01,1.61 16.82,1.71 16.61,1.74 16.40,1.78 16.40,1.78 16.40,1.78 14.13,2.19 11.86,2.59 10.71,2.57 9.56,2.54 7.14,2.48 4.73,2.42 2.33,1.88 -0.07,1.33 -0.23,1.30 -0.39,1.27 -0.53,1.21 -0.68,1.14 -0.81,1.04 -0.93,0.94 -1.03,0.82 -1.13,0.69 -1.20,0.55 -1.27,0.40 -1.30,0.24 -1.33,0.08 -1.32,-0.07 -1.31,-0.23 -1.26,-0.38 -1.22,-0.54 -1.13,-0.68 -1.05,-0.81 -0.94,-0.93 -0.82,-1.04 -0.69,-1.13 -0.55,-1.21 -0.40,-1.26 -0.24,-1.31 -0.08,-1.32 0.07,-1.33 0.07,-1.33 L 0.07,-1.33 Z"></path></g><g transform="translate(235.03618016293694 42.92266705674956) rotate(0 6.567394248262417 -0.23455171187379165)" stroke="none"><path fill="#000000" d="M 0,-1.54 Q 0,-1.54 2.83,-1.76 5.66,-1.97 7.40,-1.99 9.15,-2.01 10.44,-1.71 11.74,-1.40 11.92,-1.53 12.09,-1.65 12.29,-1.71 12.50,-1.77 12.71,-1.76 12.92,-1.75 13.12,-1.68 13.32,-1.60 13.48,-1.46 13.65,-1.33 13.76,-1.15 13.87,-0.97 13.92,-0.76 13.97,-0.56 13.95,-0.34 13.93,-0.13 13.85,0.05 13.76,0.25 13.62,0.40 13.47,0.56 13.29,0.66 13.10,0.76 12.89,0.80 12.68,0.84 12.47,0.81 12.26,0.78 12.07,0.68 11.88,0.58 11.73,0.43 11.59,0.28 11.49,0.09 11.40,-0.09 11.37,-0.30 11.35,-0.51 11.39,-0.72 11.43,-0.93 11.54,-1.11 11.65,-1.30 11.81,-1.44 11.97,-1.58 12.16,-1.66 12.36,-1.74 12.57,-1.76 12.78,-1.77 12.99,-1.72 13.19,-1.66 13.37,-1.55 13.55,-1.43 13.68,-1.26 13.81,-1.10 13.88,-0.90 13.95,-0.70 13.96,-0.48 13.96,-0.27 13.90,-0.07 13.83,0.12 13.70,0.29 13.58,0.47 13.58,0.47 13.58,0.46 11.36,1.24 9.15,2.01 7.40,1.99 5.66,1.97 2.83,1.76 0,1.54 -0.18,1.52 -0.37,1.50 -0.54,1.43 -0.71,1.37 -0.87,1.26 -1.02,1.15 -1.15,1.01 -1.27,0.87 -1.36,0.71 -1.44,0.54 -1.49,0.36 -1.53,0.18 -1.53,-0.00 -1.53,-0.18 -1.49,-0.36 -1.44,-0.54 -1.36,-0.71 -1.27,-0.88 -1.15,-1.01 -1.02,-1.15 -0.87,-1.26 -0.71,-1.37 -0.54,-1.43 -0.37,-1.50 -0.18,-1.52 0.00,-1.54 0.00,-1.54 L 0,-1.54 Z"></path></g><g transform="translate(260.8366859427683 43.860863167403295) rotate(0 7.7401474392120235 -0.23455171187379165)" stroke="none"><path fill="#000000" d="M 0,-1.55 Q 0,-1.55 3.64,-1.80 7.28,-2.05 9.23,-2.07 11.18,-2.08 13.20,-1.91 15.22,-1.75 15.43,-1.76 15.64,-1.77 15.85,-1.71 16.05,-1.64 16.22,-1.52 16.40,-1.40 16.52,-1.23 16.65,-1.05 16.71,-0.85 16.78,-0.65 16.77,-0.44 16.77,-0.22 16.69,-0.02 16.62,0.17 16.49,0.33 16.36,0.50 16.18,0.61 16.00,0.73 15.80,0.78 15.59,0.83 15.38,0.82 15.17,0.80 14.97,0.72 14.77,0.64 14.62,0.50 14.46,0.36 14.35,0.17 14.25,-0.00 14.20,-0.21 14.16,-0.42 14.19,-0.63 14.22,-0.84 14.31,-1.03 14.40,-1.22 14.55,-1.37 14.70,-1.53 14.89,-1.62 15.08,-1.72 15.29,-1.75 15.50,-1.78 15.71,-1.74 15.92,-1.70 16.11,-1.60 16.29,-1.49 16.43,-1.34 16.58,-1.18 16.66,-0.98 16.75,-0.79 16.77,-0.58 16.78,-0.37 16.73,-0.16 16.68,0.04 16.57,0.22 16.46,0.40 16.29,0.53 16.13,0.67 15.93,0.74 15.73,0.81 15.73,0.81 15.73,0.81 13.46,1.45 11.18,2.08 9.23,2.07 7.28,2.05 3.64,1.80 0,1.55 -0.18,1.53 -0.37,1.51 -0.54,1.44 -0.72,1.37 -0.87,1.27 -1.03,1.16 -1.15,1.02 -1.28,0.88 -1.36,0.71 -1.45,0.55 -1.50,0.36 -1.54,0.18 -1.54,-0.00 -1.54,-0.18 -1.50,-0.36 -1.45,-0.55 -1.36,-0.71 -1.28,-0.88 -1.15,-1.02 -1.03,-1.16 -0.87,-1.27 -0.72,-1.37 -0.54,-1.44 -0.37,-1.51 -0.18,-1.53 0.00,-1.55 0.00,-1.55 L 0,-1.55 Z"></path></g><g transform="translate(289.92086200462245 42.45356363300198) rotate(0 5.863755217905009 0.23455171187379165)" stroke="none"><path fill="#000000" d="M 0.09,-1.62 Q 0.09,-1.62 2.39,-1.67 4.70,-1.73 5.80,-1.67 6.90,-1.61 9.32,-1.23 11.74,-0.84 11.95,-0.80 12.16,-0.76 12.35,-0.66 12.53,-0.56 12.68,-0.40 12.82,-0.25 12.91,-0.05 12.99,0.13 13.01,0.34 13.03,0.56 12.98,0.76 12.93,0.97 12.82,1.15 12.71,1.33 12.55,1.46 12.38,1.60 12.18,1.68 11.99,1.75 11.77,1.76 11.56,1.77 11.36,1.71 11.15,1.65 10.98,1.53 10.80,1.40 10.68,1.23 10.55,1.06 10.49,0.86 10.42,0.66 10.43,0.44 10.43,0.23 10.50,0.03 10.57,-0.16 10.70,-0.33 10.83,-0.49 11.01,-0.61 11.19,-0.73 11.40,-0.78 11.60,-0.83 11.81,-0.82 12.02,-0.80 12.22,-0.72 12.42,-0.64 12.58,-0.50 12.74,-0.36 12.84,-0.18 12.95,0.00 12.99,0.21 13.03,0.41 13.01,0.62 12.98,0.84 12.89,1.03 12.80,1.22 12.65,1.37 12.50,1.52 12.31,1.62 12.12,1.72 11.91,1.75 11.70,1.78 11.70,1.78 11.70,1.78 9.20,2.08 6.70,2.38 5.58,2.33 4.46,2.27 2.18,1.94 -0.09,1.62 -0.28,1.58 -0.48,1.55 -0.65,1.47 -0.83,1.39 -0.99,1.27 -1.14,1.15 -1.26,0.99 -1.38,0.84 -1.47,0.66 -1.55,0.48 -1.58,0.29 -1.62,0.10 -1.61,-0.09 -1.59,-0.29 -1.54,-0.47 -1.48,-0.66 -1.38,-0.83 -1.28,-1.00 -1.14,-1.13 -1.00,-1.27 -0.83,-1.37 -0.66,-1.48 -0.48,-1.53 -0.29,-1.59 -0.09,-1.61 0.09,-1.62 0.09,-1.62 L 0.09,-1.62 Z"></path></g><g transform="translate(313.3758399288681 41.984460209253484) rotate(0 5.863755217904782 0.7036497672011137)" stroke="none"><path fill="#000000" d="M 0.17,-1.46 Q 0.17,-1.46 2.49,-1.43 4.81,-1.40 6.28,-1.29 7.76,-1.18 9.68,-0.77 11.59,-0.36 11.81,-0.35 12.02,-0.34 12.22,-0.26 12.41,-0.17 12.57,-0.04 12.73,0.09 12.84,0.28 12.95,0.46 12.99,0.67 13.03,0.88 13.01,1.09 12.98,1.30 12.89,1.49 12.80,1.68 12.65,1.83 12.51,1.99 12.32,2.08 12.13,2.18 11.92,2.21 11.71,2.25 11.50,2.21 11.29,2.17 11.10,2.07 10.92,1.97 10.77,1.81 10.63,1.66 10.54,1.46 10.45,1.27 10.43,1.06 10.41,0.85 10.46,0.64 10.51,0.43 10.62,0.25 10.73,0.07 10.89,-0.05 11.06,-0.19 11.26,-0.27 11.45,-0.34 11.67,-0.35 11.88,-0.36 12.08,-0.30 12.29,-0.24 12.46,-0.12 12.64,-0.00 12.76,0.16 12.89,0.33 12.96,0.53 13.02,0.73 13.02,0.95 13.02,1.16 12.95,1.36 12.88,1.56 12.75,1.73 12.62,1.90 12.44,2.01 12.26,2.13 12.06,2.19 11.85,2.24 11.85,2.24 11.85,2.24 9.65,2.48 7.46,2.72 5.91,2.60 4.35,2.48 2.09,1.97 -0.17,1.46 -0.34,1.42 -0.51,1.38 -0.67,1.29 -0.83,1.21 -0.96,1.10 -1.10,0.98 -1.20,0.83 -1.30,0.69 -1.36,0.52 -1.43,0.35 -1.45,0.18 -1.47,0.00 -1.45,-0.17 -1.43,-0.34 -1.37,-0.51 -1.30,-0.68 -1.20,-0.82 -1.10,-0.97 -0.97,-1.09 -0.84,-1.21 -0.68,-1.29 -0.52,-1.37 -0.35,-1.42 -0.18,-1.46 -0.00,-1.46 0.17,-1.46 0.17,-1.46 L 0.17,-1.46 Z"></path></g><g transform="translate(340.5836452431017 43.39175974365571) rotate(0 7.974704519507895 3.2837024925529477)" stroke="none"><path fill="#000000" d="M 0.50,-1.50 Q 0.50,-1.50 2.59,-1.04 4.69,-0.59 5.85,-0.15 7.01,0.27 9.15,1.12 11.28,1.97 12.66,2.59 14.04,3.22 15.28,4.30 16.52,5.38 16.70,5.51 16.87,5.63 16.99,5.80 17.12,5.98 17.18,6.18 17.25,6.38 17.24,6.59 17.24,6.81 17.16,7.01 17.09,7.21 16.96,7.37 16.82,7.54 16.65,7.65 16.47,7.77 16.26,7.82 16.06,7.87 15.84,7.85 15.63,7.84 15.44,7.75 15.24,7.67 15.08,7.53 14.92,7.39 14.82,7.20 14.71,7.02 14.67,6.81 14.63,6.60 14.66,6.39 14.69,6.18 14.78,5.99 14.88,5.80 15.03,5.65 15.17,5.50 15.36,5.40 15.55,5.31 15.77,5.28 15.98,5.25 16.18,5.29 16.39,5.33 16.58,5.43 16.76,5.54 16.91,5.69 17.05,5.85 17.13,6.05 17.22,6.24 17.24,6.45 17.25,6.66 17.20,6.87 17.15,7.08 17.04,7.26 16.92,7.44 16.76,7.57 16.59,7.70 16.40,7.78 16.20,7.85 15.98,7.86 15.77,7.86 15.57,7.80 15.36,7.74 15.36,7.74 15.36,7.74 13.75,7.42 12.14,7.10 10.93,6.46 9.71,5.82 7.65,4.96 5.59,4.10 4.49,3.69 3.39,3.28 1.44,2.39 -0.50,1.50 -0.67,1.42 -0.84,1.34 -0.99,1.22 -1.14,1.10 -1.26,0.94 -1.37,0.79 -1.45,0.61 -1.52,0.44 -1.55,0.25 -1.58,0.06 -1.57,-0.12 -1.55,-0.31 -1.49,-0.49 -1.43,-0.68 -1.33,-0.84 -1.23,-1.00 -1.09,-1.13 -0.95,-1.26 -0.78,-1.36 -0.62,-1.46 -0.43,-1.51 -0.25,-1.56 -0.06,-1.57 0.12,-1.58 0.31,-1.54 0.50,-1.50 0.50,-1.50 L 0.50,-1.50 Z"></path></g><g transform="translate(366.8532222361514 54.18106333196829) rotate(0 4.221898603206682 3.5182488360055686)" stroke="none"><path fill="#000000" d="M 0.88,-1.21 Q 0.88,-1.21 2.53,-0.36 4.18,0.49 5.85,1.93 7.52,3.38 8.41,4.72 9.31,6.05 9.45,6.22 9.58,6.38 9.65,6.58 9.73,6.78 9.73,6.99 9.74,7.20 9.68,7.41 9.62,7.61 9.49,7.78 9.37,7.96 9.20,8.08 9.03,8.21 8.82,8.27 8.62,8.33 8.41,8.33 8.20,8.32 8.00,8.25 7.80,8.18 7.63,8.04 7.46,7.91 7.35,7.73 7.23,7.55 7.18,7.35 7.13,7.14 7.15,6.93 7.16,6.72 7.25,6.52 7.33,6.33 7.47,6.17 7.61,6.01 7.80,5.91 7.98,5.80 8.19,5.76 8.40,5.72 8.61,5.75 8.82,5.77 9.01,5.87 9.20,5.96 9.35,6.11 9.50,6.26 9.60,6.45 9.69,6.64 9.72,6.85 9.75,7.06 9.71,7.27 9.67,7.48 9.57,7.67 9.47,7.85 9.31,7.99 9.15,8.14 8.95,8.22 8.76,8.30 8.55,8.32 8.34,8.34 8.13,8.29 7.92,8.24 7.74,8.13 7.56,8.01 7.57,8.01 7.57,8.01 6.14,7.27 4.71,6.54 3.23,5.18 1.75,3.82 0.43,2.52 -0.88,1.21 -1.01,1.09 -1.15,0.97 -1.25,0.81 -1.34,0.66 -1.40,0.49 -1.46,0.32 -1.48,0.14 -1.50,-0.03 -1.47,-0.21 -1.45,-0.39 -1.38,-0.56 -1.31,-0.73 -1.20,-0.87 -1.10,-1.02 -0.96,-1.14 -0.82,-1.25 -0.66,-1.33 -0.49,-1.42 -0.32,-1.45 -0.14,-1.49 0.03,-1.49 0.21,-1.48 0.39,-1.44 0.56,-1.39 0.72,-1.30 0.88,-1.21 0.88,-1.21 L 0.88,-1.21 Z"></path></g><g transform="translate(383.74081664897767 69.66135821039188) rotate(0 2.110949301603341 3.987346891332436)" stroke="none"><path fill="#000000" d="M 1.24,-0.82 Q 1.24,-0.82 2.30,0.21 3.36,1.26 4.39,4.36 5.43,7.46 5.48,7.67 5.53,7.87 5.51,8.08 5.49,8.30 5.40,8.49 5.32,8.69 5.17,8.84 5.03,9.00 4.85,9.10 4.66,9.21 4.45,9.24 4.24,9.28 4.03,9.25 3.82,9.22 3.63,9.13 3.44,9.03 3.29,8.88 3.14,8.73 3.05,8.54 2.96,8.35 2.93,8.13 2.90,7.92 2.95,7.72 2.99,7.51 3.09,7.32 3.20,7.14 3.36,7.00 3.52,6.86 3.71,6.78 3.91,6.69 4.12,6.68 4.33,6.66 4.54,6.71 4.75,6.77 4.92,6.88 5.10,7.00 5.23,7.17 5.37,7.33 5.44,7.53 5.51,7.73 5.51,7.94 5.52,8.16 5.45,8.36 5.39,8.56 5.26,8.73 5.14,8.91 4.96,9.03 4.79,9.15 4.59,9.21 4.38,9.27 4.17,9.26 3.96,9.26 3.76,9.18 3.56,9.11 3.40,8.97 3.23,8.84 3.12,8.66 3.01,8.48 3.01,8.48 3.01,8.48 1.44,6.03 -0.12,3.58 -0.68,2.20 -1.24,0.82 -1.32,0.66 -1.40,0.50 -1.44,0.33 -1.48,0.15 -1.48,-0.02 -1.48,-0.20 -1.43,-0.37 -1.38,-0.55 -1.30,-0.71 -1.21,-0.86 -1.09,-1.00 -0.97,-1.13 -0.82,-1.23 -0.67,-1.33 -0.50,-1.39 -0.33,-1.45 -0.15,-1.47 0.02,-1.49 0.20,-1.46 0.38,-1.44 0.54,-1.37 0.71,-1.31 0.86,-1.20 1.00,-1.10 1.12,-0.96 1.24,-0.82 1.24,-0.82 L 1.24,-0.82 Z"></path></g><g transform="translate(391.246428481581 86.07984919947012) rotate(0 0.4690926869050145 6.801945960136436)" stroke="none"><path fill="#000000" d="M 1.47,-0.26 Q 1.47,-0.26 1.99,1.17 2.52,2.60 2.67,5.12 2.82,7.63 2.53,10.35 2.25,13.07 2.22,13.28 2.19,13.49 2.10,13.69 2.01,13.88 1.86,14.03 1.72,14.18 1.53,14.28 1.34,14.38 1.13,14.41 0.92,14.44 0.71,14.41 0.50,14.37 0.31,14.27 0.13,14.17 -0.01,14.01 -0.15,13.85 -0.24,13.66 -0.33,13.47 -0.35,13.26 -0.37,13.04 -0.32,12.84 -0.27,12.63 -0.16,12.45 -0.05,12.27 0.11,12.13 0.27,12.00 0.47,11.92 0.66,11.84 0.88,11.83 1.09,11.83 1.29,11.88 1.50,11.94 1.67,12.07 1.85,12.19 1.97,12.36 2.10,12.53 2.17,12.73 2.23,12.93 2.23,13.14 2.23,13.36 2.16,13.56 2.09,13.76 1.96,13.93 1.83,14.09 1.65,14.21 1.47,14.33 1.27,14.38 1.06,14.44 0.85,14.42 0.64,14.41 0.44,14.33 0.24,14.25 0.08,14.11 -0.07,13.97 -0.17,13.79 -0.28,13.60 -0.33,13.39 -0.37,13.19 -0.37,13.19 -0.37,13.19 -0.82,10.51 -1.28,7.83 -1.36,5.57 -1.44,3.32 -1.45,1.79 -1.47,0.26 -1.48,0.08 -1.49,-0.09 -1.45,-0.26 -1.42,-0.44 -1.35,-0.61 -1.27,-0.77 -1.16,-0.91 -1.05,-1.05 -0.91,-1.16 -0.77,-1.27 -0.60,-1.35 -0.44,-1.42 -0.26,-1.45 -0.08,-1.49 0.09,-1.48 0.27,-1.46 0.44,-1.41 0.61,-1.36 0.76,-1.26 0.92,-1.17 1.05,-1.04 1.17,-0.91 1.27,-0.76 1.36,-0.61 1.41,-0.43 1.47,-0.26 1.47,-0.26 L 1.47,-0.26 Z"></path></g><g transform="translate(394.99921292419504 109.06574517365334) rotate(0 0 5.62919813760891)" stroke="none"><path fill="#000000" d="M 1.52,0 Q 1.52,0 1.80,2.15 2.07,4.31 2.08,5.63 2.09,6.95 1.70,9.10 1.31,11.25 1.27,11.46 1.24,11.67 1.14,11.86 1.04,12.05 0.89,12.19 0.73,12.34 0.54,12.43 0.35,12.52 0.14,12.54 -0.07,12.56 -0.27,12.52 -0.48,12.47 -0.66,12.36 -0.85,12.25 -0.98,12.09 -1.12,11.93 -1.20,11.73 -1.28,11.54 -1.29,11.32 -1.30,11.11 -1.24,10.91 -1.19,10.70 -1.07,10.53 -0.95,10.35 -0.78,10.22 -0.61,10.09 -0.41,10.03 -0.21,9.96 0.00,9.96 0.21,9.96 0.41,10.03 0.61,10.09 0.78,10.22 0.95,10.35 1.07,10.53 1.19,10.70 1.24,10.91 1.30,11.11 1.29,11.32 1.28,11.54 1.20,11.73 1.12,11.93 0.98,12.09 0.84,12.25 0.66,12.36 0.48,12.47 0.27,12.52 0.07,12.56 -0.14,12.54 -0.35,12.52 -0.54,12.43 -0.73,12.34 -0.89,12.19 -1.04,12.05 -1.14,11.86 -1.24,11.67 -1.27,11.46 -1.31,11.25 -1.31,11.25 -1.31,11.25 -1.70,9.10 -2.09,6.95 -2.08,5.63 -2.07,4.31 -1.80,2.15 -1.52,0 -1.50,-0.18 -1.48,-0.36 -1.41,-0.53 -1.35,-0.70 -1.24,-0.86 -1.14,-1.01 -1.00,-1.13 -0.86,-1.25 -0.70,-1.34 -0.54,-1.42 -0.36,-1.47 -0.18,-1.51 0.00,-1.51 0.18,-1.51 0.36,-1.47 0.54,-1.42 0.70,-1.34 0.86,-1.25 1.00,-1.13 1.14,-1.01 1.24,-0.86 1.35,-0.70 1.41,-0.53 1.48,-0.36 1.50,-0.18 1.52,0.00 1.52,0.00 L 1.52,0 Z"></path></g><g transform="translate(396.4065124585977 135.80443632729566) rotate(0 -0.23453560660914263 5.863744481061076)" stroke="none"><path fill="#000000" d="M 1.44,0 Q 1.44,0 1.79,1.21 2.14,2.42 2.16,5.49 2.18,8.56 1.50,10.24 0.83,11.91 0.76,12.12 0.70,12.32 0.57,12.49 0.44,12.66 0.27,12.78 0.10,12.91 -0.10,12.97 -0.30,13.03 -0.51,13.02 -0.73,13.01 -0.93,12.93 -1.12,12.86 -1.29,12.72 -1.45,12.59 -1.56,12.41 -1.68,12.23 -1.73,12.02 -1.77,11.81 -1.75,11.60 -1.73,11.39 -1.65,11.20 -1.56,11.00 -1.42,10.85 -1.27,10.69 -1.09,10.59 -0.90,10.48 -0.69,10.45 -0.48,10.41 -0.27,10.44 -0.06,10.47 0.12,10.57 0.30,10.66 0.45,10.82 0.60,10.97 0.69,11.16 0.79,11.35 0.81,11.56 0.84,11.77 0.80,11.98 0.75,12.19 0.65,12.37 0.54,12.56 0.38,12.70 0.22,12.84 0.02,12.92 -0.16,13.00 -0.37,13.02 -0.59,13.03 -0.79,12.98 -1.00,12.92 -1.17,12.81 -1.35,12.69 -1.48,12.52 -1.61,12.36 -1.69,12.16 -1.76,11.95 -1.76,11.74 -1.76,11.53 -1.76,11.53 -1.76,11.53 -1.97,10.04 -2.18,8.55 -2.16,5.49 -2.14,2.42 -1.79,1.21 -1.44,0 -1.42,-0.17 -1.40,-0.34 -1.33,-0.50 -1.27,-0.67 -1.17,-0.81 -1.07,-0.95 -0.94,-1.07 -0.81,-1.18 -0.66,-1.26 -0.51,-1.34 -0.34,-1.39 -0.17,-1.43 0.00,-1.43 0.17,-1.43 0.34,-1.39 0.51,-1.34 0.66,-1.26 0.81,-1.18 0.94,-1.07 1.08,-0.95 1.17,-0.81 1.27,-0.67 1.33,-0.50 1.40,-0.34 1.42,-0.17 1.44,0.00 1.44,0.00 L 1.44,0 Z"></path></g><g transform="translate(396.4065124585977 158.79032156463563) rotate(0 -0.23453560660914263 7.036497672011137)" stroke="none"><path fill="#000000" d="M 1.56,0 Q 1.56,0 1.83,2.69 2.10,5.39 2.10,7.35 2.10,9.30 1.43,11.92 0.75,14.54 0.64,14.73 0.53,14.91 0.37,15.05 0.21,15.19 0.02,15.27 -0.17,15.35 -0.38,15.36 -0.60,15.37 -0.80,15.32 -1.01,15.26 -1.18,15.15 -1.36,15.03 -1.49,14.86 -1.62,14.69 -1.69,14.49 -1.76,14.29 -1.76,14.08 -1.76,13.87 -1.70,13.66 -1.63,13.46 -1.50,13.29 -1.37,13.12 -1.20,13.00 -1.02,12.88 -0.82,12.82 -0.62,12.76 -0.40,12.77 -0.19,12.78 0.00,12.86 0.19,12.94 0.36,13.07 0.52,13.21 0.63,13.39 0.74,13.57 0.79,13.78 0.84,13.99 0.82,14.20 0.79,14.41 0.71,14.60 0.62,14.80 0.47,14.95 0.33,15.11 0.14,15.21 -0.04,15.31 -0.24,15.35 -0.45,15.38 -0.66,15.35 -0.87,15.32 -1.06,15.22 -1.25,15.12 -1.40,14.97 -1.55,14.81 -1.64,14.62 -1.73,14.43 -1.75,14.22 -1.78,14.01 -1.73,13.80 -1.69,13.59 -1.69,13.59 -1.69,13.59 -1.90,11.45 -2.10,9.30 -2.10,7.35 -2.10,5.39 -1.83,2.69 -1.56,0 -1.54,-0.18 -1.51,-0.37 -1.45,-0.55 -1.38,-0.72 -1.27,-0.88 -1.17,-1.03 -1.02,-1.16 -0.88,-1.28 -0.72,-1.37 -0.55,-1.46 -0.37,-1.50 -0.18,-1.55 0.00,-1.55 0.18,-1.55 0.37,-1.50 0.55,-1.46 0.72,-1.37 0.88,-1.28 1.02,-1.16 1.17,-1.03 1.27,-0.88 1.38,-0.72 1.45,-0.55 1.51,-0.37 1.54,-0.18 1.56,0.00 1.56,0.00 L 1.56,0 Z"></path></g><g transform="translate(396.4065124585977 186.93631225267927) rotate(0 0 6.567404985105895)" stroke="none"><path fill="#000000" d="M 1.45,0 Q 1.45,0 1.77,2.29 2.08,4.58 2.08,5.69 2.08,6.80 2.08,8.21 2.09,9.63 1.70,11.15 1.31,12.66 1.27,12.87 1.24,13.08 1.14,13.27 1.04,13.46 0.89,13.60 0.73,13.75 0.54,13.84 0.35,13.93 0.14,13.95 -0.07,13.97 -0.27,13.93 -0.48,13.88 -0.66,13.77 -0.85,13.66 -0.98,13.50 -1.12,13.34 -1.20,13.14 -1.28,12.94 -1.29,12.73 -1.30,12.52 -1.24,12.31 -1.19,12.11 -1.07,11.93 -0.95,11.76 -0.78,11.63 -0.61,11.50 -0.41,11.43 -0.21,11.36 0.00,11.36 0.21,11.36 0.41,11.43 0.61,11.50 0.78,11.63 0.95,11.76 1.07,11.93 1.19,12.11 1.24,12.31 1.30,12.52 1.29,12.73 1.28,12.94 1.20,13.14 1.12,13.34 0.98,13.50 0.84,13.66 0.66,13.77 0.48,13.88 0.27,13.93 0.07,13.97 -0.14,13.95 -0.35,13.93 -0.54,13.84 -0.73,13.75 -0.89,13.60 -1.04,13.46 -1.14,13.27 -1.24,13.08 -1.27,12.87 -1.31,12.66 -1.31,12.66 -1.31,12.66 -1.70,11.15 -2.09,9.63 -2.08,8.21 -2.08,6.80 -2.08,5.69 -2.08,4.58 -1.77,2.29 -1.45,0 -1.43,-0.17 -1.41,-0.34 -1.35,-0.51 -1.29,-0.67 -1.19,-0.82 -1.09,-0.96 -0.95,-1.08 -0.82,-1.19 -0.67,-1.28 -0.51,-1.36 -0.34,-1.40 -0.17,-1.44 0.00,-1.44 0.17,-1.44 0.34,-1.40 0.51,-1.36 0.67,-1.28 0.82,-1.19 0.95,-1.08 1.09,-0.96 1.19,-0.82 1.29,-0.67 1.35,-0.51 1.41,-0.34 1.43,-0.17 1.45,0.00 1.45,0.00 L 1.45,0 Z"></path></g><g transform="translate(398.2829261535917 213.67500340632068) rotate(0 0 6.801951328558516)" stroke="none"><path fill="#000000" d="M 1.45,0 Q 1.45,0 1.76,1.61 2.07,3.23 2.09,4.73 2.10,6.23 2.11,7.54 2.11,8.85 1.71,10.99 1.31,13.13 1.29,13.29 1.27,13.44 1.21,13.59 1.16,13.74 1.07,13.87 0.98,14.00 0.86,14.11 0.74,14.21 0.60,14.28 0.46,14.36 0.31,14.40 0.15,14.43 -0.00,14.43 -0.15,14.43 -0.31,14.40 -0.46,14.36 -0.60,14.28 -0.74,14.21 -0.86,14.11 -0.98,14.00 -1.07,13.87 -1.16,13.74 -1.21,13.59 -1.27,13.44 -1.29,13.29 -1.31,13.13 -1.27,12.92 -1.24,12.71 -1.14,12.52 -1.04,12.33 -0.89,12.19 -0.73,12.04 -0.54,11.95 -0.35,11.86 -0.14,11.84 0.07,11.82 0.27,11.86 0.48,11.91 0.66,12.02 0.85,12.13 0.98,12.29 1.12,12.45 1.20,12.65 1.28,12.85 1.29,13.06 1.30,13.27 1.24,13.48 1.19,13.68 1.07,13.86 0.95,14.03 0.78,14.16 0.61,14.29 0.41,14.36 0.21,14.43 -0.00,14.43 -0.21,14.43 -0.41,14.36 -0.61,14.29 -0.78,14.16 -0.95,14.03 -1.07,13.86 -1.19,13.68 -1.24,13.48 -1.30,13.27 -1.29,13.06 -1.28,12.85 -1.20,12.65 -1.12,12.45 -0.98,12.29 -0.84,12.13 -0.66,12.02 -0.48,11.91 -0.27,11.86 -0.07,11.82 0.14,11.84 0.35,11.86 0.54,11.95 0.73,12.04 0.89,12.19 1.04,12.34 1.14,12.52 1.24,12.71 1.27,12.92 1.31,13.13 1.31,13.13 1.31,13.13 1.29,13.29 1.27,13.44 1.21,13.59 1.16,13.74 1.07,13.87 0.98,14.00 0.86,14.11 0.74,14.21 0.60,14.28 0.46,14.36 0.31,14.40 0.15,14.43 0.00,14.43 -0.15,14.43 -0.31,14.40 -0.46,14.36 -0.60,14.28 -0.74,14.21 -0.86,14.11 -0.98,14.00 -1.07,13.87 -1.16,13.74 -1.21,13.59 -1.27,13.44 -1.29,13.29 -1.31,13.13 -1.71,10.99 -2.11,8.85 -2.11,7.54 -2.10,6.23 -2.09,4.73 -2.07,3.23 -1.76,1.61 -1.45,0 -1.43,-0.17 -1.41,-0.34 -1.35,-0.51 -1.29,-0.67 -1.19,-0.82 -1.09,-0.96 -0.95,-1.08 -0.82,-1.19 -0.67,-1.28 -0.51,-1.36 -0.34,-1.40 -0.17,-1.44 0.00,-1.44 0.17,-1.44 0.34,-1.40 0.51,-1.36 0.67,-1.28 0.82,-1.19 0.95,-1.08 1.09,-0.96 1.19,-0.82 1.29,-0.67 1.35,-0.51 1.41,-0.34 1.43,-0.17 1.45,0.00 1.45,0.00 L 1.45,0 Z"></path></g><g transform="translate(394.99921292419504 240.413694559963) rotate(0 0.4691141605919711 8.209250862960289)" stroke="none"><path fill="#000000" d="M 1.38,0 Q 1.38,0 1.68,2.56 1.99,5.12 1.99,6.75 1.99,8.38 2.12,9.50 2.25,10.62 2.34,11.74 2.42,12.85 2.33,14.61 2.25,16.36 2.22,16.57 2.19,16.78 2.10,16.97 2.01,17.17 1.86,17.32 1.71,17.47 1.52,17.57 1.34,17.66 1.13,17.70 0.92,17.73 0.71,17.69 0.50,17.65 0.31,17.55 0.12,17.45 -0.01,17.29 -0.15,17.14 -0.24,16.94 -0.33,16.75 -0.35,16.54 -0.37,16.32 -0.32,16.12 -0.27,15.91 -0.16,15.73 -0.05,15.55 0.11,15.41 0.27,15.28 0.47,15.20 0.67,15.13 0.88,15.12 1.09,15.11 1.30,15.17 1.50,15.23 1.68,15.35 1.85,15.47 1.98,15.64 2.10,15.81 2.17,16.02 2.23,16.22 2.23,16.43 2.23,16.64 2.16,16.84 2.08,17.04 1.95,17.21 1.82,17.38 1.65,17.50 1.47,17.61 1.26,17.67 1.06,17.72 0.85,17.71 0.63,17.69 0.44,17.61 0.24,17.53 0.08,17.39 -0.07,17.25 -0.18,17.07 -0.28,16.88 -0.33,16.67 -0.37,16.47 -0.37,16.47 -0.37,16.47 -1.04,13.76 -1.71,11.06 -1.85,9.72 -1.99,8.38 -1.99,6.75 -1.99,5.12 -1.68,2.56 -1.38,0 -1.36,-0.16 -1.33,-0.33 -1.28,-0.48 -1.22,-0.64 -1.12,-0.77 -1.03,-0.91 -0.90,-1.02 -0.78,-1.13 -0.63,-1.21 -0.48,-1.29 -0.32,-1.33 -0.16,-1.37 0.00,-1.37 0.16,-1.37 0.32,-1.33 0.48,-1.29 0.63,-1.21 0.78,-1.13 0.90,-1.02 1.03,-0.91 1.12,-0.77 1.22,-0.64 1.28,-0.48 1.34,-0.33 1.36,-0.16 1.38,0.00 1.38,0.00 L 1.38,0 Z"></path></g><g transform="translate(397.34474077978166 270.90519162990586) rotate(0 -0.4691141605919711 7.036508408854388)" stroke="none"><path fill="#000000" d="M 1.33,0 Q 1.33,0 1.68,1.88 2.03,3.77 2.03,5.11 2.04,6.46 2.03,8.00 2.03,9.54 1.02,12.26 0.01,14.97 -0.14,15.10 -0.31,15.23 -0.51,15.29 -0.71,15.36 -0.93,15.36 -1.14,15.36 -1.34,15.30 -1.54,15.23 -1.71,15.10 -1.88,14.98 -2.00,14.80 -2.12,14.62 -2.18,14.42 -2.24,14.22 -2.23,14.00 -2.22,13.79 -2.14,13.59 -2.06,13.40 -1.92,13.23 -1.79,13.07 -1.61,12.96 -1.42,12.85 -1.22,12.80 -1.01,12.76 -0.80,12.78 -0.59,12.80 -0.39,12.89 -0.20,12.98 -0.05,13.12 0.10,13.27 0.20,13.46 0.30,13.64 0.33,13.85 0.37,14.06 0.34,14.27 0.30,14.48 0.20,14.67 0.11,14.86 -0.04,15.00 -0.19,15.15 -0.38,15.24 -0.58,15.33 -0.79,15.36 -1.00,15.38 -1.21,15.33 -1.41,15.29 -1.60,15.18 -1.78,15.07 -1.92,14.91 -2.06,14.75 -2.14,14.55 -2.21,14.36 -2.23,14.14 -2.24,13.93 -2.18,13.73 -2.13,13.52 -2.01,13.35 -1.89,13.17 -1.89,13.17 -1.89,13.17 -1.96,11.36 -2.03,9.54 -2.03,8.00 -2.04,6.46 -2.03,5.11 -2.03,3.77 -1.68,1.88 -1.33,0 -1.31,-0.15 -1.29,-0.31 -1.23,-0.46 -1.17,-0.61 -1.08,-0.75 -0.99,-0.88 -0.87,-0.98 -0.75,-1.09 -0.61,-1.17 -0.47,-1.24 -0.31,-1.28 -0.16,-1.32 0.00,-1.32 0.16,-1.32 0.31,-1.28 0.47,-1.24 0.61,-1.17 0.75,-1.09 0.87,-0.98 0.99,-0.88 1.08,-0.75 1.17,-0.61 1.23,-0.46 1.29,-0.31 1.31,-0.15 1.33,0.00 1.33,0.00 L 1.33,0 Z"></path></g><g transform="translate(395.4683270847868 296.7056759360503) rotate(0 -0.938185373810029 8.443797206413365)" stroke="none"><path fill="#000000" d="M 1.46,-0.13 Q 1.46,-0.13 1.86,1.32 2.25,2.78 2.33,4.27 2.40,5.76 2.31,7.05 2.23,8.34 2.02,10.30 1.81,12.26 1.54,13.38 1.28,14.50 0.03,16.03 -1.22,17.56 -1.35,17.72 -1.49,17.88 -1.67,17.99 -1.86,18.10 -2.06,18.15 -2.27,18.19 -2.48,18.17 -2.69,18.15 -2.89,18.06 -3.08,17.97 -3.23,17.82 -3.39,17.68 -3.49,17.49 -3.59,17.30 -3.62,17.09 -3.65,16.88 -3.62,16.67 -3.58,16.46 -3.48,16.27 -3.38,16.09 -3.23,15.94 -3.08,15.79 -2.88,15.71 -2.69,15.62 -2.48,15.59 -2.27,15.57 -2.06,15.62 -1.85,15.66 -1.67,15.77 -1.49,15.88 -1.35,16.04 -1.21,16.21 -1.14,16.40 -1.06,16.60 -1.05,16.81 -1.04,17.03 -1.09,17.23 -1.15,17.44 -1.27,17.61 -1.39,17.79 -1.56,17.92 -1.73,18.04 -1.93,18.11 -2.13,18.18 -2.34,18.18 -2.55,18.18 -2.76,18.11 -2.96,18.04 -3.13,17.91 -3.30,17.78 -3.41,17.61 -3.53,17.43 -3.59,17.23 -3.65,17.02 -3.63,16.81 -3.62,16.60 -3.54,16.40 -3.46,16.20 -3.46,16.20 -3.46,16.20 -2.95,14.40 -2.43,12.59 -2.22,11.35 -2.01,10.10 -1.82,8.01 -1.63,5.92 -1.67,4.53 -1.71,3.14 -1.59,1.64 -1.46,0.13 -1.46,-0.04 -1.45,-0.22 -1.41,-0.39 -1.36,-0.56 -1.27,-0.71 -1.18,-0.87 -1.06,-1.00 -0.94,-1.13 -0.79,-1.23 -0.64,-1.32 -0.47,-1.38 -0.30,-1.44 -0.13,-1.45 0.04,-1.47 0.22,-1.44 0.39,-1.42 0.56,-1.35 0.72,-1.28 0.86,-1.18 1.01,-1.07 1.12,-0.93 1.23,-0.80 1.31,-0.64 1.39,-0.48 1.43,-0.30 1.46,-0.13 1.46,-0.13 L 1.46,-0.13 Z"></path></g><g transform="translate(391.246428481581 322.5061817158821) rotate(0 -5.160105450703668 8.443797206413365)" stroke="none"><path fill="#000000" d="M 1.16,0.63 Q 1.16,0.63 0.68,2.30 0.20,3.96 -0.39,5.12 -0.98,6.28 -1.90,7.70 -2.82,9.12 -3.54,10.39 -4.26,11.67 -4.80,12.72 -5.34,13.77 -6.07,14.82 -6.80,15.86 -8.07,15.87 -9.34,15.88 -9.45,15.99 -9.57,16.09 -9.71,16.16 -9.85,16.24 -10.01,16.27 -10.16,16.31 -10.32,16.31 -10.48,16.31 -10.63,16.27 -10.79,16.23 -10.93,16.16 -11.07,16.08 -11.18,15.98 -11.30,15.87 -11.39,15.74 -11.48,15.61 -11.54,15.46 -11.59,15.31 -11.61,15.16 -11.63,15.00 -11.61,14.84 -11.59,14.69 -11.53,14.54 -11.48,14.39 -11.38,14.26 -11.29,14.13 -11.45,14.45 -11.61,14.77 -11.54,14.57 -11.47,14.37 -11.33,14.21 -11.20,14.04 -11.03,13.92 -10.85,13.81 -10.64,13.75 -10.44,13.70 -10.23,13.71 -10.01,13.73 -9.82,13.81 -9.62,13.89 -9.46,14.03 -9.30,14.17 -9.19,14.35 -9.09,14.54 -9.05,14.75 -9.00,14.96 -9.03,15.17 -9.06,15.38 -9.15,15.57 -9.24,15.76 -9.39,15.91 -9.54,16.06 -9.73,16.16 -9.91,16.26 -10.13,16.29 -10.34,16.32 -10.54,16.28 -10.75,16.24 -10.94,16.14 -11.13,16.04 -11.27,15.88 -11.41,15.73 -11.50,15.53 -11.59,15.34 -11.61,15.13 -11.63,14.92 -11.58,14.71 -11.53,14.50 -11.42,14.32 -11.30,14.14 -11.14,14.01 -10.97,13.87 -10.78,13.79 -10.58,13.72 -10.37,13.71 -10.15,13.70 -9.95,13.76 -9.75,13.82 -9.57,13.94 -9.40,14.07 -9.27,14.24 -9.15,14.41 -9.08,14.61 -9.02,14.81 -9.18,15.35 -9.34,15.88 -9.45,15.99 -9.57,16.09 -9.71,16.16 -9.85,16.24 -10.01,16.27 -10.16,16.31 -10.32,16.31 -10.48,16.31 -10.63,16.27 -10.79,16.23 -10.93,16.16 -11.07,16.08 -11.18,15.98 -11.30,15.87 -11.39,15.74 -11.48,15.61 -11.54,15.46 -11.59,15.31 -11.61,15.16 -11.63,15.00 -11.61,14.84 -11.59,14.69 -11.53,14.54 -11.48,14.39 -11.38,14.26 -11.29,14.13 -10.13,12.77 -8.97,11.41 -8.34,10.31 -7.71,9.21 -7.07,8.08 -6.43,6.94 -5.56,5.63 -4.70,4.33 -4.07,3.15 -3.44,1.97 -2.30,0.66 -1.16,-0.63 -1.07,-0.76 -0.98,-0.89 -0.86,-1.00 -0.73,-1.10 -0.59,-1.18 -0.45,-1.25 -0.29,-1.28 -0.13,-1.32 0.02,-1.32 0.18,-1.31 0.33,-1.27 0.49,-1.23 0.63,-1.16 0.77,-1.08 0.89,-0.97 1.01,-0.86 1.10,-0.73 1.18,-0.59 1.24,-0.44 1.29,-0.29 1.31,-0.13 1.33,0.02 1.30,0.18 1.28,0.33 1.22,0.48 1.16,0.63 1.16,0.63 L 1.16,0.63 Z"></path></g><g transform="translate(374.8279482293465 345.96115964012733) rotate(0 -5.160126924390397 4.925548370407796)" stroke="none"><path fill="#000000" d="M 1.18,0.59 Q 1.18,0.59 1.00,1.85 0.81,3.11 -0.26,4.44 -1.33,5.77 -2.28,6.47 -3.22,7.18 -4.80,8.51 -6.38,9.84 -8.18,9.89 -9.99,9.95 -10.12,10.03 -10.26,10.11 -10.41,10.16 -10.56,10.20 -10.72,10.21 -10.88,10.22 -11.03,10.19 -11.19,10.16 -11.33,10.09 -11.48,10.02 -11.60,9.93 -11.72,9.83 -11.82,9.70 -11.92,9.58 -11.98,9.43 -12.04,9.29 -12.07,9.13 -12.10,8.97 -12.08,8.82 -12.07,8.66 -12.02,8.51 -11.98,8.36 -11.89,8.22 -11.81,8.09 -11.70,7.98 -11.58,7.87 -11.81,8.57 -12.04,9.28 -12.07,9.07 -12.10,8.86 -12.05,8.65 -12.01,8.44 -11.90,8.26 -11.80,8.07 -11.64,7.93 -11.48,7.79 -11.28,7.71 -11.08,7.63 -10.87,7.61 -10.66,7.60 -10.46,7.65 -10.25,7.71 -10.07,7.83 -9.89,7.94 -9.76,8.11 -9.63,8.28 -9.56,8.48 -9.49,8.68 -9.49,8.89 -9.49,9.10 -9.55,9.30 -9.62,9.51 -9.74,9.68 -9.87,9.85 -10.04,9.97 -10.22,10.09 -10.42,10.15 -10.62,10.21 -10.84,10.20 -11.05,10.19 -11.25,10.12 -11.45,10.04 -11.61,9.91 -11.77,9.77 -11.89,9.59 -12.00,9.41 -12.05,9.20 -12.09,9.00 -12.07,8.79 -12.05,8.57 -11.97,8.38 -11.88,8.19 -11.74,8.03 -11.59,7.87 -11.41,7.77 -11.22,7.67 -11.01,7.63 -10.80,7.59 -10.59,7.63 -10.38,7.66 -10.19,7.75 -10.00,7.85 -9.86,8.00 -9.71,8.16 -9.85,9.05 -9.99,9.95 -10.12,10.03 -10.26,10.11 -10.41,10.16 -10.56,10.20 -10.72,10.21 -10.88,10.22 -11.03,10.19 -11.19,10.16 -11.33,10.09 -11.48,10.02 -11.60,9.93 -11.72,9.83 -11.82,9.70 -11.92,9.58 -11.98,9.43 -12.04,9.29 -12.07,9.13 -12.10,8.97 -12.08,8.82 -12.07,8.66 -12.02,8.51 -11.98,8.36 -11.89,8.22 -11.81,8.09 -11.70,7.98 -11.58,7.87 -9.65,6.50 -7.71,5.14 -6.11,3.95 -4.51,2.77 -3.74,1.98 -2.97,1.19 -2.08,0.30 -1.18,-0.59 -1.09,-0.72 -1.01,-0.86 -0.89,-0.96 -0.77,-1.07 -0.63,-1.15 -0.49,-1.23 -0.34,-1.27 -0.18,-1.31 -0.02,-1.31 0.13,-1.32 0.29,-1.28 0.44,-1.25 0.58,-1.17 0.73,-1.10 0.85,-1.00 0.97,-0.90 1.07,-0.77 1.16,-0.64 1.22,-0.49 1.28,-0.34 1.30,-0.18 1.32,-0.02 1.31,0.13 1.29,0.29 1.24,0.44 1.18,0.59 1.18,0.59 L 1.18,0.59 Z"></path></g><g transform="translate(357.94035381651975 358.6268554497465) rotate(0 -9.851096740815137 2.8145990688049096)" stroke="none"><path fill="#000000" d="M 0.71,1.24 Q 0.71,1.24 -0.04,2.12 -0.79,2.99 -2.12,3.57 -3.45,4.15 -4.58,4.53 -5.71,4.90 -6.99,5.37 -8.26,5.83 -9.41,6.17 -10.56,6.50 -11.94,6.88 -13.32,7.26 -16.73,6.83 -20.14,6.39 -20.32,6.29 -20.51,6.19 -20.65,6.03 -20.80,5.87 -20.88,5.68 -20.97,5.48 -20.99,5.27 -21.01,5.06 -20.96,4.85 -20.91,4.65 -20.80,4.47 -20.68,4.29 -20.52,4.15 -20.35,4.02 -20.16,3.94 -19.96,3.87 -19.74,3.86 -19.53,3.85 -19.33,3.91 -19.12,3.97 -18.95,4.10 -18.78,4.22 -18.65,4.39 -18.53,4.56 -18.46,4.76 -18.40,4.97 -18.40,5.18 -18.41,5.39 -18.48,5.59 -18.55,5.79 -18.68,5.96 -18.81,6.12 -18.99,6.24 -19.17,6.36 -19.37,6.41 -19.58,6.46 -19.79,6.45 -20.00,6.43 -20.20,6.35 -20.39,6.27 -20.55,6.13 -20.71,5.99 -20.82,5.80 -20.93,5.62 -20.97,5.41 -21.01,5.20 -20.98,4.99 -20.96,4.78 -20.86,4.59 -20.77,4.40 -20.62,4.25 -20.47,4.10 -20.28,4.00 -20.09,3.90 -19.88,3.87 -19.67,3.84 -19.46,3.88 -19.26,3.92 -19.26,3.92 -19.26,3.92 -16.78,3.33 -14.31,2.73 -13.04,2.39 -11.78,2.06 -9.96,1.47 -8.13,0.88 -6.65,0.44 -5.16,-0.00 -4.07,-0.41 -2.97,-0.83 -1.84,-1.04 -0.71,-1.24 -0.55,-1.31 -0.39,-1.38 -0.22,-1.41 -0.05,-1.43 0.12,-1.42 0.29,-1.40 0.45,-1.35 0.62,-1.29 0.76,-1.20 0.91,-1.11 1.03,-0.98 1.15,-0.85 1.24,-0.70 1.32,-0.55 1.37,-0.39 1.42,-0.22 1.42,-0.05 1.43,0.12 1.39,0.29 1.36,0.46 1.28,0.61 1.21,0.77 1.10,0.90 0.99,1.04 0.85,1.14 0.71,1.24 0.71,1.24 L 0.71,1.24 Z"></path></g><g transform="translate(326.97976405967165 364.2560535873563) rotate(0 -10.554746508016706 0.703649767200659)" stroke="none"><path fill="#000000" d="M 0.11,1.41 Q 0.11,1.41 -1.46,1.94 -3.05,2.46 -4.59,2.54 -6.14,2.62 -8.10,2.79 -10.06,2.95 -11.62,3.01 -13.19,3.08 -14.51,3.21 -15.84,3.35 -18.19,3.03 -20.54,2.71 -20.75,2.69 -20.96,2.67 -21.16,2.59 -21.35,2.50 -21.51,2.36 -21.66,2.22 -21.77,2.03 -21.87,1.85 -21.91,1.64 -21.95,1.43 -21.92,1.22 -21.89,1.01 -21.79,0.82 -21.70,0.63 -21.55,0.48 -21.39,0.33 -21.20,0.24 -21.01,0.14 -20.80,0.12 -20.59,0.09 -20.38,0.13 -20.17,0.17 -19.99,0.28 -19.81,0.38 -19.66,0.54 -19.52,0.70 -19.44,0.90 -19.36,1.09 -19.34,1.31 -19.33,1.52 -19.38,1.72 -19.43,1.93 -19.55,2.11 -19.66,2.29 -19.83,2.42 -20.00,2.55 -20.20,2.62 -20.40,2.69 -20.61,2.70 -20.82,2.70 -21.02,2.64 -21.23,2.57 -21.40,2.45 -21.57,2.32 -21.69,2.15 -21.82,1.98 -21.88,1.77 -21.94,1.57 -21.93,1.36 -21.92,1.15 -21.85,0.95 -21.77,0.75 -21.64,0.58 -21.51,0.42 -21.33,0.31 -21.15,0.19 -20.94,0.14 -20.73,0.09 -20.73,0.09 -20.73,0.09 -18.72,-0.43 -16.71,-0.97 -15.04,-1.18 -13.37,-1.38 -11.97,-1.44 -10.57,-1.50 -8.44,-1.68 -6.31,-1.85 -4.86,-1.89 -3.41,-1.92 -1.76,-1.67 -0.11,-1.41 0.05,-1.41 0.22,-1.40 0.38,-1.35 0.55,-1.31 0.70,-1.22 0.85,-1.14 0.97,-1.02 1.10,-0.90 1.19,-0.75 1.28,-0.61 1.34,-0.45 1.39,-0.28 1.40,-0.11 1.42,0.05 1.39,0.22 1.36,0.39 1.30,0.55 1.23,0.70 1.13,0.84 1.02,0.98 0.89,1.09 0.76,1.20 0.60,1.27 0.45,1.34 0.28,1.38 0.11,1.41 0.11,1.41 L 0.11,1.41 Z"></path></g><g transform="translate(295.0809459816396 364.7251677479471) rotate(0 -8.209240126117493 0.9382068474974403)" stroke="none"><path fill="#000000" d="M 0.24,1.32 Q 0.24,1.32 -1.17,1.97 -2.58,2.62 -4.18,2.88 -5.78,3.14 -7.06,3.26 -8.34,3.38 -9.70,3.57 -11.06,3.76 -13.44,3.23 -15.83,2.71 -15.99,2.71 -16.15,2.70 -16.30,2.66 -16.45,2.61 -16.59,2.54 -16.73,2.46 -16.84,2.35 -16.96,2.24 -17.04,2.11 -17.13,1.97 -17.18,1.82 -17.23,1.67 -17.24,1.52 -17.26,1.36 -17.23,1.20 -17.21,1.04 -17.15,0.90 -17.09,0.75 -16.99,0.63 -16.90,0.50 -16.78,0.40 -16.65,0.30 -16.51,0.23 -16.37,0.16 -16.21,0.13 -16.06,0.09 -16.49,0.31 -16.93,0.53 -16.77,0.40 -16.60,0.27 -16.40,0.19 -16.20,0.11 -15.99,0.11 -15.78,0.10 -15.58,0.16 -15.37,0.22 -15.20,0.34 -15.02,0.46 -14.90,0.64 -14.77,0.81 -14.71,1.01 -14.64,1.21 -14.65,1.43 -14.65,1.64 -14.72,1.84 -14.80,2.04 -14.93,2.20 -15.06,2.37 -15.24,2.49 -15.41,2.60 -15.62,2.66 -15.83,2.71 -16.04,2.69 -16.25,2.68 -16.45,2.60 -16.64,2.52 -16.80,2.38 -16.96,2.23 -17.07,2.05 -17.17,1.87 -17.21,1.66 -17.26,1.45 -17.23,1.24 -17.20,1.03 -17.11,0.84 -17.02,0.65 -16.87,0.49 -16.72,0.34 -16.53,0.25 -16.34,0.15 -16.13,0.12 -15.92,0.09 -15.71,0.13 -15.50,0.17 -15.32,0.27 -15.13,0.37 -14.99,0.53 -14.84,0.68 -14.76,0.88 -14.67,1.07 -14.65,1.29 -14.63,1.50 -14.68,1.70 -14.73,1.91 -15.28,2.31 -15.83,2.71 -15.99,2.71 -16.15,2.70 -16.30,2.66 -16.45,2.61 -16.59,2.54 -16.73,2.46 -16.84,2.35 -16.96,2.24 -17.04,2.11 -17.13,1.97 -17.18,1.82 -17.23,1.67 -17.24,1.52 -17.26,1.36 -17.23,1.20 -17.21,1.05 -17.15,0.90 -17.09,0.75 -16.99,0.63 -16.90,0.50 -16.78,0.40 -16.65,0.30 -16.51,0.23 -16.37,0.16 -16.21,0.13 -16.06,0.09 -13.96,-0.18 -11.85,-0.46 -10.28,-0.67 -8.72,-0.88 -7.58,-0.97 -6.45,-1.07 -4.89,-1.30 -3.34,-1.54 -1.79,-1.43 -0.24,-1.32 -0.07,-1.33 0.08,-1.34 0.24,-1.31 0.40,-1.28 0.55,-1.21 0.69,-1.15 0.82,-1.05 0.95,-0.95 1.05,-0.82 1.15,-0.69 1.21,-0.54 1.28,-0.39 1.31,-0.23 1.34,-0.07 1.33,0.08 1.32,0.24 1.27,0.39 1.22,0.55 1.14,0.69 1.05,0.83 0.94,0.94 0.82,1.06 0.68,1.14 0.55,1.22 0.39,1.27 0.24,1.32 0.24,1.32 L 0.24,1.32 Z"></path></g><g transform="translate(265.9967699197855 363.78698237413755) rotate(0 -9.382004053910123 1.1727424541063556)" stroke="none"><path fill="#000000" d="M 0.13,1.44 Q 0.13,1.44 -1.32,1.90 -2.77,2.35 -4.88,2.57 -6.99,2.80 -8.52,3.01 -10.04,3.23 -11.50,3.45 -12.96,3.68 -15.48,3.65 -18.00,3.62 -18.21,3.63 -18.42,3.65 -18.63,3.59 -18.83,3.54 -19.01,3.42 -19.18,3.30 -19.31,3.13 -19.44,2.97 -19.51,2.77 -19.58,2.56 -19.59,2.35 -19.59,2.14 -19.52,1.94 -19.46,1.74 -19.33,1.57 -19.20,1.40 -19.03,1.27 -18.85,1.15 -18.65,1.09 -18.44,1.04 -18.23,1.05 -18.02,1.06 -17.82,1.13 -17.62,1.21 -17.46,1.35 -17.30,1.48 -17.19,1.66 -17.07,1.84 -17.03,2.05 -16.98,2.26 -17.00,2.47 -17.02,2.68 -17.11,2.87 -17.20,3.07 -17.34,3.22 -17.49,3.38 -17.67,3.48 -17.86,3.58 -18.07,3.62 -18.28,3.65 -18.49,3.62 -18.70,3.59 -18.89,3.49 -19.08,3.39 -19.22,3.24 -19.37,3.09 -19.46,2.89 -19.55,2.70 -19.58,2.49 -19.60,2.28 -19.56,2.07 -19.51,1.86 -19.41,1.68 -19.30,1.50 -19.14,1.36 -18.98,1.22 -18.78,1.14 -18.58,1.06 -18.58,1.06 -18.58,1.06 -16.10,0.23 -13.62,-0.60 -12.13,-0.83 -10.63,-1.05 -9.01,-1.27 -7.39,-1.49 -5.27,-1.65 -3.15,-1.81 -1.64,-1.63 -0.13,-1.44 0.04,-1.44 0.21,-1.43 0.38,-1.39 0.55,-1.34 0.70,-1.25 0.86,-1.17 0.98,-1.05 1.11,-0.93 1.21,-0.78 1.30,-0.63 1.36,-0.47 1.42,-0.30 1.43,-0.13 1.45,0.04 1.42,0.21 1.40,0.39 1.33,0.55 1.26,0.71 1.16,0.85 1.05,0.99 0.92,1.10 0.78,1.22 0.63,1.29 0.47,1.37 0.30,1.41 0.13,1.44 0.13,1.44 L 0.13,1.44 Z"></path></g><g transform="translate(236.44347969733917 364.7251677479471) rotate(0 -9.616550397362744 -0.46909268690524186)" stroke="none"><path fill="#000000" d="M -0.10,1.47 Q -0.10,1.47 -2.02,1.73 -3.93,1.99 -6.15,1.91 -8.37,1.84 -9.47,1.83 -10.57,1.82 -12.10,1.82 -13.63,1.81 -14.91,1.80 -16.18,1.79 -18.16,0.90 -20.13,0.01 -20.26,-0.15 -20.39,-0.32 -20.46,-0.52 -20.52,-0.72 -20.52,-0.93 -20.52,-1.15 -20.46,-1.35 -20.39,-1.55 -20.26,-1.72 -20.13,-1.89 -19.95,-2.01 -19.78,-2.13 -19.57,-2.18 -19.37,-2.24 -19.16,-2.23 -18.95,-2.22 -18.75,-2.14 -18.55,-2.06 -18.39,-1.92 -18.23,-1.78 -18.12,-1.60 -18.01,-1.42 -17.96,-1.21 -17.92,-1.00 -17.94,-0.79 -17.96,-0.58 -18.05,-0.39 -18.14,-0.20 -18.29,-0.04 -18.43,0.10 -18.62,0.20 -18.81,0.30 -19.02,0.34 -19.23,0.37 -19.44,0.34 -19.65,0.30 -19.84,0.20 -20.02,0.10 -20.17,-0.04 -20.32,-0.20 -20.40,-0.39 -20.49,-0.58 -20.52,-0.79 -20.54,-1.01 -20.49,-1.21 -20.45,-1.42 -20.34,-1.60 -20.23,-1.78 -20.07,-1.92 -19.90,-2.06 -19.71,-2.14 -19.51,-2.22 -19.30,-2.23 -19.09,-2.24 -18.88,-2.18 -18.68,-2.12 -18.50,-2.01 -18.32,-1.89 -18.32,-1.89 -18.32,-1.89 -17.25,-2.31 -16.18,-2.73 -14.90,-2.74 -13.62,-2.74 -12.08,-2.74 -10.53,-2.73 -9.41,-2.72 -8.29,-2.71 -5.95,-2.62 -3.61,-2.53 -1.75,-2.00 0.10,-1.47 0.28,-1.44 0.45,-1.41 0.61,-1.33 0.78,-1.26 0.92,-1.14 1.06,-1.03 1.16,-0.89 1.27,-0.75 1.34,-0.58 1.42,-0.42 1.45,-0.24 1.48,-0.07 1.46,0.10 1.45,0.28 1.40,0.45 1.34,0.62 1.25,0.77 1.15,0.92 1.02,1.05 0.90,1.17 0.74,1.26 0.59,1.35 0.42,1.41 0.25,1.46 0.07,1.47 -0.10,1.47 -0.10,1.47 L -0.10,1.47 Z"></path></g><g transform="translate(202.66829087168662 365.1942819085398) rotate(0 -8.678354286709009 0.23453560660891526)" stroke="none"><path fill="#000000" d="M 0,1.40 Q 0,1.40 -1.61,1.76 -3.23,2.12 -5.06,2.29 -6.88,2.46 -8.67,2.55 -10.47,2.63 -12.10,2.66 -13.73,2.68 -15.95,1.85 -18.17,1.02 -18.31,0.86 -18.46,0.71 -18.54,0.51 -18.63,0.32 -18.64,0.10 -18.66,-0.10 -18.61,-0.30 -18.56,-0.51 -18.45,-0.69 -18.33,-0.87 -18.17,-1.00 -18.00,-1.14 -17.80,-1.21 -17.60,-1.28 -17.39,-1.29 -17.18,-1.30 -16.98,-1.24 -16.77,-1.17 -16.60,-1.05 -16.43,-0.93 -16.30,-0.75 -16.18,-0.58 -16.11,-0.38 -16.05,-0.18 -16.06,0.03 -16.06,0.24 -16.13,0.44 -16.21,0.64 -16.34,0.80 -16.47,0.97 -16.65,1.08 -16.83,1.20 -17.04,1.25 -17.24,1.30 -17.45,1.29 -17.66,1.27 -17.86,1.19 -18.06,1.10 -18.21,0.96 -18.37,0.82 -18.48,0.64 -18.58,0.45 -18.62,0.24 -18.66,0.03 -18.64,-0.17 -18.61,-0.38 -18.51,-0.57 -18.42,-0.76 -18.27,-0.91 -18.12,-1.06 -17.93,-1.15 -17.74,-1.25 -17.53,-1.28 -17.32,-1.31 -17.11,-1.27 -16.90,-1.23 -16.72,-1.13 -16.53,-1.02 -16.53,-1.02 -16.53,-1.02 -15.14,-1.39 -13.75,-1.75 -12.17,-1.76 -10.60,-1.77 -8.89,-1.84 -7.19,-1.92 -5.21,-2.02 -3.23,-2.12 -1.61,-1.76 0,-1.40 0.16,-1.38 0.33,-1.36 0.49,-1.30 0.65,-1.24 0.79,-1.14 0.93,-1.05 1.04,-0.92 1.15,-0.79 1.23,-0.64 1.31,-0.49 1.35,-0.33 1.39,-0.16 1.39,0.00 1.39,0.16 1.35,0.33 1.31,0.49 1.23,0.64 1.15,0.79 1.04,0.92 0.93,1.05 0.79,1.14 0.65,1.24 0.49,1.30 0.33,1.36 0.16,1.38 -0.00,1.40 -0.00,1.40 L 0,1.40 Z"></path></g><g transform="translate(170.30040158043585 364.2560535873563) rotate(0 -8.91290063016163 0.2345570802954171)" stroke="none"><path fill="#000000" d="M 0.11,1.48 Q 0.11,1.48 -1.61,1.94 -3.34,2.40 -5.07,2.47 -6.81,2.53 -8.72,2.59 -10.64,2.64 -12.45,2.67 -14.26,2.69 -16.04,2.23 -17.82,1.78 -18.03,1.74 -18.24,1.71 -18.43,1.61 -18.62,1.51 -18.76,1.36 -18.91,1.20 -19.00,1.01 -19.09,0.82 -19.11,0.60 -19.13,0.39 -19.09,0.19 -19.04,-0.01 -18.93,-0.19 -18.82,-0.38 -18.66,-0.51 -18.50,-0.65 -18.30,-0.73 -18.10,-0.81 -17.89,-0.82 -17.68,-0.83 -17.47,-0.77 -17.27,-0.72 -17.09,-0.60 -16.92,-0.48 -16.79,-0.31 -16.66,-0.14 -16.59,0.05 -16.52,0.25 -16.52,0.46 -16.52,0.68 -16.59,0.88 -16.66,1.08 -16.79,1.25 -16.92,1.42 -17.09,1.54 -17.27,1.66 -17.47,1.71 -17.68,1.77 -17.89,1.76 -18.10,1.75 -18.30,1.67 -18.50,1.59 -18.66,1.45 -18.82,1.31 -18.93,1.13 -19.04,0.95 -19.09,0.74 -19.13,0.54 -19.11,0.32 -19.09,0.11 -19.00,-0.07 -18.91,-0.26 -18.76,-0.42 -18.62,-0.57 -18.43,-0.67 -18.24,-0.77 -18.03,-0.80 -17.82,-0.84 -17.82,-0.84 -17.82,-0.84 -16.04,-1.30 -14.27,-1.76 -12.47,-1.75 -10.68,-1.73 -8.82,-1.75 -6.95,-1.76 -5.31,-1.81 -3.67,-1.86 -1.89,-1.67 -0.11,-1.48 0.06,-1.48 0.24,-1.47 0.41,-1.42 0.59,-1.37 0.74,-1.28 0.90,-1.19 1.03,-1.06 1.16,-0.94 1.25,-0.78 1.35,-0.63 1.40,-0.46 1.46,-0.29 1.47,-0.11 1.49,0.06 1.46,0.24 1.43,0.42 1.36,0.58 1.29,0.75 1.18,0.89 1.07,1.03 0.93,1.15 0.79,1.26 0.63,1.34 0.46,1.41 0.29,1.45 0.11,1.48 0.11,1.48 L 0.11,1.48 Z"></path></g><g transform="translate(137.46339812859378 363.3178682135458) rotate(0 -10.320189427720607 -1.4072995344022274)" stroke="none"><path fill="#000000" d="M 0.26,1.47 Q 0.26,1.47 -1.16,2.00 -2.60,2.53 -3.70,2.68 -4.80,2.84 -6.25,2.94 -7.69,3.04 -9.91,2.77 -12.12,2.49 -13.21,2.25 -14.30,2.00 -15.36,1.56 -16.42,1.12 -17.41,0.70 -18.39,0.29 -20.01,-1.29 -21.63,-2.88 -21.74,-3.07 -21.85,-3.25 -21.90,-3.45 -21.95,-3.66 -21.93,-3.87 -21.91,-4.08 -21.82,-4.28 -21.73,-4.47 -21.59,-4.63 -21.44,-4.78 -21.26,-4.89 -21.07,-4.99 -20.86,-5.02 -20.65,-5.06 -20.44,-5.03 -20.23,-5.00 -20.04,-4.90 -19.85,-4.80 -19.71,-4.65 -19.56,-4.50 -19.47,-4.31 -19.37,-4.12 -19.35,-3.90 -19.32,-3.69 -19.37,-3.49 -19.41,-3.28 -19.52,-3.09 -19.62,-2.91 -19.78,-2.77 -19.94,-2.63 -20.14,-2.55 -20.34,-2.47 -20.55,-2.45 -20.76,-2.44 -20.97,-2.49 -21.17,-2.55 -21.35,-2.67 -21.53,-2.78 -21.66,-2.95 -21.79,-3.12 -21.86,-3.32 -21.93,-3.52 -21.93,-3.73 -21.93,-3.94 -21.87,-4.15 -21.80,-4.35 -21.68,-4.52 -21.55,-4.69 -21.38,-4.81 -21.20,-4.93 -21.00,-4.99 -20.79,-5.05 -20.58,-5.04 -20.37,-5.03 -20.17,-4.96 -19.97,-4.88 -19.81,-4.75 -19.65,-4.61 -19.65,-4.61 -19.65,-4.61 -17.80,-3.91 -15.95,-3.21 -14.65,-2.71 -13.35,-2.20 -11.42,-1.72 -9.50,-1.23 -7.93,-1.22 -6.36,-1.22 -4.84,-1.34 -3.33,-1.45 -1.79,-1.46 -0.26,-1.47 -0.08,-1.48 0.09,-1.49 0.27,-1.46 0.44,-1.43 0.61,-1.35 0.77,-1.28 0.92,-1.17 1.06,-1.06 1.17,-0.91 1.28,-0.77 1.36,-0.60 1.43,-0.44 1.46,-0.26 1.49,-0.08 1.48,0.09 1.47,0.27 1.42,0.44 1.36,0.61 1.27,0.77 1.18,0.92 1.05,1.05 0.92,1.18 0.76,1.27 0.61,1.37 0.44,1.42 0.26,1.47 0.26,1.47 L 0.26,1.47 Z"></path></g><g transform="translate(108.37922206673966 356.28137054153376) rotate(0 -7.271054752306782 -5.394641057312583)" stroke="none"><path fill="#000000" d="M -0.62,1.25 Q -0.62,1.25 -1.86,1.02 -3.09,0.80 -4.58,0.22 -6.06,-0.36 -7.10,-0.70 -8.13,-1.05 -9.08,-1.52 -10.04,-1.99 -11.02,-2.52 -12.00,-3.06 -12.90,-4.02 -13.80,-4.99 -14.42,-6.18 -15.04,-7.37 -15.40,-8.84 -15.76,-10.31 -15.81,-10.52 -15.85,-10.73 -15.82,-10.94 -15.80,-11.15 -15.71,-11.34 -15.62,-11.53 -15.47,-11.69 -15.32,-11.84 -15.13,-11.94 -14.94,-12.03 -14.73,-12.07 -14.52,-12.10 -14.31,-12.06 -14.10,-12.02 -13.92,-11.92 -13.73,-11.82 -13.59,-11.67 -13.44,-11.51 -13.36,-11.32 -13.27,-11.12 -13.25,-10.91 -13.23,-10.70 -13.27,-10.49 -13.32,-10.29 -13.43,-10.10 -13.55,-9.92 -13.71,-9.79 -13.87,-9.65 -14.07,-9.58 -14.27,-9.50 -14.48,-9.49 -14.69,-9.48 -14.90,-9.54 -15.10,-9.60 -15.28,-9.72 -15.45,-9.84 -15.58,-10.01 -15.70,-10.18 -15.77,-10.38 -15.84,-10.59 -15.83,-10.80 -15.83,-11.01 -15.76,-11.21 -15.69,-11.41 -15.56,-11.58 -15.43,-11.75 -15.25,-11.86 -15.08,-11.98 -14.87,-12.04 -14.67,-12.09 -14.45,-12.08 -14.24,-12.06 -14.04,-11.98 -13.85,-11.90 -13.69,-11.76 -13.53,-11.62 -13.42,-11.44 -13.31,-11.26 -13.31,-11.26 -13.31,-11.26 -12.19,-10.02 -11.07,-8.79 -10.16,-7.58 -9.25,-6.37 -7.98,-5.75 -6.71,-5.13 -5.30,-4.45 -3.88,-3.78 -2.55,-3.37 -1.21,-2.96 -0.29,-2.10 0.62,-1.25 0.76,-1.16 0.90,-1.06 1.02,-0.94 1.13,-0.81 1.21,-0.67 1.30,-0.52 1.34,-0.35 1.38,-0.19 1.39,-0.02 1.39,0.14 1.35,0.30 1.32,0.47 1.24,0.62 1.16,0.77 1.05,0.90 0.95,1.03 0.81,1.12 0.67,1.22 0.51,1.29 0.36,1.35 0.19,1.37 0.02,1.40 -0.14,1.38 -0.30,1.36 -0.46,1.31 -0.62,1.25 -0.62,1.25 L -0.62,1.25 Z"></path></g><g transform="translate(90.08432811951116 339.8628902892997) rotate(0 -5.629198137608682 -7.036497672011137)" stroke="none"><path fill="#000000" d="M -0.81,1.22 Q -0.81,1.22 -2.20,0.66 -3.58,0.09 -4.82,-1.21 -6.06,-2.52 -6.99,-3.77 -7.92,-5.02 -8.63,-5.86 -9.35,-6.70 -10.51,-8.08 -11.67,-9.47 -12.09,-11.57 -12.51,-13.68 -12.54,-13.89 -12.57,-14.10 -12.53,-14.31 -12.49,-14.52 -12.38,-14.70 -12.28,-14.89 -12.12,-15.03 -11.97,-15.17 -11.77,-15.26 -11.58,-15.34 -11.36,-15.36 -11.15,-15.38 -10.95,-15.33 -10.74,-15.28 -10.56,-15.16 -10.38,-15.05 -10.25,-14.88 -10.11,-14.72 -10.04,-14.52 -9.96,-14.32 -9.96,-14.11 -9.95,-13.90 -10.01,-13.69 -10.07,-13.49 -10.20,-13.32 -10.32,-13.14 -10.49,-13.02 -10.67,-12.89 -10.87,-12.83 -11.07,-12.77 -11.28,-12.77 -11.50,-12.78 -11.70,-12.85 -11.90,-12.92 -12.06,-13.05 -12.23,-13.19 -12.34,-13.37 -12.46,-13.54 -12.51,-13.75 -12.56,-13.96 -12.55,-14.17 -12.53,-14.38 -12.45,-14.58 -12.36,-14.77 -12.22,-14.93 -12.08,-15.09 -11.90,-15.19 -11.71,-15.30 -11.50,-15.34 -11.29,-15.38 -11.08,-15.35 -10.87,-15.32 -10.68,-15.23 -10.49,-15.14 -10.34,-14.99 -10.19,-14.84 -10.09,-14.65 -10.00,-14.46 -10.00,-14.46 -10.00,-14.46 -9.18,-13.21 -8.36,-11.96 -7.28,-10.68 -6.19,-9.39 -5.38,-8.44 -4.56,-7.48 -3.78,-6.40 -3.00,-5.32 -2.13,-4.32 -1.26,-3.33 -0.22,-2.27 0.81,-1.22 0.94,-1.10 1.08,-0.99 1.18,-0.84 1.28,-0.70 1.35,-0.53 1.42,-0.37 1.44,-0.19 1.46,-0.02 1.44,0.15 1.43,0.32 1.37,0.49 1.31,0.66 1.21,0.80 1.11,0.95 0.98,1.07 0.85,1.19 0.69,1.27 0.54,1.36 0.37,1.40 0.20,1.45 0.02,1.45 -0.15,1.46 -0.32,1.42 -0.49,1.38 -0.65,1.30 -0.81,1.22 -0.81,1.22 L -0.81,1.22 Z"></path></g><g transform="translate(77.41863230989156 316.8769835782732) rotate(0 -1.1727531909498339 -10.085653821111464)" stroke="none"><path fill="#000000" d="M -1.25,0.53 Q -1.25,0.53 -1.92,-0.29 -2.59,-1.12 -3.09,-3.35 -3.60,-5.58 -3.67,-7.23 -3.75,-8.88 -3.88,-10.19 -4.01,-11.51 -4.07,-12.66 -4.14,-13.81 -4.02,-15.20 -3.90,-16.59 -3.30,-17.97 -2.71,-19.34 -2.68,-19.50 -2.65,-19.65 -2.58,-19.79 -2.51,-19.94 -2.41,-20.06 -2.31,-20.18 -2.18,-20.28 -2.05,-20.37 -1.91,-20.43 -1.76,-20.49 -1.60,-20.52 -1.45,-20.54 -1.29,-20.53 -1.13,-20.51 -0.98,-20.46 -0.83,-20.41 -0.70,-20.33 -0.57,-20.24 -0.46,-20.13 -0.35,-20.01 -0.27,-19.87 -0.19,-19.73 -0.15,-19.58 -0.10,-19.43 -0.10,-19.27 -0.09,-19.11 -0.09,-19.12 -0.09,-19.12 -0.14,-18.92 -0.20,-18.71 -0.31,-18.53 -0.42,-18.35 -0.59,-18.22 -0.76,-18.08 -0.96,-18.01 -1.15,-17.94 -1.37,-17.93 -1.58,-17.93 -1.78,-17.99 -1.99,-18.05 -2.16,-18.18 -2.33,-18.30 -2.45,-18.47 -2.58,-18.64 -2.64,-18.85 -2.70,-19.05 -2.70,-19.26 -2.69,-19.48 -2.62,-19.67 -2.55,-19.87 -2.41,-20.04 -2.28,-20.21 -2.10,-20.32 -1.92,-20.43 -1.72,-20.49 -1.51,-20.54 -1.30,-20.52 -1.09,-20.50 -0.89,-20.42 -0.69,-20.33 -0.54,-20.19 -0.38,-20.05 -0.27,-19.87 -0.17,-19.68 -0.13,-19.47 -0.09,-19.26 -0.12,-19.05 -0.15,-18.84 -0.24,-18.65 -0.34,-18.46 -0.49,-18.31 -0.64,-18.16 -0.83,-18.07 -1.02,-17.97 -1.23,-17.94 -1.44,-17.92 -1.65,-17.96 -1.86,-18.00 -2.04,-18.10 -2.23,-18.20 -2.37,-18.36 -2.51,-18.52 -2.59,-18.72 -2.68,-18.91 -2.69,-19.13 -2.71,-19.34 -2.68,-19.50 -2.65,-19.65 -2.58,-19.79 -2.51,-19.94 -2.41,-20.06 -2.31,-20.18 -2.18,-20.28 -2.05,-20.37 -1.91,-20.43 -1.76,-20.49 -1.60,-20.52 -1.45,-20.54 -1.29,-20.53 -1.13,-20.51 -0.98,-20.46 -0.83,-20.41 -0.70,-20.33 -0.57,-20.24 -0.46,-20.13 -0.35,-20.01 -0.27,-19.87 -0.19,-19.74 -0.15,-19.58 -0.10,-19.43 -0.10,-19.27 -0.09,-19.11 -0.13,-17.69 -0.17,-16.27 -0.22,-14.18 -0.26,-12.09 -0.09,-10.53 0.07,-8.97 0.15,-7.49 0.23,-6.02 0.60,-4.33 0.97,-2.65 1.11,-1.59 1.25,-0.53 1.30,-0.38 1.35,-0.22 1.35,-0.05 1.36,0.10 1.33,0.26 1.29,0.43 1.22,0.58 1.15,0.72 1.05,0.85 0.95,0.98 0.81,1.08 0.68,1.18 0.53,1.24 0.38,1.31 0.22,1.34 0.05,1.36 -0.10,1.35 -0.27,1.34 -0.42,1.28 -0.58,1.23 -0.72,1.15 -0.86,1.06 -0.97,0.94 -1.09,0.82 -1.17,0.68 -1.25,0.53 -1.25,0.53 L -1.25,0.53 Z"></path></g><g transform="translate(75.0731259279919 288.7309928902296) rotate(0 0.2345463434528483 -6.567404985105895)" stroke="none"><path fill="#000000" d="M -1.47,-0.11 Q -1.47,-0.11 -1.49,-1.87 -1.51,-3.64 -1.46,-4.76 -1.40,-5.89 -1.36,-7.15 -1.33,-8.41 -1.31,-10.68 -1.29,-12.94 -1.29,-13.15 -1.29,-13.36 -1.22,-13.56 -1.15,-13.76 -1.02,-13.93 -0.88,-14.10 -0.71,-14.21 -0.53,-14.33 -0.32,-14.38 -0.12,-14.44 0.08,-14.42 0.30,-14.41 0.49,-14.33 0.69,-14.25 0.85,-14.11 1.01,-13.97 1.11,-13.78 1.22,-13.60 1.26,-13.39 1.31,-13.18 1.28,-12.97 1.26,-12.76 1.16,-12.57 1.07,-12.38 0.92,-12.23 0.77,-12.07 0.59,-11.98 0.40,-11.88 0.19,-11.85 -0.01,-11.82 -0.22,-11.85 -0.43,-11.89 -0.62,-11.99 -0.80,-12.10 -0.95,-12.25 -1.09,-12.41 -1.18,-12.60 -1.27,-12.80 -1.29,-13.01 -1.31,-13.22 -1.26,-13.43 -1.21,-13.63 -1.10,-13.81 -0.98,-13.99 -0.82,-14.13 -0.66,-14.26 -0.46,-14.34 -0.26,-14.42 -0.05,-14.42 0.16,-14.43 0.36,-14.37 0.56,-14.31 0.74,-14.19 0.91,-14.07 1.04,-13.90 1.16,-13.73 1.23,-13.53 1.29,-13.32 1.29,-13.32 1.29,-13.32 1.76,-10.84 2.23,-8.36 2.20,-7.04 2.17,-5.71 2.11,-4.54 2.05,-3.36 1.76,-1.62 1.47,0.11 1.44,0.28 1.40,0.46 1.32,0.62 1.25,0.78 1.14,0.92 1.02,1.06 0.88,1.17 0.74,1.27 0.58,1.34 0.41,1.41 0.24,1.44 0.06,1.47 -0.11,1.46 -0.29,1.45 -0.45,1.39 -0.62,1.33 -0.78,1.24 -0.93,1.14 -1.05,1.02 -1.17,0.89 -1.26,0.73 -1.35,0.58 -1.40,0.41 -1.45,0.24 -1.46,0.06 -1.47,-0.11 -1.47,-0.11 L -1.47,-0.11 Z"></path></g><g transform="translate(73.66582639359012 265.27599349229695) rotate(0 0.4690980553268673 -8.209250862960744)" stroke="none"><path fill="#000000" d="M -1.29,-0.25 Q -1.29,-0.25 -1.32,-1.66 -1.34,-3.07 -1.20,-4.92 -1.05,-6.78 -1.02,-8.18 -1.00,-9.58 -0.68,-12.99 -0.37,-16.41 -0.34,-16.62 -0.30,-16.83 -0.20,-17.02 -0.10,-17.21 0.04,-17.36 0.20,-17.50 0.39,-17.59 0.58,-17.68 0.79,-17.70 1.01,-17.72 1.21,-17.68 1.42,-17.63 1.60,-17.52 1.78,-17.41 1.92,-17.25 2.06,-17.09 2.14,-16.89 2.22,-16.69 2.23,-16.48 2.24,-16.27 2.18,-16.07 2.12,-15.86 2.01,-15.69 1.89,-15.51 1.72,-15.38 1.55,-15.25 1.35,-15.18 1.14,-15.12 0.93,-15.12 0.72,-15.12 0.52,-15.19 0.32,-15.25 0.15,-15.38 -0.01,-15.51 -0.13,-15.69 -0.25,-15.86 -0.31,-16.07 -0.36,-16.27 -0.35,-16.48 -0.34,-16.70 -0.26,-16.89 -0.18,-17.09 -0.04,-17.25 0.08,-17.42 0.27,-17.52 0.45,-17.63 0.66,-17.68 0.86,-17.72 1.07,-17.70 1.29,-17.68 1.48,-17.59 1.67,-17.50 1.83,-17.35 1.98,-17.21 2.08,-17.02 2.18,-16.83 2.21,-16.62 2.25,-16.41 2.25,-16.41 2.25,-16.41 2.55,-13.87 2.85,-11.33 2.84,-9.89 2.83,-8.45 2.75,-6.59 2.67,-4.72 2.55,-3.52 2.42,-2.32 1.86,-1.03 1.29,0.25 1.24,0.41 1.19,0.56 1.11,0.69 1.02,0.83 0.91,0.94 0.79,1.05 0.66,1.13 0.52,1.21 0.36,1.25 0.21,1.30 0.05,1.30 -0.10,1.31 -0.25,1.28 -0.41,1.25 -0.55,1.18 -0.70,1.11 -0.82,1.01 -0.94,0.91 -1.04,0.79 -1.14,0.66 -1.20,0.51 -1.26,0.37 -1.29,0.21 -1.31,0.05 -1.30,-0.10 -1.29,-0.25 -1.29,-0.25 L -1.29,-0.25 Z"></path></g><g transform="translate(74.13491908049491 235.25361058294584) rotate(0 -0.4690980553268673 -6.332847904809569)" stroke="none"><path fill="#000000" d="M -1.40,-0.10 Q -1.40,-0.10 -1.54,-1.88 -1.68,-3.65 -1.72,-4.76 -1.76,-5.86 -2.04,-7.39 -2.32,-8.91 -2.25,-10.26 -2.19,-11.61 -2.34,-11.77 -2.49,-11.92 -2.58,-12.11 -2.67,-12.30 -2.69,-12.52 -2.71,-12.73 -2.67,-12.93 -2.62,-13.14 -2.52,-13.32 -2.41,-13.51 -2.25,-13.64 -2.08,-13.78 -1.89,-13.86 -1.69,-13.94 -1.48,-13.95 -1.27,-13.97 -1.06,-13.91 -0.86,-13.85 -0.68,-13.74 -0.50,-13.62 -0.37,-13.45 -0.24,-13.28 -0.18,-13.08 -0.11,-12.88 -0.11,-12.67 -0.11,-12.45 -0.17,-12.25 -0.24,-12.05 -0.37,-11.88 -0.50,-11.71 -0.67,-11.59 -0.85,-11.47 -1.05,-11.41 -1.25,-11.36 -1.47,-11.37 -1.68,-11.38 -1.88,-11.45 -2.07,-11.53 -2.24,-11.67 -2.40,-11.81 -2.51,-11.99 -2.62,-12.17 -2.67,-12.38 -2.71,-12.58 -2.69,-12.80 -2.67,-13.01 -2.58,-13.20 -2.49,-13.39 -2.35,-13.55 -2.20,-13.70 -2.01,-13.80 -1.83,-13.90 -1.62,-13.94 -1.41,-13.97 -1.20,-13.94 -0.99,-13.91 -0.80,-13.81 -0.61,-13.71 -0.61,-13.71 -0.61,-13.71 0.53,-11.25 1.68,-8.79 1.88,-7.74 2.09,-6.70 2.16,-5.02 2.22,-3.35 1.81,-1.62 1.40,0.10 1.37,0.27 1.33,0.44 1.26,0.59 1.19,0.74 1.08,0.88 0.98,1.01 0.84,1.11 0.70,1.21 0.55,1.28 0.39,1.35 0.22,1.38 0.06,1.40 -0.10,1.39 -0.27,1.38 -0.43,1.32 -0.59,1.27 -0.74,1.18 -0.88,1.09 -1.00,0.97 -1.12,0.85 -1.20,0.70 -1.29,0.55 -1.34,0.39 -1.39,0.23 -1.39,0.06 -1.40,-0.10 -1.40,-0.10 L -1.40,-0.10 Z"></path></g><g transform="translate(73.66582639359012 212.7368180325102) rotate(0 0.4690980553268673 -7.740147439212251)" stroke="none"><path fill="#000000" d="M -1.33,-0.12 Q -1.33,-0.12 -1.47,-1.63 -1.62,-3.13 -1.57,-4.40 -1.53,-5.66 -1.51,-7.27 -1.48,-8.87 -1.47,-10.18 -1.46,-11.48 -1.01,-12.84 -0.55,-14.19 -0.66,-14.37 -0.76,-14.56 -0.80,-14.77 -0.84,-14.98 -0.81,-15.19 -0.78,-15.40 -0.68,-15.59 -0.59,-15.78 -0.44,-15.93 -0.29,-16.08 -0.10,-16.17 0.09,-16.26 0.30,-16.29 0.51,-16.32 0.72,-16.28 0.92,-16.24 1.11,-16.13 1.29,-16.03 1.43,-15.87 1.57,-15.71 1.66,-15.51 1.74,-15.32 1.76,-15.10 1.77,-14.89 1.72,-14.69 1.67,-14.48 1.55,-14.30 1.44,-14.12 1.27,-13.99 1.10,-13.86 0.90,-13.79 0.70,-13.71 0.49,-13.71 0.28,-13.71 0.08,-13.77 -0.12,-13.83 -0.29,-13.96 -0.46,-14.08 -0.58,-14.26 -0.71,-14.43 -0.77,-14.63 -0.83,-14.84 -0.82,-15.05 -0.81,-15.26 -0.74,-15.46 -0.67,-15.66 -0.53,-15.82 -0.40,-15.99 -0.22,-16.10 -0.04,-16.22 0.16,-16.27 0.37,-16.32 0.58,-16.30 0.79,-16.28 0.98,-16.19 1.18,-16.11 1.34,-15.97 1.49,-15.82 1.49,-15.82 1.49,-15.82 1.94,-13.64 2.40,-11.46 2.39,-10.14 2.39,-8.82 2.34,-7.15 2.30,-5.49 2.23,-4.14 2.16,-2.79 1.74,-1.33 1.33,0.12 1.30,0.27 1.26,0.43 1.19,0.58 1.12,0.72 1.02,0.85 0.92,0.97 0.79,1.07 0.65,1.16 0.51,1.23 0.36,1.29 0.20,1.31 0.04,1.34 -0.12,1.32 -0.28,1.31 -0.43,1.26 -0.58,1.20 -0.72,1.11 -0.85,1.03 -0.97,0.91 -1.08,0.79 -1.16,0.65 -1.24,0.51 -1.28,0.35 -1.32,0.20 -1.33,0.04 -1.33,-0.12 -1.33,-0.12 L -1.33,-0.12 Z"></path></g><g transform="translate(75.54221861489759 185.52901271827704) rotate(0 -0.4690980553268673 -7.740147439212251)" stroke="none"><path fill="#000000" d="M -1.36,0.12 Q -1.36,0.12 -1.81,-1.33 -2.27,-2.78 -2.33,-4.27 -2.39,-5.76 -2.45,-7.36 -2.50,-8.97 -2.69,-10.31 -2.88,-11.66 -2.56,-13.56 -2.25,-15.46 -2.21,-15.67 -2.18,-15.88 -2.09,-16.07 -1.99,-16.26 -1.84,-16.40 -1.68,-16.55 -1.49,-16.64 -1.30,-16.74 -1.09,-16.76 -0.88,-16.79 -0.67,-16.74 -0.46,-16.70 -0.28,-16.59 -0.10,-16.49 0.03,-16.33 0.17,-16.17 0.25,-15.97 0.34,-15.77 0.35,-15.56 0.36,-15.35 0.31,-15.14 0.26,-14.94 0.14,-14.76 0.02,-14.58 -0.14,-14.45 -0.30,-14.32 -0.50,-14.25 -0.70,-14.18 -0.92,-14.18 -1.13,-14.18 -1.33,-14.24 -1.53,-14.31 -1.70,-14.43 -1.88,-14.56 -2.00,-14.73 -2.12,-14.91 -2.18,-15.11 -2.24,-15.32 -2.23,-15.53 -2.22,-15.74 -2.14,-15.94 -2.07,-16.14 -1.93,-16.30 -1.80,-16.47 -1.61,-16.58 -1.43,-16.69 -1.23,-16.74 -1.02,-16.79 -0.81,-16.77 -0.60,-16.74 -0.40,-16.66 -0.21,-16.57 -0.05,-16.43 0.09,-16.28 0.19,-16.10 0.30,-15.91 0.33,-15.70 0.37,-15.49 0.37,-15.49 0.37,-15.49 0.77,-13.80 1.18,-12.12 1.38,-10.58 1.59,-9.05 1.61,-7.48 1.63,-5.92 1.68,-4.53 1.73,-3.14 1.54,-1.63 1.36,-0.12 1.36,0.04 1.35,0.20 1.31,0.36 1.26,0.52 1.18,0.66 1.10,0.81 0.99,0.93 0.87,1.05 0.73,1.14 0.60,1.23 0.44,1.28 0.28,1.34 0.12,1.35 -0.04,1.37 -0.20,1.34 -0.36,1.32 -0.52,1.25 -0.67,1.19 -0.80,1.09 -0.94,0.99 -1.04,0.87 -1.15,0.74 -1.22,0.59 -1.29,0.44 -1.33,0.28 -1.36,0.12 -1.36,0.12 L -1.36,0.12 Z"></path></g><g transform="translate(73.66582639359012 159.72852841213262) rotate(0 -0.2345517118742464 -8.678343549865986)" stroke="none"><path fill="#000000" d="M -1.49,0.11 Q -1.49,0.11 -1.90,-1.61 -2.31,-3.34 -2.38,-4.52 -2.45,-5.70 -2.49,-7.03 -2.53,-8.36 -2.54,-9.48 -2.56,-10.61 -2.57,-11.72 -2.57,-12.83 -2.18,-15.09 -1.78,-17.35 -1.74,-17.56 -1.71,-17.77 -1.61,-17.96 -1.51,-18.15 -1.36,-18.29 -1.20,-18.44 -1.01,-18.53 -0.82,-18.62 -0.60,-18.64 -0.39,-18.66 -0.19,-18.62 0.01,-18.57 0.19,-18.46 0.38,-18.35 0.51,-18.19 0.65,-18.03 0.73,-17.83 0.81,-17.63 0.82,-17.42 0.83,-17.21 0.77,-17.00 0.72,-16.80 0.60,-16.62 0.48,-16.45 0.31,-16.32 0.14,-16.19 -0.05,-16.12 -0.25,-16.06 -0.46,-16.06 -0.68,-16.06 -0.88,-16.12 -1.08,-16.19 -1.25,-16.32 -1.42,-16.45 -1.54,-16.62 -1.66,-16.80 -1.71,-17.01 -1.77,-17.21 -1.76,-17.42 -1.75,-17.63 -1.67,-17.83 -1.59,-18.03 -1.45,-18.19 -1.31,-18.35 -1.13,-18.46 -0.95,-18.57 -0.74,-18.62 -0.53,-18.66 -0.32,-18.64 -0.11,-18.62 0.07,-18.53 0.26,-18.44 0.42,-18.29 0.57,-18.15 0.67,-17.96 0.77,-17.77 0.80,-17.56 0.84,-17.35 0.84,-17.35 0.84,-17.35 1.24,-15.09 1.64,-12.83 1.63,-11.73 1.62,-10.63 1.62,-9.52 1.62,-8.42 1.65,-7.16 1.68,-5.90 1.73,-4.78 1.77,-3.66 1.63,-1.88 1.49,-0.11 1.48,0.06 1.48,0.24 1.43,0.42 1.37,0.59 1.28,0.75 1.19,0.90 1.07,1.03 0.94,1.16 0.79,1.26 0.63,1.35 0.46,1.41 0.29,1.47 0.11,1.48 -0.06,1.50 -0.24,1.47 -0.42,1.44 -0.58,1.36 -0.75,1.29 -0.90,1.18 -1.04,1.07 -1.15,0.93 -1.27,0.79 -1.34,0.63 -1.42,0.46 -1.46,0.29 -1.49,0.11 -1.49,0.11 L -1.49,0.11 Z"></path></g><g transform="translate(72.72761954609268 132.9898372584903) rotate(0 0.23455171187447377 -10.554746508016251)" stroke="none"><path fill="#000000" d="M -1.31,0.29 Q -1.31,0.29 -1.95,-0.84 -2.58,-1.97 -2.72,-4.14 -2.86,-6.30 -2.78,-8.34 -2.70,-10.37 -2.34,-12.63 -1.99,-14.89 -1.68,-16.24 -1.38,-17.60 -0.59,-19.60 0.18,-21.59 0.29,-21.78 0.40,-21.96 0.57,-22.09 0.73,-22.23 0.93,-22.31 1.12,-22.39 1.34,-22.40 1.55,-22.41 1.75,-22.35 1.96,-22.30 2.13,-22.18 2.31,-22.06 2.44,-21.89 2.56,-21.72 2.63,-21.52 2.70,-21.31 2.70,-21.10 2.70,-20.89 2.63,-20.69 2.56,-20.49 2.43,-20.32 2.30,-20.15 2.13,-20.03 1.95,-19.91 1.75,-19.85 1.54,-19.80 1.33,-19.81 1.12,-19.82 0.92,-19.90 0.72,-19.98 0.56,-20.12 0.40,-20.26 0.29,-20.44 0.18,-20.62 0.14,-20.83 0.09,-21.04 0.11,-21.25 0.14,-21.46 0.23,-21.65 0.32,-21.84 0.46,-22.00 0.61,-22.15 0.80,-22.25 0.99,-22.35 1.20,-22.38 1.41,-22.42 1.62,-22.38 1.83,-22.35 2.01,-22.25 2.20,-22.15 2.35,-21.99 2.49,-21.84 2.58,-21.65 2.67,-21.45 2.69,-21.24 2.71,-21.03 2.67,-20.82 2.62,-20.62 2.62,-20.62 2.62,-20.62 2.66,-18.63 2.70,-16.64 2.39,-15.22 2.09,-13.81 1.80,-12.00 1.51,-10.18 1.41,-8.36 1.32,-6.54 1.41,-4.71 1.51,-2.87 1.41,-1.58 1.31,-0.29 1.33,-0.13 1.34,0.03 1.32,0.19 1.29,0.35 1.23,0.50 1.17,0.65 1.08,0.78 0.98,0.91 0.86,1.02 0.73,1.12 0.59,1.19 0.44,1.26 0.28,1.30 0.13,1.34 -0.03,1.33 -0.19,1.33 -0.34,1.29 -0.50,1.24 -0.64,1.16 -0.79,1.09 -0.90,0.97 -1.02,0.86 -1.11,0.73 -1.20,0.59 -1.26,0.44 -1.31,0.29 -1.31,0.29 L -1.31,0.29 Z"></path></g><g transform="translate(75.0731259279919 101.56015481473696) rotate(0 1.4072995344024548 -6.801951328558516)" stroke="none"><path fill="#000000" d="M -1.39,-0.29 Q -1.39,-0.29 -1.22,-2.23 -1.05,-4.17 -0.89,-5.31 -0.72,-6.46 -0.43,-7.78 -0.14,-9.10 0.68,-11.46 1.52,-13.82 1.58,-14.02 1.65,-14.22 1.78,-14.39 1.91,-14.56 2.09,-14.68 2.27,-14.79 2.47,-14.85 2.68,-14.91 2.89,-14.89 3.10,-14.88 3.30,-14.80 3.49,-14.72 3.66,-14.58 3.82,-14.44 3.92,-14.26 4.03,-14.08 4.08,-13.87 4.12,-13.66 4.10,-13.45 4.07,-13.24 3.98,-13.05 3.89,-12.85 3.74,-12.70 3.60,-12.55 3.41,-12.45 3.22,-12.35 3.01,-12.32 2.80,-12.29 2.59,-12.32 2.38,-12.36 2.19,-12.46 2.01,-12.56 1.86,-12.71 1.72,-12.87 1.63,-13.06 1.54,-13.26 1.52,-13.47 1.50,-13.68 1.55,-13.89 1.59,-14.09 1.70,-14.27 1.81,-14.46 1.98,-14.59 2.14,-14.73 2.34,-14.81 2.54,-14.88 2.75,-14.89 2.96,-14.90 3.17,-14.85 3.37,-14.79 3.54,-14.67 3.72,-14.55 3.85,-14.38 3.97,-14.21 4.04,-14.00 4.11,-13.80 4.11,-13.59 4.10,-13.38 4.10,-13.38 4.10,-13.38 3.87,-10.98 3.63,-8.58 3.33,-7.25 3.03,-5.91 2.85,-4.64 2.66,-3.37 2.03,-1.53 1.39,0.29 1.34,0.46 1.28,0.62 1.19,0.76 1.09,0.91 0.97,1.03 0.84,1.14 0.69,1.23 0.54,1.31 0.38,1.36 0.21,1.41 0.04,1.41 -0.12,1.42 -0.29,1.38 -0.46,1.35 -0.62,1.27 -0.77,1.19 -0.90,1.08 -1.03,0.97 -1.14,0.84 -1.24,0.70 -1.30,0.54 -1.37,0.38 -1.40,0.21 -1.42,0.04 -1.41,-0.12 -1.39,-0.29 -1.39,-0.29 L -1.39,-0.29 Z"></path></g><g transform="translate(81.64053091309779 80.9197544856097) rotate(0 4.221898603206682 -7.036497672011137)" stroke="none"><path fill="#000000" d="M -1.36,-0.62 Q -1.36,-0.62 -0.86,-2.52 -0.37,-4.42 0.92,-6.44 2.22,-8.46 2.77,-9.42 3.32,-10.38 5.29,-12.52 7.27,-14.66 7.39,-14.84 7.52,-15.01 7.69,-15.13 7.87,-15.25 8.07,-15.31 8.28,-15.37 8.49,-15.36 8.70,-15.36 8.90,-15.28 9.10,-15.20 9.26,-15.07 9.43,-14.93 9.54,-14.75 9.65,-14.57 9.70,-14.37 9.75,-14.16 9.73,-13.95 9.71,-13.74 9.62,-13.54 9.54,-13.35 9.39,-13.19 9.25,-13.04 9.06,-12.93 8.88,-12.83 8.67,-12.79 8.46,-12.75 8.25,-12.79 8.04,-12.82 7.85,-12.91 7.66,-13.01 7.51,-13.16 7.36,-13.31 7.27,-13.51 7.18,-13.70 7.15,-13.91 7.13,-14.12 7.17,-14.33 7.21,-14.53 7.32,-14.72 7.42,-14.90 7.58,-15.04 7.74,-15.18 7.94,-15.26 8.14,-15.35 8.35,-15.36 8.56,-15.38 8.77,-15.32 8.97,-15.27 9.15,-15.15 9.33,-15.04 9.46,-14.87 9.59,-14.70 9.66,-14.50 9.73,-14.30 9.73,-14.09 9.74,-13.88 9.67,-13.67 9.61,-13.47 9.61,-13.47 9.61,-13.47 8.37,-10.82 7.14,-8.18 6.52,-7.10 5.90,-6.03 4.75,-4.30 3.60,-2.58 2.48,-0.97 1.36,0.62 1.26,0.78 1.17,0.93 1.04,1.06 0.91,1.18 0.75,1.27 0.60,1.37 0.42,1.42 0.25,1.47 0.07,1.48 -0.10,1.49 -0.28,1.45 -0.45,1.42 -0.62,1.35 -0.78,1.27 -0.92,1.16 -1.06,1.04 -1.17,0.90 -1.28,0.76 -1.36,0.59 -1.43,0.43 -1.46,0.25 -1.49,0.07 -1.48,-0.10 -1.47,-0.28 -1.41,-0.45 -1.35,-0.62 -1.35,-0.62 L -1.36,-0.62 Z"></path></g><g transform="translate(95.24441209652787 62.624860538381654) rotate(0 5.394651794156289 -4.456450315080929)" stroke="none"><path fill="#000000" d="M -1.14,-1.03 Q -1.14,-1.03 -0.17,-2.59 0.80,-4.15 1.92,-5.21 3.04,-6.27 4.06,-7.04 5.08,-7.81 7.56,-8.90 10.04,-9.99 10.23,-10.08 10.42,-10.17 10.63,-10.19 10.84,-10.22 11.05,-10.18 11.26,-10.13 11.44,-10.03 11.62,-9.92 11.76,-9.76 11.90,-9.60 11.98,-9.40 12.06,-9.20 12.08,-8.99 12.09,-8.78 12.04,-8.57 11.98,-8.37 11.86,-8.19 11.75,-8.01 11.58,-7.88 11.41,-7.75 11.21,-7.68 11.01,-7.61 10.80,-7.61 10.58,-7.61 10.38,-7.68 10.18,-7.74 10.01,-7.87 9.84,-8.00 9.72,-8.17 9.60,-8.34 9.54,-8.55 9.48,-8.75 9.49,-8.97 9.50,-9.18 9.58,-9.38 9.65,-9.57 9.79,-9.74 9.92,-9.90 10.11,-10.01 10.29,-10.12 10.49,-10.17 10.70,-10.22 10.91,-10.20 11.12,-10.18 11.32,-10.09 11.51,-10.00 11.67,-9.86 11.82,-9.71 11.92,-9.53 12.02,-9.34 12.06,-9.13 12.10,-8.92 12.07,-8.71 12.03,-8.50 11.94,-8.31 11.84,-8.12 11.68,-7.98 11.53,-7.83 11.53,-7.83 11.53,-7.83 9.69,-6.11 7.85,-4.39 6.94,-3.71 6.03,-3.03 5.04,-2.13 4.05,-1.23 2.59,-0.10 1.14,1.03 1.00,1.15 0.86,1.27 0.70,1.36 0.53,1.44 0.35,1.48 0.17,1.53 -0.01,1.53 -0.19,1.52 -0.37,1.48 -0.55,1.43 -0.72,1.34 -0.88,1.26 -1.02,1.13 -1.16,1.01 -1.26,0.85 -1.37,0.70 -1.43,0.53 -1.49,0.35 -1.52,0.17 -1.54,-0.01 -1.51,-0.19 -1.49,-0.38 -1.42,-0.55 -1.35,-0.72 -1.25,-0.87 -1.14,-1.03 -1.14,-1.03 L -1.14,-1.03 Z"></path></g><g transform="translate(113.07021335685113 50.89736083941443) rotate(0 6.3328479048100235 -1.87639758972864)" stroke="none"><path fill="#000000" d="M -0.62,-1.51 Q -0.62,-1.51 0.89,-2.41 2.41,-3.32 3.78,-3.88 5.15,-4.44 6.21,-4.82 7.27,-5.21 9.96,-5.13 12.64,-5.06 12.85,-5.03 13.06,-5.00 13.25,-4.90 13.44,-4.81 13.59,-4.65 13.74,-4.50 13.83,-4.31 13.92,-4.12 13.95,-3.91 13.97,-3.70 13.93,-3.49 13.89,-3.28 13.78,-3.10 13.68,-2.91 13.52,-2.77 13.36,-2.63 13.16,-2.55 12.96,-2.47 12.75,-2.46 12.54,-2.44 12.34,-2.49 12.13,-2.55 11.95,-2.66 11.77,-2.78 11.64,-2.95 11.51,-3.11 11.44,-3.31 11.37,-3.51 11.36,-3.73 11.36,-3.94 11.43,-4.14 11.49,-4.34 11.62,-4.51 11.74,-4.69 11.92,-4.81 12.09,-4.93 12.29,-4.99 12.50,-5.05 12.71,-5.04 12.92,-5.03 13.12,-4.96 13.32,-4.88 13.48,-4.75 13.65,-4.61 13.76,-4.43 13.87,-4.25 13.92,-4.05 13.97,-3.84 13.95,-3.63 13.93,-3.42 13.85,-3.22 13.76,-3.03 13.62,-2.87 13.47,-2.72 13.29,-2.61 13.10,-2.51 12.89,-2.47 12.68,-2.43 12.68,-2.43 12.68,-2.43 11.08,-2.01 9.48,-1.59 8.12,-1.03 6.76,-0.47 5.41,0.07 4.05,0.62 2.34,1.06 0.62,1.51 0.43,1.56 0.24,1.61 0.05,1.62 -0.14,1.62 -0.33,1.58 -0.53,1.54 -0.70,1.46 -0.88,1.37 -1.03,1.24 -1.18,1.12 -1.30,0.96 -1.42,0.80 -1.49,0.62 -1.57,0.44 -1.60,0.24 -1.63,0.05 -1.61,-0.14 -1.60,-0.34 -1.53,-0.52 -1.47,-0.71 -1.36,-0.87 -1.25,-1.04 -1.11,-1.18 -0.97,-1.31 -0.80,-1.41 -0.62,-1.51 -0.62,-1.51 L -0.62,-1.51 Z"></path></g><g transform="translate(134.64879905978933 44.3299665911527) rotate(0 5.863755217905009 -0.9382014790749054)" stroke="none"><path fill="#000000" d="M -0.32,-1.40 Q -0.32,-1.40 1.32,-2.25 2.97,-3.10 4.21,-3.30 5.45,-3.49 7.04,-3.79 8.64,-4.09 9.61,-3.16 10.58,-2.23 10.74,-2.24 10.90,-2.24 11.06,-2.21 11.21,-2.18 11.35,-2.11 11.49,-2.04 11.62,-1.94 11.74,-1.84 11.83,-1.71 11.93,-1.58 11.99,-1.43 12.05,-1.29 12.07,-1.13 12.10,-0.98 12.08,-0.82 12.07,-0.66 12.02,-0.51 11.97,-0.36 11.88,-0.23 11.80,-0.09 11.68,0.00 11.57,0.11 11.43,0.19 11.29,0.27 11.14,0.31 10.98,0.35 11.13,0.32 11.27,0.28 11.06,0.32 10.86,0.37 10.64,0.35 10.43,0.32 10.24,0.23 10.05,0.14 9.89,0.00 9.74,-0.14 9.64,-0.33 9.54,-0.51 9.51,-0.72 9.47,-0.93 9.51,-1.14 9.54,-1.35 9.64,-1.54 9.74,-1.73 9.89,-1.87 10.05,-2.02 10.24,-2.11 10.43,-2.20 10.64,-2.22 10.85,-2.24 11.06,-2.20 11.27,-2.15 11.45,-2.04 11.63,-1.93 11.77,-1.77 11.91,-1.61 11.99,-1.41 12.07,-1.22 12.08,-1.00 12.09,-0.79 12.03,-0.59 11.98,-0.38 11.86,-0.21 11.74,-0.03 11.57,0.09 11.40,0.22 11.20,0.28 11.00,0.35 10.78,0.35 10.57,0.35 10.37,0.29 10.17,0.22 10.00,0.09 9.83,-0.03 9.71,-0.21 9.59,-0.38 9.54,-0.59 9.48,-0.79 9.49,-1.00 9.50,-1.22 9.58,-1.41 9.66,-1.61 9.80,-1.77 9.93,-1.93 10.26,-2.08 10.58,-2.23 10.74,-2.24 10.90,-2.24 11.05,-2.21 11.21,-2.18 11.35,-2.11 11.49,-2.04 11.62,-1.94 11.74,-1.84 11.83,-1.71 11.93,-1.58 11.99,-1.43 12.05,-1.29 12.07,-1.13 12.10,-0.98 12.08,-0.82 12.07,-0.66 12.02,-0.51 11.97,-0.36 11.88,-0.23 11.80,-0.09 11.68,0.00 11.57,0.11 11.43,0.19 11.29,0.27 11.14,0.31 10.98,0.35 9.66,0.56 8.33,0.77 7.24,0.98 6.15,1.19 5.09,1.33 4.03,1.48 2.18,1.44 0.32,1.40 0.15,1.42 -0.02,1.44 -0.19,1.42 -0.36,1.39 -0.52,1.33 -0.69,1.27 -0.83,1.16 -0.97,1.06 -1.08,0.93 -1.20,0.80 -1.28,0.64 -1.36,0.49 -1.39,0.32 -1.43,0.15 -1.43,-0.02 -1.43,-0.19 -1.38,-0.36 -1.34,-0.53 -1.26,-0.68 -1.17,-0.83 -1.06,-0.96 -0.94,-1.09 -0.79,-1.19 -0.65,-1.29 -0.48,-1.35 -0.32,-1.40 -0.32,-1.40 L -0.32,-1.40 Z"></path></g><g stroke-linecap="round" transform="translate(10 10) rotate(0 225.03617479451577 194.29302082609775)"><path d="M-0.2 -0.17 C94.45 -0.72, 189.23 0.62, 449.44 -0.3 M0.35 -0.2 C99.98 -0.43, 200.46 -0.52, 450.41 -0.27 M449.18 0.38 C450.67 144.41, 450.09 289.31, 450.25 388.56 M449.91 0.07 C449.96 104.36, 450.82 207.67, 450.12 388.58 M450.48 388.58 C327.27 386.39, 205.64 386.69, -0.4 389.11 M450.42 388.12 C314.93 386.37, 180.37 386.02, 0.37 389 M-0.5 388.92 C0.59 257.66, 1.05 125.66, 0.92 0.82 M-0.54 388.1 C0.09 262.33, -0.82 137.01, 0.18 -0.36" stroke="transparent" stroke-width="1" fill="none"></path></g></svg>