<svg version="1.1" xmlns="http://www.w3.org/2000/svg" viewBox="0 0 189.1666030883789 189.1666030883789" width="567.4998092651367" height="567.4998092651367">
  <!-- svg-source:excalidraw -->
  
  <defs>
    <style class="style-fonts">
      @font-face {
        font-family: "Virgil";
        src: url("https://excalidraw.com/Virgil.woff2");
      }
      @font-face {
        font-family: "Cascadia";
        src: url("https://excalidraw.com/Cascadia.woff2");
      }
    </style>
  </defs>
  <g stroke-linecap="round" transform="translate(10 10) rotate(0 84.58330154418945 84.58330154418945)"><path d="M-0.48 1.2 C50.54 0.86, 99.21 -1.41, 170.6 1.29 M-0.32 0.9 C41.13 -0.27, 80.78 -0.26, 168.73 -0.59 M167.66 -0.51 C169.09 51.95, 169.86 102.63, 167.69 168.01 M170.13 0.48 C166.58 48.46, 167.32 94.84, 168.2 168.85 M168.26 169.8 C124.45 169.04, 79.14 169.24, 0.28 169.56 M169.25 169.24 C118.98 168.25, 67.98 169.1, -0.59 168.48 M1.1 169.55 C2.03 127.14, 1.2 84.2, 0.37 -0.08 M0.78 168.92 C-1.48 111.22, -0.87 52.89, -0.41 0.94" stroke="transparent" stroke-width="1" fill="none"></path></g><g transform="translate(74.49115437096862 30.320808653809763) rotate(0 18.11044037912552 60.09388814421163)" stroke="none"><path fill="#000000" d="M 0.56,1.23 Q 0.56,1.23 -1.87,2.78 -4.31,4.33 -5.71,4.87 -7.11,5.40 -9.36,6.93 -11.61,8.46 -12.98,9.20 -14.35,9.94 -16.95,11.61 -19.56,13.28 -22.06,15.15 -24.55,17.02 -25.85,18.05 -27.14,19.09 -29.33,20.94 -31.52,22.79 -32.69,23.81 -33.85,24.82 -35.68,26.83 -37.52,28.84 -38.26,29.87 -38.99,30.90 -39.98,32.69 -40.97,34.48 -41.69,35.58 -42.41,36.69 -43.06,38.57 -43.71,40.45 -44.01,41.51 -44.32,42.57 -44.90,45.12 -45.49,47.68 -45.74,48.98 -45.99,50.29 -46.06,53.06 -46.14,55.83 -46.19,57.31 -46.23,58.79 -46.01,61.91 -45.78,65.03 -44.99,68.86 -44.19,72.68 -42.71,76.82 -41.23,80.96 -40.57,83.06 -39.91,85.15 -38.29,88.21 -36.67,91.27 -35.75,92.83 -34.82,94.39 -33.52,96.17 -32.23,97.95 -31.58,99.10 -30.93,100.24 -29.60,101.96 -28.26,103.68 -26.26,106.09 -24.26,108.50 -23.34,109.86 -22.42,111.21 -20.40,112.66 -18.37,114.11 -15.42,115.67 -12.46,117.22 -10.99,117.90 -9.51,118.58 -7.31,119.29 -5.11,120.01 -2.60,120.52 -0.08,121.03 1.22,121.26 2.53,121.50 4.84,121.57 7.15,121.64 8.43,121.68 9.70,121.72 11.86,121.72 14.03,121.72 16.96,121.37 19.88,121.03 22.08,120.74 24.28,120.45 27.01,120.32 29.74,120.19 31.10,120.14 32.47,120.09 34.84,119.83 37.22,119.57 40.27,118.85 43.33,118.13 46.45,117.12 49.57,116.11 50.56,115.66 51.55,115.21 53.70,114.27 55.86,113.34 56.89,112.76 57.93,112.19 60.16,111.17 62.39,110.15 64.92,108.39 67.44,106.62 69.45,104.61 71.45,102.59 72.28,101.54 73.11,100.49 74.36,98.47 75.62,96.45 76.13,95.41 76.64,94.37 77.32,92.59 78.00,90.81 78.88,87.35 79.76,83.89 80.23,80.77 80.71,77.64 80.91,74.49 81.11,71.34 81.20,69.72 81.29,68.11 81.56,65.46 81.84,62.82 81.94,60.14 82.05,57.47 81.86,54.78 81.67,52.09 81.59,50.64 81.51,49.19 81.24,47.00 80.98,44.81 80.63,42.21 80.27,39.61 79.67,37.22 79.07,34.82 78.61,33.66 78.15,32.50 77.45,30.50 76.74,28.49 75.56,26.22 74.38,23.96 73.19,22.18 72.01,20.40 71.05,19.03 70.09,17.66 68.80,16.23 67.51,14.79 66.08,13.54 64.64,12.29 63.09,11.05 61.55,9.80 60.60,8.99 59.65,8.18 58.75,7.34 57.85,6.50 56.48,5.69 55.10,4.89 53.98,4.52 52.87,4.15 51.94,3.51 51.02,2.86 49.30,2.23 47.58,1.60 46.42,1.21 45.26,0.82 43.88,0.46 42.51,0.10 41.39,-0.01 40.26,-0.12 38.65,-0.45 37.03,-0.77 35.62,-0.87 34.20,-0.98 32.65,-1.03 31.10,-1.07 29.50,-1.09 27.89,-1.11 25.87,-1.12 23.84,-1.12 21.96,-1.12 20.07,-1.12 18.33,-1.11 16.58,-1.10 15.10,-0.87 13.62,-0.64 12.33,-0.32 11.04,-0.01 9.18,0.41 7.33,0.83 6.24,1.16 5.15,1.50 3.86,2.25 2.57,3.01 1.39,3.44 0.21,3.88 -0.75,4.44 -1.73,5.00 -2.73,5.52 -3.73,6.04 -4.76,6.69 -5.80,7.33 -6.94,8.10 -8.09,8.87 -9.62,9.75 -11.15,10.62 -12.25,11.23 -13.36,11.84 -14.31,12.33 -15.25,12.83 -16.10,13.51 -16.94,14.19 -18.78,15.37 -20.63,16.56 -21.61,17.12 -22.58,17.68 -23.90,18.43 -25.21,19.17 -26.86,20.52 -28.51,21.86 -30.51,22.36 -32.50,22.86 -32.68,22.98 -32.86,23.10 -33.07,23.15 -33.27,23.20 -33.48,23.19 -33.70,23.17 -33.89,23.09 -34.09,23.01 -34.25,22.87 -34.41,22.73 -34.51,22.55 -34.62,22.36 -34.66,22.15 -34.70,21.95 -34.68,21.74 -34.65,21.52 -34.56,21.33 -34.47,21.14 -34.32,20.99 -34.17,20.84 -33.98,20.74 -33.79,20.65 -33.58,20.61 -33.37,20.58 -33.16,20.62 -32.95,20.66 -32.77,20.76 -32.58,20.86 -32.44,21.02 -32.29,21.18 -32.21,21.37 -32.12,21.57 -32.10,21.78 -32.08,21.99 -32.13,22.20 -32.18,22.40 -32.29,22.58 -32.41,22.76 -32.57,22.90 -32.73,23.03 -32.93,23.11 -33.13,23.18 -33.34,23.19 -33.56,23.20 -33.76,23.14 -33.96,23.08 -34.14,22.96 -34.31,22.84 -34.44,22.66 -34.56,22.49 -34.63,22.29 -34.69,22.09 -34.69,21.88 -34.68,21.66 -34.61,21.46 -34.54,21.26 -34.41,21.10 -34.28,20.93 -34.28,20.93 -34.28,20.93 -33.13,18.64 -31.98,16.35 -30.91,15.56 -29.84,14.76 -28.58,13.96 -27.31,13.16 -25.73,12.15 -24.14,11.14 -23.10,10.47 -22.05,9.79 -20.94,9.01 -19.82,8.23 -18.08,7.22 -16.34,6.20 -15.26,5.66 -14.18,5.12 -12.81,4.39 -11.44,3.67 -10.21,2.91 -8.98,2.14 -7.77,1.41 -6.55,0.67 -5.60,0.17 -4.65,-0.32 -3.28,-1.06 -1.90,-1.80 -0.28,-2.38 1.34,-2.97 2.28,-3.59 3.22,-4.22 4.46,-4.61 5.70,-5.00 7.67,-5.46 9.64,-5.92 11.21,-6.28 12.78,-6.64 14.67,-6.88 16.57,-7.12 18.33,-7.11 20.08,-7.10 21.97,-7.10 23.87,-7.09 25.92,-7.06 27.98,-7.04 29.64,-7.01 31.31,-6.98 33.00,-6.92 34.69,-6.85 36.45,-6.69 38.22,-6.53 39.62,-6.23 41.03,-5.93 42.56,-5.70 44.09,-5.47 45.61,-5.00 47.14,-4.54 48.35,-4.10 49.56,-3.66 50.75,-3.20 51.94,-2.74 53.40,-1.88 54.86,-1.02 56.46,-0.40 58.06,0.22 59.82,1.35 61.58,2.47 62.41,3.24 63.23,4.02 64.12,4.78 65.00,5.54 66.65,6.89 68.29,8.23 69.92,9.74 71.55,11.24 73.01,12.95 74.47,14.65 75.52,16.22 76.58,17.79 77.16,18.84 77.73,19.89 78.44,20.82 79.14,21.75 79.76,23.15 80.38,24.54 81.03,25.64 81.68,26.74 82.35,28.69 83.02,30.64 83.57,32.11 84.11,33.58 84.76,36.25 85.40,38.92 85.75,41.56 86.10,44.20 86.37,46.55 86.65,48.90 86.73,50.33 86.81,51.75 86.99,54.72 87.18,57.68 87.05,60.52 86.92,63.35 86.65,65.87 86.37,68.39 86.28,70.03 86.19,71.66 85.97,75.04 85.75,78.41 85.25,81.74 84.74,85.06 84.14,87.70 83.53,90.35 83.20,91.49 82.87,92.64 82.11,94.67 81.36,96.71 80.73,97.97 80.10,99.24 78.68,101.52 77.25,103.80 76.22,105.07 75.19,106.34 72.81,108.68 70.44,111.02 68.66,112.23 66.88,113.44 65.75,114.22 64.62,115.00 62.56,115.93 60.50,116.87 59.24,117.56 57.98,118.24 55.85,119.16 53.72,120.08 52.42,120.65 51.11,121.21 49.04,121.84 46.96,122.46 45.63,122.92 44.29,123.37 42.36,123.71 40.43,124.05 39.11,124.45 37.79,124.86 35.23,125.11 32.66,125.37 31.32,125.42 29.97,125.46 27.44,125.57 24.91,125.67 22.52,125.94 20.13,126.21 18.31,126.26 16.50,126.30 15.26,126.56 14.02,126.83 11.78,126.79 9.53,126.75 8.24,126.70 6.94,126.66 4.31,126.52 1.67,126.39 0.27,126.14 -1.13,125.89 -3.90,125.27 -6.66,124.65 -9.10,123.81 -11.53,122.97 -13.15,122.22 -14.77,121.47 -18.00,119.66 -21.23,117.86 -23.72,115.86 -26.21,113.86 -27.02,112.66 -27.83,111.46 -29.88,108.98 -31.93,106.50 -33.95,103.58 -35.98,100.66 -37.39,98.71 -38.80,96.75 -39.78,95.08 -40.77,93.41 -42.54,89.98 -44.32,86.55 -44.95,84.53 -45.59,82.50 -47.15,78.05 -48.72,73.60 -49.53,69.47 -50.34,65.34 -50.55,61.99 -50.76,58.65 -50.71,57.15 -50.66,55.66 -50.52,52.55 -50.37,49.45 -50.10,48.06 -49.83,46.67 -49.19,44.01 -48.56,41.34 -48.21,40.14 -47.86,38.94 -46.98,36.62 -46.10,34.30 -45.45,33.32 -44.80,32.34 -43.68,30.33 -42.55,28.33 -41.65,27.10 -40.76,25.88 -38.75,23.70 -36.74,21.51 -35.54,20.47 -34.35,19.43 -32.10,17.55 -29.85,15.67 -28.50,14.60 -27.15,13.54 -24.53,11.58 -21.91,9.62 -19.17,7.86 -16.42,6.10 -15.22,5.46 -14.02,4.81 -11.34,3.08 -8.66,1.34 -7.38,0.86 -6.10,0.39 -3.33,-0.41 -0.56,-1.23 -0.40,-1.28 -0.24,-1.33 -0.08,-1.34 0.07,-1.35 0.23,-1.32 0.39,-1.29 0.54,-1.22 0.69,-1.16 0.82,-1.06 0.95,-0.96 1.05,-0.83 1.15,-0.70 1.22,-0.55 1.29,-0.40 1.32,-0.24 1.35,-0.08 1.34,0.07 1.33,0.23 1.28,0.39 1.23,0.55 1.15,0.69 1.06,0.83 0.95,0.94 0.83,1.06 0.69,1.14 0.56,1.23 0.56,1.23 L 0.56,1.23 Z"></path></g></svg>