<svg version="1.1" xmlns="http://www.w3.org/2000/svg" viewBox="0 0 409.72526683056685 326.8647898528336" width="1229.1758004917006" height="980.5943695585008">
  <!-- svg-source:excalidraw -->
  
  <defs>
    <style class="style-fonts">
      @font-face {
        font-family: "Virgil";
        src: url("https://excalidraw.com/Virgil.woff2");
      }
      @font-face {
        font-family: "Cascadia";
        src: url("https://excalidraw.com/Cascadia.woff2");
      }
    </style>
  </defs>
  <g stroke-linecap="round" transform="translate(10 10) rotate(0 194.86263341528343 153.4323949264168)"><path d="M0.54 0.5 C129.24 -2.24, 257.76 -1.42, 388.65 -0.19 M-0.31 0.32 C112.74 1.8, 226.93 1.55, 389.6 0.08 M388.33 -0.33 C390.96 100.98, 390.92 201.24, 391.11 306.94 M389.3 0.27 C391.17 82.33, 391.11 165.67, 389.75 306.61 M390.17 306.43 C293.71 305.13, 196.14 305.68, -0.66 307.42 M389.17 306.79 C266.66 306.98, 144.35 307.15, 0.14 307.2 M-0.13 307.91 C-0.35 189.31, 0.83 69, -1.29 -1.29 M0.25 306.31 C1.63 184.21, 2.03 62.87, -0.72 -0.69" stroke="transparent" stroke-width="1" fill="none"></path></g><g transform="translate(69.06816960875551 279.1057084479485) rotate(0 138.3333587646485 -21.25)" stroke="none"><path fill="#ced4da" d="M -0.99,-1.32 Q -0.99,-1.32 -0.20,-2.27 0.58,-3.23 2.30,-4.20 4.03,-5.18 6.09,-6.47 8.15,-7.75 9.15,-8.30 10.15,-8.84 11.87,-9.96 13.59,-11.07 15.06,-12.03 16.54,-13.00 18.39,-14.15 20.24,-15.30 21.53,-16.04 22.82,-16.78 24.65,-17.61 26.47,-18.45 28.76,-19.72 31.05,-20.99 33.22,-21.95 35.40,-22.90 37.19,-23.65 38.99,-24.41 40.77,-25.40 42.56,-26.38 44.24,-27.29 45.93,-28.20 47.60,-29.05 49.27,-29.90 50.90,-30.56 52.53,-31.23 54.57,-32.21 56.60,-33.18 58.65,-34.07 60.71,-34.96 62.23,-35.43 63.76,-35.91 65.61,-36.70 67.47,-37.49 69.53,-37.78 71.60,-38.08 73.30,-38.67 75.00,-39.25 76.79,-39.66 78.58,-40.07 80.93,-40.54 83.28,-41.02 85.69,-41.45 88.10,-41.89 90.26,-42.09 92.42,-42.29 93.92,-42.52 95.43,-42.76 97.57,-42.94 99.71,-43.13 101.46,-43.49 103.20,-43.85 105.00,-43.93 106.79,-44.00 108.72,-44.02 110.65,-44.03 112.21,-44.26 113.78,-44.49 115.06,-44.61 116.34,-44.72 117.63,-44.76 118.92,-44.81 121.00,-44.84 123.08,-44.87 124.93,-44.88 126.77,-44.90 128.95,-44.91 131.13,-44.92 133.35,-44.65 135.57,-44.39 137.65,-44.27 139.73,-44.16 141.64,-43.90 143.56,-43.64 145.58,-43.49 147.61,-43.34 148.67,-43.02 149.73,-42.69 151.45,-42.61 153.16,-42.52 154.62,-42.24 156.08,-41.97 157.82,-41.63 159.57,-41.29 161.95,-40.84 164.33,-40.38 170.33,-39.52 176.32,-38.65 178.79,-38.06 181.26,-37.47 183.87,-37.02 186.48,-36.56 188.03,-36.36 189.59,-36.17 191.53,-35.84 193.48,-35.50 195.54,-35.32 197.61,-35.14 198.69,-34.81 199.78,-34.47 201.15,-34.16 202.52,-33.85 203.63,-33.38 204.73,-32.92 206.27,-32.29 207.82,-31.67 209.00,-31.14 210.19,-30.61 211.18,-30.15 212.17,-29.68 213.66,-29.23 215.16,-28.77 216.31,-28.40 217.46,-28.03 219.18,-27.58 220.90,-27.13 222.08,-26.75 223.26,-26.37 224.67,-25.84 226.07,-25.31 227.80,-24.57 229.52,-23.84 230.78,-23.48 232.04,-23.12 233.79,-22.61 235.53,-22.10 237.01,-21.70 238.50,-21.29 240.00,-20.85 241.50,-20.40 242.93,-20.01 244.37,-19.62 245.74,-19.08 247.11,-18.55 248.85,-17.72 250.60,-16.88 252.50,-16.17 254.41,-15.46 255.40,-15.06 256.38,-14.65 258.01,-13.79 259.64,-12.93 261.02,-12.02 262.39,-11.10 263.57,-10.65 264.75,-10.21 266.54,-9.48 268.33,-8.75 269.64,-7.78 270.96,-6.81 272.12,-6.39 273.27,-5.98 274.74,-4.47 276.22,-2.96 276.36,-2.90 276.51,-2.84 276.64,-2.75 276.76,-2.65 276.87,-2.53 276.97,-2.41 277.04,-2.27 277.11,-2.13 277.14,-1.97 277.18,-1.82 277.17,-1.66 277.17,-1.50 277.12,-1.35 277.08,-1.20 277.01,-1.06 276.93,-0.92 276.82,-0.80 276.71,-0.69 276.58,-0.60 276.45,-0.52 276.30,-0.46 276.15,-0.41 275.99,-0.40 275.83,-0.38 275.68,-0.41 275.52,-0.43 275.93,-0.45 276.35,-0.47 276.14,-0.43 275.93,-0.38 275.72,-0.41 275.51,-0.43 275.32,-0.52 275.13,-0.61 274.97,-0.76 274.82,-0.90 274.72,-1.09 274.62,-1.28 274.59,-1.49 274.55,-1.70 274.59,-1.91 274.62,-2.12 274.72,-2.31 274.82,-2.49 274.98,-2.64 275.13,-2.78 275.33,-2.87 275.52,-2.96 275.73,-2.98 275.94,-3.01 276.15,-2.96 276.36,-2.91 276.54,-2.80 276.72,-2.69 276.86,-2.53 277.00,-2.37 277.07,-2.17 277.15,-1.97 277.16,-1.76 277.17,-1.55 277.12,-1.34 277.06,-1.14 276.94,-0.96 276.82,-0.79 276.65,-0.66 276.48,-0.53 276.28,-0.47 276.08,-0.40 275.86,-0.40 275.65,-0.40 275.45,-0.47 275.25,-0.54 275.08,-0.67 274.91,-0.80 274.79,-0.97 274.67,-1.15 274.62,-1.35 274.56,-1.56 274.57,-1.77 274.59,-1.98 274.67,-2.18 274.74,-2.38 274.88,-2.54 275.02,-2.70 275.62,-2.83 276.22,-2.96 276.36,-2.90 276.51,-2.84 276.64,-2.75 276.76,-2.65 276.87,-2.53 276.97,-2.41 277.04,-2.27 277.11,-2.13 277.14,-1.97 277.18,-1.82 277.17,-1.66 277.17,-1.50 277.12,-1.35 277.08,-1.20 277.01,-1.06 276.93,-0.92 276.82,-0.80 276.71,-0.69 276.58,-0.60 276.45,-0.52 276.30,-0.46 276.15,-0.41 275.99,-0.40 275.83,-0.38 275.68,-0.41 275.52,-0.43 273.74,-0.69 271.96,-0.96 270.59,-1.45 269.22,-1.94 267.65,-2.94 266.09,-3.95 265.04,-4.45 263.99,-4.95 262.58,-5.37 261.16,-5.79 260.20,-6.32 259.23,-6.86 257.86,-7.76 256.50,-8.67 255.42,-9.22 254.34,-9.76 252.65,-10.39 250.97,-11.02 249.32,-11.81 247.66,-12.61 246.66,-13.09 245.65,-13.57 244.22,-14.07 242.79,-14.57 241.19,-15.01 239.59,-15.46 238.27,-15.85 236.96,-16.24 235.32,-16.69 233.68,-17.15 232.12,-17.60 230.57,-18.04 229.10,-18.48 227.62,-18.92 226.27,-19.55 224.92,-20.18 223.28,-20.78 221.64,-21.38 220.52,-21.74 219.39,-22.11 217.61,-22.59 215.82,-23.07 213.72,-23.77 211.63,-24.47 209.85,-25.18 208.08,-25.89 206.97,-26.40 205.86,-26.90 203.60,-27.87 201.34,-28.85 199.31,-29.44 197.28,-30.02 196.03,-30.09 194.78,-30.16 193.69,-30.31 192.60,-30.45 190.78,-30.77 188.95,-31.09 187.26,-31.31 185.58,-31.52 182.82,-32.03 180.07,-32.53 177.81,-33.08 175.54,-33.63 170.58,-34.42 165.62,-35.20 164.44,-35.35 163.26,-35.50 160.92,-35.95 158.59,-36.40 156.85,-36.76 155.10,-37.12 153.17,-37.42 151.24,-37.71 149.29,-38.08 147.34,-38.45 145.10,-38.62 142.85,-38.78 141.21,-39.04 139.57,-39.29 138.12,-39.35 136.68,-39.40 135.60,-39.52 134.53,-39.65 132.83,-39.86 131.13,-40.07 128.95,-40.08 126.78,-40.09 124.94,-40.10 123.11,-40.10 121.10,-40.08 119.09,-40.05 117.91,-40.01 116.74,-39.97 115.59,-39.88 114.44,-39.78 112.55,-39.53 110.67,-39.28 109.44,-39.28 108.20,-39.28 106.59,-39.25 104.98,-39.23 103.54,-39.13 102.10,-39.03 101.02,-38.71 99.94,-38.40 98.24,-38.28 96.55,-38.16 94.60,-37.85 92.65,-37.55 90.82,-37.39 88.99,-37.23 86.65,-36.81 84.32,-36.39 81.98,-35.91 79.63,-35.44 77.96,-35.06 76.30,-34.69 75.16,-34.37 74.03,-34.06 73.01,-33.71 71.99,-33.36 70.47,-33.18 68.95,-32.99 67.23,-32.23 65.51,-31.48 63.86,-30.96 62.22,-30.45 60.33,-29.61 58.43,-28.78 57.44,-28.38 56.45,-27.98 55.39,-27.40 54.33,-26.82 51.89,-25.85 49.46,-24.88 47.87,-24.06 46.27,-23.25 44.65,-22.27 43.03,-21.29 41.92,-20.68 40.82,-20.06 39.11,-19.34 37.39,-18.62 35.30,-17.74 33.22,-16.86 31.89,-16.17 30.57,-15.47 29.48,-14.85 28.39,-14.22 26.76,-13.48 25.12,-12.75 23.90,-12.05 22.68,-11.35 20.87,-10.24 19.06,-9.13 17.56,-8.16 16.06,-7.18 13.43,-5.63 10.80,-4.08 8.58,-2.71 6.36,-1.35 4.80,-0.49 3.25,0.35 2.12,0.83 0.99,1.32 0.81,1.41 0.64,1.51 0.45,1.57 0.26,1.62 0.06,1.63 -0.13,1.64 -0.32,1.60 -0.52,1.56 -0.70,1.47 -0.88,1.39 -1.03,1.26 -1.19,1.14 -1.31,0.98 -1.43,0.82 -1.50,0.64 -1.58,0.45 -1.61,0.26 -1.64,0.06 -1.63,-0.13 -1.61,-0.33 -1.55,-0.52 -1.49,-0.70 -1.38,-0.87 -1.27,-1.04 -1.13,-1.18 -0.99,-1.32 -0.99,-1.32 L -0.99,-1.32 Z"></path></g><g transform="translate(36.56816960875551 209.9390672125969) rotate(0 170.00000000000006 -16.66667938232422)" stroke="none"><path fill="#ced4da" d="M -0.59,-1.19 Q -0.59,-1.19 1.11,-2.57 2.81,-3.95 4.69,-4.66 6.58,-5.38 8.34,-6.31 10.10,-7.24 11.92,-8.33 13.74,-9.41 15.71,-10.13 17.68,-10.85 19.46,-11.82 21.24,-12.80 23.21,-13.49 25.18,-14.19 27.27,-15.20 29.36,-16.20 30.91,-16.94 32.47,-17.67 33.50,-18.04 34.53,-18.41 35.65,-18.79 36.76,-19.16 39.04,-19.99 41.33,-20.82 42.96,-21.28 44.59,-21.73 46.53,-22.20 48.47,-22.66 50.73,-23.42 52.99,-24.18 55.65,-24.88 58.30,-25.59 59.68,-25.85 61.05,-26.12 62.49,-26.45 63.94,-26.77 66.13,-27.53 68.32,-28.29 70.72,-28.81 73.12,-29.32 74.41,-29.68 75.70,-30.04 78.14,-30.52 80.59,-31.01 82.79,-31.74 84.99,-32.47 87.11,-32.97 89.23,-33.47 91.15,-33.63 93.07,-33.79 96.16,-34.22 99.26,-34.64 100.45,-34.91 101.65,-35.18 103.59,-35.33 105.53,-35.47 106.86,-35.74 108.20,-36.01 109.92,-36.16 111.64,-36.30 112.83,-36.35 114.02,-36.41 115.24,-36.43 116.47,-36.45 118.44,-36.80 120.41,-37.15 122.07,-37.43 123.72,-37.70 126.62,-37.89 129.53,-38.08 130.85,-38.11 132.18,-38.13 134.31,-38.36 136.43,-38.60 137.65,-38.71 138.86,-38.82 140.15,-38.87 141.43,-38.91 143.27,-38.94 145.10,-38.97 147.52,-38.97 149.94,-38.98 151.81,-38.98 153.67,-38.98 155.25,-38.98 156.83,-38.98 158.94,-38.98 161.05,-38.98 162.42,-38.98 163.80,-38.98 165.58,-38.98 167.36,-38.98 168.60,-38.98 169.83,-38.98 171.08,-38.98 172.32,-38.97 174.14,-38.97 175.95,-38.97 177.35,-38.97 178.75,-38.97 180.08,-38.97 181.40,-38.97 182.69,-38.71 183.98,-38.44 185.43,-38.36 186.88,-38.29 189.12,-37.96 191.36,-37.63 193.54,-37.25 195.71,-36.86 197.85,-36.71 200.00,-36.56 202.05,-36.29 204.10,-36.02 207.07,-35.62 210.05,-35.23 211.87,-34.86 213.69,-34.49 215.05,-34.36 216.40,-34.23 218.03,-34.14 219.66,-34.06 221.16,-33.79 222.66,-33.53 223.81,-33.44 224.97,-33.35 226.39,-33.04 227.82,-32.73 229.34,-32.58 230.87,-32.44 231.92,-32.12 232.97,-31.80 234.46,-31.69 235.95,-31.57 238.97,-31.08 241.99,-30.60 243.64,-30.40 245.28,-30.20 246.84,-29.85 248.40,-29.50 250.70,-29.06 253.01,-28.63 254.82,-28.20 256.63,-27.77 258.20,-27.42 259.78,-27.07 260.91,-26.61 262.05,-26.16 263.73,-25.70 265.40,-25.24 266.46,-24.88 267.52,-24.51 269.34,-24.05 271.16,-23.58 272.57,-23.13 273.97,-22.69 275.50,-22.22 277.03,-21.76 278.30,-21.45 279.57,-21.13 280.57,-20.68 281.57,-20.23 282.69,-19.90 283.81,-19.57 285.78,-19.08 287.76,-18.58 288.86,-18.21 289.96,-17.85 291.51,-17.36 293.05,-16.88 294.55,-16.40 296.05,-15.93 297.55,-15.54 299.05,-15.14 300.22,-14.65 301.40,-14.15 303.49,-13.14 305.58,-12.14 306.72,-11.91 307.87,-11.69 309.39,-10.93 310.92,-10.18 312.05,-9.70 313.17,-9.23 314.55,-8.81 315.94,-8.40 317.56,-7.63 319.18,-6.87 320.30,-6.34 321.42,-5.82 323.16,-5.10 324.91,-4.37 326.33,-3.86 327.75,-3.35 329.31,-2.56 330.87,-1.78 332.04,-1.37 333.22,-0.97 334.39,-0.24 335.56,0.47 337.21,1.15 338.85,1.82 339.01,1.68 339.17,1.54 339.36,1.45 339.56,1.37 339.77,1.35 339.98,1.33 340.19,1.38 340.39,1.43 340.57,1.55 340.75,1.66 340.89,1.82 341.02,1.99 341.09,2.19 341.17,2.39 341.17,2.60 341.18,2.81 341.12,3.02 341.06,3.22 340.93,3.39 340.81,3.57 340.64,3.69 340.47,3.81 340.26,3.88 340.06,3.94 339.85,3.94 339.64,3.93 339.44,3.86 339.24,3.79 339.07,3.65 338.90,3.52 338.79,3.34 338.67,3.16 338.62,2.96 338.57,2.75 338.59,2.54 338.60,2.33 338.69,2.13 338.77,1.94 338.91,1.78 339.05,1.62 339.24,1.51 339.42,1.41 339.63,1.37 339.84,1.33 340.05,1.36 340.26,1.38 340.45,1.48 340.64,1.57 340.79,1.72 340.94,1.87 341.04,2.06 341.13,2.25 341.16,2.46 341.19,2.67 341.15,2.88 341.11,3.09 341.01,3.27 340.91,3.46 340.91,3.46 340.91,3.46 337.29,4.01 333.68,4.56 332.53,4.00 331.38,3.44 330.13,3.00 328.88,2.57 327.68,1.88 326.48,1.19 324.66,0.57 322.83,-0.03 321.58,-0.62 320.32,-1.20 318.67,-1.87 317.01,-2.54 316.04,-3.09 315.07,-3.65 313.43,-4.12 311.80,-4.59 310.24,-5.23 308.69,-5.88 307.09,-6.55 305.50,-7.21 303.44,-8.13 301.37,-9.04 300.02,-9.68 298.67,-10.31 297.60,-10.66 296.53,-11.01 295.21,-11.30 293.88,-11.60 292.59,-11.97 291.30,-12.35 289.86,-12.80 288.42,-13.24 286.58,-13.88 284.75,-14.52 283.56,-14.72 282.38,-14.93 280.39,-15.68 278.40,-16.43 276.36,-16.92 274.33,-17.41 272.70,-18.03 271.08,-18.65 269.64,-19.07 268.20,-19.50 267.07,-19.70 265.94,-19.91 264.17,-20.55 262.40,-21.19 260.56,-21.76 258.71,-22.33 257.00,-22.71 255.30,-23.09 253.56,-23.50 251.82,-23.91 250.78,-24.19 249.74,-24.46 248.53,-24.62 247.33,-24.79 246.01,-25.10 244.69,-25.40 242.94,-25.62 241.19,-25.84 237.90,-26.35 234.61,-26.86 233.02,-27.08 231.43,-27.30 230.24,-27.56 229.05,-27.82 227.91,-27.96 226.77,-28.10 225.67,-28.36 224.57,-28.62 223.17,-28.75 221.77,-28.87 220.63,-29.11 219.50,-29.35 217.71,-29.45 215.91,-29.55 214.33,-29.73 212.75,-29.90 211.05,-30.25 209.35,-30.61 207.51,-30.89 205.68,-31.17 204.58,-31.29 203.48,-31.41 201.64,-31.66 199.80,-31.92 198.53,-31.97 197.26,-32.03 196.05,-32.17 194.84,-32.31 192.58,-32.71 190.32,-33.12 188.46,-33.40 186.60,-33.67 183.98,-34.01 181.37,-34.35 180.06,-34.35 178.75,-34.35 177.35,-34.35 175.95,-34.35 174.14,-34.35 172.32,-34.35 171.08,-34.35 169.83,-34.35 168.60,-34.35 167.36,-34.35 165.58,-34.34 163.80,-34.34 162.42,-34.34 161.05,-34.34 158.94,-34.34 156.83,-34.34 155.25,-34.34 153.68,-34.34 151.81,-34.34 149.94,-34.34 147.54,-34.33 145.14,-34.33 143.37,-34.30 141.60,-34.28 140.44,-34.24 139.27,-34.20 138.11,-34.09 136.94,-33.99 134.60,-33.73 132.25,-33.47 130.95,-33.45 129.64,-33.43 127.23,-33.31 124.83,-33.19 123.57,-32.90 122.31,-32.61 120.54,-32.51 118.76,-32.41 117.69,-32.11 116.62,-31.81 115.42,-31.78 114.23,-31.76 113.12,-31.71 112.00,-31.66 110.55,-31.55 109.10,-31.44 107.48,-31.13 105.86,-30.82 104.24,-30.71 102.62,-30.61 101.08,-30.29 99.54,-29.98 97.71,-29.90 95.88,-29.82 94.66,-29.48 93.44,-29.14 91.88,-29.03 90.32,-28.93 88.39,-28.47 86.45,-28.02 85.25,-27.62 84.04,-27.22 82.77,-26.82 81.50,-26.41 79.22,-25.96 76.93,-25.52 75.50,-25.13 74.06,-24.74 71.94,-24.29 69.82,-23.85 68.63,-23.45 67.45,-23.05 66.21,-22.63 64.98,-22.21 63.45,-21.86 61.91,-21.51 60.79,-21.31 59.66,-21.11 56.92,-20.38 54.17,-19.65 52.86,-19.33 51.56,-19.01 50.58,-18.57 49.60,-18.12 47.90,-17.73 46.21,-17.33 44.39,-16.81 42.56,-16.30 40.42,-15.51 38.29,-14.71 36.38,-14.07 34.48,-13.42 32.86,-12.65 31.23,-11.88 28.97,-10.81 26.71,-9.74 25.05,-9.18 23.39,-8.62 21.31,-7.51 19.23,-6.41 17.60,-5.85 15.97,-5.28 14.86,-4.69 13.75,-4.10 12.09,-3.13 10.43,-2.17 9.30,-1.60 8.17,-1.03 6.51,-0.45 4.84,0.11 2.72,0.65 0.59,1.19 0.44,1.24 0.29,1.30 0.13,1.31 -0.02,1.33 -0.18,1.31 -0.34,1.29 -0.49,1.23 -0.64,1.17 -0.77,1.07 -0.90,0.98 -1.00,0.85 -1.11,0.73 -1.18,0.59 -1.25,0.44 -1.29,0.29 -1.32,0.13 -1.32,-0.02 -1.32,-0.18 -1.28,-0.34 -1.23,-0.49 -1.16,-0.63 -1.08,-0.78 -0.97,-0.89 -0.86,-1.01 -0.73,-1.10 -0.59,-1.19 -0.59,-1.19 L -0.59,-1.19 Z"></path></g><g transform="translate(33.234887138052386 191.60570844794847) rotate(0 174.16664123535162 -17.499980926513672)" stroke="none"><path fill="#ced4da" d="M -0.37,-1.68 Q -0.37,-1.68 1.72,-2.42 3.81,-3.17 5.11,-3.59 6.41,-4.01 7.85,-4.64 9.30,-5.28 11.45,-6.07 13.61,-6.86 14.62,-7.38 15.64,-7.89 17.51,-8.44 19.38,-9.00 21.03,-9.80 22.69,-10.60 23.87,-11.06 25.05,-11.52 26.84,-11.98 28.64,-12.43 30.59,-13.23 32.54,-14.03 34.46,-14.73 36.38,-15.44 38.60,-16.07 40.83,-16.70 42.56,-17.45 44.29,-18.20 46.06,-18.71 47.83,-19.22 48.91,-19.39 49.99,-19.56 51.25,-19.84 52.52,-20.12 54.16,-20.69 55.81,-21.26 57.18,-21.55 58.54,-21.85 60.54,-22.20 62.53,-22.56 63.72,-22.92 64.91,-23.28 66.36,-23.48 67.80,-23.68 70.00,-24.33 72.20,-24.99 73.52,-25.38 74.84,-25.76 76.72,-26.24 78.61,-26.72 80.89,-27.17 83.17,-27.62 85.47,-28.15 87.77,-28.69 90.05,-29.01 92.33,-29.33 94.71,-29.82 97.09,-30.31 98.96,-30.95 100.83,-31.58 103.15,-31.85 105.47,-32.12 107.40,-32.38 109.33,-32.64 111.33,-32.98 113.34,-33.33 114.73,-33.49 116.13,-33.64 117.82,-33.93 119.52,-34.21 121.26,-34.59 122.99,-34.97 125.20,-35.41 127.41,-35.84 129.23,-36.20 131.05,-36.55 132.12,-36.71 133.18,-36.88 134.43,-36.95 135.67,-37.02 137.87,-37.29 140.07,-37.55 142.02,-38.05 143.96,-38.56 145.83,-38.87 147.70,-39.19 149.58,-39.32 151.46,-39.46 153.95,-39.75 156.44,-40.05 158.60,-40.22 160.76,-40.39 162.77,-40.42 164.78,-40.45 166.11,-40.68 167.44,-40.91 169.78,-41.07 172.12,-41.23 174.84,-41.26 177.56,-41.29 179.62,-41.29 181.67,-41.30 183.89,-41.30 186.11,-41.30 187.94,-41.30 189.78,-41.30 191.04,-41.30 192.30,-41.30 193.79,-41.30 195.29,-41.30 197.48,-41.04 199.68,-40.77 201.68,-40.66 203.68,-40.54 205.85,-40.27 208.03,-40.01 209.34,-39.90 210.66,-39.80 211.91,-39.76 213.16,-39.72 214.76,-39.69 216.37,-39.66 218.00,-39.32 219.63,-38.99 220.92,-38.95 222.21,-38.92 224.31,-38.63 226.41,-38.33 227.92,-38.22 229.43,-38.11 231.32,-37.81 233.21,-37.52 234.92,-37.12 236.62,-36.73 239.04,-36.09 241.45,-35.45 243.55,-34.90 245.64,-34.35 247.76,-33.93 249.89,-33.52 252.06,-32.90 254.24,-32.28 255.68,-31.76 257.11,-31.24 258.58,-30.81 260.04,-30.39 261.87,-29.85 263.70,-29.31 264.95,-29.20 266.20,-29.08 267.53,-28.80 268.85,-28.51 270.65,-28.10 272.45,-27.69 274.69,-27.02 276.93,-26.34 278.84,-25.80 280.75,-25.27 281.95,-24.88 283.15,-24.50 284.22,-24.06 285.28,-23.63 286.56,-22.91 287.83,-22.19 289.24,-21.61 290.65,-21.03 292.32,-20.22 293.99,-19.41 295.49,-18.58 296.98,-17.75 298.34,-17.31 299.71,-16.88 301.01,-16.44 302.31,-16.00 303.96,-15.47 305.61,-14.95 307.29,-14.62 308.96,-14.30 310.18,-13.80 311.39,-13.30 312.64,-12.87 313.89,-12.44 315.34,-11.70 316.80,-10.97 317.91,-10.50 319.01,-10.04 320.68,-9.29 322.36,-8.54 323.58,-8.04 324.80,-7.54 326.02,-7.11 327.25,-6.68 328.97,-5.94 330.68,-5.20 332.34,-4.38 334.00,-3.57 335.18,-3.03 336.37,-2.48 337.67,-2.07 338.98,-1.65 340.72,-0.88 342.47,-0.11 343.60,0.38 344.73,0.88 346.21,1.52 347.70,2.16 347.85,2.20 348.00,2.24 348.14,2.31 348.28,2.39 348.40,2.49 348.52,2.60 348.61,2.73 348.70,2.86 348.75,3.01 348.81,3.16 348.83,3.31 348.85,3.47 348.83,3.63 348.81,3.78 348.75,3.93 348.70,4.08 348.60,4.21 348.51,4.34 348.40,4.44 348.28,4.55 348.14,4.62 348.00,4.70 347.84,4.73 347.69,4.77 347.53,4.77 347.37,4.77 346.80,4.09 346.22,3.40 346.27,3.19 346.31,2.99 346.42,2.80 346.53,2.62 346.69,2.48 346.85,2.34 347.05,2.26 347.24,2.19 347.46,2.17 347.67,2.16 347.87,2.22 348.08,2.27 348.26,2.39 348.43,2.51 348.56,2.68 348.69,2.84 348.76,3.05 348.83,3.25 348.83,3.46 348.83,3.67 348.76,3.87 348.70,4.08 348.57,4.25 348.44,4.41 348.27,4.54 348.09,4.66 347.89,4.71 347.68,4.77 347.47,4.76 347.26,4.75 347.06,4.67 346.86,4.60 346.70,4.46 346.54,4.32 346.43,4.14 346.32,3.96 346.27,3.75 346.22,3.54 346.24,3.33 346.27,3.12 346.36,2.93 346.44,2.73 346.59,2.58 346.73,2.42 346.92,2.32 347.11,2.22 347.32,2.19 347.53,2.15 347.74,2.19 347.95,2.22 348.14,2.32 348.32,2.42 348.47,2.57 348.62,2.72 348.71,2.92 348.80,3.11 348.25,2.64 347.70,2.16 347.85,2.20 348.00,2.24 348.14,2.31 348.28,2.39 348.40,2.49 348.52,2.60 348.61,2.73 348.70,2.86 348.75,3.01 348.81,3.16 348.83,3.31 348.85,3.47 348.83,3.63 348.81,3.78 348.75,3.93 348.70,4.08 348.60,4.21 348.51,4.34 348.40,4.44 348.28,4.55 348.14,4.62 348.00,4.70 347.84,4.73 347.69,4.77 347.53,4.77 347.37,4.77 346.09,5.17 344.82,5.58 343.39,5.10 341.97,4.61 340.75,4.19 339.53,3.77 337.95,3.17 336.38,2.57 335.11,2.06 333.84,1.56 332.87,1.13 331.89,0.70 330.28,-0.08 328.66,-0.87 327.39,-1.45 326.12,-2.03 324.79,-2.49 323.46,-2.94 321.89,-3.58 320.31,-4.22 318.98,-4.83 317.65,-5.44 316.10,-6.09 314.55,-6.73 313.22,-7.33 311.88,-7.92 310.28,-8.71 308.67,-9.50 306.95,-9.91 305.24,-10.32 304.15,-10.75 303.07,-11.18 301.23,-11.61 299.39,-12.05 297.93,-12.55 296.48,-13.05 295.33,-13.46 294.19,-13.88 293.04,-14.50 291.89,-15.11 290.29,-15.90 288.68,-16.68 287.07,-17.37 285.47,-18.05 283.57,-19.00 281.68,-19.95 280.52,-20.33 279.35,-20.71 277.34,-21.30 275.34,-21.89 274.04,-22.37 272.74,-22.86 271.07,-23.26 269.40,-23.67 267.65,-24.04 265.91,-24.41 263.99,-24.69 262.08,-24.96 260.41,-25.45 258.74,-25.94 257.13,-26.41 255.52,-26.89 254.23,-27.36 252.94,-27.84 250.97,-28.43 248.99,-29.03 246.67,-29.50 244.34,-29.97 243.28,-30.29 242.21,-30.61 241.16,-30.86 240.12,-31.11 237.76,-31.77 235.41,-32.44 233.78,-32.82 232.15,-33.21 230.69,-33.44 229.23,-33.68 227.33,-33.87 225.42,-34.05 223.74,-34.30 222.07,-34.54 220.62,-34.59 219.17,-34.64 217.69,-35.00 216.21,-35.36 214.60,-35.38 213.00,-35.41 211.66,-35.46 210.31,-35.51 208.90,-35.63 207.50,-35.75 205.53,-36.00 203.55,-36.25 201.16,-36.42 198.76,-36.59 197.02,-36.81 195.29,-37.02 193.79,-37.02 192.30,-37.02 191.04,-37.02 189.78,-37.02 187.94,-37.02 186.11,-37.02 183.89,-37.02 181.68,-37.02 179.63,-37.02 177.58,-37.01 174.92,-36.99 172.27,-36.96 170.20,-36.83 168.13,-36.69 166.47,-36.44 164.82,-36.18 162.88,-36.15 160.94,-36.12 159.03,-35.98 157.12,-35.83 154.43,-35.52 151.74,-35.20 150.16,-35.11 148.58,-35.01 147.21,-34.73 145.83,-34.44 144.38,-34.31 142.92,-34.18 141.90,-33.77 140.87,-33.36 138.39,-33.07 135.92,-32.77 133.90,-32.57 131.89,-32.37 130.07,-31.99 128.26,-31.61 126.30,-31.22 124.34,-30.82 122.30,-30.36 120.26,-29.89 118.44,-29.57 116.62,-29.24 115.36,-29.10 114.10,-28.97 112.14,-28.62 110.17,-28.28 107.94,-27.98 105.70,-27.68 103.88,-27.50 102.06,-27.32 100.89,-26.98 99.72,-26.64 97.69,-26.15 95.65,-25.65 94.38,-25.26 93.11,-24.87 91.47,-24.59 89.83,-24.30 88.02,-24.16 86.22,-24.02 85.15,-23.59 84.07,-23.17 81.98,-22.76 79.89,-22.35 78.00,-21.86 76.11,-21.38 74.69,-20.98 73.27,-20.57 71.89,-20.24 70.51,-19.92 69.46,-19.54 68.42,-19.16 67.31,-19.03 66.20,-18.90 64.76,-18.48 63.33,-18.06 61.40,-17.72 59.47,-17.38 58.38,-17.16 57.28,-16.94 55.39,-16.30 53.50,-15.66 51.34,-15.26 49.17,-14.85 48.10,-14.52 47.03,-14.19 45.52,-13.70 44.00,-13.21 43.01,-12.74 42.02,-12.28 40.12,-11.76 38.21,-11.24 36.17,-10.49 34.13,-9.73 33.08,-9.34 32.02,-8.95 30.90,-8.46 29.77,-7.98 28.24,-7.60 26.70,-7.22 24.80,-6.40 22.89,-5.59 21.77,-5.08 20.65,-4.58 19.16,-4.17 17.68,-3.77 16.43,-3.15 15.18,-2.54 13.14,-1.81 11.11,-1.07 9.45,-0.37 7.79,0.32 6.29,0.79 4.80,1.26 2.59,1.47 0.37,1.68 0.16,1.70 -0.03,1.72 -0.24,1.69 -0.45,1.66 -0.64,1.58 -0.83,1.50 -1.00,1.38 -1.17,1.26 -1.30,1.10 -1.43,0.94 -1.53,0.75 -1.62,0.57 -1.66,0.37 -1.71,0.16 -1.70,-0.03 -1.70,-0.24 -1.65,-0.44 -1.59,-0.64 -1.49,-0.82 -1.39,-1.01 -1.25,-1.16 -1.11,-1.31 -0.93,-1.42 -0.76,-1.54 -0.56,-1.61 -0.37,-1.68 -0.37,-1.68 L -0.37,-1.68 Z"></path></g><g transform="translate(19.90152837340395 108.27238783027269) rotate(0 186.66667938232428 -15.83333969116211)" stroke="none"><path fill="#ced4da" d="M -0.40,-1.41 Q -0.40,-1.41 1.16,-2.25 2.73,-3.10 3.99,-3.72 5.25,-4.34 6.94,-4.92 8.63,-5.50 10.35,-6.05 12.06,-6.59 13.95,-7.39 15.83,-8.18 18.02,-9.20 20.21,-10.23 22.42,-11.09 24.62,-11.96 26.73,-12.80 28.83,-13.64 30.45,-14.07 32.08,-14.51 33.68,-14.92 35.29,-15.34 36.59,-15.82 37.89,-16.31 39.73,-17.01 41.57,-17.71 43.50,-18.27 45.44,-18.84 46.68,-19.11 47.93,-19.39 50.00,-19.95 52.07,-20.52 53.56,-20.78 55.05,-21.05 57.60,-21.39 60.15,-21.74 62.37,-22.12 64.60,-22.50 65.84,-22.67 67.08,-22.84 68.47,-22.94 69.86,-23.05 70.97,-23.39 72.08,-23.73 73.98,-24.15 75.88,-24.57 77.40,-24.85 78.92,-25.13 81.04,-25.50 83.16,-25.86 84.60,-26.03 86.04,-26.19 87.21,-26.47 88.39,-26.75 90.19,-27.16 91.99,-27.58 94.26,-28.01 96.52,-28.45 98.35,-28.81 100.18,-29.17 101.52,-29.34 102.86,-29.51 104.19,-29.58 105.52,-29.65 106.87,-29.90 108.23,-30.15 109.79,-30.51 111.35,-30.87 113.26,-31.32 115.17,-31.76 117.18,-31.97 119.18,-32.17 120.62,-32.20 122.06,-32.22 123.73,-32.45 125.41,-32.68 128.05,-32.85 130.70,-33.03 132.82,-33.39 134.94,-33.75 136.65,-33.81 138.36,-33.86 140.93,-34.23 143.51,-34.60 145.76,-34.67 148.01,-34.74 149.64,-34.75 151.27,-34.76 152.83,-34.77 154.39,-34.77 155.80,-34.77 157.21,-34.77 159.21,-34.77 161.21,-34.77 163.01,-34.77 164.82,-34.77 166.98,-34.77 169.13,-34.78 171.13,-34.78 173.12,-34.79 174.81,-34.80 176.50,-34.81 177.98,-34.81 179.47,-34.81 180.58,-34.82 181.70,-34.82 183.11,-34.57 184.53,-34.32 186.36,-34.21 188.19,-34.09 189.99,-34.07 191.79,-34.05 192.95,-34.05 194.11,-34.05 195.98,-33.77 197.85,-33.49 200.00,-33.43 202.16,-33.37 203.91,-33.36 205.66,-33.35 207.27,-32.78 208.88,-32.21 209.98,-32.47 211.07,-32.72 212.24,-32.74 213.40,-32.75 215.20,-32.77 216.99,-32.79 218.46,-32.80 219.93,-32.81 222.02,-32.54 224.11,-32.27 226.10,-32.16 228.09,-32.05 229.70,-32.03 231.30,-32.00 232.37,-32.00 233.44,-32.00 235.03,-31.68 236.62,-31.36 238.56,-31.27 240.49,-31.18 241.56,-30.84 242.63,-30.50 244.73,-30.14 246.83,-29.79 248.35,-29.66 249.88,-29.53 251.49,-29.12 253.09,-28.72 254.70,-28.32 256.30,-27.93 258.36,-27.51 260.43,-27.10 262.18,-26.75 263.93,-26.41 265.20,-26.32 266.46,-26.23 267.62,-25.91 268.78,-25.59 270.39,-25.12 271.99,-24.66 274.06,-24.23 276.13,-23.81 278.21,-23.39 280.29,-22.98 281.85,-22.65 283.41,-22.32 284.76,-22.17 286.11,-22.02 287.34,-22.00 288.57,-21.98 290.76,-21.45 292.95,-20.91 294.69,-20.47 296.43,-20.03 297.73,-19.87 299.03,-19.71 300.61,-19.60 302.19,-19.48 303.83,-19.46 305.48,-19.43 306.67,-19.14 307.86,-18.84 309.01,-18.74 310.15,-18.65 311.35,-18.63 312.55,-18.60 314.14,-18.28 315.73,-17.96 317.31,-17.57 318.88,-17.19 320.02,-17.07 321.15,-16.95 322.36,-16.65 323.57,-16.36 325.83,-15.64 328.09,-14.93 329.60,-14.51 331.11,-14.09 332.82,-13.50 334.53,-12.92 336.41,-12.41 338.30,-11.90 340.25,-11.67 342.20,-11.44 343.90,-10.98 345.60,-10.52 346.93,-10.09 348.27,-9.66 349.74,-9.20 351.21,-8.73 352.57,-8.49 353.93,-8.25 355.63,-7.85 357.32,-7.45 358.93,-7.15 360.54,-6.86 362.34,-6.06 364.15,-5.25 365.27,-4.89 366.40,-4.53 367.41,-4.17 368.43,-3.81 369.64,-3.40 370.85,-2.99 371.96,-2.04 373.06,-1.09 373.20,-1.01 373.34,-0.93 373.45,-0.82 373.57,-0.71 373.65,-0.58 373.74,-0.45 373.79,-0.30 373.84,-0.15 373.86,0.00 373.87,0.16 373.85,0.31 373.82,0.47 373.76,0.62 373.70,0.76 373.61,0.89 373.51,1.02 373.39,1.12 373.27,1.22 373.13,1.29 372.99,1.36 372.83,1.39 372.68,1.42 372.52,1.42 372.36,1.41 372.21,1.37 372.05,1.33 371.66,0.83 371.26,0.33 371.26,0.12 371.26,-0.09 371.33,-0.29 371.40,-0.49 371.53,-0.66 371.66,-0.83 371.83,-0.95 372.01,-1.07 372.21,-1.12 372.42,-1.18 372.63,-1.17 372.84,-1.16 373.04,-1.08 373.24,-1.00 373.40,-0.86 373.56,-0.72 373.67,-0.54 373.78,-0.36 373.82,-0.15 373.87,0.05 373.85,0.26 373.82,0.47 373.73,0.66 373.65,0.85 373.50,1.01 373.35,1.16 373.17,1.26 372.98,1.36 372.77,1.39 372.56,1.43 372.35,1.39 372.14,1.36 371.95,1.26 371.76,1.16 371.62,1.01 371.47,0.85 371.38,0.66 371.29,0.47 371.27,0.26 371.25,0.04 371.29,-0.15 371.34,-0.36 371.45,-0.54 371.56,-0.73 371.72,-0.86 371.88,-1.00 372.08,-1.08 372.28,-1.16 372.49,-1.17 372.70,-1.18 372.91,-1.12 373.11,-1.07 373.29,-0.95 373.46,-0.83 373.59,-0.66 373.72,-0.49 373.39,-0.79 373.06,-1.09 373.20,-1.01 373.34,-0.93 373.45,-0.82 373.57,-0.71 373.65,-0.58 373.74,-0.45 373.79,-0.30 373.84,-0.15 373.86,0.00 373.87,0.16 373.85,0.31 373.82,0.47 373.76,0.62 373.70,0.76 373.61,0.89 373.51,1.02 373.39,1.12 373.27,1.22 373.13,1.29 372.99,1.36 372.83,1.39 372.68,1.42 372.52,1.42 372.36,1.41 372.21,1.37 372.05,1.33 370.39,1.73 368.73,2.13 367.48,1.71 366.24,1.28 364.88,0.67 363.52,0.06 362.49,-0.31 361.46,-0.68 360.34,-1.18 359.22,-1.68 357.63,-1.86 356.05,-2.04 354.40,-2.43 352.76,-2.82 350.56,-3.47 348.36,-4.13 346.79,-4.55 345.22,-4.98 343.91,-5.38 342.60,-5.79 340.74,-6.18 338.89,-6.58 337.33,-6.98 335.77,-7.38 333.89,-7.69 332.01,-8.00 330.81,-8.38 329.62,-8.76 328.24,-9.15 326.87,-9.54 324.47,-10.29 322.07,-11.04 320.95,-11.26 319.82,-11.49 318.44,-11.73 317.06,-11.97 315.48,-12.36 313.91,-12.74 312.63,-12.92 311.34,-13.10 309.88,-13.17 308.42,-13.24 306.90,-13.58 305.38,-13.91 303.67,-13.92 301.97,-13.94 300.14,-14.06 298.31,-14.17 296.69,-14.39 295.06,-14.61 293.31,-15.05 291.55,-15.49 290.03,-15.92 288.51,-16.35 287.18,-16.36 285.84,-16.37 284.67,-16.46 283.49,-16.55 281.83,-16.95 280.16,-17.35 278.08,-17.77 276.00,-18.18 273.89,-18.61 271.78,-19.04 270.68,-19.28 269.58,-19.51 268.34,-19.84 267.10,-20.17 265.68,-20.42 264.25,-20.68 263.19,-20.85 262.13,-21.01 260.82,-21.28 259.52,-21.55 258.03,-21.89 256.55,-22.24 255.15,-22.66 253.74,-23.08 252.22,-23.48 250.69,-23.87 249.42,-23.88 248.15,-23.90 246.74,-24.10 245.34,-24.30 244.01,-24.57 242.67,-24.84 240.57,-25.20 238.47,-25.56 237.33,-25.63 236.18,-25.69 234.81,-26.01 233.43,-26.33 232.34,-26.33 231.25,-26.34 229.58,-26.37 227.91,-26.40 226.45,-26.45 224.99,-26.50 223.19,-26.84 221.39,-27.17 220.05,-27.18 218.72,-27.18 216.95,-27.20 215.18,-27.21 213.77,-27.23 212.35,-27.24 210.82,-27.32 209.28,-27.39 208.18,-27.53 207.08,-27.67 205.64,-28.02 204.19,-28.36 203.10,-28.39 202.01,-28.42 200.52,-28.49 199.03,-28.56 197.75,-28.72 196.47,-28.87 195.28,-29.08 194.10,-29.28 192.93,-29.29 191.76,-29.30 189.89,-29.33 188.03,-29.36 186.64,-29.42 185.24,-29.48 183.46,-29.83 181.68,-30.17 180.57,-30.17 179.47,-30.18 177.98,-30.18 176.50,-30.18 174.81,-30.19 173.12,-30.20 171.13,-30.21 169.13,-30.21 166.98,-30.22 164.82,-30.22 163.01,-30.22 161.21,-30.22 159.21,-30.22 157.21,-30.22 155.80,-30.22 154.40,-30.22 152.85,-30.22 151.29,-30.22 149.68,-30.20 148.07,-30.19 145.96,-30.13 143.85,-30.07 142.55,-29.98 141.26,-29.89 139.88,-29.61 138.50,-29.32 136.09,-29.19 133.67,-29.06 132.25,-28.78 130.83,-28.50 128.62,-28.38 126.41,-28.26 124.27,-27.98 122.13,-27.70 120.77,-27.68 119.41,-27.66 117.82,-27.51 116.23,-27.37 114.51,-26.98 112.79,-26.60 110.91,-26.15 109.02,-25.71 107.39,-25.43 105.76,-25.14 104.59,-25.08 103.41,-25.02 102.24,-24.88 101.06,-24.74 99.23,-24.38 97.39,-24.01 95.30,-23.61 93.21,-23.21 91.31,-22.77 89.42,-22.34 87.99,-22.01 86.55,-21.68 85.24,-21.53 83.93,-21.39 81.84,-21.03 79.75,-20.67 77.41,-20.28 75.07,-19.90 73.63,-19.52 72.19,-19.15 71.17,-18.83 70.15,-18.52 68.92,-18.43 67.69,-18.34 66.53,-18.18 65.36,-18.02 63.06,-17.63 60.76,-17.24 58.30,-16.90 55.83,-16.56 54.54,-16.34 53.25,-16.12 50.09,-15.37 46.92,-14.63 45.26,-14.06 43.59,-13.50 42.51,-13.33 41.42,-13.17 40.41,-12.64 39.41,-12.11 37.22,-11.44 35.03,-10.77 33.95,-10.47 32.88,-10.17 31.76,-9.89 30.65,-9.61 28.53,-8.77 26.42,-7.93 24.19,-7.05 21.95,-6.16 19.59,-5.06 17.24,-3.96 15.47,-3.18 13.70,-2.41 11.88,-1.83 10.06,-1.25 8.62,-0.77 7.18,-0.30 5.57,0.44 3.97,1.19 2.18,1.30 0.40,1.41 0.22,1.43 0.05,1.46 -0.12,1.45 -0.29,1.43 -0.46,1.38 -0.63,1.32 -0.78,1.22 -0.93,1.13 -1.05,1.00 -1.17,0.87 -1.26,0.72 -1.35,0.57 -1.40,0.40 -1.45,0.23 -1.45,0.05 -1.46,-0.12 -1.42,-0.29 -1.39,-0.47 -1.31,-0.62 -1.23,-0.78 -1.12,-0.92 -1.01,-1.06 -0.87,-1.16 -0.72,-1.27 -0.56,-1.34 -0.40,-1.41 -0.40,-1.41 L -0.40,-1.41 Z"></path></g><g transform="translate(76.70119771080988 114.90104617213274) rotate(0 -16.837748676958938 27.45283289082488)" stroke="none"><path fill="#000000" d="M -0.79,1.32 Q -0.79,1.32 -2.02,0.98 -3.24,0.64 -4.98,-0.14 -6.71,-0.93 -8.52,-1.66 -10.33,-2.38 -11.68,-2.70 -13.03,-3.02 -14.34,-3.38 -15.64,-3.75 -17.21,-4.20 -18.77,-4.65 -20.01,-4.72 -21.25,-4.79 -22.81,-5.24 -24.37,-5.70 -25.47,-5.62 -26.57,-5.54 -27.95,-5.54 -29.34,-5.53 -30.42,-5.52 -31.51,-5.51 -32.95,-4.83 -34.39,-4.15 -35.26,-3.33 -36.14,-2.51 -36.84,-1.55 -37.55,-0.58 -38.24,0.57 -38.93,1.74 -39.64,2.88 -40.35,4.02 -40.76,5.17 -41.18,6.32 -41.52,7.67 -41.86,9.01 -42.13,10.56 -42.41,12.11 -42.53,13.69 -42.66,15.26 -42.93,17.13 -43.21,19.00 -43.30,20.25 -43.39,21.50 -43.41,23.42 -43.43,25.35 -43.42,26.68 -43.42,28.01 -43.12,29.64 -42.82,31.26 -42.55,33.09 -42.29,34.92 -42.14,36.57 -42.00,38.21 -41.48,39.80 -40.97,41.39 -40.57,43.04 -40.18,44.70 -39.40,46.53 -38.61,48.37 -38.04,49.82 -37.46,51.27 -36.65,52.42 -35.84,53.57 -34.86,54.75 -33.88,55.93 -32.50,56.87 -31.12,57.81 -29.93,58.19 -28.75,58.58 -27.60,58.96 -26.45,59.34 -25.38,59.60 -24.31,59.86 -22.80,59.98 -21.29,60.10 -19.85,60.12 -18.41,60.14 -16.95,60.15 -15.50,60.16 -14.33,60.15 -13.17,60.15 -12.06,60.15 -10.95,60.16 -9.86,60.15 -8.77,60.14 -7.34,59.44 -5.91,58.74 -4.71,58.30 -3.51,57.85 -2.00,56.75 -0.50,55.66 1.12,54.16 2.76,52.66 3.70,51.68 4.64,50.70 5.36,49.77 6.08,48.84 6.64,47.72 7.21,46.59 7.89,45.33 8.57,44.06 8.74,42.62 8.91,41.18 9.15,39.84 9.40,38.49 9.48,37.33 9.56,36.17 10.34,34.70 11.12,33.24 11.16,33.03 11.20,32.82 11.30,32.63 11.41,32.45 11.57,32.31 11.73,32.17 11.92,32.08 12.12,32.00 12.33,31.99 12.54,31.97 12.75,32.02 12.95,32.07 13.13,32.19 13.31,32.30 13.44,32.47 13.58,32.64 13.65,32.84 13.72,33.04 13.73,33.25 13.73,33.46 13.67,33.66 13.60,33.87 13.48,34.04 13.35,34.21 13.18,34.33 13.01,34.46 12.80,34.52 12.60,34.58 12.39,34.57 12.18,34.57 11.98,34.49 11.78,34.42 11.61,34.28 11.45,34.15 11.33,33.97 11.22,33.79 11.17,33.58 11.12,33.38 11.14,33.17 11.16,32.95 11.24,32.76 11.33,32.56 11.47,32.41 11.61,32.25 11.80,32.15 11.98,32.04 12.19,32.00 12.40,31.96 12.61,31.99 12.82,32.02 13.01,32.12 13.20,32.21 13.35,32.37 13.50,32.52 13.59,32.71 13.69,32.90 13.71,33.11 13.74,33.32 13.74,33.32 13.74,33.32 14.39,34.94 15.04,36.56 14.93,38.05 14.82,39.54 14.59,41.26 14.37,42.98 14.07,44.63 13.76,46.28 12.99,47.73 12.22,49.17 11.38,50.74 10.54,52.32 9.62,53.47 8.71,54.62 7.79,55.57 6.87,56.52 5.41,58.02 3.94,59.51 2.81,60.15 1.67,60.78 0.20,61.89 -1.27,63.00 -2.31,63.39 -3.36,63.77 -4.87,64.51 -6.38,65.24 -8.04,65.51 -9.70,65.77 -10.81,65.76 -11.91,65.75 -13.04,65.76 -14.17,65.76 -15.43,65.76 -16.69,65.76 -18.20,65.74 -19.71,65.72 -21.41,65.65 -23.11,65.58 -24.37,65.43 -25.64,65.28 -27.38,64.84 -29.12,64.41 -30.36,64.00 -31.60,63.59 -32.63,63.18 -33.66,62.77 -35.08,61.97 -36.49,61.16 -37.48,60.21 -38.46,59.26 -39.48,57.96 -40.50,56.65 -41.51,55.09 -42.52,53.52 -43.04,52.23 -43.56,50.94 -44.20,49.64 -44.84,48.34 -45.18,47.27 -45.52,46.19 -45.92,44.43 -46.32,42.68 -46.87,40.65 -47.43,38.63 -47.55,37.24 -47.68,35.85 -47.91,34.38 -48.14,32.92 -48.22,31.60 -48.29,30.28 -48.55,29.16 -48.80,28.04 -48.79,26.68 -48.78,25.32 -48.75,23.29 -48.73,21.26 -48.55,19.52 -48.38,17.78 -48.17,16.41 -47.97,15.05 -47.78,12.98 -47.60,10.92 -47.35,9.87 -47.10,8.83 -46.73,7.62 -46.37,6.41 -46.11,5.15 -45.85,3.90 -45.42,2.68 -44.98,1.47 -44.06,-0.09 -43.14,-1.66 -42.02,-3.11 -40.90,-4.57 -39.77,-5.73 -38.64,-6.90 -37.43,-7.97 -36.21,-9.03 -34.74,-9.80 -33.26,-10.57 -31.91,-10.57 -30.56,-10.58 -28.90,-10.56 -27.24,-10.54 -25.99,-10.50 -24.74,-10.46 -23.41,-10.07 -22.07,-9.67 -20.80,-9.62 -19.53,-9.57 -18.32,-9.37 -17.11,-9.16 -15.71,-8.75 -14.31,-8.33 -13.09,-7.96 -11.88,-7.59 -10.29,-7.17 -8.69,-6.75 -6.83,-5.95 -4.96,-5.16 -2.96,-4.16 -0.96,-3.16 -0.08,-2.24 0.79,-1.32 0.94,-1.21 1.08,-1.09 1.20,-0.95 1.31,-0.80 1.39,-0.63 1.47,-0.46 1.50,-0.28 1.54,-0.09 1.53,0.08 1.52,0.27 1.46,0.45 1.41,0.62 1.31,0.78 1.21,0.94 1.08,1.08 0.95,1.21 0.79,1.31 0.63,1.40 0.46,1.46 0.28,1.51 0.09,1.53 -0.08,1.54 -0.27,1.50 -0.45,1.47 -0.62,1.40 -0.79,1.32 -0.79,1.32 L -0.79,1.32 Z"></path></g><g transform="translate(98.66346402346983 90.74255322820636) rotate(0 22.694330685829016 31.11322178018804)" stroke="none"><path fill="#000000" d="M 1.32,0 Q 1.32,0 1.86,1.68 2.40,3.36 2.61,4.98 2.83,6.60 3.46,9.14 4.10,11.67 4.80,13.72 5.51,15.77 6.27,17.89 7.02,20.01 7.73,21.65 8.43,23.29 9.06,24.94 9.69,26.60 10.17,28.04 10.64,29.48 11.11,31.23 11.59,32.97 11.94,34.25 12.30,35.53 12.97,37.09 13.64,38.65 14.40,40.42 15.16,42.18 15.85,43.74 16.53,45.30 16.79,46.34 17.04,47.38 17.44,48.62 17.84,49.87 18.18,51.19 18.53,52.50 19.01,53.62 19.49,54.73 20.11,55.90 20.74,57.07 21.51,58.61 22.29,60.15 23.04,61.89 23.80,63.63 24.74,64.58 25.69,65.54 27.11,66.00 28.53,66.47 30.04,66.55 31.55,66.63 33.04,66.35 34.54,66.07 35.80,65.90 37.06,65.74 37.96,64.80 38.86,63.85 39.43,62.59 39.99,61.33 40.41,59.78 40.83,58.23 41.13,57.20 41.44,56.18 41.56,54.51 41.68,52.85 41.97,51.76 42.26,50.68 42.34,48.90 42.43,47.12 42.46,45.59 42.49,44.06 42.49,42.89 42.49,41.72 42.49,40.61 42.49,39.50 42.49,38.10 42.49,36.70 42.49,35.25 42.50,33.80 42.20,31.60 41.90,29.41 41.39,27.61 40.88,25.81 40.70,24.51 40.52,23.20 40.15,21.87 39.77,20.53 39.52,19.32 39.27,18.11 39.14,16.74 39.02,15.37 38.60,14.01 38.18,12.65 37.71,11.48 37.24,10.31 36.73,8.86 36.22,7.40 35.51,5.92 34.79,4.44 34.36,2.87 33.93,1.29 33.58,0.21 33.22,-0.86 32.87,-1.99 32.51,-3.12 32.85,-4.70 33.19,-6.29 33.17,-6.44 33.15,-6.60 33.16,-6.76 33.18,-6.91 33.23,-7.06 33.29,-7.21 33.38,-7.34 33.46,-7.48 33.58,-7.58 33.70,-7.69 33.84,-7.76 33.98,-7.84 34.13,-7.88 34.28,-7.92 34.44,-7.92 34.60,-7.92 34.75,-7.89 34.91,-7.85 35.05,-7.78 35.19,-7.71 35.31,-7.61 35.43,-7.50 35.52,-7.37 35.61,-7.24 35.67,-7.10 35.73,-6.95 35.24,-6.14 34.74,-5.34 34.53,-5.32 34.32,-5.31 34.11,-5.37 33.91,-5.43 33.73,-5.54 33.56,-5.66 33.43,-5.83 33.30,-6.00 33.23,-6.20 33.16,-6.40 33.16,-6.62 33.16,-6.83 33.23,-7.03 33.30,-7.23 33.43,-7.40 33.56,-7.57 33.73,-7.69 33.91,-7.81 34.11,-7.87 34.32,-7.92 34.53,-7.91 34.74,-7.90 34.94,-7.82 35.14,-7.74 35.30,-7.61 35.46,-7.47 35.57,-7.29 35.68,-7.11 35.72,-6.90 35.77,-6.69 35.75,-6.48 35.73,-6.27 35.64,-6.08 35.55,-5.88 35.40,-5.73 35.26,-5.57 35.07,-5.47 34.88,-5.37 34.67,-5.34 34.46,-5.30 34.25,-5.34 34.04,-5.37 33.85,-5.47 33.67,-5.57 33.52,-5.73 33.37,-5.88 33.28,-6.07 33.19,-6.27 33.17,-6.48 33.15,-6.69 33.19,-6.90 33.24,-7.10 33.35,-7.29 33.46,-7.47 33.62,-7.61 33.78,-7.74 33.49,-7.01 33.19,-6.29 33.17,-6.44 33.15,-6.60 33.16,-6.76 33.18,-6.91 33.23,-7.06 33.29,-7.21 33.38,-7.34 33.46,-7.48 33.58,-7.58 33.70,-7.69 33.84,-7.76 33.98,-7.84 34.13,-7.88 34.28,-7.92 34.44,-7.92 34.60,-7.92 34.75,-7.89 34.91,-7.85 35.05,-7.78 35.19,-7.71 35.31,-7.61 35.43,-7.50 35.52,-7.37 35.61,-7.24 35.67,-7.10 35.73,-6.95 36.84,-5.74 37.94,-4.52 38.42,-3.08 38.91,-1.64 39.26,-0.55 39.62,0.53 39.92,1.66 40.23,2.80 41.01,4.36 41.80,5.92 42.26,7.17 42.72,8.42 43.32,10.24 43.92,12.06 44.24,13.23 44.55,14.40 44.71,15.50 44.86,16.60 45.20,18.51 45.54,20.43 45.98,22.30 46.43,24.16 46.76,25.29 47.09,26.41 47.39,28.16 47.68,29.91 47.98,31.86 48.27,33.80 48.27,35.25 48.28,36.70 48.27,38.10 48.27,39.51 48.28,40.62 48.28,41.74 48.27,42.93 48.26,44.13 48.24,45.72 48.22,47.31 48.17,48.66 48.13,50.00 47.80,51.57 47.47,53.15 47.26,55.50 47.04,57.85 46.59,59.52 46.13,61.20 45.25,63.39 44.38,65.57 42.97,67.43 41.56,69.29 40.49,69.99 39.42,70.69 38.20,71.19 36.98,71.69 35.89,71.74 34.80,71.78 33.07,72.09 31.34,72.40 29.95,72.32 28.56,72.24 27.22,71.91 25.88,71.58 24.12,70.95 22.37,70.33 21.58,69.52 20.79,68.71 19.95,67.68 19.11,66.65 18.44,65.28 17.77,63.92 17.41,62.85 17.06,61.78 16.29,60.24 15.52,58.70 14.94,57.07 14.35,55.45 13.77,54.10 13.19,52.76 12.81,51.55 12.43,50.35 12.04,48.92 11.66,47.50 10.88,45.68 10.10,43.86 9.41,42.20 8.71,40.54 7.96,38.72 7.21,36.90 6.90,35.68 6.59,34.46 6.14,32.76 5.69,31.05 5.32,29.87 4.96,28.68 4.42,27.37 3.88,26.06 3.44,24.69 3.00,23.32 2.57,22.33 2.14,21.33 1.44,19.26 0.73,17.18 0.41,16.04 0.10,14.89 -0.30,13.78 -0.70,12.66 -1.00,11.10 -1.29,9.54 -1.64,8.37 -1.99,7.19 -2.19,5.28 -2.40,3.36 -1.86,1.68 -1.32,0 -1.30,-0.15 -1.28,-0.31 -1.22,-0.46 -1.16,-0.61 -1.07,-0.74 -0.98,-0.87 -0.86,-0.98 -0.75,-1.08 -0.60,-1.16 -0.46,-1.23 -0.31,-1.27 -0.15,-1.31 0.00,-1.31 0.15,-1.31 0.31,-1.27 0.46,-1.23 0.60,-1.16 0.75,-1.08 0.86,-0.98 0.98,-0.87 1.07,-0.74 1.16,-0.61 1.22,-0.46 1.28,-0.31 1.30,-0.15 1.32,0.00 1.32,0.00 L 1.32,0 Z"></path></g><g transform="translate(158.6936809525797 82.6897110763116) rotate(0 1.8301776888019958 35.5056750427201)" stroke="none"><path fill="#000000" d="M 1.42,0.20 Q 1.42,0.20 1.72,1.74 2.02,3.29 1.96,4.86 1.89,6.42 2.36,10.38 2.83,14.34 2.95,15.85 3.08,17.36 3.33,19.63 3.59,21.91 3.72,23.58 3.84,25.25 4.10,27.12 4.35,28.99 4.47,30.06 4.59,31.13 4.66,32.72 4.72,34.31 4.75,36.17 4.79,38.04 4.80,39.56 4.81,41.07 5.11,42.44 5.41,43.81 5.68,45.60 5.94,47.40 6.07,48.93 6.19,50.46 6.45,52.02 6.71,53.57 6.88,55.18 7.06,56.79 7.10,58.03 7.13,59.26 7.16,61.10 7.19,62.95 7.21,64.27 7.22,65.59 7.24,66.91 7.25,68.23 5.84,69.32 4.43,70.42 4.41,70.57 4.39,70.73 4.33,70.88 4.27,71.03 4.18,71.16 4.09,71.29 3.98,71.39 3.86,71.50 3.72,71.57 3.58,71.64 3.42,71.68 3.27,71.72 3.11,71.72 2.95,71.72 2.80,71.68 2.65,71.64 2.51,71.57 2.37,71.50 2.25,71.39 2.13,71.29 2.04,71.16 1.95,71.03 1.89,70.88 1.84,70.73 1.82,70.57 1.80,70.42 1.91,70.79 2.03,71.16 1.94,70.96 1.85,70.77 1.82,70.56 1.80,70.35 1.85,70.14 1.89,69.93 2.00,69.75 2.11,69.57 2.27,69.43 2.43,69.29 2.63,69.21 2.83,69.13 3.04,69.12 3.25,69.11 3.45,69.17 3.66,69.22 3.84,69.34 4.01,69.46 4.14,69.63 4.27,69.80 4.34,70.00 4.41,70.20 4.41,70.41 4.41,70.63 4.34,70.83 4.27,71.03 4.15,71.20 4.02,71.37 3.84,71.49 3.67,71.61 3.46,71.66 3.26,71.72 3.05,71.71 2.83,71.70 2.64,71.62 2.44,71.54 2.28,71.41 2.11,71.27 2.00,71.09 1.89,70.91 1.85,70.70 1.80,70.49 1.82,70.28 1.85,70.07 1.93,69.88 2.02,69.68 2.17,69.53 2.31,69.37 2.50,69.27 2.69,69.17 2.90,69.14 3.11,69.10 3.32,69.14 3.53,69.17 3.72,69.27 3.90,69.37 4.16,69.89 4.43,70.42 4.41,70.57 4.39,70.73 4.33,70.88 4.27,71.03 4.18,71.16 4.09,71.29 3.98,71.39 3.86,71.50 3.72,71.57 3.58,71.64 3.42,71.68 3.27,71.72 3.11,71.72 2.95,71.72 2.80,71.68 2.65,71.64 2.51,71.57 2.37,71.50 2.25,71.39 2.13,71.29 2.04,71.16 1.95,71.03 1.89,70.88 1.84,70.73 1.82,70.57 1.80,70.42 1.66,69.32 1.53,68.23 1.54,66.91 1.55,65.60 1.56,64.28 1.58,62.96 1.60,61.15 1.62,59.34 1.61,58.27 1.59,57.19 1.49,56.00 1.39,54.82 1.11,52.82 0.83,50.83 0.77,49.57 0.70,48.31 0.43,46.33 0.17,44.34 -0.12,42.76 -0.43,41.18 -0.42,39.63 -0.42,38.08 -0.44,36.28 -0.46,34.47 -0.59,32.07 -0.72,29.66 -0.98,27.63 -1.24,25.60 -1.34,24.04 -1.44,22.48 -1.70,20.12 -1.97,17.76 -2.09,16.29 -2.21,14.82 -2.47,11.88 -2.72,8.94 -2.91,7.56 -3.09,6.18 -2.98,4.38 -2.86,2.59 -2.14,1.19 -1.42,-0.20 -1.38,-0.37 -1.33,-0.53 -1.25,-0.69 -1.16,-0.84 -1.05,-0.97 -0.93,-1.09 -0.78,-1.19 -0.64,-1.29 -0.47,-1.34 -0.31,-1.40 -0.14,-1.42 0.03,-1.44 0.20,-1.41 0.37,-1.39 0.53,-1.32 0.69,-1.26 0.83,-1.16 0.97,-1.05 1.09,-0.92 1.20,-0.79 1.28,-0.63 1.35,-0.48 1.39,-0.31 1.43,-0.14 1.43,0.03 1.42,0.20 1.42,0.20 L 1.42,0.20 Z"></path></g><g transform="translate(161.62193844525598 84.8859377075778) rotate(0 15.007570988156829 13.909457672523786)" stroke="none"><path fill="#000000" d="M -1.13,-0.68 Q -1.13,-0.68 -1.02,-2.04 -0.91,-3.41 0.47,-4.93 1.87,-6.46 3.01,-7.04 4.15,-7.62 6.29,-8.03 8.44,-8.43 9.81,-8.49 11.17,-8.55 13.13,-8.57 15.09,-8.60 16.76,-8.60 18.43,-8.60 19.46,-8.32 20.48,-8.04 22.14,-7.72 23.80,-7.41 25.47,-6.74 27.14,-6.08 28.13,-5.33 29.11,-4.58 30.49,-2.81 31.87,-1.04 32.20,0.57 32.54,2.18 32.67,4.53 32.81,6.88 32.62,8.68 32.42,10.47 32.06,11.63 31.71,12.79 31.07,14.01 30.43,15.24 29.69,17.07 28.95,18.91 27.82,20.59 26.69,22.27 25.21,23.68 23.73,25.10 22.32,26.04 20.90,26.97 19.31,28.15 17.71,29.33 16.18,29.98 14.65,30.64 12.98,31.43 11.32,32.23 9.65,32.88 7.99,33.53 6.34,34.19 4.70,34.84 3.34,34.80 1.99,34.76 1.84,34.82 1.70,34.89 1.55,34.92 1.39,34.95 1.23,34.94 1.07,34.94 0.92,34.89 0.77,34.84 0.63,34.76 0.50,34.68 0.38,34.57 0.27,34.46 0.19,34.33 0.10,34.19 0.05,34.04 0.01,33.89 -0.00,33.74 -0.01,33.58 0.01,33.42 0.04,33.27 0.10,33.12 0.16,32.98 0.26,32.85 0.35,32.72 0.48,32.62 0.60,32.53 1.26,32.51 1.93,32.49 2.10,32.62 2.26,32.75 2.38,32.93 2.50,33.11 2.55,33.31 2.60,33.52 2.59,33.73 2.57,33.94 2.49,34.14 2.41,34.34 2.27,34.50 2.13,34.66 1.94,34.76 1.76,34.87 1.55,34.91 1.34,34.95 1.13,34.93 0.92,34.90 0.73,34.81 0.54,34.72 0.39,34.57 0.24,34.42 0.14,34.23 0.04,34.04 0.01,33.83 -0.01,33.62 0.02,33.41 0.06,33.20 0.16,33.02 0.26,32.83 0.42,32.69 0.58,32.54 0.77,32.46 0.96,32.37 1.18,32.35 1.39,32.33 1.59,32.38 1.80,32.43 1.98,32.54 2.16,32.65 2.30,32.82 2.43,32.98 2.51,33.18 2.58,33.38 2.59,33.59 2.60,33.80 2.54,34.01 2.48,34.21 2.36,34.39 2.23,34.56 2.06,34.69 1.89,34.81 1.69,34.88 1.49,34.94 1.27,34.94 1.06,34.93 1.52,34.84 1.99,34.76 1.84,34.82 1.70,34.89 1.55,34.92 1.39,34.95 1.23,34.94 1.07,34.94 0.92,34.89 0.77,34.84 0.63,34.76 0.50,34.68 0.38,34.57 0.27,34.46 0.19,34.33 0.10,34.19 0.05,34.04 0.01,33.89 -0.00,33.74 -0.01,33.58 0.01,33.42 0.04,33.27 0.10,33.12 0.16,32.98 0.26,32.85 0.35,32.72 0.48,32.62 0.60,32.53 1.74,30.78 2.89,29.04 4.20,28.50 5.51,27.97 6.84,27.41 8.16,26.85 9.37,26.44 10.58,26.03 12.46,25.21 14.34,24.39 16.05,23.20 17.76,22.02 18.73,21.44 19.71,20.86 20.82,19.92 21.94,18.99 22.54,18.10 23.14,17.20 23.90,16.00 24.65,14.81 25.00,13.66 25.35,12.52 26.03,11.13 26.72,9.74 26.91,8.38 27.11,7.03 27.02,5.04 26.93,3.06 26.29,1.44 25.65,-0.16 24.58,-0.99 23.51,-1.82 22.30,-2.16 21.09,-2.49 19.71,-2.79 18.34,-3.10 16.73,-3.09 15.12,-3.08 13.21,-3.07 11.31,-3.06 9.25,-3.06 7.19,-3.06 6.12,-2.70 5.06,-2.33 4.25,-1.56 3.43,-0.79 2.28,-0.05 1.13,0.68 1.04,0.80 0.94,0.93 0.81,1.03 0.69,1.13 0.54,1.20 0.39,1.26 0.24,1.29 0.08,1.32 -0.07,1.31 -0.23,1.30 -0.38,1.26 -0.54,1.21 -0.67,1.13 -0.81,1.04 -0.92,0.93 -1.04,0.82 -1.12,0.68 -1.20,0.54 -1.25,0.39 -1.30,0.24 -1.31,0.08 -1.32,-0.07 -1.29,-0.23 -1.26,-0.39 -1.20,-0.53 -1.13,-0.68 -1.13,-0.68 L -1.13,-0.68 Z"></path></g><g transform="translate(184.316302642844 110.5085929096008) rotate(0 8.418857582600026 21.962266312659835)" stroke="none"><path fill="#000000" d="M 1.66,-0.83 Q 1.66,-0.83 2.77,0.19 3.89,1.21 4.44,2.76 5.00,4.31 6.00,6.72 7.00,9.14 7.45,10.14 7.89,11.15 8.36,12.59 8.82,14.02 9.78,16.30 10.73,18.58 11.23,20.44 11.72,22.30 12.40,24.59 13.07,26.88 13.69,28.51 14.30,30.14 14.61,31.17 14.92,32.20 15.41,33.62 15.89,35.05 16.28,36.19 16.67,37.33 17.39,38.80 18.11,40.27 18.09,41.92 18.06,43.58 18.09,43.74 18.12,43.89 18.10,44.05 18.09,44.21 18.04,44.36 17.99,44.51 17.91,44.64 17.83,44.78 17.71,44.89 17.60,45.00 17.46,45.08 17.32,45.16 17.17,45.20 17.02,45.25 16.86,45.26 16.70,45.26 16.55,45.23 16.39,45.20 16.25,45.13 16.11,45.07 15.98,44.97 15.86,44.87 15.77,44.74 15.67,44.62 15.61,44.47 15.54,44.33 15.83,43.58 16.12,42.83 16.32,42.75 16.52,42.67 16.73,42.66 16.94,42.65 17.15,42.70 17.35,42.76 17.53,42.88 17.70,43.00 17.83,43.17 17.96,43.34 18.03,43.54 18.10,43.74 18.10,43.95 18.10,44.16 18.03,44.37 17.97,44.57 17.84,44.74 17.71,44.91 17.53,45.03 17.36,45.14 17.15,45.20 16.95,45.26 16.74,45.25 16.52,45.24 16.33,45.16 16.13,45.08 15.97,44.94 15.80,44.81 15.69,44.62 15.58,44.44 15.54,44.23 15.49,44.03 15.51,43.82 15.54,43.60 15.63,43.41 15.72,43.22 15.86,43.06 16.01,42.91 16.19,42.81 16.38,42.71 16.59,42.68 16.80,42.64 17.01,42.67 17.22,42.71 17.41,42.81 17.60,42.91 17.74,43.06 17.89,43.22 17.98,43.41 18.07,43.60 18.09,43.81 18.12,44.02 18.07,44.23 18.02,44.44 17.92,44.62 17.81,44.80 17.93,44.19 18.06,43.58 18.09,43.74 18.12,43.89 18.10,44.05 18.09,44.21 18.04,44.36 17.99,44.51 17.91,44.64 17.83,44.78 17.71,44.89 17.60,45.00 17.46,45.08 17.32,45.16 17.17,45.20 17.02,45.25 16.86,45.26 16.70,45.26 16.55,45.23 16.39,45.20 16.25,45.13 16.11,45.07 15.98,44.97 15.86,44.87 15.77,44.74 15.67,44.62 15.61,44.47 15.54,44.33 13.60,42.40 11.66,40.47 11.18,39.36 10.70,38.24 10.30,37.01 9.91,35.78 9.30,34.02 8.70,32.27 8.04,30.56 7.39,28.85 6.67,26.34 5.94,23.83 5.52,22.24 5.10,20.65 4.59,19.22 4.08,17.79 3.61,16.81 3.14,15.83 2.79,14.69 2.44,13.56 1.96,12.46 1.47,11.37 0.89,9.89 0.30,8.42 -0.12,7.33 -0.56,6.25 -0.96,5.04 -1.36,3.83 -1.51,2.33 -1.66,0.83 -1.74,0.62 -1.81,0.41 -1.84,0.18 -1.86,-0.03 -1.83,-0.25 -1.80,-0.48 -1.71,-0.69 -1.63,-0.89 -1.50,-1.08 -1.37,-1.26 -1.19,-1.40 -1.02,-1.55 -0.82,-1.65 -0.62,-1.75 -0.40,-1.80 -0.18,-1.85 0.03,-1.85 0.26,-1.84 0.47,-1.78 0.69,-1.72 0.89,-1.62 1.08,-1.51 1.25,-1.36 1.41,-1.20 1.54,-1.02 1.66,-0.83 1.66,-0.83 L 1.66,-0.83 Z"></path></g><g transform="translate(213.5993467342298 77.56519344061098) rotate(0 27.818848321530027 38.799998233739416)" stroke="none"><path fill="#000000" d="M 1.66,-0.23 Q 1.66,-0.23 2.25,1.18 2.83,2.59 3.49,4.51 4.15,6.42 4.35,7.47 4.54,8.52 5.23,10.10 5.92,11.68 6.28,13.04 6.65,14.39 7.17,16.09 7.70,17.78 8.12,18.88 8.53,19.97 9.35,21.90 10.17,23.82 10.99,26.22 11.82,28.62 12.18,30.15 12.54,31.68 13.07,33.19 13.59,34.71 13.88,35.99 14.17,37.27 14.67,38.89 15.17,40.52 15.41,41.55 15.66,42.59 15.96,43.82 16.26,45.05 16.79,47.42 17.32,49.79 17.59,51.29 17.86,52.79 18.35,55.52 18.84,58.25 19.10,59.89 19.37,61.53 19.73,63.00 20.09,64.48 20.24,65.73 20.40,66.98 20.76,68.57 21.13,70.15 21.47,71.32 21.81,72.49 22.20,73.59 22.58,74.70 20.73,75.13 18.87,75.57 19.84,74.11 20.81,72.65 21.55,71.46 22.28,70.27 23.28,68.53 24.27,66.79 25.32,64.87 26.37,62.96 27.13,61.29 27.90,59.63 28.72,58.07 29.54,56.51 30.50,54.59 31.46,52.66 32.15,51.22 32.83,49.78 33.40,48.84 33.98,47.89 34.76,46.37 35.54,44.86 36.18,43.14 36.81,41.43 37.52,39.72 38.22,38.01 38.83,36.41 39.45,34.81 40.06,33.84 40.68,32.86 41.38,31.18 42.08,29.50 42.72,27.78 43.35,26.06 44.09,24.45 44.84,22.84 45.55,21.10 46.26,19.35 46.75,17.90 47.24,16.45 47.80,15.53 48.35,14.61 48.54,13.49 48.73,12.38 49.44,11.01 50.15,9.65 50.47,8.45 50.78,7.24 51.22,5.85 51.65,4.47 52.45,4.42 53.25,4.38 53.33,4.24 53.42,4.11 53.54,4.00 53.65,3.90 53.79,3.82 53.93,3.74 54.08,3.70 54.24,3.66 54.40,3.66 54.55,3.66 54.71,3.69 54.86,3.73 55.00,3.80 55.15,3.87 55.27,3.97 55.39,4.07 55.48,4.20 55.57,4.33 55.63,4.48 55.69,4.63 55.71,4.78 55.73,4.94 55.72,5.10 55.70,5.25 55.65,5.40 55.59,5.55 55.16,5.90 54.72,6.24 54.51,6.26 54.29,6.27 54.09,6.22 53.88,6.16 53.71,6.04 53.53,5.93 53.40,5.76 53.27,5.59 53.20,5.39 53.13,5.19 53.12,4.98 53.12,4.77 53.19,4.56 53.25,4.36 53.38,4.19 53.51,4.02 53.68,3.90 53.86,3.78 54.06,3.72 54.26,3.66 54.48,3.67 54.69,3.68 54.89,3.75 55.08,3.83 55.25,3.97 55.41,4.10 55.52,4.28 55.63,4.46 55.68,4.67 55.73,4.88 55.71,5.09 55.69,5.30 55.60,5.49 55.52,5.69 55.37,5.84 55.23,6.00 55.04,6.10 54.85,6.20 54.65,6.24 54.44,6.28 54.23,6.25 54.02,6.21 53.83,6.12 53.64,6.02 53.49,5.87 53.34,5.71 53.25,5.52 53.16,5.33 53.13,5.12 53.11,4.91 53.15,4.70 53.20,4.49 53.30,4.31 53.41,4.13 53.57,3.99 53.73,3.85 53.49,4.11 53.25,4.38 53.33,4.24 53.42,4.11 53.54,4.00 53.65,3.90 53.79,3.82 53.93,3.74 54.08,3.70 54.24,3.66 54.40,3.66 54.55,3.66 54.71,3.69 54.86,3.73 55.00,3.80 55.15,3.87 55.27,3.97 55.39,4.07 55.48,4.20 55.57,4.33 55.63,4.48 55.69,4.63 55.71,4.78 55.73,4.94 55.72,5.10 55.70,5.25 55.65,5.40 55.59,5.55 56.38,6.51 57.16,7.46 56.76,8.94 56.37,10.41 56.08,11.50 55.78,12.59 55.06,14.11 54.33,15.63 53.82,16.84 53.32,18.05 52.76,19.82 52.21,21.59 51.46,23.40 50.70,25.22 49.98,26.71 49.26,28.20 48.86,29.28 48.46,30.35 47.73,31.91 47.00,33.47 46.11,35.25 45.22,37.04 44.68,38.50 44.14,39.95 43.39,41.74 42.63,43.54 42.25,44.60 41.87,45.66 41.45,46.69 41.02,47.73 39.71,50.08 38.39,52.44 37.74,53.80 37.09,55.16 36.12,57.06 35.15,58.95 34.28,60.63 33.41,62.32 32.44,64.30 31.48,66.28 30.55,67.97 29.63,69.66 28.68,71.26 27.73,72.86 26.70,74.55 25.67,76.24 24.25,77.75 22.83,79.25 20.44,78.97 18.04,78.68 17.40,77.09 16.76,75.49 16.26,74.28 15.77,73.07 15.40,71.47 15.03,69.88 14.67,67.98 14.30,66.09 13.95,64.49 13.60,62.90 13.28,60.84 12.95,58.78 12.87,57.55 12.79,56.31 12.43,55.05 12.07,53.79 11.73,51.20 11.39,48.60 11.02,47.51 10.65,46.43 10.14,44.30 9.64,42.18 8.90,39.36 8.17,36.54 7.57,34.76 6.98,32.98 6.69,31.70 6.39,30.42 5.68,28.20 4.97,25.98 4.15,23.95 3.33,21.93 2.86,20.67 2.39,19.42 1.82,17.56 1.26,15.71 1.03,14.65 0.81,13.60 0.02,10.78 -0.76,7.96 -1.06,6.84 -1.36,5.72 -1.67,4.50 -1.99,3.29 -1.83,1.76 -1.66,0.23 -1.67,0.03 -1.67,-0.16 -1.63,-0.36 -1.58,-0.56 -1.49,-0.74 -1.40,-0.92 -1.27,-1.08 -1.14,-1.23 -0.97,-1.35 -0.81,-1.47 -0.62,-1.55 -0.43,-1.62 -0.23,-1.65 -0.03,-1.68 0.16,-1.66 0.36,-1.64 0.56,-1.57 0.75,-1.50 0.92,-1.39 1.09,-1.28 1.22,-1.13 1.36,-0.98 1.46,-0.80 1.56,-0.63 1.61,-0.43 1.66,-0.23 1.66,-0.23 L 1.66,-0.23 Z"></path></g><g transform="translate(285.3427276810801 84.8859377075778) rotate(0 19.766039681393977 3.294356702778259)" stroke="none"><path fill="#000000" d="M -0.50,-1.50 Q -0.50,-1.50 0.57,-2.48 1.65,-3.46 2.80,-3.70 3.96,-3.94 5.60,-3.84 7.24,-3.74 8.57,-3.46 9.90,-3.18 11.61,-2.81 13.32,-2.44 14.50,-2.03 15.68,-1.61 17.13,-1.31 18.58,-1.01 19.95,-0.63 21.31,-0.25 22.55,0.07 23.79,0.40 24.80,0.72 25.82,1.03 27.32,1.42 28.82,1.81 29.86,2.14 30.91,2.47 32.71,3.24 34.51,4.02 36.71,5.07 38.92,6.13 39.08,6.16 39.23,6.19 39.37,6.26 39.52,6.33 39.64,6.42 39.77,6.52 39.86,6.65 39.96,6.77 40.02,6.92 40.09,7.06 40.11,7.22 40.14,7.38 40.13,7.53 40.12,7.69 40.07,7.84 40.02,7.99 39.94,8.13 39.86,8.26 39.74,8.37 39.63,8.48 39.49,8.57 39.36,8.65 39.21,8.69 39.05,8.74 38.90,8.75 38.74,8.75 38.13,8.06 37.52,7.36 37.57,7.15 37.61,6.95 37.72,6.77 37.84,6.58 38.00,6.45 38.16,6.31 38.36,6.24 38.56,6.16 38.77,6.15 38.98,6.14 39.19,6.20 39.39,6.26 39.57,6.38 39.74,6.50 39.87,6.67 40.00,6.84 40.06,7.04 40.13,7.24 40.13,7.46 40.12,7.67 40.05,7.87 39.98,8.07 39.85,8.24 39.72,8.41 39.55,8.52 39.37,8.64 39.16,8.70 38.96,8.75 38.75,8.74 38.54,8.72 38.34,8.64 38.14,8.56 37.98,8.42 37.82,8.28 37.71,8.10 37.60,7.92 37.56,7.71 37.52,7.50 37.54,7.29 37.57,7.08 37.66,6.89 37.75,6.70 37.90,6.54 38.04,6.39 38.23,6.29 38.42,6.20 38.63,6.16 38.84,6.13 39.05,6.17 39.26,6.20 39.45,6.30 39.63,6.41 39.78,6.56 39.92,6.72 40.01,6.91 40.10,7.10 39.51,6.62 38.92,6.13 39.08,6.16 39.23,6.19 39.37,6.26 39.52,6.33 39.64,6.42 39.77,6.52 39.86,6.65 39.96,6.77 40.02,6.92 40.09,7.06 40.11,7.22 40.14,7.38 40.13,7.53 40.12,7.69 40.07,7.84 40.02,7.99 39.94,8.13 39.86,8.26 39.74,8.37 39.63,8.48 39.49,8.56 39.36,8.65 39.21,8.69 39.05,8.74 38.90,8.75 38.74,8.75 36.75,9.50 34.77,10.25 33.38,9.90 31.98,9.56 30.51,8.92 29.04,8.28 27.28,7.71 25.51,7.15 23.77,6.65 22.03,6.16 20.61,5.76 19.18,5.36 18.08,5.03 16.98,4.71 15.75,4.42 14.52,4.14 13.46,3.86 12.41,3.58 11.31,3.12 10.21,2.66 8.42,2.27 6.63,1.88 5.01,1.83 3.39,1.77 1.94,1.64 0.50,1.50 0.31,1.54 0.12,1.58 -0.06,1.57 -0.25,1.56 -0.43,1.51 -0.62,1.45 -0.78,1.36 -0.95,1.26 -1.09,1.13 -1.22,1.00 -1.33,0.84 -1.43,0.67 -1.49,0.49 -1.55,0.31 -1.56,0.12 -1.58,-0.06 -1.55,-0.25 -1.52,-0.44 -1.44,-0.61 -1.37,-0.79 -1.25,-0.94 -1.14,-1.09 -0.99,-1.21 -0.84,-1.34 -0.67,-1.42 -0.50,-1.50 -0.50,-1.50 L -0.50,-1.50 Z"></path></g><g transform="translate(290.46727882854 84.15387333440867) rotate(0 1.098113315632986 40.26416049183649)" stroke="none"><path fill="#000000" d="M 1.80,0 Q 1.80,0 2.17,1.89 2.54,3.79 1.95,7.37 1.35,10.94 0.89,13.42 0.44,15.90 -0.15,18.68 -0.75,21.47 -1.42,24.33 -2.09,27.20 -2.37,28.57 -2.64,29.95 -2.96,31.60 -3.28,33.26 -3.69,34.40 -4.11,35.55 -4.40,36.99 -4.69,38.43 -5.37,41.07 -6.06,43.71 -6.50,45.67 -6.93,47.62 -7.27,49.08 -7.61,50.54 -7.97,51.85 -8.33,53.15 -8.49,54.34 -8.66,55.54 -8.94,57.16 -9.22,58.78 -9.78,60.36 -10.35,61.94 -10.60,63.44 -10.85,64.95 -11.28,66.98 -11.71,69.01 -12.08,70.85 -12.44,72.68 -12.41,73.78 -12.38,74.88 -11.09,74.31 -9.81,73.74 -8.07,73.75 -6.33,73.75 -4.64,74.03 -2.96,74.31 -1.54,74.36 -0.12,74.42 1.24,74.66 2.62,74.91 3.79,75.01 4.97,75.12 6.07,75.13 7.18,75.14 8.29,75.42 9.41,75.70 11.28,76.01 13.14,76.32 15.09,77.76 17.05,79.20 17.20,79.23 17.36,79.27 17.50,79.35 17.64,79.42 17.75,79.52 17.87,79.63 17.96,79.76 18.05,79.89 18.11,80.04 18.16,80.19 18.18,80.34 18.20,80.50 18.18,80.66 18.16,80.82 18.10,80.96 18.05,81.11 17.96,81.24 17.87,81.37 17.75,81.48 17.63,81.58 17.49,81.65 17.35,81.73 17.20,81.77 17.04,81.80 16.88,81.80 16.73,81.80 16.87,81.80 17.02,81.80 16.81,81.79 16.60,81.78 16.40,81.70 16.21,81.62 16.04,81.48 15.88,81.35 15.77,81.16 15.67,80.98 15.62,80.77 15.58,80.57 15.60,80.35 15.62,80.14 15.71,79.95 15.80,79.76 15.95,79.60 16.10,79.45 16.28,79.35 16.47,79.25 16.68,79.22 16.89,79.19 17.10,79.22 17.31,79.26 17.50,79.36 17.69,79.46 17.83,79.61 17.98,79.77 18.07,79.96 18.15,80.15 18.18,80.36 18.20,80.57 18.15,80.78 18.11,80.99 17.99,81.17 17.88,81.35 17.72,81.49 17.56,81.63 17.36,81.70 17.16,81.78 16.95,81.79 16.74,81.80 16.54,81.75 16.33,81.69 16.16,81.57 15.98,81.45 15.85,81.28 15.72,81.11 15.66,80.91 15.59,80.71 15.59,80.49 15.59,80.28 15.66,80.08 15.73,79.88 15.86,79.71 15.99,79.54 16.16,79.42 16.34,79.30 16.69,79.25 17.05,79.20 17.20,79.23 17.36,79.27 17.50,79.35 17.64,79.42 17.75,79.52 17.87,79.63 17.96,79.76 18.05,79.89 18.11,80.04 18.16,80.19 18.18,80.34 18.20,80.50 18.18,80.66 18.16,80.82 18.10,80.96 18.05,81.11 17.96,81.24 17.87,81.37 17.75,81.48 17.63,81.58 17.49,81.65 17.35,81.73 17.20,81.77 17.04,81.80 16.88,81.80 16.73,81.80 15.22,82.30 13.71,82.80 11.87,82.45 10.02,82.10 7.87,81.79 5.72,81.49 4.34,81.41 2.95,81.34 1.33,81.03 -0.29,80.73 -1.59,80.64 -2.89,80.56 -4.08,80.27 -5.27,79.98 -6.64,79.96 -8.01,79.94 -9.76,79.91 -11.50,79.89 -13.01,79.80 -14.53,79.71 -15.72,79.20 -16.90,78.70 -17.54,77.59 -18.17,76.47 -18.25,75.27 -18.34,74.07 -18.24,72.64 -18.14,71.21 -17.86,69.95 -17.57,68.69 -17.20,67.62 -16.83,66.56 -16.76,65.20 -16.69,63.85 -16.32,62.34 -15.95,60.84 -15.48,59.06 -15.01,57.28 -14.79,56.15 -14.57,55.02 -14.31,53.27 -14.04,51.52 -13.69,50.35 -13.35,49.18 -13.01,47.78 -12.67,46.38 -12.10,44.04 -11.52,41.70 -11.11,40.68 -10.70,39.66 -10.52,38.43 -10.34,37.20 -9.62,34.66 -8.89,32.11 -8.55,30.46 -8.20,28.81 -7.89,27.34 -7.58,25.87 -6.88,23.05 -6.18,20.23 -5.53,17.55 -4.88,14.86 -4.38,12.41 -3.88,9.95 -3.21,6.86 -2.54,3.78 -2.17,1.89 -1.80,0 -1.78,-0.21 -1.75,-0.43 -1.67,-0.63 -1.60,-0.84 -1.47,-1.01 -1.35,-1.19 -1.18,-1.34 -1.02,-1.48 -0.83,-1.58 -0.64,-1.69 -0.42,-1.74 -0.21,-1.79 0.00,-1.79 0.21,-1.79 0.42,-1.74 0.64,-1.69 0.83,-1.58 1.02,-1.48 1.19,-1.34 1.35,-1.19 1.47,-1.01 1.60,-0.83 1.67,-0.63 1.75,-0.43 1.78,-0.21 1.80,0.00 1.80,0.00 L 1.80,0 Z"></path></g><g transform="translate(285.3427276810801 122.22179043909955) rotate(0 16.10565079203093 4.02642107594761)" stroke="none"><path fill="#000000" d="M 0.15,-1.74 Q 0.15,-1.74 2.51,-1.99 4.87,-2.24 7.17,-1.93 9.47,-1.63 10.61,-1.52 11.75,-1.40 13.04,-1.11 14.33,-0.81 16.24,-0.13 18.14,0.55 19.81,1.03 21.48,1.50 22.83,1.54 24.19,1.59 25.22,1.87 26.25,2.15 27.44,2.52 28.64,2.89 29.74,3.35 30.84,3.81 30.56,5.36 30.27,6.90 30.39,7.01 30.51,7.11 30.60,7.24 30.69,7.37 30.75,7.52 30.80,7.67 30.82,7.82 30.84,7.98 30.82,8.14 30.80,8.30 30.75,8.44 30.69,8.59 30.60,8.72 30.51,8.85 30.40,8.96 30.28,9.06 30.14,9.14 30.00,9.21 29.85,9.25 29.69,9.29 29.53,9.29 29.37,9.29 29.22,9.25 29.07,9.22 28.93,9.14 28.79,9.07 29.10,9.18 29.42,9.30 29.21,9.24 29.01,9.19 28.83,9.08 28.65,8.96 28.52,8.79 28.38,8.63 28.31,8.43 28.24,8.23 28.23,8.02 28.23,7.80 28.29,7.60 28.35,7.40 28.48,7.23 28.60,7.05 28.78,6.93 28.95,6.81 29.15,6.75 29.36,6.68 29.57,6.69 29.78,6.70 29.98,6.77 30.18,6.85 30.34,6.98 30.51,7.11 30.62,7.29 30.74,7.47 30.79,7.68 30.84,7.88 30.82,8.10 30.80,8.31 30.72,8.50 30.63,8.70 30.49,8.86 30.35,9.01 30.16,9.12 29.98,9.22 29.77,9.26 29.56,9.30 29.35,9.27 29.14,9.24 28.95,9.15 28.76,9.05 28.61,8.90 28.46,8.75 28.37,8.56 28.27,8.37 28.24,8.16 28.22,7.95 28.26,7.74 28.30,7.53 28.40,7.34 28.51,7.16 28.67,7.02 28.83,6.88 29.02,6.79 29.22,6.71 29.74,6.81 30.27,6.90 30.39,7.01 30.51,7.11 30.60,7.24 30.69,7.37 30.75,7.52 30.80,7.67 30.82,7.82 30.84,7.98 30.82,8.14 30.80,8.30 30.75,8.44 30.69,8.59 30.60,8.72 30.51,8.85 30.40,8.96 30.28,9.06 30.14,9.14 30.00,9.21 29.85,9.25 29.69,9.29 29.53,9.29 29.38,9.29 29.22,9.25 29.07,9.22 28.93,9.14 28.79,9.07 28.35,8.74 27.91,8.41 26.87,8.07 25.83,7.73 24.29,7.40 22.76,7.08 20.73,6.60 18.69,6.12 17.63,5.93 16.56,5.73 15.25,5.31 13.94,4.90 12.55,4.42 11.15,3.95 9.96,3.81 8.76,3.67 6.57,3.38 4.38,3.08 2.11,2.41 -0.15,1.74 -0.36,1.70 -0.57,1.65 -0.76,1.56 -0.95,1.47 -1.11,1.33 -1.27,1.20 -1.40,1.03 -1.52,0.86 -1.60,0.66 -1.68,0.47 -1.72,0.26 -1.75,0.05 -1.73,-0.15 -1.71,-0.36 -1.64,-0.56 -1.57,-0.76 -1.46,-0.94 -1.34,-1.12 -1.19,-1.26 -1.03,-1.41 -0.85,-1.51 -0.67,-1.62 -0.46,-1.67 -0.26,-1.73 -0.05,-1.74 0.15,-1.74 0.15,-1.74 L 0.15,-1.74 Z"></path></g><g transform="translate(346.83707335652775 94.40294211756964) rotate(0 -13.909424160764956 39.16603042032398)" stroke="none"><path fill="#000000" d="M 1.63,0.44 Q 1.63,0.44 1.45,2.88 1.26,5.31 0.79,7.13 0.32,8.94 -0.28,11.40 -0.89,13.85 -1.13,15.23 -1.36,16.61 -1.93,18.62 -2.49,20.63 -2.98,21.81 -3.48,22.98 -3.80,24.45 -4.11,25.92 -4.52,27.18 -4.92,28.44 -5.29,29.56 -5.66,30.68 -6.32,32.74 -6.98,34.80 -7.74,36.98 -8.50,39.16 -9.26,40.80 -10.01,42.45 -10.69,44.06 -11.37,45.66 -12.07,47.72 -12.78,49.79 -13.48,51.07 -14.18,52.36 -14.93,54.12 -15.69,55.87 -16.04,57.20 -16.40,58.53 -16.86,59.60 -17.32,60.67 -17.78,61.82 -18.25,62.96 -18.81,64.22 -19.36,65.48 -19.74,66.49 -20.13,67.50 -20.94,69.15 -21.76,70.81 -22.16,72.20 -22.56,73.59 -22.93,74.60 -23.30,75.61 -23.75,76.69 -24.21,77.78 -25.43,77.78 -26.64,77.78 -26.74,77.91 -26.84,78.03 -26.97,78.12 -27.09,78.22 -27.24,78.28 -27.38,78.34 -27.54,78.37 -27.69,78.40 -27.85,78.38 -28.01,78.37 -28.16,78.32 -28.31,78.27 -28.45,78.19 -28.58,78.11 -28.69,77.99 -28.80,77.88 -28.88,77.74 -28.96,77.60 -29.00,77.45 -29.05,77.30 -29.05,77.14 -29.06,76.98 -29.03,76.83 -29.00,76.67 -28.93,76.53 -28.86,76.39 -28.96,76.70 -29.06,77.01 -29.02,76.81 -28.97,76.60 -28.86,76.42 -28.75,76.23 -28.59,76.10 -28.43,75.96 -28.23,75.88 -28.03,75.80 -27.82,75.79 -27.61,75.78 -27.40,75.84 -27.20,75.89 -27.02,76.01 -26.85,76.13 -26.72,76.30 -26.59,76.47 -26.52,76.67 -26.46,76.87 -26.46,77.09 -26.46,77.30 -26.52,77.50 -26.59,77.70 -26.72,77.87 -26.85,78.04 -27.03,78.16 -27.20,78.28 -27.41,78.33 -27.61,78.39 -27.82,78.38 -28.04,78.37 -28.23,78.29 -28.43,78.21 -28.59,78.07 -28.75,77.93 -28.86,77.75 -28.97,77.57 -29.02,77.36 -29.06,77.15 -29.04,76.94 -29.02,76.73 -28.93,76.54 -28.84,76.35 -28.69,76.19 -28.55,76.04 -28.36,75.94 -28.17,75.84 -27.96,75.81 -27.75,75.77 -27.54,75.81 -27.33,75.84 -27.14,75.94 -26.96,76.04 -26.81,76.19 -26.66,76.35 -26.58,76.54 -26.49,76.73 -26.56,77.26 -26.64,77.78 -26.74,77.91 -26.84,78.03 -26.97,78.12 -27.09,78.22 -27.24,78.28 -27.38,78.34 -27.54,78.37 -27.69,78.40 -27.85,78.38 -28.01,78.37 -28.16,78.32 -28.31,78.27 -28.44,78.19 -28.58,78.11 -28.69,77.99 -28.80,77.88 -28.88,77.74 -28.96,77.60 -29.00,77.45 -29.05,77.30 -29.05,77.14 -29.06,76.98 -29.03,76.83 -29.00,76.67 -28.93,76.53 -28.87,76.39 -28.93,75.55 -28.99,74.71 -28.61,73.60 -28.22,72.48 -27.80,71.46 -27.38,70.44 -26.96,69.04 -26.55,67.65 -26.01,66.55 -25.48,65.44 -25.02,64.28 -24.57,63.11 -23.91,61.47 -23.24,59.82 -22.54,58.40 -21.83,56.97 -21.31,55.23 -20.78,53.49 -19.92,51.57 -19.06,49.65 -18.48,48.64 -17.91,47.62 -17.46,46.61 -17.02,45.60 -16.70,44.46 -16.39,43.33 -15.91,42.35 -15.44,41.36 -14.71,39.89 -13.98,38.42 -13.29,36.86 -12.59,35.29 -12.33,34.13 -12.06,32.96 -11.43,30.97 -10.80,28.97 -10.43,27.86 -10.05,26.74 -9.70,25.72 -9.34,24.70 -8.49,21.93 -7.64,19.17 -7.13,17.41 -6.63,15.65 -6.33,14.10 -6.04,12.54 -5.40,10.08 -4.76,7.61 -4.27,5.77 -3.78,3.94 -2.71,1.74 -1.63,-0.44 -1.56,-0.63 -1.48,-0.82 -1.36,-0.99 -1.24,-1.15 -1.08,-1.28 -0.92,-1.42 -0.74,-1.51 -0.56,-1.60 -0.36,-1.64 -0.16,-1.68 0.04,-1.68 0.24,-1.67 0.44,-1.62 0.64,-1.57 0.81,-1.47 0.99,-1.37 1.14,-1.23 1.29,-1.09 1.40,-0.92 1.52,-0.75 1.58,-0.55 1.65,-0.36 1.67,-0.16 1.69,0.04 1.66,0.24 1.63,0.44 1.63,0.44 L 1.63,0.44 Z"></path></g><g transform="translate(351.2295266190597 95.86707086390788) rotate(0 -4.026404320068082 35.13964285613554)" stroke="none"><path fill="#000000" d="M 0.21,-1.52 Q 0.21,-1.52 1.76,-1.84 3.31,-2.16 4.54,-1.82 5.76,-1.48 7.47,-0.73 9.17,0.00 10.34,0.81 11.50,1.63 12.56,2.55 13.62,3.47 14.93,4.71 16.24,5.94 17.14,7.13 18.04,8.31 19.15,9.46 20.25,10.60 20.86,11.51 21.47,12.42 22.21,13.87 22.94,15.32 23.56,17.38 24.18,19.44 24.70,21.01 25.22,22.58 25.65,24.66 26.08,26.73 26.30,27.77 26.51,28.82 26.73,30.31 26.95,31.81 26.98,32.99 27.00,34.18 26.78,36.39 26.56,38.61 26.13,40.32 25.71,42.03 25.35,43.24 25.00,44.45 24.38,46.45 23.76,48.46 23.21,50.27 22.67,52.08 22.03,53.32 21.40,54.55 20.33,56.03 19.26,57.50 18.34,58.76 17.42,60.01 16.75,60.99 16.09,61.96 15.27,62.86 14.46,63.76 13.24,64.75 12.03,65.74 10.55,66.56 9.06,67.37 7.99,67.81 6.92,68.25 5.77,68.79 4.63,69.34 3.42,69.81 2.22,70.27 0.68,70.67 -0.84,71.07 -2.28,71.47 -3.73,71.87 -5.54,72.27 -7.35,72.67 -8.65,72.76 -9.96,72.85 -11.64,73.14 -13.31,73.44 -14.75,73.80 -16.19,74.17 -17.80,74.29 -19.41,74.42 -21.51,74.45 -23.61,74.49 -24.94,74.51 -26.27,74.53 -28.01,74.57 -29.74,74.61 -30.65,72.22 -31.56,69.84 -31.72,69.83 -31.87,69.81 -32.02,69.75 -32.17,69.69 -32.30,69.60 -32.43,69.51 -32.53,69.40 -32.64,69.28 -32.71,69.14 -32.79,69.00 -32.82,68.84 -32.86,68.69 -32.86,68.53 -32.86,68.37 -32.82,68.22 -32.79,68.07 -32.71,67.93 -32.64,67.78 -32.53,67.67 -32.43,67.55 -32.30,67.46 -32.17,67.37 -32.02,67.31 -31.87,67.26 -31.72,67.24 -31.56,67.22 -32.13,67.55 -32.71,67.89 -32.57,67.72 -32.44,67.56 -32.26,67.44 -32.08,67.33 -31.88,67.27 -31.67,67.22 -31.46,67.24 -31.25,67.25 -31.05,67.34 -30.86,67.42 -30.70,67.56 -30.54,67.70 -30.43,67.89 -30.33,68.07 -30.29,68.28 -30.25,68.49 -30.27,68.70 -30.30,68.91 -30.39,69.10 -30.49,69.29 -30.64,69.44 -30.79,69.59 -30.98,69.69 -31.17,69.78 -31.38,69.81 -31.59,69.84 -31.80,69.81 -32.00,69.77 -32.19,69.66 -32.38,69.56 -32.52,69.40 -32.66,69.24 -32.75,69.05 -32.83,68.85 -32.85,68.64 -32.87,68.43 -32.82,68.22 -32.77,68.02 -32.65,67.84 -32.54,67.66 -32.38,67.53 -32.21,67.39 -32.01,67.32 -31.81,67.24 -31.60,67.24 -31.39,67.23 -31.18,67.29 -30.98,67.35 -30.81,67.47 -30.63,67.60 -30.51,67.77 -30.39,67.94 -30.32,68.14 -30.26,68.35 -30.26,68.56 -30.27,68.77 -30.91,69.31 -31.56,69.84 -31.72,69.83 -31.87,69.81 -32.02,69.75 -32.17,69.69 -32.30,69.60 -32.43,69.51 -32.53,69.40 -32.64,69.28 -32.71,69.14 -32.79,69.00 -32.82,68.84 -32.86,68.69 -32.86,68.53 -32.86,68.37 -32.82,68.22 -32.79,68.07 -32.71,67.93 -32.64,67.78 -32.53,67.67 -32.43,67.55 -32.30,67.46 -32.17,67.37 -32.02,67.31 -31.87,67.26 -31.72,67.24 -31.56,67.22 -30.65,67.31 -29.74,67.41 -28.01,67.45 -26.28,67.48 -24.95,67.50 -23.63,67.51 -22.29,67.52 -20.95,67.54 -19.26,67.58 -17.58,67.61 -15.86,67.20 -14.14,66.79 -12.14,66.49 -10.15,66.18 -9.03,66.20 -7.92,66.23 -6.28,65.95 -4.65,65.68 -3.40,65.24 -2.14,64.80 -0.91,64.46 0.32,64.12 1.46,63.77 2.60,63.43 3.60,62.93 4.61,62.43 6.07,61.79 7.53,61.16 8.79,60.35 10.04,59.55 10.95,58.55 11.87,57.55 12.72,56.41 13.58,55.26 14.50,54.25 15.41,53.24 15.92,52.20 16.42,51.16 17.12,49.69 17.82,48.21 18.32,46.46 18.82,44.70 19.25,43.17 19.68,41.64 20.19,40.52 20.69,39.39 20.98,37.70 21.27,36.00 21.27,34.53 21.27,33.07 21.19,31.84 21.11,30.62 20.81,29.60 20.51,28.57 20.41,27.21 20.31,25.86 19.92,24.44 19.53,23.02 19.15,21.95 18.77,20.89 18.34,18.69 17.90,16.49 17.13,15.37 16.37,14.25 15.19,13.02 14.02,11.78 13.27,10.74 12.52,9.69 11.32,8.53 10.13,7.37 8.64,6.09 7.16,4.80 6.16,4.40 5.15,4.01 3.86,3.51 2.57,3.00 1.17,2.26 -0.21,1.52 -0.39,1.47 -0.57,1.42 -0.73,1.33 -0.90,1.24 -1.03,1.12 -1.17,0.99 -1.27,0.84 -1.37,0.68 -1.43,0.51 -1.50,0.33 -1.51,0.15 -1.53,-0.03 -1.51,-0.21 -1.48,-0.39 -1.41,-0.57 -1.34,-0.74 -1.23,-0.89 -1.12,-1.04 -0.98,-1.16 -0.84,-1.28 -0.68,-1.36 -0.51,-1.44 -0.33,-1.48 -0.15,-1.53 0.03,-1.52 0.21,-1.52 0.21,-1.52 L 0.21,-1.52 Z"></path></g><g transform="translate(86.95023298221201 189.5727516351767) rotate(0 29.283044091385875 -6.58867989379803)" stroke="none"><path fill="#000000" d="M -0.86,-1.30 Q -0.86,-1.30 0.02,-2.70 0.92,-4.10 2.54,-4.81 4.16,-5.52 6.66,-6.34 9.16,-7.15 11.63,-7.74 14.10,-8.32 16.59,-8.72 19.09,-9.13 21.88,-9.79 24.66,-10.46 27.08,-10.89 29.50,-11.32 31.97,-11.99 34.44,-12.66 36.75,-13.09 39.06,-13.53 40.67,-13.68 42.28,-13.82 43.56,-14.04 44.84,-14.26 46.82,-14.47 48.81,-14.68 51.04,-15.00 53.28,-15.33 55.58,-14.90 57.88,-14.48 58.04,-14.47 58.19,-14.46 58.34,-14.42 58.50,-14.37 58.63,-14.29 58.77,-14.21 58.88,-14.10 58.99,-13.98 59.08,-13.85 59.16,-13.71 59.21,-13.56 59.26,-13.41 59.27,-13.26 59.28,-13.10 59.25,-12.94 59.22,-12.79 59.16,-12.64 59.09,-12.50 59.00,-12.37 58.90,-12.25 58.78,-12.15 58.65,-12.05 58.51,-11.98 58.36,-11.92 58.21,-11.89 58.05,-11.86 57.78,-11.90 57.50,-11.94 57.32,-12.04 57.14,-12.15 56.99,-12.31 56.85,-12.47 56.77,-12.66 56.69,-12.86 56.67,-13.07 56.66,-13.28 56.71,-13.49 56.76,-13.70 56.88,-13.87 56.99,-14.05 57.16,-14.18 57.33,-14.32 57.53,-14.39 57.73,-14.46 57.94,-14.46 58.15,-14.47 58.35,-14.40 58.56,-14.34 58.73,-14.21 58.90,-14.09 59.02,-13.92 59.15,-13.74 59.21,-13.54 59.27,-13.34 59.26,-13.12 59.25,-12.91 59.18,-12.71 59.10,-12.51 58.97,-12.35 58.84,-12.18 58.66,-12.07 58.48,-11.96 58.27,-11.91 58.06,-11.86 57.85,-11.88 57.64,-11.90 57.44,-11.98 57.25,-12.07 57.09,-12.21 56.94,-12.35 56.83,-12.54 56.73,-12.72 56.69,-12.93 56.65,-13.14 56.68,-13.35 56.71,-13.56 56.81,-13.75 56.90,-13.94 57.06,-14.09 57.21,-14.24 57.40,-14.33 57.59,-14.43 57.80,-14.45 58.01,-14.48 57.94,-14.48 57.88,-14.48 58.03,-14.47 58.19,-14.46 58.34,-14.42 58.50,-14.37 58.63,-14.29 58.77,-14.21 58.88,-14.10 58.99,-13.98 59.08,-13.85 59.16,-13.72 59.21,-13.56 59.26,-13.41 59.27,-13.26 59.28,-13.10 59.25,-12.94 59.22,-12.79 59.16,-12.64 59.09,-12.50 59.00,-12.37 58.90,-12.25 58.78,-12.15 58.65,-12.05 58.51,-11.98 58.36,-11.92 58.21,-11.89 58.05,-11.86 55.47,-10.57 52.88,-9.28 50.96,-8.95 49.04,-8.61 47.81,-8.54 46.58,-8.47 44.67,-8.13 42.76,-7.79 41.49,-7.70 40.21,-7.61 38.01,-7.20 35.81,-6.80 34.42,-6.48 33.03,-6.17 31.82,-5.80 30.61,-5.43 28.23,-5.02 25.84,-4.60 24.23,-4.29 22.62,-3.98 21.34,-3.62 20.06,-3.26 17.70,-2.87 15.34,-2.48 13.17,-2.01 10.99,-1.54 8.69,-0.82 6.39,-0.11 5.26,0.31 4.12,0.74 2.49,1.02 0.86,1.30 0.70,1.38 0.53,1.47 0.34,1.51 0.16,1.55 -0.02,1.55 -0.21,1.55 -0.39,1.50 -0.57,1.45 -0.74,1.36 -0.91,1.27 -1.05,1.14 -1.18,1.02 -1.29,0.86 -1.39,0.70 -1.46,0.52 -1.52,0.35 -1.54,0.16 -1.56,-0.02 -1.54,-0.21 -1.51,-0.39 -1.44,-0.57 -1.37,-0.75 -1.26,-0.90 -1.15,-1.05 -1.01,-1.18 -0.86,-1.30 -0.86,-1.30 L -0.86,-1.30 Z"></path></g><g transform="translate(119.89363245120205 182.25200736820943) rotate(0 7.686793209431016 34.407561727086886)" stroke="none"><path fill="#000000" d="M 1.74,-0.47 Q 1.74,-0.47 2.82,1.71 3.90,3.90 4.44,6.22 4.98,8.53 5.41,10.54 5.84,12.56 6.23,14.47 6.63,16.37 6.81,17.45 6.98,18.53 7.27,19.97 7.55,21.42 7.89,23.09 8.23,24.77 8.38,26.00 8.53,27.24 8.91,29.24 9.30,31.24 9.55,32.35 9.79,33.45 10.14,35.04 10.48,36.64 10.87,38.40 11.25,40.17 11.38,41.44 11.51,42.71 11.87,44.03 12.23,45.36 12.49,46.84 12.75,48.32 13.04,49.51 13.34,50.70 13.56,52.24 13.78,53.79 14.28,54.81 14.77,55.83 15.16,57.27 15.56,58.71 15.77,59.94 15.99,61.17 16.40,62.35 16.82,63.54 16.69,65.88 16.56,68.22 16.59,68.43 16.62,68.64 16.59,68.85 16.55,69.06 16.45,69.25 16.35,69.43 16.20,69.58 16.04,69.73 15.85,69.81 15.66,69.90 15.45,69.93 15.24,69.95 15.03,69.90 14.82,69.86 14.64,69.75 14.46,69.64 14.32,69.47 14.18,69.31 14.11,69.11 14.03,68.92 14.02,68.70 14.01,68.49 14.06,68.29 14.12,68.08 14.24,67.91 14.36,67.73 14.53,67.60 14.70,67.47 14.90,67.41 15.10,67.34 15.31,67.34 15.53,67.34 15.73,67.41 15.93,67.48 16.10,67.61 16.27,67.74 16.39,67.91 16.50,68.09 16.56,68.29 16.62,68.50 16.60,68.71 16.59,68.92 16.51,69.12 16.43,69.32 16.30,69.48 16.16,69.64 15.98,69.75 15.79,69.86 15.59,69.90 15.38,69.95 15.17,69.92 14.96,69.90 14.76,69.81 14.57,69.72 14.42,69.57 14.26,69.43 14.16,69.24 14.06,69.05 14.06,69.05 14.06,69.05 12.87,67.96 11.68,66.86 11.34,65.35 11.00,63.84 10.57,62.59 10.15,61.34 9.77,60.06 9.40,58.77 9.09,57.56 8.79,56.35 8.33,54.49 7.87,52.64 7.46,51.10 7.06,49.56 6.73,47.48 6.41,45.40 5.98,43.45 5.55,41.49 5.20,39.83 4.85,38.17 4.46,36.42 4.07,34.67 3.71,32.59 3.36,30.51 2.93,28.20 2.50,25.88 2.18,24.19 1.86,22.49 1.43,20.00 1.00,17.52 0.63,15.61 0.25,13.71 -0.14,11.71 -0.54,9.71 -0.96,7.53 -1.38,5.35 -1.56,2.91 -1.74,0.47 -1.77,0.26 -1.80,0.04 -1.78,-0.17 -1.76,-0.38 -1.69,-0.59 -1.62,-0.80 -1.50,-0.98 -1.38,-1.16 -1.22,-1.31 -1.06,-1.46 -0.87,-1.56 -0.68,-1.67 -0.47,-1.73 -0.26,-1.78 -0.04,-1.79 0.17,-1.79 0.38,-1.75 0.59,-1.70 0.79,-1.60 0.99,-1.51 1.15,-1.37 1.32,-1.23 1.45,-1.05 1.57,-0.87 1.66,-0.67 1.74,-0.47 1.74,-0.47 L 1.74,-0.47 Z"></path></g><g transform="translate(161.62193844525598 172.7350029582176) rotate(0 24.158492943925978 0.7320811290485381)" stroke="none"><path fill="#000000" d="M 0,-1.81 Q 0,-1.81 1.89,-2.25 3.78,-2.69 6.07,-2.72 8.36,-2.74 10.06,-2.77 11.77,-2.79 13.27,-2.82 14.78,-2.85 16.76,-2.89 18.75,-2.93 19.97,-2.94 21.20,-2.94 22.91,-2.96 24.62,-2.98 26.22,-2.71 27.83,-2.44 29.38,-2.38 30.94,-2.32 32.27,-2.31 33.60,-2.29 35.24,-2.29 36.88,-2.29 38.55,-2.01 40.22,-1.74 41.60,-1.66 42.97,-1.57 44.17,-1.58 45.37,-1.58 46.50,-1.01 47.62,-0.44 47.78,-0.42 47.93,-0.40 48.08,-0.35 48.23,-0.29 48.36,-0.20 48.49,-0.11 48.59,0.00 48.70,0.12 48.77,0.26 48.84,0.40 48.88,0.55 48.92,0.71 48.92,0.87 48.91,1.03 48.88,1.18 48.84,1.33 48.76,1.47 48.69,1.61 48.58,1.73 48.48,1.85 48.35,1.94 48.22,2.03 48.07,2.08 47.92,2.14 47.76,2.15 47.60,2.17 46.95,1.46 46.30,0.74 46.36,0.53 46.41,0.33 46.53,0.15 46.64,-0.02 46.81,-0.15 46.98,-0.28 47.18,-0.35 47.38,-0.42 47.59,-0.43 47.80,-0.43 48.00,-0.37 48.21,-0.30 48.38,-0.18 48.55,-0.05 48.67,0.11 48.79,0.29 48.85,0.49 48.91,0.70 48.91,0.91 48.90,1.12 48.82,1.32 48.75,1.52 48.61,1.68 48.48,1.85 48.30,1.96 48.12,2.07 47.91,2.12 47.70,2.17 47.49,2.15 47.28,2.13 47.09,2.04 46.89,1.96 46.74,1.82 46.58,1.67 46.48,1.49 46.37,1.30 46.34,1.09 46.30,0.88 46.33,0.67 46.36,0.46 46.46,0.27 46.55,0.08 46.70,-0.06 46.86,-0.21 47.05,-0.30 47.24,-0.39 47.45,-0.42 47.66,-0.44 47.87,-0.40 48.08,-0.36 48.26,-0.25 48.44,-0.15 48.58,0.00 48.73,0.16 48.81,0.36 48.89,0.56 48.25,0.05 47.62,-0.44 47.78,-0.42 47.93,-0.40 48.08,-0.35 48.23,-0.29 48.36,-0.20 48.49,-0.11 48.59,0.00 48.70,0.12 48.77,0.26 48.84,0.40 48.88,0.55 48.92,0.71 48.92,0.87 48.91,1.02 48.88,1.18 48.84,1.33 48.76,1.47 48.69,1.61 48.58,1.73 48.48,1.85 48.35,1.94 48.22,2.03 48.07,2.08 47.92,2.14 47.76,2.15 47.60,2.17 46.47,3.34 45.34,4.50 44.09,4.48 42.83,4.45 41.28,4.38 39.73,4.31 38.30,4.03 36.88,3.75 35.22,3.75 33.57,3.75 32.20,3.74 30.83,3.74 29.06,3.65 27.29,3.56 25.95,3.27 24.62,2.98 22.91,2.96 21.20,2.94 19.97,2.94 18.75,2.93 16.76,2.89 14.78,2.85 13.27,2.82 11.77,2.79 10.06,2.77 8.36,2.74 6.07,2.72 3.78,2.69 1.89,2.25 0,1.81 -0.21,1.78 -0.43,1.76 -0.63,1.68 -0.84,1.60 -1.02,1.48 -1.20,1.35 -1.34,1.19 -1.49,1.03 -1.59,0.83 -1.69,0.64 -1.74,0.43 -1.80,0.21 -1.80,-0.00 -1.80,-0.21 -1.74,-0.43 -1.69,-0.64 -1.59,-0.83 -1.49,-1.03 -1.34,-1.19 -1.20,-1.35 -1.02,-1.48 -0.84,-1.60 -0.63,-1.68 -0.43,-1.76 -0.21,-1.78 0.00,-1.81 0.00,-1.81 L 0,-1.81 Z"></path></g><g transform="translate(170.4068449703201 172.7350029582176) rotate(0 19.400024250688887 35.505675042719986)" stroke="none"><path fill="#000000" d="M 1.78,0 Q 1.78,0 2.25,7.36 2.72,14.73 2.73,18.70 2.74,22.67 2.75,25.84 2.76,29.00 2.77,31.60 2.77,34.21 2.78,35.74 2.79,37.27 2.78,38.76 2.77,40.25 2.78,42.30 2.78,44.34 2.78,46.00 2.79,47.66 2.79,49.37 2.79,51.08 2.79,52.68 2.79,54.27 2.79,55.51 2.79,56.74 2.79,57.89 2.79,59.05 2.79,60.56 2.80,62.07 3.09,64.02 3.38,65.97 3.73,67.09 4.07,68.22 3.00,68.05 1.93,67.87 3.46,67.61 4.99,67.35 6.13,66.91 7.27,66.47 8.79,65.91 10.31,65.34 11.80,64.91 13.30,64.47 14.65,64.38 16.00,64.28 17.85,63.97 19.71,63.67 21.04,63.60 22.38,63.53 23.61,63.51 24.85,63.49 26.56,63.49 28.28,63.48 29.41,63.49 30.54,63.50 31.73,63.50 32.93,63.49 34.12,63.49 35.31,63.49 36.70,64.09 38.10,64.70 38.25,64.72 38.41,64.74 38.56,64.80 38.71,64.85 38.84,64.94 38.97,65.03 39.07,65.15 39.18,65.27 39.25,65.41 39.33,65.55 39.36,65.70 39.40,65.86 39.40,66.01 39.40,66.17 39.36,66.33 39.33,66.48 39.25,66.62 39.18,66.76 39.07,66.88 38.97,67.00 38.84,67.09 38.71,67.18 38.56,67.23 38.41,67.29 38.25,67.31 38.10,67.33 37.44,66.62 36.79,65.92 36.84,65.71 36.89,65.51 37.00,65.33 37.11,65.15 37.27,65.01 37.44,64.88 37.64,64.80 37.84,64.73 38.05,64.72 38.26,64.71 38.46,64.77 38.67,64.83 38.84,64.95 39.02,65.08 39.14,65.25 39.27,65.42 39.33,65.62 39.40,65.82 39.39,66.04 39.39,66.25 39.32,66.45 39.25,66.65 39.12,66.82 38.98,66.98 38.81,67.10 38.63,67.21 38.42,67.27 38.22,67.32 38.01,67.31 37.79,67.29 37.60,67.21 37.40,67.13 37.24,66.99 37.08,66.85 36.98,66.66 36.87,66.48 36.83,66.27 36.78,66.06 36.81,65.85 36.84,65.64 36.93,65.45 37.02,65.26 37.17,65.11 37.32,64.96 37.51,64.86 37.70,64.76 37.91,64.73 38.12,64.70 38.33,64.74 38.54,64.78 38.72,64.88 38.91,64.98 39.05,65.14 39.20,65.30 39.28,65.49 39.37,65.68 38.73,65.19 38.10,64.70 38.25,64.72 38.41,64.74 38.56,64.79 38.71,64.85 38.84,64.94 38.97,65.03 39.07,65.15 39.18,65.27 39.25,65.41 39.33,65.55 39.36,65.70 39.40,65.86 39.40,66.01 39.40,66.17 39.36,66.33 39.33,66.48 39.25,66.62 39.18,66.76 39.07,66.88 38.97,67.00 38.84,67.09 38.71,67.18 38.56,67.23 38.41,67.29 38.25,67.31 38.10,67.33 36.70,68.53 35.31,69.74 34.12,69.74 32.93,69.74 31.73,69.73 30.54,69.73 29.41,69.74 28.28,69.75 26.58,69.75 24.89,69.75 23.71,69.75 22.53,69.75 21.47,69.79 20.41,69.83 19.17,70.12 17.94,70.40 16.64,70.44 15.35,70.48 14.14,70.74 12.93,70.99 11.56,71.45 10.19,71.91 8.90,72.33 7.62,72.75 6.03,72.95 4.44,73.14 3.36,73.28 2.29,73.41 1.11,72.71 -0.05,72.02 -0.81,70.36 -1.57,68.70 -1.90,67.31 -2.23,65.93 -2.51,64.00 -2.80,62.07 -2.79,60.56 -2.79,59.05 -2.79,57.89 -2.79,56.74 -2.79,55.51 -2.79,54.27 -2.79,52.68 -2.79,51.08 -2.79,49.37 -2.79,47.66 -2.78,46.00 -2.78,44.34 -2.78,42.30 -2.77,40.25 -2.78,38.76 -2.79,37.27 -2.78,35.74 -2.77,34.21 -2.77,31.60 -2.76,29.00 -2.75,25.84 -2.74,22.67 -2.73,18.70 -2.72,14.73 -2.25,7.36 -1.78,0 -1.76,-0.21 -1.73,-0.42 -1.65,-0.62 -1.58,-0.83 -1.45,-1.00 -1.33,-1.18 -1.17,-1.32 -1.01,-1.47 -0.82,-1.57 -0.63,-1.67 -0.42,-1.72 -0.21,-1.77 0.00,-1.77 0.21,-1.77 0.42,-1.72 0.63,-1.67 0.82,-1.57 1.01,-1.47 1.17,-1.32 1.33,-1.18 1.45,-1.00 1.58,-0.83 1.65,-0.62 1.73,-0.42 1.76,-0.21 1.78,0.00 1.78,0.00 L 1.78,0 Z"></path></g><g transform="translate(171.13894285524782 207.8746290584736) rotate(0 13.909424160765127 -0.7320643731690097)" stroke="none"><path fill="#000000" d="M -0.49,-1.73 Q -0.49,-1.73 0.83,-2.67 2.16,-3.60 3.84,-3.83 5.53,-4.06 7.48,-4.19 9.42,-4.31 11.20,-4.33 12.98,-4.34 14.38,-4.36 15.78,-4.37 16.93,-4.38 18.08,-4.39 19.19,-4.38 20.30,-4.38 22.04,-4.06 23.79,-3.75 25.05,-3.43 26.32,-3.12 26.93,-2.78 27.55,-2.44 27.69,-2.37 27.83,-2.30 27.95,-2.20 28.07,-2.09 28.16,-1.97 28.25,-1.84 28.31,-1.69 28.37,-1.54 28.39,-1.39 28.41,-1.23 28.40,-1.07 28.38,-0.91 28.33,-0.77 28.27,-0.62 28.19,-0.48 28.10,-0.35 27.98,-0.25 27.87,-0.14 27.73,-0.06 27.59,0.00 27.43,0.04 27.28,0.08 27.12,0.09 26.96,0.09 26.81,0.05 26.66,0.02 26.24,-0.75 25.83,-1.53 25.91,-1.73 26.00,-1.92 26.14,-2.08 26.28,-2.24 26.47,-2.34 26.66,-2.44 26.87,-2.48 27.07,-2.52 27.28,-2.49 27.49,-2.46 27.68,-2.36 27.87,-2.27 28.02,-2.12 28.17,-1.97 28.27,-1.77 28.36,-1.58 28.39,-1.37 28.41,-1.16 28.37,-0.95 28.33,-0.75 28.22,-0.56 28.12,-0.38 27.96,-0.24 27.80,-0.10 27.60,-0.01 27.41,0.06 27.20,0.08 26.98,0.09 26.78,0.04 26.57,-0.00 26.40,-0.12 26.22,-0.24 26.08,-0.40 25.95,-0.57 25.88,-0.77 25.81,-0.97 25.80,-1.18 25.80,-1.39 25.86,-1.60 25.93,-1.80 26.05,-1.97 26.18,-2.14 26.35,-2.26 26.53,-2.39 26.73,-2.45 26.93,-2.51 27.14,-2.50 27.36,-2.49 27.56,-2.42 27.76,-2.35 27.92,-2.21 28.08,-2.08 28.20,-1.90 28.31,-1.72 28.36,-1.51 28.41,-1.30 27.98,-1.87 27.55,-2.44 27.69,-2.37 27.83,-2.30 27.95,-2.20 28.07,-2.09 28.16,-1.97 28.25,-1.84 28.31,-1.69 28.37,-1.54 28.39,-1.39 28.41,-1.23 28.40,-1.07 28.38,-0.91 28.33,-0.77 28.27,-0.62 28.19,-0.48 28.10,-0.35 27.98,-0.25 27.87,-0.14 27.73,-0.06 27.59,0.00 27.43,0.04 27.28,0.08 27.12,0.09 26.96,0.09 26.81,0.05 26.66,0.02 25.09,1.02 23.53,2.03 21.91,1.74 20.30,1.45 19.19,1.45 18.09,1.46 16.94,1.45 15.79,1.44 14.40,1.44 13.01,1.43 11.31,1.45 9.61,1.48 7.92,1.57 6.23,1.66 4.98,1.79 3.72,1.91 2.11,1.82 0.49,1.73 0.28,1.77 0.06,1.80 -0.15,1.78 -0.36,1.76 -0.57,1.70 -0.78,1.63 -0.96,1.51 -1.14,1.39 -1.29,1.23 -1.44,1.08 -1.55,0.89 -1.66,0.70 -1.72,0.49 -1.78,0.28 -1.79,0.06 -1.80,-0.15 -1.75,-0.36 -1.71,-0.57 -1.61,-0.77 -1.52,-0.97 -1.38,-1.14 -1.24,-1.30 -1.07,-1.43 -0.89,-1.56 -0.69,-1.65 -0.49,-1.73 -0.49,-1.73 L -0.49,-1.73 Z"></path></g><g transform="translate(226.0446086368977 172.00293858504892) rotate(0 11.347182098793951 37.70188491810643)" stroke="none"><path fill="#000000" d="M 1.53,-0.46 Q 1.53,-0.46 2.74,1.47 3.94,3.40 4.40,4.64 4.86,5.87 5.53,7.97 6.20,10.06 6.73,12.53 7.25,15.00 7.64,16.29 8.02,17.59 8.44,19.32 8.86,21.04 10.63,25.83 12.40,30.62 13.24,33.14 14.09,35.66 14.64,37.34 15.20,39.02 15.62,40.08 16.04,41.14 16.47,42.29 16.90,43.45 17.37,45.12 17.85,46.79 18.43,48.63 19.00,50.47 19.82,52.47 20.64,54.48 21.04,55.58 21.44,56.67 21.83,58.06 22.22,59.44 22.79,61.65 23.36,63.85 23.73,64.87 24.10,65.89 24.48,67.04 24.85,68.19 25.20,69.27 25.55,70.34 24.77,72.44 23.99,74.55 23.99,74.70 23.99,74.86 23.95,75.02 23.92,75.17 23.84,75.31 23.77,75.45 23.66,75.57 23.56,75.69 23.43,75.78 23.30,75.87 23.15,75.92 23.00,75.98 22.84,76.00 22.69,76.01 22.53,76.00 22.37,75.98 22.22,75.92 22.08,75.86 21.95,75.77 21.82,75.68 21.71,75.56 21.61,75.45 21.53,75.31 21.46,75.17 21.42,75.01 21.39,74.86 21.42,74.56 21.45,74.27 21.55,74.08 21.65,73.90 21.81,73.75 21.96,73.61 22.16,73.52 22.35,73.43 22.56,73.41 22.77,73.39 22.98,73.44 23.19,73.49 23.37,73.60 23.55,73.71 23.69,73.87 23.82,74.04 23.90,74.23 23.97,74.43 23.98,74.64 23.99,74.86 23.93,75.06 23.88,75.26 23.75,75.44 23.63,75.61 23.46,75.74 23.29,75.87 23.09,75.93 22.89,76.00 22.68,76.00 22.46,76.00 22.26,75.93 22.06,75.86 21.89,75.73 21.73,75.60 21.61,75.42 21.49,75.24 21.44,75.04 21.38,74.83 21.40,74.62 21.41,74.41 21.49,74.21 21.57,74.01 21.71,73.85 21.85,73.69 22.03,73.58 22.22,73.48 22.42,73.43 22.63,73.39 22.84,73.41 23.05,73.44 23.25,73.53 23.44,73.62 23.59,73.77 23.74,73.92 23.84,74.11 23.94,74.29 23.97,74.50 24.00,74.71 24.00,74.63 23.99,74.54 23.99,74.70 23.99,74.86 23.95,75.02 23.92,75.17 23.84,75.31 23.77,75.45 23.66,75.57 23.56,75.69 23.43,75.78 23.30,75.87 23.15,75.92 23.00,75.98 22.84,76.00 22.69,76.01 22.53,76.00 22.37,75.98 22.23,75.92 22.08,75.86 21.95,75.77 21.82,75.68 21.71,75.56 21.61,75.45 21.53,75.31 21.46,75.17 21.42,75.01 21.39,74.86 20.85,73.95 20.31,73.04 19.60,71.43 18.90,69.82 18.41,68.34 17.92,66.86 17.47,65.10 17.02,63.34 16.61,62.25 16.20,61.16 15.86,59.94 15.51,58.73 14.82,56.69 14.12,54.65 13.70,53.59 13.27,52.54 12.66,50.55 12.05,48.57 11.62,47.03 11.19,45.49 10.82,44.42 10.45,43.34 9.98,42.12 9.50,40.91 8.94,39.22 8.39,37.54 7.60,35.11 6.82,32.68 5.40,28.78 3.99,24.88 3.58,23.63 3.17,22.38 2.81,20.79 2.46,19.21 2.02,17.68 1.58,16.15 1.15,13.95 0.72,11.74 0.15,9.77 -0.42,7.80 -0.92,6.40 -1.42,5.01 -1.48,2.73 -1.53,0.46 -1.57,0.27 -1.60,0.07 -1.59,-0.11 -1.57,-0.30 -1.51,-0.49 -1.45,-0.67 -1.35,-0.83 -1.25,-1.00 -1.11,-1.14 -0.97,-1.27 -0.81,-1.37 -0.64,-1.47 -0.45,-1.52 -0.27,-1.58 -0.07,-1.59 0.11,-1.60 0.30,-1.56 0.49,-1.52 0.67,-1.44 0.84,-1.36 0.99,-1.24 1.14,-1.12 1.26,-0.97 1.38,-0.81 1.46,-0.63 1.53,-0.46 1.53,-0.46 L 1.53,-0.46 Z"></path></g><g transform="translate(222.3842532592937 240.08599766605357) rotate(0 26.72073500589704 -30.74718959360348)" stroke="none"><path fill="#000000" d="M -1.30,-0.93 Q -1.30,-0.93 -0.73,-2.74 -0.15,-4.56 0.98,-5.93 2.12,-7.29 3.15,-8.64 4.19,-9.99 4.90,-10.82 5.60,-11.65 6.56,-12.68 7.53,-13.72 8.24,-14.67 8.95,-15.63 10.18,-16.91 11.41,-18.19 12.88,-19.47 14.34,-20.75 15.63,-22.00 16.93,-23.25 18.47,-24.80 20.02,-26.35 20.83,-27.15 21.64,-27.95 22.85,-29.15 24.06,-30.36 24.81,-31.29 25.56,-32.21 26.58,-33.31 27.61,-34.40 28.68,-35.48 29.75,-36.56 30.72,-37.60 31.68,-38.63 32.40,-39.58 33.11,-40.52 33.98,-41.58 34.85,-42.64 35.59,-43.62 36.33,-44.60 37.29,-45.66 38.25,-46.73 39.02,-47.50 39.79,-48.27 40.91,-49.43 42.04,-50.60 43.12,-52.05 44.21,-53.49 44.92,-54.88 45.63,-56.26 46.78,-57.46 47.93,-58.65 48.68,-59.76 49.42,-60.86 50.49,-60.85 51.56,-60.83 51.50,-61.04 51.45,-61.24 51.46,-61.45 51.47,-61.67 51.54,-61.86 51.62,-62.06 51.76,-62.23 51.89,-62.39 52.07,-62.50 52.26,-62.61 52.46,-62.66 52.67,-62.70 52.88,-62.68 53.09,-62.66 53.29,-62.57 53.48,-62.48 53.63,-62.34 53.79,-62.19 53.89,-62.01 53.99,-61.82 54.03,-61.61 54.06,-61.40 54.03,-61.19 54.00,-60.98 53.90,-60.79 53.80,-60.61 53.65,-60.46 53.49,-60.31 53.30,-60.22 53.11,-60.13 52.90,-60.11 52.69,-60.08 52.48,-60.13 52.27,-60.17 52.09,-60.28 51.91,-60.39 51.77,-60.55 51.63,-60.71 51.55,-60.91 51.47,-61.10 51.46,-61.31 51.44,-61.53 51.50,-61.73 51.55,-61.94 51.67,-62.11 51.79,-62.29 51.96,-62.42 52.13,-62.55 52.33,-62.62 52.53,-62.69 52.74,-62.69 52.95,-62.69 53.16,-62.62 53.36,-62.56 53.53,-62.43 53.70,-62.30 53.82,-62.13 53.94,-61.95 53.94,-61.95 53.94,-61.95 53.44,-59.36 52.95,-56.77 51.82,-54.97 50.70,-53.17 50.01,-52.13 49.33,-51.10 48.47,-50.20 47.62,-49.30 47.06,-48.33 46.50,-47.35 45.70,-46.61 44.89,-45.87 44.07,-44.68 43.25,-43.49 42.50,-42.72 41.76,-41.94 40.86,-40.90 39.96,-39.85 38.84,-38.39 37.72,-36.92 36.83,-35.79 35.94,-34.66 35.12,-33.78 34.30,-32.90 33.22,-31.82 32.14,-30.74 31.22,-29.81 30.30,-28.87 29.23,-27.57 28.16,-26.26 26.96,-25.04 25.75,-23.83 24.95,-23.02 24.14,-22.21 23.23,-21.31 22.31,-20.40 21.10,-19.22 19.89,-18.03 19.10,-17.25 18.31,-16.47 17.11,-15.49 15.92,-14.51 14.72,-13.27 13.53,-12.02 12.62,-10.89 11.71,-9.76 10.20,-8.09 8.69,-6.43 7.54,-5.03 6.40,-3.62 5.38,-2.47 4.36,-1.32 2.83,-0.19 1.30,0.93 1.17,1.07 1.04,1.21 0.88,1.32 0.72,1.43 0.54,1.49 0.35,1.56 0.16,1.58 -0.02,1.60 -0.21,1.57 -0.40,1.55 -0.58,1.47 -0.76,1.40 -0.92,1.29 -1.08,1.18 -1.20,1.03 -1.33,0.88 -1.42,0.71 -1.50,0.54 -1.55,0.35 -1.59,0.16 -1.59,-0.02 -1.58,-0.21 -1.53,-0.40 -1.48,-0.59 -1.39,-0.76 -1.30,-0.93 -1.30,-0.93 L -1.30,-0.93 Z"></path></g><g transform="translate(289.00308305868407 180.7878451101128) rotate(0 21.596250881954916 7.320777778725983)" stroke="none"><path fill="#000000" d="M -0.25,-1.54 Q -0.25,-1.54 0.91,-2.29 2.08,-3.04 4.10,-2.97 6.11,-2.89 7.56,-2.59 9.02,-2.29 10.07,-1.83 11.12,-1.38 12.84,-0.67 14.56,0.04 16.10,0.34 17.63,0.63 18.78,0.99 19.92,1.34 21.11,1.65 22.31,1.96 23.81,2.54 25.31,3.13 26.85,3.63 28.39,4.13 29.56,4.58 30.74,5.03 31.91,5.64 33.09,6.26 34.30,6.65 35.52,7.04 36.52,7.51 37.52,7.98 38.63,8.42 39.74,8.85 41.06,9.66 42.38,10.47 43.34,12.57 44.31,14.66 44.37,14.87 44.42,15.07 44.41,15.29 44.39,15.50 44.31,15.70 44.23,15.89 44.09,16.05 43.96,16.21 43.77,16.32 43.59,16.43 43.38,16.47 43.17,16.52 42.96,16.49 42.75,16.47 42.56,16.38 42.37,16.29 42.21,16.14 42.06,15.99 41.96,15.80 41.87,15.61 41.83,15.40 41.80,15.19 41.84,14.98 41.87,14.78 41.97,14.59 42.07,14.40 42.23,14.26 42.39,14.11 42.58,14.02 42.77,13.94 42.98,13.92 43.20,13.89 43.40,13.94 43.61,13.99 43.79,14.10 43.97,14.21 44.11,14.37 44.24,14.54 44.32,14.74 44.40,14.93 44.41,15.15 44.42,15.36 44.36,15.56 44.30,15.77 44.18,15.94 44.06,16.12 43.89,16.24 43.72,16.37 43.52,16.44 43.31,16.50 43.10,16.50 42.89,16.50 42.69,16.43 42.49,16.36 42.32,16.23 42.15,16.10 42.03,15.92 41.92,15.75 41.92,15.75 41.92,15.75 39.43,14.75 36.94,13.75 35.62,13.38 34.29,13.01 33.07,12.48 31.84,11.95 30.50,11.29 29.16,10.63 27.72,10.09 26.28,9.56 24.35,8.65 22.42,7.75 20.79,7.40 19.16,7.04 18.08,6.68 17.01,6.32 15.48,5.95 13.96,5.57 12.84,5.19 11.72,4.81 10.60,4.36 9.49,3.92 7.82,3.25 6.16,2.58 4.56,2.39 2.96,2.20 1.61,1.87 0.25,1.54 0.06,1.55 -0.11,1.55 -0.30,1.52 -0.48,1.48 -0.65,1.40 -0.83,1.32 -0.97,1.20 -1.12,1.08 -1.23,0.93 -1.35,0.78 -1.42,0.61 -1.50,0.44 -1.53,0.25 -1.56,0.06 -1.54,-0.11 -1.53,-0.30 -1.47,-0.48 -1.41,-0.66 -1.31,-0.82 -1.21,-0.98 -1.07,-1.11 -0.94,-1.24 -0.78,-1.34 -0.61,-1.43 -0.43,-1.48 -0.25,-1.54 -0.25,-1.54 L -0.25,-1.54 Z"></path></g><g transform="translate(310.23331850993395 186.64446063074183) rotate(0 -8.784906525064002 34.04151278462302)" stroke="none"><path fill="#000000" d="M 1.42,0.40 Q 1.42,0.40 1.38,1.98 1.33,3.56 0.96,5.01 0.58,6.46 0.14,8.46 -0.28,10.46 -0.63,11.66 -0.97,12.85 -1.41,14.35 -1.84,15.85 -2.26,17.25 -2.68,18.64 -3.03,20.24 -3.39,21.84 -3.75,23.42 -4.10,25.00 -4.49,26.20 -4.87,27.40 -5.15,28.73 -5.43,30.05 -5.82,31.41 -6.22,32.77 -6.60,34.66 -6.98,36.56 -7.82,38.14 -8.65,39.72 -9.21,41.43 -9.76,43.14 -10.13,44.51 -10.49,45.88 -10.88,47.45 -11.27,49.01 -11.67,50.30 -12.06,51.58 -12.37,53.45 -12.68,55.33 -12.78,56.73 -12.89,58.14 -13.20,59.23 -13.52,60.32 -13.89,61.50 -14.26,62.68 -14.66,64.26 -15.06,65.85 -15.36,65.43 -15.65,65.02 -15.68,65.18 -15.70,65.33 -15.77,65.48 -15.83,65.62 -15.93,65.75 -16.02,65.88 -16.14,65.97 -16.27,66.07 -16.41,66.14 -16.55,66.21 -16.71,66.24 -16.86,66.27 -17.02,66.26 -17.18,66.26 -17.33,66.21 -17.48,66.17 -17.62,66.09 -17.76,66.01 -17.87,65.90 -17.99,65.79 -18.07,65.65 -18.15,65.52 -18.20,65.37 -18.25,65.22 -18.26,65.06 -18.28,64.90 -18.18,64.58 -18.08,64.26 -17.93,64.10 -17.79,63.94 -17.61,63.84 -17.43,63.73 -17.22,63.69 -17.01,63.65 -16.80,63.68 -16.59,63.70 -16.40,63.80 -16.20,63.89 -16.05,64.04 -15.90,64.19 -15.81,64.38 -15.71,64.57 -15.68,64.78 -15.65,64.99 -15.69,65.20 -15.73,65.41 -15.83,65.59 -15.94,65.78 -16.09,65.92 -16.25,66.06 -16.44,66.15 -16.64,66.23 -16.85,66.25 -17.06,66.27 -17.27,66.22 -17.48,66.17 -17.66,66.06 -17.84,65.94 -17.97,65.78 -18.10,65.61 -18.18,65.42 -18.25,65.22 -18.26,65.00 -18.27,64.79 -18.21,64.59 -18.14,64.39 -18.02,64.21 -17.90,64.04 -17.73,63.91 -17.56,63.79 -17.35,63.72 -17.15,63.66 -16.94,63.67 -16.72,63.67 -16.52,63.74 -16.33,63.81 -16.16,63.95 -15.99,64.08 -15.88,64.26 -15.76,64.43 -15.71,64.64 -15.66,64.85 -15.67,65.06 -15.69,65.27 -15.67,65.15 -15.65,65.02 -15.68,65.18 -15.70,65.33 -15.77,65.48 -15.83,65.62 -15.93,65.75 -16.02,65.88 -16.14,65.97 -16.27,66.07 -16.41,66.14 -16.55,66.21 -16.71,66.24 -16.86,66.27 -17.02,66.26 -17.18,66.26 -17.33,66.21 -17.48,66.17 -17.62,66.09 -17.76,66.01 -17.87,65.90 -17.99,65.79 -18.07,65.65 -18.15,65.52 -18.20,65.37 -18.25,65.22 -18.26,65.06 -18.28,64.90 -19.08,64.82 -19.89,64.73 -19.58,63.41 -19.27,62.09 -18.84,60.77 -18.41,59.45 -18.09,58.16 -17.78,56.86 -17.58,55.35 -17.38,53.83 -17.14,52.59 -16.90,51.36 -16.54,50.24 -16.17,49.12 -15.85,47.88 -15.52,46.65 -15.29,45.42 -15.05,44.20 -14.60,42.67 -14.15,41.15 -13.62,39.99 -13.08,38.82 -12.24,36.87 -11.40,34.91 -11.15,33.67 -10.90,32.44 -10.54,31.30 -10.18,30.17 -9.81,28.70 -9.45,27.23 -9.09,26.11 -8.73,25.00 -8.35,23.09 -7.98,21.18 -7.57,19.40 -7.15,17.62 -6.64,15.93 -6.13,14.23 -5.75,12.91 -5.36,11.58 -5.05,10.50 -4.73,9.42 -4.28,7.35 -3.82,5.29 -3.42,3.81 -3.02,2.32 -2.22,0.95 -1.42,-0.40 -1.35,-0.57 -1.28,-0.73 -1.18,-0.88 -1.07,-1.02 -0.93,-1.13 -0.79,-1.25 -0.63,-1.32 -0.47,-1.40 -0.29,-1.44 -0.12,-1.47 0.05,-1.47 0.23,-1.46 0.40,-1.41 0.57,-1.36 0.73,-1.27 0.88,-1.18 1.01,-1.06 1.14,-0.94 1.24,-0.79 1.33,-0.64 1.39,-0.47 1.45,-0.30 1.46,-0.12 1.48,0.05 1.45,0.23 1.42,0.40 1.42,0.40 L 1.42,0.40 Z"></path></g></svg>