<svg version="1.1" xmlns="http://www.w3.org/2000/svg" viewBox="0 0 409.72526683056685 326.8647898528336" width="1229.1758004917006" height="980.5943695585008">
  <!-- svg-source:excalidraw -->
  
  <defs>
    <style class="style-fonts">
      @font-face {
        font-family: "Virgil";
        src: url("https://excalidraw.com/Virgil.woff2");
      }
      @font-face {
        font-family: "Cascadia";
        src: url("https://excalidraw.com/Cascadia.woff2");
      }
    </style>
  </defs>
  <g stroke-linecap="round" transform="translate(10 10) rotate(0 194.86263341528343 153.4323949264168)"><path d="M-0.53 -0.27 C99.77 0.09, 201.22 -0.41, 388.69 0.93 M0.56 0.54 C122.78 -0.88, 245.88 -0.73, 389.43 -0.44 M389.28 -1.34 C389.43 78.47, 389.92 158.13, 390.52 307.19 M389.78 0.2 C388.81 94.79, 388.93 189.04, 389.94 307.02 M389.69 306.22 C264.03 305.55, 137.22 306.58, -1.01 305.89 M389.16 306.39 C283.26 304.91, 176.87 304.97, 0.01 306.39 M0.36 305.54 C2.54 226.95, 0.73 145.04, 1.04 0.51 M0.35 306.26 C1.1 187.01, 1.95 66.73, 0.36 0.68" stroke="transparent" stroke-width="1" fill="none"></path></g><g transform="translate(260.69416617836964 92.80634699504117) rotate(0 66.27664283081197 48.879022428557505)" stroke="none"><path fill="#000000" d="M -0.92,-1.15 Q -0.92,-1.15 -0.49,-1.84 -0.06,-2.53 1.04,-3.26 2.16,-3.99 3.31,-4.43 4.47,-4.86 5.71,-5.29 6.94,-5.71 8.16,-5.95 9.39,-6.20 11.21,-6.11 13.02,-6.01 14.29,-5.81 15.56,-5.61 16.64,-5.41 17.73,-5.20 18.97,-4.58 20.21,-3.96 21.49,-2.93 22.77,-1.89 23.53,-0.81 24.28,0.26 24.82,1.36 25.35,2.46 25.53,3.64 25.71,4.82 25.93,6.01 26.15,7.21 26.35,8.25 26.54,9.30 26.59,10.55 26.64,11.80 26.26,12.95 25.87,14.10 25.00,15.22 24.13,16.34 23.17,16.85 22.21,17.36 20.97,17.68 19.72,18.00 17.99,17.52 16.25,17.05 14.98,15.84 13.71,14.64 13.11,13.56 12.51,12.48 12.36,11.33 12.21,10.17 12.00,8.50 11.79,6.82 11.78,5.43 11.76,4.04 11.94,2.95 12.12,1.86 12.29,0.04 12.46,-1.78 12.81,-3.00 13.15,-4.22 13.65,-5.58 14.14,-6.95 14.97,-8.32 15.80,-9.70 16.75,-10.82 17.71,-11.95 18.57,-12.58 19.43,-13.20 20.51,-13.74 21.58,-14.28 22.90,-14.49 24.22,-14.70 25.68,-14.73 27.14,-14.76 28.43,-14.76 29.71,-14.76 31.31,-14.40 32.91,-14.03 34.06,-13.83 35.21,-13.62 36.40,-13.41 37.58,-13.19 38.95,-12.28 40.31,-11.36 41.35,-9.84 42.39,-8.31 42.63,-7.25 42.87,-6.18 43.20,-4.49 43.52,-2.80 43.64,-1.43 43.76,-0.06 43.79,1.36 43.83,2.79 43.45,4.44 43.08,6.09 42.20,7.52 41.32,8.95 40.29,9.52 39.26,10.10 38.13,10.41 37.01,10.72 35.89,10.77 34.78,10.83 33.32,10.12 31.87,9.42 30.90,8.49 29.92,7.56 29.15,5.97 28.38,4.38 28.38,2.88 28.39,1.38 28.71,-0.20 29.04,-1.79 29.47,-3.26 29.90,-4.73 30.28,-5.73 30.65,-6.73 31.15,-7.90 31.65,-9.07 32.31,-10.40 32.97,-11.73 33.70,-12.67 34.43,-13.61 35.51,-14.56 36.59,-15.51 37.84,-16.20 39.09,-16.88 40.42,-17.14 41.74,-17.41 43.20,-17.47 44.66,-17.53 46.18,-17.54 47.70,-17.55 48.82,-17.36 49.94,-17.18 51.48,-16.80 53.01,-16.41 54.18,-16.18 55.36,-15.95 56.78,-15.50 58.19,-15.06 59.31,-14.32 60.43,-13.59 61.34,-12.73 62.25,-11.88 63.01,-10.94 63.78,-10.00 64.18,-8.87 64.58,-7.73 64.95,-6.11 65.33,-4.50 65.45,-3.16 65.56,-1.82 65.58,-0.35 65.59,1.10 65.08,2.98 64.57,4.86 63.86,6.44 63.14,8.02 62.23,8.83 61.33,9.63 60.16,10.16 59.00,10.69 57.43,11.40 55.85,12.11 54.79,12.37 53.73,12.63 52.66,12.67 51.58,12.70 49.97,11.42 48.35,10.13 48.08,8.35 47.81,6.57 48.08,4.91 48.35,3.24 48.77,1.85 49.19,0.47 49.81,-0.96 50.43,-2.40 51.08,-3.82 51.74,-5.24 52.26,-6.18 52.79,-7.12 53.58,-8.52 54.37,-9.91 55.11,-10.79 55.85,-11.67 56.98,-12.49 58.11,-13.31 59.36,-13.86 60.60,-14.41 62.43,-14.78 64.25,-15.15 65.39,-15.18 66.52,-15.20 67.72,-15.20 68.93,-15.21 70.48,-15.04 72.04,-14.88 73.05,-14.50 74.06,-14.12 75.94,-13.55 77.81,-12.97 79.77,-11.74 81.72,-10.51 82.49,-9.59 83.25,-8.66 83.82,-7.62 84.39,-6.57 84.96,-5.43 85.54,-4.28 86.36,-2.67 87.18,-1.05 87.41,0.07 87.65,1.19 87.68,2.41 87.72,3.63 87.43,5.04 87.13,6.45 86.52,7.72 85.92,8.99 85.06,10.36 84.21,11.73 83.52,12.60 82.84,13.47 81.46,14.34 80.08,15.21 78.89,15.52 77.70,15.84 76.52,15.97 75.35,16.11 74.10,15.87 72.85,15.63 71.80,14.78 70.74,13.92 70.09,12.72 69.43,11.52 69.66,9.39 69.89,7.25 70.56,6.12 71.24,5.00 71.99,4.08 72.74,3.17 73.67,2.22 74.60,1.26 75.83,0.17 77.06,-0.92 78.43,-1.97 79.81,-3.02 81.35,-3.73 82.89,-4.45 84.50,-4.88 86.11,-5.32 87.74,-5.36 89.36,-5.39 90.61,-5.39 91.86,-5.39 94.87,-4.55 97.88,-3.70 99.89,-2.50 101.90,-1.29 102.92,-0.27 103.94,0.75 104.82,3.07 105.70,5.40 106.03,6.94 106.35,8.48 106.41,9.85 106.48,11.23 106.48,12.69 106.49,14.16 106.16,15.50 105.82,16.84 105.38,17.89 104.94,18.93 104.13,20.27 103.33,21.61 102.45,22.56 101.57,23.51 100.42,24.33 99.27,25.15 98.14,25.77 97.02,26.40 95.77,26.74 94.53,27.09 93.40,27.33 92.26,27.57 90.86,27.52 89.47,27.48 88.00,26.57 86.53,25.67 85.91,24.80 85.29,23.94 85.07,22.82 84.85,21.69 85.31,20.30 85.77,18.91 86.82,17.58 87.87,16.24 88.86,15.54 89.84,14.84 90.92,14.20 91.99,13.56 93.09,13.16 94.19,12.76 95.38,12.42 96.57,12.08 97.80,11.74 99.04,11.41 100.27,11.28 101.50,11.16 102.59,11.01 103.68,10.86 105.01,10.75 106.34,10.64 107.63,10.64 108.93,10.64 110.26,10.97 111.59,11.30 112.81,11.68 114.02,12.06 115.22,12.55 116.42,13.04 117.49,13.97 118.56,14.89 119.03,15.97 119.51,17.06 119.83,18.11 120.15,19.17 120.58,20.63 121.01,22.08 121.11,23.55 121.21,25.01 121.09,26.35 120.96,27.69 120.74,28.73 120.53,29.77 118.30,32.56 116.08,35.35 115.21,36.25 114.34,37.14 112.95,38.17 111.55,39.19 110.13,40.10 108.71,41.02 107.35,41.89 105.99,42.76 104.56,43.21 103.14,43.65 101.35,43.33 99.56,43.01 98.84,41.26 98.12,39.52 98.45,37.51 98.79,35.50 99.32,34.56 99.86,33.62 100.69,32.92 101.51,32.22 102.67,31.67 103.83,31.12 105.21,30.60 106.59,30.07 107.82,29.76 109.04,29.45 110.50,29.03 111.96,28.61 113.17,28.55 114.37,28.48 115.87,28.47 117.36,28.46 118.85,28.85 120.33,29.24 121.56,30.38 122.79,31.51 123.79,32.75 124.79,33.99 125.64,34.99 126.49,36.00 127.12,37.09 127.74,38.18 128.26,39.30 128.77,40.43 129.12,41.61 129.46,42.78 129.42,45.27 129.38,47.76 129.14,48.82 128.91,49.88 128.17,51.16 127.43,52.45 126.43,53.67 125.44,54.89 124.24,56.02 123.05,57.14 121.33,58.37 119.62,59.59 118.00,60.75 116.38,61.90 115.29,62.49 114.21,63.08 112.31,63.54 110.42,63.99 108.92,63.77 107.42,63.56 106.18,62.29 104.95,61.03 104.64,59.97 104.33,58.92 104.51,57.75 104.70,56.58 105.36,55.29 106.02,54.00 106.85,52.87 107.67,51.75 108.96,51.06 110.24,50.36 111.92,50.24 113.59,50.12 114.77,50.09 115.94,50.07 117.21,50.21 118.47,50.36 119.76,50.72 121.06,51.09 122.09,51.51 123.13,51.93 124.20,52.54 125.27,53.16 126.42,53.86 127.57,54.57 129.15,56.34 130.73,58.12 131.75,59.61 132.76,61.10 133.15,62.53 133.53,63.97 134.02,64.94 134.50,65.91 134.89,67.77 135.28,69.63 135.19,71.04 135.11,72.45 134.36,74.10 133.61,75.75 132.48,77.51 131.36,79.27 130.26,80.51 129.16,81.76 128.25,82.67 127.33,83.58 126.02,84.71 124.72,85.85 123.39,86.66 122.07,87.46 120.48,88.10 118.89,88.75 117.34,89.15 115.78,89.55 114.47,89.69 113.15,89.84 111.47,89.37 109.78,88.90 108.40,87.32 107.02,85.74 106.27,84.00 105.52,82.25 105.98,80.65 106.45,79.06 107.38,77.64 108.30,76.22 109.19,75.32 110.07,74.42 111.02,73.67 111.97,72.93 113.70,72.66 115.44,72.39 116.51,72.99 117.59,73.59 118.53,74.36 119.48,75.14 120.64,76.09 121.80,77.05 122.79,78.35 123.78,79.65 124.52,80.62 125.27,81.59 126.12,82.63 126.97,83.68 127.58,85.59 128.19,87.50 128.34,88.63 128.49,89.76 128.57,90.86 128.65,91.97 128.48,93.56 128.32,95.15 127.90,96.47 127.48,97.78 127.06,99.08 126.63,100.37 125.92,101.73 125.20,103.09 124.77,104.30 124.34,105.51 123.80,106.51 123.25,107.50 122.62,108.67 121.99,109.83 121.41,110.73 120.82,111.63 119.43,112.62 118.05,113.60 116.28,113.92 114.51,114.23 112.93,114.08 111.36,113.92 110.06,113.68 108.77,113.43 107.24,112.44 105.70,111.45 104.92,110.50 104.14,109.54 103.39,107.94 102.64,106.34 102.35,104.67 102.07,102.99 103.07,101.40 104.08,99.82 105.51,99.27 106.95,98.72 108.06,98.48 109.16,98.24 110.76,98.54 112.36,98.84 114.26,100.09 116.15,101.34 117.12,102.70 118.08,104.05 118.48,105.81 118.88,107.56 117.84,110.36 116.80,113.15 116.67,113.32 116.53,113.48 116.35,113.59 116.17,113.70 115.96,113.75 115.75,113.80 115.54,113.77 115.33,113.75 115.14,113.67 114.94,113.58 114.79,113.43 114.63,113.29 114.53,113.10 114.43,112.91 114.39,112.70 114.36,112.50 114.39,112.29 114.42,112.08 114.52,111.89 114.62,111.70 114.77,111.55 114.93,111.40 115.12,111.31 115.31,111.22 115.52,111.20 115.73,111.17 115.94,111.22 116.15,111.26 116.33,111.37 116.51,111.48 116.65,111.64 116.79,111.80 116.87,112.00 116.95,112.19 116.96,112.40 116.98,112.62 116.92,112.82 116.87,113.03 116.75,113.20 116.63,113.38 116.46,113.51 116.30,113.64 116.09,113.71 115.89,113.78 115.68,113.78 115.47,113.78 115.27,113.72 115.07,113.65 114.90,113.52 114.72,113.40 114.60,113.22 114.48,113.05 114.43,112.84 114.37,112.64 114.38,112.42 114.39,112.21 114.46,112.01 114.54,111.82 114.54,111.82 114.54,111.82 114.19,110.25 113.84,108.68 113.61,107.26 113.38,105.83 112.64,105.00 111.90,104.17 110.57,103.75 109.25,103.32 108.35,104.07 107.45,104.81 108.08,105.97 108.72,107.13 109.78,107.76 110.84,108.39 112.31,108.52 113.78,108.66 114.84,108.50 115.91,108.33 116.74,107.54 117.58,106.76 118.23,105.45 118.89,104.14 119.39,103.05 119.88,101.96 120.22,100.94 120.56,99.92 121.11,98.95 121.65,97.97 121.99,96.87 122.32,95.77 122.74,94.67 123.15,93.57 123.12,92.49 123.09,91.42 122.96,90.10 122.82,88.77 122.15,87.14 121.49,85.52 120.61,84.40 119.74,83.29 118.96,82.13 118.19,80.97 117.02,80.06 115.85,79.15 114.75,78.56 113.65,77.97 112.71,78.88 111.77,79.79 111.11,80.66 110.45,81.53 111.22,82.71 111.99,83.89 113.14,83.86 114.30,83.83 116.01,83.34 117.71,82.86 119.02,82.23 120.34,81.61 121.22,80.89 122.11,80.17 123.35,79.06 124.60,77.95 125.69,76.79 126.77,75.64 127.55,74.48 128.33,73.32 129.00,72.09 129.67,70.86 129.46,69.63 129.24,68.40 128.93,67.36 128.62,66.33 128.30,65.16 127.98,63.98 127.19,62.81 126.40,61.64 125.05,59.96 123.70,58.27 121.98,57.28 120.26,56.30 119.24,55.99 118.23,55.68 117.10,55.41 115.96,55.14 114.84,55.14 113.71,55.14 112.14,55.47 110.57,55.79 110.67,57.12 110.77,58.45 111.90,57.87 113.04,57.28 114.68,56.12 116.33,54.96 117.85,53.90 119.38,52.83 120.33,51.98 121.28,51.13 122.02,50.26 122.77,49.38 123.34,48.20 123.91,47.03 123.95,45.12 123.99,43.21 123.61,42.19 123.23,41.17 122.49,39.86 121.76,38.54 120.94,37.49 120.11,36.44 119.28,35.43 118.44,34.43 117.43,34.05 116.43,33.66 115.04,33.69 113.65,33.71 112.43,33.93 111.21,34.16 109.70,34.58 108.19,35.00 107.11,35.40 106.03,35.80 104.89,36.43 103.75,37.05 102.79,37.57 101.83,38.08 102.89,37.70 103.95,37.31 105.00,36.60 106.04,35.89 107.12,35.19 108.21,34.49 109.21,33.81 110.21,33.12 111.07,32.24 111.92,31.36 113.70,29.03 115.49,26.71 115.58,25.28 115.67,23.86 115.45,22.71 115.23,21.57 114.84,20.20 114.45,18.84 113.65,18.00 112.85,17.17 111.53,16.76 110.21,16.36 108.82,16.12 107.42,15.88 106.04,15.96 104.66,16.03 103.28,16.21 101.91,16.39 100.78,16.52 99.65,16.66 98.39,16.98 97.13,17.31 95.49,17.93 93.86,18.56 92.66,19.27 91.46,19.99 90.55,21.10 89.65,22.22 90.99,22.13 92.33,22.05 93.66,21.49 95.00,20.94 95.95,20.42 96.90,19.90 97.85,18.91 98.79,17.92 99.46,16.60 100.13,15.27 100.36,14.17 100.59,13.06 100.57,11.81 100.54,10.56 100.49,9.38 100.44,8.20 100.18,6.90 99.92,5.59 99.12,4.44 98.32,3.29 96.89,2.44 95.47,1.59 94.17,1.01 92.87,0.43 91.75,0.42 90.63,0.42 89.41,0.43 88.20,0.44 87.14,0.49 86.07,0.54 84.51,1.21 82.95,1.88 81.62,2.84 80.29,3.80 79.23,4.83 78.16,5.86 77.12,6.98 76.07,8.11 75.54,9.22 75.02,10.32 76.31,10.13 77.60,9.93 78.51,9.29 79.42,8.66 80.30,7.25 81.19,5.85 81.64,4.77 82.09,3.69 82.07,2.57 82.05,1.44 81.61,0.39 81.17,-0.66 80.40,-2.09 79.62,-3.51 79.13,-4.74 78.63,-5.97 77.73,-6.71 76.83,-7.45 75.72,-7.87 74.61,-8.28 73.51,-8.54 72.41,-8.80 70.67,-9.22 68.94,-9.64 67.75,-9.63 66.57,-9.62 65.02,-9.61 63.47,-9.60 62.04,-8.97 60.61,-8.35 59.82,-7.63 59.03,-6.90 58.33,-5.66 57.62,-4.41 56.89,-3.03 56.17,-1.66 55.70,-0.65 55.22,0.35 54.79,1.41 54.36,2.47 54.02,3.65 53.68,4.83 53.55,5.96 53.41,7.09 54.82,6.51 56.22,5.93 57.31,5.57 58.40,5.21 58.92,4.20 59.43,3.20 59.87,1.76 60.30,0.32 60.27,-1.13 60.24,-2.58 60.04,-3.76 59.85,-4.94 59.57,-6.16 59.29,-7.38 58.26,-8.38 57.23,-9.38 56.37,-10.02 55.51,-10.67 53.98,-10.91 52.46,-11.16 51.18,-11.45 49.90,-11.74 48.79,-12.00 47.68,-12.27 46.19,-12.27 44.70,-12.27 43.54,-12.24 42.38,-12.21 40.92,-11.69 39.47,-11.17 38.64,-10.40 37.82,-9.62 37.22,-8.66 36.63,-7.71 36.05,-6.28 35.47,-4.85 34.93,-3.18 34.38,-1.51 33.97,-0.27 33.56,0.95 33.67,2.56 33.79,4.16 34.53,4.94 35.27,5.71 36.61,5.62 37.95,5.53 38.39,4.39 38.82,3.25 38.92,2.03 39.01,0.81 38.95,-0.55 38.89,-1.93 38.70,-3.05 38.51,-4.17 37.99,-5.80 37.47,-7.42 36.60,-8.15 35.74,-8.88 34.62,-9.09 33.50,-9.30 32.36,-9.48 31.23,-9.66 30.12,-9.87 29.00,-10.08 27.70,-10.08 26.40,-10.07 25.06,-10.05 23.72,-10.03 22.54,-9.69 21.37,-9.34 20.52,-8.21 19.68,-7.08 19.01,-6.02 18.35,-4.95 17.95,-3.82 17.55,-2.68 17.17,-1.40 16.80,-0.12 16.76,1.19 16.72,2.50 16.57,3.74 16.42,4.98 16.48,6.64 16.55,8.30 16.94,10.01 17.33,11.71 18.18,12.46 19.04,13.21 20.23,13.17 21.41,13.13 21.81,12.10 22.21,11.07 22.17,9.99 22.12,8.92 21.96,7.70 21.79,6.48 21.50,5.12 21.21,3.77 20.73,2.75 20.24,1.73 19.12,0.73 17.99,-0.27 16.82,-0.77 15.65,-1.27 14.60,-1.47 13.55,-1.66 12.30,-1.82 11.04,-1.97 9.84,-1.87 8.64,-1.78 7.60,-1.41 6.56,-1.05 5.47,-0.70 4.39,-0.36 3.42,0.13 2.45,0.63 1.68,0.89 0.92,1.15 0.77,1.24 0.61,1.33 0.45,1.39 0.28,1.44 0.10,1.46 -0.07,1.47 -0.24,1.44 -0.42,1.41 -0.58,1.34 -0.75,1.27 -0.89,1.16 -1.03,1.05 -1.14,0.91 -1.25,0.77 -1.32,0.61 -1.40,0.45 -1.43,0.27 -1.47,0.10 -1.46,-0.07 -1.45,-0.25 -1.40,-0.42 -1.35,-0.59 -1.26,-0.74 -1.17,-0.89 -1.04,-1.02 -0.92,-1.15 -0.92,-1.15 L -0.92,-1.15 Z"></path></g><g transform="translate(377.0925186093302 200.09166648831047) rotate(0 -55.92092272153229 24.439511214278696)" stroke="none"><path fill="#000000" d="M 1.55,-0.19 Q 1.55,-0.19 1.96,0.72 2.37,1.63 2.62,3.06 2.87,4.49 2.94,5.98 3.01,7.48 2.86,8.98 2.71,10.47 2.27,11.96 1.83,13.45 1.13,14.57 0.43,15.69 -0.48,16.73 -1.39,17.77 -2.55,18.81 -3.70,19.86 -4.83,20.82 -5.95,21.79 -6.87,22.53 -7.80,23.26 -9.45,24.09 -11.09,24.93 -12.87,25.33 -14.65,25.73 -16.31,25.72 -17.97,25.71 -19.03,25.36 -20.10,25.01 -21.14,24.48 -22.19,23.95 -23.12,23.31 -24.05,22.67 -24.97,21.73 -25.89,20.79 -26.58,19.90 -27.27,19.00 -27.92,17.94 -28.57,16.88 -28.88,15.39 -29.19,13.90 -29.19,12.81 -29.19,11.72 -28.96,10.19 -28.74,8.67 -27.93,7.42 -27.13,6.17 -26.04,5.30 -24.95,4.43 -23.26,3.88 -21.57,3.32 -20.37,3.46 -19.17,3.59 -18.14,4.14 -17.10,4.69 -16.09,5.78 -15.08,6.88 -13.97,8.52 -12.86,10.16 -12.41,11.30 -11.96,12.44 -11.62,13.73 -11.28,15.03 -11.19,16.10 -11.10,17.18 -11.07,18.64 -11.04,20.11 -11.00,21.24 -10.96,22.38 -11.14,23.62 -11.31,24.86 -12.05,26.57 -12.80,28.27 -13.56,29.31 -14.32,30.34 -15.21,31.30 -16.09,32.25 -17.44,33.22 -18.78,34.20 -19.86,34.74 -20.93,35.28 -22.29,35.60 -23.65,35.91 -24.78,36.22 -25.92,36.53 -27.00,36.86 -28.09,37.19 -29.69,37.26 -31.29,37.34 -33.38,36.60 -35.48,35.86 -36.70,34.74 -37.92,33.62 -39.15,31.78 -40.37,29.94 -40.83,28.89 -41.29,27.84 -41.62,26.83 -41.94,25.81 -42.17,24.25 -42.41,22.69 -42.44,21.34 -42.46,20.00 -42.18,18.88 -41.89,17.77 -41.30,16.83 -40.71,15.90 -39.83,15.10 -38.94,14.30 -37.88,14.16 -36.81,14.01 -35.09,14.67 -33.37,15.34 -32.57,16.21 -31.77,17.08 -31.14,18.62 -30.51,20.16 -30.30,21.65 -30.10,23.13 -30.15,25.18 -30.19,27.23 -30.36,29.31 -30.53,31.38 -30.93,32.85 -31.33,34.32 -31.77,35.32 -32.20,36.33 -32.64,37.32 -33.08,38.32 -33.83,39.64 -34.58,40.97 -35.24,41.93 -35.90,42.88 -36.81,43.85 -37.73,44.81 -39.23,45.93 -40.73,47.04 -41.92,47.49 -43.10,47.94 -44.66,47.98 -46.22,48.01 -47.95,47.59 -49.67,47.18 -50.56,46.53 -51.45,45.88 -52.70,44.41 -53.96,42.93 -54.61,41.86 -55.27,40.78 -55.73,39.66 -56.18,38.54 -56.72,36.46 -57.26,34.39 -57.64,32.82 -58.01,31.26 -58.09,29.93 -58.17,28.61 -58.16,27.34 -58.16,26.08 -57.73,24.94 -57.30,23.80 -56.38,22.68 -55.46,21.56 -54.42,21.03 -53.39,20.49 -51.98,20.62 -50.58,20.74 -49.48,21.93 -48.37,23.12 -47.83,24.48 -47.30,25.83 -47.01,27.05 -46.72,28.27 -46.74,30.30 -46.76,32.32 -47.08,33.97 -47.40,35.63 -47.74,36.74 -48.07,37.86 -48.42,39.38 -48.77,40.90 -49.24,42.00 -49.71,43.10 -50.38,44.34 -51.05,45.58 -51.68,46.45 -52.32,47.32 -53.38,48.24 -54.44,49.17 -56.03,50.08 -57.62,50.99 -58.71,51.35 -59.79,51.70 -61.64,51.61 -63.49,51.52 -65.05,51.17 -66.60,50.83 -67.59,50.40 -68.59,49.97 -69.49,49.23 -70.40,48.49 -71.38,47.23 -72.36,45.97 -72.98,44.42 -73.59,42.87 -73.93,41.57 -74.27,40.26 -74.51,39.00 -74.74,37.74 -74.85,36.28 -74.96,34.82 -74.98,33.51 -75.00,32.21 -74.99,30.75 -74.97,29.29 -74.51,27.72 -74.06,26.14 -73.51,25.19 -72.97,24.25 -72.30,23.37 -71.63,22.49 -70.54,22.10 -69.46,21.70 -68.08,21.86 -66.70,22.02 -65.78,22.61 -64.86,23.19 -64.38,24.35 -63.89,25.50 -63.53,26.93 -63.16,28.36 -63.21,29.93 -63.27,31.51 -63.80,33.21 -64.34,34.91 -64.97,36.59 -65.61,38.28 -66.11,39.57 -66.61,40.85 -67.38,41.83 -68.16,42.81 -69.23,43.81 -70.30,44.82 -71.15,45.63 -72.00,46.43 -72.96,47.04 -73.92,47.65 -75.93,48.68 -77.95,49.71 -79.03,50.17 -80.11,50.62 -81.54,50.98 -82.97,51.33 -84.39,51.57 -85.81,51.81 -87.17,51.62 -88.53,51.43 -89.49,50.97 -90.45,50.52 -92.14,49.34 -93.83,48.17 -94.87,46.88 -95.92,45.59 -96.69,43.89 -97.47,42.19 -97.87,40.17 -98.28,38.14 -98.41,35.98 -98.53,33.82 -98.54,32.55 -98.55,31.27 -98.24,29.55 -97.92,27.82 -97.42,26.40 -96.93,24.97 -96.49,23.96 -96.06,22.94 -95.02,21.67 -93.99,20.40 -92.45,19.45 -90.91,18.51 -89.79,18.45 -88.67,18.39 -87.29,18.88 -85.91,19.37 -85.00,20.20 -84.08,21.02 -83.30,22.47 -82.52,23.92 -82.19,25.29 -81.86,26.67 -81.94,28.02 -82.02,29.38 -82.57,31.01 -83.12,32.64 -86.93,35.66 -90.74,38.67 -92.38,39.61 -94.03,40.55 -96.35,41.25 -98.67,41.95 -100.12,42.06 -101.56,42.17 -103.51,41.90 -105.45,41.62 -107.04,41.37 -108.63,41.12 -109.59,40.64 -110.55,40.15 -111.63,39.32 -112.72,38.48 -113.33,36.39 -113.94,34.31 -113.94,34.09 -113.94,33.88 -113.87,33.68 -113.81,33.48 -113.68,33.31 -113.55,33.14 -113.38,33.02 -113.20,32.90 -113.00,32.84 -112.79,32.78 -112.58,32.79 -112.37,32.80 -112.17,32.88 -111.97,32.96 -111.81,33.09 -111.65,33.23 -111.54,33.41 -111.43,33.59 -111.38,33.80 -111.33,34.01 -111.35,34.22 -111.38,34.43 -111.46,34.62 -111.55,34.82 -111.70,34.97 -111.84,35.13 -112.03,35.23 -112.22,35.33 -112.43,35.36 -112.64,35.40 -112.85,35.37 -113.06,35.33 -113.24,35.23 -113.43,35.14 -113.58,34.98 -113.73,34.83 -113.82,34.64 -113.91,34.45 -113.93,34.23 -113.96,34.02 -113.91,33.82 -113.87,33.61 -113.76,33.42 -113.65,33.24 -113.49,33.10 -113.33,32.96 -113.13,32.88 -112.93,32.81 -112.72,32.79 -112.51,32.78 -112.31,32.83 -112.10,32.89 -111.92,33.01 -111.75,33.13 -111.62,33.30 -111.49,33.46 -111.42,33.66 -111.35,33.87 -111.35,33.87 -111.35,33.86 -109.14,34.70 -106.94,35.53 -105.72,35.72 -104.51,35.90 -103.14,36.17 -101.77,36.43 -100.66,36.35 -99.54,36.27 -98.21,35.90 -96.88,35.53 -95.42,34.70 -93.96,33.87 -90.77,31.72 -87.58,29.56 -87.45,28.42 -87.31,27.27 -87.63,26.06 -87.95,24.85 -89.03,24.50 -90.11,24.15 -90.79,25.43 -91.48,26.70 -91.88,27.89 -92.28,29.07 -92.53,30.15 -92.77,31.22 -92.75,32.45 -92.74,33.67 -92.64,35.42 -92.54,37.18 -92.27,38.63 -92.00,40.08 -91.31,41.60 -90.61,43.12 -89.50,44.08 -88.39,45.03 -87.04,45.44 -85.69,45.85 -84.47,45.64 -83.26,45.44 -82.20,44.95 -81.15,44.47 -79.73,43.85 -78.32,43.23 -77.21,42.64 -76.10,42.06 -75.22,41.23 -74.34,40.41 -73.17,39.34 -72.00,38.28 -71.54,37.13 -71.08,35.98 -70.53,34.58 -69.99,33.18 -69.38,31.58 -68.78,29.98 -68.48,28.63 -68.18,27.27 -68.68,28.32 -69.17,29.37 -69.15,30.77 -69.13,32.18 -69.12,33.33 -69.10,34.47 -69.03,35.54 -68.95,36.61 -68.57,38.37 -68.18,40.14 -67.75,41.48 -67.32,42.83 -66.68,43.70 -66.03,44.58 -64.84,44.97 -63.66,45.36 -62.02,45.51 -60.37,45.66 -59.36,45.15 -58.34,44.64 -57.39,43.81 -56.43,42.98 -55.69,41.67 -54.95,40.36 -54.45,39.27 -53.96,38.18 -53.57,36.81 -53.19,35.44 -52.82,34.15 -52.44,32.85 -52.24,31.61 -52.04,30.37 -52.02,29.30 -52.01,28.24 -52.43,27.25 -52.84,26.26 -52.81,27.32 -52.77,28.39 -52.62,29.88 -52.48,31.36 -52.22,32.69 -51.97,34.02 -51.47,35.35 -50.97,36.68 -50.41,37.85 -49.85,39.02 -49.21,39.91 -48.57,40.81 -47.40,41.54 -46.24,42.27 -44.87,42.26 -43.50,42.24 -42.52,41.23 -41.53,40.22 -40.71,39.27 -39.88,38.32 -38.93,36.65 -37.98,34.98 -37.41,33.78 -36.84,32.59 -36.50,31.56 -36.16,30.53 -35.96,28.72 -35.77,26.92 -35.64,24.85 -35.51,22.78 -35.68,21.69 -35.85,20.60 -36.16,19.57 -36.47,18.55 -36.75,19.57 -37.03,20.59 -36.95,21.86 -36.88,23.12 -36.50,24.32 -36.12,25.52 -35.42,27.01 -34.72,28.50 -33.69,29.65 -32.67,30.80 -31.42,31.30 -30.17,31.79 -28.69,31.32 -27.22,30.86 -25.80,30.50 -24.38,30.15 -23.23,29.80 -22.07,29.45 -21.09,28.78 -20.10,28.11 -19.15,27.29 -18.19,26.46 -17.61,25.49 -17.03,24.52 -16.70,23.44 -16.37,22.36 -16.33,20.84 -16.29,19.33 -16.29,18.05 -16.28,16.78 -16.52,15.46 -16.75,14.14 -17.33,12.82 -17.90,11.50 -18.81,10.26 -19.71,9.02 -20.93,8.87 -22.15,8.73 -23.01,9.50 -23.87,10.28 -23.83,11.61 -23.79,12.93 -23.41,14.15 -23.02,15.37 -21.96,16.71 -20.89,18.06 -19.55,18.88 -18.20,19.70 -16.94,19.92 -15.68,20.13 -14.45,19.93 -13.23,19.73 -12.03,19.20 -10.82,18.67 -9.92,17.97 -9.01,17.26 -7.96,16.43 -6.92,15.60 -5.93,14.92 -4.94,14.24 -3.79,13.16 -2.64,12.08 -2.17,11.01 -1.71,9.95 -1.54,8.73 -1.36,7.52 -1.42,6.07 -1.47,4.62 -1.68,3.39 -1.89,2.17 -1.72,1.18 -1.55,0.19 -1.55,0.00 -1.55,-0.18 -1.50,-0.36 -1.46,-0.54 -1.37,-0.71 -1.28,-0.88 -1.16,-1.02 -1.04,-1.16 -0.88,-1.27 -0.73,-1.38 -0.55,-1.44 -0.37,-1.51 -0.19,-1.54 -0.00,-1.56 0.18,-1.54 0.36,-1.51 0.54,-1.45 0.72,-1.38 0.87,-1.28 1.03,-1.17 1.15,-1.03 1.28,-0.89 1.37,-0.72 1.46,-0.55 1.50,-0.37 1.55,-0.19 1.55,-0.19 L 1.55,-0.19 Z"></path></g><g transform="translate(270.2214218526226 236.95805889943563) rotate(0 -21.332783804353994 -50.53595129861117)" stroke="none"><path fill="#000000" d="M -0.52,1.58 Q -0.52,1.58 -1.70,1.53 -2.87,1.47 -4.61,0.60 -6.36,-0.27 -7.66,-1.79 -8.96,-3.31 -9.46,-4.56 -9.97,-5.81 -10.07,-7.06 -10.17,-8.31 -10.17,-9.61 -10.17,-10.90 -10.02,-12.74 -9.86,-14.59 -9.61,-15.63 -9.37,-16.67 -9.13,-17.76 -8.89,-18.84 -8.41,-19.96 -7.94,-21.09 -7.43,-22.37 -6.93,-23.66 -5.78,-24.69 -4.64,-25.72 -3.37,-26.24 -2.11,-26.76 -0.74,-26.69 0.62,-26.62 1.64,-25.68 2.66,-24.74 3.14,-23.43 3.63,-22.12 3.58,-20.48 3.53,-18.85 3.01,-17.88 2.48,-16.91 1.43,-15.64 0.38,-14.38 -0.51,-13.45 -1.41,-12.51 -2.60,-11.52 -3.78,-10.53 -4.92,-9.83 -6.07,-9.12 -7.39,-8.39 -8.70,-7.66 -10.02,-7.18 -11.33,-6.70 -12.55,-6.45 -13.76,-6.19 -15.02,-6.11 -16.29,-6.04 -17.64,-6.21 -19.00,-6.38 -20.23,-6.86 -21.46,-7.35 -22.77,-8.05 -24.08,-8.74 -25.01,-9.32 -25.94,-9.90 -26.88,-11.14 -27.83,-12.39 -28.34,-13.54 -28.84,-14.68 -29.38,-15.61 -29.93,-16.54 -30.24,-17.65 -30.55,-18.76 -30.68,-20.29 -30.81,-21.82 -30.83,-23.07 -30.84,-24.33 -30.70,-25.61 -30.55,-26.88 -29.96,-28.38 -29.37,-29.87 -28.66,-31.08 -27.95,-32.29 -27.15,-33.37 -26.34,-34.45 -25.34,-35.63 -24.34,-36.82 -23.04,-37.79 -21.74,-38.77 -20.64,-39.43 -19.53,-40.09 -18.38,-40.58 -17.22,-41.06 -15.76,-41.13 -14.29,-41.20 -12.99,-40.74 -11.69,-40.28 -11.05,-39.38 -10.42,-38.49 -9.62,-37.34 -8.82,-36.19 -8.68,-35.06 -8.55,-33.93 -9.10,-32.29 -9.64,-30.66 -11.18,-29.38 -12.72,-28.10 -14.12,-27.26 -15.51,-26.43 -17.02,-25.89 -18.52,-25.35 -19.68,-25.06 -20.84,-24.77 -22.39,-24.69 -23.93,-24.62 -25.18,-24.58 -26.43,-24.55 -27.92,-24.94 -29.40,-25.33 -30.32,-25.99 -31.24,-26.66 -32.74,-27.80 -34.24,-28.95 -35.06,-29.80 -35.89,-30.65 -36.75,-32.11 -37.62,-33.57 -38.36,-34.90 -39.11,-36.23 -39.35,-37.57 -39.60,-38.91 -39.62,-40.23 -39.65,-41.56 -39.34,-42.74 -39.04,-43.92 -38.36,-45.37 -37.69,-46.82 -37.06,-47.92 -36.42,-49.03 -35.69,-49.84 -34.96,-50.65 -33.94,-51.55 -32.91,-52.45 -31.53,-53.20 -30.15,-53.94 -28.91,-54.55 -27.68,-55.16 -26.11,-55.68 -24.53,-56.20 -22.81,-56.07 -21.08,-55.94 -19.43,-54.85 -17.78,-53.75 -17.21,-52.67 -16.64,-51.58 -16.70,-50.30 -16.76,-49.02 -17.37,-47.96 -17.97,-46.90 -19.10,-46.07 -20.24,-45.24 -21.18,-44.57 -22.12,-43.89 -23.53,-43.43 -24.95,-42.97 -27.00,-42.71 -29.04,-42.45 -31.16,-42.41 -33.28,-42.37 -34.48,-42.49 -35.68,-42.61 -36.78,-42.97 -37.89,-43.32 -39.09,-43.82 -40.29,-44.32 -41.21,-45.17 -42.14,-46.02 -43.31,-47.57 -44.49,-49.12 -45.14,-50.42 -45.80,-51.73 -45.97,-53.03 -46.15,-54.33 -46.17,-56.17 -46.20,-58.00 -45.91,-59.36 -45.63,-60.72 -44.35,-62.62 -43.07,-64.51 -41.97,-65.52 -40.87,-66.52 -39.64,-67.18 -38.41,-67.84 -36.71,-68.36 -35.01,-68.87 -33.52,-69.18 -32.03,-69.48 -30.51,-69.53 -28.99,-69.59 -27.77,-69.59 -26.55,-69.60 -25.29,-69.43 -24.04,-69.25 -23.00,-68.82 -21.96,-68.38 -21.04,-67.83 -20.12,-67.27 -19.28,-65.83 -18.44,-64.39 -18.57,-63.10 -18.70,-61.82 -19.85,-60.76 -20.99,-59.69 -22.40,-59.12 -23.81,-58.55 -25.03,-58.26 -26.24,-57.98 -27.30,-57.73 -28.35,-57.49 -29.58,-57.42 -30.81,-57.35 -32.16,-57.53 -33.51,-57.70 -34.75,-58.19 -35.98,-58.67 -37.60,-59.51 -39.22,-60.34 -40.05,-61.00 -40.89,-61.67 -41.85,-62.54 -42.80,-63.42 -43.74,-65.34 -44.69,-67.25 -45.11,-68.58 -45.54,-69.91 -46.05,-71.65 -46.57,-73.38 -46.76,-74.69 -46.95,-76.00 -46.78,-77.69 -46.62,-79.39 -45.82,-80.99 -45.03,-82.59 -44.30,-83.38 -43.58,-84.18 -42.25,-85.19 -40.92,-86.19 -39.62,-86.79 -38.32,-87.38 -36.54,-87.97 -34.76,-88.55 -33.65,-88.62 -32.55,-88.68 -31.06,-88.69 -29.58,-88.70 -28.37,-88.52 -27.17,-88.33 -25.60,-87.58 -24.03,-86.82 -22.85,-85.68 -21.67,-84.54 -20.88,-83.51 -20.08,-82.48 -19.76,-81.01 -19.44,-79.54 -20.36,-77.92 -21.28,-76.30 -23.82,-75.26 -26.36,-74.22 -27.50,-74.25 -28.64,-74.29 -30.63,-74.75 -32.63,-75.21 -34.14,-75.85 -35.64,-76.49 -36.93,-77.48 -38.21,-78.47 -39.29,-80.09 -40.36,-81.71 -41.05,-83.40 -41.74,-85.10 -42.27,-86.53 -42.80,-87.95 -43.15,-89.60 -43.50,-91.25 -43.56,-92.65 -43.62,-94.06 -43.63,-95.25 -43.64,-96.45 -42.08,-99.30 -40.52,-102.15 -40.32,-102.22 -40.12,-102.29 -39.91,-102.30 -39.69,-102.31 -39.49,-102.24 -39.29,-102.18 -39.12,-102.06 -38.94,-101.93 -38.82,-101.76 -38.69,-101.59 -38.63,-101.39 -38.57,-101.18 -38.57,-100.97 -38.58,-100.76 -38.65,-100.56 -38.73,-100.36 -38.86,-100.19 -38.99,-100.03 -39.17,-99.91 -39.35,-99.80 -39.56,-99.75 -39.76,-99.70 -39.97,-99.71 -40.19,-99.73 -40.38,-99.81 -40.58,-99.90 -40.73,-100.04 -40.89,-100.18 -41.00,-100.37 -41.10,-100.55 -41.14,-100.76 -41.18,-100.97 -41.15,-101.18 -41.13,-101.39 -41.03,-101.58 -40.94,-101.77 -40.79,-101.92 -40.64,-102.07 -40.45,-102.17 -40.26,-102.26 -40.05,-102.29 -39.84,-102.32 -39.63,-102.28 -39.42,-102.24 -39.23,-102.13 -39.05,-102.03 -38.91,-101.87 -38.76,-101.71 -38.68,-101.52 -38.60,-101.32 -38.58,-101.11 -38.56,-100.90 -38.61,-100.69 -38.66,-100.49 -38.78,-100.31 -38.89,-100.13 -39.06,-100.00 -39.22,-99.86 -39.22,-99.86 -39.22,-99.86 -38.79,-98.17 -38.36,-96.47 -38.35,-95.36 -38.34,-94.25 -38.29,-93.03 -38.24,-91.82 -37.97,-90.61 -37.70,-89.40 -37.23,-88.16 -36.77,-86.92 -36.28,-85.66 -35.80,-84.41 -34.84,-83.10 -33.88,-81.78 -32.94,-81.21 -31.99,-80.65 -30.80,-80.17 -29.60,-79.69 -28.32,-79.61 -27.05,-79.54 -25.83,-79.86 -24.61,-80.18 -25.68,-81.38 -26.76,-82.58 -28.16,-83.09 -29.57,-83.60 -31.28,-83.57 -32.99,-83.54 -34.15,-83.26 -35.31,-82.98 -36.38,-82.63 -37.44,-82.28 -38.47,-81.61 -39.51,-80.94 -40.57,-79.42 -41.63,-77.89 -41.49,-76.37 -41.35,-74.85 -40.81,-73.06 -40.27,-71.28 -39.94,-70.23 -39.60,-69.19 -38.99,-67.98 -38.39,-66.77 -37.37,-65.89 -36.35,-65.00 -35.01,-64.32 -33.68,-63.64 -32.31,-63.22 -30.94,-62.80 -29.73,-62.83 -28.51,-62.86 -26.85,-63.25 -25.18,-63.64 -24.03,-63.35 -22.88,-63.06 -23.81,-63.64 -24.74,-64.23 -25.93,-64.41 -27.13,-64.59 -28.47,-64.57 -29.82,-64.54 -31.13,-64.46 -32.45,-64.39 -34.17,-63.91 -35.89,-63.43 -37.20,-62.75 -38.52,-62.07 -39.45,-60.82 -40.37,-59.57 -40.52,-57.77 -40.66,-55.98 -40.65,-54.90 -40.63,-53.81 -40.15,-52.70 -39.67,-51.59 -38.90,-50.77 -38.12,-49.95 -37.05,-49.28 -35.98,-48.61 -34.65,-48.28 -33.32,-47.95 -31.29,-47.99 -29.26,-48.02 -28.16,-47.96 -27.05,-47.89 -25.54,-48.46 -24.03,-49.04 -22.94,-50.04 -21.85,-51.04 -23.16,-51.11 -24.46,-51.18 -25.58,-50.62 -26.71,-50.05 -27.64,-49.52 -28.57,-48.98 -29.65,-48.17 -30.72,-47.36 -31.58,-46.31 -32.44,-45.27 -33.08,-43.81 -33.73,-42.35 -33.87,-40.94 -34.01,-39.54 -33.56,-38.28 -33.12,-37.01 -32.14,-35.45 -31.16,-33.89 -30.12,-32.95 -29.08,-32.01 -27.74,-31.07 -26.41,-30.12 -25.19,-30.09 -23.98,-30.07 -22.82,-30.09 -21.66,-30.11 -20.43,-30.39 -19.20,-30.66 -17.90,-31.18 -16.60,-31.71 -15.32,-32.42 -14.05,-33.12 -13.42,-34.12 -12.79,-35.12 -13.88,-35.86 -14.97,-36.60 -16.07,-36.24 -17.16,-35.87 -18.12,-35.23 -19.08,-34.58 -20.13,-33.63 -21.19,-32.68 -22.03,-31.59 -22.87,-30.50 -23.54,-29.64 -24.21,-28.77 -24.75,-27.34 -25.29,-25.90 -25.38,-24.54 -25.46,-23.17 -25.39,-21.62 -25.33,-20.08 -25.03,-19.02 -24.72,-17.97 -23.88,-16.33 -23.04,-14.69 -22.19,-14.04 -21.34,-13.39 -20.27,-12.81 -19.20,-12.23 -17.81,-11.81 -16.41,-11.38 -15.02,-11.40 -13.63,-11.42 -12.44,-11.81 -11.26,-12.20 -9.87,-12.85 -8.48,-13.49 -7.27,-14.11 -6.05,-14.73 -4.84,-15.74 -3.63,-16.74 -2.58,-17.62 -1.54,-18.49 -0.99,-19.73 -0.44,-20.96 -1.15,-21.75 -1.87,-22.54 -2.60,-21.73 -3.34,-20.92 -3.89,-19.66 -4.44,-18.39 -4.68,-17.27 -4.92,-16.16 -5.25,-14.44 -5.57,-12.73 -5.55,-11.38 -5.53,-10.03 -5.47,-8.32 -5.41,-6.60 -4.69,-5.46 -3.98,-4.33 -2.69,-3.61 -1.41,-2.90 -0.44,-2.24 0.52,-1.58 0.71,-1.50 0.89,-1.41 1.05,-1.28 1.20,-1.16 1.32,-0.99 1.45,-0.83 1.53,-0.65 1.60,-0.46 1.64,-0.26 1.67,-0.06 1.65,0.13 1.64,0.33 1.57,0.52 1.51,0.71 1.40,0.88 1.29,1.05 1.15,1.19 1.00,1.33 0.83,1.44 0.65,1.54 0.46,1.59 0.26,1.65 0.06,1.66 -0.13,1.67 -0.33,1.62 -0.53,1.58 -0.52,1.58 L -0.52,1.58 Z"></path></g><g transform="translate(230.041190663291 143.34227933175134) rotate(0 18.640307573843984 -25.060854800073457)" stroke="none"><path fill="#000000" d="M -1.49,0 Q -1.49,0 -1.84,-1.07 -2.19,-2.14 -2.21,-3.42 -2.23,-4.70 -2.06,-5.95 -1.89,-7.19 -1.49,-8.44 -1.10,-9.70 -0.37,-10.70 0.34,-11.71 1.33,-12.58 2.32,-13.44 3.50,-13.94 4.68,-14.43 6.11,-14.70 7.53,-14.96 9.03,-15.18 10.52,-15.39 11.71,-15.43 12.89,-15.47 14.35,-15.48 15.81,-15.49 17.21,-15.49 18.62,-15.49 19.76,-15.49 20.89,-15.48 22.11,-15.28 23.33,-15.08 24.39,-14.69 25.45,-14.29 26.43,-13.76 27.40,-13.24 27.99,-12.21 28.58,-11.18 28.53,-9.54 28.47,-7.90 27.69,-6.64 26.92,-5.38 25.72,-4.48 24.52,-3.59 23.38,-2.96 22.25,-2.34 20.86,-2.03 19.48,-1.71 18.21,-1.55 16.94,-1.38 15.51,-1.28 14.07,-1.18 12.33,-1.45 10.59,-1.73 9.48,-2.23 8.36,-2.73 7.49,-3.35 6.61,-3.97 5.87,-4.79 5.12,-5.60 4.37,-6.97 3.62,-8.33 3.25,-9.55 2.89,-10.77 2.45,-12.33 2.01,-13.90 1.86,-15.22 1.71,-16.55 1.83,-18.02 1.94,-19.49 2.38,-20.72 2.83,-21.94 3.91,-23.41 4.99,-24.88 6.00,-25.78 7.00,-26.68 8.08,-27.46 9.17,-28.24 10.44,-29.06 11.72,-29.88 13.50,-30.43 15.28,-30.97 16.47,-31.09 17.67,-31.20 19.40,-31.26 21.13,-31.32 22.28,-31.04 23.43,-30.77 24.68,-30.31 25.92,-29.85 27.16,-28.73 28.40,-27.61 29.50,-26.50 30.61,-25.39 31.43,-24.31 32.25,-23.23 32.74,-21.82 33.24,-20.41 33.13,-19.33 33.02,-18.25 31.95,-17.22 30.88,-16.20 29.57,-15.97 28.26,-15.74 26.84,-15.86 25.42,-15.97 23.94,-16.55 22.46,-17.12 21.47,-17.83 20.49,-18.54 19.29,-19.47 18.10,-20.40 17.30,-21.25 16.50,-22.10 15.49,-23.11 14.48,-24.13 13.96,-25.30 13.45,-26.47 13.05,-27.94 12.66,-29.41 12.57,-30.62 12.48,-31.83 12.47,-33.19 12.47,-34.54 12.85,-35.77 13.23,-36.99 13.70,-38.10 14.17,-39.22 15.04,-40.41 15.92,-41.60 16.75,-42.48 17.59,-43.36 18.95,-43.98 20.32,-44.60 21.99,-44.79 23.65,-44.98 25.91,-44.74 28.17,-44.49 29.83,-43.88 31.49,-43.28 32.57,-42.49 33.64,-41.69 34.75,-40.62 35.87,-39.55 36.57,-38.64 37.26,-37.73 37.92,-36.45 38.57,-35.17 38.85,-34.05 39.13,-32.92 39.35,-31.83 39.58,-30.74 39.47,-29.44 39.36,-28.15 38.69,-26.90 38.03,-25.66 36.70,-24.69 35.38,-23.71 33.43,-23.75 31.48,-23.80 30.30,-24.28 29.13,-24.75 28.14,-25.57 27.14,-26.38 26.29,-27.54 25.45,-28.70 24.89,-29.74 24.34,-30.79 24.01,-32.04 23.68,-33.30 23.32,-34.74 22.97,-36.18 22.84,-37.84 22.72,-39.49 22.70,-40.64 22.68,-41.79 22.85,-43.19 23.01,-44.58 23.54,-45.71 24.06,-46.84 24.74,-47.96 25.41,-49.08 26.29,-49.80 27.16,-50.53 28.31,-51.08 29.46,-51.64 31.57,-51.52 33.67,-51.41 33.88,-51.39 34.10,-51.37 34.29,-51.29 34.48,-51.20 34.64,-51.06 34.80,-50.92 34.90,-50.73 35.01,-50.55 35.04,-50.34 35.08,-50.13 35.05,-49.92 35.02,-49.71 34.93,-49.52 34.83,-49.33 34.68,-49.18 34.53,-49.03 34.34,-48.94 34.14,-48.84 33.93,-48.82 33.72,-48.79 33.51,-48.83 33.31,-48.87 33.12,-48.98 32.94,-49.09 32.80,-49.24 32.66,-49.40 32.57,-49.60 32.49,-49.80 32.48,-50.01 32.46,-50.22 32.51,-50.43 32.57,-50.63 32.68,-50.81 32.80,-50.99 32.96,-51.12 33.13,-51.25 33.33,-51.32 33.53,-51.39 33.74,-51.40 33.96,-51.40 34.16,-51.34 34.36,-51.27 34.53,-51.15 34.70,-51.02 34.83,-50.85 34.95,-50.68 35.01,-50.47 35.07,-50.27 35.06,-50.06 35.06,-49.84 34.98,-49.65 34.91,-49.45 34.77,-49.28 34.64,-49.12 34.46,-49.00 34.28,-48.89 34.07,-48.84 33.86,-48.79 33.86,-48.79 33.86,-48.79 32.71,-48.01 31.55,-47.23 30.40,-46.56 29.26,-45.89 28.62,-44.65 27.99,-43.40 27.92,-42.33 27.85,-41.26 27.89,-39.86 27.93,-38.47 28.15,-37.02 28.38,-35.57 28.75,-34.16 29.11,-32.75 29.61,-31.72 30.10,-30.69 31.01,-29.95 31.93,-29.21 32.87,-28.70 33.81,-28.19 34.31,-29.13 34.81,-30.07 34.60,-31.13 34.39,-32.19 34.16,-33.25 33.94,-34.31 32.85,-35.60 31.75,-36.90 30.50,-37.99 29.25,-39.08 28.13,-39.48 27.02,-39.87 25.87,-40.06 24.72,-40.26 23.34,-40.19 21.96,-40.12 20.80,-39.32 19.65,-38.52 18.94,-37.56 18.23,-36.60 17.79,-35.50 17.35,-34.41 17.37,-33.21 17.39,-32.00 17.52,-30.87 17.65,-29.74 17.99,-28.52 18.34,-27.30 19.27,-26.42 20.20,-25.54 21.40,-24.45 22.60,-23.37 23.81,-22.44 25.02,-21.51 26.10,-21.12 27.19,-20.73 27.97,-19.98 28.76,-19.22 28.35,-20.43 27.95,-21.64 26.86,-22.59 25.76,-23.55 24.50,-24.78 23.24,-26.01 22.20,-26.31 21.17,-26.61 19.63,-26.56 18.09,-26.50 16.39,-26.34 14.68,-26.19 13.32,-25.27 11.95,-24.36 11.08,-23.73 10.20,-23.11 8.79,-21.70 7.37,-20.29 7.01,-19.10 6.65,-17.91 6.78,-16.56 6.90,-15.21 7.35,-13.65 7.80,-12.10 8.41,-10.56 9.01,-9.02 10.14,-8.11 11.27,-7.21 12.54,-6.77 13.81,-6.34 14.97,-6.40 16.13,-6.45 17.56,-6.61 18.99,-6.76 20.17,-6.84 21.36,-6.93 22.60,-7.76 23.84,-8.58 23.37,-9.62 22.91,-10.65 21.85,-10.84 20.79,-11.02 19.71,-11.01 18.62,-11.01 17.22,-11.01 15.81,-11.01 14.40,-11.00 12.98,-11.00 11.55,-10.94 10.13,-10.89 9.07,-10.70 8.02,-10.51 6.79,-10.28 5.56,-10.05 4.61,-9.39 3.67,-8.73 3.12,-7.76 2.57,-6.79 2.40,-5.74 2.23,-4.68 2.21,-3.41 2.19,-2.14 1.84,-1.07 1.49,0 1.46,0.17 1.44,0.35 1.38,0.52 1.31,0.69 1.21,0.84 1.11,0.98 0.98,1.10 0.84,1.22 0.68,1.31 0.52,1.39 0.35,1.43 0.17,1.47 -0.00,1.47 -0.17,1.47 -0.35,1.43 -0.52,1.39 -0.68,1.31 -0.84,1.22 -0.98,1.10 -1.11,0.98 -1.21,0.84 -1.31,0.69 -1.38,0.52 -1.44,0.35 -1.46,0.17 -1.49,-0.00 -1.49,-0.00 L -1.49,0 Z"></path></g><g transform="translate(21.187809374241624 168.98585445453455) rotate(180.6450361462631 72.41653335082549 -5.496957284131213)" stroke="none"><path fill="#000000" d="M -1.42,0.20 Q -1.42,0.20 -1.97,-0.69 -2.53,-1.60 -2.63,-3.45 -2.74,-5.29 -2.76,-6.89 -2.78,-8.48 -2.78,-9.98 -2.79,-11.48 -2.79,-12.73 -2.79,-13.98 -2.64,-15.87 -2.50,-17.77 -2.27,-19.27 -2.04,-20.77 -1.75,-22.14 -1.46,-23.52 -1.05,-25.25 -0.65,-26.97 -0.18,-28.32 0.29,-29.66 1.00,-31.22 1.70,-32.78 2.22,-33.95 2.73,-35.11 3.45,-36.18 4.18,-37.24 5.07,-39.00 5.97,-40.75 6.73,-41.86 7.50,-42.97 8.37,-43.99 9.25,-45.00 10.10,-46.07 10.95,-47.14 11.73,-48.16 12.51,-49.17 13.58,-50.29 14.65,-51.41 15.69,-52.69 16.74,-53.98 17.70,-55.19 18.67,-56.40 19.67,-57.43 20.67,-58.45 21.44,-59.23 22.20,-60.00 23.33,-61.14 24.46,-62.27 25.49,-63.30 26.51,-64.32 27.50,-65.37 28.49,-66.42 29.33,-67.21 30.16,-67.99 31.50,-69.11 32.84,-70.23 33.69,-70.87 34.54,-71.52 35.62,-71.97 36.70,-72.42 38.26,-72.97 39.81,-73.53 41.59,-73.97 43.36,-74.40 44.56,-74.82 45.76,-75.24 47.49,-75.69 49.22,-76.14 50.33,-76.42 51.45,-76.69 53.27,-76.97 55.09,-77.24 56.59,-77.47 58.09,-77.69 59.32,-77.93 60.54,-78.17 61.63,-78.30 62.73,-78.43 64.13,-78.65 65.52,-78.87 66.62,-79.03 67.71,-79.18 69.38,-79.49 71.06,-79.81 72.22,-79.86 73.38,-79.92 74.54,-80.14 75.70,-80.36 76.75,-80.57 77.79,-80.78 79.20,-80.83 80.60,-80.88 81.99,-80.88 83.37,-80.89 84.53,-80.70 85.69,-80.50 87.13,-80.27 88.58,-80.04 89.85,-79.64 91.12,-79.23 92.20,-78.96 93.28,-78.70 94.86,-78.22 96.45,-77.74 97.68,-77.27 98.92,-76.81 100.30,-76.41 101.69,-76.00 102.76,-75.71 103.82,-75.41 104.99,-75.22 106.16,-75.02 107.54,-74.59 108.92,-74.15 110.14,-73.90 111.36,-73.65 112.57,-73.06 113.77,-72.48 115.60,-71.68 117.42,-70.88 118.59,-70.05 119.76,-69.22 120.99,-68.41 122.22,-67.60 123.02,-66.87 123.82,-66.14 124.97,-65.24 126.13,-64.34 126.94,-63.56 127.75,-62.78 128.62,-61.92 129.49,-61.05 130.71,-59.90 131.92,-58.75 133.07,-57.43 134.22,-56.10 134.91,-54.94 135.60,-53.79 136.08,-52.69 136.57,-51.59 137.21,-50.20 137.85,-48.80 138.62,-47.19 139.39,-45.58 139.95,-44.17 140.51,-42.75 140.88,-41.59 141.25,-40.42 141.70,-39.25 142.14,-38.08 142.35,-36.91 142.56,-35.73 142.77,-34.67 142.98,-33.60 143.22,-32.28 143.46,-30.95 143.69,-29.90 143.92,-28.86 144.16,-27.69 144.40,-26.53 144.64,-25.38 144.88,-24.24 145.33,-22.78 145.78,-21.32 146.06,-19.91 146.34,-18.50 146.68,-17.50 147.03,-16.49 147.39,-14.79 147.74,-13.09 147.81,-12.02 147.88,-10.95 148.06,-9.59 148.24,-8.23 148.29,-7.13 148.34,-6.02 148.33,-4.66 148.33,-3.30 148.02,-1.75 147.72,-0.19 146.94,2.29 146.17,4.79 145.69,6.35 145.22,7.91 144.79,8.92 144.36,9.94 144.01,11.07 143.67,12.20 143.17,13.48 142.67,14.76 142.08,15.85 141.48,16.95 141.12,18.48 140.75,20.01 140.28,21.29 139.81,22.56 139.59,23.65 139.36,24.74 138.89,26.26 138.41,27.77 137.95,28.92 137.49,30.07 137.02,31.26 136.54,32.44 135.93,33.80 135.32,35.16 134.93,36.20 134.53,37.24 133.57,38.84 132.60,40.44 131.76,41.40 130.92,42.36 129.33,44.15 127.73,45.94 126.37,47.18 125.00,48.43 123.79,49.63 122.57,50.83 121.12,52.38 119.67,53.93 118.44,55.03 117.22,56.13 116.55,57.00 115.87,57.86 115.11,58.66 114.35,59.46 113.48,60.32 112.60,61.19 111.70,62.05 110.79,62.91 109.72,63.69 108.66,64.48 107.73,65.04 106.80,65.59 105.14,66.10 103.49,66.61 102.04,67.07 100.58,67.52 98.52,67.83 96.46,68.14 94.85,68.45 93.25,68.75 91.87,68.90 90.48,69.05 89.23,69.07 87.99,69.09 86.32,69.32 84.66,69.55 83.47,69.57 82.28,69.58 81.21,69.80 80.14,70.01 79.07,70.01 78.00,70.01 76.73,70.26 75.45,70.52 74.13,70.52 72.80,70.52 71.68,70.52 70.56,70.51 69.16,70.31 67.76,70.12 66.02,69.88 64.28,69.63 63.20,69.38 62.11,69.13 60.67,68.82 59.23,68.52 57.41,67.98 55.60,67.44 54.54,67.02 53.47,66.60 52.01,66.12 50.54,65.65 48.85,65.34 47.15,65.03 46.07,64.61 44.98,64.18 43.87,63.83 42.75,63.47 41.58,63.00 40.41,62.52 38.88,61.91 37.35,61.29 36.22,60.97 35.09,60.65 33.90,60.16 32.71,59.67 31.52,59.00 30.33,58.33 28.58,57.60 26.83,56.87 25.53,56.30 24.23,55.73 23.00,55.02 21.76,54.30 20.60,53.56 19.44,52.81 18.21,51.57 16.98,50.34 16.09,49.38 15.20,48.41 14.57,47.45 13.93,46.48 13.34,45.28 12.75,44.07 12.28,42.70 11.81,41.33 11.25,40.22 10.70,39.12 10.15,37.83 9.61,36.54 9.08,35.20 8.55,33.86 7.91,32.67 7.27,31.47 6.77,30.34 6.26,29.21 5.74,28.16 5.21,27.11 4.62,25.87 4.03,24.63 3.49,23.50 2.96,22.37 2.45,21.10 1.95,19.83 1.38,18.69 0.81,17.55 0.44,16.54 0.08,15.52 -0.21,14.38 -0.50,13.23 -0.94,11.77 -1.38,10.30 -1.44,9.09 -1.51,7.87 -1.52,6.57 -1.53,5.28 -1.53,4.06 -1.52,2.83 -1.30,1.77 -1.08,0.70 -1.29,-0.74 -1.49,-2.20 -1.73,-3.78 -1.97,-5.36 -1.99,-6.93 -2.01,-8.50 -2.01,-9.66 -2.02,-10.81 -2.02,-12.18 -2.03,-13.54 -1.82,-14.71 -1.61,-15.87 -1.41,-16.98 -1.21,-18.10 -0.95,-19.19 -0.69,-20.29 -0.17,-21.86 0.33,-23.44 0.91,-25.18 1.49,-26.92 1.86,-28.05 2.24,-29.18 2.86,-30.28 3.48,-31.39 4.08,-32.75 4.69,-34.10 5.49,-35.58 6.30,-37.05 6.98,-38.49 7.65,-39.92 8.80,-41.97 9.95,-44.02 10.63,-45.22 11.31,-46.42 12.24,-47.37 13.18,-48.31 14.08,-49.24 14.99,-50.18 16.00,-50.99 17.02,-51.81 17.71,-52.63 18.39,-53.45 19.37,-54.45 20.35,-55.44 21.36,-56.46 22.37,-57.49 23.14,-58.25 23.91,-59.00 24.82,-59.93 25.73,-60.85 26.66,-61.51 27.59,-62.16 28.86,-63.25 30.13,-64.35 31.27,-65.50 32.41,-66.66 33.66,-67.72 34.91,-68.77 36.26,-69.90 37.61,-71.03 39.13,-72.08 40.64,-73.13 42.23,-74.06 43.81,-74.98 45.12,-75.47 46.42,-75.96 47.49,-76.32 48.55,-76.69 49.88,-76.99 51.22,-77.29 52.40,-77.68 53.59,-78.06 54.65,-78.55 55.72,-79.03 57.37,-79.36 59.03,-79.69 60.30,-79.69 61.58,-79.68 62.94,-79.68 64.31,-79.67 65.51,-79.67 66.72,-79.68 67.99,-79.67 69.27,-79.67 70.50,-79.67 71.73,-79.67 72.96,-79.80 74.19,-79.93 76.28,-80.03 78.37,-80.12 79.63,-80.13 80.88,-80.14 82.02,-80.14 83.17,-80.14 84.37,-80.15 85.57,-80.15 86.67,-80.37 87.76,-80.59 88.87,-80.61 89.97,-80.64 91.17,-80.64 92.37,-80.63 94.00,-80.31 95.63,-79.98 96.76,-79.23 97.88,-78.48 99.03,-78.07 100.18,-77.66 102.10,-76.96 104.03,-76.27 105.18,-75.87 106.33,-75.47 107.65,-75.01 108.97,-74.55 110.43,-73.93 111.88,-73.31 113.04,-71.69 114.21,-70.06 114.35,-69.99 114.49,-69.92 114.61,-69.81 114.73,-69.71 114.82,-69.58 114.91,-69.45 114.97,-69.31 115.03,-69.16 115.05,-69.00 115.07,-68.84 115.05,-68.69 115.04,-68.53 114.98,-68.38 114.93,-68.23 114.84,-68.10 114.75,-67.97 114.64,-67.86 114.52,-67.76 114.38,-67.68 114.24,-67.61 114.09,-67.57 113.93,-67.53 113.78,-67.52 113.62,-67.52 113.46,-67.56 113.31,-67.59 113.72,-67.58 114.14,-67.57 113.92,-67.54 113.71,-67.51 113.51,-67.56 113.30,-67.60 113.11,-67.70 112.93,-67.81 112.79,-67.97 112.65,-68.13 112.56,-68.32 112.48,-68.52 112.47,-68.73 112.45,-68.94 112.50,-69.15 112.56,-69.35 112.67,-69.53 112.79,-69.71 112.95,-69.84 113.12,-69.97 113.32,-70.05 113.52,-70.12 113.73,-70.12 113.94,-70.13 114.15,-70.06 114.35,-70.00 114.52,-69.87 114.69,-69.75 114.82,-69.58 114.94,-69.40 115.00,-69.20 115.06,-68.99 115.05,-68.78 115.05,-68.57 114.97,-68.37 114.90,-68.17 114.76,-68.01 114.63,-67.84 114.45,-67.73 114.27,-67.62 114.06,-67.57 113.86,-67.52 113.64,-67.54 113.43,-67.55 113.24,-67.64 113.04,-67.73 112.89,-67.87 112.73,-68.01 112.63,-68.20 112.52,-68.38 112.48,-68.59 112.45,-68.80 112.48,-69.01 112.51,-69.22 112.60,-69.41 112.70,-69.60 112.85,-69.75 113.00,-69.90 113.60,-69.98 114.21,-70.06 114.35,-69.99 114.49,-69.92 114.61,-69.81 114.73,-69.71 114.82,-69.58 114.91,-69.45 114.97,-69.31 115.03,-69.16 115.05,-69.00 115.07,-68.84 115.05,-68.69 115.04,-68.53 114.98,-68.38 114.93,-68.23 114.84,-68.10 114.75,-67.97 114.64,-67.86 114.52,-67.76 114.38,-67.68 114.24,-67.61 114.09,-67.57 113.93,-67.53 113.78,-67.52 113.62,-67.52 113.46,-67.56 113.31,-67.59 111.32,-68.03 109.32,-68.46 108.32,-68.91 107.32,-69.37 105.82,-69.91 104.32,-70.45 103.22,-70.83 102.11,-71.21 101.06,-71.61 100.01,-72.01 98.93,-72.39 97.84,-72.78 96.22,-73.73 94.59,-74.68 93.48,-74.93 92.37,-75.18 91.18,-75.18 89.99,-75.18 88.91,-75.15 87.83,-75.13 86.72,-74.92 85.61,-74.71 84.39,-74.71 83.17,-74.72 82.05,-74.71 80.92,-74.71 79.70,-74.69 78.48,-74.66 76.61,-74.60 74.73,-74.53 73.23,-74.38 71.74,-74.24 70.50,-74.24 69.27,-74.24 67.99,-74.23 66.72,-74.23 65.51,-74.23 64.31,-74.23 62.96,-74.22 61.61,-74.22 60.26,-74.18 58.91,-74.14 57.58,-73.83 56.26,-73.51 54.80,-72.91 53.34,-72.31 52.27,-72.03 51.20,-71.75 50.01,-71.23 48.83,-70.72 47.67,-70.35 46.51,-69.98 45.23,-69.26 43.95,-68.53 42.62,-67.61 41.29,-66.69 40.14,-65.71 39.00,-64.72 38.05,-64.13 37.11,-63.54 36.05,-62.35 34.98,-61.16 33.99,-60.29 33.00,-59.43 32.20,-58.73 31.40,-58.04 30.29,-57.13 29.18,-56.21 28.31,-55.35 27.45,-54.49 26.62,-53.66 25.80,-52.83 24.71,-51.75 23.63,-50.67 22.77,-49.76 21.91,-48.85 20.69,-47.71 19.47,-46.57 18.65,-45.72 17.83,-44.86 17.01,-44.13 16.18,-43.39 15.47,-42.11 14.77,-40.83 13.86,-39.12 12.95,-37.40 11.93,-35.39 10.91,-33.37 10.37,-32.27 9.84,-31.16 9.12,-29.72 8.39,-28.27 7.82,-26.82 7.25,-25.37 6.82,-24.26 6.39,-23.15 6.03,-22.00 5.67,-20.85 5.33,-19.63 4.98,-18.40 4.68,-17.19 4.38,-15.99 4.16,-14.74 3.94,-13.49 3.94,-12.16 3.93,-10.82 3.93,-9.68 3.94,-8.53 3.61,-6.99 3.29,-5.45 3.76,-4.23 4.24,-3.01 4.56,-1.80 4.88,-0.59 4.86,0.51 4.84,1.61 4.62,2.66 4.40,3.70 4.41,4.81 4.41,5.92 4.44,7.15 4.47,8.37 4.51,9.87 4.56,11.36 5.12,12.49 5.68,13.61 6.13,14.73 6.59,15.85 7.08,16.87 7.58,17.88 8.23,19.33 8.88,20.78 9.38,21.76 9.88,22.75 10.39,24.01 10.91,25.27 11.57,26.35 12.23,27.43 12.84,28.50 13.46,29.58 14.09,31.12 14.73,32.66 15.20,33.90 15.68,35.14 16.07,36.25 16.46,37.37 17.12,38.62 17.78,39.87 18.12,41.06 18.46,42.26 19.59,43.75 20.72,45.24 21.81,46.28 22.89,47.32 24.15,48.09 25.42,48.85 26.60,49.56 27.79,50.28 29.10,50.82 30.41,51.37 31.71,51.92 33.02,52.47 34.35,53.13 35.69,53.80 36.89,54.26 38.09,54.72 39.52,55.24 40.95,55.77 42.43,56.39 43.91,57.02 45.00,57.43 46.10,57.83 47.36,58.31 48.63,58.78 49.80,59.03 50.96,59.29 52.01,59.67 53.05,60.04 54.31,60.34 55.57,60.63 56.70,61.13 57.83,61.63 59.20,62.01 60.56,62.39 62.84,62.92 65.12,63.46 66.22,63.68 67.32,63.90 68.94,64.09 70.56,64.28 72.10,64.27 73.65,64.26 74.71,64.35 75.78,64.43 77.02,64.10 78.26,63.77 79.33,63.75 80.39,63.73 82.03,63.51 83.66,63.29 84.81,63.22 85.96,63.16 87.67,62.98 89.39,62.79 90.65,62.70 91.92,62.60 93.58,62.29 95.25,61.97 97.29,61.64 99.33,61.32 100.96,60.84 102.60,60.36 103.81,59.83 105.01,59.29 105.94,58.59 106.86,57.90 107.73,57.16 108.61,56.42 109.58,55.28 110.55,54.14 111.68,52.77 112.81,51.39 113.84,50.49 114.86,49.59 116.03,48.29 117.21,46.99 118.13,46.22 119.05,45.45 119.86,44.57 120.67,43.68 121.89,42.58 123.10,41.47 124.25,40.43 125.40,39.38 126.14,38.53 126.88,37.67 127.71,36.57 128.55,35.46 129.06,34.24 129.56,33.03 130.22,31.51 130.88,29.98 131.35,28.79 131.82,27.60 132.29,26.44 132.76,25.29 133.23,23.89 133.70,22.48 134.26,21.17 134.82,19.86 135.03,18.72 135.24,17.58 135.56,16.21 135.88,14.85 136.55,13.46 137.23,12.08 137.76,10.69 138.28,9.29 138.86,7.68 139.43,6.06 139.96,4.40 140.48,2.73 141.14,0.60 141.80,-1.52 142.03,-3.38 142.27,-5.24 142.23,-6.35 142.20,-7.46 141.99,-8.52 141.79,-9.59 141.77,-10.99 141.75,-12.40 141.38,-14.23 141.00,-16.06 140.42,-17.77 139.85,-19.49 139.61,-20.69 139.38,-21.89 139.10,-23.02 138.83,-24.16 138.56,-25.25 138.29,-26.35 138.04,-27.44 137.79,-28.53 137.57,-29.87 137.35,-31.22 136.98,-32.71 136.62,-34.20 136.37,-35.76 136.12,-37.32 135.60,-38.69 135.09,-40.06 134.67,-41.26 134.25,-42.45 133.47,-43.93 132.69,-45.41 132.16,-46.52 131.63,-47.63 131.21,-48.81 130.79,-49.99 130.10,-51.28 129.40,-52.56 128.44,-53.73 127.48,-54.89 126.43,-55.90 125.37,-56.90 124.19,-58.09 123.02,-59.27 122.07,-60.18 121.12,-61.08 119.92,-62.10 118.73,-63.12 117.82,-63.79 116.91,-64.46 115.83,-65.22 114.75,-65.97 113.54,-66.52 112.33,-67.07 110.69,-67.83 109.04,-68.59 107.25,-69.06 105.45,-69.52 103.73,-69.85 102.01,-70.17 101.01,-70.52 100.01,-70.88 98.88,-71.26 97.75,-71.65 96.57,-72.13 95.39,-72.62 94.35,-73.05 93.30,-73.47 92.09,-73.68 90.88,-73.88 89.52,-74.36 88.17,-74.84 87.02,-75.16 85.87,-75.48 84.62,-75.68 83.37,-75.88 82.02,-75.88 80.66,-75.88 79.52,-75.85 78.39,-75.81 77.21,-75.60 76.02,-75.38 74.80,-75.15 73.58,-74.91 72.28,-74.84 70.97,-74.77 69.82,-74.53 68.67,-74.28 66.69,-74.06 64.71,-73.83 63.23,-73.58 61.76,-73.33 60.47,-73.09 59.18,-72.85 57.60,-72.59 56.01,-72.34 54.40,-72.12 52.79,-71.90 51.61,-71.63 50.44,-71.35 48.79,-70.93 47.14,-70.51 45.68,-70.05 44.23,-69.59 42.80,-69.23 41.37,-68.88 40.17,-68.50 38.96,-68.12 37.80,-67.66 36.64,-67.19 35.58,-66.24 34.51,-65.29 33.53,-64.45 32.55,-63.62 31.65,-62.86 30.75,-62.10 30.02,-61.21 29.29,-60.32 28.16,-59.19 27.04,-58.07 25.99,-57.02 24.94,-55.97 23.84,-54.87 22.75,-53.78 21.83,-52.83 20.91,-51.88 20.14,-50.89 19.38,-49.90 18.70,-49.02 18.01,-48.14 16.77,-46.80 15.53,-45.47 14.62,-44.32 13.71,-43.18 12.53,-41.75 11.36,-40.33 10.67,-39.36 9.98,-38.38 9.28,-37.08 8.57,-35.78 7.90,-34.61 7.22,-33.45 6.62,-32.24 6.01,-31.03 5.38,-29.66 4.74,-28.29 4.30,-27.08 3.85,-25.87 3.48,-24.31 3.11,-22.74 2.81,-21.30 2.51,-19.85 2.30,-18.53 2.09,-17.20 1.96,-15.59 1.83,-13.98 1.83,-12.73 1.83,-11.48 1.83,-9.99 1.83,-8.50 1.84,-6.96 1.86,-5.42 1.92,-3.83 1.98,-2.24 1.70,-1.22 1.42,-0.20 1.42,-0.03 1.42,0.14 1.39,0.31 1.35,0.48 1.27,0.63 1.19,0.79 1.08,0.92 0.97,1.05 0.83,1.15 0.69,1.25 0.53,1.32 0.37,1.38 0.20,1.41 0.03,1.43 -0.14,1.41 -0.31,1.40 -0.47,1.34 -0.64,1.28 -0.78,1.18 -0.92,1.09 -1.04,0.96 -1.16,0.84 -1.24,0.68 -1.33,0.53 -1.37,0.36 -1.42,0.20 -1.42,0.20 L -1.42,0.20 Z"></path></g><g transform="translate(181.46430703348778 160.88131618347256) rotate(0 14.137198988046634 -2.019583346588547)" stroke="none"><path fill="#000000" d="M -0.15,-1.54 Q -0.15,-1.54 2.68,-2.50 5.51,-3.46 7.48,-3.85 9.45,-4.25 12.57,-4.45 15.69,-4.65 17.54,-4.73 19.39,-4.80 20.78,-4.83 22.16,-4.87 24.00,-4.88 25.84,-4.90 26.92,-4.63 28.01,-4.36 28.09,-4.55 28.18,-4.75 28.32,-4.91 28.46,-5.06 28.65,-5.17 28.83,-5.27 29.04,-5.31 29.25,-5.35 29.46,-5.32 29.67,-5.29 29.86,-5.19 30.05,-5.10 30.20,-4.94 30.35,-4.79 30.44,-4.60 30.54,-4.41 30.56,-4.20 30.59,-3.99 30.55,-3.78 30.51,-3.57 30.40,-3.39 30.30,-3.20 30.14,-3.06 29.98,-2.92 29.78,-2.84 29.59,-2.76 29.38,-2.74 29.16,-2.73 28.96,-2.78 28.75,-2.83 28.57,-2.95 28.40,-3.06 28.26,-3.23 28.13,-3.40 28.06,-3.60 27.99,-3.80 27.98,-4.01 27.98,-4.22 28.04,-4.42 28.11,-4.63 28.23,-4.80 28.36,-4.97 28.53,-5.09 28.70,-5.21 28.91,-5.28 29.11,-5.34 29.32,-5.33 29.54,-5.32 29.73,-5.25 29.93,-5.17 30.10,-5.04 30.26,-4.90 30.38,-4.73 30.49,-4.55 30.54,-4.34 30.59,-4.13 30.57,-3.92 30.55,-3.71 30.55,-3.71 30.55,-3.71 28.21,-1.41 25.87,0.87 24.08,0.90 22.29,0.92 20.96,0.95 19.63,0.98 17.84,1.06 16.04,1.13 13.30,1.28 10.57,1.43 8.33,1.87 6.09,2.30 3.12,1.92 0.15,1.54 -0.03,1.54 -0.21,1.53 -0.40,1.48 -0.58,1.43 -0.74,1.34 -0.90,1.25 -1.04,1.13 -1.18,1.00 -1.28,0.84 -1.38,0.69 -1.45,0.51 -1.51,0.33 -1.53,0.15 -1.55,-0.03 -1.52,-0.21 -1.49,-0.40 -1.42,-0.57 -1.35,-0.75 -1.24,-0.90 -1.14,-1.05 -0.99,-1.17 -0.85,-1.29 -0.68,-1.37 -0.51,-1.46 -0.33,-1.50 -0.15,-1.54 -0.15,-1.54 L -0.15,-1.54 Z"></path></g><g transform="translate(210.74843890191187 155.83234626080844) rotate(0 -8.583292782060994 -4.5440798641132005)" stroke="none"><path fill="#000000" d="M -0.72,1.44 Q -0.72,1.44 -2.12,1.35 -3.53,1.25 -4.48,0.63 -5.42,0.00 -6.34,-0.57 -7.26,-1.15 -9.11,-2.02 -10.96,-2.89 -12.59,-3.88 -14.23,-4.88 -16.22,-6.59 -18.22,-8.30 -18.31,-8.49 -18.41,-8.68 -18.44,-8.89 -18.47,-9.10 -18.44,-9.31 -18.40,-9.52 -18.30,-9.71 -18.20,-9.89 -18.04,-10.04 -17.88,-10.18 -17.69,-10.27 -17.50,-10.35 -17.28,-10.37 -17.07,-10.39 -16.87,-10.34 -16.66,-10.30 -16.48,-10.18 -16.30,-10.07 -16.16,-9.91 -16.03,-9.74 -15.95,-9.55 -15.88,-9.35 -15.87,-9.14 -15.86,-8.92 -15.92,-8.72 -15.98,-8.52 -16.10,-8.34 -16.22,-8.17 -16.39,-8.04 -16.56,-7.91 -16.76,-7.85 -16.97,-7.78 -17.18,-7.79 -17.39,-7.79 -17.59,-7.86 -17.79,-7.93 -17.96,-8.06 -18.13,-8.19 -18.24,-8.37 -18.36,-8.55 -18.41,-8.75 -18.47,-8.96 -18.45,-9.17 -18.44,-9.38 -18.36,-9.58 -18.28,-9.78 -18.14,-9.94 -18.00,-10.10 -17.81,-10.20 -17.63,-10.31 -17.42,-10.35 -17.21,-10.40 -17.00,-10.37 -16.79,-10.34 -16.60,-10.25 -16.41,-10.16 -16.26,-10.01 -16.11,-9.86 -16.11,-9.86 -16.11,-9.86 -13.78,-9.83 -11.46,-9.80 -10.47,-9.22 -9.49,-8.64 -8.09,-7.82 -6.69,-7.00 -5.05,-6.20 -3.41,-5.40 -2.26,-4.49 -1.11,-3.57 -0.19,-2.51 0.72,-1.44 0.88,-1.33 1.04,-1.23 1.18,-1.08 1.31,-0.94 1.40,-0.77 1.50,-0.60 1.55,-0.41 1.60,-0.22 1.60,-0.03 1.60,0.16 1.56,0.35 1.52,0.54 1.43,0.71 1.34,0.89 1.22,1.04 1.09,1.18 0.93,1.30 0.77,1.41 0.59,1.49 0.41,1.56 0.22,1.59 0.03,1.61 -0.16,1.59 -0.35,1.57 -0.54,1.51 -0.72,1.44 -0.72,1.44 L -0.72,1.44 Z"></path></g><g transform="translate(210.74843890191187 155.83234626080844) rotate(0 -8.583292782060994 8.583258113482998)" stroke="none"><path fill="#000000" d="M 0.98,0.98 Q 0.98,0.98 -0.13,2.76 -1.26,4.54 -2.35,5.95 -3.44,7.37 -4.55,8.64 -5.67,9.92 -6.42,10.76 -7.17,11.61 -8.82,13.01 -10.47,14.41 -11.50,15.32 -12.52,16.24 -13.43,17.19 -14.34,18.14 -15.62,16.78 -16.90,15.42 -17.06,15.43 -17.22,15.44 -17.37,15.42 -17.53,15.39 -17.68,15.33 -17.82,15.27 -17.95,15.17 -18.07,15.08 -18.17,14.95 -18.27,14.83 -18.34,14.69 -18.41,14.54 -18.44,14.39 -18.47,14.23 -18.46,14.08 -18.46,13.92 -18.41,13.77 -18.37,13.61 -18.29,13.48 -18.21,13.34 -18.10,13.23 -17.99,13.11 -17.86,13.03 -17.72,12.94 -17.57,12.89 -17.42,12.84 -17.92,13.31 -18.43,13.78 -18.34,13.59 -18.25,13.40 -18.10,13.24 -17.96,13.09 -17.77,12.99 -17.58,12.89 -17.37,12.85 -17.16,12.82 -16.95,12.85 -16.74,12.89 -16.55,12.99 -16.37,13.09 -16.22,13.24 -16.07,13.39 -15.99,13.59 -15.90,13.78 -15.87,13.99 -15.85,14.20 -15.90,14.41 -15.94,14.62 -16.05,14.80 -16.16,14.98 -16.32,15.12 -16.48,15.26 -16.68,15.34 -16.88,15.41 -17.09,15.43 -17.30,15.44 -17.51,15.38 -17.71,15.32 -17.89,15.20 -18.06,15.09 -18.19,14.92 -18.32,14.75 -18.39,14.55 -18.46,14.34 -18.46,14.13 -18.46,13.92 -18.39,13.72 -18.32,13.52 -18.19,13.35 -18.06,13.18 -17.89,13.06 -17.71,12.94 -17.51,12.88 -17.30,12.83 -17.09,12.84 -16.88,12.85 -16.68,12.93 -16.48,13.01 -16.32,13.14 -16.16,13.28 -16.05,13.46 -15.94,13.65 -15.90,13.85 -15.85,14.06 -16.38,14.74 -16.90,15.42 -17.06,15.43 -17.22,15.44 -17.37,15.42 -17.53,15.39 -17.68,15.33 -17.82,15.27 -17.95,15.17 -18.07,15.08 -18.17,14.95 -18.27,14.83 -18.34,14.69 -18.41,14.54 -18.44,14.39 -18.47,14.23 -18.46,14.08 -18.46,13.92 -18.41,13.77 -18.37,13.61 -18.29,13.48 -18.21,13.34 -18.10,13.23 -17.99,13.11 -17.86,13.03 -17.72,12.94 -17.57,12.89 -17.42,12.84 -16.76,12.69 -16.10,12.53 -14.69,11.36 -13.29,10.19 -12.04,9.20 -10.79,8.22 -10.03,7.45 -9.28,6.68 -8.21,5.53 -7.15,4.38 -5.84,2.82 -4.54,1.26 -2.76,0.13 -0.98,-0.98 -0.85,-1.09 -0.72,-1.19 -0.56,-1.26 -0.41,-1.33 -0.25,-1.36 -0.08,-1.39 0.08,-1.38 0.25,-1.37 0.41,-1.32 0.57,-1.27 0.71,-1.18 0.86,-1.10 0.98,-0.98 1.10,-0.86 1.18,-0.71 1.27,-0.57 1.32,-0.41 1.37,-0.25 1.38,-0.08 1.39,0.08 1.36,0.25 1.33,0.41 1.26,0.56 1.19,0.72 1.09,0.85 0.98,0.98 0.98,0.98 L 0.98,0.98 Z"></path></g></svg>