<svg version="1.1" xmlns="http://www.w3.org/2000/svg" viewBox="0 0 189.1666030883789 189.1666030883789" width="567.4998092651367" height="567.4998092651367">
  <!-- svg-source:excalidraw -->
  
  <defs>
    <style class="style-fonts">
      @font-face {
        font-family: "Virgil";
        src: url("https://excalidraw.com/Virgil.woff2");
      }
      @font-face {
        font-family: "Cascadia";
        src: url("https://excalidraw.com/Cascadia.woff2");
      }
    </style>
  </defs>
  <g stroke-linecap="round" transform="translate(10 10) rotate(0 84.58330154418945 84.58330154418945)"><path d="M-0.53 1.77 C64.78 -0.13, 129.14 1.36, 170.49 1.06 M0.73 0.52 C38.9 0.75, 76.1 0.27, 169.5 -0.96 M168.77 -0.1 C169.16 43.94, 167.59 89.54, 169.84 169.45 M169.78 -0.85 C168.37 42.81, 167.46 83.65, 168.28 169.7 M170.91 167.47 C110.24 168.93, 49.38 169.99, 0.35 169.39 M169.37 168.97 C130.67 168.87, 91.77 167.74, -0.7 169.75 M0.36 170.23 C2.24 112.8, 1.22 58.51, 1.86 1.24 M0.27 169.14 C0.88 124.7, -0.17 80.17, -0.7 -0.37" stroke="transparent" stroke-width="1" fill="none"></path></g><g transform="translate(55.07770107484885 89.97499821602707) rotate(0 40 25)"><text x="0" y="35" font-family="Virgil, Segoe UI Emoji" font-size="40.02551640339611px" fill="#000000" text-anchor="start" style="white-space: pre;" direction="ltr">DXF</text></g><g transform="translate(39.871266148493305 23.74563498878433) rotate(0 35.14081076261846 -0.9671632491167088)" stroke="none"><path fill="#000000" d="M 0.56,-1.89 Q 0.56,-1.89 2.40,-1.29 4.24,-0.70 5.82,-0.50 7.39,-0.31 8.92,-0.06 10.46,0.18 12.83,0.24 15.21,0.31 16.58,0.30 17.96,0.29 20.02,0.41 22.08,0.53 24.07,0.59 26.06,0.66 28.06,0.38 30.06,0.10 31.16,-0.14 32.27,-0.39 34.04,-0.64 35.80,-0.89 37.36,-1.05 38.91,-1.21 40.92,-1.51 42.94,-1.82 46.04,-2.48 49.15,-3.14 52.21,-3.59 55.27,-4.05 58.00,-4.59 60.73,-5.13 62.30,-5.46 63.86,-5.79 66.95,-6.11 70.04,-6.44 70.34,-6.39 70.65,-6.34 70.93,-6.20 71.21,-6.05 71.42,-5.83 71.64,-5.60 71.77,-5.32 71.91,-5.04 71.94,-4.73 71.98,-4.42 71.92,-4.12 71.85,-3.81 71.69,-3.54 71.54,-3.27 71.30,-3.07 71.06,-2.86 70.78,-2.74 70.49,-2.63 70.18,-2.61 69.86,-2.59 69.56,-2.67 69.26,-2.75 69.00,-2.92 68.74,-3.09 68.55,-3.34 68.36,-3.59 68.26,-3.88 68.15,-4.18 68.15,-4.49 68.15,-4.80 68.25,-5.10 68.34,-5.39 68.53,-5.64 68.71,-5.89 68.97,-6.07 69.23,-6.25 69.53,-6.34 69.83,-6.42 70.14,-6.41 70.45,-6.39 70.74,-6.28 71.03,-6.17 71.27,-5.97 71.51,-5.77 71.68,-5.50 71.84,-5.24 71.91,-4.93 71.98,-4.63 71.95,-4.32 71.92,-4.01 71.79,-3.72 71.66,-3.44 71.45,-3.21 71.24,-2.98 70.96,-2.83 70.69,-2.68 70.38,-2.63 70.07,-2.58 70.07,-2.58 70.07,-2.58 67.23,-2.53 64.39,-2.49 62.87,-2.33 61.36,-2.17 58.57,-1.54 55.79,-0.92 52.86,-0.38 49.92,0.15 46.78,0.95 43.64,1.76 41.42,2.29 39.20,2.81 37.78,2.87 36.35,2.92 34.58,3.18 32.82,3.43 31.74,3.50 30.65,3.56 28.36,4.02 26.06,4.48 24.06,4.54 22.06,4.60 19.98,4.70 17.89,4.80 16.47,4.74 15.06,4.69 13.43,4.61 11.80,4.54 10.75,4.33 9.69,4.12 8.28,3.80 6.87,3.48 5.02,3.20 3.16,2.92 1.29,2.40 -0.56,1.89 -0.78,1.79 -1.00,1.70 -1.19,1.55 -1.38,1.41 -1.53,1.22 -1.67,1.03 -1.77,0.82 -1.87,0.60 -1.92,0.37 -1.96,0.14 -1.95,-0.09 -1.94,-0.33 -1.87,-0.56 -1.80,-0.79 -1.68,-0.99 -1.56,-1.20 -1.40,-1.37 -1.23,-1.54 -1.03,-1.66 -0.82,-1.79 -0.60,-1.86 -0.37,-1.93 -0.13,-1.95 0.09,-1.97 0.33,-1.93 0.56,-1.89 0.56,-1.89 L 0.56,-1.89 Z"></path></g><g transform="translate(110.79769268907148 17.94256694629223) rotate(0 15.474848113310145 18.376382134555683)" stroke="none"><path fill="#000000" d="M 1.49,-1.49 Q 1.49,-1.49 2.90,0.06 4.31,1.61 5.51,2.78 6.71,3.96 9.03,6.58 11.35,9.21 12.71,10.92 14.06,12.63 15.67,14.22 17.27,15.82 18.33,17.12 19.38,18.42 20.29,19.15 21.19,19.87 22.30,21.00 23.42,22.14 24.54,23.22 25.67,24.30 27.02,25.93 28.36,27.57 29.27,28.73 30.19,29.89 31.89,32.77 33.59,35.65 33.66,36.11 33.73,36.56 33.65,37.02 33.57,37.47 33.35,37.88 33.13,38.29 32.79,38.60 32.45,38.91 32.03,39.10 31.61,39.29 31.15,39.34 30.69,39.38 30.24,39.28 29.79,39.18 29.40,38.93 29.01,38.69 28.71,38.34 28.42,37.98 28.25,37.55 28.08,37.12 28.06,36.66 28.04,36.20 28.17,35.75 28.30,35.31 28.56,34.93 28.82,34.55 29.19,34.28 29.56,34.00 30.00,33.86 30.44,33.71 30.90,33.72 31.37,33.72 31.80,33.88 32.24,34.03 32.60,34.31 32.97,34.59 33.22,34.98 33.48,35.36 33.60,35.81 33.72,36.26 33.69,36.72 33.66,37.18 33.48,37.60 33.31,38.03 33.00,38.38 32.70,38.73 32.30,38.96 31.90,39.20 31.45,39.29 31.00,39.39 30.54,39.33 30.08,39.28 29.67,39.08 29.25,38.88 28.92,38.56 28.59,38.24 28.37,37.83 28.16,37.42 28.16,37.42 28.16,37.42 26.81,35.11 25.45,32.81 24.76,31.69 24.07,30.58 23.26,29.27 22.45,27.97 21.28,26.51 20.11,25.05 19.34,23.82 18.57,22.59 17.59,21.52 16.62,20.44 15.86,19.25 15.10,18.06 13.32,16.41 11.53,14.76 10.14,13.19 8.74,11.63 6.35,9.17 3.96,6.71 2.78,5.51 1.61,4.31 0.06,2.90 -1.49,1.49 -1.64,1.29 -1.80,1.09 -1.90,0.85 -2.01,0.62 -2.05,0.37 -2.10,0.12 -2.08,-0.12 -2.07,-0.38 -1.99,-0.62 -1.92,-0.86 -1.79,-1.08 -1.65,-1.30 -1.47,-1.47 -1.29,-1.65 -1.08,-1.79 -0.86,-1.92 -0.62,-1.99 -0.37,-2.07 -0.12,-2.08 0.12,-2.10 0.37,-2.05 0.62,-2.01 0.85,-1.90 1.09,-1.80 1.29,-1.64 1.49,-1.49 1.49,-1.49 L 1.49,-1.49 Z"></path></g><g transform="translate(111.62936107421956 21.166503475209083) rotate(0 15.797250620980776 18.698769884261196)" stroke="none"><path fill="#000000" d="M 2.20,-0.11 Q 2.20,-0.11 2.26,3.60 2.33,7.31 2.32,11.14 2.32,14.97 2.29,17.71 2.25,20.44 2.22,23.09 2.19,25.74 2.29,27.05 2.40,28.36 2.58,30.24 2.76,32.12 2.89,33.33 3.01,34.54 6.22,34.45 9.43,34.36 11.36,34.45 13.28,34.54 15.20,34.61 17.13,34.67 18.32,34.61 19.51,34.55 20.68,34.44 21.85,34.32 22.96,34.23 24.08,34.14 25.33,34.06 26.59,33.99 28.64,33.95 30.69,33.92 31.14,33.99 31.59,34.06 32.00,34.28 32.40,34.49 32.72,34.83 33.03,35.16 33.22,35.57 33.42,35.99 33.47,36.45 33.51,36.90 33.42,37.35 33.32,37.80 33.08,38.19 32.85,38.58 32.50,38.88 32.15,39.17 31.72,39.34 31.30,39.51 30.84,39.54 30.38,39.56 29.94,39.44 29.50,39.32 29.12,39.06 28.74,38.80 28.46,38.44 28.18,38.07 28.04,37.64 27.89,37.21 27.89,36.75 27.89,36.29 28.04,35.85 28.18,35.42 28.46,35.06 28.74,34.69 29.12,34.43 29.50,34.18 29.94,34.05 30.38,33.93 30.84,33.96 31.30,33.98 31.72,34.15 32.15,34.32 32.50,34.62 32.85,34.91 33.08,35.31 33.32,35.70 33.42,36.15 33.51,36.60 33.47,37.05 33.42,37.51 33.22,37.92 33.03,38.34 32.72,38.67 32.40,39.00 31.99,39.22 31.59,39.43 31.14,39.51 30.69,39.58 30.69,39.58 30.69,39.58 28.64,39.55 26.59,39.51 25.33,39.43 24.08,39.35 22.96,39.26 21.85,39.18 20.68,39.06 19.51,38.94 18.32,38.88 17.13,38.82 15.20,38.88 13.27,38.94 11.34,39.02 9.42,39.10 6.61,39.27 3.79,39.44 2.04,39.19 0.28,38.94 -0.71,36.74 -1.72,34.54 -1.60,33.33 -1.47,32.12 -1.30,30.25 -1.13,28.37 -1.03,27.07 -0.94,25.76 -1.00,23.12 -1.06,20.49 -1.16,17.77 -1.26,15.05 -1.43,11.28 -1.59,7.51 -1.89,3.81 -2.20,0.11 -2.18,-0.15 -2.16,-0.41 -2.08,-0.67 -2.00,-0.92 -1.86,-1.15 -1.72,-1.37 -1.53,-1.56 -1.34,-1.74 -1.11,-1.88 -0.88,-2.01 -0.62,-2.09 -0.37,-2.17 -0.10,-2.18 0.15,-2.19 0.41,-2.14 0.67,-2.09 0.91,-1.98 1.16,-1.87 1.36,-1.70 1.57,-1.54 1.73,-1.33 1.89,-1.12 2.00,-0.87 2.11,-0.63 2.15,-0.37 2.20,-0.10 2.20,-0.10 L 2.20,-0.11 Z"></path></g><g transform="translate(143.0369989463743 60.49839925789513) rotate(0 0 13.540492099146263)" stroke="none"><path fill="#000000" d="M 2.13,0 Q 2.13,0 2.02,2.22 1.91,4.44 1.93,6.13 1.94,7.82 1.86,10.39 1.77,12.96 1.74,14.98 1.70,17.00 1.69,18.97 1.67,20.94 1.75,22.33 1.83,23.73 1.87,25.24 1.91,26.75 1.86,27.06 1.81,27.36 1.67,27.64 1.52,27.91 1.30,28.12 1.07,28.34 0.79,28.47 0.51,28.60 0.20,28.63 -0.10,28.66 -0.40,28.60 -0.70,28.53 -0.97,28.37 -1.24,28.21 -1.44,27.98 -1.64,27.74 -1.75,27.45 -1.87,27.16 -1.88,26.85 -1.90,26.54 -1.82,26.25 -1.73,25.95 -1.56,25.69 -1.39,25.43 -1.14,25.25 -0.89,25.06 -0.60,24.96 -0.30,24.86 0.00,24.86 0.31,24.86 0.60,24.96 0.89,25.06 1.14,25.25 1.39,25.43 1.56,25.69 1.73,25.95 1.82,26.25 1.90,26.55 1.88,26.85 1.87,27.16 1.75,27.45 1.64,27.74 1.44,27.98 1.23,28.21 0.97,28.37 0.70,28.53 0.40,28.60 0.10,28.66 -0.20,28.63 -0.51,28.60 -0.79,28.47 -1.07,28.34 -1.30,28.12 -1.52,27.91 -1.67,27.64 -1.81,27.36 -1.86,27.06 -1.91,26.75 -1.91,26.75 -1.91,26.75 -1.87,25.24 -1.83,23.73 -1.75,22.33 -1.67,20.94 -1.69,18.97 -1.70,17.00 -1.74,14.98 -1.77,12.96 -1.86,10.39 -1.94,7.82 -1.93,6.13 -1.91,4.44 -2.02,2.22 -2.13,0 -2.10,-0.25 -2.06,-0.51 -1.97,-0.75 -1.88,-0.99 -1.74,-1.20 -1.59,-1.41 -1.40,-1.58 -1.21,-1.75 -0.98,-1.87 -0.75,-1.99 -0.50,-2.05 -0.25,-2.11 0.00,-2.11 0.25,-2.11 0.50,-2.05 0.75,-1.99 0.98,-1.87 1.21,-1.75 1.40,-1.58 1.59,-1.41 1.74,-1.20 1.88,-0.99 1.97,-0.75 2.06,-0.50 2.10,-0.25 2.13,0.00 2.13,0.00 L 2.13,0 Z"></path></g><g transform="translate(43.45959029594087 141.47045922938537) rotate(0 49.97088337651712 14.830072613898892)" stroke="none"><path fill="#000000" d="M 2.25,-0.12 Q 2.25,-0.12 2.31,3.21 2.37,6.56 2.36,9.12 2.34,11.69 1.73,14.26 1.12,16.84 0.76,18.45 0.40,20.06 0.06,21.68 -0.27,23.30 2.38,24.23 5.03,25.17 6.42,25.44 7.81,25.72 10.40,26.14 13.00,26.57 14.49,26.67 15.99,26.77 17.33,26.78 18.67,26.79 20.16,26.79 21.65,26.80 22.84,26.75 24.03,26.71 25.46,26.70 26.89,26.69 28.24,26.66 29.59,26.64 31.28,26.67 32.97,26.71 34.24,26.67 35.51,26.64 37.35,26.70 39.19,26.77 40.71,26.76 42.23,26.75 43.99,26.78 45.75,26.82 47.43,26.83 49.10,26.84 51.67,26.95 54.23,27.07 56.07,27.08 57.90,27.09 60.90,27.18 63.90,27.26 65.55,27.22 67.20,27.17 68.64,27.11 70.08,27.05 71.59,26.90 73.10,26.75 74.16,26.64 75.23,26.53 76.93,26.45 78.63,26.36 79.83,26.53 81.02,26.71 83.16,26.78 85.30,26.85 86.84,26.81 88.37,26.77 89.47,26.77 90.57,26.77 91.97,26.80 93.36,26.83 94.84,26.77 96.32,26.72 97.57,26.67 98.81,26.62 100.53,26.61 102.24,26.60 102.73,26.68 103.22,26.76 103.66,26.99 104.09,27.22 104.43,27.58 104.77,27.94 104.98,28.39 105.19,28.84 105.24,29.33 105.30,29.82 105.19,30.30 105.08,30.79 104.83,31.21 104.57,31.64 104.20,31.96 103.82,32.28 103.36,32.46 102.90,32.64 102.41,32.67 101.91,32.70 101.43,32.56 100.96,32.43 100.55,32.15 100.14,31.88 99.84,31.48 99.54,31.09 99.38,30.62 99.22,30.15 99.22,29.65 99.22,29.16 99.38,28.69 99.54,28.22 99.84,27.83 100.14,27.43 100.55,27.16 100.96,26.88 101.44,26.75 101.91,26.61 102.41,26.64 102.90,26.67 103.36,26.85 103.82,27.03 104.20,27.35 104.57,27.68 104.83,28.10 105.08,28.52 105.19,29.01 105.30,29.49 105.24,29.98 105.19,30.47 104.98,30.92 104.77,31.37 104.43,31.73 104.09,32.09 103.66,32.32 103.22,32.55 102.73,32.63 102.24,32.71 102.24,32.71 102.24,32.71 100.53,32.70 98.81,32.69 97.57,32.64 96.32,32.59 94.84,32.53 93.36,32.48 91.96,32.51 90.56,32.54 89.45,32.53 88.33,32.52 86.74,32.44 85.15,32.36 83.87,32.32 82.59,32.28 80.60,31.97 78.61,31.66 76.92,31.58 75.23,31.49 74.16,31.38 73.10,31.27 71.59,31.12 70.08,30.97 68.64,30.91 67.20,30.85 65.55,30.81 63.90,30.76 60.90,30.85 57.90,30.93 56.07,30.94 54.23,30.95 51.67,31.07 49.10,31.18 47.43,31.19 45.75,31.20 43.99,31.24 42.23,31.27 40.71,31.26 39.19,31.25 37.35,31.32 35.51,31.38 34.24,31.35 32.96,31.31 31.28,31.34 29.59,31.37 28.23,31.35 26.88,31.32 25.43,31.30 23.99,31.28 22.78,31.21 21.57,31.15 20.03,31.10 18.49,31.06 17.05,30.95 15.62,30.84 14.07,30.67 12.53,30.49 9.71,30.26 6.90,30.04 5.15,29.66 3.41,29.27 1.33,28.60 -0.73,27.92 -2.09,27.16 -3.46,26.41 -4.00,25.43 -4.54,24.45 -4.33,22.98 -4.11,21.50 -3.59,20.32 -3.06,19.15 -2.61,17.63 -2.16,16.11 -1.72,13.94 -1.29,11.77 -1.46,9.28 -1.63,6.78 -1.94,3.45 -2.25,0.12 -2.23,-0.14 -2.21,-0.41 -2.13,-0.67 -2.05,-0.93 -1.90,-1.16 -1.76,-1.39 -1.57,-1.59 -1.38,-1.78 -1.14,-1.92 -0.91,-2.06 -0.65,-2.14 -0.39,-2.21 -0.12,-2.23 0.14,-2.24 0.41,-2.19 0.68,-2.14 0.92,-2.03 1.17,-1.92 1.38,-1.75 1.60,-1.58 1.76,-1.37 1.93,-1.15 2.04,-0.90 2.15,-0.65 2.20,-0.39 2.25,-0.12 2.25,-0.12 L 2.25,-0.12 Z"></path></g><g transform="translate(143.13040539372741 139.59570799392645) rotate(0 0.7070127146475897 15.81416407408011)" stroke="none"><path fill="#000000" d="M 2.50,0 Q 2.50,0 2.49,1.48 2.48,2.96 2.52,4.77 2.56,6.59 2.64,8.06 2.71,9.54 2.75,11.03 2.78,12.51 2.90,14.13 3.03,15.75 3.33,17.28 3.64,18.80 3.74,19.95 3.84,21.09 4.14,22.29 4.43,23.50 4.49,24.85 4.55,26.19 4.60,28.78 4.65,31.37 4.56,31.88 4.48,32.40 4.23,32.86 3.99,33.32 3.61,33.68 3.23,34.04 2.75,34.26 2.28,34.48 1.75,34.54 1.23,34.60 0.72,34.49 0.21,34.37 -0.23,34.10 -0.68,33.83 -1.02,33.43 -1.35,33.03 -1.55,32.55 -1.74,32.06 -1.77,31.54 -1.80,31.02 -1.66,30.51 -1.52,30.01 -1.23,29.57 -0.93,29.14 -0.51,28.82 -0.10,28.51 0.39,28.34 0.89,28.17 1.41,28.17 1.93,28.17 2.43,28.34 2.93,28.51 3.34,28.82 3.76,29.14 4.05,29.57 4.35,30.01 4.49,30.51 4.63,31.02 4.60,31.54 4.57,32.06 4.38,32.55 4.18,33.03 3.84,33.43 3.50,33.83 3.06,34.10 2.61,34.37 2.10,34.49 1.58,34.60 1.06,34.54 0.54,34.48 0.07,34.26 -0.40,34.04 -0.78,33.68 -1.16,33.32 -1.40,32.86 -1.65,32.40 -1.73,31.88 -1.82,31.37 -1.82,31.37 -1.82,31.37 -1.78,28.80 -1.73,26.24 -1.70,24.80 -1.66,23.36 -1.83,22.31 -1.99,21.25 -1.96,19.98 -1.93,18.71 -2.01,17.25 -2.10,15.78 -2.00,14.18 -1.91,12.59 -1.92,11.16 -1.94,9.73 -1.98,8.32 -2.02,6.92 -2.25,4.94 -2.48,2.96 -2.49,1.48 -2.50,0 -2.46,-0.29 -2.43,-0.59 -2.32,-0.88 -2.21,-1.16 -2.04,-1.41 -1.87,-1.66 -1.64,-1.86 -1.42,-2.06 -1.15,-2.20 -0.88,-2.34 -0.59,-2.41 -0.30,-2.48 0.00,-2.48 0.30,-2.48 0.59,-2.41 0.88,-2.34 1.15,-2.20 1.42,-2.06 1.64,-1.86 1.87,-1.66 2.04,-1.41 2.21,-1.16 2.32,-0.88 2.43,-0.59 2.46,-0.29 2.50,0.00 2.50,0.00 L 2.50,0 Z"></path></g><g transform="translate(40.88269986619434 25.32746342095527) rotate(0 1.8456086477667668 30.443823801439464)" stroke="none"><path fill="#000000" d="M 2.29,-0.34 Q 2.29,-0.34 2.52,1.08 2.74,2.50 2.82,4.22 2.90,5.95 3.31,7.19 3.72,8.44 3.84,11.16 3.95,13.88 4.08,15.36 4.20,16.84 4.24,18.51 4.28,20.18 4.34,21.50 4.41,22.82 4.54,24.61 4.66,26.39 4.68,27.76 4.69,29.13 4.78,30.45 4.87,31.77 4.93,33.66 4.99,35.55 5.00,36.73 5.00,37.91 5.06,39.52 5.11,41.13 5.14,42.96 5.18,44.79 5.22,46.19 5.26,47.59 5.24,48.77 5.23,49.94 5.22,51.05 5.22,52.15 5.53,53.70 5.83,55.24 6.29,57.86 6.76,60.48 6.70,60.98 6.64,61.48 6.43,61.93 6.22,62.38 5.87,62.74 5.53,63.10 5.09,63.33 4.64,63.57 4.15,63.64 3.66,63.72 3.16,63.64 2.67,63.55 2.23,63.32 1.79,63.08 1.45,62.72 1.11,62.35 0.90,61.90 0.70,61.44 0.64,60.95 0.59,60.45 0.70,59.96 0.81,59.48 1.07,59.05 1.33,58.62 1.72,58.30 2.10,57.98 2.56,57.80 3.03,57.62 3.53,57.59 4.03,57.57 4.51,57.70 4.99,57.84 5.40,58.12 5.81,58.41 6.11,58.80 6.41,59.20 6.57,59.68 6.72,60.15 6.72,60.65 6.72,61.15 6.56,61.62 6.39,62.10 6.09,62.49 5.78,62.89 5.37,63.17 4.95,63.44 4.47,63.57 3.99,63.70 3.49,63.68 2.99,63.65 2.53,63.46 2.07,63.27 1.69,62.94 1.31,62.62 1.05,62.19 0.80,61.76 0.70,61.27 0.59,60.78 0.59,60.78 0.59,60.78 0.48,59.52 0.37,58.27 0.03,56.58 -0.30,54.90 -0.54,53.54 -0.79,52.17 -0.79,51.06 -0.80,49.94 -0.82,48.77 -0.83,47.59 -0.79,46.19 -0.75,44.79 -0.72,42.96 -0.68,41.13 -0.63,39.52 -0.57,37.91 -0.57,36.73 -0.56,35.55 -0.50,33.66 -0.44,31.77 -0.35,30.45 -0.26,29.13 -0.25,27.77 -0.24,26.41 -0.13,24.64 -0.02,22.87 0.00,21.57 0.03,20.28 0.00,18.68 -0.02,17.08 -0.06,15.64 -0.10,14.20 -0.38,11.98 -0.66,9.76 -1.18,8.00 -1.69,6.24 -1.79,4.71 -1.89,3.19 -2.09,1.76 -2.29,0.34 -2.30,0.06 -2.31,-0.21 -2.25,-0.49 -2.19,-0.76 -2.06,-1.01 -1.94,-1.26 -1.76,-1.48 -1.58,-1.69 -1.35,-1.86 -1.13,-2.02 -0.87,-2.13 -0.61,-2.23 -0.33,-2.27 -0.06,-2.32 0.21,-2.29 0.49,-2.26 0.75,-2.17 1.02,-2.08 1.25,-1.93 1.49,-1.77 1.68,-1.57 1.87,-1.36 2.01,-1.12 2.14,-0.88 2.22,-0.61 2.29,-0.34 2.29,-0.34 L 2.29,-0.34 Z"></path></g><g transform="translate(23.318188946515875 88.70334851747543) rotate(0 0.7792986248514353 24.31404289479474)" stroke="none"><path fill="#000000" d="M 1.49,0 Q 1.49,0 1.85,2.06 2.22,4.12 2.23,7.06 2.25,9.99 2.25,12.52 2.26,15.04 2.26,17.54 2.26,20.04 2.35,22.02 2.44,24.01 2.59,26.41 2.74,28.81 2.91,31.04 3.08,33.26 3.26,35.02 3.43,36.79 3.52,38.48 3.60,40.18 3.72,41.69 3.84,43.20 3.91,44.27 3.98,45.33 3.15,46.67 2.32,48.01 2.31,48.17 2.30,48.33 2.24,48.48 2.19,48.63 2.11,48.76 2.02,48.89 1.91,49.00 1.79,49.11 1.66,49.19 1.52,49.27 1.37,49.31 1.21,49.36 1.06,49.36 0.90,49.37 0.74,49.33 0.59,49.30 0.44,49.23 0.30,49.16 0.18,49.06 0.06,48.96 -0.03,48.84 -0.12,48.71 -0.18,48.56 -0.24,48.42 -0.27,48.26 -0.29,48.10 -0.17,48.46 -0.05,48.82 -0.14,48.63 -0.24,48.44 -0.26,48.23 -0.29,48.02 -0.25,47.81 -0.21,47.60 -0.10,47.41 -0.00,47.23 0.15,47.09 0.31,46.95 0.50,46.86 0.70,46.78 0.91,46.77 1.12,46.75 1.33,46.80 1.54,46.85 1.71,46.97 1.89,47.08 2.02,47.25 2.16,47.42 2.23,47.62 2.30,47.82 2.31,48.03 2.31,48.24 2.25,48.44 2.18,48.65 2.06,48.82 1.93,48.99 1.76,49.11 1.59,49.24 1.38,49.30 1.18,49.36 0.97,49.35 0.76,49.35 0.56,49.27 0.36,49.20 0.19,49.06 0.03,48.93 -0.08,48.75 -0.19,48.57 -0.24,48.36 -0.29,48.16 -0.27,47.95 -0.25,47.73 -0.17,47.54 -0.08,47.34 0.05,47.19 0.19,47.03 0.38,46.93 0.56,46.82 0.77,46.78 0.98,46.74 1.19,46.77 1.40,46.80 1.59,46.90 1.78,47.00 2.05,47.50 2.32,48.01 2.31,48.17 2.30,48.33 2.24,48.48 2.19,48.63 2.11,48.76 2.02,48.89 1.91,49.00 1.79,49.11 1.66,49.19 1.52,49.27 1.37,49.31 1.21,49.36 1.06,49.36 0.90,49.37 0.74,49.33 0.59,49.30 0.44,49.23 0.30,49.16 0.18,49.06 0.06,48.96 -0.03,48.84 -0.12,48.71 -0.18,48.56 -0.24,48.42 -0.27,48.26 -0.29,48.10 -0.64,45.88 -0.99,43.66 -1.08,41.96 -1.17,40.27 -1.21,38.76 -1.26,37.25 -1.40,35.43 -1.53,33.61 -1.67,31.38 -1.81,29.14 -1.95,26.67 -2.08,24.21 -2.17,22.12 -2.26,20.04 -2.26,17.54 -2.26,15.04 -2.25,12.52 -2.25,9.99 -2.23,7.06 -2.22,4.12 -1.85,2.06 -1.49,0 -1.47,-0.17 -1.45,-0.35 -1.39,-0.52 -1.32,-0.69 -1.22,-0.84 -1.12,-0.99 -0.98,-1.11 -0.85,-1.23 -0.69,-1.31 -0.53,-1.40 -0.35,-1.44 -0.18,-1.48 0.00,-1.48 0.18,-1.48 0.35,-1.44 0.53,-1.40 0.69,-1.31 0.85,-1.23 0.98,-1.11 1.12,-0.99 1.22,-0.84 1.32,-0.69 1.39,-0.52 1.45,-0.35 1.47,-0.17 1.49,0.00 1.49,0.00 L 1.49,0 Z"></path></g><g transform="translate(23.941630700264795 88.39163477527097) rotate(0 71.53939544045397 0.3117173095395742)" stroke="none"><path fill="#000000" d="M 0,-1.75 Q 0,-1.75 2.77,-2.04 5.55,-2.34 7.00,-2.34 8.45,-2.34 10.68,-2.36 12.91,-2.37 14.97,-2.48 17.03,-2.59 18.21,-2.63 19.39,-2.67 22.54,-2.89 25.68,-3.11 27.23,-3.20 28.77,-3.29 32.07,-3.35 35.37,-3.40 36.94,-3.42 38.50,-3.43 40.25,-3.44 41.99,-3.45 44.25,-3.47 46.51,-3.48 49.19,-3.49 51.88,-3.50 54.12,-3.50 56.37,-3.51 58.18,-3.52 59.99,-3.53 61.65,-3.54 63.31,-3.56 65.25,-3.65 67.18,-3.75 69.39,-3.81 71.60,-3.87 74.18,-3.89 76.77,-3.91 78.62,-3.91 80.48,-3.92 83.25,-3.92 86.03,-3.93 87.11,-3.93 88.18,-3.93 89.62,-3.93 91.07,-3.94 92.49,-3.94 93.91,-3.94 95.43,-3.95 96.96,-3.96 98.39,-3.97 99.81,-3.98 102.35,-3.90 104.89,-3.82 106.12,-3.79 107.35,-3.76 109.25,-3.76 111.14,-3.77 112.71,-3.66 114.28,-3.54 115.40,-3.52 116.51,-3.51 118.31,-3.42 120.11,-3.32 121.51,-3.28 122.91,-3.24 124.85,-3.14 126.80,-3.04 128.18,-3.02 129.57,-2.99 130.95,-2.89 132.34,-2.80 133.92,-2.74 135.50,-2.69 136.95,-2.55 138.41,-2.41 139.55,-2.24 140.69,-2.08 141.42,-0.82 142.15,0.42 142.30,0.46 142.46,0.50 142.60,0.57 142.74,0.65 142.85,0.75 142.97,0.86 143.06,0.99 143.15,1.12 143.21,1.27 143.27,1.41 143.28,1.57 143.30,1.73 143.28,1.89 143.27,2.04 143.21,2.19 143.15,2.34 143.06,2.47 142.97,2.60 142.85,2.70 142.74,2.81 142.60,2.88 142.46,2.96 142.30,2.99 142.15,3.03 141.99,3.03 141.83,3.03 142.15,2.99 142.47,2.95 142.26,3.00 142.05,3.04 141.84,3.02 141.63,2.99 141.44,2.90 141.25,2.81 141.09,2.66 140.94,2.52 140.84,2.33 140.74,2.14 140.71,1.93 140.68,1.72 140.71,1.51 140.75,1.30 140.85,1.11 140.95,0.93 141.11,0.78 141.26,0.64 141.45,0.55 141.65,0.46 141.86,0.44 142.07,0.42 142.28,0.46 142.48,0.51 142.67,0.62 142.85,0.73 142.98,0.90 143.12,1.06 143.20,1.26 143.27,1.45 143.28,1.67 143.29,1.88 143.24,2.08 143.18,2.29 143.06,2.46 142.94,2.64 142.77,2.77 142.60,2.89 142.40,2.96 142.19,3.03 141.98,3.02 141.77,3.02 141.57,2.95 141.37,2.88 141.20,2.75 141.03,2.62 140.91,2.45 140.79,2.27 140.74,2.07 140.68,1.86 140.70,1.65 140.71,1.44 140.79,1.24 140.87,1.04 141.01,0.88 141.15,0.72 141.65,0.57 142.15,0.42 142.30,0.46 142.46,0.50 142.60,0.57 142.74,0.65 142.85,0.75 142.97,0.86 143.06,0.99 143.15,1.12 143.21,1.27 143.27,1.41 143.28,1.57 143.30,1.73 143.28,1.89 143.27,2.04 143.21,2.19 143.15,2.34 143.06,2.47 142.97,2.60 142.85,2.70 142.74,2.81 142.60,2.88 142.46,2.96 142.30,2.99 142.15,3.03 141.99,3.03 141.83,3.03 140.48,3.37 139.12,3.71 137.73,3.57 136.35,3.43 135.26,3.33 134.18,3.22 133.04,3.18 131.90,3.13 130.69,3.04 129.48,2.94 127.22,2.77 124.96,2.60 123.87,2.59 122.79,2.57 121.25,2.50 119.71,2.43 118.45,2.33 117.19,2.23 116.01,2.20 114.84,2.16 112.97,2.02 111.10,1.88 109.14,1.83 107.18,1.77 105.94,1.73 104.69,1.68 102.25,1.58 99.81,1.49 98.39,1.47 96.96,1.46 95.43,1.46 93.91,1.45 92.49,1.45 91.07,1.44 89.62,1.44 88.18,1.43 87.11,1.43 86.03,1.43 83.26,1.43 80.48,1.43 78.63,1.43 76.77,1.42 74.22,1.43 71.66,1.43 69.61,1.47 67.56,1.52 65.44,1.60 63.31,1.68 61.65,1.67 59.99,1.66 58.18,1.65 56.37,1.64 54.12,1.63 51.88,1.63 49.20,1.62 46.51,1.62 44.26,1.61 42.01,1.60 40.28,1.60 38.55,1.61 36.99,1.62 35.43,1.64 32.23,1.65 29.04,1.66 27.51,1.74 25.99,1.82 22.77,1.99 19.55,2.16 18.39,2.20 17.24,2.23 15.07,2.30 12.91,2.37 10.68,2.36 8.45,2.34 7.00,2.34 5.55,2.34 2.77,2.04 0,1.75 -0.20,1.72 -0.41,1.70 -0.61,1.62 -0.81,1.55 -0.98,1.43 -1.16,1.31 -1.30,1.15 -1.44,0.99 -1.54,0.80 -1.64,0.62 -1.69,0.41 -1.74,0.21 -1.74,-0.00 -1.74,-0.21 -1.69,-0.41 -1.64,-0.62 -1.54,-0.80 -1.44,-0.99 -1.30,-1.15 -1.16,-1.31 -0.98,-1.43 -0.81,-1.55 -0.61,-1.62 -0.41,-1.70 -0.20,-1.72 0.00,-1.75 0.00,-1.75 L 0,-1.75 Z"></path></g><g transform="translate(166.70869356962794 86.52132378336364) rotate(0 0.15586400577240056 26.4960747635767)" stroke="none"><path fill="#000000" d="M 1.39,0.19 Q 1.39,0.19 1.64,2.23 1.88,4.27 1.79,6.84 1.69,9.42 1.70,11.62 1.70,13.81 1.73,15.69 1.75,17.57 1.77,19.67 1.79,21.77 1.89,23.70 1.98,25.63 2.12,26.86 2.26,28.08 2.46,29.77 2.66,31.46 2.96,33.10 3.26,34.73 3.43,36.04 3.59,37.34 3.76,38.60 3.92,39.85 4.04,41.60 4.16,43.34 4.20,44.73 4.25,46.11 4.28,47.30 4.32,48.48 2.92,51.22 1.51,53.96 1.32,54.06 1.14,54.16 0.93,54.20 0.72,54.24 0.51,54.21 0.30,54.18 0.11,54.08 -0.07,53.98 -0.22,53.83 -0.37,53.68 -0.46,53.49 -0.55,53.30 -0.58,53.09 -0.60,52.87 -0.56,52.67 -0.52,52.46 -0.41,52.27 -0.31,52.09 -0.15,51.95 0.00,51.81 0.20,51.73 0.40,51.65 0.61,51.63 0.82,51.62 1.02,51.67 1.23,51.72 1.41,51.84 1.59,51.96 1.72,52.12 1.85,52.29 1.92,52.49 1.99,52.69 1.99,52.90 2.00,53.12 1.93,53.32 1.87,53.52 1.74,53.69 1.62,53.86 1.44,53.98 1.27,54.11 1.07,54.17 0.86,54.23 0.65,54.22 0.44,54.21 0.24,54.14 0.04,54.06 -0.11,53.93 -0.28,53.79 -0.39,53.61 -0.50,53.43 -0.55,53.22 -0.60,53.02 -0.58,52.80 -0.56,52.59 -0.48,52.40 -0.39,52.20 -0.25,52.05 -0.10,51.89 -0.10,51.89 -0.10,51.89 -0.97,50.19 -1.83,48.49 -1.80,47.32 -1.77,46.15 -1.76,44.83 -1.75,43.51 -1.82,42.04 -1.89,40.56 -2.03,39.29 -2.17,38.02 -2.32,36.76 -2.46,35.49 -2.72,33.77 -2.99,32.06 -3.13,30.35 -3.26,28.64 -3.38,27.32 -3.49,26.01 -3.58,23.89 -3.66,21.77 -3.64,19.66 -3.61,17.56 -3.58,15.67 -3.55,13.78 -3.48,11.53 -3.41,9.27 -3.19,6.44 -2.96,3.61 -2.18,1.71 -1.39,-0.19 -1.35,-0.35 -1.31,-0.51 -1.22,-0.66 -1.14,-0.81 -1.03,-0.94 -0.91,-1.06 -0.77,-1.16 -0.63,-1.25 -0.47,-1.31 -0.31,-1.37 -0.14,-1.39 0.02,-1.40 0.18,-1.38 0.35,-1.36 0.51,-1.30 0.67,-1.23 0.81,-1.13 0.95,-1.04 1.06,-0.91 1.17,-0.78 1.24,-0.63 1.32,-0.48 1.36,-0.31 1.40,-0.14 1.39,0.02 1.39,0.19 1.39,0.19 L 1.39,0.19 Z"></path></g><g transform="translate(24.253344442469825 137.6431623186097) rotate(0 71.85111631732843 -0.46758488264703146)" stroke="none"><path fill="#000000" d="M -0.05,-1.40 Q -0.05,-1.40 2.26,-1.83 4.58,-2.26 6.66,-2.29 8.75,-2.33 11.08,-2.35 13.40,-2.36 14.73,-2.27 16.06,-2.18 17.62,-2.15 19.18,-2.11 21.51,-2.10 23.85,-2.09 26.13,-2.10 28.42,-2.11 30.80,-2.14 33.18,-2.18 36.14,-2.30 39.11,-2.43 41.92,-2.50 44.74,-2.57 47.41,-2.68 50.09,-2.80 52.69,-2.95 55.28,-3.11 57.86,-3.18 60.43,-3.25 62.77,-3.39 65.10,-3.53 67.12,-3.43 69.14,-3.32 71.08,-3.15 73.01,-2.98 75.02,-2.81 77.03,-2.65 79.61,-2.48 82.18,-2.31 84.58,-2.24 86.98,-2.18 89.20,-2.17 91.42,-2.15 93.30,-2.15 95.18,-2.15 97.01,-2.15 98.85,-2.15 100.93,-2.15 103.01,-2.15 104.96,-2.15 106.90,-2.15 108.70,-2.15 110.49,-2.16 111.79,-2.17 113.10,-2.18 115.08,-2.13 117.06,-2.08 118.87,-1.96 120.68,-1.84 122.38,-1.71 124.08,-1.58 125.69,-1.43 127.29,-1.28 129.22,-1.07 131.15,-0.85 132.74,-0.69 134.33,-0.52 135.49,-0.50 136.65,-0.48 138.30,-0.48 139.96,-0.48 141.03,-0.51 142.11,-0.54 141.28,0.59 140.44,1.74 141.20,-0.07 141.96,-1.89 141.79,-2.01 141.62,-2.14 141.50,-2.31 141.38,-2.49 141.32,-2.69 141.26,-2.89 141.27,-3.11 141.28,-3.32 141.35,-3.52 141.43,-3.72 141.56,-3.88 141.70,-4.04 141.88,-4.16 142.06,-4.27 142.27,-4.32 142.47,-4.36 142.69,-4.34 142.90,-4.32 143.09,-4.24 143.29,-4.15 143.44,-4.01 143.60,-3.86 143.70,-3.68 143.80,-3.49 143.84,-3.28 143.88,-3.07 143.85,-2.86 143.81,-2.65 143.72,-2.46 143.62,-2.27 143.47,-2.13 143.32,-1.98 143.12,-1.89 142.93,-1.79 142.72,-1.77 142.51,-1.74 142.30,-1.78 142.09,-1.83 141.91,-1.93 141.73,-2.04 141.59,-2.20 141.45,-2.36 141.37,-2.56 141.28,-2.75 141.27,-2.97 141.26,-3.18 141.31,-3.38 141.36,-3.59 141.48,-3.77 141.60,-3.94 141.77,-4.08 141.93,-4.21 142.13,-4.28 142.33,-4.35 142.55,-4.35 142.76,-4.35 142.96,-4.29 143.16,-4.22 143.16,-4.22 143.16,-4.22 144.66,-2.19 146.15,-0.17 146.03,1.41 145.90,2.99 144.00,3.95 142.09,4.90 141.00,4.86 139.91,4.81 138.17,4.75 136.43,4.69 135.09,4.61 133.74,4.52 132.05,4.28 130.36,4.03 128.69,3.82 127.03,3.60 125.30,3.36 123.57,3.12 121.91,2.95 120.26,2.78 118.50,2.61 116.74,2.44 114.92,2.31 113.10,2.18 111.79,2.17 110.49,2.16 108.70,2.15 106.90,2.15 104.96,2.15 103.01,2.15 100.93,2.15 98.85,2.14 97.01,2.15 95.18,2.15 93.29,2.15 91.41,2.14 89.16,2.13 86.92,2.12 84.43,2.05 81.93,1.98 79.31,1.84 76.68,1.71 74.68,1.56 72.67,1.42 70.75,1.32 68.83,1.21 67.03,1.18 65.24,1.16 62.86,1.30 60.49,1.44 58.03,1.50 55.57,1.56 52.95,1.69 50.32,1.82 47.55,1.91 44.78,1.99 42.04,2.03 39.30,2.07 36.24,2.12 33.18,2.18 30.80,2.14 28.42,2.11 26.12,2.09 23.83,2.07 21.46,2.04 19.08,2.01 17.43,1.97 15.77,1.93 14.60,1.84 13.42,1.76 11.12,1.79 8.83,1.82 6.78,1.86 4.74,1.90 2.39,1.65 0.05,1.40 -0.11,1.39 -0.28,1.38 -0.44,1.32 -0.60,1.27 -0.75,1.18 -0.89,1.09 -1.01,0.96 -1.12,0.84 -1.21,0.69 -1.29,0.55 -1.34,0.38 -1.39,0.22 -1.39,0.05 -1.40,-0.11 -1.37,-0.28 -1.33,-0.44 -1.26,-0.60 -1.18,-0.75 -1.08,-0.88 -0.97,-1.01 -0.83,-1.12 -0.70,-1.22 -0.54,-1.28 -0.38,-1.35 -0.22,-1.38 -0.05,-1.40 -0.05,-1.40 L -0.05,-1.40 Z"></path></g></svg>