<svg version="1.1" xmlns="http://www.w3.org/2000/svg" viewBox="0 0 189.1666030883789 189.1666030883789" width="567.4998092651367" height="567.4998092651367">
  <!-- svg-source:excalidraw -->
  
  <defs>
    <style class="style-fonts">
      @font-face {
        font-family: "Virgil";
        src: url("https://excalidraw.com/Virgil.woff2");
      }
      @font-face {
        font-family: "Cascadia";
        src: url("https://excalidraw.com/Cascadia.woff2");
      }
    </style>
  </defs>
  <g stroke-linecap="round" transform="translate(10 10) rotate(0 84.58330154418945 84.58330154418945)"><path d="M1.1 0.16 C46.85 -1.88, 90.61 -0.05, 170.65 -0.84 M0.86 -0.25 C42.3 0.23, 83.23 0.9, 168.59 -0.31 M170.73 -1.93 C170.06 60.83, 170.57 124.87, 168.36 169.07 M169.28 0.95 C167.72 62.89, 166.86 125.28, 169.04 168.23 M169.94 167.91 C130 171.85, 89.84 171.38, 1.97 168.3 M169.7 169.28 C113.76 169.03, 57.04 169.86, 0.91 168.67 M0.75 168.68 C-0.86 108.75, 1.12 47.82, 0.22 -1.32 M0.99 168.18 C0.59 124.43, 0.44 80.11, -0.97 -0.3" stroke="transparent" stroke-width="1" fill="none"></path></g><g transform="translate(109.75891953197663 23.262369612707516) rotate(0 24.903220248875357 60.44219477063484)" stroke="none"><path fill="#000000" d="M 1.27,-0.79 Q 1.27,-0.79 2.20,0.28 3.13,1.35 3.78,2.49 4.43,3.63 5.37,5.51 6.32,7.39 7.11,9.03 7.90,10.66 8.65,12.02 9.41,13.38 10.08,14.86 10.76,16.33 11.41,17.49 12.05,18.65 12.77,19.99 13.48,21.33 14.04,22.44 14.60,23.55 15.29,25.33 15.98,27.11 16.52,28.25 17.06,29.38 17.41,30.75 17.76,32.12 18.12,33.13 18.47,34.14 18.87,35.17 19.26,36.21 19.76,37.46 20.26,38.72 20.87,40.23 21.48,41.74 21.95,43.33 22.42,44.92 22.85,45.99 23.28,47.06 23.75,48.36 24.21,49.67 24.70,50.88 25.19,52.09 25.87,53.72 26.54,55.34 26.89,56.89 27.25,58.44 27.69,59.48 28.13,60.51 28.56,61.66 28.99,62.81 29.39,64.04 29.79,65.27 30.28,66.48 30.77,67.69 31.26,68.75 31.76,69.81 32.31,71.27 32.86,72.73 33.38,74.07 33.89,75.41 34.41,76.71 34.92,78.02 35.56,79.40 36.19,80.78 36.66,81.73 37.14,82.69 37.54,83.82 37.94,84.94 38.38,86.24 38.82,87.53 39.50,89.10 40.19,90.67 40.76,92.06 41.32,93.45 42.03,94.93 42.73,96.41 43.51,98.34 44.29,100.28 44.90,101.54 45.52,102.81 46.08,104.30 46.64,105.80 47.04,106.88 47.44,107.96 47.82,109.19 48.20,110.42 48.61,111.52 49.01,112.62 49.52,113.91 50.02,115.19 50.46,116.59 50.90,117.98 50.74,118.82 50.58,119.66 50.59,119.82 50.59,119.98 50.55,120.13 50.52,120.29 50.45,120.43 50.38,120.57 50.27,120.69 50.17,120.81 50.04,120.90 49.91,120.99 49.76,121.05 49.62,121.11 49.46,121.13 49.30,121.15 49.15,121.14 48.99,121.12 48.84,121.07 48.69,121.01 48.56,120.93 48.43,120.84 48.32,120.72 48.21,120.61 48.14,120.47 48.06,120.33 48.02,120.17 47.98,120.02 47.98,119.93 47.97,119.84 48.00,119.63 48.04,119.42 48.14,119.23 48.24,119.04 48.40,118.90 48.55,118.75 48.74,118.66 48.94,118.57 49.15,118.55 49.36,118.53 49.57,118.58 49.77,118.62 49.96,118.73 50.14,118.84 50.27,119.01 50.41,119.17 50.49,119.37 50.57,119.57 50.58,119.78 50.59,119.99 50.53,120.19 50.47,120.40 50.35,120.57 50.23,120.75 50.06,120.88 49.89,121.00 49.69,121.07 49.49,121.14 49.28,121.14 49.06,121.14 48.86,121.07 48.66,121.00 48.49,120.87 48.33,120.74 48.21,120.56 48.09,120.39 48.03,120.18 47.98,119.98 47.99,119.77 48.00,119.55 48.08,119.36 48.16,119.16 48.30,119.00 48.44,118.84 48.62,118.73 48.80,118.62 49.01,118.57 49.22,118.53 49.43,118.55 49.64,118.58 49.83,118.67 50.02,118.76 50.18,118.90 50.33,119.05 50.43,119.24 50.53,119.43 50.56,119.55 50.58,119.66 50.59,119.82 50.59,119.98 50.55,120.13 50.52,120.29 50.45,120.43 50.38,120.57 50.27,120.69 50.17,120.81 50.04,120.90 49.91,120.99 49.76,121.05 49.62,121.11 49.46,121.13 49.30,121.15 49.15,121.14 48.99,121.12 48.84,121.07 48.69,121.01 48.56,120.93 48.43,120.84 48.32,120.72 48.21,120.61 48.14,120.47 48.06,120.33 48.02,120.17 47.98,120.02 47.19,119.01 46.40,117.99 45.88,116.69 45.36,115.39 44.87,114.24 44.39,113.08 44.06,111.96 43.73,110.83 43.26,109.47 42.80,108.11 42.22,106.55 41.65,105.00 40.84,103.27 40.03,101.55 39.55,100.46 39.07,99.37 38.66,98.21 38.24,97.06 37.56,95.44 36.88,93.82 36.29,92.39 35.70,90.97 34.84,88.95 33.98,86.93 33.41,85.33 32.84,83.73 32.36,82.71 31.88,81.70 31.29,80.54 30.71,79.38 30.19,78.06 29.67,76.74 29.14,75.34 28.62,73.93 28.14,72.69 27.66,71.45 27.12,70.25 26.59,69.05 26.10,67.85 25.61,66.64 25.30,65.61 24.98,64.58 24.51,63.31 24.04,62.04 23.53,60.74 23.01,59.44 22.76,58.19 22.51,56.93 22.00,55.82 21.50,54.70 21.18,53.67 20.87,52.63 20.20,50.84 19.53,49.05 18.95,47.61 18.37,46.16 17.86,44.38 17.35,42.59 16.61,40.73 15.87,38.87 15.39,37.58 14.90,36.30 14.36,34.78 13.81,33.26 13.54,32.08 13.26,30.90 12.71,29.70 12.16,28.50 11.50,26.75 10.84,24.99 10.31,23.94 9.78,22.89 9.14,21.70 8.50,20.51 7.77,19.17 7.04,17.83 6.46,16.53 5.87,15.24 5.07,13.75 4.26,12.26 3.46,10.58 2.65,8.89 1.83,7.22 1.00,5.55 0.42,4.48 -0.15,3.41 -0.71,2.10 -1.27,0.79 -1.35,0.63 -1.42,0.46 -1.46,0.29 -1.49,0.11 -1.48,-0.06 -1.48,-0.24 -1.42,-0.42 -1.37,-0.59 -1.28,-0.75 -1.19,-0.90 -1.06,-1.03 -0.94,-1.16 -0.78,-1.26 -0.63,-1.35 -0.46,-1.41 -0.29,-1.47 -0.11,-1.48 0.06,-1.49 0.24,-1.46 0.42,-1.43 0.59,-1.36 0.75,-1.29 0.90,-1.18 1.04,-1.07 1.15,-0.93 1.27,-0.79 1.27,-0.79 L 1.27,-0.79 Z"></path></g><g transform="translate(94.71323979798888 56.985488282913366) rotate(0 -0.5188329215592944 23.60617356931948)" stroke="none"><path fill="#000000" d="M 1.28,0.74 Q 1.28,0.74 0.56,2.73 -0.14,4.71 -0.76,5.66 -1.38,6.62 -1.81,7.88 -2.25,9.15 -2.77,10.36 -3.29,11.58 -3.82,12.63 -4.36,13.68 -4.94,14.73 -5.52,15.79 -5.96,17.29 -6.40,18.78 -6.88,19.76 -7.36,20.74 -7.88,22.05 -8.40,23.37 -8.98,24.89 -9.56,26.41 -9.80,27.69 -10.05,28.97 -10.60,30.56 -11.15,32.16 -11.60,33.76 -12.05,35.37 -12.35,36.42 -12.64,37.48 -13.21,39.14 -13.77,40.81 -13.95,41.95 -14.14,43.08 -13.03,43.33 -11.93,43.57 -10.63,43.87 -9.32,44.17 -8.02,44.41 -6.73,44.66 -5.11,44.67 -3.49,44.69 -2.18,44.69 -0.88,44.69 0.49,44.69 1.88,44.68 3.41,44.69 4.94,44.69 6.31,44.69 7.68,44.69 8.80,44.49 9.92,44.29 11.24,44.23 12.56,44.17 12.99,45.21 13.42,46.25 12.66,45.42 11.91,44.58 11.42,43.62 10.93,42.66 10.45,41.39 9.97,40.13 9.70,38.80 9.43,37.48 9.41,36.31 9.38,35.15 9.13,33.90 8.87,32.66 8.87,31.27 8.86,29.89 8.62,28.53 8.38,27.18 8.22,26.11 8.05,25.03 7.69,23.99 7.32,22.95 6.84,21.87 6.36,20.79 6.07,19.60 5.78,18.42 5.31,17.29 4.84,16.16 4.26,14.97 3.67,13.77 3.14,12.44 2.60,11.10 2.57,9.89 2.54,8.69 2.29,7.47 2.05,6.26 1.60,5.24 1.15,4.22 -0.45,5.82 -2.05,7.42 -2.25,7.47 -2.46,7.53 -2.67,7.51 -2.88,7.50 -3.08,7.42 -3.27,7.34 -3.43,7.20 -3.60,7.06 -3.70,6.88 -3.81,6.70 -3.86,6.49 -3.90,6.28 -3.88,6.07 -3.85,5.86 -3.76,5.67 -3.67,5.48 -3.52,5.32 -3.38,5.17 -3.19,5.07 -3.00,4.97 -2.79,4.94 -2.58,4.91 -2.37,4.94 -2.16,4.98 -1.97,5.08 -1.79,5.18 -1.64,5.34 -1.50,5.49 -1.41,5.68 -1.32,5.88 -1.30,6.09 -1.28,6.30 -1.33,6.51 -1.37,6.72 -1.48,6.90 -1.59,7.08 -1.76,7.21 -1.92,7.35 -2.12,7.43 -2.32,7.51 -2.53,7.52 -2.74,7.53 -2.94,7.47 -3.15,7.41 -3.32,7.29 -3.50,7.17 -3.63,7.00 -3.75,6.83 -3.82,6.63 -3.89,6.42 -3.89,6.21 -3.88,6.00 -3.81,5.80 -3.75,5.60 -3.62,5.43 -3.49,5.26 -3.31,5.14 -3.13,5.03 -3.13,5.03 -3.13,5.03 -3.27,3.95 -3.41,2.87 -2.83,1.96 -2.25,1.05 -1.36,0.45 -0.48,-0.14 0.63,-0.34 1.76,-0.54 2.86,-0.11 3.97,0.30 4.73,1.32 5.50,2.34 6.22,3.58 6.94,4.81 7.17,6.05 7.39,7.29 7.28,8.47 7.18,9.65 7.94,10.80 8.71,11.95 9.32,13.54 9.92,15.12 10.41,16.38 10.90,17.63 11.08,18.69 11.27,19.74 11.60,21.04 11.94,22.34 12.48,23.77 13.03,25.20 13.32,26.58 13.61,27.96 13.79,29.97 13.97,31.98 14.20,33.21 14.44,34.45 14.46,35.51 14.49,36.58 14.44,37.69 14.38,38.80 15.06,40.01 15.73,41.23 16.51,42.14 17.28,43.04 17.51,44.73 17.74,46.42 16.69,47.24 15.63,48.06 14.37,48.64 13.11,49.22 11.95,49.24 10.79,49.27 9.73,49.50 8.66,49.73 7.17,49.73 5.68,49.73 4.28,49.73 2.88,49.73 1.55,49.73 0.21,49.73 -0.93,49.73 -2.08,49.73 -3.41,49.72 -4.74,49.72 -6.49,49.65 -8.24,49.58 -9.41,49.35 -10.57,49.12 -11.66,48.80 -12.74,48.48 -14.20,47.94 -15.66,47.40 -17.07,46.12 -18.49,44.84 -18.72,43.18 -18.95,41.52 -18.41,40.10 -17.88,38.67 -17.54,37.50 -17.21,36.32 -16.83,35.03 -16.45,33.74 -16.04,32.67 -15.64,31.59 -15.12,29.96 -14.61,28.32 -14.33,27.25 -14.05,26.19 -13.50,24.43 -12.95,22.66 -12.55,21.57 -12.15,20.48 -11.54,18.95 -10.92,17.42 -10.51,16.35 -10.09,15.28 -9.55,14.06 -9.01,12.85 -8.56,11.83 -8.11,10.81 -7.52,9.76 -6.94,8.72 -6.55,7.61 -6.16,6.51 -5.09,4.48 -4.02,2.44 -2.65,0.84 -1.28,-0.74 -1.17,-0.89 -1.06,-1.03 -0.92,-1.14 -0.78,-1.26 -0.62,-1.33 -0.46,-1.41 -0.28,-1.44 -0.11,-1.48 0.06,-1.47 0.24,-1.46 0.41,-1.41 0.58,-1.36 0.74,-1.27 0.89,-1.18 1.02,-1.05 1.15,-0.93 1.25,-0.78 1.34,-0.63 1.40,-0.46 1.45,-0.29 1.47,-0.11 1.48,0.06 1.45,0.24 1.42,0.42 1.35,0.58 1.28,0.74 1.28,0.74 L 1.28,0.74 Z"></path></g><g transform="translate(28.528801409616563 145.78427918265925) rotate(0 41.240370412528705 -61.336321553532)" stroke="none"><path fill="#000000" d="M -1.44,-0.65 Q -1.44,-0.65 -1.21,-1.88 -0.98,-3.11 -0.17,-4.66 0.63,-6.21 1.13,-7.49 1.63,-8.78 2.05,-9.82 2.47,-10.87 2.87,-11.90 3.27,-12.94 3.90,-14.24 4.53,-15.54 5.24,-16.94 5.95,-18.34 6.54,-19.34 7.13,-20.34 8.07,-21.86 9.01,-23.38 9.99,-24.67 10.97,-25.96 11.36,-27.14 11.76,-28.31 12.75,-30.47 13.74,-32.63 14.31,-33.99 14.89,-35.36 15.34,-36.73 15.79,-38.10 16.13,-39.17 16.47,-40.24 16.93,-41.61 17.39,-42.99 17.85,-44.36 18.31,-45.73 18.91,-47.22 19.51,-48.70 20.10,-49.63 20.70,-50.56 21.25,-51.73 21.80,-52.90 22.61,-54.96 23.41,-57.02 23.93,-58.22 24.45,-59.42 25.03,-60.51 25.62,-61.60 26.25,-63.14 26.88,-64.68 27.29,-65.73 27.71,-66.79 28.05,-67.84 28.39,-68.88 28.77,-69.98 29.15,-71.07 29.62,-72.29 30.10,-73.50 30.66,-74.68 31.21,-75.87 31.68,-77.20 32.15,-78.54 32.53,-79.78 32.91,-81.02 33.20,-82.14 33.49,-83.26 34.00,-84.52 34.50,-85.77 34.93,-86.86 35.35,-87.94 35.88,-88.93 36.41,-89.92 37.10,-91.29 37.80,-92.65 38.36,-93.79 38.92,-94.92 39.37,-96.12 39.82,-97.31 40.13,-98.34 40.44,-99.37 41.04,-100.75 41.65,-102.13 42.31,-103.43 42.96,-104.74 43.54,-105.87 44.11,-107.00 44.64,-108.23 45.17,-109.45 45.78,-110.59 46.40,-111.73 47.01,-112.94 47.63,-114.14 47.91,-115.31 48.19,-116.47 48.41,-117.52 48.64,-118.57 49.01,-120.00 49.39,-121.44 50.59,-122.37 51.79,-123.29 52.98,-123.59 54.17,-123.88 55.49,-124.18 56.81,-124.48 57.99,-124.71 59.16,-124.94 60.77,-124.98 62.38,-125.02 63.57,-125.03 64.76,-125.04 65.96,-125.06 67.16,-125.08 68.24,-125.08 69.32,-125.08 70.63,-125.08 71.95,-125.08 73.19,-125.09 74.43,-125.09 75.69,-125.11 76.94,-125.12 78.18,-125.14 79.41,-125.15 80.77,-124.86 82.13,-124.57 82.94,-123.46 83.74,-122.35 83.85,-121.25 83.95,-120.15 83.41,-117.90 82.88,-115.65 82.69,-115.56 82.50,-115.47 82.29,-115.44 82.08,-115.41 81.87,-115.46 81.66,-115.50 81.48,-115.60 81.29,-115.71 81.15,-115.87 81.01,-116.03 80.93,-116.22 80.85,-116.42 80.83,-116.63 80.82,-116.84 80.87,-117.05 80.92,-117.26 81.04,-117.43 81.16,-117.61 81.32,-117.74 81.49,-117.88 81.69,-117.95 81.89,-118.02 82.10,-118.02 82.32,-118.03 82.52,-117.96 82.72,-117.90 82.89,-117.77 83.06,-117.65 83.19,-117.47 83.31,-117.30 83.37,-117.10 83.43,-116.89 83.42,-116.68 83.41,-116.47 83.34,-116.27 83.26,-116.07 83.13,-115.90 82.99,-115.74 82.81,-115.63 82.63,-115.52 82.43,-115.47 82.22,-115.42 82.01,-115.44 81.80,-115.45 81.60,-115.54 81.41,-115.63 81.25,-115.77 81.10,-115.91 80.99,-116.10 80.89,-116.28 80.85,-116.49 80.81,-116.70 80.84,-116.91 80.87,-117.12 80.97,-117.31 81.07,-117.50 81.22,-117.65 81.37,-117.80 81.37,-117.80 81.37,-117.80 80.39,-118.99 79.41,-120.19 78.18,-120.20 76.94,-120.21 75.69,-120.23 74.43,-120.24 73.19,-120.25 71.95,-120.25 70.63,-120.26 69.32,-120.26 68.24,-120.26 67.16,-120.25 65.96,-120.27 64.76,-120.29 63.58,-120.30 62.39,-120.31 60.61,-120.26 58.84,-120.21 57.73,-119.98 56.62,-119.75 54.98,-119.19 53.33,-118.63 53.09,-117.43 52.84,-116.23 52.49,-114.89 52.14,-113.54 51.71,-112.34 51.29,-111.13 50.73,-110.08 50.17,-109.03 49.68,-108.05 49.20,-107.07 48.75,-106.05 48.31,-105.03 47.70,-103.85 47.10,-102.66 46.42,-101.32 45.74,-99.98 45.27,-98.89 44.80,-97.81 44.25,-96.25 43.69,-94.69 43.28,-93.66 42.88,-92.63 42.38,-91.60 41.88,-90.57 41.16,-89.16 40.43,-87.75 39.82,-86.55 39.21,-85.34 38.69,-84.00 38.18,-82.65 37.76,-81.26 37.34,-79.86 36.97,-78.69 36.60,-77.51 36.25,-76.28 35.89,-75.05 35.23,-73.60 34.56,-72.15 34.13,-71.16 33.69,-70.17 33.25,-68.94 32.82,-67.70 32.38,-66.27 31.94,-64.85 31.31,-63.43 30.69,-62.01 30.23,-60.81 29.76,-59.61 29.23,-58.65 28.69,-57.69 28.15,-56.43 27.62,-55.16 26.93,-53.50 26.24,-51.83 25.80,-50.70 25.37,-49.57 24.69,-48.38 24.01,-47.18 23.48,-46.09 22.94,-44.99 22.44,-43.38 21.93,-41.77 21.35,-40.04 20.77,-38.32 20.39,-37.24 20.00,-36.17 19.65,-34.98 19.29,-33.79 18.61,-32.19 17.93,-30.60 17.05,-28.72 16.16,-26.83 15.74,-25.64 15.32,-24.45 14.62,-23.37 13.92,-22.30 12.98,-20.99 12.04,-19.69 11.37,-18.54 10.70,-17.39 9.93,-15.99 9.15,-14.60 8.37,-13.17 7.59,-11.75 7.05,-10.40 6.52,-9.04 6.09,-8.00 5.66,-6.96 5.10,-5.58 4.54,-4.20 3.76,-2.75 2.98,-1.30 2.21,-0.32 1.44,0.65 1.34,0.81 1.24,0.98 1.10,1.11 0.97,1.25 0.80,1.34 0.64,1.44 0.46,1.50 0.27,1.56 0.08,1.57 -0.10,1.58 -0.28,1.54 -0.47,1.51 -0.65,1.43 -0.82,1.35 -0.97,1.23 -1.12,1.11 -1.24,0.96 -1.35,0.81 -1.43,0.64 -1.51,0.46 -1.54,0.27 -1.58,0.08 -1.57,-0.10 -1.55,-0.29 -1.50,-0.47 -1.44,-0.65 -1.44,-0.65 L -1.44,-0.65 Z"></path></g><g transform="translate(29.926758916979338 144.73579505353905) rotate(0 16.07676731224194 9.26160447436223)" stroke="none"><path fill="#000000" d="M -0.19,1.55 Q -0.19,1.55 -1.06,1.96 -1.92,2.37 -3.59,2.17 -5.26,1.98 -6.57,1.93 -7.89,1.87 -9.05,1.87 -10.21,1.87 -9.19,1.20 -8.16,0.53 -7.95,1.98 -7.73,3.42 -7.54,4.75 -7.34,6.08 -7.20,7.18 -7.06,8.29 -7.01,9.75 -6.97,11.21 -6.83,12.53 -6.69,13.86 -6.65,14.99 -6.61,16.11 -7.21,15.18 -7.81,14.25 -6.73,14.27 -5.66,14.29 -4.27,14.29 -2.89,14.29 -1.59,14.28 -0.28,14.27 1.22,14.27 2.73,14.26 4.01,14.26 5.29,14.26 6.44,14.26 7.59,14.26 9.27,14.25 10.94,14.23 12.06,14.23 13.17,14.22 14.98,14.35 16.79,14.47 18.19,14.66 19.60,14.85 21.18,15.23 22.76,15.60 23.99,15.78 25.23,15.96 26.31,15.96 27.39,15.96 28.59,16.11 29.78,16.26 31.04,16.28 32.30,16.30 33.49,16.31 34.67,16.31 35.78,16.20 36.90,16.09 37.98,16.03 39.07,15.96 40.85,16.93 42.63,17.90 42.79,17.92 42.95,17.94 43.09,18.00 43.24,18.05 43.37,18.14 43.50,18.23 43.61,18.35 43.71,18.47 43.79,18.61 43.86,18.75 43.90,18.90 43.94,19.06 43.94,19.22 43.94,19.37 43.90,19.53 43.86,19.68 43.79,19.82 43.71,19.96 43.61,20.08 43.50,20.20 43.37,20.29 43.24,20.38 43.10,20.44 42.95,20.49 42.79,20.51 42.63,20.53 43.22,20.16 43.81,19.79 43.69,19.96 43.57,20.14 43.40,20.26 43.23,20.39 43.02,20.45 42.82,20.52 42.61,20.51 42.40,20.51 42.20,20.44 42.00,20.37 41.83,20.23 41.66,20.10 41.55,19.92 41.43,19.75 41.38,19.54 41.33,19.34 41.34,19.12 41.36,18.91 41.44,18.72 41.52,18.52 41.66,18.36 41.80,18.20 41.99,18.09 42.17,17.99 42.38,17.95 42.59,17.90 42.80,17.93 43.01,17.96 43.20,18.05 43.39,18.14 43.54,18.29 43.69,18.44 43.79,18.63 43.89,18.82 43.92,19.03 43.95,19.24 43.91,19.45 43.87,19.66 43.77,19.85 43.66,20.03 43.51,20.17 43.35,20.32 43.16,20.40 42.96,20.49 42.75,20.51 42.54,20.53 42.33,20.48 42.12,20.43 41.94,20.32 41.76,20.20 41.63,20.04 41.50,19.87 41.42,19.67 41.35,19.48 41.34,19.26 41.33,19.05 41.98,18.48 42.63,17.90 42.79,17.92 42.95,17.94 43.09,18.00 43.24,18.05 43.37,18.14 43.50,18.23 43.61,18.35 43.71,18.47 43.79,18.61 43.86,18.75 43.90,18.90 43.94,19.06 43.94,19.22 43.94,19.37 43.90,19.53 43.86,19.68 43.79,19.82 43.71,19.96 43.61,20.08 43.50,20.20 43.37,20.29 43.24,20.38 43.10,20.44 42.95,20.49 42.79,20.51 42.63,20.53 40.86,20.81 39.09,21.08 37.95,21.24 36.81,21.40 35.74,21.41 34.67,21.43 33.48,21.43 32.28,21.43 31.19,21.41 30.09,21.40 28.99,21.24 27.89,21.08 26.81,21.07 25.72,21.07 24.64,21.02 23.57,20.98 22.10,20.65 20.64,20.33 19.35,19.99 18.06,19.66 16.96,19.56 15.86,19.47 14.51,19.40 13.17,19.32 12.06,19.31 10.94,19.31 9.27,19.29 7.59,19.28 6.44,19.28 5.29,19.28 4.01,19.28 2.73,19.28 1.22,19.27 -0.28,19.27 -1.59,19.26 -2.89,19.25 -4.30,19.25 -5.70,19.24 -6.94,19.22 -8.18,19.20 -9.69,18.22 -11.20,17.25 -11.40,15.72 -11.60,14.20 -11.75,12.72 -11.90,11.25 -11.95,9.88 -11.99,8.51 -12.11,7.36 -12.24,6.20 -12.42,4.97 -12.60,3.73 -12.80,2.39 -13.00,1.05 -12.20,-0.90 -11.39,-2.85 -10.23,-3.06 -9.06,-3.26 -7.76,-3.27 -6.46,-3.28 -5.08,-3.11 -3.71,-2.94 -2.49,-2.85 -1.28,-2.77 -0.54,-2.16 0.19,-1.55 0.37,-1.51 0.56,-1.46 0.72,-1.37 0.89,-1.28 1.03,-1.16 1.17,-1.03 1.28,-0.88 1.39,-0.72 1.46,-0.54 1.52,-0.37 1.54,-0.18 1.57,0.00 1.54,0.19 1.52,0.38 1.45,0.55 1.38,0.73 1.28,0.89 1.17,1.04 1.02,1.17 0.88,1.29 0.71,1.38 0.55,1.47 0.36,1.51 0.18,1.56 -0.00,1.55 -0.19,1.55 -0.19,1.55 L -0.19,1.55 Z"></path></g><g transform="translate(71.16714532810613 164.30750412998236) rotate(0 22.367656088365038 -19.222211700303433)" stroke="none"><path fill="#000000" d="M -1.39,-0.55 Q -1.39,-0.55 -1.33,-1.69 -1.26,-2.83 -0.93,-4.18 -0.59,-5.52 -0.39,-7.05 -0.20,-8.57 -0.19,-9.82 -0.18,-11.06 -0.20,-12.17 -0.21,-13.28 -0.37,-14.62 -0.54,-15.96 -1.61,-16.29 -2.68,-16.63 -3.97,-16.78 -5.25,-16.93 -6.48,-17.12 -7.72,-17.32 -8.85,-17.26 -9.98,-17.20 -10.23,-17.24 -10.48,-17.27 -10.80,-17.31 -11.11,-17.35 -11.41,-17.46 -11.71,-17.58 -11.97,-17.76 -12.23,-17.94 -12.44,-18.18 -12.65,-18.42 -12.80,-18.70 -12.95,-18.98 -13.02,-19.29 -13.10,-19.60 -13.10,-19.92 -13.10,-20.24 -13.02,-20.55 -12.94,-20.86 -12.79,-21.14 -12.64,-21.42 -12.43,-21.66 -12.22,-21.90 -11.96,-22.08 -11.69,-22.26 -11.40,-22.37 -11.10,-22.48 -10.78,-22.52 -10.47,-22.56 -11.55,-22.03 -12.64,-21.49 -11.98,-22.38 -11.32,-23.27 -10.36,-24.47 -9.39,-25.67 -8.70,-26.69 -8.01,-27.71 -7.46,-29.02 -6.92,-30.34 -6.40,-31.38 -5.89,-32.43 -5.48,-33.55 -5.06,-34.67 -4.58,-35.66 -4.10,-36.66 -3.35,-37.90 -2.59,-39.14 -0.58,-39.54 1.41,-39.94 2.47,-39.74 3.53,-39.54 4.60,-39.22 5.67,-38.89 6.94,-38.69 8.21,-38.49 9.30,-38.32 10.39,-38.16 11.64,-37.99 12.90,-37.83 14.07,-37.79 15.25,-37.75 16.51,-37.75 17.77,-37.74 19.11,-37.88 20.45,-38.02 21.88,-38.22 23.32,-38.42 24.56,-38.67 25.80,-38.92 26.89,-39.09 27.98,-39.27 29.28,-39.39 30.59,-39.51 32.13,-39.66 33.67,-39.81 35.01,-39.83 36.34,-39.86 37.65,-40.03 38.96,-40.21 40.05,-40.22 41.15,-40.23 42.41,-40.23 43.68,-40.23 44.75,-40.23 45.83,-40.23 46.89,-40.23 47.95,-40.23 49.06,-40.01 50.17,-39.80 51.12,-39.01 52.07,-38.22 52.37,-37.00 52.68,-35.78 53.12,-34.18 53.55,-32.57 53.83,-31.11 54.10,-29.64 54.54,-28.48 54.98,-27.32 55.24,-26.29 55.50,-25.26 56.00,-24.09 56.49,-22.92 56.60,-21.40 56.70,-19.88 56.76,-19.73 56.82,-19.59 56.85,-19.43 56.88,-19.28 56.86,-19.12 56.85,-18.96 56.80,-18.81 56.75,-18.66 56.67,-18.52 56.59,-18.39 56.47,-18.28 56.36,-18.17 56.22,-18.09 56.08,-18.01 55.93,-17.97 55.78,-17.92 55.62,-17.91 55.46,-17.91 55.31,-17.94 55.15,-17.97 55.01,-18.04 54.87,-18.10 54.74,-18.20 54.62,-18.30 54.53,-18.43 54.43,-18.56 54.45,-19.25 54.47,-19.94 54.61,-20.09 54.75,-20.25 54.94,-20.35 55.13,-20.46 55.34,-20.49 55.54,-20.53 55.76,-20.50 55.97,-20.47 56.15,-20.37 56.34,-20.27 56.49,-20.12 56.64,-19.97 56.73,-19.78 56.82,-19.59 56.85,-19.38 56.88,-19.17 56.83,-18.96 56.79,-18.75 56.69,-18.57 56.58,-18.38 56.42,-18.24 56.26,-18.10 56.06,-18.02 55.87,-17.94 55.65,-17.92 55.44,-17.91 55.24,-17.96 55.03,-18.02 54.85,-18.13 54.68,-18.25 54.54,-18.42 54.41,-18.58 54.34,-18.79 54.27,-18.99 54.27,-19.20 54.27,-19.41 54.33,-19.61 54.40,-19.82 54.52,-19.99 54.65,-20.16 54.82,-20.28 55.00,-20.40 55.20,-20.46 55.40,-20.52 55.62,-20.51 55.83,-20.50 56.03,-20.43 56.22,-20.35 56.39,-20.22 56.55,-20.08 56.67,-19.90 56.78,-19.72 56.83,-19.51 56.87,-19.31 56.86,-19.10 56.84,-18.88 56.77,-19.38 56.70,-19.88 56.76,-19.73 56.82,-19.59 56.85,-19.43 56.88,-19.28 56.86,-19.12 56.85,-18.96 56.80,-18.81 56.75,-18.66 56.67,-18.52 56.59,-18.39 56.47,-18.28 56.36,-18.17 56.22,-18.09 56.08,-18.01 55.93,-17.97 55.78,-17.92 55.62,-17.91 55.46,-17.91 55.31,-17.94 55.15,-17.97 55.01,-18.04 54.87,-18.10 54.74,-18.20 54.62,-18.30 54.53,-18.43 54.43,-18.56 53.46,-19.16 52.49,-19.76 51.99,-21.10 51.50,-22.44 51.02,-23.76 50.55,-25.08 50.13,-26.14 49.72,-27.19 49.45,-28.36 49.17,-29.53 48.90,-30.83 48.63,-32.13 48.82,-33.69 49.01,-35.25 47.89,-35.25 46.76,-35.25 45.52,-35.25 44.28,-35.25 43.15,-35.25 42.01,-35.25 40.57,-35.23 39.14,-35.22 37.79,-35.06 36.44,-34.90 35.29,-34.87 34.14,-34.85 32.94,-34.70 31.75,-34.55 30.41,-34.50 29.07,-34.44 27.80,-34.23 26.54,-34.03 24.72,-33.76 22.90,-33.49 21.63,-33.29 20.35,-33.09 18.78,-32.97 17.21,-32.85 15.81,-32.86 14.40,-32.87 12.89,-33.04 11.38,-33.21 10.05,-33.31 8.71,-33.42 7.18,-33.70 5.65,-33.98 4.22,-34.27 2.78,-34.56 1.41,-35.05 0.04,-35.54 -0.87,-36.12 -1.78,-36.71 -0.31,-36.17 1.14,-35.62 0.56,-34.47 -0.01,-33.32 -0.44,-32.23 -0.88,-31.13 -1.34,-30.07 -1.79,-29.02 -2.28,-27.82 -2.77,-26.63 -3.45,-25.47 -4.12,-24.31 -4.98,-23.03 -5.84,-21.75 -6.88,-20.44 -7.91,-19.14 -9.20,-18.21 -10.48,-17.27 -10.79,-17.31 -11.11,-17.35 -11.41,-17.46 -11.71,-17.58 -11.97,-17.76 -12.23,-17.94 -12.44,-18.18 -12.65,-18.42 -12.80,-18.70 -12.95,-18.98 -13.02,-19.29 -13.10,-19.60 -13.10,-19.92 -13.10,-20.24 -13.02,-20.55 -12.94,-20.86 -12.79,-21.14 -12.64,-21.42 -12.43,-21.66 -12.22,-21.90 -11.96,-22.08 -11.70,-22.26 -11.40,-22.37 -11.10,-22.48 -10.78,-22.52 -10.47,-22.56 -9.85,-22.59 -9.24,-22.62 -8.05,-22.57 -6.85,-22.52 -5.80,-22.33 -4.76,-22.13 -3.34,-21.96 -1.93,-21.78 -0.82,-21.58 0.29,-21.38 1.40,-21.13 2.51,-20.88 3.27,-19.40 4.04,-17.93 4.05,-16.67 4.06,-15.42 4.23,-13.87 4.40,-12.33 4.36,-11.00 4.32,-9.67 4.13,-8.10 3.95,-6.53 3.71,-5.04 3.48,-3.56 3.17,-2.37 2.87,-1.18 2.13,-0.31 1.39,0.55 1.30,0.71 1.22,0.87 1.09,1.00 0.97,1.14 0.82,1.24 0.67,1.34 0.50,1.40 0.33,1.46 0.15,1.48 -0.02,1.50 -0.20,1.47 -0.38,1.45 -0.55,1.38 -0.72,1.31 -0.86,1.21 -1.01,1.10 -1.13,0.96 -1.25,0.83 -1.33,0.66 -1.41,0.50 -1.45,0.33 -1.49,0.15 -1.49,-0.02 -1.48,-0.20 -1.44,-0.38 -1.39,-0.55 -1.39,-0.55 L -1.39,-0.55 Z"></path></g><g transform="translate(126.73680417147705 144.03680030125952) rotate(0 16.77574606592316 9.086867785241338)" stroke="none"><path fill="#000000" d="M 0.50,1.51 Q 0.50,1.51 -0.25,2.25 -1.01,2.99 -2.45,3.24 -3.88,3.49 -5.01,3.55 -6.13,3.61 -7.38,3.74 -8.63,3.88 -7.92,4.91 -7.22,5.95 -7.22,7.06 -7.22,8.17 -7.07,9.40 -6.92,10.62 -6.74,12.14 -6.56,13.66 -6.55,14.76 -6.54,15.86 -6.39,16.93 -6.23,18.00 -4.93,17.64 -3.63,17.29 -2.28,17.49 -0.94,17.69 0.33,17.86 1.61,18.02 2.71,18.21 3.81,18.39 4.92,18.40 6.03,18.42 7.32,18.42 8.61,18.43 9.95,18.57 11.29,18.71 12.44,18.74 13.59,18.77 14.86,18.77 16.12,18.77 17.26,18.77 18.39,18.77 19.48,18.77 20.57,18.76 21.93,18.76 23.28,18.76 24.62,18.76 25.96,18.76 27.06,18.76 28.17,18.75 29.51,18.76 30.86,18.76 31.93,18.90 33.00,19.05 34.46,19.33 35.91,19.62 37.03,19.54 38.15,19.45 39.39,19.46 40.62,19.46 40.71,18.04 40.81,16.62 40.80,15.42 40.80,14.22 40.79,12.83 40.79,11.45 40.79,10.33 40.79,9.22 40.78,7.83 40.78,6.43 40.61,5.32 40.45,4.21 40.43,3.11 40.42,2.00 41.17,3.07 41.91,4.14 40.76,4.18 39.61,4.23 38.28,4.44 36.94,4.64 35.73,4.68 34.51,4.72 33.32,4.49 32.13,4.26 31.08,3.38 30.04,2.50 29.54,1.50 29.03,0.50 29.24,-1.48 29.44,-3.46 29.45,-3.62 29.47,-3.78 29.52,-3.93 29.57,-4.08 29.66,-4.21 29.75,-4.34 29.87,-4.45 29.98,-4.55 30.12,-4.63 30.26,-4.71 30.41,-4.75 30.56,-4.79 30.72,-4.79 30.88,-4.80 31.04,-4.76 31.19,-4.73 31.33,-4.66 31.47,-4.59 31.59,-4.48 31.71,-4.38 31.81,-4.25 31.90,-4.12 31.96,-3.98 32.02,-3.83 32.04,-3.67 32.06,-3.52 31.35,-2.85 30.64,-2.18 30.43,-2.23 30.23,-2.29 30.05,-2.40 29.87,-2.52 29.74,-2.68 29.60,-2.85 29.53,-3.05 29.46,-3.25 29.45,-3.46 29.45,-3.67 29.51,-3.88 29.58,-4.08 29.70,-4.25 29.83,-4.42 30.00,-4.55 30.17,-4.67 30.38,-4.73 30.58,-4.79 30.79,-4.79 31.00,-4.78 31.20,-4.70 31.40,-4.63 31.57,-4.50 31.73,-4.36 31.85,-4.18 31.96,-4.00 32.01,-3.80 32.06,-3.59 32.04,-3.38 32.02,-3.17 31.94,-2.97 31.85,-2.78 31.71,-2.62 31.57,-2.46 31.38,-2.36 31.20,-2.26 30.99,-2.22 30.78,-2.18 30.57,-2.21 30.36,-2.24 30.17,-2.33 29.98,-2.43 29.83,-2.58 29.68,-2.73 29.59,-2.92 29.49,-3.11 29.47,-3.32 29.44,-3.53 29.48,-3.74 29.52,-3.95 29.63,-4.13 29.73,-4.32 29.89,-4.46 30.05,-4.60 30.24,-4.68 30.44,-4.77 29.94,-4.11 29.44,-3.46 29.45,-3.62 29.47,-3.78 29.52,-3.93 29.57,-4.08 29.66,-4.21 29.75,-4.34 29.87,-4.45 29.98,-4.55 30.12,-4.63 30.26,-4.71 30.41,-4.75 30.56,-4.79 30.72,-4.79 30.88,-4.80 31.04,-4.76 31.19,-4.73 31.33,-4.66 31.47,-4.59 31.59,-4.48 31.71,-4.38 31.81,-4.25 31.90,-4.13 31.96,-3.98 32.02,-3.83 32.04,-3.67 32.06,-3.52 33.64,-2.36 35.22,-1.20 36.39,-1.21 37.57,-1.22 39.19,-1.31 40.82,-1.39 41.95,-1.32 43.08,-1.25 44.10,-0.21 45.12,0.82 45.33,1.93 45.54,3.04 45.70,4.22 45.85,5.39 45.87,6.56 45.88,7.73 45.88,9.11 45.87,10.49 45.87,11.67 45.87,12.84 45.87,13.93 45.86,15.02 45.86,16.19 45.86,17.37 45.82,18.73 45.78,20.10 45.40,21.41 45.02,22.72 43.94,23.42 42.85,24.12 41.73,24.34 40.62,24.56 39.39,24.57 38.15,24.57 37.04,24.57 35.93,24.56 34.63,24.38 33.34,24.20 32.10,24.03 30.86,23.87 29.51,23.87 28.17,23.87 27.06,23.87 25.96,23.87 24.62,23.87 23.28,23.87 21.93,23.87 20.57,23.86 19.48,23.86 18.39,23.86 17.26,23.86 16.12,23.86 14.82,23.86 13.53,23.85 12.42,23.82 11.31,23.78 9.96,23.64 8.61,23.50 7.30,23.50 5.99,23.50 4.67,23.46 3.35,23.42 1.74,23.11 0.14,22.80 -1.13,22.75 -2.41,22.69 -3.57,22.46 -4.73,22.23 -5.97,22.11 -7.20,21.98 -8.58,21.58 -9.96,21.17 -10.59,19.82 -11.22,18.47 -11.42,16.79 -11.63,15.11 -11.65,13.90 -11.67,12.69 -11.83,11.59 -12.00,10.50 -12.17,8.95 -12.34,7.40 -12.35,6.19 -12.35,4.98 -12.32,3.62 -12.29,2.26 -11.24,0.66 -10.19,-0.93 -8.96,-1.23 -7.72,-1.53 -6.42,-1.53 -5.12,-1.54 -3.86,-1.66 -2.60,-1.78 -1.55,-1.65 -0.50,-1.51 -0.31,-1.55 -0.12,-1.59 0.06,-1.58 0.25,-1.57 0.44,-1.52 0.62,-1.47 0.79,-1.37 0.96,-1.27 1.10,-1.14 1.23,-1.01 1.34,-0.84 1.44,-0.68 1.50,-0.50 1.56,-0.31 1.58,-0.12 1.59,0.06 1.56,0.25 1.53,0.44 1.46,0.62 1.38,0.80 1.26,0.95 1.15,1.10 1.00,1.23 0.85,1.35 0.68,1.43 0.50,1.51 0.50,1.51 L 0.50,1.51 Z"></path></g></svg>