<svg version="1.1" xmlns="http://www.w3.org/2000/svg" viewBox="0 0 189.1666030883789 189.1666030883789" width="567.4998092651367" height="567.4998092651367">
  <!-- svg-source:excalidraw -->
  
  <defs>
    <style class="style-fonts">
      @font-face {
        font-family: "Virgil";
        src: url("https://excalidraw.com/Virgil.woff2");
      }
      @font-face {
        font-family: "Cascadia";
        src: url("https://excalidraw.com/Cascadia.woff2");
      }
    </style>
  </defs>
  <g stroke-linecap="round" transform="translate(10 10) rotate(0 84.58330154418945 84.58330154418945)"><path d="M1 1.35 C36.16 0, 74.26 0.87, 168.1 1.24 M-0.14 -0.65 C48.68 -1.08, 94.73 0.17, 169.88 -0.28 M167.28 0.66 C169.55 41.61, 170.83 86.65, 167.26 169.83 M168.86 0.28 C167.87 47.63, 168.47 94.49, 168.22 170.15 M170.16 167.18 C111.47 169.39, 49.11 167.99, -0.11 170.93 M169.04 168.52 C133.63 167.92, 99.04 169.29, 0.52 169.28 M-1.25 167.55 C-0.98 118.36, -1.05 69.8, -1.68 -0.19 M0.45 168.45 C0.52 125.34, 1.52 81.77, -0.65 -0.18" stroke="transparent" stroke-width="1" fill="none"></path></g><g transform="translate(54.01397162117519 59.6241788851338) rotate(0 -1.9610241599621077 12.011315058941193)" stroke="none"><path fill="#000000" d="M -0.19,1.39 Q -0.19,1.39 -1.25,1.77 -2.31,2.14 -3.79,2.33 -5.26,2.53 -6.48,3.09 -7.70,3.64 -8.42,4.73 -9.14,5.82 -9.70,7.22 -10.27,8.61 -10.40,9.81 -10.53,11.01 -10.31,12.41 -10.09,13.80 -9.59,15.16 -9.10,16.52 -8.36,17.83 -7.61,19.15 -6.70,19.85 -5.79,20.56 -4.44,21.20 -3.08,21.84 -1.11,22.02 0.85,22.20 2.35,21.42 3.86,20.65 4.73,19.48 5.60,18.31 5.83,17.15 6.05,16.00 6.32,14.93 6.58,13.85 6.60,12.66 6.62,11.47 6.52,10.41 6.42,9.34 6.01,8.30 5.60,7.26 5.06,5.78 4.51,4.31 3.32,2.99 2.12,1.67 0.94,1.77 -0.23,1.87 -1.47,1.91 -2.71,1.95 -5.21,2.29 -7.72,2.64 -7.93,2.68 -8.13,2.73 -8.35,2.71 -8.56,2.69 -8.75,2.60 -8.95,2.52 -9.10,2.37 -9.26,2.23 -9.36,2.04 -9.46,1.85 -9.50,1.64 -9.53,1.43 -9.50,1.22 -9.47,1.01 -9.37,0.83 -9.27,0.64 -9.12,0.49 -8.97,0.34 -8.78,0.25 -8.58,0.16 -8.37,0.13 -8.16,0.11 -7.95,0.15 -7.75,0.20 -7.56,0.30 -7.38,0.41 -7.24,0.57 -7.10,0.73 -7.02,0.93 -6.94,1.12 -6.93,1.34 -6.91,1.55 -6.97,1.75 -7.02,1.96 -7.14,2.14 -7.26,2.31 -7.42,2.44 -7.59,2.57 -7.79,2.64 -7.99,2.71 -8.21,2.72 -8.42,2.72 -8.62,2.65 -8.82,2.59 -8.99,2.46 -9.16,2.33 -9.28,2.16 -9.41,1.98 -9.46,1.78 -9.52,1.58 -9.51,1.36 -9.51,1.15 -9.43,0.95 -9.35,0.76 -9.22,0.59 -9.08,0.43 -8.90,0.32 -8.72,0.21 -8.72,0.21 -8.72,0.21 -7.26,-1.42 -5.81,-3.06 -4.28,-3.49 -2.76,-3.91 -1.45,-3.86 -0.13,-3.80 1.14,-3.73 2.43,-3.65 3.78,-3.21 5.14,-2.76 6.29,-1.71 7.45,-0.65 8.40,0.64 9.36,1.95 9.82,2.98 10.28,4.01 10.65,5.34 11.01,6.68 11.50,8.26 11.99,9.83 11.95,11.26 11.92,12.68 11.75,14.30 11.58,15.92 11.28,17.13 10.98,18.34 10.57,19.69 10.17,21.03 8.77,22.85 7.38,24.66 6.19,25.63 5.01,26.59 2.75,27.07 0.48,27.56 -0.84,27.46 -2.17,27.37 -3.63,27.09 -5.09,26.81 -7.18,25.72 -9.28,24.62 -10.61,23.40 -11.94,22.18 -12.90,20.49 -13.86,18.80 -14.54,16.87 -15.22,14.95 -15.49,12.82 -15.76,10.70 -15.52,8.88 -15.27,7.05 -14.42,5.05 -13.56,3.05 -12.68,1.78 -11.80,0.51 -10.23,-0.45 -8.66,-1.42 -7.60,-1.87 -6.54,-2.31 -5.18,-2.58 -3.82,-2.86 -2.72,-2.78 -1.62,-2.70 -0.71,-2.05 0.19,-1.39 0.36,-1.35 0.52,-1.31 0.67,-1.22 0.82,-1.14 0.95,-1.03 1.07,-0.91 1.17,-0.77 1.26,-0.63 1.32,-0.46 1.37,-0.30 1.39,-0.13 1.41,0.02 1.38,0.19 1.36,0.36 1.30,0.52 1.23,0.68 1.13,0.82 1.03,0.95 0.90,1.06 0.77,1.17 0.62,1.25 0.47,1.33 0.30,1.36 0.14,1.40 -0.02,1.40 -0.20,1.39 -0.19,1.39 L -0.19,1.39 Z"></path></g><g transform="translate(45.74208871531391 42.025984116961354) rotate(0 64.36043852859984 40.97688325966584)" stroke="none"><path fill="#000000" d="M -0.08,-1.34 Q -0.08,-1.34 1.80,-1.89 3.69,-2.44 5.57,-2.50 7.45,-2.56 10.19,-2.59 12.92,-2.62 15.91,-2.61 18.91,-2.60 21.56,-2.60 24.22,-2.59 26.96,-2.59 29.71,-2.59 32.18,-2.59 34.65,-2.59 35.95,-2.59 37.26,-2.59 39.86,-2.59 42.47,-2.59 43.96,-2.59 45.45,-2.59 47.49,-2.59 49.53,-2.59 50.66,-2.59 51.78,-2.59 54.05,-2.59 56.32,-2.59 57.54,-2.59 58.76,-2.59 60.76,-2.46 62.76,-2.33 64.94,-2.27 67.13,-2.22 68.20,-2.20 69.27,-2.17 71.07,-2.03 72.87,-1.89 73.98,-1.69 75.08,-1.48 76.60,-1.28 78.12,-1.08 80.33,-0.82 82.54,-0.57 84.97,-0.15 87.40,0.26 89.69,0.53 91.99,0.79 94.20,1.17 96.42,1.54 98.36,1.98 100.30,2.42 101.53,2.58 102.76,2.74 104.00,2.76 105.24,2.79 106.30,2.80 107.36,2.81 108.54,2.82 109.72,2.82 111.18,3.17 112.65,3.52 114.09,3.99 115.53,4.46 117.38,5.42 119.23,6.38 120.62,7.24 122.00,8.09 122.83,8.78 123.65,9.47 124.83,10.66 126.01,11.85 126.72,13.15 127.43,14.46 128.16,16.09 128.89,17.73 129.24,19.50 129.58,21.28 129.78,23.34 129.98,25.41 129.90,27.34 129.81,29.26 129.60,30.85 129.40,32.44 129.33,33.90 129.25,35.37 129.24,36.85 129.22,38.32 129.23,39.81 129.23,41.30 129.25,42.61 129.27,43.93 129.51,45.40 129.74,46.87 130.09,48.43 130.45,49.99 130.70,51.40 130.95,52.81 131.01,55.08 131.07,57.35 130.94,59.21 130.81,61.08 130.63,62.33 130.44,63.58 130.20,65.38 129.97,67.18 129.74,68.86 129.51,70.53 129.28,72.01 129.06,73.49 128.96,74.80 128.87,76.11 128.85,77.50 128.83,78.89 128.68,80.23 128.53,81.57 128.51,81.73 128.49,81.88 128.44,82.03 128.38,82.18 128.29,82.31 128.20,82.44 128.08,82.54 127.96,82.65 127.82,82.72 127.68,82.79 127.52,82.83 127.37,82.87 127.21,82.87 127.05,82.87 126.90,82.83 126.75,82.79 126.61,82.71 126.47,82.64 126.35,82.53 126.23,82.43 126.14,82.30 126.05,82.17 126.00,82.02 125.94,81.87 125.92,81.71 125.91,81.55 126.54,80.90 127.18,80.25 127.39,80.28 127.60,80.31 127.79,80.40 127.99,80.50 128.14,80.65 128.29,80.80 128.38,80.99 128.47,81.18 128.50,81.39 128.53,81.60 128.49,81.81 128.45,82.02 128.35,82.20 128.24,82.39 128.08,82.53 127.93,82.67 127.73,82.75 127.54,82.84 127.32,82.85 127.11,82.87 126.91,82.82 126.70,82.77 126.52,82.65 126.34,82.54 126.21,82.37 126.08,82.21 126.00,82.01 125.93,81.81 125.92,81.60 125.92,81.38 125.98,81.18 126.04,80.98 126.17,80.81 126.29,80.63 126.46,80.51 126.64,80.39 126.84,80.32 127.04,80.26 127.25,80.27 127.47,80.27 127.67,80.35 127.87,80.42 128.03,80.55 128.20,80.69 128.31,80.86 128.43,81.04 128.48,81.25 128.53,81.46 128.51,81.67 128.49,81.88 128.41,82.07 128.33,82.27 128.18,82.43 128.04,82.59 127.86,82.69 127.67,82.80 128.10,82.18 128.53,81.57 128.51,81.73 128.49,81.88 128.44,82.03 128.38,82.18 128.29,82.31 128.20,82.44 128.08,82.54 127.96,82.65 127.82,82.72 127.68,82.79 127.52,82.83 127.37,82.87 127.21,82.87 127.05,82.87 126.90,82.83 126.75,82.79 126.61,82.71 126.47,82.64 126.35,82.53 126.23,82.43 126.14,82.30 126.05,82.17 126.00,82.02 125.94,81.87 125.92,81.71 125.91,81.55 125.03,80.21 124.16,78.86 124.18,77.42 124.19,75.98 124.29,74.32 124.38,72.66 124.60,71.24 124.82,69.82 125.04,68.18 125.27,66.53 125.51,64.71 125.74,62.88 125.92,61.70 126.10,60.52 126.21,58.96 126.32,57.40 126.29,55.45 126.26,53.49 126.03,52.18 125.79,50.86 125.48,49.42 125.16,47.97 124.88,45.95 124.60,43.93 124.62,42.61 124.64,41.30 124.65,39.80 124.66,38.30 124.68,36.78 124.69,35.26 124.80,33.48 124.91,31.69 125.11,30.24 125.30,28.79 125.41,27.21 125.51,25.62 125.37,23.84 125.22,22.06 124.99,20.61 124.76,19.16 124.18,17.79 123.60,16.42 123.10,15.41 122.61,14.41 121.75,13.54 120.89,12.68 119.56,11.57 118.22,10.45 116.94,9.72 115.65,8.99 114.40,8.53 113.16,8.08 111.43,7.52 109.71,6.97 108.53,6.97 107.35,6.97 106.27,6.97 105.18,6.97 103.83,6.93 102.47,6.89 100.86,6.67 99.26,6.46 97.41,6.04 95.56,5.62 93.54,5.28 91.53,4.94 89.19,4.69 86.85,4.45 84.42,4.04 82.00,3.64 79.78,3.39 77.56,3.14 75.04,2.75 72.53,2.37 70.85,2.24 69.18,2.10 68.10,2.08 67.02,2.06 64.75,2.00 62.48,1.95 60.62,1.82 58.76,1.70 57.54,1.70 56.32,1.70 54.05,1.70 51.78,1.70 50.66,1.70 49.53,1.70 47.49,1.70 45.45,1.70 43.96,1.70 42.47,1.70 39.86,1.70 37.26,1.70 35.95,1.70 34.65,1.70 32.18,1.70 29.71,1.70 26.96,1.70 24.22,1.70 21.56,1.71 18.91,1.72 15.93,1.74 12.94,1.75 10.26,1.79 7.58,1.83 5.78,1.88 3.98,1.93 2.03,1.64 0.08,1.34 -0.07,1.33 -0.23,1.32 -0.39,1.28 -0.54,1.23 -0.68,1.15 -0.82,1.06 -0.94,0.95 -1.05,0.83 -1.14,0.70 -1.22,0.56 -1.27,0.40 -1.32,0.25 -1.33,0.08 -1.34,-0.07 -1.32,-0.23 -1.29,-0.39 -1.22,-0.54 -1.15,-0.69 -1.06,-0.82 -0.96,-0.94 -0.83,-1.05 -0.70,-1.15 -0.55,-1.21 -0.40,-1.28 -0.24,-1.31 -0.08,-1.34 -0.08,-1.34 L -0.08,-1.34 Z"></path></g><g transform="translate(51.53227521583267 40.24436631343349) rotate(0 43.426623031147756 54.33893523075602)" stroke="none"><path fill="#000000" d="M -0.13,1.35 Q -0.13,1.35 -2.72,1.43 -5.32,1.52 -6.42,1.54 -7.52,1.57 -8.81,1.59 -10.11,1.61 -11.46,1.74 -12.82,1.88 -14.29,2.07 -15.77,2.26 -17.33,2.59 -18.90,2.92 -20.07,3.32 -21.25,3.71 -22.19,4.35 -23.13,4.99 -24.17,5.69 -25.21,6.39 -26.07,7.24 -26.94,8.10 -28.16,9.94 -29.38,11.78 -29.88,13.18 -30.39,14.59 -30.83,16.41 -31.28,18.22 -31.56,20.27 -31.85,22.32 -31.95,24.42 -32.05,26.51 -32.19,28.64 -32.33,30.77 -32.71,32.96 -33.09,35.14 -33.32,37.44 -33.55,39.74 -33.64,42.07 -33.73,44.40 -33.86,47.10 -33.99,49.80 -34.18,51.69 -34.36,53.59 -34.46,56.27 -34.56,58.95 -34.57,61.19 -34.59,63.42 -34.47,65.22 -34.35,67.01 -34.15,68.64 -33.95,70.27 -33.85,72.25 -33.74,74.24 -33.73,75.56 -33.72,76.88 -33.58,78.49 -33.45,80.09 -33.35,81.66 -33.25,83.23 -33.04,84.67 -32.83,86.11 -32.60,87.34 -32.38,88.56 -32.08,90.00 -31.78,91.44 -31.29,92.60 -30.80,93.76 -29.78,94.64 -28.76,95.51 -27.78,96.24 -26.80,96.97 -25.48,98.11 -24.16,99.26 -22.84,99.93 -21.53,100.61 -19.93,101.16 -18.33,101.71 -16.53,102.38 -14.74,103.04 -12.84,103.34 -10.94,103.65 -9.05,103.27 -7.15,102.89 -4.23,102.97 -1.31,103.05 2.32,103.38 5.96,103.71 8.25,104.09 10.55,104.47 11.70,104.63 12.85,104.78 14.48,105.12 16.12,105.46 18.62,105.77 21.12,106.08 22.24,106.16 23.36,106.23 24.75,106.32 26.13,106.41 28.09,106.42 30.04,106.43 31.26,106.43 32.49,106.43 34.50,106.58 36.51,106.74 38.74,106.66 40.97,106.58 42.37,106.55 43.76,106.52 45.27,106.53 46.77,106.53 48.33,106.40 49.90,106.28 52.83,106.20 55.77,106.12 57.28,106.11 58.78,106.10 61.29,106.10 63.79,106.09 66.05,106.09 68.31,106.09 70.10,105.97 71.88,105.85 73.93,105.76 75.98,105.68 78.53,105.80 81.08,105.92 82.69,105.99 84.31,106.06 86.01,106.07 87.70,106.08 91.76,106.09 95.81,106.09 97.44,106.22 99.07,106.36 101.47,106.44 103.88,106.52 105.25,106.42 106.62,106.32 108.22,106.24 109.82,106.15 111.00,105.96 112.18,105.76 113.58,105.31 114.98,104.86 115.80,103.81 116.62,102.75 117.17,101.62 117.73,100.48 118.10,99.16 118.48,97.84 118.75,96.69 119.01,95.55 119.08,94.30 119.15,93.05 119.15,91.46 119.15,89.88 118.97,88.58 118.78,87.29 118.73,86.18 118.67,85.08 118.83,84.01 119.00,82.94 119.70,81.59 120.41,80.24 121.44,79.19 122.48,78.14 122.53,77.93 122.59,77.72 122.70,77.55 122.82,77.37 122.98,77.24 123.15,77.10 123.35,77.03 123.55,76.96 123.76,76.96 123.98,76.95 124.18,77.02 124.38,77.08 124.55,77.20 124.72,77.33 124.85,77.50 124.97,77.68 125.03,77.88 125.09,78.08 125.08,78.30 125.08,78.51 125.00,78.71 124.93,78.91 124.79,79.07 124.66,79.24 124.48,79.35 124.30,79.46 124.09,79.51 123.89,79.56 123.67,79.54 123.46,79.52 123.27,79.44 123.07,79.35 122.92,79.21 122.76,79.07 122.66,78.88 122.55,78.70 122.51,78.49 122.48,78.28 122.51,78.07 122.54,77.86 122.63,77.67 122.73,77.48 122.88,77.33 123.03,77.18 123.22,77.09 123.41,76.99 123.62,76.97 123.83,76.94 124.04,76.98 124.25,77.02 124.43,77.13 124.62,77.23 124.76,77.39 124.90,77.55 124.98,77.75 125.07,77.94 125.08,78.16 125.10,78.37 125.10,78.37 125.10,78.37 124.59,80.97 124.07,83.56 123.86,84.84 123.65,86.12 123.85,87.22 124.06,88.31 124.04,89.65 124.02,90.98 123.99,92.72 123.96,94.47 123.67,96.15 123.38,97.83 123.02,99.41 122.66,101.00 122.18,102.24 121.71,103.48 120.76,105.15 119.81,106.82 118.83,107.86 117.85,108.91 116.79,109.42 115.72,109.94 114.14,110.40 112.55,110.86 111.28,111.06 110.00,111.26 108.69,111.32 107.38,111.39 105.59,111.52 103.80,111.65 102.29,111.63 100.78,111.61 99.71,111.55 98.64,111.50 97.22,111.38 95.81,111.25 91.75,111.25 87.69,111.25 85.93,111.24 84.17,111.22 82.43,111.14 80.69,111.06 78.38,110.95 76.07,110.85 74.25,110.92 72.43,110.99 70.37,111.12 68.31,111.26 66.06,111.26 63.80,111.26 61.31,111.27 58.82,111.28 57.33,111.29 55.84,111.30 53.07,111.38 50.31,111.47 48.57,111.61 46.82,111.75 45.35,111.78 43.88,111.81 42.51,111.84 41.13,111.87 38.65,111.94 36.17,112.01 34.32,111.91 32.48,111.80 31.26,111.80 30.03,111.80 27.59,111.82 25.14,111.84 24.07,111.80 23.00,111.77 21.74,111.69 20.48,111.61 18.86,111.42 17.25,111.24 16.11,111.08 14.97,110.93 13.54,110.62 12.11,110.32 10.86,110.15 9.62,109.98 7.48,109.62 5.34,109.26 2.93,108.99 0.52,108.72 -0.56,108.67 -1.64,108.62 -4.25,108.53 -6.87,108.44 -8.03,108.44 -9.19,108.44 -10.31,108.55 -11.44,108.66 -13.87,108.25 -16.30,107.85 -18.08,107.19 -19.85,106.53 -21.86,105.82 -23.86,105.11 -25.73,104.05 -27.59,102.99 -28.72,102.01 -29.86,101.02 -31.49,99.70 -33.12,98.37 -34.46,96.70 -35.81,95.04 -36.39,93.19 -36.96,91.34 -37.12,90.14 -37.28,88.95 -37.50,87.71 -37.71,86.46 -37.89,84.93 -38.08,83.39 -38.13,82.03 -38.19,80.68 -38.33,78.80 -38.46,76.92 -38.47,75.63 -38.48,74.34 -38.56,72.65 -38.64,70.95 -38.85,69.23 -39.06,67.50 -39.19,65.45 -39.32,63.40 -39.30,61.13 -39.27,58.86 -39.23,57.07 -39.19,55.28 -39.10,54.20 -39.02,53.12 -38.83,51.28 -38.65,49.44 -38.49,46.88 -38.33,44.32 -38.22,41.79 -38.10,39.27 -37.83,36.89 -37.55,34.51 -37.15,32.41 -36.74,30.32 -36.59,28.36 -36.43,26.41 -36.31,24.07 -36.18,21.73 -35.82,19.45 -35.46,17.17 -34.95,15.22 -34.44,13.27 -34.01,12.01 -33.59,10.75 -32.69,9.24 -31.80,7.72 -30.85,6.41 -29.91,5.11 -29.01,4.22 -28.10,3.33 -26.83,2.44 -25.56,1.55 -24.22,0.69 -22.87,-0.17 -21.49,-0.64 -20.10,-1.10 -18.19,-1.51 -16.28,-1.91 -14.74,-2.09 -13.20,-2.27 -11.67,-2.40 -10.13,-2.52 -8.86,-2.52 -7.58,-2.52 -6.25,-2.53 -4.92,-2.54 -2.39,-1.95 0.13,-1.35 0.29,-1.31 0.45,-1.28 0.60,-1.20 0.74,-1.13 0.87,-1.03 0.99,-0.92 1.09,-0.79 1.19,-0.65 1.25,-0.50 1.31,-0.35 1.33,-0.19 1.36,-0.02 1.34,0.13 1.32,0.29 1.27,0.45 1.21,0.60 1.12,0.74 1.03,0.88 0.91,0.99 0.79,1.10 0.65,1.18 0.50,1.26 0.35,1.30 0.19,1.34 0.02,1.35 -0.13,1.35 -0.13,1.35 L -0.13,1.35 Z"></path></g><g transform="translate(14.30308089691971 129.24079464938495) rotate(0 38.73036742316208 -14.21747565473322)" stroke="none"><path fill="#000000" d="M -0.68,-1.23 Q -0.68,-1.23 0.32,-2.39 1.34,-3.55 3.79,-5.10 6.24,-6.65 7.41,-7.44 8.59,-8.23 11.70,-10.65 14.82,-13.07 16.30,-14.24 17.79,-15.42 20.23,-17.45 22.68,-19.49 23.93,-20.41 25.17,-21.33 26.93,-22.68 28.68,-24.02 30.62,-25.61 32.56,-27.20 34.07,-28.17 35.58,-29.13 36.62,-29.78 37.66,-30.43 38.71,-30.59 39.76,-30.75 41.69,-29.90 43.62,-29.05 45.45,-27.51 47.28,-25.97 48.71,-24.74 50.14,-23.51 51.83,-22.17 53.53,-20.84 55.43,-19.25 57.34,-17.65 59.86,-15.94 62.38,-14.23 64.65,-12.61 66.92,-10.99 68.96,-9.63 71.01,-8.26 72.48,-7.23 73.95,-6.20 75.06,-5.55 76.16,-4.89 77.07,-3.35 77.98,-1.80 78.18,-1.74 78.39,-1.69 78.56,-1.56 78.74,-1.44 78.86,-1.27 78.99,-1.10 79.05,-0.90 79.12,-0.70 79.12,-0.48 79.11,-0.27 79.04,-0.07 78.97,0.12 78.84,0.29 78.71,0.45 78.53,0.57 78.36,0.69 78.15,0.74 77.94,0.80 77.73,0.78 77.52,0.77 77.32,0.69 77.13,0.61 76.97,0.47 76.81,0.33 76.70,0.14 76.59,-0.03 76.55,-0.24 76.51,-0.45 76.53,-0.66 76.56,-0.87 76.65,-1.06 76.74,-1.25 76.89,-1.40 77.04,-1.56 77.23,-1.65 77.42,-1.75 77.63,-1.78 77.84,-1.81 78.05,-1.78 78.26,-1.74 78.44,-1.64 78.63,-1.54 78.77,-1.38 78.92,-1.22 79.00,-1.03 79.09,-0.84 79.11,-0.62 79.13,-0.41 79.08,-0.21 79.03,-0.00 78.92,0.17 78.81,0.35 78.65,0.49 78.48,0.62 78.28,0.70 78.08,0.78 77.87,0.78 77.66,0.79 77.66,0.79 77.66,0.79 75.48,0.32 73.30,-0.15 72.05,-0.92 70.79,-1.68 69.37,-2.68 67.95,-3.68 65.83,-5.09 63.70,-6.50 61.49,-8.10 59.28,-9.70 56.54,-11.59 53.81,-13.47 51.98,-15.03 50.15,-16.60 48.36,-18.04 46.57,-19.48 45.11,-20.81 43.65,-22.13 42.24,-23.44 40.82,-24.74 39.62,-24.89 38.43,-25.03 36.99,-24.10 35.56,-23.17 34.51,-22.39 33.47,-21.62 32.61,-20.81 31.76,-20.00 29.96,-18.63 28.17,-17.26 27.03,-16.43 25.90,-15.61 23.41,-13.54 20.92,-11.46 19.41,-10.27 17.90,-9.07 14.63,-6.57 11.36,-4.08 10.12,-3.26 8.87,-2.44 6.30,-0.85 3.73,0.73 2.20,0.98 0.68,1.23 0.52,1.30 0.37,1.36 0.20,1.39 0.03,1.41 -0.13,1.40 -0.30,1.38 -0.46,1.32 -0.62,1.27 -0.77,1.17 -0.91,1.08 -1.03,0.95 -1.14,0.83 -1.22,0.68 -1.31,0.53 -1.35,0.36 -1.40,0.20 -1.40,0.03 -1.41,-0.13 -1.37,-0.30 -1.33,-0.47 -1.26,-0.62 -1.18,-0.77 -1.07,-0.90 -0.96,-1.03 -0.82,-1.13 -0.68,-1.23 -0.68,-1.23 L -0.68,-1.23 Z"></path></g><g transform="translate(77.05607843796315 117.47460480516077) rotate(0 48.780669543255044 -15.197987734714218)" stroke="none"><path fill="#000000" d="M -0.78,-1.31 Q -0.78,-1.31 3.26,-4.14 7.31,-6.97 9.52,-8.33 11.73,-9.68 15.04,-11.82 18.35,-13.96 19.89,-15.00 21.43,-16.03 24.70,-17.84 27.97,-19.65 29.44,-20.50 30.91,-21.35 32.53,-22.30 34.16,-23.24 36.46,-24.50 38.76,-25.76 40.64,-27.02 42.53,-28.28 43.81,-29.26 45.09,-30.25 46.62,-31.39 48.14,-32.54 49.11,-33.50 50.08,-34.46 51.31,-35.29 52.54,-36.11 54.83,-35.49 57.12,-34.87 60.08,-33.45 63.04,-32.03 64.11,-31.38 65.17,-30.74 67.34,-29.35 69.51,-27.95 70.69,-26.99 71.86,-26.02 73.31,-24.81 74.76,-23.60 76.22,-22.39 77.67,-21.19 79.67,-19.34 81.67,-17.49 83.27,-16.12 84.86,-14.75 86.31,-13.42 87.75,-12.09 88.63,-11.19 89.51,-10.28 90.30,-9.47 91.10,-8.66 92.27,-7.54 93.44,-6.42 94.55,-5.08 95.66,-3.74 96.48,-2.70 97.29,-1.67 97.84,0.84 98.39,3.35 98.34,3.56 98.29,3.77 98.18,3.95 98.06,4.13 97.90,4.26 97.74,4.39 97.54,4.47 97.34,4.55 97.13,4.55 96.91,4.56 96.71,4.50 96.51,4.44 96.33,4.32 96.16,4.20 96.03,4.02 95.91,3.85 95.84,3.65 95.78,3.45 95.78,3.24 95.79,3.02 95.86,2.82 95.93,2.62 96.06,2.46 96.19,2.29 96.37,2.17 96.55,2.06 96.75,2.00 96.96,1.95 97.17,1.97 97.38,1.98 97.58,2.06 97.77,2.14 97.93,2.28 98.09,2.43 98.20,2.61 98.31,2.79 98.35,3.00 98.39,3.21 98.36,3.42 98.34,3.63 98.24,3.82 98.15,4.01 98.00,4.17 97.85,4.32 97.67,4.41 97.48,4.51 97.27,4.54 97.06,4.57 96.85,4.53 96.64,4.50 96.45,4.39 96.27,4.29 96.12,4.13 95.98,3.98 95.89,3.78 95.81,3.59 95.79,3.38 95.77,3.16 95.77,3.16 95.77,3.16 94.16,2.47 92.55,1.78 91.65,0.63 90.74,-0.52 89.89,-1.53 89.03,-2.53 87.98,-3.53 86.92,-4.53 86.10,-5.36 85.28,-6.19 84.36,-7.15 83.43,-8.12 82.16,-9.29 80.89,-10.47 79.26,-11.88 77.63,-13.29 75.78,-15.01 73.93,-16.73 72.47,-17.97 71.02,-19.21 69.61,-20.43 68.20,-21.65 67.30,-22.42 66.39,-23.20 64.33,-24.58 62.26,-25.96 61.32,-26.54 60.37,-27.11 57.68,-28.44 55.00,-29.77 54.05,-30.28 53.11,-30.79 52.18,-29.88 51.26,-28.96 49.63,-27.73 47.99,-26.49 46.59,-25.40 45.18,-24.31 43.18,-22.98 41.18,-21.65 38.86,-20.38 36.53,-19.10 34.91,-18.17 33.28,-17.25 31.75,-16.36 30.21,-15.47 27.08,-13.86 23.96,-12.25 22.37,-11.19 20.79,-10.13 17.42,-8.01 14.05,-5.90 11.82,-4.53 9.59,-3.17 5.19,-0.93 0.78,1.31 0.61,1.38 0.45,1.46 0.26,1.49 0.08,1.52 -0.09,1.51 -0.28,1.50 -0.45,1.44 -0.63,1.39 -0.79,1.29 -0.94,1.20 -1.07,1.07 -1.20,0.93 -1.30,0.78 -1.39,0.62 -1.45,0.44 -1.50,0.27 -1.51,0.08 -1.52,-0.09 -1.49,-0.27 -1.45,-0.46 -1.38,-0.62 -1.30,-0.79 -1.19,-0.94 -1.07,-1.08 -0.93,-1.19 -0.78,-1.31 -0.78,-1.31 L -0.78,-1.31 Z"></path></g></svg>