<svg version="1.1" xmlns="http://www.w3.org/2000/svg" viewBox="0 0 189.1666030883789 189.1666030883788" width="567.4998092651367" height="567.4998092651364">
  <!-- svg-source:excalidraw -->
  
  <defs>
    <style class="style-fonts">
      @font-face {
        font-family: "Virgil";
        src: url("https://excalidraw.com/Virgil.woff2");
      }
      @font-face {
        font-family: "Cascadia";
        src: url("https://excalidraw.com/Cascadia.woff2");
      }
    </style>
  </defs>
  <g stroke-linecap="round" transform="translate(10 10) rotate(0 84.58330154418945 84.5833015441894)"><path d="M0.82 1.59 C40.33 0.15, 80.69 -0.3, 168.21 -0.29 M-0.41 0.62 C66.54 -0.05, 133.15 -0.83, 169.01 0.36 M168.19 -1.16 C171.61 64.57, 169.12 130.41, 170.1 167.78 M168.42 0.14 C169.22 63.33, 168.29 125.99, 169.76 169.29 M170.31 168.73 C127.75 170.97, 88.16 170.04, -1.34 170.67 M170.11 170.12 C109.69 169.17, 50.11 169.42, -0.63 168.65 M0.21 169.66 C0.9 121.7, -1.42 73.29, 1.68 0.84 M0.16 169.45 C0.79 109.37, 1.99 51.87, -0.44 -0.55" stroke="transparent" stroke-width="1" fill="none"></path></g><g transform="translate(28.688214537068234 130.8748708583529) rotate(0 6.612753708759101 7.213903129971641)" stroke="none"><path fill="#000000" d="M 0.17,-1.38 Q 0.17,-1.38 1.60,-1.61 3.03,-1.85 4.42,-1.75 5.80,-1.66 7.04,-1.63 8.27,-1.61 9.42,-1.72 10.57,-1.83 11.83,-1.82 13.09,-1.81 13.94,-0.94 14.78,-0.06 14.99,1.42 15.20,2.91 15.34,4.23 15.49,5.54 15.51,6.82 15.54,8.09 15.69,9.50 15.83,10.91 15.98,12.21 16.12,13.52 15.63,14.49 15.14,15.46 13.79,16.08 12.44,16.70 10.98,16.96 9.52,17.23 8.29,17.28 7.05,17.34 5.68,17.35 4.30,17.35 2.97,17.45 1.64,17.54 -0.09,16.93 -1.84,16.32 -2.19,14.73 -2.55,13.15 -2.56,11.67 -2.57,10.18 -2.57,8.76 -2.58,7.33 -2.58,5.84 -2.58,4.34 -2.74,3.15 -2.89,1.96 -2.36,-0.06 -1.82,-2.09 -0.80,-2.54 0.21,-2.98 1.80,-1.94 3.38,-0.90 3.59,-0.94 3.80,-0.99 4.01,-0.96 4.22,-0.93 4.41,-0.84 4.60,-0.75 4.75,-0.60 4.91,-0.45 5.00,-0.26 5.10,-0.07 5.13,0.13 5.16,0.34 5.12,0.55 5.09,0.76 4.98,0.94 4.88,1.13 4.72,1.27 4.57,1.41 4.37,1.50 4.18,1.59 3.97,1.61 3.76,1.63 3.55,1.58 3.34,1.53 3.16,1.42 2.98,1.30 2.85,1.14 2.71,0.98 2.64,0.78 2.56,0.58 2.55,0.37 2.55,0.15 2.61,-0.04 2.67,-0.24 2.79,-0.42 2.91,-0.59 3.08,-0.72 3.25,-0.84 3.45,-0.91 3.66,-0.97 3.87,-0.97 4.08,-0.97 4.28,-0.90 4.48,-0.82 4.65,-0.69 4.82,-0.56 4.93,-0.38 5.05,-0.21 5.10,-0.00 5.16,0.19 5.14,0.41 5.13,0.62 5.04,0.81 4.96,1.01 4.82,1.17 4.68,1.33 4.50,1.44 4.32,1.54 4.32,1.54 4.32,1.54 3.29,1.59 2.26,1.63 2.42,2.99 2.58,4.34 2.58,5.46 2.57,6.57 2.57,7.78 2.57,8.99 2.58,10.16 2.58,11.33 2.60,12.58 2.61,13.84 1.64,13.19 0.66,12.54 2.19,12.32 3.73,12.10 4.99,12.10 6.25,12.10 7.62,12.07 8.99,12.05 10.19,12.22 11.39,12.38 11.27,11.32 11.15,10.26 11.02,9.21 10.88,8.15 10.84,6.51 10.81,4.88 10.61,3.71 10.41,2.54 9.32,2.67 8.24,2.81 6.93,2.79 5.63,2.77 4.06,2.65 2.49,2.54 1.15,1.96 -0.17,1.38 -0.33,1.34 -0.49,1.30 -0.64,1.22 -0.79,1.14 -0.92,1.03 -1.04,0.92 -1.14,0.78 -1.23,0.64 -1.29,0.48 -1.35,0.32 -1.37,0.16 -1.39,-0.00 -1.37,-0.17 -1.35,-0.33 -1.29,-0.49 -1.23,-0.65 -1.13,-0.79 -1.04,-0.92 -0.91,-1.03 -0.78,-1.15 -0.63,-1.22 -0.48,-1.30 -0.32,-1.34 -0.16,-1.38 0.00,-1.38 0.17,-1.38 0.17,-1.38 L 0.17,-1.38 Z"></path></g><g transform="translate(59.948452260659906 67.45264376049465) rotate(0 7.96536054562921 7.965346786200939)" stroke="none"><path fill="#000000" d="M 0.18,-1.39 Q 0.18,-1.39 1.55,-1.77 2.92,-2.16 4.44,-2.07 5.95,-1.98 7.05,-1.98 8.14,-1.97 9.48,-2.11 10.81,-2.24 12.04,-2.38 13.27,-2.52 15.17,-1.77 17.08,-1.01 17.52,-0.00 17.97,1.00 18.03,2.29 18.08,3.57 18.11,4.97 18.15,6.36 18.15,7.75 18.16,9.13 18.23,10.41 18.31,11.68 18.38,12.98 18.45,14.27 17.94,15.57 17.44,16.86 15.55,17.49 13.67,18.12 12.28,18.31 10.89,18.50 9.63,18.48 8.37,18.46 7.15,18.22 5.93,17.98 4.88,17.81 3.83,17.65 2.63,17.60 1.43,17.55 0.06,16.84 -1.31,16.12 -1.56,15.04 -1.80,13.97 -1.81,12.89 -1.82,11.81 -1.84,10.65 -1.86,9.50 -1.87,8.37 -1.89,7.24 -2.03,5.84 -2.17,4.44 -2.30,2.94 -2.44,1.44 -1.98,0.27 -1.52,-0.89 -0.45,-1.59 0.60,-2.28 3.33,-0.46 6.05,1.36 6.06,1.57 6.08,1.78 6.03,1.99 5.97,2.19 5.85,2.37 5.74,2.55 5.57,2.68 5.40,2.81 5.20,2.88 5.00,2.95 4.79,2.96 4.58,2.96 4.38,2.89 4.17,2.83 4.00,2.70 3.83,2.58 3.71,2.40 3.59,2.23 3.53,2.03 3.47,1.82 3.48,1.61 3.49,1.40 3.56,1.20 3.64,1.00 3.77,0.84 3.91,0.67 4.09,0.56 4.27,0.45 4.48,0.40 4.68,0.35 4.89,0.37 5.10,0.39 5.30,0.48 5.49,0.56 5.65,0.71 5.81,0.85 5.91,1.04 6.01,1.22 6.05,1.43 6.08,1.64 6.05,1.85 6.02,2.06 5.93,2.25 5.83,2.44 5.68,2.59 5.52,2.74 5.33,2.83 5.14,2.92 4.93,2.95 4.72,2.97 4.51,2.93 4.30,2.89 4.12,2.78 3.94,2.67 3.80,2.51 3.66,2.35 3.57,2.16 3.49,1.96 3.49,1.96 3.49,1.96 3.03,1.73 2.57,1.51 2.69,2.90 2.81,4.29 2.95,5.76 3.09,7.23 3.07,8.69 3.05,10.15 2.40,11.32 1.75,12.49 2.92,12.48 4.09,12.47 5.28,12.60 6.46,12.73 7.62,13.05 8.77,13.38 9.90,13.23 11.03,13.09 12.16,12.76 13.29,12.42 13.19,11.09 13.09,9.75 13.10,8.48 13.10,7.20 13.12,6.02 13.14,4.84 13.60,3.69 14.06,2.54 12.92,2.71 11.79,2.88 10.67,2.92 9.56,2.96 8.41,3.05 7.26,3.14 5.91,3.08 4.55,3.03 3.40,2.94 2.25,2.85 1.03,2.12 -0.18,1.39 -0.34,1.35 -0.51,1.30 -0.66,1.22 -0.81,1.14 -0.93,1.03 -1.06,0.91 -1.15,0.77 -1.25,0.63 -1.31,0.47 -1.36,0.32 -1.38,0.15 -1.40,-0.01 -1.38,-0.18 -1.36,-0.35 -1.29,-0.51 -1.23,-0.66 -1.13,-0.80 -1.04,-0.94 -0.91,-1.05 -0.78,-1.16 -0.63,-1.24 -0.48,-1.32 -0.31,-1.35 -0.15,-1.39 0.01,-1.39 0.18,-1.39 0.18,-1.39 L 0.18,-1.39 Z"></path></g><g transform="translate(122.76954369673422 113.74185092467008) rotate(0 6.913314659937441 6.7630341843484985)" stroke="none"><path fill="#000000" d="M 0.28,-1.32 Q 0.28,-1.32 1.61,-1.64 2.95,-1.96 4.18,-1.81 5.42,-1.67 7.16,-1.66 8.90,-1.65 10.02,-1.72 11.13,-1.79 12.31,-1.81 13.49,-1.84 13.78,-1.81 14.08,-1.79 14.36,-1.69 14.64,-1.60 14.88,-1.44 15.13,-1.28 15.34,-1.06 15.54,-0.85 15.68,-0.59 15.83,-0.34 15.91,-0.05 15.99,0.22 16.00,0.52 16.01,0.81 15.95,1.10 15.89,1.39 15.76,1.66 15.63,1.92 15.45,2.15 15.26,2.38 15.02,2.55 14.78,2.73 14.51,2.84 14.24,2.96 13.95,3.00 13.65,3.05 14.86,2.46 16.07,1.87 15.95,3.04 15.82,4.21 15.73,5.42 15.65,6.62 15.62,7.79 15.59,8.95 15.57,10.06 15.55,11.17 15.55,12.33 15.54,13.50 14.65,14.75 13.75,15.99 12.36,16.36 10.96,16.73 9.50,16.76 8.04,16.79 6.89,16.79 5.74,16.79 4.66,16.79 3.59,16.79 2.43,16.79 1.28,16.79 0.09,16.50 -1.09,16.20 -1.85,14.72 -2.61,13.23 -2.50,11.51 -2.40,9.78 -2.33,8.70 -2.26,7.61 -2.21,6.50 -2.16,5.38 -2.14,3.84 -2.11,2.31 -2.10,1.22 -2.08,0.12 -2.06,-0.25 -2.04,-0.64 -2.00,-0.92 -1.97,-1.20 -1.87,-1.46 -1.77,-1.73 -1.61,-1.96 -1.45,-2.19 -1.24,-2.38 -1.03,-2.57 -0.78,-2.70 -0.53,-2.83 -0.25,-2.90 0.01,-2.96 0.30,-2.96 0.58,-2.96 0.85,-2.89 1.13,-2.83 1.38,-2.70 1.63,-2.56 1.84,-2.38 2.05,-2.19 2.21,-1.96 2.37,-1.73 2.47,-1.46 2.57,-1.20 2.60,-0.92 2.64,-0.64 2.21,-0.75 1.79,-0.86 1.93,-0.79 2.07,-0.71 2.19,-0.60 2.30,-0.50 2.39,-0.36 2.48,-0.23 2.53,-0.08 2.59,0.06 2.60,0.21 2.62,0.37 2.60,0.53 2.57,0.68 2.52,0.83 2.46,0.98 2.36,1.11 2.27,1.24 2.15,1.34 2.03,1.44 1.89,1.51 1.75,1.58 1.60,1.62 1.44,1.65 1.28,1.65 1.12,1.65 0.97,1.61 0.82,1.57 0.70,1.50 0.58,1.44 0.42,1.30 0.27,1.15 0.16,0.96 0.06,0.78 0.03,0.57 -0.00,0.36 0.02,0.15 0.06,-0.05 0.15,-0.24 0.25,-0.43 0.41,-0.58 0.56,-0.72 0.75,-0.81 0.94,-0.91 1.15,-0.93 1.37,-0.95 1.57,-0.91 1.78,-0.87 1.96,-0.76 2.15,-0.65 2.29,-0.49 2.42,-0.33 2.50,-0.13 2.59,0.06 2.60,0.27 2.61,0.48 2.56,0.68 2.50,0.89 2.38,1.07 2.27,1.24 2.10,1.37 1.93,1.50 1.73,1.57 1.53,1.64 1.31,1.64 1.10,1.65 0.90,1.58 0.70,1.51 0.53,1.39 0.36,1.26 0.24,1.08 0.12,0.91 0.06,0.70 0.00,0.50 0.01,0.29 0.02,0.08 0.10,-0.11 0.17,-0.31 0.31,-0.47 0.45,-0.64 0.63,-0.75 0.81,-0.86 1.02,-0.91 1.22,-0.95 1.44,-0.93 1.65,-0.91 1.72,-0.89 1.79,-0.86 1.93,-0.79 2.07,-0.71 2.19,-0.60 2.30,-0.50 2.39,-0.36 2.48,-0.23 2.53,-0.08 2.59,0.06 2.60,0.21 2.62,0.37 2.60,0.53 2.57,0.68 2.52,0.83 2.46,0.98 2.36,1.11 2.27,1.24 2.15,1.34 2.03,1.44 1.89,1.51 1.75,1.58 1.60,1.62 1.44,1.65 1.28,1.65 1.12,1.65 0.97,1.61 0.82,1.57 0.35,1.72 -0.10,1.86 -1.07,0.61 -2.04,-0.64 -2.00,-0.92 -1.97,-1.20 -1.87,-1.46 -1.77,-1.73 -1.61,-1.96 -1.45,-2.19 -1.24,-2.38 -1.03,-2.56 -0.78,-2.70 -0.53,-2.83 -0.25,-2.90 0.01,-2.96 0.30,-2.96 0.58,-2.96 0.85,-2.90 1.13,-2.83 1.38,-2.70 1.63,-2.56 1.84,-2.38 2.05,-2.19 2.21,-1.96 2.37,-1.73 2.47,-1.46 2.57,-1.20 2.60,-0.92 2.64,-0.64 2.66,-0.25 2.68,0.12 2.70,1.22 2.71,2.31 2.73,3.86 2.76,5.41 2.79,6.56 2.81,7.72 2.79,8.99 2.76,10.26 2.10,11.40 1.44,12.53 0.00,12.50 -1.43,12.46 -0.07,11.96 1.28,11.45 2.43,11.45 3.59,11.45 4.66,11.45 5.74,11.45 6.88,11.45 8.02,11.44 9.16,11.95 10.30,12.45 10.30,11.20 10.30,9.95 10.32,8.83 10.34,7.71 10.52,6.29 10.69,4.87 10.85,3.31 11.01,1.75 12.25,-0.04 13.49,-1.84 13.78,-1.81 14.08,-1.79 14.36,-1.69 14.64,-1.60 14.88,-1.44 15.13,-1.28 15.34,-1.06 15.54,-0.85 15.68,-0.59 15.83,-0.34 15.91,-0.05 15.99,0.22 16.00,0.52 16.01,0.81 15.95,1.10 15.89,1.39 15.76,1.66 15.63,1.92 15.45,2.15 15.26,2.38 15.02,2.55 14.78,2.73 14.51,2.84 14.24,2.96 13.95,3.00 13.65,3.05 12.81,3.15 11.96,3.25 10.43,3.35 8.89,3.45 7.79,3.44 6.69,3.44 5.55,3.40 4.41,3.36 3.15,3.18 1.88,3.00 0.80,2.16 -0.28,1.32 -0.43,1.26 -0.59,1.21 -0.72,1.12 -0.86,1.03 -0.97,0.91 -1.08,0.80 -1.16,0.65 -1.24,0.51 -1.29,0.36 -1.33,0.20 -1.33,0.04 -1.34,-0.12 -1.31,-0.28 -1.27,-0.44 -1.20,-0.58 -1.13,-0.73 -1.03,-0.85 -0.92,-0.98 -0.79,-1.07 -0.66,-1.17 -0.51,-1.23 -0.36,-1.30 -0.20,-1.32 -0.04,-1.34 0.12,-1.33 0.28,-1.32 0.28,-1.32 L 0.28,-1.32 Z"></path></g><g transform="translate(147.71761618160053 40.70108173370693) rotate(0 7.063608894954541 8.416222611538274)" stroke="none"><path fill="#000000" d="M 0.25,-1.40 Q 0.25,-1.40 1.29,-1.73 2.33,-2.05 3.65,-1.96 4.97,-1.87 6.33,-1.86 7.70,-1.85 9.14,-1.71 10.58,-1.57 11.78,-1.51 12.97,-1.45 14.29,-0.55 15.61,0.35 15.92,1.65 16.23,2.95 16.27,4.18 16.31,5.41 16.34,6.85 16.36,8.29 16.50,9.83 16.64,11.38 16.67,12.59 16.71,13.80 16.52,14.99 16.32,16.17 14.78,17.35 13.24,18.52 11.95,18.82 10.66,19.12 9.41,19.35 8.16,19.57 7.05,19.60 5.94,19.62 4.76,19.62 3.58,19.61 2.29,19.61 0.99,19.61 -0.62,18.47 -2.23,17.32 -2.43,15.98 -2.63,14.64 -2.67,13.28 -2.71,11.93 -2.60,10.52 -2.50,9.11 -2.49,7.63 -2.49,6.15 -2.36,4.99 -2.23,3.83 -1.23,2.58 -0.23,1.34 -0.40,1.22 -0.58,1.10 -0.71,0.92 -0.83,0.75 -0.90,0.55 -0.96,0.35 -0.96,0.14 -0.96,-0.07 -0.89,-0.27 -0.82,-0.47 -0.69,-0.63 -0.56,-0.80 -0.38,-0.92 -0.20,-1.04 -0.00,-1.09 0.20,-1.15 0.41,-1.13 0.62,-1.12 0.82,-1.04 1.01,-0.96 1.17,-0.82 1.33,-0.68 1.44,-0.49 1.55,-0.31 1.59,-0.10 1.64,0.09 1.61,0.31 1.59,0.52 1.49,0.71 1.40,0.90 1.25,1.05 1.11,1.21 0.92,1.30 0.73,1.40 0.52,1.43 0.31,1.46 0.10,1.43 -0.10,1.39 -0.29,1.29 -0.47,1.19 -0.62,1.03 -0.76,0.88 -0.85,0.68 -0.94,0.49 -0.96,0.28 -0.98,0.07 -0.93,-0.13 -0.88,-0.34 -0.77,-0.52 -0.66,-0.70 -0.49,-0.84 -0.33,-0.97 -0.13,-1.05 0.06,-1.12 0.27,-1.13 0.48,-1.14 0.68,-1.08 0.89,-1.02 0.89,-1.02 0.89,-1.02 2.13,0.98 3.36,3.00 3.22,4.60 3.08,6.19 3.06,7.35 3.04,8.52 2.96,9.84 2.88,11.16 2.80,12.24 2.71,13.32 2.73,14.83 2.74,16.34 1.87,15.19 0.99,14.04 2.28,14.04 3.57,14.04 4.73,14.03 5.90,14.02 7.26,13.99 8.63,13.95 10.09,14.15 11.54,14.34 11.52,13.05 11.50,11.76 11.38,10.58 11.27,9.40 11.29,8.02 11.31,6.63 11.32,5.46 11.33,4.29 11.45,2.87 11.57,1.45 12.43,2.35 13.28,3.26 12.18,3.26 11.08,3.26 9.98,3.15 8.87,3.05 7.78,3.05 6.70,3.06 5.37,3.03 4.04,3.01 2.75,2.87 1.46,2.74 0.60,2.07 -0.25,1.40 -0.42,1.35 -0.58,1.30 -0.73,1.21 -0.88,1.12 -1.00,1.00 -1.12,0.88 -1.21,0.73 -1.30,0.58 -1.35,0.42 -1.40,0.25 -1.41,0.08 -1.42,-0.08 -1.39,-0.25 -1.36,-0.42 -1.29,-0.58 -1.22,-0.73 -1.12,-0.87 -1.01,-1.01 -0.87,-1.11 -0.74,-1.22 -0.58,-1.29 -0.42,-1.36 -0.25,-1.39 -0.08,-1.42 0.08,-1.41 0.25,-1.40 0.25,-1.40 L 0.25,-1.40 Z"></path></g><g transform="translate(38.60733134077873 128.47023189521963) rotate(0 12.173461531827343 -22.393153046144334)" stroke="none"><path fill="#000000" d="M -1.25,-0.74 Q -1.25,-0.74 -0.66,-2.36 -0.06,-3.99 1.02,-5.62 2.11,-7.25 3.46,-9.01 4.81,-10.77 6.32,-13.14 7.84,-15.50 9.16,-17.71 10.48,-19.91 11.60,-21.89 12.72,-23.87 13.43,-25.29 14.15,-26.71 15.05,-28.54 15.95,-30.38 16.64,-31.77 17.33,-33.16 17.93,-34.55 18.52,-35.94 19.11,-37.24 19.71,-38.55 20.03,-39.65 20.34,-40.75 21.70,-42.94 23.05,-45.13 23.17,-45.30 23.29,-45.47 23.46,-45.60 23.63,-45.73 23.84,-45.79 24.04,-45.86 24.25,-45.86 24.46,-45.86 24.66,-45.79 24.86,-45.72 25.03,-45.59 25.20,-45.46 25.32,-45.28 25.44,-45.10 25.49,-44.90 25.55,-44.69 25.53,-44.48 25.52,-44.27 25.44,-44.07 25.36,-43.87 25.22,-43.71 25.08,-43.55 24.90,-43.45 24.71,-43.34 24.50,-43.29 24.30,-43.25 24.09,-43.28 23.87,-43.30 23.68,-43.39 23.49,-43.48 23.34,-43.63 23.18,-43.78 23.09,-43.97 22.99,-44.16 22.96,-44.37 22.92,-44.58 22.96,-44.78 23.00,-44.99 23.10,-45.18 23.20,-45.37 23.36,-45.51 23.51,-45.66 23.71,-45.74 23.90,-45.83 24.11,-45.85 24.32,-45.87 24.53,-45.83 24.74,-45.78 24.92,-45.67 25.10,-45.55 25.23,-45.39 25.37,-45.23 25.45,-45.03 25.52,-44.83 25.53,-44.62 25.54,-44.41 25.48,-44.20 25.42,-44.00 25.42,-44.00 25.42,-44.00 24.92,-41.87 24.42,-39.73 24.02,-38.37 23.62,-37.00 22.97,-35.58 22.32,-34.16 21.75,-32.83 21.18,-31.50 20.48,-30.09 19.78,-28.68 18.83,-26.74 17.88,-24.81 17.09,-23.26 16.30,-21.71 15.21,-19.78 14.12,-17.85 12.76,-15.58 11.40,-13.30 9.76,-10.76 8.12,-8.22 6.85,-6.57 5.57,-4.92 4.55,-3.40 3.52,-1.88 2.39,-0.57 1.25,0.74 1.15,0.88 1.04,1.02 0.90,1.13 0.77,1.24 0.61,1.31 0.45,1.38 0.27,1.42 0.10,1.45 -0.07,1.44 -0.24,1.44 -0.41,1.38 -0.58,1.33 -0.73,1.25 -0.88,1.16 -1.01,1.03 -1.13,0.91 -1.23,0.76 -1.32,0.61 -1.37,0.44 -1.43,0.28 -1.44,0.10 -1.45,-0.07 -1.42,-0.24 -1.40,-0.41 -1.32,-0.57 -1.25,-0.74 -1.25,-0.74 L -1.25,-0.74 Z"></path></g><g transform="translate(76.78091124316506 82.48159944165002) rotate(0 23.59546564799666 16.68215098805956)" stroke="none"><path fill="#000000" d="M 0.88,-1.20 Q 0.88,-1.20 3.12,-0.06 5.36,1.06 6.85,2.20 8.35,3.34 9.64,4.46 10.93,5.59 12.11,6.52 13.28,7.45 14.98,8.44 16.68,9.42 18.31,10.39 19.95,11.37 21.62,12.39 23.28,13.41 25.07,14.41 26.86,15.42 28.46,16.27 30.07,17.12 31.51,17.93 32.94,18.75 34.20,19.55 35.45,20.35 36.35,20.95 37.24,21.55 39.10,23.14 40.95,24.74 41.80,25.67 42.65,26.60 43.69,27.56 44.74,28.53 45.99,30.43 47.24,32.34 47.35,32.45 47.45,32.57 47.53,32.70 47.61,32.84 47.65,32.99 47.70,33.15 47.70,33.31 47.71,33.46 47.67,33.62 47.64,33.77 47.57,33.92 47.50,34.06 47.40,34.18 47.30,34.30 47.17,34.40 47.04,34.49 46.90,34.55 46.75,34.61 46.60,34.63 46.44,34.66 46.28,34.64 46.12,34.63 45.97,34.58 45.82,34.53 45.69,34.44 45.56,34.36 45.84,34.49 46.12,34.63 45.92,34.55 45.73,34.48 45.56,34.34 45.40,34.20 45.29,34.02 45.18,33.84 45.13,33.63 45.09,33.42 45.11,33.21 45.13,33.00 45.22,32.81 45.31,32.62 45.45,32.46 45.60,32.31 45.78,32.20 45.97,32.10 46.18,32.07 46.39,32.03 46.60,32.07 46.81,32.10 47.00,32.20 47.19,32.30 47.33,32.45 47.48,32.60 47.57,32.80 47.66,32.99 47.69,33.20 47.71,33.41 47.66,33.62 47.62,33.83 47.51,34.01 47.40,34.19 47.24,34.33 47.08,34.47 46.88,34.55 46.69,34.63 46.47,34.64 46.26,34.65 46.06,34.60 45.85,34.54 45.68,34.42 45.50,34.30 45.37,34.14 45.24,33.97 45.17,33.77 45.10,33.57 45.10,33.35 45.10,33.14 45.17,32.94 45.23,32.74 45.36,32.57 45.49,32.40 45.66,32.28 45.84,32.16 46.04,32.10 46.25,32.04 46.74,32.19 47.24,32.34 47.35,32.45 47.45,32.57 47.53,32.70 47.61,32.84 47.65,32.99 47.70,33.15 47.70,33.30 47.71,33.46 47.67,33.62 47.64,33.77 47.57,33.92 47.50,34.06 47.40,34.18 47.30,34.30 47.17,34.40 47.04,34.49 46.90,34.55 46.75,34.61 46.60,34.63 46.44,34.66 46.28,34.64 46.12,34.63 45.97,34.58 45.82,34.53 45.69,34.44 45.56,34.36 43.23,33.44 40.91,32.52 39.73,31.41 38.55,30.30 37.10,28.72 35.65,27.15 34.10,26.00 32.54,24.85 31.41,24.10 30.27,23.35 28.93,22.56 27.59,21.77 25.92,20.87 24.26,19.97 22.40,18.89 20.54,17.81 18.91,16.78 17.29,15.76 15.66,14.75 14.03,13.74 12.11,12.51 10.18,11.28 8.94,10.25 7.69,9.21 6.54,8.16 5.39,7.10 3.99,5.95 2.58,4.81 0.85,3.00 -0.88,1.20 -1.01,1.07 -1.14,0.95 -1.24,0.80 -1.34,0.65 -1.40,0.48 -1.46,0.31 -1.47,0.13 -1.49,-0.04 -1.46,-0.22 -1.43,-0.40 -1.36,-0.57 -1.29,-0.73 -1.19,-0.88 -1.08,-1.02 -0.94,-1.14 -0.80,-1.25 -0.64,-1.33 -0.48,-1.41 -0.30,-1.45 -0.13,-1.48 0.04,-1.48 0.22,-1.47 0.40,-1.42 0.57,-1.37 0.73,-1.29 0.88,-1.20 0.88,-1.20 L 0.88,-1.20 Z"></path></g><g transform="translate(152.52689410786752 59.03641426924207) rotate(0 -9.919116803711404 29.00590675490389)" stroke="none"><path fill="#000000" d="M 1.36,0.59 Q 1.36,0.59 1.09,2.12 0.82,3.65 0.26,5.29 -0.28,6.93 -0.76,8.64 -1.24,10.35 -1.80,12.52 -2.35,14.70 -2.84,16.52 -3.33,18.35 -3.63,20.01 -3.94,21.67 -4.36,23.36 -4.79,25.05 -5.24,26.70 -5.69,28.35 -5.99,29.79 -6.29,31.23 -6.71,32.76 -7.12,34.30 -7.64,35.99 -8.16,37.68 -8.63,38.91 -9.10,40.13 -9.55,41.14 -10.00,42.15 -10.36,43.21 -10.73,44.27 -11.16,45.38 -11.60,46.49 -12.10,47.52 -12.60,48.56 -13.23,49.85 -13.86,51.15 -14.41,52.44 -14.97,53.73 -16.98,56.37 -18.99,59.02 -19.18,59.11 -19.37,59.21 -19.58,59.24 -19.79,59.27 -20.00,59.23 -20.21,59.19 -20.40,59.09 -20.58,58.98 -20.72,58.82 -20.87,58.67 -20.95,58.47 -21.04,58.28 -21.05,58.07 -21.07,57.85 -21.02,57.65 -20.97,57.44 -20.86,57.26 -20.74,57.08 -20.58,56.95 -20.41,56.81 -20.21,56.74 -20.01,56.67 -19.80,56.66 -19.59,56.65 -19.39,56.71 -19.18,56.78 -19.01,56.90 -18.84,57.02 -18.71,57.19 -18.59,57.37 -18.52,57.57 -18.46,57.77 -18.47,57.99 -18.47,58.20 -18.54,58.40 -18.62,58.60 -18.75,58.76 -18.88,58.93 -19.06,59.04 -19.24,59.16 -19.44,59.21 -19.65,59.26 -19.86,59.25 -20.07,59.23 -20.27,59.15 -20.46,59.06 -20.62,58.92 -20.78,58.78 -20.89,58.60 -20.99,58.41 -21.03,58.20 -21.07,58.00 -21.05,57.79 -21.02,57.57 -20.93,57.38 -20.83,57.19 -20.68,57.04 -20.53,56.89 -20.53,56.89 -20.53,56.89 -20.49,54.98 -20.44,53.08 -19.96,51.88 -19.49,50.67 -18.64,48.98 -17.78,47.29 -17.14,45.98 -16.50,44.66 -16.04,43.62 -15.58,42.58 -15.11,41.29 -14.63,40.00 -14.08,38.73 -13.53,37.46 -13.01,36.23 -12.49,35.00 -12.16,33.87 -11.82,32.75 -11.45,31.46 -11.09,30.16 -10.73,28.64 -10.38,27.11 -9.94,25.55 -9.49,23.98 -9.06,22.35 -8.62,20.73 -8.25,19.00 -7.88,17.28 -7.35,15.36 -6.82,13.44 -6.23,11.25 -5.64,9.07 -5.09,7.25 -4.54,5.43 -3.89,3.65 -3.24,1.87 -2.30,0.63 -1.36,-0.59 -1.27,-0.75 -1.18,-0.90 -1.05,-1.03 -0.93,-1.16 -0.78,-1.26 -0.62,-1.35 -0.45,-1.41 -0.28,-1.46 -0.10,-1.47 0.07,-1.49 0.25,-1.46 0.42,-1.43 0.59,-1.35 0.75,-1.28 0.90,-1.17 1.04,-1.06 1.15,-0.92 1.27,-0.78 1.34,-0.62 1.42,-0.45 1.45,-0.28 1.49,-0.10 1.48,0.07 1.47,0.25 1.42,0.42 1.36,0.59 1.36,0.59 L 1.36,0.59 Z"></path></g><g transform="translate(146.7908820428438 41.40103317874684) rotate(0 0.05517959027247343 3.366162144790337)" stroke="none"><path fill="#000000" d="M 1.47,0 Q 1.47,0 1.71,0.92 1.95,1.84 1.69,4.28 1.42,6.72 1.39,6.93 1.35,7.14 1.26,7.33 1.16,7.52 1.01,7.67 0.86,7.81 0.67,7.91 0.47,8.00 0.26,8.02 0.05,8.05 -0.15,8.01 -0.35,7.97 -0.54,7.86 -0.72,7.75 -0.86,7.59 -1.00,7.43 -1.08,7.24 -1.16,7.04 -1.18,6.83 -1.19,6.62 -1.14,6.41 -1.09,6.21 -0.97,6.03 -0.85,5.85 -0.69,5.72 -0.52,5.59 -0.32,5.52 -0.12,5.45 0.08,5.44 0.30,5.44 0.50,5.50 0.70,5.57 0.87,5.70 1.04,5.82 1.17,6.00 1.29,6.17 1.35,6.37 1.41,6.58 1.40,6.79 1.39,7.00 1.31,7.20 1.24,7.40 1.10,7.56 0.97,7.73 0.79,7.84 0.61,7.95 0.40,8.00 0.19,8.05 -0.01,8.03 -0.22,8.01 -0.41,7.92 -0.61,7.84 -0.76,7.69 -0.92,7.55 -1.02,7.36 -1.12,7.18 -1.16,6.97 -1.20,6.76 -1.20,6.76 -1.20,6.76 -1.58,4.30 -1.95,1.84 -1.71,0.92 -1.47,0 -1.45,-0.17 -1.42,-0.35 -1.36,-0.51 -1.30,-0.68 -1.20,-0.83 -1.10,-0.97 -0.96,-1.09 -0.83,-1.21 -0.67,-1.29 -0.52,-1.37 -0.34,-1.41 -0.17,-1.46 0.00,-1.46 0.17,-1.46 0.34,-1.41 0.52,-1.37 0.67,-1.29 0.83,-1.21 0.96,-1.09 1.10,-0.97 1.20,-0.83 1.30,-0.68 1.36,-0.51 1.42,-0.35 1.45,-0.17 1.47,0.00 1.47,0.00 L 1.47,0 Z"></path></g></svg>