<svg version="1.1" xmlns="http://www.w3.org/2000/svg" viewBox="0 0 189.1666030883789 189.1666030883789" width="567.4998092651367" height="567.4998092651367">
  <!-- svg-source:excalidraw -->
  
  <defs>
    <style class="style-fonts">
      @font-face {
        font-family: "Virgil";
        src: url("https://excalidraw.com/Virgil.woff2");
      }
      @font-face {
        font-family: "Cascadia";
        src: url("https://excalidraw.com/Cascadia.woff2");
      }
    </style>
  </defs>
  <g stroke-linecap="round" transform="translate(10 10) rotate(0 84.58330154418945 84.58330154418945)"><path d="M-0.02 -1.65 C34 0.88, 70.39 3.17, 167.96 1.45 M0.47 0.9 C34.56 -1.79, 69.63 -0.86, 170.02 -0.07 M170.3 -0.14 C169.34 42.03, 167.9 85.92, 170.88 169.58 M169.96 -0.54 C168.03 45.57, 168.37 92.78, 168.42 168.46 M167.45 168.84 C135.52 171.08, 97.49 170.43, -0.88 170.13 M168.52 169.04 C130.35 169.22, 92.89 170.45, 0.42 168.6 M-0.37 171.09 C0.52 132.9, 0.82 94.66, -0.92 -0.27 M0.11 169.47 C-1.24 130.93, -1.58 92.08, -0.97 -0.12" stroke="transparent" stroke-width="1" fill="none"></path></g><g transform="translate(154.21084121257263 131.1361795281116) rotate(0 9.273008075598682 10.351257482172628)" stroke="none"><path fill="#000000" d="M 0.12,-1.47 Q 0.12,-1.47 1.65,-1.82 3.17,-2.18 4.64,-2.05 6.10,-1.92 7.65,-1.70 9.20,-1.48 10.39,-1.33 11.58,-1.17 12.71,-1.06 13.83,-0.95 15.05,-0.80 16.26,-0.66 17.46,-0.17 18.65,0.31 19.62,1.60 20.59,2.89 20.61,4.21 20.63,5.54 20.66,7.17 20.68,8.81 20.61,10.16 20.54,11.51 20.52,12.88 20.51,14.24 20.42,15.78 20.33,17.32 20.32,18.48 20.30,19.63 19.25,21.11 18.19,22.59 16.60,22.66 15.01,22.73 13.95,22.73 12.88,22.73 11.74,22.75 10.60,22.78 9.27,22.62 7.95,22.45 6.42,22.39 4.90,22.33 3.69,22.33 2.48,22.33 1.42,22.23 0.36,22.13 -0.67,21.49 -1.70,20.85 -2.04,19.61 -2.37,18.38 -2.35,16.69 -2.32,15.01 -2.19,13.83 -2.07,12.65 -1.88,11.41 -1.69,10.16 -1.56,9.07 -1.43,7.98 -1.42,6.55 -1.42,5.11 -1.51,3.64 -1.59,2.17 0.09,1.74 1.78,1.31 1.74,1.16 1.70,1.01 1.69,0.85 1.68,0.69 1.71,0.54 1.74,0.38 1.81,0.24 1.88,0.10 1.98,-0.02 2.08,-0.14 2.21,-0.23 2.33,-0.33 2.48,-0.39 2.62,-0.46 2.78,-0.48 2.94,-0.51 3.09,-0.49 3.25,-0.48 3.40,-0.43 3.55,-0.38 3.69,-0.30 3.82,-0.21 3.93,-0.10 4.04,0.00 4.12,0.14 4.20,0.28 4.25,0.52 4.30,0.77 4.27,0.98 4.24,1.19 4.15,1.38 4.05,1.57 3.90,1.72 3.75,1.87 3.56,1.96 3.37,2.05 3.16,2.08 2.95,2.11 2.74,2.07 2.53,2.03 2.35,1.92 2.16,1.81 2.02,1.66 1.88,1.50 1.80,1.30 1.72,1.10 1.70,0.89 1.68,0.68 1.74,0.48 1.79,0.27 1.90,0.09 2.02,-0.08 2.19,-0.21 2.35,-0.34 2.55,-0.41 2.75,-0.49 2.96,-0.49 3.18,-0.49 3.38,-0.43 3.58,-0.37 3.75,-0.24 3.93,-0.12 4.05,0.05 4.17,0.22 4.23,0.42 4.29,0.63 4.29,0.84 4.28,1.05 4.21,1.25 4.13,1.45 4.00,1.61 3.86,1.78 3.68,1.89 3.50,2.01 3.30,2.06 3.09,2.11 2.88,2.09 2.67,2.07 2.47,1.98 2.28,1.90 2.12,1.75 1.96,1.61 1.86,1.43 1.76,1.24 1.77,1.28 1.78,1.31 1.74,1.16 1.70,1.01 1.69,0.85 1.68,0.69 1.71,0.54 1.74,0.38 1.81,0.24 1.88,0.10 1.98,-0.02 2.08,-0.14 2.21,-0.23 2.33,-0.33 2.48,-0.39 2.62,-0.46 2.78,-0.48 2.94,-0.51 3.09,-0.49 3.25,-0.48 3.40,-0.43 3.55,-0.38 3.69,-0.30 3.82,-0.21 3.93,-0.10 4.04,0.00 4.12,0.14 4.20,0.28 3.62,0.08 3.04,-0.11 3.22,0.95 3.39,2.02 3.48,3.15 3.57,4.28 3.56,5.74 3.55,7.20 3.45,8.55 3.35,9.90 3.11,11.02 2.87,12.15 2.75,13.43 2.63,14.71 2.11,15.99 1.59,17.27 2.71,17.31 3.83,17.34 5.10,17.36 6.38,17.37 7.46,17.40 8.54,17.44 9.64,17.59 10.74,17.75 11.85,17.79 12.96,17.82 14.20,17.90 15.44,17.98 16.73,18.15 18.03,18.31 16.98,18.96 15.93,19.61 15.94,18.37 15.96,17.13 16.06,16.04 16.15,14.96 16.17,13.84 16.18,12.73 16.28,11.58 16.38,10.43 16.41,8.63 16.43,6.83 16.27,5.24 16.11,3.66 14.95,3.59 13.78,3.52 12.31,3.54 10.84,3.55 9.63,3.46 8.43,3.36 6.98,3.16 5.53,2.96 4.15,2.82 2.77,2.67 1.32,2.07 -0.12,1.47 -0.29,1.43 -0.47,1.39 -0.63,1.32 -0.79,1.24 -0.92,1.13 -1.06,1.01 -1.17,0.87 -1.28,0.73 -1.34,0.57 -1.41,0.40 -1.44,0.23 -1.47,0.05 -1.46,-0.12 -1.44,-0.29 -1.38,-0.46 -1.33,-0.63 -1.23,-0.78 -1.14,-0.93 -1.01,-1.05 -0.88,-1.18 -0.72,-1.27 -0.57,-1.35 -0.40,-1.40 -0.23,-1.45 -0.05,-1.46 0.12,-1.47 0.12,-1.47 L 0.12,-1.47 Z"></path></g><g transform="translate(14.253227168002013 131.56748521377813) rotate(0 9.488646110839 9.704303889536845)" stroke="none"><path fill="#000000" d="M 0.10,-1.34 Q 0.10,-1.34 1.75,-1.75 3.40,-2.16 4.79,-2.09 6.17,-2.02 7.87,-1.95 9.57,-1.89 11.38,-1.80 13.19,-1.71 14.64,-1.67 16.09,-1.63 17.19,-1.69 18.30,-1.75 19.56,-0.98 20.82,-0.21 20.91,0.89 21.00,2.01 20.91,3.68 20.83,5.35 20.78,6.55 20.74,7.76 20.74,9.28 20.74,10.79 20.74,12.27 20.74,13.75 20.85,14.98 20.96,16.21 21.04,17.37 21.12,18.52 20.42,19.70 19.71,20.87 18.50,21.08 17.29,21.28 15.95,21.30 14.61,21.33 13.30,21.34 11.99,21.35 10.70,21.46 9.41,21.56 8.19,21.57 6.97,21.58 5.85,21.70 4.74,21.83 3.40,21.67 2.07,21.52 0.48,20.78 -1.10,20.04 -1.33,18.81 -1.56,17.58 -1.68,16.39 -1.81,15.21 -1.85,13.64 -1.90,12.07 -2.07,10.66 -2.23,9.25 -2.31,7.91 -2.38,6.57 -2.39,5.46 -2.40,4.35 -2.39,3.18 -2.39,2.01 -1.57,0.34 -0.74,-1.32 1.82,-0.67 4.38,-0.02 4.52,0.12 4.67,0.28 4.76,0.47 4.85,0.66 4.87,0.87 4.90,1.09 4.85,1.29 4.80,1.50 4.70,1.68 4.59,1.86 4.42,2.00 4.26,2.14 4.06,2.22 3.87,2.30 3.66,2.31 3.44,2.32 3.24,2.26 3.03,2.21 2.86,2.09 2.68,1.97 2.55,1.80 2.42,1.63 2.36,1.43 2.29,1.23 2.29,1.02 2.29,0.80 2.36,0.60 2.42,0.40 2.55,0.23 2.68,0.06 2.86,-0.05 3.03,-0.17 3.24,-0.22 3.44,-0.28 3.65,-0.27 3.87,-0.26 4.06,-0.18 4.26,-0.10 4.42,0.03 4.58,0.16 4.69,0.35 4.80,0.53 4.85,0.74 4.90,0.94 4.87,1.15 4.85,1.37 4.76,1.56 4.67,1.75 4.53,1.91 4.38,2.06 4.19,2.16 4.00,2.26 3.79,2.29 3.58,2.33 3.37,2.29 3.17,2.26 2.98,2.16 2.79,2.06 2.79,2.06 2.79,2.06 1.76,2.31 0.74,2.55 1.56,1.71 2.37,0.87 2.38,2.00 2.40,3.13 2.40,4.20 2.39,5.27 2.40,6.68 2.40,8.08 2.52,9.23 2.65,10.38 2.70,11.94 2.76,13.49 2.53,15.24 2.31,16.98 3.56,16.95 4.80,16.93 5.88,16.86 6.96,16.80 8.13,16.79 9.30,16.78 10.64,16.69 11.99,16.59 13.30,16.60 14.60,16.62 16.11,16.63 17.62,16.64 17.24,17.68 16.85,18.72 16.70,17.51 16.54,16.30 16.44,15.04 16.34,13.78 16.34,12.28 16.34,10.79 16.35,9.24 16.35,7.69 16.40,6.33 16.45,4.97 17.08,3.84 17.72,2.72 16.36,2.81 15.01,2.91 13.90,2.87 12.78,2.82 11.17,2.78 9.55,2.74 7.78,2.78 6.01,2.81 4.52,2.73 3.03,2.66 1.46,2.00 -0.10,1.34 -0.26,1.31 -0.42,1.27 -0.56,1.21 -0.71,1.14 -0.84,1.03 -0.96,0.93 -1.06,0.80 -1.16,0.67 -1.22,0.52 -1.29,0.37 -1.31,0.21 -1.34,0.05 -1.33,-0.10 -1.32,-0.26 -1.26,-0.41 -1.21,-0.57 -1.13,-0.71 -1.04,-0.84 -0.92,-0.96 -0.81,-1.07 -0.67,-1.15 -0.53,-1.23 -0.37,-1.28 -0.22,-1.32 -0.05,-1.33 0.10,-1.34 0.10,-1.34 L 0.10,-1.34 Z"></path></g><g transform="translate(154.85781454866628 37.32790859592217) rotate(0 9.488646110839454 10.027780685854736)" stroke="none"><path fill="#000000" d="M 1.59,0.15 Q 1.59,0.15 1.93,2.07 2.27,3.98 2.16,5.61 2.05,7.24 1.93,8.71 1.82,10.18 1.77,11.77 1.72,13.36 1.71,14.64 1.70,15.91 1.59,17.18 1.48,18.45 3.49,17.92 5.50,17.38 7.07,17.36 8.65,17.34 10.25,17.34 11.84,17.34 13.12,17.31 14.41,17.29 15.82,17.39 17.24,17.49 17.51,16.37 17.78,15.25 17.79,13.94 17.80,12.63 17.81,11.55 17.81,10.47 17.73,9.13 17.65,7.79 17.60,6.69 17.56,5.58 17.58,4.27 17.60,2.95 18.72,2.93 19.83,2.91 18.56,3.05 17.29,3.18 15.74,3.18 14.18,3.17 12.97,3.17 11.76,3.17 10.65,3.22 9.54,3.28 8.44,3.41 7.34,3.53 6.14,3.69 4.93,3.84 1.89,2.38 -1.14,0.92 -1.15,0.70 -1.16,0.49 -1.10,0.29 -1.05,0.08 -0.93,-0.08 -0.81,-0.26 -0.64,-0.39 -0.47,-0.51 -0.27,-0.58 -0.06,-0.65 0.14,-0.65 0.35,-0.65 0.55,-0.58 0.75,-0.51 0.92,-0.38 1.09,-0.25 1.21,-0.08 1.33,0.09 1.38,0.30 1.44,0.50 1.43,0.71 1.42,0.92 1.34,1.12 1.26,1.32 1.12,1.48 0.98,1.64 0.80,1.75 0.62,1.86 0.41,1.90 0.20,1.95 -0.00,1.93 -0.21,1.90 -0.40,1.81 -0.60,1.72 -0.75,1.58 -0.90,1.43 -1.00,1.24 -1.10,1.05 -1.14,0.84 -1.17,0.63 -1.13,0.42 -1.10,0.21 -1.00,0.03 -0.90,-0.15 -0.74,-0.30 -0.59,-0.44 -0.40,-0.53 -0.20,-0.62 0.00,-0.64 0.21,-0.66 0.42,-0.62 0.62,-0.57 0.81,-0.46 0.99,-0.35 1.13,-0.19 1.26,-0.03 1.34,0.16 1.42,0.36 1.42,0.36 1.42,0.36 2.84,-0.15 4.26,-0.67 5.53,-0.85 6.81,-1.03 7.99,-1.17 9.18,-1.31 10.47,-1.38 11.76,-1.44 12.97,-1.45 14.18,-1.45 15.74,-1.45 17.30,-1.46 18.57,-1.32 19.84,-1.18 20.92,0.53 22.00,2.24 22.06,3.47 22.12,4.70 22.16,6.01 22.20,7.32 22.25,8.90 22.29,10.48 22.28,11.58 22.28,12.68 22.16,14.29 22.03,15.90 21.82,17.02 21.61,18.13 21.13,19.49 20.64,20.85 19.12,21.24 17.59,21.64 16.04,21.59 14.50,21.55 13.36,21.61 12.22,21.66 10.50,21.82 8.78,21.98 7.16,22.14 5.53,22.31 3.98,22.33 2.44,22.36 1.09,22.35 -0.24,22.33 -1.27,21.81 -2.31,21.28 -2.93,19.75 -3.55,18.22 -3.49,17.06 -3.42,15.90 -3.42,14.61 -3.43,13.33 -3.44,11.59 -3.45,9.85 -3.35,8.44 -3.24,7.03 -3.13,5.24 -3.01,3.45 -2.30,1.64 -1.59,-0.15 -1.55,-0.34 -1.51,-0.53 -1.42,-0.71 -1.34,-0.88 -1.21,-1.03 -1.09,-1.18 -0.93,-1.29 -0.77,-1.40 -0.59,-1.47 -0.41,-1.55 -0.22,-1.57 -0.03,-1.60 0.15,-1.58 0.35,-1.56 0.53,-1.50 0.71,-1.43 0.87,-1.33 1.04,-1.22 1.17,-1.08 1.30,-0.94 1.39,-0.77 1.49,-0.60 1.54,-0.41 1.59,-0.22 1.59,-0.03 1.59,0.16 1.59,0.15 L 1.59,0.15 Z"></path></g><g transform="translate(33.66183494707548 46.16961098585398) rotate(0 59.41191150487202 -0.43130074980246036)" stroke="none"><path fill="#000000" d="M -0.09,-1.54 Q -0.09,-1.54 3.03,-2.34 6.16,-3.14 7.57,-3.22 8.98,-3.30 12.82,-3.27 16.67,-3.24 18.39,-3.23 20.11,-3.22 23.01,-3.34 25.91,-3.47 27.30,-3.52 28.69,-3.57 31.55,-3.58 34.41,-3.60 35.67,-3.62 36.93,-3.63 39.00,-3.57 41.08,-3.51 44.12,-3.48 47.16,-3.45 49.76,-3.50 52.37,-3.56 54.45,-3.59 56.54,-3.63 58.59,-3.64 60.63,-3.65 62.24,-3.72 63.85,-3.80 65.85,-3.84 67.86,-3.89 69.70,-3.90 71.54,-3.92 73.14,-3.99 74.75,-4.06 75.87,-4.15 77.00,-4.24 78.55,-4.30 80.11,-4.35 81.77,-4.38 83.42,-4.41 85.33,-4.32 87.24,-4.22 89.73,-3.96 92.22,-3.70 93.96,-3.59 95.69,-3.49 97.17,-3.42 98.66,-3.34 100.27,-3.24 101.88,-3.14 103.50,-3.04 105.12,-2.94 106.21,-2.91 107.29,-2.89 108.62,-2.80 109.95,-2.71 111.07,-2.67 112.19,-2.64 113.48,-2.64 114.77,-2.64 116.40,-1.91 118.04,-1.19 118.19,-1.18 118.35,-1.16 118.50,-1.10 118.65,-1.04 118.78,-0.95 118.91,-0.86 119.01,-0.75 119.12,-0.63 119.19,-0.49 119.26,-0.35 119.30,-0.19 119.34,-0.04 119.34,0.11 119.34,0.27 119.30,0.42 119.26,0.58 119.19,0.72 119.12,0.86 119.01,0.97 118.91,1.09 118.78,1.18 118.65,1.27 118.50,1.33 118.35,1.38 118.19,1.40 118.04,1.42 117.41,0.95 116.78,0.48 116.75,0.27 116.72,0.06 116.77,-0.14 116.81,-0.35 116.92,-0.53 117.02,-0.72 117.18,-0.86 117.34,-1.00 117.54,-1.08 117.74,-1.16 117.95,-1.17 118.16,-1.19 118.36,-1.13 118.57,-1.08 118.75,-0.96 118.93,-0.85 119.06,-0.68 119.19,-0.51 119.26,-0.31 119.33,-0.11 119.33,0.09 119.33,0.30 119.27,0.51 119.20,0.71 119.08,0.88 118.95,1.05 118.78,1.17 118.60,1.29 118.40,1.35 118.20,1.41 117.98,1.40 117.77,1.40 117.57,1.32 117.37,1.24 117.21,1.11 117.05,0.97 116.93,0.79 116.82,0.61 116.77,0.41 116.73,0.20 116.75,-0.00 116.77,-0.21 116.85,-0.41 116.94,-0.60 117.08,-0.76 117.23,-0.92 117.41,-1.02 117.60,-1.12 117.81,-1.16 118.02,-1.19 118.23,-1.16 118.44,-1.13 118.63,-1.03 118.82,-0.94 118.96,-0.79 119.11,-0.63 118.57,-0.91 118.04,-1.19 118.19,-1.18 118.35,-1.16 118.50,-1.10 118.65,-1.04 118.78,-0.95 118.91,-0.86 119.01,-0.75 119.12,-0.63 119.19,-0.49 119.26,-0.35 119.30,-0.19 119.34,-0.04 119.34,0.11 119.34,0.27 119.30,0.42 119.26,0.57 119.19,0.72 119.12,0.86 119.01,0.97 118.91,1.09 118.78,1.18 118.65,1.27 118.50,1.33 118.35,1.38 118.19,1.40 118.04,1.42 116.40,2.46 114.77,3.50 113.41,3.48 112.06,3.47 110.70,3.42 109.33,3.37 108.22,3.30 107.12,3.23 105.91,3.19 104.70,3.15 103.09,3.03 101.47,2.92 99.85,2.82 98.22,2.71 96.86,2.63 95.49,2.54 93.58,2.43 91.66,2.32 89.09,2.01 86.53,1.70 85.00,1.56 83.47,1.41 81.86,1.43 80.26,1.44 78.85,1.46 77.44,1.49 76.25,1.57 75.07,1.66 73.31,1.72 71.55,1.77 69.73,1.77 67.91,1.77 65.99,1.80 64.06,1.83 62.35,1.88 60.64,1.93 58.61,1.93 56.59,1.93 54.58,1.97 52.56,2.01 49.85,2.07 47.13,2.13 44.03,2.09 40.92,2.05 38.94,1.99 36.97,1.93 35.71,1.94 34.45,1.94 31.67,1.97 28.89,1.99 27.51,2.04 26.13,2.09 23.10,2.21 20.07,2.32 18.35,2.31 16.63,2.30 12.96,2.27 9.29,2.24 7.88,2.31 6.48,2.39 3.28,1.96 0.09,1.54 -0.09,1.53 -0.28,1.51 -0.45,1.46 -0.63,1.40 -0.79,1.31 -0.95,1.21 -1.08,1.08 -1.21,0.95 -1.31,0.79 -1.41,0.63 -1.46,0.45 -1.52,0.27 -1.53,0.09 -1.54,-0.09 -1.50,-0.27 -1.47,-0.46 -1.39,-0.63 -1.32,-0.80 -1.20,-0.94 -1.09,-1.09 -0.94,-1.20 -0.79,-1.32 -0.62,-1.40 -0.45,-1.47 -0.27,-1.50 -0.09,-1.54 -0.09,-1.54 L -0.09,-1.54 Z"></path></g><g transform="translate(22.23230831487217 58.67737715290309) rotate(0 0.7547824819844209 36.55287798392203)" stroke="none"><path fill="#000000" d="M 1.45,-0.05 Q 1.45,-0.05 1.95,1.53 2.45,3.13 2.48,4.39 2.51,5.66 2.59,7.14 2.67,8.63 2.72,9.95 2.77,11.27 2.82,12.48 2.88,13.70 2.96,14.79 3.04,15.88 3.23,17.24 3.43,18.60 3.51,19.69 3.59,20.77 3.67,21.89 3.76,23.02 3.81,24.22 3.87,25.41 3.96,26.79 4.06,28.16 4.10,29.32 4.14,30.47 4.05,31.66 3.97,32.85 3.97,34.03 3.97,35.22 3.87,36.40 3.78,37.59 3.71,39.26 3.64,40.93 3.60,42.41 3.57,43.88 3.56,45.39 3.55,46.90 3.55,48.23 3.56,49.56 3.65,51.06 3.74,52.57 3.75,53.97 3.75,55.37 3.76,57.07 3.76,58.77 3.77,59.85 3.77,60.92 3.67,62.26 3.57,63.59 3.39,65.12 3.21,66.64 3.10,67.72 2.98,68.80 2.15,70.58 1.31,72.37 1.28,72.52 1.26,72.68 1.20,72.83 1.14,72.97 1.05,73.10 0.95,73.23 0.83,73.33 0.71,73.43 0.57,73.50 0.43,73.57 0.27,73.60 0.12,73.64 -0.03,73.63 -0.19,73.63 -0.34,73.59 -0.50,73.54 -0.63,73.47 -0.77,73.39 -0.89,73.28 -1.00,73.17 -1.09,73.04 -1.17,72.91 -1.23,72.76 -1.28,72.61 -1.29,72.45 -1.31,72.29 -1.27,72.10 -1.24,71.91 -1.14,71.72 -1.04,71.54 -0.89,71.39 -0.73,71.24 -0.54,71.15 -0.35,71.06 -0.14,71.04 0.07,71.02 0.27,71.06 0.48,71.11 0.66,71.22 0.84,71.33 0.98,71.49 1.12,71.65 1.20,71.85 1.28,72.05 1.29,72.26 1.30,72.47 1.24,72.68 1.19,72.88 1.07,73.06 0.95,73.23 0.78,73.36 0.61,73.49 0.41,73.56 0.21,73.63 0.00,73.63 -0.21,73.63 -0.41,73.56 -0.61,73.49 -0.78,73.36 -0.95,73.23 -1.07,73.06 -1.19,72.88 -1.24,72.68 -1.30,72.47 -1.29,72.26 -1.28,72.05 -1.20,71.85 -1.12,71.65 -0.98,71.49 -0.85,71.33 -0.66,71.22 -0.48,71.11 -0.27,71.06 -0.07,71.02 0.13,71.04 0.35,71.06 0.54,71.15 0.73,71.24 0.89,71.39 1.04,71.53 1.14,71.72 1.24,71.91 1.27,72.12 1.31,72.33 1.31,72.35 1.31,72.37 1.28,72.52 1.26,72.68 1.20,72.83 1.14,72.97 1.05,73.10 0.95,73.23 0.83,73.33 0.71,73.43 0.57,73.50 0.43,73.57 0.27,73.60 0.12,73.64 -0.03,73.63 -0.19,73.63 -0.34,73.59 -0.50,73.54 -0.63,73.47 -0.77,73.39 -0.89,73.28 -1.00,73.17 -1.09,73.04 -1.17,72.91 -1.23,72.76 -1.28,72.61 -1.29,72.45 -1.31,72.29 -1.83,70.12 -2.35,67.95 -2.24,66.85 -2.12,65.75 -1.97,64.61 -1.81,63.47 -1.71,61.83 -1.62,60.19 -1.61,58.49 -1.61,56.78 -1.62,55.66 -1.63,54.53 -1.72,52.62 -1.82,50.70 -1.82,49.20 -1.82,47.70 -1.82,46.48 -1.82,45.26 -1.80,43.96 -1.78,42.65 -1.68,40.78 -1.58,38.92 -1.47,37.05 -1.37,35.19 -1.35,34.08 -1.33,32.97 -1.23,31.76 -1.13,30.54 -1.15,29.20 -1.17,27.85 -1.25,26.04 -1.32,24.22 -1.42,23.05 -1.51,21.88 -1.54,20.74 -1.56,19.60 -1.75,17.94 -1.93,16.28 -1.98,14.99 -2.02,13.71 -1.98,12.53 -1.95,11.34 -1.98,10.16 -2.01,8.98 -2.08,7.37 -2.16,5.75 -2.18,4.53 -2.20,3.31 -1.82,1.68 -1.45,0.05 -1.43,-0.11 -1.42,-0.29 -1.36,-0.45 -1.31,-0.62 -1.21,-0.77 -1.12,-0.92 -0.99,-1.04 -0.87,-1.16 -0.71,-1.25 -0.56,-1.33 -0.39,-1.38 -0.23,-1.43 -0.05,-1.44 0.11,-1.44 0.29,-1.41 0.46,-1.37 0.62,-1.30 0.77,-1.22 0.91,-1.11 1.05,-1.00 1.15,-0.86 1.26,-0.72 1.32,-0.56 1.39,-0.40 1.42,-0.22 1.45,-0.05 1.45,-0.05 L 1.45,-0.05 Z"></path></g><g transform="translate(164.56209869474515 56.08956278235996) rotate(0 0.539134575015396 37.63113726222451)" stroke="none"><path fill="#000000" d="M 1.42,0 Q 1.42,0 1.86,2.66 2.30,5.33 2.31,6.58 2.31,7.84 2.36,9.24 2.41,10.65 2.44,11.99 2.46,13.33 2.48,14.64 2.50,15.95 2.60,17.92 2.71,19.89 2.82,21.30 2.93,22.72 3.05,24.92 3.18,27.12 3.29,29.08 3.40,31.05 3.46,33.13 3.53,35.22 3.54,36.29 3.56,37.36 3.64,38.78 3.73,40.19 3.83,41.46 3.94,42.73 3.88,44.07 3.82,45.41 3.74,46.78 3.66,48.15 3.58,49.41 3.49,50.68 3.39,51.85 3.29,53.01 3.24,54.31 3.20,55.60 3.10,56.75 3.00,57.89 2.97,59.01 2.95,60.13 2.94,61.76 2.93,63.38 2.93,64.95 2.94,66.52 2.93,67.69 2.93,68.86 2.93,70.12 2.92,71.38 2.22,73.21 1.52,75.04 1.49,75.25 1.46,75.46 1.36,75.64 1.26,75.83 1.10,75.98 0.95,76.12 0.75,76.21 0.56,76.30 0.35,76.32 0.14,76.35 -0.06,76.30 -0.27,76.26 -0.45,76.15 -0.63,76.04 -0.77,75.87 -0.90,75.71 -0.98,75.52 -1.06,75.32 -1.07,75.11 -1.08,74.89 -1.03,74.69 -0.97,74.48 -0.85,74.31 -0.73,74.13 -0.56,74.00 -0.39,73.88 -0.19,73.81 0.00,73.74 0.21,73.74 0.42,73.74 0.62,73.81 0.83,73.88 1.00,74.00 1.16,74.13 1.28,74.31 1.40,74.48 1.46,74.69 1.52,74.89 1.50,75.11 1.49,75.32 1.41,75.52 1.34,75.71 1.20,75.88 1.06,76.04 0.88,76.15 0.70,76.26 0.49,76.30 0.28,76.35 0.07,76.32 -0.13,76.30 -0.32,76.21 -0.52,76.12 -0.67,75.98 -0.83,75.83 -0.92,75.64 -1.02,75.45 -1.06,75.25 -1.09,75.04 -1.09,75.04 -1.09,75.04 -1.79,73.21 -2.49,71.38 -2.49,70.12 -2.50,68.86 -2.50,67.69 -2.50,66.52 -2.50,65.33 -2.50,64.13 -2.51,63.02 -2.51,61.90 -2.51,60.35 -2.51,58.81 -2.41,57.16 -2.32,55.51 -2.29,54.42 -2.27,53.32 -2.17,52.15 -2.06,50.98 -1.97,49.92 -1.87,48.86 -1.81,47.53 -1.75,46.21 -1.60,44.67 -1.44,43.12 -1.55,41.84 -1.65,40.55 -1.75,39.26 -1.84,37.97 -1.85,36.64 -1.85,35.31 -1.90,33.31 -1.95,31.31 -2.03,29.36 -2.11,27.41 -2.22,25.23 -2.33,23.04 -2.40,21.58 -2.46,20.12 -2.48,18.04 -2.50,15.95 -2.48,14.64 -2.46,13.33 -2.44,11.99 -2.41,10.65 -2.36,9.24 -2.31,7.84 -2.31,6.58 -2.30,5.33 -1.86,2.66 -1.42,0 -1.40,-0.17 -1.38,-0.34 -1.32,-0.50 -1.26,-0.66 -1.16,-0.80 -1.06,-0.94 -0.93,-1.05 -0.80,-1.17 -0.65,-1.25 -0.50,-1.33 -0.33,-1.37 -0.17,-1.41 0.00,-1.41 0.17,-1.41 0.33,-1.37 0.50,-1.33 0.65,-1.25 0.80,-1.17 0.93,-1.05 1.06,-0.94 1.16,-0.80 1.26,-0.66 1.32,-0.50 1.38,-0.34 1.40,-0.17 1.42,0.00 1.42,0.00 L 1.42,0 Z"></path></g><g transform="translate(34.308788539710804 141.91874269595087) rotate(0 60.382341893825924 0.5391296391512128)" stroke="none"><path fill="#000000" d="M 0.08,-1.48 Q 0.08,-1.48 1.22,-1.96 2.37,-2.44 3.84,-2.39 5.32,-2.34 7.56,-2.29 9.80,-2.25 11.38,-2.24 12.96,-2.24 14.49,-2.24 16.02,-2.24 17.84,-2.16 19.66,-2.08 20.96,-2.06 22.26,-2.04 24.16,-2.04 26.07,-2.04 28.27,-2.04 30.47,-2.04 32.25,-2.03 34.03,-2.03 36.90,-2.09 39.78,-2.14 41.75,-2.24 43.72,-2.33 44.98,-2.37 46.24,-2.40 48.15,-2.43 50.07,-2.45 51.62,-2.45 53.16,-2.45 54.96,-2.45 56.77,-2.45 58.86,-2.39 60.95,-2.33 62.52,-2.29 64.10,-2.25 65.61,-2.19 67.13,-2.12 68.78,-2.02 70.43,-1.92 71.94,-1.88 73.46,-1.84 74.67,-1.83 75.87,-1.83 77.42,-1.76 78.97,-1.70 80.28,-1.66 81.59,-1.63 83.20,-1.62 84.80,-1.61 86.22,-1.61 87.64,-1.61 88.81,-1.67 89.97,-1.73 91.34,-1.77 92.71,-1.82 93.99,-1.88 95.27,-1.95 96.93,-2.00 98.58,-2.04 100.02,-2.11 101.46,-2.18 102.83,-2.23 104.19,-2.28 105.26,-2.34 106.32,-2.41 107.93,-2.47 109.54,-2.53 111.49,-2.47 113.44,-2.41 114.81,-2.37 116.17,-2.34 117.86,-1.09 119.54,0.15 119.66,-0.02 119.78,-0.19 119.95,-0.32 120.13,-0.44 120.33,-0.51 120.53,-0.57 120.74,-0.57 120.96,-0.57 121.16,-0.50 121.36,-0.42 121.52,-0.29 121.69,-0.16 121.81,0.01 121.92,0.18 121.98,0.39 122.03,0.59 122.02,0.81 122.00,1.02 121.92,1.21 121.84,1.41 121.70,1.57 121.56,1.73 121.38,1.84 121.19,1.94 120.98,1.99 120.78,2.03 120.56,2.00 120.35,1.98 120.16,1.88 119.97,1.79 119.82,1.64 119.67,1.50 119.57,1.31 119.47,1.12 119.44,0.91 119.41,0.70 119.45,0.49 119.49,0.28 119.59,0.09 119.69,-0.08 119.85,-0.23 120.00,-0.37 120.20,-0.46 120.39,-0.54 120.60,-0.56 120.81,-0.58 121.02,-0.53 121.23,-0.49 121.41,-0.37 121.59,-0.26 121.72,-0.10 121.86,0.06 121.93,0.26 122.01,0.45 122.02,0.67 122.03,0.88 121.97,1.08 121.91,1.29 121.91,1.29 121.91,1.29 119.75,2.33 117.59,3.37 116.50,3.27 115.41,3.18 114.25,3.14 113.10,3.09 111.34,3.03 109.59,2.98 108.21,3.00 106.82,3.03 105.55,3.10 104.27,3.18 103.04,3.20 101.82,3.23 100.23,3.30 98.64,3.37 97.14,3.40 95.64,3.43 94.21,3.50 92.78,3.58 91.57,3.61 90.36,3.64 89.00,3.70 87.64,3.77 86.21,3.77 84.79,3.76 83.16,3.76 81.52,3.75 80.09,3.71 78.66,3.67 77.26,3.61 75.86,3.54 74.62,3.54 73.38,3.53 71.74,3.48 70.10,3.43 68.43,3.32 66.77,3.22 65.40,3.15 64.04,3.08 62.37,3.04 60.70,3.01 58.73,2.94 56.77,2.88 54.97,2.88 53.17,2.88 51.63,2.89 50.10,2.90 48.24,2.91 46.38,2.93 45.23,2.95 44.08,2.98 42.02,3.09 39.95,3.19 36.99,3.26 34.03,3.32 32.25,3.33 30.47,3.33 28.26,3.33 26.06,3.33 24.14,3.32 22.21,3.32 20.88,3.30 19.56,3.29 17.78,3.20 16.01,3.11 14.48,3.10 12.94,3.09 11.34,3.08 9.74,3.06 7.37,3.00 5.00,2.94 3.54,2.81 2.08,2.68 1.00,2.08 -0.08,1.48 -0.25,1.44 -0.43,1.41 -0.59,1.34 -0.76,1.27 -0.90,1.16 -1.04,1.05 -1.15,0.91 -1.26,0.77 -1.33,0.61 -1.41,0.44 -1.44,0.27 -1.48,0.09 -1.47,-0.08 -1.46,-0.26 -1.40,-0.43 -1.35,-0.60 -1.26,-0.75 -1.17,-0.90 -1.04,-1.03 -0.92,-1.16 -0.76,-1.25 -0.61,-1.34 -0.44,-1.40 -0.27,-1.45 -0.09,-1.46 0.08,-1.48 0.08,-1.48 L 0.08,-1.48 Z"></path></g><g transform="translate(154.42651873472732 140.19352982501255) rotate(0 0.6469535926357821 -4.852151944768423)" stroke="none"><path fill="#000000" d="M -1.44,-0.09 Q -1.44,-0.09 -1.65,-1.09 -1.86,-2.10 -1.72,-3.28 -1.58,-4.45 -0.55,-7.59 0.47,-10.72 0.65,-10.82 0.84,-10.92 1.05,-10.95 1.26,-10.98 1.47,-10.95 1.68,-10.91 1.87,-10.81 2.06,-10.71 2.20,-10.55 2.34,-10.40 2.43,-10.20 2.52,-10.01 2.54,-9.80 2.56,-9.59 2.51,-9.38 2.46,-9.17 2.35,-8.99 2.24,-8.81 2.08,-8.67 1.92,-8.54 1.72,-8.46 1.52,-8.38 1.31,-8.38 1.09,-8.37 0.89,-8.43 0.69,-8.48 0.51,-8.61 0.34,-8.73 0.21,-8.90 0.08,-9.07 0.02,-9.27 -0.04,-9.47 -0.04,-9.68 -0.03,-9.90 0.03,-10.10 0.10,-10.30 0.23,-10.47 0.36,-10.63 0.53,-10.75 0.71,-10.87 0.92,-10.92 1.12,-10.98 1.33,-10.96 1.55,-10.95 1.74,-10.87 1.94,-10.79 2.10,-10.65 2.26,-10.51 2.37,-10.33 2.47,-10.14 2.52,-9.94 2.56,-9.73 2.54,-9.52 2.51,-9.31 2.42,-9.11 2.33,-8.92 2.18,-8.77 2.03,-8.62 2.03,-8.62 2.03,-8.62 2.26,-6.63 2.49,-4.64 2.30,-3.25 2.11,-1.85 1.78,-0.88 1.44,0.09 1.41,0.26 1.38,0.43 1.31,0.59 1.23,0.75 1.13,0.89 1.02,1.02 0.88,1.13 0.74,1.24 0.58,1.31 0.42,1.38 0.25,1.41 0.08,1.44 -0.08,1.43 -0.26,1.42 -0.43,1.37 -0.59,1.32 -0.74,1.23 -0.89,1.13 -1.02,1.01 -1.14,0.89 -1.23,0.74 -1.32,0.59 -1.37,0.42 -1.42,0.25 -1.43,0.08 -1.44,-0.09 -1.44,-0.09 L -1.44,-0.09 Z"></path></g><g transform="translate(14.667522875769464 38.4748762998845) rotate(0 9.634571771712217 9.634571771711876)" stroke="none"><path fill="#000000" d="M 0.05,-1.53 Q 0.05,-1.53 1.08,-1.86 2.11,-2.18 3.50,-2.17 4.88,-2.16 6.26,-2.16 7.64,-2.16 9.44,-2.24 11.24,-2.31 12.44,-2.32 13.64,-2.33 14.98,-2.32 16.32,-2.31 17.53,-2.25 18.75,-2.19 19.86,-0.82 20.97,0.53 21.00,1.94 21.03,3.35 21.04,4.74 21.04,6.12 21.05,7.44 21.07,8.77 21.20,10.25 21.33,11.72 21.45,13.02 21.57,14.32 21.61,15.42 21.64,16.53 21.55,17.61 21.46,18.69 20.89,19.86 20.32,21.02 19.32,21.37 18.31,21.71 16.64,21.76 14.97,21.80 13.64,21.70 12.31,21.59 10.53,21.53 8.75,21.46 7.43,21.55 6.11,21.63 4.90,21.84 3.68,22.05 2.57,22.13 1.46,22.21 0.41,21.56 -0.62,20.91 -1.22,19.44 -1.81,17.98 -1.84,16.74 -1.86,15.51 -1.87,14.36 -1.88,13.21 -1.94,12.03 -2.00,10.85 -2.09,9.77 -2.18,8.70 -2.22,7.56 -2.26,6.43 -2.25,5.36 -2.25,4.28 -2.17,3.11 -2.08,1.95 -0.43,1.70 1.21,1.45 1.26,1.30 1.31,1.15 1.39,1.01 1.47,0.88 1.59,0.77 1.70,0.66 1.84,0.58 1.97,0.50 2.12,0.45 2.28,0.41 2.43,0.40 2.59,0.39 2.75,0.42 2.90,0.45 3.05,0.52 3.19,0.59 3.31,0.69 3.44,0.78 3.53,0.91 3.63,1.04 3.69,1.18 3.75,1.33 3.78,1.48 3.81,1.64 3.80,1.80 3.78,1.95 3.74,2.09 3.70,2.22 3.59,2.40 3.47,2.58 3.31,2.71 3.14,2.84 2.94,2.92 2.74,2.99 2.53,3.00 2.32,3.00 2.12,2.94 1.91,2.88 1.74,2.75 1.57,2.63 1.44,2.46 1.32,2.28 1.26,2.08 1.19,1.88 1.20,1.67 1.21,1.45 1.28,1.25 1.35,1.05 1.49,0.89 1.62,0.72 1.80,0.61 1.98,0.49 2.18,0.44 2.39,0.39 2.60,0.41 2.81,0.43 3.01,0.51 3.20,0.59 3.36,0.74 3.52,0.88 3.62,1.06 3.73,1.25 3.77,1.46 3.81,1.67 3.78,1.88 3.75,2.09 3.66,2.28 3.56,2.47 3.41,2.62 3.26,2.77 3.07,2.86 2.88,2.96 2.67,2.99 2.46,3.01 2.25,2.97 2.04,2.93 1.86,2.83 1.67,2.72 1.53,2.57 1.39,2.41 1.31,2.21 1.22,2.02 1.20,1.81 1.19,1.59 1.20,1.52 1.21,1.45 1.26,1.30 1.31,1.15 1.39,1.01 1.47,0.88 1.59,0.77 1.70,0.66 1.84,0.58 1.97,0.50 2.12,0.45 2.28,0.41 2.43,0.40 2.59,0.39 2.75,0.42 2.90,0.45 3.05,0.52 3.19,0.59 3.31,0.68 3.44,0.78 3.53,0.91 3.63,1.04 3.69,1.18 3.75,1.33 3.78,1.48 3.81,1.64 3.80,1.80 3.78,1.95 3.66,2.72 3.54,3.49 3.56,4.59 3.58,5.69 3.59,6.75 3.61,7.82 3.73,9.26 3.85,10.71 3.91,11.96 3.98,13.21 3.97,14.35 3.96,15.49 3.49,16.55 3.01,17.61 2.16,16.96 1.31,16.30 2.44,16.22 3.57,16.13 5.04,15.87 6.50,15.61 7.69,15.58 8.87,15.54 10.80,15.62 12.73,15.69 13.86,15.82 14.98,15.94 15.93,16.42 16.89,16.90 16.91,15.66 16.93,14.42 16.85,13.34 16.76,12.25 16.64,11.20 16.52,10.14 16.47,8.86 16.42,7.58 16.43,6.09 16.45,4.59 17.13,3.42 17.82,2.25 16.59,2.28 15.35,2.32 13.82,2.33 12.29,2.35 11.06,2.37 9.83,2.39 8.73,2.40 7.64,2.42 6.22,2.41 4.81,2.41 3.38,2.37 1.95,2.33 0.94,1.93 -0.05,1.53 -0.24,1.50 -0.42,1.47 -0.59,1.40 -0.76,1.33 -0.91,1.22 -1.06,1.11 -1.17,0.96 -1.29,0.82 -1.37,0.65 -1.45,0.49 -1.49,0.31 -1.53,0.12 -1.52,-0.05 -1.51,-0.24 -1.46,-0.42 -1.41,-0.59 -1.32,-0.75 -1.23,-0.92 -1.10,-1.05 -0.97,-1.18 -0.82,-1.28 -0.66,-1.38 -0.48,-1.44 -0.31,-1.50 -0.12,-1.52 0.05,-1.53 0.05,-1.53 L 0.05,-1.53 Z"></path></g></svg>