<svg version="1.1" xmlns="http://www.w3.org/2000/svg" viewBox="0 0 189.1666030883789 189.1666030883789" width="567.4998092651367" height="567.4998092651367">
  <!-- svg-source:excalidraw -->
  
  <defs>
    <style class="style-fonts">
      @font-face {
        font-family: "Virgil";
        src: url("https://excalidraw.com/Virgil.woff2");
      }
      @font-face {
        font-family: "Cascadia";
        src: url("https://excalidraw.com/Cascadia.woff2");
      }
    </style>
  </defs>
  <g stroke-linecap="round" transform="translate(10 10) rotate(0 84.58330154418945 84.58330154418945)"><path d="M-0.06 -0.32 C65.23 0.8, 129.91 2.47, 168 -0.99 M0.88 -0.03 C60.44 1.1, 118.6 2.14, 168.3 -0.55 M167.65 -0.59 C167.36 54.01, 169.01 107.59, 169.2 171.15 M169.01 -0.96 C171.82 44.48, 171.72 90.68, 169.32 168.5 M169 169.31 C106.66 168.87, 47.47 171.39, -0.47 171.16 M168.58 168.7 C134.32 168.48, 99.37 168.9, 0.55 169.25 M0.14 170.65 C0.59 106.41, 0.15 45.8, 1.72 -0.5 M0.99 168.59 C-0.84 115.68, -0.44 61.17, 0.78 -0.97" stroke="transparent" stroke-width="1" fill="none"></path></g><g transform="translate(43.488083311790774 160.68550534842257) rotate(0 26.083572886621937 -66.63816348557634)" stroke="none"><path fill="#000000" d="M -1.47,-0.31 Q -1.47,-0.31 -1.54,-1.83 -1.62,-3.35 -1.21,-5.12 -0.80,-6.90 -0.33,-8.49 0.14,-10.08 0.47,-11.10 0.80,-12.12 1.16,-13.15 1.52,-14.17 1.89,-15.23 2.26,-16.29 2.89,-17.74 3.52,-19.19 4.04,-20.23 4.56,-21.26 5.02,-22.22 5.49,-23.17 5.94,-24.43 6.40,-25.68 6.96,-27.08 7.52,-28.47 7.89,-29.55 8.25,-30.63 8.70,-31.65 9.16,-32.66 9.65,-33.64 10.14,-34.61 10.66,-35.58 11.18,-36.55 11.69,-37.67 12.20,-38.80 12.70,-39.84 13.21,-40.87 13.88,-42.07 14.55,-43.27 15.24,-44.81 15.92,-46.35 16.36,-47.33 16.79,-48.31 17.26,-49.31 17.72,-50.31 18.51,-51.91 19.30,-53.51 20.02,-55.10 20.74,-56.68 21.53,-58.19 22.32,-59.70 22.81,-60.77 23.30,-61.84 23.60,-63.12 23.90,-64.40 24.21,-65.64 24.53,-66.88 24.90,-67.98 25.28,-69.08 25.71,-70.31 26.14,-71.53 26.53,-72.88 26.92,-74.23 27.39,-75.45 27.86,-76.68 28.24,-77.84 28.63,-78.99 28.98,-80.25 29.34,-81.50 29.90,-83.28 30.47,-85.05 30.92,-86.35 31.38,-87.66 31.94,-89.09 32.50,-90.53 32.85,-91.75 33.19,-92.97 33.64,-94.05 34.10,-95.13 34.51,-96.25 34.93,-97.38 35.38,-98.61 35.84,-99.85 36.07,-100.92 36.31,-102.00 36.70,-103.18 37.10,-104.36 37.45,-105.41 37.81,-106.46 38.12,-107.51 38.43,-108.55 38.72,-109.79 39.00,-111.02 39.48,-112.07 39.96,-113.11 40.39,-114.28 40.82,-115.45 41.41,-116.59 41.99,-117.73 42.44,-118.79 42.88,-119.85 43.76,-121.48 44.63,-123.12 45.21,-124.26 45.79,-125.40 46.31,-126.48 46.84,-127.56 47.37,-128.62 47.90,-129.68 49.70,-130.91 51.50,-132.14 51.33,-132.27 51.17,-132.41 51.06,-132.59 50.95,-132.77 50.90,-132.98 50.85,-133.19 50.87,-133.40 50.89,-133.61 50.98,-133.80 51.07,-134.00 51.21,-134.15 51.36,-134.31 51.54,-134.41 51.73,-134.51 51.94,-134.55 52.15,-134.58 52.36,-134.55 52.57,-134.52 52.76,-134.42 52.95,-134.33 53.09,-134.17 53.24,-134.02 53.33,-133.83 53.42,-133.64 53.45,-133.43 53.47,-133.21 53.43,-133.01 53.39,-132.80 53.28,-132.61 53.17,-132.43 53.01,-132.29 52.85,-132.15 52.65,-132.07 52.46,-131.99 52.25,-131.98 52.03,-131.96 51.83,-132.02 51.62,-132.07 51.45,-132.19 51.27,-132.31 51.14,-132.48 51.01,-132.64 50.94,-132.84 50.87,-133.05 50.87,-133.26 50.86,-133.47 50.93,-133.67 51.00,-133.87 51.12,-134.04 51.25,-134.22 51.42,-134.34 51.60,-134.46 51.80,-134.52 52.01,-134.58 52.22,-134.57 52.43,-134.56 52.63,-134.48 52.83,-134.40 52.83,-134.40 52.83,-134.40 52.81,-131.12 52.80,-127.84 52.37,-126.86 51.95,-125.88 51.35,-124.82 50.76,-123.76 50.23,-122.70 49.69,-121.65 49.10,-120.49 48.51,-119.32 47.86,-118.21 47.22,-117.10 46.58,-115.71 45.94,-114.33 45.49,-113.34 45.04,-112.35 44.47,-111.07 43.89,-109.79 43.39,-107.88 42.89,-105.98 42.44,-104.63 42.00,-103.29 41.56,-101.99 41.12,-100.68 40.80,-99.37 40.48,-98.05 39.97,-96.77 39.47,-95.48 38.92,-94.22 38.37,-92.96 38.02,-91.92 37.66,-90.88 37.24,-89.56 36.82,-88.23 36.40,-87.12 35.99,-86.00 35.50,-84.63 35.00,-83.26 34.55,-81.92 34.09,-80.58 33.73,-79.31 33.36,-78.05 33.05,-77.02 32.75,-75.98 32.24,-74.77 31.73,-73.56 31.28,-72.30 30.83,-71.04 30.36,-69.37 29.90,-67.70 29.32,-66.06 28.74,-64.42 28.54,-63.36 28.34,-62.29 28.07,-61.22 27.80,-60.15 27.20,-58.83 26.60,-57.50 25.87,-56.12 25.14,-54.74 24.40,-53.12 23.67,-51.50 23.18,-50.45 22.69,-49.40 22.08,-48.14 21.47,-46.88 20.91,-45.68 20.36,-44.48 19.83,-43.31 19.31,-42.14 18.51,-40.66 17.70,-39.19 17.18,-38.14 16.65,-37.10 16.13,-35.92 15.61,-34.75 14.98,-33.53 14.34,-32.31 13.65,-31.00 12.95,-29.69 12.45,-28.18 11.95,-26.67 11.45,-25.44 10.96,-24.20 10.50,-23.01 10.04,-21.82 9.44,-20.47 8.84,-19.12 8.32,-18.08 7.79,-17.03 7.17,-15.61 6.55,-14.19 6.21,-13.13 5.87,-12.07 5.45,-10.97 5.03,-9.87 4.60,-8.85 4.16,-7.82 3.88,-6.69 3.60,-5.56 3.23,-3.97 2.85,-2.39 2.16,-1.04 1.47,0.31 1.41,0.48 1.35,0.65 1.25,0.81 1.15,0.96 1.02,1.08 0.89,1.21 0.73,1.30 0.57,1.39 0.40,1.43 0.22,1.48 0.04,1.49 -0.13,1.49 -0.31,1.46 -0.49,1.42 -0.65,1.34 -0.81,1.26 -0.95,1.14 -1.09,1.03 -1.20,0.88 -1.31,0.73 -1.38,0.57 -1.44,0.40 -1.47,0.22 -1.50,0.04 -1.48,-0.13 -1.47,-0.31 -1.47,-0.31 L -1.47,-0.31 Z"></path></g><g transform="translate(94.22599781601298 25.979938930089702) rotate(0 26.619528478886537 67.35278320916632)" stroke="none"><path fill="#000000" d="M 0.99,-1.16 Q 0.99,-1.16 1.98,-0.85 2.96,-0.54 3.74,0.42 4.52,1.38 5.22,2.47 5.92,3.56 6.52,4.67 7.11,5.77 7.85,7.06 8.59,8.34 9.21,9.43 9.84,10.51 10.45,11.62 11.07,12.73 11.55,13.76 12.04,14.78 12.52,15.76 12.99,16.75 13.35,17.77 13.70,18.79 14.27,20.56 14.84,22.33 15.33,23.65 15.82,24.96 16.26,26.42 16.70,27.88 17.07,29.15 17.44,30.42 17.79,31.49 18.14,32.57 18.35,33.68 18.56,34.79 18.84,35.82 19.11,36.86 19.63,38.41 20.15,39.97 20.82,41.64 21.49,43.32 22.00,44.60 22.52,45.88 23.08,47.49 23.65,49.11 24.02,50.16 24.40,51.21 24.89,52.48 25.38,53.75 25.72,54.81 26.06,55.87 26.56,57.20 27.06,58.53 27.43,59.58 27.79,60.63 28.33,61.94 28.88,63.25 29.51,64.92 30.14,66.59 30.58,67.76 31.01,68.92 31.42,70.33 31.84,71.74 32.17,72.75 32.50,73.76 33.00,75.24 33.51,76.72 33.93,78.01 34.35,79.30 34.71,80.34 35.07,81.39 35.36,82.45 35.65,83.52 36.16,84.67 36.67,85.82 37.05,87.10 37.43,88.38 37.92,89.62 38.42,90.85 38.87,92.11 39.32,93.38 39.81,94.63 40.29,95.88 40.91,97.24 41.53,98.59 42.16,99.95 42.78,101.32 43.38,102.54 43.98,103.76 44.65,105.07 45.31,106.39 45.83,107.51 46.35,108.63 46.91,109.94 47.47,111.26 47.99,112.67 48.51,114.09 49.03,115.50 49.54,116.91 49.98,117.97 50.42,119.03 50.88,120.12 51.35,121.21 51.90,122.64 52.45,124.07 52.77,125.27 53.09,126.47 53.64,127.62 54.19,128.76 54.55,129.95 54.92,131.13 54.70,132.70 54.47,134.27 54.51,134.48 54.55,134.68 54.52,134.90 54.48,135.11 54.39,135.29 54.29,135.48 54.14,135.63 53.98,135.78 53.79,135.87 53.60,135.96 53.39,135.99 53.18,136.01 52.97,135.97 52.76,135.93 52.58,135.82 52.40,135.71 52.26,135.55 52.12,135.39 52.04,135.19 51.95,135.00 51.94,134.79 51.93,134.57 51.98,134.37 52.04,134.16 52.15,133.99 52.27,133.81 52.44,133.68 52.61,133.55 52.81,133.48 53.01,133.41 53.22,133.40 53.43,133.40 53.63,133.47 53.84,133.53 54.01,133.66 54.18,133.79 54.30,133.96 54.42,134.14 54.48,134.34 54.54,134.54 54.53,134.76 54.52,134.97 54.44,135.17 54.37,135.36 54.23,135.53 54.10,135.69 53.92,135.80 53.73,135.91 53.53,135.96 53.32,136.01 53.11,135.99 52.90,135.97 52.70,135.88 52.51,135.80 52.35,135.65 52.20,135.51 52.10,135.32 51.99,135.13 51.99,135.13 51.99,135.13 50.68,133.77 49.36,132.41 48.87,130.92 48.37,129.44 47.89,128.43 47.41,127.42 46.89,126.00 46.37,124.57 45.84,123.17 45.31,121.78 44.81,120.38 44.30,118.98 43.72,117.50 43.15,116.02 42.68,114.75 42.22,113.47 41.82,112.48 41.43,111.49 40.71,109.88 40.00,108.27 39.43,107.22 38.87,106.17 38.13,104.58 37.40,102.99 36.81,101.80 36.23,100.62 35.80,99.65 35.36,98.67 34.82,97.32 34.28,95.97 33.77,94.56 33.27,93.15 32.86,92.11 32.46,91.08 32.12,89.88 31.78,88.69 31.34,87.45 30.90,86.20 30.44,84.83 29.99,83.46 29.47,81.83 28.95,80.20 28.59,79.16 28.22,78.12 27.72,76.61 27.22,75.11 26.87,73.91 26.51,72.70 26.11,71.51 25.71,70.33 25.29,68.91 24.87,67.49 24.48,66.49 24.09,65.49 23.56,64.30 23.04,63.11 22.67,62.08 22.29,61.05 21.94,59.92 21.58,58.80 21.18,57.78 20.78,56.77 20.45,55.68 20.11,54.59 19.66,53.19 19.21,51.78 18.59,50.30 17.96,48.81 17.50,47.42 17.05,46.03 16.64,45.01 16.24,43.99 15.71,42.76 15.17,41.53 14.63,39.92 14.09,38.31 13.76,36.93 13.42,35.56 13.23,34.46 13.04,33.37 12.70,32.20 12.37,31.03 11.99,29.68 11.61,28.33 11.25,27.31 10.89,26.29 10.38,24.83 9.87,23.36 9.51,22.26 9.16,21.15 8.69,19.67 8.23,18.20 7.68,17.09 7.12,15.98 6.60,15.02 6.07,14.06 5.66,13.02 5.25,11.99 4.59,10.98 3.93,9.97 3.24,8.81 2.54,7.65 2.07,6.64 1.61,5.63 0.76,4.31 -0.09,3.00 -0.54,2.08 -0.99,1.16 -1.12,1.02 -1.24,0.89 -1.33,0.72 -1.42,0.56 -1.46,0.38 -1.51,0.20 -1.51,0.02 -1.52,-0.15 -1.48,-0.33 -1.43,-0.51 -1.35,-0.68 -1.27,-0.84 -1.15,-0.98 -1.03,-1.12 -0.88,-1.23 -0.73,-1.34 -0.56,-1.41 -0.39,-1.48 -0.20,-1.50 -0.02,-1.53 0.15,-1.51 0.34,-1.49 0.51,-1.42 0.68,-1.36 0.84,-1.26 0.99,-1.16 0.99,-1.16 L 0.99,-1.16 Z"></path></g><g transform="translate(131.02885428924617 160.68550534842257) rotate(0 13.577737946496427 1.2505794049334327)" stroke="none"><path fill="#000000" d="M 0.24,-1.85 Q 0.24,-1.85 1.85,-2.14 3.46,-2.42 5.14,-2.18 6.82,-1.93 8.10,-1.91 9.38,-1.88 10.69,-1.89 11.99,-1.90 13.18,-1.92 14.36,-1.95 15.59,-1.96 16.81,-1.98 18.04,-1.99 19.26,-2.00 20.37,-2.00 21.48,-2.01 22.68,-2.03 23.88,-2.04 25.33,-0.43 26.79,1.18 26.95,1.20 27.11,1.22 27.26,1.28 27.40,1.33 27.53,1.42 27.66,1.51 27.77,1.63 27.87,1.75 27.95,1.89 28.02,2.03 28.06,2.18 28.10,2.34 28.10,2.50 28.10,2.65 28.06,2.81 28.02,2.96 27.95,3.10 27.87,3.24 27.77,3.36 27.66,3.48 27.53,3.57 27.40,3.66 27.26,3.72 27.11,3.77 26.95,3.79 26.79,3.81 27.40,3.41 28.00,3.02 27.88,3.20 27.77,3.38 27.60,3.51 27.44,3.64 27.24,3.71 27.04,3.79 26.82,3.79 26.61,3.80 26.41,3.73 26.21,3.67 26.03,3.55 25.86,3.42 25.74,3.25 25.61,3.08 25.55,2.87 25.49,2.67 25.50,2.46 25.50,2.24 25.58,2.05 25.65,1.85 25.79,1.68 25.92,1.52 26.10,1.40 26.28,1.29 26.48,1.24 26.69,1.19 26.90,1.20 27.11,1.22 27.31,1.31 27.50,1.39 27.66,1.53 27.82,1.68 27.92,1.86 28.03,2.05 28.07,2.26 28.11,2.47 28.08,2.68 28.05,2.89 27.95,3.08 27.86,3.27 27.71,3.42 27.56,3.57 27.37,3.66 27.17,3.75 26.96,3.78 26.75,3.81 26.54,3.77 26.34,3.73 26.15,3.62 25.97,3.52 25.83,3.36 25.68,3.20 25.60,3.00 25.52,2.81 25.50,2.60 25.48,2.39 26.14,1.78 26.79,1.18 26.95,1.20 27.11,1.22 27.26,1.28 27.40,1.33 27.53,1.42 27.66,1.51 27.77,1.63 27.87,1.75 27.95,1.89 28.02,2.03 28.06,2.18 28.10,2.34 28.10,2.50 28.10,2.65 28.06,2.81 28.02,2.96 27.95,3.10 27.87,3.24 27.77,3.36 27.66,3.48 27.53,3.57 27.40,3.66 27.26,3.72 27.11,3.77 26.95,3.79 26.79,3.81 25.33,4.00 23.88,4.19 22.68,4.17 21.48,4.15 20.37,4.15 19.26,4.14 18.04,4.13 16.81,4.12 15.59,4.11 14.36,4.09 13.17,4.07 11.97,4.04 10.62,4.01 9.26,3.98 7.78,3.91 6.29,3.84 4.49,3.54 2.70,3.24 1.22,2.55 -0.24,1.85 -0.46,1.80 -0.68,1.74 -0.88,1.63 -1.08,1.53 -1.25,1.37 -1.41,1.22 -1.54,1.03 -1.67,0.85 -1.74,0.63 -1.82,0.42 -1.84,0.20 -1.87,-0.02 -1.84,-0.24 -1.81,-0.47 -1.73,-0.68 -1.64,-0.89 -1.51,-1.07 -1.38,-1.25 -1.21,-1.40 -1.04,-1.55 -0.84,-1.65 -0.64,-1.76 -0.42,-1.81 -0.20,-1.86 0.02,-1.86 0.24,-1.85 0.24,-1.85 L 0.24,-1.85 Z"></path></g><g transform="translate(30.98227290613977 161.04280907659881) rotate(0 13.935058030989012 1.0719275408453086)" stroke="none"><path fill="#000000" d="M 0,-1.58 Q 0,-1.58 1.43,-2.27 2.87,-2.95 4.34,-2.96 5.82,-2.97 7.12,-2.98 8.42,-2.99 9.70,-3.00 10.99,-3.02 12.11,-2.88 13.23,-2.74 14.31,-2.71 15.39,-2.67 17.10,-2.52 18.81,-2.36 20.54,-2.05 22.27,-1.74 23.39,-1.51 24.51,-1.28 25.65,-0.22 26.80,0.83 26.96,0.85 27.11,0.86 27.26,0.92 27.41,0.98 27.54,1.07 27.67,1.16 27.77,1.28 27.88,1.40 27.95,1.54 28.02,1.68 28.06,1.83 28.10,1.99 28.10,2.14 28.10,2.30 28.06,2.46 28.02,2.61 27.95,2.75 27.87,2.89 27.77,3.01 27.66,3.13 27.53,3.21 27.40,3.30 27.25,3.36 27.10,3.42 26.95,3.43 26.79,3.45 26.58,3.42 26.38,3.38 26.19,3.28 26.00,3.19 25.85,3.03 25.71,2.88 25.62,2.68 25.53,2.49 25.50,2.28 25.48,2.07 25.53,1.86 25.57,1.65 25.68,1.47 25.79,1.29 25.95,1.15 26.11,1.01 26.31,0.94 26.51,0.86 26.72,0.84 26.93,0.83 27.14,0.89 27.34,0.95 27.52,1.07 27.70,1.18 27.82,1.35 27.95,1.52 28.02,1.72 28.09,1.93 28.09,2.14 28.09,2.35 28.02,2.55 27.95,2.75 27.83,2.92 27.70,3.09 27.52,3.21 27.35,3.33 27.14,3.39 26.94,3.44 26.72,3.43 26.51,3.42 26.31,3.34 26.12,3.26 25.96,3.13 25.79,2.99 25.68,2.81 25.57,2.63 25.53,2.42 25.48,2.21 25.50,2.00 25.53,1.79 25.62,1.60 25.71,1.40 25.85,1.25 26.00,1.09 26.19,0.99 26.37,0.89 26.58,0.86 26.79,0.83 26.79,0.83 26.80,0.83 26.95,0.85 27.11,0.86 27.26,0.92 27.41,0.98 27.54,1.07 27.67,1.16 27.77,1.28 27.88,1.40 27.95,1.54 28.02,1.68 28.06,1.83 28.10,1.99 28.10,2.14 28.10,2.30 28.06,2.46 28.02,2.61 27.95,2.75 27.87,2.89 27.77,3.01 27.66,3.13 27.53,3.21 27.40,3.30 27.25,3.36 27.10,3.42 26.95,3.43 26.79,3.45 25.24,4.12 23.69,4.80 22.62,4.57 21.54,4.34 20.27,4.03 19.00,3.72 17.49,3.55 15.97,3.39 14.80,3.37 13.63,3.35 12.31,3.18 10.99,3.02 9.70,3.00 8.42,2.99 7.12,2.98 5.82,2.97 4.34,2.96 2.87,2.95 1.43,2.27 0,1.58 -0.18,1.56 -0.37,1.53 -0.55,1.47 -0.73,1.40 -0.89,1.29 -1.05,1.18 -1.17,1.04 -1.30,0.90 -1.39,0.73 -1.48,0.56 -1.52,0.37 -1.57,0.19 -1.57,-0.00 -1.57,-0.19 -1.52,-0.37 -1.48,-0.56 -1.39,-0.73 -1.30,-0.90 -1.17,-1.04 -1.05,-1.18 -0.89,-1.29 -0.73,-1.40 -0.55,-1.47 -0.37,-1.53 -0.18,-1.56 0.00,-1.58 0.00,-1.58 L 0,-1.58 Z"></path></g><g transform="translate(59.9243165089631 118.52302752727928) rotate(0 34.83764507747253 0.8932674985989024)" stroke="none"><path fill="#000000" d="M 0,-1.75 Q 0,-1.75 1.33,-2.32 2.67,-2.88 3.93,-2.89 5.19,-2.90 6.45,-2.93 7.71,-2.96 9.06,-2.98 10.40,-2.99 11.49,-3.13 12.58,-3.28 13.95,-3.31 15.32,-3.35 16.54,-3.35 17.76,-3.36 19.51,-3.36 21.27,-3.37 22.57,-3.37 23.86,-3.37 25.57,-3.23 27.27,-3.10 28.49,-3.07 29.70,-3.04 30.79,-2.90 31.88,-2.76 33.05,-2.61 34.22,-2.47 35.90,-2.21 37.57,-1.96 38.65,-1.85 39.74,-1.74 41.18,-1.57 42.63,-1.40 43.70,-1.21 44.77,-1.01 45.93,-1.00 47.09,-1.00 48.25,-1.00 49.42,-1.00 50.82,-1.16 52.23,-1.33 53.51,-1.51 54.79,-1.69 56.00,-1.71 57.21,-1.73 58.31,-1.73 59.40,-1.73 60.78,-1.73 62.16,-1.73 63.41,-1.70 64.67,-1.67 66.45,-0.13 68.22,1.40 68.33,1.28 68.43,1.16 68.56,1.07 68.69,0.98 68.84,0.92 68.99,0.87 69.14,0.85 69.30,0.83 69.46,0.84 69.61,0.86 69.76,0.92 69.91,0.97 70.04,1.06 70.17,1.15 70.28,1.26 70.39,1.38 70.46,1.52 70.54,1.66 70.58,1.81 70.62,1.97 70.62,2.13 70.62,2.28 70.58,2.44 70.55,2.59 70.47,2.73 70.40,2.87 70.44,2.81 70.48,2.75 70.35,2.92 70.22,3.09 70.05,3.21 69.87,3.33 69.67,3.39 69.46,3.44 69.25,3.43 69.04,3.42 68.84,3.35 68.64,3.27 68.48,3.13 68.32,3.00 68.21,2.81 68.10,2.63 68.05,2.43 68.00,2.22 68.02,2.01 68.05,1.80 68.13,1.60 68.22,1.41 68.37,1.25 68.51,1.10 68.70,1.00 68.88,0.90 69.09,0.86 69.30,0.83 69.51,0.86 69.72,0.89 69.91,0.99 70.10,1.09 70.25,1.24 70.39,1.39 70.49,1.59 70.58,1.78 70.60,1.99 70.62,2.20 70.58,2.41 70.54,2.62 70.43,2.80 70.32,2.98 70.16,3.12 70.00,3.26 69.80,3.34 69.60,3.42 69.39,3.43 69.18,3.45 68.98,3.39 68.77,3.33 68.59,3.22 68.42,3.10 68.29,2.93 68.16,2.76 68.09,2.56 68.02,2.36 68.02,2.15 68.02,1.94 68.12,1.67 68.22,1.40 68.33,1.28 68.43,1.16 68.56,1.07 68.69,0.98 68.84,0.92 68.99,0.87 69.14,0.85 69.30,0.83 69.46,0.84 69.61,0.86 69.76,0.92 69.91,0.97 70.04,1.06 70.17,1.15 70.28,1.26 70.39,1.38 70.46,1.52 70.54,1.66 70.58,1.81 70.62,1.97 70.62,2.13 70.62,2.28 70.58,2.44 70.55,2.59 70.47,2.73 70.40,2.87 69.68,3.21 68.96,3.54 67.32,4.02 65.68,4.50 64.33,4.54 62.98,4.58 61.65,4.58 60.32,4.59 59.14,4.59 57.97,4.58 56.80,4.52 55.63,4.46 53.91,4.71 52.20,4.95 50.81,5.12 49.42,5.28 48.25,5.28 47.08,5.28 45.99,5.27 44.90,5.25 43.59,5.04 42.28,4.82 40.69,4.63 39.11,4.44 37.86,4.25 36.61,4.07 35.33,3.89 34.05,3.72 32.73,3.53 31.42,3.34 30.31,3.19 29.20,3.04 27.92,2.99 26.63,2.94 25.24,2.80 23.86,2.65 22.57,2.65 21.27,2.65 19.51,2.65 17.76,2.64 16.56,2.65 15.36,2.65 13.95,2.68 12.55,2.71 11.47,2.85 10.40,2.99 9.06,2.98 7.71,2.96 6.45,2.93 5.19,2.90 3.93,2.89 2.67,2.88 1.33,2.32 0,1.75 -0.20,1.72 -0.41,1.70 -0.61,1.62 -0.81,1.55 -0.98,1.43 -1.16,1.31 -1.30,1.15 -1.44,0.99 -1.54,0.80 -1.64,0.62 -1.69,0.41 -1.74,0.21 -1.74,-0.00 -1.74,-0.21 -1.69,-0.41 -1.64,-0.62 -1.54,-0.80 -1.44,-0.99 -1.30,-1.15 -1.16,-1.31 -0.98,-1.43 -0.81,-1.55 -0.61,-1.62 -0.41,-1.70 -0.20,-1.72 0.00,-1.75 0.00,-1.75 L 0,-1.75 Z"></path></g></svg>