<svg version="1.1" xmlns="http://www.w3.org/2000/svg" viewBox="0 0 409.72526683056697 326.8647898528336" width="1229.175800491701" height="980.5943695585008">
  <!-- svg-source:excalidraw -->
  
  <defs>
    <style class="style-fonts">
      @font-face {
        font-family: "Virgil";
        src: url("https://excalidraw.com/Virgil.woff2");
      }
      @font-face {
        font-family: "Cascadia";
        src: url("https://excalidraw.com/Cascadia.woff2");
      }
    </style>
  </defs>
  <g stroke-linecap="round" transform="translate(10 10) rotate(0 194.86263341528348 153.4323949264168)"><path d="M-0.19 -0.6 C81.95 1.37, 164.04 -0.25, 389.67 0.61 M0.26 0.34 C87.52 -0.03, 175.59 -0.43, 389.5 0.32 M390.56 -0.36 C390.33 95.23, 388.69 188.47, 388.58 307.22 M390.4 0.3 C389.28 73.93, 388.98 147.61, 390.06 307.23 M389.48 307.6 C251.12 307.24, 110.94 307.39, -0.18 307.01 M389.2 306.39 C268.15 308.75, 145.42 309.25, -0.3 307.44 M-0.89 306.59 C-2.04 190.8, -1.59 74.63, -0.97 1.07 M-0.56 307.08 C-1.01 210.51, -0.23 114.62, -0.59 -0.22" stroke="transparent" stroke-width="1" fill="none"></path></g><g transform="translate(24.542961296374017 80.01464362241973) rotate(0 61.79429542378736 23.172868820049302)" stroke="none"><path fill="#000000" d="M 0,-1.59 Q 0,-1.59 2.82,-2.06 5.65,-2.53 8.26,-2.53 10.88,-2.53 12.19,-2.53 13.50,-2.53 14.68,-2.72 15.86,-2.92 16.92,-3.01 17.98,-3.10 19.07,-3.33 20.17,-3.55 22.41,-3.71 24.65,-3.88 25.85,-4.09 27.06,-4.29 29.14,-4.44 31.22,-4.59 32.54,-4.61 33.86,-4.63 35.55,-4.64 37.24,-4.65 39.13,-4.84 41.02,-5.04 42.71,-5.17 44.40,-5.30 45.97,-5.33 47.54,-5.35 48.69,-5.35 49.84,-5.36 51.20,-5.36 52.55,-5.36 54.56,-5.36 56.56,-5.36 57.86,-5.36 59.16,-5.37 60.93,-5.37 62.70,-5.37 64.27,-5.11 65.84,-4.85 67.17,-4.79 68.50,-4.73 70.00,-4.71 71.50,-4.70 73.13,-4.48 74.75,-4.26 77.14,-3.93 79.54,-3.61 81.98,-3.26 84.43,-2.92 87.35,-2.57 90.26,-2.23 91.94,-1.91 93.61,-1.59 94.97,-1.48 96.33,-1.36 97.85,-1.29 99.37,-1.22 100.69,-1.20 102.01,-1.19 103.16,-1.19 104.32,-1.19 105.42,-1.19 106.51,-1.19 107.58,-1.19 108.66,-1.19 110.00,-1.19 111.34,-1.18 112.82,-1.18 114.30,-1.18 115.51,-1.17 116.72,-1.15 117.78,-1.14 118.85,-1.13 119.96,-0.92 121.08,-0.71 122.20,0.83 123.32,2.37 123.67,3.60 124.01,4.83 124.09,6.48 124.17,8.13 124.46,9.35 124.76,10.57 124.82,11.82 124.89,13.06 124.90,14.24 124.91,15.41 125.19,17.48 125.47,19.54 125.54,21.22 125.60,22.90 125.61,24.07 125.61,25.25 125.62,26.52 125.62,27.80 125.63,29.47 125.63,31.14 125.60,32.47 125.57,33.79 125.93,35.07 126.29,36.34 126.33,37.97 126.36,39.59 126.38,40.93 126.40,42.26 126.42,43.54 126.43,44.82 126.44,46.01 126.45,47.20 126.22,48.38 125.99,49.55 124.61,50.70 123.22,51.86 122.08,51.93 120.93,52.00 119.72,52.01 118.51,52.02 116.96,52.03 115.40,52.03 114.32,52.03 113.24,52.03 112.10,52.04 110.96,52.04 109.52,52.04 108.09,52.04 106.77,52.04 105.45,52.04 104.13,52.03 102.82,52.03 101.19,51.45 99.56,50.88 98.01,50.51 96.46,50.14 95.37,48.75 94.29,47.36 94.46,45.65 94.63,43.95 94.71,42.76 94.79,41.58 95.11,40.45 95.44,39.33 95.46,36.97 95.49,34.60 95.48,33.17 95.48,31.73 96.24,29.91 96.99,28.08 97.03,27.87 97.06,27.66 97.16,27.48 97.26,27.29 97.41,27.14 97.57,27.00 97.76,26.91 97.95,26.82 98.16,26.79 98.38,26.77 98.58,26.82 98.79,26.86 98.97,26.97 99.15,27.08 99.29,27.24 99.43,27.41 99.51,27.60 99.59,27.80 99.60,28.01 99.61,28.23 99.55,28.43 99.50,28.63 99.38,28.81 99.26,28.99 99.09,29.12 98.92,29.24 98.72,29.31 98.52,29.38 98.30,29.38 98.09,29.38 97.89,29.31 97.69,29.24 97.52,29.11 97.35,28.99 97.23,28.81 97.11,28.63 97.06,28.43 97.00,28.23 97.01,28.01 97.02,27.80 97.10,27.60 97.18,27.41 97.32,27.24 97.45,27.08 97.64,26.97 97.82,26.86 98.03,26.82 98.23,26.77 98.44,26.79 98.66,26.82 98.85,26.91 99.04,27.00 99.20,27.14 99.35,27.29 99.45,27.48 99.55,27.66 99.58,27.87 99.62,28.08 99.62,28.08 99.62,28.08 100.37,29.91 101.13,31.74 101.12,33.18 101.11,34.61 101.11,36.20 101.10,37.79 101.00,39.16 100.90,40.53 100.57,42.02 100.24,43.50 99.34,44.25 98.43,44.99 99.53,45.35 100.63,45.70 101.72,45.99 102.82,46.27 104.13,46.27 105.45,46.26 106.77,46.26 108.09,46.26 109.52,46.26 110.96,46.26 112.10,46.26 113.24,46.27 114.32,46.27 115.40,46.27 116.95,46.27 118.50,46.28 119.61,46.74 120.72,47.20 120.73,46.01 120.74,44.82 120.75,43.54 120.77,42.27 120.78,40.94 120.80,39.61 120.87,37.85 120.94,36.09 120.53,34.35 120.12,32.61 120.13,31.10 120.14,29.58 120.14,28.03 120.14,26.49 120.14,25.40 120.13,24.32 120.11,23.09 120.09,21.85 120.05,20.46 120.01,19.07 119.73,17.26 119.44,15.45 119.43,14.33 119.42,13.20 119.34,11.79 119.27,10.37 118.99,8.76 118.71,7.16 118.78,5.55 118.85,3.94 117.78,3.95 116.72,3.96 115.51,3.97 114.30,3.99 112.82,3.99 111.34,3.99 110.00,3.99 108.66,4.00 107.58,4.00 106.51,4.00 105.41,3.99 104.31,3.99 103.15,3.99 101.98,3.98 100.60,3.97 99.21,3.95 97.54,3.87 95.88,3.79 94.26,3.64 92.64,3.49 91.11,3.20 89.58,2.90 87.76,2.66 85.93,2.42 84.78,2.30 83.64,2.19 81.19,1.84 78.75,1.49 76.39,1.16 74.02,0.83 72.73,0.64 71.45,0.44 69.90,0.42 68.35,0.41 66.95,0.35 65.55,0.29 64.12,0.02 62.70,-0.24 60.93,-0.24 59.16,-0.24 57.86,-0.24 56.56,-0.25 54.56,-0.25 52.56,-0.25 51.20,-0.25 49.85,-0.25 48.72,-0.24 47.60,-0.24 46.12,-0.22 44.65,-0.20 43.18,-0.09 41.72,0.02 39.49,0.23 37.26,0.44 35.59,0.46 33.93,0.47 32.67,0.48 31.40,0.50 29.64,0.61 27.87,0.73 26.35,0.97 24.82,1.20 22.98,1.32 21.14,1.44 18.87,1.78 16.61,2.11 15.06,2.32 13.51,2.53 12.19,2.53 10.88,2.53 8.26,2.53 5.65,2.53 2.82,2.06 0,1.59 -0.19,1.57 -0.38,1.55 -0.56,1.48 -0.74,1.41 -0.90,1.30 -1.06,1.19 -1.18,1.05 -1.31,0.90 -1.40,0.73 -1.49,0.56 -1.54,0.38 -1.58,0.19 -1.58,-0.00 -1.58,-0.19 -1.54,-0.38 -1.49,-0.56 -1.40,-0.73 -1.31,-0.90 -1.18,-1.05 -1.06,-1.19 -0.90,-1.30 -0.74,-1.41 -0.56,-1.48 -0.38,-1.55 -0.19,-1.57 0.00,-1.59 0.00,-1.59 L 0,-1.59 Z"></path></g><g transform="translate(75.80414183480173 108.80516835724166) rotate(0 22.821738203440816 0.35109847209275813)" stroke="none"><path fill="#000000" d="M 0,-1.76 Q 0,-1.76 2.01,-2.25 4.03,-2.74 5.70,-2.74 7.36,-2.74 8.48,-2.74 9.59,-2.75 10.67,-2.77 11.74,-2.79 13.58,-2.80 15.41,-2.82 16.78,-2.83 18.14,-2.84 19.74,-2.85 21.34,-2.86 22.70,-2.88 24.05,-2.90 26.04,-2.56 28.03,-2.22 29.63,-2.25 31.23,-2.27 32.36,-2.27 33.49,-2.26 34.72,-2.26 35.96,-2.27 37.03,-2.28 38.10,-2.29 39.50,-2.33 40.91,-2.38 42.31,-2.40 43.72,-2.41 43.27,-1.51 42.83,-0.61 42.99,-0.59 43.14,-0.57 43.29,-0.51 43.44,-0.46 43.57,-0.37 43.70,-0.28 43.81,-0.16 43.91,-0.04 43.98,0.09 44.06,0.23 44.10,0.39 44.13,0.54 44.13,0.70 44.13,0.86 44.10,1.01 44.06,1.16 43.98,1.30 43.91,1.44 43.81,1.56 43.70,1.68 43.57,1.77 43.44,1.86 43.29,1.92 43.14,1.97 42.99,1.99 42.83,2.01 42.62,1.98 42.41,1.94 42.22,1.84 42.03,1.74 41.89,1.59 41.74,1.43 41.65,1.24 41.56,1.05 41.54,0.84 41.52,0.63 41.56,0.42 41.61,0.21 41.72,0.03 41.83,-0.14 41.99,-0.28 42.15,-0.42 42.35,-0.50 42.55,-0.58 42.76,-0.59 42.97,-0.60 43.18,-0.54 43.38,-0.48 43.56,-0.37 43.73,-0.25 43.86,-0.08 43.99,0.08 44.06,0.28 44.13,0.48 44.13,0.70 44.13,0.91 44.06,1.11 43.99,1.31 43.86,1.48 43.73,1.65 43.56,1.77 43.38,1.89 43.18,1.95 42.97,2.00 42.76,1.99 42.55,1.98 42.35,1.90 42.15,1.82 41.99,1.68 41.83,1.55 41.72,1.37 41.61,1.18 41.56,0.98 41.52,0.77 41.54,0.56 41.56,0.35 41.65,0.15 41.74,-0.03 41.89,-0.18 42.04,-0.34 42.22,-0.44 42.41,-0.54 42.62,-0.57 42.83,-0.61 42.83,-0.61 42.83,-0.61 42.99,-0.59 43.14,-0.57 43.29,-0.51 43.44,-0.46 43.57,-0.37 43.70,-0.28 43.81,-0.16 43.91,-0.04 43.98,0.09 44.06,0.23 44.10,0.39 44.13,0.54 44.13,0.70 44.13,0.86 44.10,1.01 44.06,1.16 43.98,1.30 43.91,1.44 43.81,1.56 43.70,1.68 43.57,1.77 43.44,1.86 43.29,1.92 43.14,1.97 42.99,1.99 42.83,2.01 43.27,2.91 43.72,3.82 42.31,3.80 40.91,3.78 39.50,3.74 38.09,3.69 37.03,3.68 35.96,3.67 34.71,3.66 33.46,3.65 32.28,3.64 31.11,3.63 29.30,3.55 27.50,3.47 25.78,3.19 24.05,2.90 22.70,2.88 21.34,2.86 19.74,2.85 18.14,2.84 16.78,2.83 15.41,2.82 13.58,2.80 11.74,2.79 10.67,2.77 9.59,2.75 8.48,2.74 7.36,2.74 5.70,2.74 4.03,2.74 2.01,2.25 0,1.76 -0.21,1.73 -0.42,1.71 -0.62,1.63 -0.82,1.56 -0.99,1.44 -1.17,1.32 -1.31,1.16 -1.45,1.00 -1.55,0.81 -1.65,0.62 -1.70,0.41 -1.75,0.21 -1.75,-0.00 -1.75,-0.21 -1.70,-0.41 -1.65,-0.62 -1.55,-0.81 -1.45,-1.00 -1.31,-1.16 -1.17,-1.32 -0.99,-1.44 -0.82,-1.56 -0.62,-1.63 -0.42,-1.71 -0.21,-1.73 0.00,-1.76 0.00,-1.76 L 0,-1.76 Z"></path></g><g transform="translate(76.50633877898701 108.98672895157665) rotate(0 23.523967292141947 32.724743960491196)" stroke="none"><path fill="#000000" d="M 1.64,0.16 Q 1.64,0.16 1.84,2.21 2.03,4.26 1.95,5.44 1.87,6.63 1.64,8.50 1.41,10.37 1.34,11.96 1.26,13.55 1.22,15.32 1.19,17.08 1.18,19.14 1.16,21.21 1.17,22.42 1.17,23.63 1.18,25.35 1.19,27.07 1.21,28.84 1.23,30.61 1.24,31.97 1.26,33.33 1.27,35.14 1.28,36.96 3.21,36.44 5.14,35.93 7.49,35.94 9.85,35.94 11.25,35.93 12.66,35.93 15.00,36.12 17.34,36.31 18.91,36.40 20.48,36.49 21.90,36.51 23.32,36.52 24.49,36.52 25.65,36.53 27.25,36.52 28.86,36.52 30.18,36.52 31.50,36.52 33.30,36.52 35.09,36.52 37.55,36.51 40.01,36.51 41.13,36.73 42.26,36.95 43.68,37.03 45.11,37.12 46.43,37.18 47.75,37.23 48.75,37.73 49.76,38.22 50.32,39.13 50.89,40.04 50.82,41.59 50.75,43.13 50.35,44.18 49.95,45.24 49.93,46.39 49.92,47.55 49.91,49.00 49.90,50.44 49.90,52.28 49.89,54.11 49.89,55.74 49.90,57.36 49.90,58.60 49.90,59.84 49.89,61.14 49.88,62.43 49.02,63.83 48.15,65.23 46.50,65.86 44.85,66.48 42.98,66.96 41.12,67.44 39.93,67.52 38.74,67.61 37.20,67.79 35.65,67.96 34.11,68.09 32.57,68.23 31.19,68.26 29.81,68.28 28.41,68.29 27.01,68.30 25.90,68.30 24.78,68.31 23.43,68.30 22.08,68.30 20.87,68.31 19.66,68.31 18.36,68.04 17.06,67.76 15.34,67.75 13.62,67.73 12.24,67.73 10.85,67.73 9.36,67.74 7.87,67.74 6.75,67.74 5.62,67.74 4.48,67.75 3.34,67.76 0.81,66.38 -1.71,65.00 -1.82,64.82 -1.93,64.64 -1.97,64.43 -2.01,64.22 -1.98,64.01 -1.96,63.80 -1.86,63.61 -1.77,63.42 -1.62,63.26 -1.47,63.11 -1.28,63.02 -1.09,62.92 -0.88,62.89 -0.67,62.86 -0.46,62.90 -0.25,62.94 -0.07,63.04 0.11,63.14 0.25,63.30 0.39,63.46 0.48,63.65 0.56,63.85 0.58,64.06 0.60,64.27 0.55,64.48 0.50,64.68 0.39,64.86 0.28,65.04 0.11,65.18 -0.04,65.31 -0.24,65.39 -0.44,65.46 -0.65,65.47 -0.86,65.48 -1.07,65.42 -1.27,65.35 -1.45,65.23 -1.62,65.11 -1.74,64.94 -1.87,64.77 -1.93,64.56 -2.00,64.36 -1.99,64.15 -1.99,63.94 -1.92,63.74 -1.85,63.54 -1.71,63.37 -1.58,63.20 -1.40,63.09 -1.23,62.97 -1.02,62.92 -0.81,62.87 -0.60,62.88 -0.39,62.90 -0.19,62.98 -0.00,63.06 0.15,63.20 0.31,63.34 0.31,63.34 0.31,63.34 1.82,62.60 3.34,61.86 4.48,61.87 5.62,61.88 6.75,61.88 7.87,61.88 9.37,61.88 10.86,61.89 12.27,61.90 13.67,61.90 15.08,61.93 16.49,61.96 18.11,62.27 19.72,62.58 20.90,62.58 22.08,62.59 23.43,62.58 24.78,62.58 25.89,62.58 27.00,62.58 28.38,62.58 29.76,62.59 30.99,62.57 32.22,62.56 33.39,62.47 34.55,62.38 35.75,62.16 36.95,61.95 38.09,61.92 39.24,61.89 40.41,61.79 41.58,61.68 42.58,61.30 43.59,60.92 44.76,60.91 45.93,60.91 45.07,61.67 44.20,62.43 44.20,61.14 44.19,59.84 44.19,58.60 44.19,57.36 44.19,55.73 44.19,54.11 44.19,52.74 44.20,51.38 44.20,50.19 44.21,49.00 44.24,47.58 44.27,46.16 45.21,44.53 46.15,42.90 44.49,42.84 42.83,42.78 41.41,42.53 39.98,42.27 37.54,42.27 35.09,42.27 33.30,42.26 31.50,42.26 30.18,42.26 28.85,42.26 27.25,42.25 25.64,42.25 24.46,42.25 23.28,42.24 21.78,42.22 20.28,42.19 18.43,42.06 16.58,41.94 14.62,41.76 12.66,41.58 11.25,41.57 9.84,41.56 7.45,41.55 5.07,41.53 3.01,41.46 0.95,41.40 -0.80,40.96 -2.55,40.53 -3.32,38.74 -4.09,36.96 -4.07,35.14 -4.06,33.33 -4.05,31.97 -4.04,30.61 -4.02,28.84 -4.00,27.07 -3.99,25.34 -3.97,23.61 -3.96,22.39 -3.95,21.17 -3.91,19.07 -3.87,16.96 -3.82,15.10 -3.77,13.25 -3.64,11.48 -3.52,9.72 -3.27,8.00 -3.02,6.28 -2.93,5.02 -2.84,3.77 -2.24,1.80 -1.64,-0.16 -1.60,-0.35 -1.55,-0.55 -1.46,-0.73 -1.38,-0.91 -1.25,-1.06 -1.12,-1.21 -0.96,-1.33 -0.79,-1.44 -0.61,-1.52 -0.42,-1.59 -0.23,-1.62 -0.03,-1.65 0.16,-1.63 0.36,-1.61 0.55,-1.54 0.73,-1.48 0.90,-1.37 1.07,-1.26 1.20,-1.11 1.34,-0.96 1.43,-0.79 1.53,-0.61 1.58,-0.42 1.63,-0.23 1.64,-0.03 1.64,0.16 1.64,0.16 L 1.64,0.16 Z"></path></g><g transform="translate(76.50633877898701 175.51490667935832) rotate(0 34.759279121687086 36.51478755440837)" stroke="none"><path fill="#000000" d="M 1.49,0.18 Q 1.49,0.18 1.66,1.84 1.83,3.51 1.55,4.91 1.26,6.31 1.13,7.99 1.00,9.67 0.99,10.93 0.98,12.18 0.97,14.04 0.96,15.89 0.97,17.18 0.98,18.46 0.99,20.13 1.00,21.80 1.01,23.00 1.02,24.20 1.04,25.32 1.05,26.43 1.06,27.80 1.07,29.17 1.35,31.09 1.64,33.01 1.71,34.56 1.77,36.11 1.80,37.45 1.84,38.80 1.84,40.18 1.84,41.55 2.99,41.51 4.14,41.47 5.24,41.54 6.33,41.60 7.88,41.62 9.43,41.64 10.57,41.65 11.71,41.65 13.17,41.65 14.63,41.65 16.27,41.94 17.90,42.23 19.03,42.28 20.16,42.33 21.60,42.34 23.03,42.34 24.35,42.35 25.68,42.35 26.86,42.35 28.05,42.35 29.49,42.35 30.93,42.35 32.05,42.35 33.17,42.35 34.58,42.36 35.99,42.37 37.40,42.37 38.80,42.38 40.12,42.42 41.44,42.46 42.52,42.35 43.60,42.24 42.83,40.75 42.06,39.25 41.92,37.76 41.79,36.27 41.48,34.96 41.18,33.66 41.12,32.38 41.07,31.11 40.72,29.99 40.38,28.88 40.56,27.64 40.74,26.40 42.36,25.33 43.97,24.27 45.05,24.47 46.14,24.68 47.35,25.03 48.57,25.38 50.14,25.69 51.70,26.00 52.85,26.10 53.99,26.19 55.65,26.45 57.31,26.71 58.61,26.80 59.90,26.88 61.14,26.89 62.38,26.89 63.57,26.90 64.76,26.91 65.84,26.68 66.93,26.45 68.29,26.32 69.66,26.20 71.33,27.00 73.01,27.79 73.30,29.51 73.59,31.22 73.63,32.93 73.67,34.63 73.45,36.02 73.24,37.41 73.14,39.29 73.04,41.16 73.02,42.74 73.00,44.32 72.99,45.85 72.99,47.39 72.73,48.46 72.48,49.54 72.39,51.03 72.31,52.52 72.30,53.64 72.28,54.77 72.28,56.19 72.28,57.62 72.28,58.74 72.28,59.86 72.28,61.12 72.28,62.38 72.28,63.57 72.28,64.76 72.29,65.82 72.30,66.89 72.30,68.20 72.30,69.51 71.92,70.92 71.53,72.32 71.51,72.48 71.49,72.64 71.43,72.78 71.38,72.93 71.29,73.06 71.20,73.19 71.08,73.30 70.96,73.40 70.82,73.48 70.68,73.55 70.53,73.59 70.37,73.63 70.22,73.63 70.06,73.63 69.90,73.59 69.75,73.55 69.61,73.48 69.47,73.40 69.35,73.30 69.23,73.19 69.14,73.06 69.05,72.93 69.00,72.78 68.94,72.64 68.92,72.48 68.90,72.32 68.97,72.04 69.03,71.75 69.15,71.58 69.28,71.40 69.45,71.28 69.62,71.15 69.82,71.09 70.02,71.02 70.24,71.03 70.45,71.03 70.65,71.10 70.85,71.17 71.02,71.30 71.18,71.43 71.30,71.61 71.42,71.79 71.47,72.00 71.52,72.20 71.51,72.41 71.49,72.63 71.41,72.82 71.33,73.02 71.19,73.18 71.05,73.34 70.87,73.44 70.68,73.55 70.47,73.59 70.27,73.63 70.05,73.61 69.84,73.58 69.65,73.49 69.46,73.40 69.31,73.25 69.16,73.10 69.06,72.91 68.96,72.72 68.93,72.51 68.90,72.30 68.94,72.09 68.98,71.88 69.08,71.70 69.18,71.51 69.34,71.37 69.50,71.22 69.69,71.14 69.89,71.05 70.10,71.03 70.31,71.01 70.52,71.06 70.72,71.11 70.90,71.22 71.08,71.34 71.22,71.50 71.35,71.66 71.43,71.86 71.50,72.06 71.51,72.27 71.52,72.49 71.52,72.40 71.53,72.32 71.51,72.48 71.49,72.64 71.43,72.78 71.38,72.93 71.29,73.06 71.20,73.19 71.08,73.30 70.96,73.40 70.82,73.48 70.68,73.55 70.53,73.59 70.37,73.63 70.22,73.63 70.06,73.63 69.90,73.59 69.75,73.55 69.61,73.48 69.47,73.40 69.35,73.30 69.23,73.19 69.14,73.06 69.05,72.93 69.00,72.78 68.94,72.64 68.92,72.48 68.90,72.32 67.81,71.10 66.72,69.89 66.72,68.39 66.73,66.89 66.73,65.82 66.74,64.76 66.74,63.57 66.74,62.38 66.74,61.12 66.74,59.85 66.74,58.74 66.74,57.62 66.75,56.18 66.75,54.74 66.76,53.56 66.77,52.38 66.83,51.13 66.89,49.87 67.17,48.60 67.45,47.32 67.45,45.80 67.45,44.28 67.47,42.64 67.50,41.00 67.54,39.72 67.58,38.45 67.86,36.57 68.13,34.70 67.93,33.17 67.73,31.65 66.60,31.86 65.47,32.07 64.36,32.07 63.25,32.07 61.89,32.08 60.54,32.08 59.34,32.05 58.14,32.01 56.65,31.68 55.15,31.35 53.83,31.32 52.50,31.29 51.32,31.10 50.15,30.91 48.92,30.67 47.70,30.44 46.55,29.40 45.39,28.36 45.72,29.55 46.05,30.75 46.10,31.87 46.16,33.00 46.47,34.48 46.79,35.97 46.89,37.16 46.99,38.35 47.19,40.34 47.38,42.33 47.07,43.77 46.75,45.20 45.36,45.96 43.97,46.72 42.87,47.07 41.78,47.42 40.29,47.46 38.80,47.50 37.40,47.50 35.99,47.51 34.58,47.51 33.17,47.52 32.05,47.52 30.93,47.52 29.49,47.52 28.05,47.52 26.86,47.52 25.67,47.52 24.34,47.52 23.01,47.52 21.52,47.51 20.04,47.50 18.72,47.44 17.40,47.39 15.98,47.10 14.56,46.81 13.13,46.81 11.70,46.81 10.54,46.81 9.38,46.80 7.75,46.77 6.12,46.75 4.91,46.68 3.70,46.61 2.07,46.22 0.43,45.83 -0.56,45.44 -1.56,45.05 -2.41,43.67 -3.26,42.29 -3.25,41.10 -3.25,39.92 -3.24,38.56 -3.23,37.20 -3.24,36.03 -3.25,34.87 -3.33,33.62 -3.40,32.38 -3.64,30.78 -3.87,29.17 -3.87,27.80 -3.86,26.43 -3.84,25.32 -3.83,24.20 -3.82,23.00 -3.80,21.80 -3.79,20.13 -3.78,18.45 -3.77,17.17 -3.76,15.88 -3.74,13.99 -3.72,12.10 -3.69,10.78 -3.66,9.46 -3.44,7.38 -3.22,5.31 -2.93,4.13 -2.64,2.94 -2.07,1.38 -1.49,-0.18 -1.45,-0.36 -1.40,-0.54 -1.32,-0.70 -1.23,-0.86 -1.11,-0.99 -0.99,-1.13 -0.84,-1.23 -0.69,-1.33 -0.52,-1.40 -0.35,-1.46 -0.17,-1.48 0.00,-1.50 0.18,-1.48 0.36,-1.46 0.53,-1.39 0.70,-1.33 0.85,-1.22 1.00,-1.12 1.12,-0.98 1.24,-0.85 1.32,-0.69 1.41,-0.52 1.45,-0.35 1.49,-0.17 1.49,0.00 1.49,0.18 1.49,0.18 L 1.49,0.18 Z"></path></g><g transform="translate(25.947387329260494 77.20582370116244) rotate(0 6.670967403308566 86.0204435878569)" stroke="none"><path fill="#000000" d="M 1.35,0 Q 1.35,0 1.89,2.42 2.43,4.84 2.43,6.07 2.43,7.30 2.43,8.63 2.44,9.97 2.44,11.34 2.44,12.71 2.44,14.23 2.44,15.76 2.22,17.92 2.00,20.08 1.91,21.29 1.82,22.51 1.80,23.96 1.78,25.40 3.14,25.28 4.50,25.16 5.94,25.19 7.39,25.22 8.68,25.22 9.97,25.22 11.57,25.54 13.16,25.87 14.34,26.67 15.52,27.47 15.95,28.49 16.39,29.50 16.77,30.94 17.14,32.38 17.37,34.18 17.61,35.98 17.64,37.18 17.66,38.37 17.67,39.53 17.67,40.70 17.66,42.05 17.65,43.40 17.65,44.52 17.65,45.64 17.64,47.47 17.64,49.30 17.38,51.04 17.13,52.78 17.04,54.36 16.94,55.94 16.93,57.01 16.92,58.09 16.91,59.63 16.91,61.18 16.90,62.90 16.90,64.62 16.90,66.37 16.90,68.11 16.90,69.58 16.90,71.05 16.88,72.35 16.87,73.65 16.87,74.95 16.87,76.25 16.86,77.34 16.86,78.44 16.84,80.28 16.82,82.12 16.80,83.40 16.77,84.68 16.77,85.78 16.76,86.87 16.76,88.22 16.76,89.57 16.49,91.09 16.23,92.62 16.17,93.90 16.11,95.18 16.08,96.29 16.06,97.40 16.06,98.66 16.05,99.93 16.05,101.48 16.05,103.03 16.05,104.86 16.05,106.70 16.06,108.55 16.06,110.41 16.06,112.10 16.05,113.78 16.05,115.61 16.05,117.44 15.82,119.15 15.58,120.87 15.50,122.11 15.41,123.35 15.39,124.43 15.37,125.50 15.37,126.85 15.36,128.19 15.36,129.67 15.36,131.15 15.36,132.36 15.36,133.57 15.36,134.96 15.36,136.35 15.36,137.57 15.36,138.78 15.34,139.89 15.33,140.99 15.65,142.07 15.97,143.14 15.78,144.42 15.59,145.69 14.27,146.82 12.95,147.95 11.64,148.30 10.32,148.64 8.74,149.21 7.17,149.77 5.66,150.28 4.15,150.79 3.05,151.16 1.96,151.52 1.71,153.17 1.46,154.82 1.46,155.95 1.46,157.08 1.49,158.63 1.51,160.19 1.52,161.50 1.52,162.82 1.53,164.32 1.54,165.83 1.55,167.44 1.56,169.05 1.08,169.84 0.61,170.63 0.59,170.79 0.57,170.95 0.51,171.09 0.46,171.24 0.37,171.37 0.28,171.50 0.16,171.61 0.04,171.71 -0.09,171.79 -0.23,171.86 -0.39,171.90 -0.54,171.94 -0.70,171.94 -0.86,171.94 -1.01,171.90 -1.16,171.86 -1.30,171.79 -1.44,171.71 -1.56,171.61 -1.68,171.50 -1.77,171.37 -1.86,171.24 -1.92,171.09 -1.97,170.95 -1.99,170.79 -2.01,170.63 -1.86,170.21 -1.71,169.79 -1.54,169.65 -1.38,169.51 -1.19,169.43 -0.99,169.35 -0.78,169.34 -0.57,169.32 -0.36,169.38 -0.16,169.43 0.01,169.55 0.19,169.67 0.32,169.84 0.45,170.01 0.52,170.21 0.59,170.41 0.59,170.62 0.59,170.83 0.52,171.03 0.46,171.24 0.33,171.41 0.20,171.58 0.03,171.70 -0.14,171.82 -0.34,171.88 -0.54,171.94 -0.76,171.93 -0.97,171.92 -1.17,171.84 -1.36,171.76 -1.53,171.63 -1.69,171.49 -1.80,171.31 -1.91,171.13 -1.96,170.92 -2.01,170.71 -1.99,170.50 -1.97,170.29 -1.88,170.10 -1.79,169.90 -1.65,169.75 -1.50,169.59 -1.31,169.49 -1.13,169.39 -0.92,169.35 -0.71,169.32 -0.50,169.35 -0.29,169.38 -0.10,169.48 0.08,169.58 0.23,169.73 0.37,169.89 0.46,170.08 0.56,170.27 0.58,170.48 0.60,170.69 0.56,170.90 0.52,171.11 0.56,170.87 0.61,170.63 0.59,170.79 0.57,170.95 0.51,171.09 0.46,171.24 0.37,171.37 0.28,171.50 0.16,171.61 0.04,171.71 -0.09,171.79 -0.23,171.86 -0.39,171.90 -0.54,171.94 -0.70,171.94 -0.86,171.94 -1.01,171.90 -1.16,171.86 -1.30,171.79 -1.44,171.71 -1.56,171.61 -1.68,171.50 -1.77,171.37 -1.86,171.24 -1.92,171.09 -1.97,170.95 -1.99,170.79 -2.01,170.63 -3.19,169.84 -4.37,169.05 -4.36,167.44 -4.35,165.83 -4.34,164.32 -4.33,162.82 -4.32,161.50 -4.32,160.19 -4.30,158.63 -4.27,157.07 -4.26,155.92 -4.25,154.78 -4.23,153.18 -4.20,151.57 -3.91,150.05 -3.62,148.52 -2.85,147.77 -2.08,147.01 -1.00,146.49 0.07,145.97 1.13,145.62 2.19,145.26 3.34,144.86 4.49,144.46 5.63,144.24 6.76,144.02 8.68,143.57 10.60,143.12 10.26,141.63 9.91,140.14 9.91,138.81 9.91,137.49 9.91,136.09 9.91,134.69 9.91,133.37 9.91,132.05 9.91,130.61 9.91,129.17 9.91,127.98 9.91,126.80 9.92,125.47 9.93,124.15 9.99,122.80 10.06,121.45 10.34,119.99 10.61,118.53 10.62,117.16 10.62,115.79 10.62,113.86 10.62,111.93 10.62,110.33 10.62,108.74 10.62,106.74 10.62,104.75 10.62,103.28 10.62,101.82 10.62,100.06 10.62,98.30 10.64,97.17 10.65,96.04 10.70,94.64 10.76,93.24 11.04,91.41 11.32,89.57 11.32,88.22 11.31,86.87 11.31,85.78 11.30,84.68 11.28,83.40 11.26,82.12 11.24,80.28 11.22,78.44 11.22,77.34 11.21,76.25 11.21,74.95 11.21,73.65 11.20,72.35 11.18,71.05 11.18,69.58 11.18,68.11 11.18,66.37 11.18,64.62 11.18,62.90 11.17,61.18 11.17,59.62 11.17,58.06 11.17,56.94 11.18,55.81 11.25,54.31 11.33,52.80 11.59,51.60 11.86,50.41 11.85,49.00 11.84,47.60 11.84,46.14 11.83,44.69 11.83,43.48 11.82,42.28 11.81,41.02 11.80,39.75 11.79,38.52 11.78,37.29 11.69,35.82 11.60,34.34 10.78,32.65 9.96,30.95 8.63,30.93 7.30,30.92 5.76,30.87 4.22,30.82 2.80,30.73 1.37,30.65 0.04,30.19 -1.27,29.73 -2.23,28.29 -3.18,26.84 -3.17,25.69 -3.17,24.54 -3.14,23.36 -3.11,22.19 -2.96,20.64 -2.81,19.10 -2.62,17.43 -2.44,15.76 -2.44,14.23 -2.44,12.71 -2.44,11.34 -2.44,9.97 -2.43,8.63 -2.43,7.30 -2.43,6.07 -2.43,4.84 -1.89,2.42 -1.35,0 -1.33,-0.16 -1.31,-0.32 -1.25,-0.47 -1.19,-0.62 -1.10,-0.76 -1.01,-0.89 -0.88,-1.00 -0.76,-1.11 -0.62,-1.18 -0.47,-1.26 -0.32,-1.30 -0.16,-1.34 0.00,-1.34 0.16,-1.34 0.32,-1.30 0.47,-1.26 0.62,-1.18 0.76,-1.11 0.88,-1.00 1.01,-0.89 1.10,-0.76 1.19,-0.62 1.25,-0.47 1.31,-0.32 1.33,-0.16 1.35,0.00 1.35,0.00 L 1.35,0 Z"></path></g><g transform="translate(24.542961296374017 246.4378588111033) rotate(0 61.443180879436824 1.4044260328864766)" stroke="none"><path fill="#000000" d="M 0.19,-1.52 Q 0.19,-1.52 1.88,-1.96 3.58,-2.40 5.34,-2.12 7.09,-1.83 8.31,-1.74 9.53,-1.65 11.13,-1.60 12.73,-1.55 14.78,-1.27 16.82,-0.99 18.28,-0.94 19.73,-0.89 21.17,-0.88 22.61,-0.86 24.19,-0.87 25.77,-0.87 27.34,-0.88 28.90,-0.89 30.04,-0.64 31.19,-0.40 32.44,-0.33 33.70,-0.25 34.77,-0.24 35.84,-0.23 37.09,-0.22 38.34,-0.22 39.44,-0.22 40.53,-0.22 41.67,-0.22 42.82,-0.22 44.09,-0.22 45.36,-0.23 46.45,-0.23 47.55,-0.24 49.04,-0.52 50.53,-0.81 51.77,-0.88 53.02,-0.95 54.91,-0.97 56.81,-1.00 58.30,-1.01 59.80,-1.03 61.22,-1.03 62.64,-1.04 64.42,-1.04 66.20,-1.04 68.16,-1.04 70.13,-1.04 71.80,-1.05 73.48,-1.05 74.65,-1.05 75.81,-1.05 77.45,-1.05 79.09,-1.05 80.95,-1.04 82.81,-1.04 84.18,-1.05 85.55,-1.05 87.03,-1.05 88.51,-1.06 89.78,-1.05 91.05,-1.04 92.16,-0.78 93.27,-0.52 94.45,-0.44 95.62,-0.37 97.39,-0.36 99.16,-0.35 100.45,-0.35 101.74,-0.36 102.84,-0.36 103.93,-0.36 105.39,-0.36 106.85,-0.36 107.93,-0.36 109.02,-0.37 110.27,-0.37 111.53,-0.37 113.25,-0.38 114.97,-0.38 116.40,-0.39 117.83,-0.39 119.03,-0.40 120.23,-0.40 120.90,0.09 121.57,0.59 121.62,0.38 121.68,0.18 121.79,0.00 121.91,-0.17 122.07,-0.30 122.24,-0.44 122.44,-0.51 122.64,-0.58 122.85,-0.59 123.06,-0.59 123.26,-0.53 123.47,-0.47 123.64,-0.34 123.81,-0.22 123.94,-0.05 124.06,0.12 124.12,0.32 124.18,0.52 124.18,0.74 124.17,0.95 124.10,1.15 124.02,1.35 123.89,1.51 123.76,1.68 123.58,1.79 123.40,1.90 123.19,1.96 122.99,2.01 122.77,1.99 122.56,1.97 122.37,1.89 122.17,1.80 122.01,1.66 121.86,1.52 121.75,1.33 121.65,1.15 121.61,0.94 121.57,0.73 121.60,0.52 121.63,0.31 121.72,0.12 121.82,-0.06 121.97,-0.21 122.12,-0.36 122.31,-0.46 122.50,-0.55 122.71,-0.58 122.92,-0.61 123.13,-0.57 123.34,-0.52 123.52,-0.42 123.71,-0.31 123.85,-0.16 123.99,-0.00 124.07,0.19 124.16,0.38 124.17,0.60 124.19,0.81 124.19,0.81 124.19,0.81 122.21,3.41 120.23,6.02 119.03,6.01 117.83,6.01 116.40,6.00 114.97,6.00 113.89,6.00 112.81,5.99 111.26,5.99 109.72,5.99 108.65,5.98 107.59,5.98 106.36,5.98 105.14,5.98 104.07,5.98 102.99,5.97 101.84,5.97 100.68,5.97 99.06,5.97 97.44,5.96 95.92,5.93 94.40,5.91 92.69,5.58 90.98,5.25 89.74,5.26 88.51,5.27 87.03,5.27 85.55,5.26 84.18,5.26 82.81,5.26 80.95,5.26 79.09,5.26 77.45,5.26 75.81,5.26 74.65,5.26 73.48,5.27 71.80,5.26 70.13,5.26 68.17,5.26 66.20,5.26 64.42,5.25 62.64,5.25 61.23,5.25 59.81,5.25 58.33,5.24 56.85,5.23 55.04,5.25 53.22,5.27 51.21,5.51 49.21,5.75 47.77,5.80 46.33,5.85 45.18,5.85 44.04,5.84 42.94,5.84 41.85,5.84 40.58,5.84 39.30,5.84 38.15,5.84 37.00,5.83 35.88,5.81 34.76,5.80 33.40,5.74 32.04,5.68 30.45,5.39 28.85,5.10 27.31,5.09 25.76,5.08 24.16,5.07 22.56,5.06 21.03,5.02 19.51,4.99 18.44,4.95 17.37,4.90 16.20,4.75 15.02,4.59 13.81,4.44 12.59,4.29 10.80,4.19 9.00,4.09 7.57,3.94 6.14,3.79 4.51,3.50 2.87,3.21 1.34,2.37 -0.19,1.52 -0.37,1.48 -0.55,1.43 -0.71,1.35 -0.88,1.26 -1.01,1.14 -1.15,1.01 -1.26,0.86 -1.36,0.71 -1.43,0.53 -1.49,0.36 -1.51,0.17 -1.54,-0.00 -1.51,-0.18 -1.49,-0.37 -1.42,-0.54 -1.36,-0.72 -1.25,-0.87 -1.15,-1.02 -1.01,-1.14 -0.87,-1.27 -0.70,-1.35 -0.54,-1.44 -0.36,-1.48 -0.18,-1.53 0.00,-1.53 0.19,-1.52 0.19,-1.52 L 0.19,-1.52 Z"></path></g><g transform="translate(121.902835223946 110.52241551739348) rotate(0 -4.336053800943773 0)" stroke="none"><path fill="#000000" d="M 0,1.64 Q 0,1.64 -1.86,2.32 -3.73,3.00 -6.20,3.00 -8.67,3.00 -9.15,2.92 -9.63,2.84 -10.06,2.62 -10.49,2.39 -10.82,2.03 -11.15,1.68 -11.36,1.24 -11.56,0.80 -11.62,0.32 -11.67,-0.16 -11.56,-0.63 -11.46,-1.11 -11.21,-1.52 -10.96,-1.94 -10.59,-2.26 -10.22,-2.57 -9.76,-2.75 -9.31,-2.93 -8.83,-2.96 -8.34,-2.98 -7.87,-2.85 -7.40,-2.72 -7.00,-2.45 -6.60,-2.18 -6.31,-1.79 -6.01,-1.40 -5.86,-0.94 -5.70,-0.48 -5.70,0.00 -5.70,0.48 -5.86,0.94 -6.01,1.40 -6.31,1.79 -6.60,2.18 -7.00,2.45 -7.41,2.72 -7.87,2.85 -8.34,2.98 -8.83,2.96 -9.31,2.93 -9.77,2.75 -10.22,2.57 -10.59,2.25 -10.96,1.94 -11.21,1.52 -11.46,1.11 -11.56,0.63 -11.67,0.16 -11.62,-0.32 -11.56,-0.80 -11.36,-1.24 -11.15,-1.68 -10.82,-2.04 -10.49,-2.39 -10.06,-2.62 -9.63,-2.84 -9.15,-2.92 -8.67,-3.00 -8.67,-3.00 -8.67,-3.00 -6.20,-3.00 -3.73,-3.00 -1.86,-2.32 0,-1.64 0.19,-1.62 0.39,-1.59 0.57,-1.52 0.76,-1.45 0.92,-1.34 1.09,-1.23 1.22,-1.08 1.35,-0.93 1.44,-0.75 1.53,-0.58 1.58,-0.39 1.63,-0.19 1.63,0.00 1.63,0.19 1.58,0.39 1.53,0.58 1.44,0.75 1.35,0.93 1.22,1.08 1.09,1.23 0.92,1.34 0.76,1.45 0.57,1.52 0.39,1.59 0.19,1.62 -0.00,1.64 -0.00,1.64 L 0,1.64 Z"></path></g><g transform="translate(117.71630523989563 109.02721841514881) rotate(0 1.9437480195800845 -0.14951697244509887)" stroke="none"><path fill="#000000" d="M 0,-1.67 Q 0,-1.67 1.78,-1.62 3.57,-1.57 3.78,-1.59 3.99,-1.60 4.20,-1.55 4.41,-1.50 4.58,-1.38 4.76,-1.27 4.90,-1.10 5.03,-0.94 5.10,-0.74 5.17,-0.54 5.18,-0.33 5.18,-0.11 5.12,0.08 5.06,0.28 4.93,0.46 4.81,0.63 4.64,0.75 4.46,0.87 4.26,0.94 4.06,1.00 3.84,0.99 3.63,0.98 3.43,0.91 3.23,0.84 3.07,0.70 2.90,0.57 2.79,0.39 2.67,0.21 2.62,0.00 2.57,-0.19 2.59,-0.40 2.61,-0.62 2.69,-0.81 2.78,-1.00 2.92,-1.16 3.06,-1.32 3.25,-1.42 3.43,-1.53 3.64,-1.57 3.85,-1.61 4.06,-1.58 4.27,-1.55 4.46,-1.45 4.65,-1.36 4.80,-1.21 4.95,-1.06 5.05,-0.87 5.14,-0.68 5.17,-0.46 5.20,-0.25 5.15,-0.05 5.11,0.15 5.01,0.34 4.90,0.52 4.74,0.66 4.59,0.80 4.39,0.89 4.20,0.97 4.20,0.97 4.20,0.97 2.10,1.32 0,1.67 -0.20,1.65 -0.40,1.63 -0.59,1.55 -0.78,1.48 -0.94,1.37 -1.11,1.25 -1.24,1.10 -1.38,0.95 -1.47,0.77 -1.57,0.59 -1.61,0.39 -1.66,0.20 -1.66,-0.00 -1.66,-0.20 -1.61,-0.39 -1.57,-0.59 -1.47,-0.77 -1.38,-0.95 -1.24,-1.10 -1.11,-1.25 -0.94,-1.37 -0.78,-1.48 -0.59,-1.55 -0.40,-1.63 -0.20,-1.65 0.00,-1.67 0.00,-1.67 L 0,-1.67 Z"></path></g><g transform="translate(247.70716159154995 81.51932035109644) rotate(0 61.79429542378733 23.172868820049302)" stroke="none"><path fill="#000000" d="M 0,-1.59 Q 0,-1.59 2.82,-2.06 5.65,-2.53 8.26,-2.53 10.88,-2.53 12.19,-2.53 13.50,-2.53 14.68,-2.72 15.86,-2.92 16.92,-3.01 17.98,-3.10 19.07,-3.33 20.17,-3.55 22.41,-3.71 24.65,-3.88 25.85,-4.09 27.06,-4.29 29.14,-4.44 31.22,-4.59 32.54,-4.61 33.86,-4.63 35.55,-4.64 37.24,-4.65 39.13,-4.84 41.02,-5.04 42.71,-5.17 44.40,-5.30 45.97,-5.33 47.54,-5.35 48.69,-5.35 49.84,-5.36 51.20,-5.36 52.55,-5.36 54.56,-5.36 56.56,-5.36 57.86,-5.36 59.16,-5.37 60.93,-5.37 62.70,-5.37 64.27,-5.11 65.84,-4.85 67.17,-4.79 68.50,-4.73 70.00,-4.71 71.50,-4.70 73.13,-4.48 74.75,-4.26 77.14,-3.93 79.54,-3.61 81.98,-3.26 84.43,-2.92 87.35,-2.57 90.26,-2.23 91.94,-1.91 93.61,-1.59 94.97,-1.48 96.33,-1.36 97.85,-1.29 99.37,-1.22 100.69,-1.20 102.01,-1.19 103.16,-1.19 104.32,-1.19 105.42,-1.19 106.51,-1.19 107.58,-1.19 108.66,-1.19 110.00,-1.19 111.34,-1.18 112.82,-1.18 114.30,-1.18 115.51,-1.17 116.72,-1.15 117.78,-1.14 118.85,-1.13 119.96,-0.92 121.08,-0.71 122.20,0.83 123.32,2.37 123.67,3.60 124.01,4.83 124.09,6.48 124.17,8.13 124.46,9.35 124.76,10.57 124.82,11.82 124.89,13.06 124.90,14.24 124.91,15.41 125.19,17.48 125.47,19.54 125.54,21.22 125.60,22.90 125.61,24.07 125.61,25.25 125.62,26.52 125.62,27.80 125.63,29.47 125.63,31.14 125.60,32.47 125.57,33.79 125.93,35.07 126.29,36.34 126.33,37.97 126.36,39.59 126.38,40.93 126.40,42.26 126.42,43.54 126.43,44.82 126.44,46.01 126.45,47.20 126.22,48.38 125.99,49.55 124.61,50.70 123.22,51.86 122.08,51.93 120.93,52.00 119.72,52.01 118.51,52.02 116.96,52.03 115.40,52.03 114.32,52.03 113.24,52.03 112.10,52.04 110.96,52.04 109.52,52.04 108.09,52.04 106.77,52.04 105.45,52.04 104.13,52.03 102.82,52.03 101.19,51.45 99.56,50.88 98.01,50.51 96.46,50.14 95.37,48.75 94.29,47.36 94.46,45.65 94.63,43.95 94.71,42.76 94.79,41.58 95.11,40.45 95.44,39.33 95.46,36.97 95.49,34.60 95.48,33.17 95.48,31.73 96.24,29.91 96.99,28.08 97.03,27.87 97.06,27.66 97.16,27.48 97.26,27.29 97.41,27.14 97.57,27.00 97.76,26.91 97.95,26.82 98.16,26.79 98.38,26.77 98.58,26.82 98.79,26.86 98.97,26.97 99.15,27.08 99.29,27.24 99.43,27.41 99.51,27.60 99.59,27.80 99.60,28.01 99.61,28.23 99.55,28.43 99.50,28.63 99.38,28.81 99.26,28.99 99.09,29.12 98.92,29.24 98.72,29.31 98.52,29.38 98.30,29.38 98.09,29.38 97.89,29.31 97.69,29.24 97.52,29.11 97.35,28.99 97.23,28.81 97.11,28.63 97.06,28.43 97.00,28.23 97.01,28.01 97.02,27.80 97.10,27.60 97.18,27.41 97.32,27.24 97.45,27.08 97.64,26.97 97.82,26.86 98.03,26.82 98.23,26.77 98.44,26.79 98.66,26.82 98.85,26.91 99.04,27.00 99.20,27.14 99.35,27.29 99.45,27.48 99.55,27.66 99.58,27.87 99.62,28.08 99.62,28.08 99.62,28.08 100.37,29.91 101.13,31.74 101.12,33.18 101.11,34.61 101.11,36.20 101.10,37.79 101.00,39.16 100.90,40.53 100.57,42.02 100.24,43.50 99.34,44.25 98.43,44.99 99.53,45.35 100.63,45.70 101.72,45.99 102.82,46.27 104.13,46.27 105.45,46.26 106.77,46.26 108.09,46.26 109.52,46.26 110.96,46.26 112.10,46.26 113.24,46.27 114.32,46.27 115.40,46.27 116.95,46.27 118.50,46.28 119.61,46.74 120.72,47.20 120.73,46.01 120.74,44.82 120.75,43.54 120.77,42.27 120.78,40.94 120.80,39.61 120.87,37.85 120.94,36.09 120.53,34.35 120.12,32.61 120.13,31.10 120.14,29.58 120.14,28.03 120.14,26.49 120.14,25.40 120.13,24.32 120.11,23.09 120.09,21.85 120.05,20.46 120.01,19.07 119.73,17.26 119.44,15.45 119.43,14.33 119.42,13.20 119.34,11.79 119.27,10.37 118.99,8.76 118.71,7.16 118.78,5.55 118.85,3.94 117.78,3.95 116.72,3.96 115.51,3.97 114.30,3.99 112.82,3.99 111.34,3.99 110.00,3.99 108.66,4.00 107.58,4.00 106.51,4.00 105.41,3.99 104.31,3.99 103.15,3.99 101.98,3.98 100.60,3.97 99.21,3.95 97.54,3.87 95.88,3.79 94.26,3.64 92.64,3.49 91.11,3.20 89.58,2.90 87.76,2.66 85.93,2.42 84.78,2.30 83.64,2.19 81.19,1.84 78.75,1.49 76.39,1.16 74.02,0.83 72.73,0.64 71.45,0.44 69.90,0.42 68.35,0.41 66.95,0.35 65.55,0.29 64.12,0.02 62.70,-0.24 60.93,-0.24 59.16,-0.24 57.86,-0.24 56.56,-0.25 54.56,-0.25 52.56,-0.25 51.20,-0.25 49.85,-0.25 48.72,-0.24 47.60,-0.24 46.12,-0.22 44.65,-0.20 43.18,-0.09 41.72,0.02 39.49,0.23 37.26,0.44 35.59,0.46 33.93,0.47 32.67,0.48 31.40,0.50 29.64,0.61 27.87,0.73 26.35,0.97 24.82,1.20 22.98,1.32 21.14,1.44 18.87,1.78 16.61,2.11 15.06,2.32 13.51,2.53 12.19,2.53 10.88,2.53 8.26,2.53 5.65,2.53 2.82,2.06 0,1.59 -0.19,1.57 -0.38,1.55 -0.56,1.48 -0.74,1.41 -0.90,1.30 -1.06,1.19 -1.18,1.05 -1.31,0.90 -1.40,0.73 -1.49,0.56 -1.54,0.38 -1.58,0.19 -1.58,-0.00 -1.58,-0.19 -1.54,-0.38 -1.49,-0.56 -1.40,-0.73 -1.31,-0.90 -1.18,-1.05 -1.06,-1.19 -0.90,-1.30 -0.74,-1.41 -0.56,-1.48 -0.38,-1.55 -0.19,-1.57 0.00,-1.59 0.00,-1.59 L 0,-1.59 Z"></path></g><g transform="translate(298.9683421299776 110.30984508591837) rotate(0 22.821738203440816 0.35109847209275813)" stroke="none"><path fill="#000000" d="M 0,-1.76 Q 0,-1.76 2.01,-2.25 4.03,-2.74 5.70,-2.74 7.36,-2.74 8.48,-2.74 9.59,-2.75 10.67,-2.77 11.74,-2.79 13.58,-2.80 15.41,-2.82 16.78,-2.83 18.14,-2.84 19.74,-2.85 21.34,-2.86 22.70,-2.88 24.05,-2.90 26.04,-2.56 28.03,-2.22 29.63,-2.25 31.23,-2.27 32.36,-2.27 33.49,-2.26 34.72,-2.26 35.96,-2.27 37.03,-2.28 38.10,-2.29 39.50,-2.33 40.91,-2.38 42.31,-2.40 43.72,-2.41 43.27,-1.51 42.83,-0.61 42.99,-0.59 43.14,-0.57 43.29,-0.51 43.44,-0.46 43.57,-0.37 43.70,-0.28 43.81,-0.16 43.91,-0.04 43.98,0.09 44.06,0.23 44.10,0.39 44.13,0.54 44.13,0.70 44.13,0.86 44.10,1.01 44.06,1.16 43.98,1.30 43.91,1.44 43.81,1.56 43.70,1.68 43.57,1.77 43.44,1.86 43.29,1.92 43.14,1.97 42.99,1.99 42.83,2.01 42.62,1.98 42.41,1.94 42.22,1.84 42.03,1.74 41.89,1.59 41.74,1.43 41.65,1.24 41.56,1.05 41.54,0.84 41.52,0.63 41.56,0.42 41.61,0.21 41.72,0.03 41.83,-0.14 41.99,-0.28 42.15,-0.42 42.35,-0.50 42.55,-0.58 42.76,-0.59 42.97,-0.60 43.18,-0.54 43.38,-0.48 43.56,-0.37 43.73,-0.25 43.86,-0.08 43.99,0.08 44.06,0.28 44.13,0.48 44.13,0.70 44.13,0.91 44.06,1.11 43.99,1.31 43.86,1.48 43.73,1.65 43.56,1.77 43.38,1.89 43.18,1.95 42.97,2.00 42.76,1.99 42.55,1.98 42.35,1.90 42.15,1.82 41.99,1.68 41.83,1.55 41.72,1.37 41.61,1.18 41.56,0.98 41.52,0.77 41.54,0.56 41.56,0.35 41.65,0.15 41.74,-0.03 41.89,-0.18 42.04,-0.34 42.22,-0.44 42.41,-0.54 42.62,-0.57 42.83,-0.61 42.83,-0.61 42.83,-0.61 42.99,-0.59 43.14,-0.57 43.29,-0.51 43.44,-0.46 43.57,-0.37 43.70,-0.28 43.81,-0.16 43.91,-0.04 43.98,0.09 44.06,0.23 44.10,0.39 44.13,0.54 44.13,0.70 44.13,0.86 44.10,1.01 44.06,1.16 43.98,1.30 43.91,1.44 43.81,1.56 43.70,1.68 43.57,1.77 43.44,1.86 43.29,1.92 43.14,1.97 42.99,1.99 42.83,2.01 43.27,2.91 43.72,3.82 42.31,3.80 40.91,3.78 39.50,3.74 38.09,3.69 37.03,3.68 35.96,3.67 34.71,3.66 33.46,3.65 32.28,3.64 31.11,3.63 29.30,3.55 27.50,3.47 25.78,3.19 24.05,2.90 22.70,2.88 21.34,2.86 19.74,2.85 18.14,2.84 16.78,2.83 15.41,2.82 13.58,2.80 11.74,2.79 10.67,2.77 9.59,2.75 8.48,2.74 7.36,2.74 5.70,2.74 4.03,2.74 2.01,2.25 0,1.76 -0.21,1.73 -0.42,1.71 -0.62,1.63 -0.82,1.56 -0.99,1.44 -1.17,1.32 -1.31,1.16 -1.45,1.00 -1.55,0.81 -1.65,0.62 -1.70,0.41 -1.75,0.21 -1.75,-0.00 -1.75,-0.21 -1.70,-0.41 -1.65,-0.62 -1.55,-0.81 -1.45,-1.00 -1.31,-1.16 -1.17,-1.32 -0.99,-1.44 -0.82,-1.56 -0.62,-1.63 -0.42,-1.71 -0.21,-1.73 0.00,-1.76 0.00,-1.76 L 0,-1.76 Z"></path></g><g transform="translate(299.6705390741629 110.49140568025337) rotate(0 23.523967292141947 32.724743960491196)" stroke="none"><path fill="#000000" d="M 1.64,0.16 Q 1.64,0.16 1.84,2.21 2.03,4.26 1.95,5.44 1.87,6.63 1.64,8.50 1.41,10.37 1.34,11.96 1.26,13.55 1.22,15.32 1.19,17.08 1.18,19.14 1.16,21.21 1.17,22.42 1.17,23.63 1.18,25.35 1.19,27.07 1.21,28.84 1.23,30.61 1.24,31.97 1.26,33.33 1.27,35.14 1.28,36.96 3.21,36.44 5.14,35.93 7.49,35.94 9.85,35.94 11.25,35.93 12.66,35.93 15.00,36.12 17.34,36.31 18.91,36.40 20.48,36.49 21.90,36.51 23.32,36.52 24.49,36.52 25.65,36.53 27.25,36.52 28.86,36.52 30.18,36.52 31.50,36.52 33.30,36.52 35.09,36.52 37.55,36.51 40.01,36.51 41.13,36.73 42.26,36.95 43.68,37.03 45.11,37.12 46.43,37.18 47.75,37.23 48.75,37.73 49.76,38.22 50.32,39.13 50.89,40.04 50.82,41.59 50.75,43.13 50.35,44.18 49.95,45.24 49.93,46.39 49.92,47.55 49.91,49.00 49.90,50.44 49.90,52.28 49.89,54.11 49.89,55.74 49.90,57.36 49.90,58.60 49.90,59.84 49.89,61.14 49.88,62.43 49.02,63.83 48.15,65.23 46.50,65.86 44.85,66.48 42.98,66.96 41.12,67.44 39.93,67.52 38.74,67.61 37.20,67.79 35.65,67.96 34.11,68.09 32.57,68.23 31.19,68.26 29.81,68.28 28.41,68.29 27.01,68.30 25.90,68.30 24.78,68.31 23.43,68.30 22.08,68.30 20.87,68.31 19.66,68.31 18.36,68.04 17.06,67.76 15.34,67.75 13.62,67.73 12.24,67.73 10.85,67.73 9.36,67.74 7.87,67.74 6.75,67.74 5.62,67.74 4.48,67.75 3.34,67.76 0.81,66.38 -1.71,65.00 -1.82,64.82 -1.93,64.64 -1.97,64.43 -2.01,64.22 -1.98,64.01 -1.96,63.80 -1.86,63.61 -1.77,63.42 -1.62,63.26 -1.47,63.11 -1.28,63.02 -1.09,62.92 -0.88,62.89 -0.67,62.86 -0.46,62.90 -0.25,62.94 -0.07,63.04 0.11,63.14 0.25,63.30 0.39,63.46 0.48,63.65 0.56,63.85 0.58,64.06 0.60,64.27 0.55,64.48 0.50,64.68 0.39,64.86 0.28,65.04 0.11,65.18 -0.04,65.31 -0.24,65.39 -0.44,65.46 -0.65,65.47 -0.86,65.48 -1.07,65.42 -1.27,65.35 -1.45,65.23 -1.62,65.11 -1.74,64.94 -1.87,64.77 -1.93,64.56 -2.00,64.36 -1.99,64.15 -1.99,63.94 -1.92,63.74 -1.85,63.54 -1.71,63.37 -1.58,63.20 -1.40,63.09 -1.23,62.97 -1.02,62.92 -0.81,62.87 -0.60,62.88 -0.39,62.90 -0.19,62.98 -0.00,63.06 0.15,63.20 0.31,63.34 0.31,63.34 0.31,63.34 1.82,62.60 3.34,61.86 4.48,61.87 5.62,61.88 6.75,61.88 7.87,61.88 9.37,61.88 10.86,61.89 12.27,61.90 13.67,61.90 15.08,61.93 16.49,61.96 18.11,62.27 19.72,62.58 20.90,62.58 22.08,62.59 23.43,62.58 24.78,62.58 25.89,62.58 27.00,62.58 28.38,62.58 29.76,62.59 30.99,62.57 32.22,62.56 33.39,62.47 34.55,62.38 35.75,62.16 36.95,61.95 38.09,61.92 39.24,61.89 40.41,61.79 41.58,61.68 42.58,61.30 43.59,60.92 44.76,60.91 45.93,60.91 45.07,61.67 44.20,62.43 44.20,61.14 44.19,59.84 44.19,58.60 44.19,57.36 44.19,55.73 44.19,54.11 44.19,52.74 44.20,51.38 44.20,50.19 44.21,49.00 44.24,47.58 44.27,46.16 45.21,44.53 46.15,42.90 44.49,42.84 42.83,42.78 41.41,42.53 39.98,42.27 37.54,42.27 35.09,42.27 33.30,42.26 31.50,42.26 30.18,42.26 28.85,42.26 27.25,42.25 25.64,42.25 24.46,42.25 23.28,42.24 21.78,42.22 20.28,42.19 18.43,42.06 16.58,41.94 14.62,41.76 12.66,41.58 11.25,41.57 9.84,41.56 7.45,41.55 5.07,41.53 3.01,41.46 0.95,41.40 -0.80,40.96 -2.55,40.53 -3.32,38.74 -4.09,36.96 -4.07,35.14 -4.06,33.33 -4.05,31.97 -4.04,30.61 -4.02,28.84 -4.00,27.07 -3.99,25.34 -3.97,23.61 -3.96,22.39 -3.95,21.17 -3.91,19.07 -3.87,16.96 -3.82,15.10 -3.77,13.25 -3.64,11.48 -3.52,9.72 -3.27,8.00 -3.02,6.28 -2.93,5.02 -2.84,3.77 -2.24,1.80 -1.64,-0.16 -1.60,-0.35 -1.55,-0.55 -1.46,-0.73 -1.38,-0.91 -1.25,-1.06 -1.12,-1.21 -0.96,-1.33 -0.79,-1.44 -0.61,-1.52 -0.42,-1.59 -0.23,-1.62 -0.03,-1.65 0.16,-1.63 0.36,-1.61 0.55,-1.54 0.73,-1.48 0.90,-1.37 1.07,-1.26 1.20,-1.11 1.34,-0.96 1.43,-0.79 1.53,-0.61 1.58,-0.42 1.63,-0.23 1.64,-0.03 1.64,0.16 1.64,0.16 L 1.64,0.16 Z"></path></g><g transform="translate(299.6705390741629 177.01958340803503) rotate(0 34.759279121687086 36.51478755440837)" stroke="none"><path fill="#000000" d="M 1.49,0.18 Q 1.49,0.18 1.66,1.84 1.83,3.51 1.55,4.91 1.26,6.31 1.13,7.99 1.00,9.67 0.99,10.93 0.98,12.18 0.97,14.04 0.96,15.89 0.97,17.18 0.98,18.46 0.99,20.13 1.00,21.80 1.01,23.00 1.02,24.20 1.04,25.32 1.05,26.43 1.06,27.80 1.07,29.17 1.35,31.09 1.64,33.01 1.71,34.56 1.77,36.11 1.80,37.45 1.84,38.80 1.84,40.18 1.84,41.55 2.99,41.51 4.14,41.47 5.24,41.54 6.33,41.60 7.88,41.62 9.43,41.64 10.57,41.65 11.71,41.65 13.17,41.65 14.63,41.65 16.27,41.94 17.90,42.23 19.03,42.28 20.16,42.33 21.60,42.34 23.03,42.34 24.35,42.35 25.68,42.35 26.86,42.35 28.05,42.35 29.49,42.35 30.93,42.35 32.05,42.35 33.17,42.35 34.58,42.36 35.99,42.37 37.40,42.37 38.80,42.38 40.12,42.42 41.44,42.46 42.52,42.35 43.60,42.24 42.83,40.75 42.06,39.25 41.92,37.76 41.79,36.27 41.48,34.96 41.18,33.66 41.12,32.38 41.07,31.11 40.72,29.99 40.38,28.88 40.56,27.64 40.74,26.40 42.36,25.33 43.97,24.27 45.05,24.47 46.14,24.68 47.35,25.03 48.57,25.38 50.14,25.69 51.70,26.00 52.85,26.10 53.99,26.19 55.65,26.45 57.31,26.71 58.61,26.80 59.90,26.88 61.14,26.89 62.38,26.89 63.57,26.90 64.76,26.91 65.84,26.68 66.93,26.45 68.29,26.32 69.66,26.20 71.33,27.00 73.01,27.79 73.30,29.51 73.59,31.22 73.63,32.93 73.67,34.63 73.45,36.02 73.24,37.41 73.14,39.29 73.04,41.16 73.02,42.74 73.00,44.32 72.99,45.85 72.99,47.39 72.73,48.46 72.48,49.54 72.39,51.03 72.31,52.52 72.30,53.64 72.28,54.77 72.28,56.19 72.28,57.62 72.28,58.74 72.28,59.86 72.28,61.12 72.28,62.38 72.28,63.57 72.28,64.76 72.29,65.82 72.30,66.89 72.30,68.20 72.30,69.51 71.92,70.92 71.53,72.32 71.51,72.48 71.49,72.64 71.43,72.78 71.38,72.93 71.29,73.06 71.20,73.19 71.08,73.30 70.96,73.40 70.82,73.48 70.68,73.55 70.53,73.59 70.37,73.63 70.22,73.63 70.06,73.63 69.90,73.59 69.75,73.55 69.61,73.48 69.47,73.40 69.35,73.30 69.23,73.19 69.14,73.06 69.05,72.93 69.00,72.78 68.94,72.64 68.92,72.48 68.90,72.32 68.97,72.04 69.03,71.75 69.15,71.58 69.28,71.40 69.45,71.28 69.62,71.15 69.82,71.09 70.02,71.02 70.24,71.03 70.45,71.03 70.65,71.10 70.85,71.17 71.02,71.30 71.18,71.43 71.30,71.61 71.42,71.79 71.47,72.00 71.52,72.20 71.51,72.41 71.49,72.63 71.41,72.82 71.33,73.02 71.19,73.18 71.05,73.34 70.87,73.44 70.68,73.55 70.47,73.59 70.27,73.63 70.05,73.61 69.84,73.58 69.65,73.49 69.46,73.40 69.31,73.25 69.16,73.10 69.06,72.91 68.96,72.72 68.93,72.51 68.90,72.30 68.94,72.09 68.98,71.88 69.08,71.70 69.18,71.51 69.34,71.37 69.50,71.22 69.69,71.14 69.89,71.05 70.10,71.03 70.31,71.01 70.52,71.06 70.72,71.11 70.90,71.22 71.08,71.34 71.22,71.50 71.35,71.66 71.43,71.86 71.50,72.06 71.51,72.27 71.52,72.49 71.52,72.40 71.53,72.32 71.51,72.48 71.49,72.64 71.43,72.78 71.38,72.93 71.29,73.06 71.20,73.19 71.08,73.30 70.96,73.40 70.82,73.48 70.68,73.55 70.53,73.59 70.37,73.63 70.22,73.63 70.06,73.63 69.90,73.59 69.75,73.55 69.61,73.48 69.47,73.40 69.35,73.30 69.23,73.19 69.14,73.06 69.05,72.93 69.00,72.78 68.94,72.64 68.92,72.48 68.90,72.32 67.81,71.10 66.72,69.89 66.72,68.39 66.73,66.89 66.73,65.82 66.74,64.76 66.74,63.57 66.74,62.38 66.74,61.12 66.74,59.85 66.74,58.74 66.74,57.62 66.75,56.18 66.75,54.74 66.76,53.56 66.77,52.38 66.83,51.13 66.89,49.87 67.17,48.60 67.45,47.32 67.45,45.80 67.45,44.28 67.47,42.64 67.50,41.00 67.54,39.72 67.58,38.45 67.86,36.57 68.13,34.70 67.93,33.17 67.73,31.65 66.60,31.86 65.47,32.07 64.36,32.07 63.25,32.07 61.89,32.08 60.54,32.08 59.34,32.05 58.14,32.01 56.65,31.68 55.15,31.35 53.83,31.32 52.50,31.29 51.32,31.10 50.15,30.91 48.92,30.67 47.70,30.44 46.55,29.40 45.39,28.36 45.72,29.55 46.05,30.75 46.10,31.87 46.16,33.00 46.47,34.48 46.79,35.97 46.89,37.16 46.99,38.35 47.19,40.34 47.38,42.33 47.07,43.77 46.75,45.20 45.36,45.96 43.97,46.72 42.87,47.07 41.78,47.42 40.29,47.46 38.80,47.50 37.40,47.50 35.99,47.51 34.58,47.51 33.17,47.52 32.05,47.52 30.93,47.52 29.49,47.52 28.05,47.52 26.86,47.52 25.67,47.52 24.34,47.52 23.01,47.52 21.52,47.51 20.04,47.50 18.72,47.44 17.40,47.39 15.98,47.10 14.56,46.81 13.13,46.81 11.70,46.81 10.54,46.81 9.38,46.80 7.75,46.77 6.12,46.75 4.91,46.68 3.70,46.61 2.07,46.22 0.43,45.83 -0.56,45.44 -1.56,45.05 -2.41,43.67 -3.26,42.29 -3.25,41.10 -3.25,39.92 -3.24,38.56 -3.23,37.20 -3.24,36.03 -3.25,34.87 -3.33,33.62 -3.40,32.38 -3.64,30.78 -3.87,29.17 -3.87,27.80 -3.86,26.43 -3.84,25.32 -3.83,24.20 -3.82,23.00 -3.80,21.80 -3.79,20.13 -3.78,18.45 -3.77,17.17 -3.76,15.88 -3.74,13.99 -3.72,12.10 -3.69,10.78 -3.66,9.46 -3.44,7.38 -3.22,5.31 -2.93,4.13 -2.64,2.94 -2.07,1.38 -1.49,-0.18 -1.45,-0.36 -1.40,-0.54 -1.32,-0.70 -1.23,-0.86 -1.11,-0.99 -0.99,-1.13 -0.84,-1.23 -0.69,-1.33 -0.52,-1.40 -0.35,-1.46 -0.17,-1.48 0.00,-1.50 0.18,-1.48 0.36,-1.46 0.53,-1.39 0.70,-1.33 0.85,-1.22 1.00,-1.12 1.12,-0.98 1.24,-0.85 1.32,-0.69 1.41,-0.52 1.45,-0.35 1.49,-0.17 1.49,0.00 1.49,0.18 1.49,0.18 L 1.49,0.18 Z"></path></g><g transform="translate(249.11158762443642 78.71050042983916) rotate(0 6.670967403308566 86.0204435878569)" stroke="none"><path fill="#000000" d="M 1.35,0 Q 1.35,0 1.89,2.42 2.43,4.84 2.43,6.07 2.43,7.30 2.43,8.63 2.44,9.97 2.44,11.34 2.44,12.71 2.44,14.23 2.44,15.76 2.22,17.92 2.00,20.08 1.91,21.29 1.82,22.51 1.80,23.96 1.78,25.40 3.14,25.28 4.50,25.16 5.94,25.19 7.39,25.22 8.68,25.22 9.97,25.22 11.57,25.54 13.16,25.87 14.34,26.67 15.52,27.47 15.95,28.49 16.39,29.50 16.77,30.94 17.14,32.38 17.37,34.18 17.61,35.98 17.64,37.18 17.66,38.37 17.67,39.53 17.67,40.70 17.66,42.05 17.65,43.40 17.65,44.52 17.65,45.64 17.64,47.47 17.64,49.30 17.38,51.04 17.13,52.78 17.04,54.36 16.94,55.94 16.93,57.01 16.92,58.09 16.91,59.63 16.91,61.18 16.90,62.90 16.90,64.62 16.90,66.37 16.90,68.11 16.90,69.58 16.90,71.05 16.88,72.35 16.87,73.65 16.87,74.95 16.87,76.25 16.86,77.34 16.86,78.44 16.84,80.28 16.82,82.12 16.80,83.40 16.77,84.68 16.77,85.78 16.76,86.87 16.76,88.22 16.76,89.57 16.49,91.09 16.23,92.62 16.17,93.90 16.11,95.18 16.08,96.29 16.06,97.40 16.06,98.66 16.05,99.93 16.05,101.48 16.05,103.03 16.05,104.86 16.05,106.70 16.06,108.55 16.06,110.41 16.06,112.10 16.05,113.78 16.05,115.61 16.05,117.44 15.82,119.15 15.58,120.87 15.50,122.11 15.41,123.35 15.39,124.43 15.37,125.50 15.37,126.85 15.36,128.19 15.36,129.67 15.36,131.15 15.36,132.36 15.36,133.57 15.36,134.96 15.36,136.35 15.36,137.57 15.36,138.78 15.34,139.89 15.33,140.99 15.65,142.07 15.97,143.14 15.78,144.42 15.59,145.69 14.27,146.82 12.95,147.95 11.64,148.30 10.32,148.64 8.74,149.21 7.17,149.77 5.66,150.28 4.15,150.79 3.05,151.16 1.96,151.52 1.71,153.17 1.46,154.82 1.46,155.95 1.46,157.08 1.49,158.63 1.51,160.19 1.52,161.50 1.52,162.82 1.53,164.32 1.54,165.83 1.55,167.44 1.56,169.05 1.08,169.84 0.61,170.63 0.59,170.79 0.57,170.95 0.51,171.09 0.46,171.24 0.37,171.37 0.28,171.50 0.16,171.61 0.04,171.71 -0.09,171.79 -0.23,171.86 -0.39,171.90 -0.54,171.94 -0.70,171.94 -0.86,171.94 -1.01,171.90 -1.16,171.86 -1.30,171.79 -1.44,171.71 -1.56,171.61 -1.68,171.50 -1.77,171.37 -1.86,171.24 -1.92,171.09 -1.97,170.95 -1.99,170.79 -2.01,170.63 -1.86,170.21 -1.71,169.79 -1.54,169.65 -1.38,169.51 -1.19,169.43 -0.99,169.35 -0.78,169.34 -0.57,169.32 -0.36,169.38 -0.16,169.43 0.01,169.55 0.19,169.67 0.32,169.84 0.45,170.01 0.52,170.21 0.59,170.41 0.59,170.62 0.59,170.83 0.52,171.03 0.46,171.24 0.33,171.41 0.20,171.58 0.03,171.70 -0.14,171.82 -0.34,171.88 -0.54,171.94 -0.76,171.93 -0.97,171.92 -1.17,171.84 -1.36,171.76 -1.53,171.63 -1.69,171.49 -1.80,171.31 -1.91,171.13 -1.96,170.92 -2.01,170.71 -1.99,170.50 -1.97,170.29 -1.88,170.10 -1.79,169.90 -1.65,169.75 -1.50,169.59 -1.31,169.49 -1.13,169.39 -0.92,169.35 -0.71,169.32 -0.50,169.35 -0.29,169.38 -0.10,169.48 0.08,169.58 0.23,169.73 0.37,169.89 0.46,170.08 0.56,170.27 0.58,170.48 0.60,170.69 0.56,170.90 0.52,171.11 0.56,170.87 0.61,170.63 0.59,170.79 0.57,170.95 0.51,171.09 0.46,171.24 0.37,171.37 0.28,171.50 0.16,171.61 0.04,171.71 -0.09,171.79 -0.23,171.86 -0.39,171.90 -0.54,171.94 -0.70,171.94 -0.86,171.94 -1.01,171.90 -1.16,171.86 -1.30,171.79 -1.44,171.71 -1.56,171.61 -1.68,171.50 -1.77,171.37 -1.86,171.24 -1.92,171.09 -1.97,170.95 -1.99,170.79 -2.01,170.63 -3.19,169.84 -4.37,169.05 -4.36,167.44 -4.35,165.83 -4.34,164.32 -4.33,162.82 -4.32,161.50 -4.32,160.19 -4.30,158.63 -4.27,157.07 -4.26,155.92 -4.25,154.78 -4.23,153.18 -4.20,151.57 -3.91,150.05 -3.62,148.52 -2.85,147.77 -2.08,147.01 -1.00,146.49 0.07,145.97 1.13,145.62 2.19,145.26 3.34,144.86 4.49,144.46 5.63,144.24 6.76,144.02 8.68,143.57 10.60,143.12 10.26,141.63 9.91,140.14 9.91,138.81 9.91,137.49 9.91,136.09 9.91,134.69 9.91,133.37 9.91,132.05 9.91,130.61 9.91,129.17 9.91,127.98 9.91,126.80 9.92,125.47 9.93,124.15 9.99,122.80 10.06,121.45 10.34,119.99 10.61,118.53 10.62,117.16 10.62,115.79 10.62,113.86 10.62,111.93 10.62,110.33 10.62,108.74 10.62,106.74 10.62,104.75 10.62,103.28 10.62,101.82 10.62,100.06 10.62,98.30 10.64,97.17 10.65,96.04 10.70,94.64 10.76,93.24 11.04,91.41 11.32,89.57 11.32,88.22 11.31,86.87 11.31,85.78 11.30,84.68 11.28,83.40 11.26,82.12 11.24,80.28 11.22,78.44 11.22,77.34 11.21,76.25 11.21,74.95 11.21,73.65 11.20,72.35 11.18,71.05 11.18,69.58 11.18,68.11 11.18,66.37 11.18,64.62 11.18,62.90 11.17,61.18 11.17,59.62 11.17,58.06 11.17,56.94 11.18,55.81 11.25,54.31 11.33,52.80 11.59,51.60 11.86,50.41 11.85,49.00 11.84,47.60 11.84,46.14 11.83,44.69 11.83,43.48 11.82,42.28 11.81,41.02 11.80,39.75 11.79,38.52 11.78,37.29 11.69,35.82 11.60,34.34 10.78,32.65 9.96,30.95 8.63,30.93 7.30,30.92 5.76,30.87 4.22,30.82 2.80,30.73 1.37,30.65 0.04,30.19 -1.27,29.73 -2.23,28.29 -3.18,26.84 -3.17,25.69 -3.17,24.54 -3.14,23.36 -3.11,22.19 -2.96,20.64 -2.81,19.10 -2.62,17.43 -2.44,15.76 -2.44,14.23 -2.44,12.71 -2.44,11.34 -2.44,9.97 -2.43,8.63 -2.43,7.30 -2.43,6.07 -2.43,4.84 -1.89,2.42 -1.35,0 -1.33,-0.16 -1.31,-0.32 -1.25,-0.47 -1.19,-0.62 -1.10,-0.76 -1.01,-0.89 -0.88,-1.00 -0.76,-1.11 -0.62,-1.18 -0.47,-1.26 -0.32,-1.30 -0.16,-1.34 0.00,-1.34 0.16,-1.34 0.32,-1.30 0.47,-1.26 0.62,-1.18 0.76,-1.11 0.88,-1.00 1.01,-0.89 1.10,-0.76 1.19,-0.62 1.25,-0.47 1.31,-0.32 1.33,-0.16 1.35,0.00 1.35,0.00 L 1.35,0 Z"></path></g><g transform="translate(247.70716159154995 247.94253553978) rotate(0 61.44318087943685 1.4044260328864766)" stroke="none"><path fill="#000000" d="M 0.19,-1.52 Q 0.19,-1.52 1.88,-1.96 3.58,-2.40 5.34,-2.12 7.09,-1.83 8.31,-1.74 9.53,-1.65 11.13,-1.60 12.73,-1.55 14.78,-1.27 16.82,-0.99 18.28,-0.94 19.73,-0.89 21.17,-0.88 22.61,-0.86 24.19,-0.87 25.77,-0.87 27.34,-0.88 28.90,-0.89 30.04,-0.64 31.19,-0.40 32.44,-0.33 33.70,-0.25 34.77,-0.24 35.84,-0.23 37.09,-0.22 38.34,-0.22 39.44,-0.22 40.53,-0.22 41.67,-0.22 42.82,-0.22 44.09,-0.22 45.36,-0.23 46.45,-0.23 47.55,-0.24 49.04,-0.52 50.53,-0.81 51.77,-0.88 53.02,-0.95 54.91,-0.97 56.81,-1.00 58.30,-1.01 59.80,-1.03 61.22,-1.03 62.64,-1.04 64.42,-1.04 66.20,-1.04 68.16,-1.04 70.13,-1.04 71.80,-1.05 73.48,-1.05 74.65,-1.05 75.81,-1.05 77.45,-1.05 79.09,-1.05 80.95,-1.04 82.81,-1.04 84.18,-1.05 85.55,-1.05 87.03,-1.05 88.51,-1.06 89.78,-1.05 91.05,-1.04 92.16,-0.78 93.27,-0.52 94.45,-0.44 95.62,-0.37 97.39,-0.36 99.16,-0.35 100.45,-0.35 101.74,-0.36 102.84,-0.36 103.93,-0.36 105.39,-0.36 106.85,-0.36 107.93,-0.36 109.02,-0.37 110.27,-0.37 111.53,-0.37 113.25,-0.38 114.97,-0.38 116.40,-0.39 117.83,-0.39 119.03,-0.40 120.23,-0.40 120.90,0.09 121.57,0.59 121.62,0.38 121.68,0.18 121.79,0.00 121.91,-0.17 122.07,-0.30 122.24,-0.44 122.44,-0.51 122.64,-0.58 122.85,-0.59 123.06,-0.59 123.26,-0.53 123.47,-0.47 123.64,-0.34 123.81,-0.22 123.94,-0.05 124.06,0.12 124.12,0.32 124.18,0.52 124.18,0.74 124.17,0.95 124.10,1.15 124.02,1.35 123.89,1.51 123.76,1.68 123.58,1.79 123.40,1.90 123.19,1.96 122.99,2.01 122.77,1.99 122.56,1.97 122.37,1.89 122.17,1.80 122.01,1.66 121.86,1.52 121.75,1.33 121.65,1.15 121.61,0.94 121.57,0.73 121.60,0.52 121.63,0.31 121.72,0.12 121.82,-0.06 121.97,-0.21 122.12,-0.36 122.31,-0.46 122.50,-0.55 122.71,-0.58 122.92,-0.61 123.13,-0.57 123.34,-0.52 123.52,-0.42 123.71,-0.31 123.85,-0.16 123.99,-0.00 124.07,0.19 124.16,0.38 124.17,0.60 124.19,0.81 124.19,0.81 124.19,0.81 122.21,3.41 120.23,6.02 119.03,6.01 117.83,6.01 116.40,6.00 114.97,6.00 113.89,6.00 112.81,5.99 111.26,5.99 109.72,5.99 108.65,5.98 107.59,5.98 106.36,5.98 105.14,5.98 104.07,5.98 102.99,5.97 101.84,5.97 100.68,5.97 99.06,5.97 97.44,5.96 95.92,5.93 94.40,5.91 92.69,5.58 90.98,5.25 89.74,5.26 88.51,5.27 87.03,5.27 85.55,5.26 84.18,5.26 82.81,5.26 80.95,5.26 79.09,5.26 77.45,5.26 75.81,5.26 74.65,5.26 73.48,5.27 71.80,5.26 70.13,5.26 68.17,5.26 66.20,5.26 64.42,5.25 62.64,5.25 61.23,5.25 59.81,5.25 58.33,5.24 56.85,5.23 55.04,5.25 53.22,5.27 51.21,5.51 49.21,5.75 47.77,5.80 46.33,5.85 45.18,5.85 44.04,5.84 42.94,5.84 41.85,5.84 40.58,5.84 39.30,5.84 38.15,5.84 37.00,5.83 35.88,5.81 34.76,5.80 33.40,5.74 32.04,5.68 30.45,5.39 28.85,5.10 27.31,5.09 25.76,5.08 24.16,5.07 22.56,5.06 21.03,5.02 19.51,4.99 18.44,4.95 17.37,4.90 16.20,4.75 15.02,4.59 13.81,4.44 12.59,4.29 10.80,4.19 9.00,4.09 7.57,3.94 6.14,3.79 4.51,3.50 2.87,3.21 1.34,2.37 -0.19,1.52 -0.37,1.48 -0.55,1.43 -0.71,1.35 -0.88,1.26 -1.01,1.14 -1.15,1.01 -1.26,0.86 -1.36,0.71 -1.43,0.53 -1.49,0.36 -1.51,0.17 -1.54,-0.00 -1.51,-0.18 -1.49,-0.37 -1.42,-0.54 -1.36,-0.72 -1.25,-0.87 -1.15,-1.02 -1.01,-1.14 -0.87,-1.27 -0.70,-1.35 -0.54,-1.44 -0.36,-1.48 -0.18,-1.53 0.00,-1.53 0.19,-1.52 0.19,-1.52 L 0.19,-1.52 Z"></path></g><g transform="translate(345.0670355191219 112.0270922460702) rotate(0 -4.336053800943773 0)" stroke="none"><path fill="#000000" d="M 0,1.64 Q 0,1.64 -1.86,2.32 -3.73,3.00 -6.20,3.00 -8.67,3.00 -9.15,2.92 -9.63,2.84 -10.06,2.62 -10.49,2.39 -10.82,2.03 -11.15,1.68 -11.36,1.24 -11.56,0.80 -11.62,0.32 -11.67,-0.16 -11.56,-0.63 -11.46,-1.11 -11.21,-1.52 -10.96,-1.94 -10.59,-2.26 -10.22,-2.57 -9.76,-2.75 -9.31,-2.93 -8.83,-2.96 -8.34,-2.98 -7.87,-2.85 -7.40,-2.72 -7.00,-2.45 -6.60,-2.18 -6.31,-1.79 -6.01,-1.40 -5.86,-0.94 -5.70,-0.48 -5.70,0.00 -5.70,0.48 -5.86,0.94 -6.01,1.40 -6.31,1.79 -6.60,2.18 -7.00,2.45 -7.41,2.72 -7.87,2.85 -8.34,2.98 -8.83,2.96 -9.31,2.93 -9.77,2.75 -10.22,2.57 -10.59,2.25 -10.96,1.94 -11.21,1.52 -11.46,1.11 -11.56,0.63 -11.67,0.16 -11.62,-0.32 -11.56,-0.80 -11.36,-1.24 -11.15,-1.68 -10.82,-2.04 -10.49,-2.39 -10.06,-2.62 -9.63,-2.84 -9.15,-2.92 -8.67,-3.00 -8.67,-3.00 -8.67,-3.00 -6.20,-3.00 -3.73,-3.00 -1.86,-2.32 0,-1.64 0.19,-1.62 0.39,-1.59 0.57,-1.52 0.76,-1.45 0.92,-1.34 1.09,-1.23 1.22,-1.08 1.35,-0.93 1.44,-0.75 1.53,-0.58 1.58,-0.39 1.63,-0.19 1.63,0.00 1.63,0.19 1.58,0.39 1.53,0.58 1.44,0.75 1.35,0.93 1.22,1.08 1.09,1.23 0.92,1.34 0.76,1.45 0.57,1.52 0.39,1.59 0.19,1.62 -0.00,1.64 -0.00,1.64 L 0,1.64 Z"></path></g><g transform="translate(340.8805055350715 110.53189514382552) rotate(0 1.9437480195800845 -0.14951697244509887)" stroke="none"><path fill="#000000" d="M 0,-1.67 Q 0,-1.67 1.78,-1.62 3.57,-1.57 3.78,-1.59 3.99,-1.60 4.20,-1.55 4.41,-1.50 4.58,-1.38 4.76,-1.27 4.90,-1.10 5.03,-0.94 5.10,-0.74 5.17,-0.54 5.18,-0.33 5.18,-0.11 5.12,0.08 5.06,0.28 4.93,0.46 4.81,0.63 4.64,0.75 4.46,0.87 4.26,0.94 4.06,1.00 3.84,0.99 3.63,0.98 3.43,0.91 3.23,0.84 3.07,0.70 2.90,0.57 2.79,0.39 2.67,0.21 2.62,0.00 2.57,-0.19 2.59,-0.40 2.61,-0.62 2.69,-0.81 2.78,-1.00 2.92,-1.16 3.06,-1.32 3.25,-1.42 3.43,-1.53 3.64,-1.57 3.85,-1.61 4.06,-1.58 4.27,-1.55 4.46,-1.45 4.65,-1.36 4.80,-1.21 4.95,-1.06 5.05,-0.87 5.14,-0.68 5.17,-0.46 5.20,-0.25 5.15,-0.05 5.11,0.15 5.01,0.34 4.90,0.52 4.74,0.66 4.59,0.80 4.39,0.89 4.20,0.97 4.20,0.97 4.20,0.97 2.10,1.32 0,1.67 -0.20,1.65 -0.40,1.63 -0.59,1.55 -0.78,1.48 -0.94,1.37 -1.11,1.25 -1.24,1.10 -1.38,0.95 -1.47,0.77 -1.57,0.59 -1.61,0.39 -1.66,0.20 -1.66,-0.00 -1.66,-0.20 -1.61,-0.39 -1.57,-0.59 -1.47,-0.77 -1.38,-0.95 -1.24,-1.10 -1.11,-1.25 -0.94,-1.37 -0.78,-1.48 -0.59,-1.55 -0.40,-1.63 -0.20,-1.65 0.00,-1.67 0.00,-1.67 L 0,-1.67 Z"></path></g><g transform="translate(358.0004589543306 83.63643371927674) rotate(0 0.00004999999998744897 0.00004999999998744897)" stroke="none"><path fill="#000000" d="M 2.12,-2.12 Q 2.12,-2.12 2.40,-1.73 2.69,-1.33 2.83,-0.87 2.97,-0.40 2.96,0.08 2.95,0.56 2.78,1.02 2.61,1.47 2.31,1.85 2.00,2.23 1.59,2.49 1.18,2.76 0.71,2.87 0.24,2.99 -0.24,2.95 -0.72,2.91 -1.17,2.72 -1.61,2.53 -1.98,2.20 -2.34,1.88 -2.58,1.45 -2.82,1.03 -2.91,0.55 -3.00,0.08 -2.93,-0.40 -2.87,-0.88 -2.65,-1.31 -2.44,-1.75 -2.09,-2.09 -1.75,-2.44 -1.31,-2.65 -0.88,-2.87 -0.39,-2.93 0.08,-3.00 0.55,-2.91 1.03,-2.82 1.46,-2.58 1.88,-2.34 2.20,-1.97 2.53,-1.61 2.72,-1.17 2.91,-0.72 2.95,-0.23 2.99,0.24 2.87,0.71 2.76,1.18 2.49,1.59 2.23,2.00 1.85,2.31 1.47,2.61 1.02,2.78 0.56,2.95 0.07,2.96 -0.40,2.97 -0.87,2.83 -1.33,2.69 -1.73,2.40 -2.12,2.12 -2.12,2.12 -2.12,2.12 -2.34,1.83 -2.57,1.55 -2.72,1.22 -2.86,0.89 -2.93,0.53 -2.99,0.18 -2.97,-0.18 -2.95,-0.54 -2.84,-0.88 -2.74,-1.23 -2.55,-1.54 -2.36,-1.85 -2.10,-2.10 -1.85,-2.36 -1.54,-2.55 -1.23,-2.74 -0.88,-2.84 -0.54,-2.95 -0.18,-2.97 0.18,-2.99 0.53,-2.93 0.89,-2.86 1.22,-2.72 1.55,-2.57 1.83,-2.34 2.12,-2.12 2.12,-2.12 L 2.12,-2.12 Z"></path></g><g transform="translate(351.7802463586422 82.53874717305325) rotate(0 8.04969575585011 9.147382302073652)" stroke="none"><path fill="#000000" d="M 1.20,-0.96 Q 1.20,-0.96 2.38,-0.18 3.57,0.59 4.48,1.62 5.40,2.65 6.37,3.82 7.35,4.99 8.43,6.06 9.51,7.13 10.79,7.93 12.06,8.73 12.92,9.36 13.79,10.00 14.63,10.81 15.47,11.61 16.14,12.50 16.81,13.38 16.91,15.97 17.01,18.57 16.93,18.76 16.86,18.96 16.72,19.12 16.58,19.29 16.40,19.40 16.22,19.51 16.01,19.55 15.81,19.60 15.59,19.58 15.38,19.56 15.19,19.47 15.00,19.38 14.84,19.23 14.69,19.09 14.59,18.90 14.49,18.71 14.45,18.51 14.42,18.30 14.45,18.09 14.48,17.88 14.58,17.69 14.68,17.50 14.83,17.35 14.99,17.21 15.18,17.12 15.37,17.03 15.58,17.00 15.79,16.98 16.00,17.02 16.21,17.07 16.39,17.18 16.57,17.28 16.71,17.45 16.85,17.61 16.93,17.80 17.01,18.00 17.02,18.21 17.03,18.43 16.98,18.63 16.92,18.84 16.80,19.01 16.69,19.19 16.52,19.32 16.35,19.45 16.15,19.52 15.95,19.58 15.73,19.59 15.52,19.59 15.32,19.52 15.12,19.45 14.95,19.32 14.78,19.20 14.66,19.02 14.54,18.85 14.48,18.64 14.42,18.44 14.43,18.23 14.44,18.01 14.44,18.01 14.44,18.01 13.61,17.13 12.78,16.25 12.18,15.23 11.59,14.21 10.38,13.32 9.17,12.43 7.86,11.61 6.55,10.79 5.39,9.73 4.23,8.68 3.04,7.31 1.86,5.95 0.82,4.78 -0.20,3.61 -0.70,2.28 -1.20,0.96 -1.29,0.80 -1.39,0.64 -1.45,0.46 -1.50,0.29 -1.52,0.10 -1.53,-0.07 -1.50,-0.25 -1.47,-0.44 -1.39,-0.61 -1.32,-0.78 -1.21,-0.92 -1.09,-1.07 -0.95,-1.19 -0.80,-1.30 -0.64,-1.38 -0.47,-1.46 -0.29,-1.49 -0.10,-1.53 0.07,-1.52 0.26,-1.51 0.43,-1.46 0.61,-1.40 0.77,-1.31 0.93,-1.22 1.06,-1.09 1.20,-0.96 1.20,-0.96 L 1.20,-0.96 Z"></path></g><g transform="translate(308.60456437427126 79.24568753438257) rotate(0 15.733501579414963 15.550556613272306)" stroke="none"><path fill="#000000" d="M 1.10,-1.00 Q 1.10,-1.00 2.44,-0.11 3.79,0.77 5.13,2.16 6.47,3.54 7.69,4.92 8.90,6.30 9.95,7.37 10.99,8.43 11.81,9.38 12.63,10.32 13.62,11.23 14.62,12.13 15.41,13.04 16.20,13.95 17.13,14.92 18.05,15.88 19.04,16.70 20.03,17.51 21.18,18.42 22.33,19.32 23.35,20.01 24.37,20.70 25.24,21.38 26.10,22.07 27.25,23.04 28.39,24.01 29.35,25.15 30.30,26.29 30.94,28.19 31.58,30.09 31.69,30.21 31.79,30.33 31.87,30.46 31.95,30.60 31.99,30.76 32.03,30.91 32.03,31.07 32.04,31.23 32.00,31.38 31.97,31.53 31.90,31.68 31.83,31.82 31.73,31.94 31.62,32.06 31.49,32.15 31.37,32.25 31.22,32.30 31.07,32.36 30.92,32.39 30.76,32.41 30.60,32.39 30.44,32.38 30.30,32.33 30.15,32.27 30.01,32.19 29.88,32.10 30.17,32.24 30.45,32.38 30.25,32.30 30.05,32.22 29.89,32.08 29.73,31.95 29.62,31.77 29.51,31.58 29.46,31.38 29.42,31.17 29.44,30.96 29.46,30.75 29.55,30.55 29.64,30.36 29.79,30.21 29.93,30.05 30.12,29.95 30.31,29.85 30.52,29.82 30.73,29.78 30.94,29.82 31.15,29.85 31.34,29.95 31.52,30.05 31.67,30.20 31.82,30.36 31.91,30.55 32.00,30.74 32.02,30.96 32.04,31.17 32.00,31.37 31.95,31.58 31.84,31.76 31.73,31.95 31.57,32.08 31.41,32.22 31.21,32.30 31.01,32.38 30.80,32.39 30.59,32.40 30.38,32.35 30.18,32.29 30.00,32.17 29.83,32.05 29.70,31.88 29.57,31.71 29.50,31.51 29.43,31.31 29.43,31.10 29.43,30.88 29.50,30.68 29.57,30.48 29.70,30.31 29.83,30.14 30.00,30.02 30.18,29.90 30.38,29.85 30.59,29.79 31.08,29.94 31.58,30.09 31.69,30.21 31.79,30.33 31.87,30.46 31.95,30.60 31.99,30.76 32.03,30.91 32.03,31.07 32.04,31.22 32.00,31.38 31.97,31.53 31.90,31.68 31.83,31.82 31.73,31.94 31.62,32.06 31.49,32.15 31.37,32.24 31.22,32.30 31.07,32.36 30.92,32.39 30.76,32.41 30.60,32.39 30.44,32.38 30.30,32.33 30.15,32.27 30.01,32.19 29.88,32.10 28.55,30.99 27.22,29.88 26.58,28.78 25.93,27.68 24.90,26.93 23.87,26.19 22.98,25.48 22.10,24.77 20.93,23.94 19.77,23.10 18.85,22.37 17.93,21.65 16.71,20.78 15.49,19.91 14.49,18.89 13.49,17.88 12.52,16.74 11.55,15.60 10.68,14.85 9.80,14.10 8.75,12.89 7.69,11.68 6.62,10.58 5.54,9.47 4.35,8.12 3.16,6.76 1.78,5.30 0.40,3.85 -0.34,2.42 -1.10,1.00 -1.20,0.85 -1.30,0.70 -1.37,0.54 -1.43,0.37 -1.46,0.19 -1.48,0.01 -1.46,-0.15 -1.44,-0.33 -1.38,-0.50 -1.32,-0.67 -1.22,-0.82 -1.12,-0.97 -0.99,-1.09 -0.86,-1.21 -0.70,-1.29 -0.54,-1.38 -0.37,-1.42 -0.19,-1.47 -0.01,-1.47 0.16,-1.47 0.33,-1.43 0.50,-1.39 0.66,-1.31 0.82,-1.23 0.96,-1.11 1.10,-1.00 1.10,-1.00 L 1.10,-1.00 Z"></path></g><g transform="translate(347.0235934920953 116.93292003826832) rotate(0 6.037276004229398 6.220220970372111)" stroke="none"><path fill="#000000" d="M 1.09,-1.21 Q 1.09,-1.21 2.41,-0.56 3.73,0.08 4.91,1.15 6.09,2.22 6.91,3.06 7.73,3.91 8.61,4.79 9.49,5.68 10.37,6.79 11.26,7.90 11.59,9.58 11.92,11.26 12.05,11.34 12.18,11.43 12.29,11.54 12.40,11.66 12.47,11.80 12.55,11.94 12.59,12.09 12.64,12.24 12.64,12.40 12.65,12.56 12.61,12.71 12.58,12.87 12.51,13.01 12.44,13.15 12.34,13.27 12.24,13.39 12.11,13.49 11.98,13.58 11.83,13.64 11.69,13.70 11.53,13.72 11.37,13.75 11.22,13.73 11.06,13.72 10.91,13.67 10.76,13.62 10.93,13.67 11.11,13.73 10.91,13.66 10.71,13.59 10.54,13.46 10.37,13.33 10.26,13.15 10.14,12.97 10.08,12.77 10.03,12.56 10.04,12.35 10.06,12.14 10.14,11.94 10.22,11.74 10.36,11.58 10.50,11.42 10.68,11.32 10.87,11.21 11.08,11.17 11.28,11.12 11.49,11.15 11.71,11.17 11.90,11.27 12.09,11.36 12.24,11.51 12.39,11.65 12.49,11.84 12.59,12.03 12.62,12.24 12.65,12.45 12.61,12.66 12.58,12.87 12.47,13.06 12.37,13.24 12.22,13.39 12.06,13.53 11.87,13.62 11.67,13.71 11.46,13.73 11.25,13.75 11.04,13.70 10.84,13.65 10.65,13.54 10.47,13.43 10.34,13.26 10.20,13.10 10.13,12.90 10.05,12.70 10.04,12.49 10.03,12.28 10.09,12.07 10.15,11.87 10.27,11.69 10.40,11.52 10.57,11.39 10.74,11.27 10.94,11.20 11.14,11.14 11.53,11.20 11.91,11.26 12.05,11.34 12.18,11.43 12.29,11.54 12.40,11.66 12.47,11.80 12.55,11.94 12.59,12.09 12.64,12.24 12.64,12.40 12.65,12.56 12.61,12.71 12.58,12.87 12.51,13.01 12.44,13.15 12.34,13.27 12.24,13.39 12.11,13.49 11.98,13.58 11.83,13.64 11.69,13.70 11.53,13.72 11.37,13.75 11.22,13.73 11.06,13.72 10.91,13.67 10.76,13.62 9.91,13.00 9.05,12.39 8.26,11.59 7.46,10.79 6.75,9.95 6.04,9.12 5.14,8.22 4.25,7.32 3.38,6.43 2.52,5.54 1.49,4.62 0.47,3.70 -0.30,2.45 -1.09,1.21 -1.22,1.06 -1.35,0.91 -1.44,0.74 -1.53,0.56 -1.57,0.37 -1.62,0.18 -1.62,-0.01 -1.62,-0.20 -1.57,-0.40 -1.52,-0.59 -1.43,-0.76 -1.33,-0.93 -1.20,-1.08 -1.07,-1.23 -0.91,-1.34 -0.74,-1.45 -0.56,-1.52 -0.37,-1.59 -0.18,-1.61 0.01,-1.63 0.20,-1.61 0.40,-1.58 0.58,-1.51 0.77,-1.44 0.93,-1.32 1.09,-1.21 1.09,-1.21 L 1.09,-1.21 Z"></path></g><g transform="translate(269.8196285747946 81.07515394517691) rotate(0 15.001721714844223 15.550564987955909)" stroke="none"><path fill="#000000" d="M 1.17,-1.17 Q 1.17,-1.17 2.28,-0.60 3.39,-0.02 4.32,1.01 5.25,2.04 6.79,3.63 8.32,5.23 9.57,6.75 10.81,8.27 11.77,9.42 12.73,10.57 13.77,11.83 14.81,13.08 15.62,13.92 16.43,14.76 17.49,15.97 18.55,17.18 19.32,17.95 20.08,18.72 21.03,19.66 21.99,20.60 23.13,21.42 24.27,22.23 25.15,23.06 26.02,23.88 26.98,24.62 27.93,25.35 28.75,26.06 29.57,26.76 29.98,29.46 30.40,32.16 30.21,32.26 30.01,32.35 29.80,32.38 29.59,32.41 29.38,32.37 29.18,32.33 28.99,32.22 28.81,32.12 28.67,31.96 28.52,31.80 28.44,31.60 28.36,31.41 28.34,31.20 28.32,30.99 28.38,30.78 28.43,30.57 28.54,30.40 28.66,30.22 28.82,30.08 28.99,29.95 29.19,29.88 29.39,29.81 29.60,29.80 29.81,29.80 30.02,29.86 30.22,29.92 30.39,30.05 30.56,30.17 30.69,30.34 30.81,30.52 30.87,30.72 30.93,30.92 30.93,31.13 30.92,31.35 30.85,31.55 30.77,31.75 30.64,31.91 30.51,32.08 30.33,32.19 30.15,32.30 29.94,32.35 29.74,32.41 29.52,32.39 29.31,32.37 29.12,32.29 28.92,32.20 28.76,32.06 28.61,31.92 28.50,31.73 28.40,31.55 28.36,31.34 28.32,31.13 28.35,30.92 28.38,30.71 28.47,30.52 28.57,30.33 28.72,30.18 28.87,30.03 28.87,30.03 28.87,30.03 27.67,30.40 26.48,30.77 25.48,30.02 24.48,29.27 23.63,28.55 22.77,27.83 21.82,26.87 20.87,25.91 19.97,25.21 19.07,24.52 17.74,23.29 16.40,22.06 15.47,21.00 14.53,19.94 13.72,19.06 12.90,18.19 12.04,17.27 11.17,16.35 10.06,15.00 8.96,13.65 8.00,12.48 7.03,11.32 5.95,9.97 4.86,8.62 3.25,6.95 1.64,5.27 0.81,4.33 -0.02,3.38 -0.60,2.28 -1.17,1.17 -1.30,1.01 -1.42,0.86 -1.50,0.67 -1.58,0.49 -1.62,0.29 -1.66,0.10 -1.64,-0.09 -1.63,-0.30 -1.57,-0.49 -1.51,-0.68 -1.41,-0.85 -1.31,-1.02 -1.16,-1.16 -1.02,-1.31 -0.85,-1.41 -0.68,-1.51 -0.49,-1.57 -0.29,-1.63 -0.09,-1.64 0.10,-1.66 0.29,-1.62 0.49,-1.58 0.67,-1.50 0.86,-1.42 1.01,-1.30 1.17,-1.17 1.17,-1.17 L 1.17,-1.17 Z"></path></g><g transform="translate(263.9653059113915 113.63986039959764) rotate(0 16.64824315949579 16.465298193353078)" stroke="none"><path fill="#000000" d="M 1.17,-1.31 Q 1.17,-1.31 2.35,-0.74 3.53,-0.16 4.54,0.89 5.56,1.96 6.74,3.21 7.93,4.47 9.12,5.62 10.32,6.78 11.43,7.89 12.55,9.01 13.78,10.19 15.00,11.37 15.88,12.16 16.75,12.94 17.70,13.98 18.65,15.01 19.94,16.16 21.23,17.31 22.07,18.12 22.92,18.93 23.79,19.76 24.67,20.60 25.56,21.49 26.46,22.39 27.50,23.42 28.53,24.46 29.70,25.64 30.86,26.82 31.65,27.60 32.44,28.39 32.76,29.87 33.08,31.35 33.21,31.43 33.35,31.51 33.46,31.62 33.58,31.73 33.66,31.86 33.75,32.00 33.80,32.15 33.85,32.30 33.86,32.46 33.87,32.61 33.85,32.77 33.82,32.93 33.76,33.07 33.70,33.22 33.60,33.34 33.51,33.47 33.38,33.57 33.26,33.67 33.12,33.74 32.97,33.81 32.82,33.84 32.66,33.87 32.51,33.86 32.35,33.86 32.20,33.81 32.04,33.77 31.94,33.71 31.83,33.65 31.67,33.51 31.52,33.36 31.42,33.17 31.32,32.99 31.28,32.78 31.25,32.57 31.28,32.36 31.31,32.15 31.41,31.96 31.51,31.77 31.66,31.62 31.82,31.48 32.01,31.39 32.20,31.30 32.41,31.27 32.62,31.25 32.83,31.29 33.04,31.34 33.22,31.44 33.40,31.55 33.54,31.71 33.68,31.88 33.76,32.07 33.84,32.27 33.85,32.48 33.87,32.69 33.81,32.90 33.76,33.10 33.64,33.28 33.52,33.46 33.35,33.59 33.18,33.72 32.98,33.79 32.78,33.85 32.57,33.86 32.36,33.86 32.15,33.79 31.95,33.72 31.78,33.60 31.61,33.47 31.49,33.29 31.37,33.12 31.31,32.91 31.26,32.71 31.27,32.50 31.28,32.29 31.35,32.09 31.43,31.89 31.57,31.73 31.70,31.56 31.88,31.45 32.07,31.34 32.27,31.30 32.48,31.25 32.69,31.27 32.90,31.29 32.99,31.32 33.08,31.35 33.21,31.43 33.35,31.51 33.46,31.62 33.58,31.73 33.66,31.86 33.75,32.00 33.80,32.15 33.85,32.30 33.86,32.46 33.87,32.61 33.85,32.77 33.82,32.93 33.76,33.07 33.70,33.22 33.60,33.34 33.51,33.47 33.38,33.57 33.26,33.67 33.12,33.74 32.97,33.81 32.82,33.84 32.66,33.87 32.51,33.86 32.35,33.86 32.20,33.81 32.04,33.77 30.54,32.87 29.03,31.97 28.07,31.22 27.12,30.48 26.38,29.52 25.63,28.56 24.76,27.90 23.89,27.25 23.14,26.48 22.39,25.72 21.63,24.95 20.87,24.18 20.11,23.40 19.35,22.61 18.37,21.63 17.39,20.64 16.57,19.84 15.74,19.04 14.64,17.94 13.53,16.83 12.22,15.53 10.92,14.23 9.96,13.39 9.01,12.55 7.90,11.46 6.79,10.36 5.66,9.24 4.52,8.12 3.22,6.74 1.93,5.36 1.09,4.44 0.25,3.52 -0.46,2.42 -1.17,1.31 -1.31,1.15 -1.45,1.00 -1.55,0.81 -1.65,0.62 -1.70,0.41 -1.75,0.20 -1.75,-0.00 -1.75,-0.21 -1.70,-0.42 -1.64,-0.62 -1.55,-0.81 -1.45,-1.00 -1.30,-1.16 -1.16,-1.32 -0.99,-1.44 -0.81,-1.56 -0.61,-1.63 -0.41,-1.71 -0.20,-1.73 0.00,-1.76 0.21,-1.73 0.42,-1.71 0.62,-1.63 0.82,-1.56 0.99,-1.44 1.17,-1.31 1.17,-1.31 L 1.17,-1.31 Z"></path></g><g transform="translate(300.5548518690538 149.86351642497448) rotate(0 12.623395281570652 12.623395281570765)" stroke="none"><path fill="#000000" d="M 0.84,-1.16 Q 0.84,-1.16 2.29,-0.71 3.73,-0.26 4.94,0.67 6.15,1.61 7.17,2.44 8.19,3.28 9.21,4.10 10.23,4.92 11.25,5.88 12.26,6.84 13.04,7.68 13.83,8.51 14.83,9.24 15.83,9.96 16.57,10.91 17.32,11.85 18.12,12.58 18.92,13.32 19.81,14.18 20.69,15.04 21.59,15.92 22.48,16.79 23.18,17.88 23.88,18.96 24.56,19.80 25.23,20.65 25.38,22.38 25.53,24.10 25.66,24.20 25.79,24.29 25.89,24.42 25.99,24.54 26.05,24.68 26.12,24.83 26.15,24.98 26.18,25.14 26.18,25.29 26.17,25.45 26.13,25.60 26.08,25.76 26.00,25.89 25.93,26.03 25.82,26.14 25.71,26.26 25.57,26.34 25.44,26.43 25.29,26.48 25.14,26.53 24.98,26.54 24.82,26.55 24.67,26.53 24.51,26.50 24.36,26.44 24.22,26.38 24.72,26.44 25.22,26.51 25.01,26.53 24.80,26.55 24.59,26.51 24.39,26.46 24.21,26.35 24.02,26.24 23.89,26.08 23.75,25.92 23.67,25.72 23.59,25.52 23.58,25.31 23.57,25.10 23.63,24.89 23.69,24.69 23.80,24.51 23.92,24.34 24.09,24.21 24.26,24.08 24.46,24.01 24.67,23.95 24.88,23.95 25.09,23.95 25.29,24.01 25.49,24.08 25.66,24.21 25.83,24.34 25.95,24.52 26.07,24.69 26.13,24.90 26.18,25.10 26.17,25.31 26.16,25.53 26.08,25.72 26.00,25.92 25.86,26.08 25.72,26.24 25.54,26.35 25.36,26.46 25.15,26.51 24.94,26.55 24.73,26.53 24.52,26.51 24.33,26.42 24.14,26.33 23.98,26.18 23.83,26.03 23.73,25.85 23.63,25.66 23.60,25.45 23.56,25.24 23.60,25.03 23.63,24.82 23.73,24.63 23.83,24.44 23.99,24.30 24.14,24.15 24.84,24.13 25.53,24.10 25.66,24.20 25.79,24.29 25.89,24.42 25.99,24.54 26.05,24.68 26.12,24.83 26.15,24.98 26.18,25.14 26.18,25.29 26.17,25.45 26.13,25.60 26.08,25.76 26.01,25.89 25.93,26.03 25.82,26.14 25.71,26.26 25.57,26.34 25.44,26.43 25.29,26.48 25.14,26.53 24.98,26.54 24.82,26.55 24.67,26.53 24.51,26.50 24.36,26.44 24.22,26.38 23.06,25.74 21.91,25.11 21.11,24.14 20.30,23.18 19.59,22.07 18.88,20.96 17.95,19.79 17.02,18.62 16.00,17.58 14.97,16.54 14.07,15.59 13.16,14.65 12.18,13.55 11.19,12.45 9.98,11.26 8.78,10.07 7.79,9.30 6.81,8.52 5.82,7.70 4.83,6.88 3.77,5.96 2.72,5.05 1.80,4.34 0.89,3.63 0.02,2.40 -0.84,1.16 -0.97,1.04 -1.10,0.92 -1.19,0.78 -1.29,0.63 -1.35,0.47 -1.40,0.31 -1.42,0.13 -1.44,-0.03 -1.41,-0.20 -1.39,-0.37 -1.32,-0.54 -1.26,-0.70 -1.15,-0.84 -1.05,-0.98 -0.92,-1.09 -0.79,-1.20 -0.63,-1.28 -0.47,-1.36 -0.30,-1.39 -0.13,-1.43 0.03,-1.43 0.20,-1.42 0.37,-1.38 0.54,-1.33 0.69,-1.25 0.84,-1.16 0.84,-1.16 L 0.84,-1.16 Z"></path></g><g transform="translate(339.33978766853045 152.42477944970688) rotate(0 3.293059638670627 2.5612713994162277)" stroke="none"><path fill="#000000" d="M 0.92,-1.23 Q 0.92,-1.23 2.00,-0.92 3.09,-0.61 4.17,0.27 5.26,1.16 6.49,2.81 7.72,4.47 7.80,4.67 7.87,4.87 7.88,5.08 7.88,5.29 7.82,5.49 7.76,5.70 7.64,5.87 7.51,6.04 7.34,6.17 7.17,6.29 6.96,6.36 6.76,6.42 6.55,6.41 6.34,6.41 6.14,6.34 5.94,6.26 5.77,6.13 5.61,6.00 5.49,5.82 5.38,5.64 5.32,5.43 5.27,5.23 5.29,5.02 5.31,4.80 5.39,4.61 5.47,4.41 5.61,4.25 5.76,4.10 5.94,3.99 6.13,3.89 6.33,3.85 6.54,3.80 6.75,3.83 6.96,3.86 7.15,3.96 7.34,4.05 7.50,4.20 7.65,4.35 7.74,4.54 7.84,4.73 7.86,4.94 7.89,5.15 7.85,5.36 7.81,5.57 7.71,5.75 7.61,5.94 7.45,6.08 7.29,6.22 7.10,6.31 6.90,6.39 6.69,6.41 6.48,6.43 6.27,6.38 6.06,6.33 5.89,6.21 5.71,6.10 5.57,5.93 5.44,5.77 5.44,5.77 5.44,5.77 3.73,5.06 2.03,4.35 1.15,3.75 0.27,3.14 -0.32,2.18 -0.92,1.23 -1.05,1.10 -1.19,0.97 -1.29,0.81 -1.39,0.66 -1.45,0.48 -1.51,0.30 -1.52,0.12 -1.54,-0.06 -1.51,-0.24 -1.48,-0.42 -1.40,-0.59 -1.33,-0.76 -1.22,-0.91 -1.11,-1.06 -0.96,-1.18 -0.82,-1.30 -0.65,-1.38 -0.48,-1.46 -0.30,-1.49 -0.12,-1.53 0.06,-1.52 0.24,-1.52 0.42,-1.47 0.60,-1.41 0.76,-1.32 0.92,-1.23 0.92,-1.23 L 0.92,-1.23 Z"></path></g><g transform="translate(263.23350929745334 150.2294063572599) rotate(0 17.197094807291307 17.928883046545707)" stroke="none"><path fill="#000000" d="M 1.13,-1.13 Q 1.13,-1.13 2.67,-0.14 4.21,0.83 4.91,1.64 5.61,2.46 6.67,3.57 7.72,4.68 8.75,5.57 9.78,6.46 10.62,7.27 11.45,8.08 12.28,8.86 13.11,9.64 13.94,10.51 14.78,11.37 15.67,12.26 16.57,13.15 17.49,14.04 18.42,14.94 19.13,15.79 19.83,16.64 21.25,18.14 22.66,19.64 23.63,20.67 24.60,21.69 25.50,22.46 26.40,23.22 27.18,23.96 27.96,24.70 29.05,25.77 30.13,26.83 31.02,27.75 31.90,28.67 32.73,29.43 33.56,30.20 34.24,31.12 34.91,32.04 34.98,33.54 35.05,35.03 35.13,35.17 35.21,35.30 35.26,35.45 35.31,35.60 35.32,35.76 35.33,35.92 35.31,36.07 35.28,36.23 35.22,36.37 35.15,36.52 35.06,36.65 34.96,36.77 34.84,36.87 34.71,36.97 34.57,37.04 34.43,37.10 34.27,37.13 34.12,37.16 33.96,37.15 33.80,37.15 33.65,37.10 33.50,37.06 33.36,36.98 33.22,36.90 33.11,36.78 33.00,36.67 33.70,36.89 34.40,37.11 34.19,37.14 33.98,37.17 33.77,37.12 33.57,37.08 33.38,36.98 33.20,36.87 33.06,36.71 32.91,36.56 32.83,36.36 32.75,36.17 32.73,35.95 32.71,35.74 32.77,35.54 32.82,35.33 32.93,35.15 33.05,34.97 33.21,34.84 33.38,34.71 33.58,34.63 33.78,34.56 33.99,34.56 34.21,34.55 34.41,34.62 34.61,34.68 34.78,34.80 34.96,34.93 35.08,35.10 35.20,35.27 35.26,35.48 35.33,35.68 35.32,35.89 35.31,36.10 35.24,36.30 35.16,36.50 35.03,36.67 34.90,36.83 34.72,36.95 34.54,37.06 34.33,37.11 34.13,37.16 33.91,37.14 33.70,37.13 33.51,37.04 33.31,36.96 33.15,36.81 33.00,36.67 32.89,36.49 32.79,36.30 32.75,36.09 32.71,35.88 32.74,35.67 32.77,35.46 32.86,35.27 32.96,35.08 33.11,34.93 33.26,34.78 34.15,34.91 35.05,35.03 35.13,35.17 35.21,35.30 35.26,35.45 35.31,35.60 35.32,35.76 35.34,35.92 35.31,36.07 35.28,36.23 35.22,36.37 35.15,36.52 35.06,36.65 34.96,36.77 34.84,36.87 34.72,36.97 34.57,37.04 34.43,37.10 34.27,37.13 34.12,37.16 33.96,37.15 33.80,37.15 33.65,37.10 33.50,37.06 33.36,36.98 33.22,36.90 33.11,36.78 33.00,36.67 31.72,35.58 30.45,34.49 29.62,33.40 28.79,32.31 27.87,31.49 26.96,30.67 26.17,29.90 25.39,29.12 24.20,28.08 23.01,27.04 21.96,26.13 20.91,25.22 19.90,24.13 18.89,23.04 17.63,21.61 16.36,20.17 15.32,18.94 14.27,17.71 13.36,16.79 12.46,15.87 11.58,14.98 10.70,14.08 9.96,13.22 9.22,12.37 8.36,11.63 7.50,10.90 6.66,10.12 5.82,9.34 4.64,8.23 3.45,7.13 2.14,5.67 0.83,4.21 -0.14,2.67 -1.13,1.13 -1.25,0.98 -1.37,0.82 -1.45,0.65 -1.53,0.47 -1.56,0.28 -1.60,0.09 -1.58,-0.09 -1.57,-0.28 -1.51,-0.47 -1.46,-0.65 -1.36,-0.82 -1.26,-0.98 -1.12,-1.12 -0.98,-1.26 -0.82,-1.36 -0.65,-1.46 -0.47,-1.51 -0.28,-1.57 -0.09,-1.58 0.09,-1.60 0.28,-1.56 0.47,-1.53 0.65,-1.45 0.82,-1.37 0.98,-1.25 1.13,-1.13 1.13,-1.13 L 1.13,-1.13 Z"></path></g><g transform="translate(336.04672802985976 221.5790318617901) rotate(0 12.440441940744336 13.72108182779425)" stroke="none"><path fill="#000000" d="M 1.03,-1.03 Q 1.03,-1.03 2.25,-0.35 3.47,0.31 4.82,1.51 6.17,2.70 7.12,3.75 8.06,4.79 8.99,5.74 9.91,6.69 10.94,7.83 11.96,8.97 12.95,9.99 13.93,11.00 14.79,12.22 15.65,13.44 16.45,14.31 17.26,15.19 18.11,16.06 18.95,16.93 19.76,17.86 20.58,18.79 21.67,20.01 22.76,21.24 23.51,22.06 24.27,22.88 24.35,24.41 24.43,25.93 24.56,26.03 24.68,26.12 24.79,26.24 24.89,26.37 24.95,26.51 25.02,26.65 25.05,26.81 25.09,26.96 25.08,27.12 25.08,27.28 25.03,27.43 24.99,27.58 24.91,27.72 24.83,27.86 24.72,27.97 24.61,28.09 24.48,28.17 24.35,28.26 24.20,28.31 24.05,28.36 23.89,28.37 23.73,28.38 23.57,28.36 23.42,28.33 23.27,28.27 23.13,28.21 23.06,28.17 22.99,28.12 22.85,27.97 22.70,27.82 22.61,27.63 22.52,27.43 22.49,27.22 22.47,27.01 22.51,26.80 22.55,26.60 22.66,26.41 22.77,26.23 22.93,26.09 23.09,25.95 23.29,25.87 23.48,25.79 23.70,25.78 23.91,25.76 24.11,25.82 24.32,25.87 24.50,25.99 24.67,26.11 24.80,26.28 24.93,26.45 25.00,26.65 25.07,26.85 25.07,27.06 25.08,27.27 25.01,27.47 24.94,27.68 24.82,27.85 24.69,28.02 24.52,28.14 24.34,28.26 24.14,28.32 23.93,28.38 23.72,28.37 23.51,28.36 23.31,28.28 23.11,28.20 22.95,28.07 22.78,27.93 22.67,27.75 22.56,27.57 22.52,27.36 22.47,27.15 22.49,26.94 22.51,26.73 22.60,26.54 22.68,26.34 22.83,26.19 22.97,26.03 23.16,25.93 23.35,25.83 23.56,25.79 23.77,25.76 23.98,25.79 24.19,25.82 24.31,25.88 24.43,25.93 24.56,26.03 24.68,26.12 24.79,26.24 24.89,26.37 24.95,26.51 25.02,26.65 25.05,26.81 25.09,26.96 25.08,27.12 25.08,27.28 25.03,27.43 24.99,27.58 24.91,27.72 24.83,27.86 24.72,27.97 24.61,28.09 24.48,28.17 24.35,28.26 24.20,28.31 24.05,28.36 23.89,28.37 23.73,28.38 23.57,28.36 23.42,28.33 23.27,28.27 23.13,28.21 21.92,27.17 20.71,26.13 19.83,25.43 18.95,24.73 18.12,23.74 17.30,22.75 16.55,21.77 15.80,20.78 15.01,20.01 14.23,19.23 13.51,18.45 12.78,17.66 12.14,16.63 11.50,15.59 10.89,14.60 10.28,13.61 9.27,12.58 8.26,11.54 7.12,10.34 5.98,9.15 5.09,8.09 4.20,7.03 3.13,6.02 2.06,5.01 1.19,4.24 0.31,3.47 -0.35,2.25 -1.03,1.03 -1.13,0.89 -1.24,0.75 -1.31,0.59 -1.39,0.43 -1.42,0.26 -1.45,0.08 -1.44,-0.08 -1.43,-0.26 -1.38,-0.43 -1.32,-0.59 -1.23,-0.74 -1.14,-0.89 -1.02,-1.02 -0.89,-1.14 -0.74,-1.23 -0.59,-1.32 -0.43,-1.38 -0.26,-1.43 -0.08,-1.44 0.08,-1.45 0.26,-1.42 0.43,-1.39 0.59,-1.31 0.75,-1.24 0.89,-1.13 1.03,-1.03 1.03,-1.03 L 1.03,-1.03 Z"></path></g><g transform="translate(357.26867908976 206.57732689631325) rotate(0 6.037276004229454 6.220229345055827)" stroke="none"><path fill="#000000" d="M 1.04,-0.83 Q 1.04,-0.83 2.35,-0.15 3.66,0.52 4.63,1.60 5.60,2.67 6.56,3.68 7.53,4.68 8.37,5.51 9.20,6.33 10.24,7.36 11.28,8.39 11.75,9.75 12.23,11.10 12.33,11.22 12.43,11.34 12.50,11.49 12.57,11.63 12.61,11.78 12.64,11.94 12.64,12.09 12.64,12.25 12.60,12.41 12.56,12.56 12.48,12.70 12.40,12.84 12.30,12.95 12.19,13.07 12.06,13.16 11.93,13.24 11.78,13.30 11.63,13.35 11.47,13.37 11.31,13.38 11.16,13.36 11.00,13.34 10.85,13.28 10.71,13.22 10.58,13.13 10.45,13.04 10.35,12.92 10.26,12.81 10.17,12.62 10.07,12.43 10.05,12.22 10.03,12.01 10.07,11.80 10.11,11.59 10.22,11.41 10.33,11.23 10.49,11.09 10.65,10.95 10.85,10.87 11.05,10.79 11.26,10.78 11.47,10.76 11.68,10.82 11.88,10.87 12.06,10.99 12.23,11.11 12.36,11.28 12.49,11.45 12.56,11.65 12.63,11.85 12.63,12.06 12.64,12.27 12.57,12.48 12.50,12.68 12.37,12.85 12.25,13.02 12.07,13.14 11.90,13.26 11.69,13.32 11.49,13.37 11.28,13.36 11.06,13.35 10.87,13.28 10.67,13.20 10.51,13.06 10.34,12.93 10.23,12.74 10.12,12.56 10.07,12.36 10.03,12.15 10.05,11.94 10.07,11.73 10.16,11.53 10.25,11.34 10.39,11.18 10.54,11.03 10.72,10.93 10.91,10.83 11.12,10.79 11.33,10.76 11.54,10.79 11.75,10.82 11.94,10.92 12.13,11.02 12.18,11.06 12.23,11.10 12.33,11.22 12.43,11.34 12.50,11.49 12.57,11.63 12.61,11.78 12.64,11.94 12.64,12.09 12.64,12.25 12.60,12.41 12.56,12.56 12.48,12.70 12.40,12.84 12.30,12.95 12.19,13.07 12.06,13.16 11.93,13.24 11.78,13.30 11.63,13.35 11.47,13.37 11.31,13.38 11.16,13.36 11.00,13.34 10.85,13.28 10.71,13.22 10.58,13.13 10.45,13.04 8.99,12.32 7.54,11.60 6.38,10.58 5.23,9.57 4.34,8.68 3.44,7.80 2.64,6.96 1.84,6.11 0.77,4.90 -0.29,3.68 -0.66,2.26 -1.04,0.83 -1.13,0.69 -1.21,0.56 -1.26,0.40 -1.31,0.25 -1.32,0.09 -1.33,-0.06 -1.31,-0.22 -1.28,-0.38 -1.21,-0.53 -1.15,-0.68 -1.05,-0.80 -0.95,-0.93 -0.83,-1.03 -0.70,-1.13 -0.55,-1.20 -0.41,-1.27 -0.25,-1.30 -0.09,-1.33 0.06,-1.32 0.22,-1.31 0.38,-1.27 0.53,-1.22 0.67,-1.14 0.81,-1.06 0.93,-0.94 1.04,-0.83 1.04,-0.83 L 1.04,-0.83 Z"></path></g><g transform="translate(263.23350929745334 189.380232089022) rotate(0 27.9910069287003 29.8204817141783)" stroke="none"><path fill="#000000" d="M 1.01,-1.01 Q 1.01,-1.01 2.22,-0.53 3.43,-0.06 4.41,0.90 5.39,1.86 6.27,2.83 7.14,3.80 8.11,4.81 9.08,5.82 9.80,6.66 10.52,7.51 11.27,8.27 12.02,9.04 12.88,10.02 13.74,11.00 14.59,12.03 15.44,13.07 16.39,14.01 17.34,14.96 18.33,16.27 19.31,17.58 20.21,18.51 21.10,19.44 22.07,20.60 23.04,21.75 23.96,22.85 24.89,23.94 25.78,24.85 26.67,25.75 27.75,26.98 28.83,28.22 29.60,28.99 30.37,29.76 31.11,30.54 31.86,31.32 32.64,32.07 33.43,32.83 34.28,33.69 35.14,34.55 36.16,35.42 37.18,36.30 38.15,37.24 39.11,38.19 40.57,39.48 42.02,40.78 42.79,41.69 43.56,42.59 44.43,43.46 45.31,44.33 46.40,45.31 47.49,46.29 48.31,47.23 49.12,48.17 50.05,49.17 50.98,50.18 51.75,51.04 52.51,51.91 53.56,52.95 54.61,54.00 55.36,54.83 56.11,55.67 56.65,57.39 57.19,59.12 57.24,59.33 57.29,59.54 57.27,59.75 57.25,59.96 57.17,60.15 57.08,60.35 56.94,60.51 56.80,60.66 56.61,60.77 56.42,60.87 56.22,60.91 56.01,60.95 55.80,60.92 55.59,60.89 55.40,60.79 55.21,60.70 55.06,60.55 54.91,60.40 54.81,60.21 54.72,60.02 54.69,59.80 54.66,59.59 54.71,59.39 54.75,59.18 54.85,58.99 54.96,58.81 55.12,58.67 55.28,58.53 55.47,58.44 55.67,58.36 55.88,58.34 56.09,58.33 56.30,58.38 56.50,58.43 56.68,58.55 56.86,58.66 56.99,58.83 57.12,59.00 57.20,59.19 57.27,59.39 57.27,59.61 57.28,59.82 57.21,60.02 57.15,60.23 57.03,60.40 56.90,60.57 56.73,60.69 56.55,60.82 56.35,60.88 56.15,60.94 55.94,60.93 55.72,60.92 55.52,60.85 55.33,60.78 55.16,60.64 55.00,60.51 54.88,60.33 54.77,60.15 54.77,60.15 54.77,60.15 53.35,59.40 51.94,58.64 50.76,57.48 49.59,56.32 48.57,55.30 47.55,54.29 46.65,53.38 45.75,52.47 44.98,51.66 44.21,50.86 43.52,50.05 42.82,49.24 41.88,48.34 40.94,47.44 39.82,46.37 38.70,45.31 37.90,44.41 37.10,43.51 36.21,42.81 35.31,42.11 34.37,41.18 33.42,40.25 32.34,39.34 31.26,38.43 30.40,37.58 29.55,36.74 28.75,35.97 27.95,35.20 27.20,34.42 26.46,33.64 25.59,32.61 24.71,31.59 23.58,30.45 22.45,29.32 21.36,27.99 20.27,26.66 19.36,25.55 18.45,24.45 17.55,23.38 16.64,22.31 15.79,21.50 14.94,20.69 14.34,19.80 13.74,18.92 12.93,18.05 12.13,17.18 11.41,16.28 10.70,15.37 9.94,14.49 9.18,13.61 8.13,12.51 7.08,11.42 6.25,10.40 5.42,9.38 4.64,8.56 3.87,7.73 2.87,6.56 1.86,5.39 0.90,4.41 -0.06,3.43 -0.53,2.22 -1.01,1.01 -1.11,0.87 -1.22,0.74 -1.29,0.58 -1.36,0.42 -1.39,0.25 -1.42,0.08 -1.41,-0.08 -1.40,-0.25 -1.35,-0.42 -1.30,-0.58 -1.21,-0.73 -1.12,-0.88 -1.00,-1.00 -0.88,-1.12 -0.73,-1.21 -0.58,-1.30 -0.42,-1.35 -0.25,-1.40 -0.08,-1.41 0.08,-1.42 0.25,-1.39 0.42,-1.36 0.58,-1.29 0.74,-1.22 0.87,-1.11 1.01,-1.01 1.01,-1.01 L 1.01,-1.01 Z"></path></g><g transform="translate(258.47687318027386 224.5062183175428) rotate(0 11.891607042316252 13.538128486967821)" stroke="none"><path fill="#000000" d="M 1.09,-1.09 Q 1.09,-1.09 2.80,-0.06 4.50,0.96 5.51,1.95 6.52,2.95 7.60,4.02 8.67,5.09 9.66,6.15 10.65,7.22 11.42,8.01 12.19,8.81 13.29,10.15 14.39,11.49 15.38,12.74 16.37,13.99 17.21,14.83 18.05,15.66 18.88,16.64 19.71,17.62 20.56,18.77 21.42,19.91 22.06,20.75 22.71,21.59 23.39,22.56 24.07,23.52 24.16,24.49 24.26,25.46 24.30,25.61 24.34,25.76 24.35,25.92 24.36,26.08 24.32,26.24 24.29,26.39 24.22,26.53 24.16,26.68 24.06,26.80 23.96,26.92 23.83,27.02 23.70,27.11 23.56,27.17 23.41,27.24 23.25,27.26 23.10,27.29 22.94,27.27 22.78,27.26 22.63,27.21 22.48,27.16 22.35,27.07 22.21,26.99 22.11,26.88 22.00,26.76 21.92,26.62 21.84,26.49 21.83,26.47 21.83,26.46 21.78,26.26 21.74,26.05 21.76,25.84 21.78,25.63 21.87,25.43 21.96,25.24 22.10,25.08 22.25,24.93 22.44,24.83 22.62,24.73 22.83,24.70 23.04,24.66 23.25,24.69 23.46,24.73 23.65,24.83 23.84,24.93 23.98,25.08 24.13,25.23 24.22,25.43 24.31,25.62 24.33,25.83 24.36,26.04 24.31,26.25 24.27,26.46 24.16,26.64 24.05,26.82 23.89,26.96 23.73,27.10 23.53,27.18 23.33,27.26 23.12,27.27 22.91,27.28 22.70,27.22 22.50,27.17 22.32,27.05 22.15,26.93 22.02,26.76 21.89,26.59 21.82,26.39 21.75,26.19 21.75,25.98 21.75,25.76 21.82,25.56 21.88,25.36 22.01,25.19 22.14,25.02 22.32,24.90 22.49,24.78 22.70,24.73 22.90,24.67 23.11,24.68 23.33,24.69 23.52,24.77 23.72,24.85 23.88,24.98 24.05,25.12 24.15,25.29 24.26,25.46 24.30,25.61 24.34,25.76 24.35,25.92 24.36,26.08 24.32,26.24 24.29,26.39 24.22,26.53 24.16,26.68 24.06,26.80 23.96,26.92 23.83,27.02 23.70,27.11 23.56,27.17 23.41,27.24 23.25,27.26 23.10,27.29 22.94,27.27 22.78,27.26 22.63,27.21 22.48,27.16 22.35,27.07 22.21,26.99 22.11,26.88 22.00,26.76 21.92,26.62 21.84,26.49 20.78,26.54 19.72,26.60 18.86,25.59 18.00,24.58 17.29,23.64 16.57,22.69 15.91,21.83 15.26,20.96 14.48,19.97 13.70,18.98 12.72,17.80 11.74,16.61 10.97,15.72 10.19,14.83 9.29,13.64 8.39,12.45 7.55,11.50 6.70,10.55 5.89,9.61 5.09,8.67 4.02,7.60 2.95,6.52 1.95,5.51 0.96,4.50 -0.06,2.80 -1.09,1.09 -1.20,0.94 -1.32,0.79 -1.39,0.62 -1.47,0.45 -1.50,0.27 -1.54,0.09 -1.53,-0.09 -1.52,-0.27 -1.46,-0.45 -1.40,-0.63 -1.31,-0.79 -1.21,-0.95 -1.08,-1.08 -0.95,-1.21 -0.79,-1.31 -0.63,-1.40 -0.45,-1.46 -0.27,-1.52 -0.09,-1.53 0.09,-1.54 0.27,-1.50 0.45,-1.47 0.62,-1.39 0.79,-1.32 0.94,-1.20 1.09,-1.09 1.09,-1.09 L 1.09,-1.09 Z"></path></g><g transform="translate(165.36248671981707 163.13230827518396) rotate(0 26.17718253761518 -3.5993689648736336)" stroke="none"><path fill="#000000" d="M 0.41,-1.37 Q 0.41,-1.37 2.43,-1.27 4.44,-1.17 6.01,-0.97 7.57,-0.77 9.34,-0.68 11.11,-0.58 12.62,-0.55 14.14,-0.51 16.03,-0.29 17.92,-0.08 19.01,-0.00 20.10,0.08 21.64,0.11 23.19,0.15 25.35,0.19 27.52,0.22 28.64,0.23 29.76,0.23 30.98,0.24 32.21,0.25 34.54,0.27 36.87,0.29 37.93,0.30 39.00,0.31 40.20,0.31 41.40,0.32 42.71,0.16 44.01,0.00 45.25,-0.34 46.48,-0.69 47.68,-1.07 48.87,-1.45 49.91,-1.79 50.96,-2.13 50.49,-0.89 50.02,0.35 48.70,-0.15 47.38,-0.65 46.17,-1.39 44.97,-2.13 43.16,-3.14 41.36,-4.15 39.88,-4.65 38.40,-5.15 37.29,-5.87 36.19,-6.59 34.70,-7.55 33.21,-8.51 33.01,-8.57 32.81,-8.63 32.63,-8.75 32.46,-8.87 32.33,-9.04 32.20,-9.21 32.14,-9.41 32.07,-9.61 32.07,-9.83 32.08,-10.04 32.15,-10.24 32.22,-10.44 32.35,-10.61 32.48,-10.78 32.66,-10.89 32.83,-11.01 33.04,-11.06 33.24,-11.12 33.46,-11.10 33.67,-11.09 33.87,-11.01 34.06,-10.93 34.22,-10.79 34.38,-10.65 34.49,-10.47 34.60,-10.28 34.64,-10.07 34.68,-9.87 34.66,-9.66 34.63,-9.44 34.54,-9.25 34.45,-9.06 34.30,-8.91 34.15,-8.76 33.96,-8.66 33.78,-8.56 33.57,-8.53 33.35,-8.50 33.15,-8.54 32.94,-8.57 32.75,-8.67 32.56,-8.78 32.42,-8.93 32.28,-9.09 32.19,-9.28 32.10,-9.48 32.08,-9.69 32.06,-9.90 32.11,-10.11 32.16,-10.31 32.27,-10.49 32.38,-10.67 32.54,-10.81 32.71,-10.94 32.91,-11.02 33.10,-11.10 33.32,-11.11 33.53,-11.12 33.53,-11.12 33.53,-11.12 35.45,-11.19 37.36,-11.27 38.72,-10.47 40.07,-9.68 41.75,-9.09 43.42,-8.50 45.45,-7.36 47.48,-6.21 48.61,-5.52 49.74,-4.82 51.07,-4.05 52.41,-3.27 53.23,-1.75 54.04,-0.23 53.33,0.82 52.61,1.88 51.10,2.38 49.58,2.89 48.53,3.27 47.48,3.65 46.05,4.06 44.61,4.47 43.01,4.69 41.41,4.91 40.20,4.91 39.00,4.92 37.93,4.93 36.87,4.94 34.54,4.96 32.21,4.98 30.97,4.98 29.74,4.98 28.62,4.98 27.49,4.98 25.29,4.97 23.08,4.96 21.40,4.93 19.73,4.89 18.55,4.80 17.36,4.71 15.68,4.51 14.00,4.31 12.42,4.26 10.84,4.21 8.88,4.10 6.91,3.99 4.99,3.71 3.07,3.43 1.33,2.40 -0.41,1.37 -0.56,1.30 -0.72,1.23 -0.86,1.12 -1.00,1.02 -1.10,0.88 -1.21,0.75 -1.28,0.59 -1.36,0.44 -1.39,0.27 -1.42,0.10 -1.41,-0.07 -1.41,-0.24 -1.36,-0.40 -1.31,-0.57 -1.22,-0.72 -1.13,-0.87 -1.01,-0.99 -0.89,-1.11 -0.74,-1.20 -0.60,-1.29 -0.43,-1.35 -0.27,-1.40 -0.10,-1.41 0.07,-1.43 0.24,-1.40 0.41,-1.37 0.41,-1.37 L 0.41,-1.37 Z"></path></g><g transform="translate(216.4080121404893 161.16901883592732) rotate(0 -8.507607541724951 12.761381355168055)" stroke="none"><path fill="#000000" d="M 1.07,1.07 Q 1.07,1.07 0.38,2.26 -0.29,3.44 -1.09,4.80 -1.88,6.15 -2.45,7.15 -3.02,8.14 -4.03,9.76 -5.05,11.38 -5.70,12.29 -6.34,13.19 -7.28,14.80 -8.23,16.41 -9.24,18.39 -10.25,20.37 -10.78,21.36 -11.32,22.35 -12.36,23.58 -13.40,24.82 -14.78,25.01 -16.16,25.21 -16.29,25.29 -16.42,25.38 -16.57,25.44 -16.72,25.49 -16.87,25.51 -17.03,25.52 -17.19,25.50 -17.35,25.48 -17.49,25.42 -17.64,25.36 -17.77,25.27 -17.90,25.18 -18.00,25.06 -18.10,24.94 -18.17,24.80 -18.25,24.65 -18.28,24.50 -18.32,24.35 -18.31,24.19 -18.31,24.03 -18.27,23.88 -18.23,23.72 -18.15,23.58 -18.08,23.45 -17.97,23.33 -17.86,23.21 -18.09,23.81 -18.31,24.41 -18.31,24.19 -18.30,23.98 -18.23,23.78 -18.16,23.58 -18.03,23.41 -17.90,23.24 -17.72,23.13 -17.55,23.01 -17.34,22.96 -17.14,22.90 -16.92,22.92 -16.71,22.93 -16.52,23.01 -16.32,23.09 -16.16,23.23 -16.00,23.37 -15.89,23.55 -15.78,23.74 -15.74,23.95 -15.70,24.15 -15.72,24.36 -15.75,24.58 -15.84,24.77 -15.93,24.96 -16.08,25.11 -16.23,25.26 -16.42,25.36 -16.61,25.46 -16.82,25.49 -17.03,25.52 -17.24,25.49 -17.44,25.45 -17.63,25.35 -17.82,25.24 -17.96,25.09 -18.11,24.93 -18.19,24.74 -18.28,24.54 -18.30,24.33 -18.32,24.12 -18.27,23.91 -18.22,23.71 -18.11,23.53 -18.00,23.35 -17.84,23.21 -17.67,23.08 -17.48,23.00 -17.28,22.92 -17.06,22.91 -16.85,22.91 -16.65,22.96 -16.44,23.02 -16.27,23.15 -16.10,23.27 -15.97,23.44 -15.84,23.61 -16.00,24.41 -16.16,25.21 -16.29,25.29 -16.42,25.38 -16.57,25.44 -16.72,25.49 -16.87,25.51 -17.03,25.52 -17.19,25.50 -17.35,25.48 -17.49,25.42 -17.64,25.36 -17.77,25.27 -17.90,25.18 -18.00,25.06 -18.10,24.94 -18.17,24.80 -18.25,24.65 -18.28,24.50 -18.32,24.35 -18.31,24.19 -18.31,24.03 -18.27,23.88 -18.23,23.72 -18.15,23.58 -18.08,23.45 -17.97,23.33 -17.86,23.21 -17.08,22.22 -16.29,21.24 -15.61,20.20 -14.93,19.16 -14.15,17.82 -13.36,16.47 -12.84,15.21 -12.32,13.95 -10.65,11.40 -8.98,8.85 -7.98,7.34 -6.98,5.83 -6.36,4.77 -5.73,3.72 -4.60,2.01 -3.46,0.31 -2.26,-0.37 -1.07,-1.07 -0.93,-1.18 -0.78,-1.30 -0.61,-1.37 -0.45,-1.45 -0.27,-1.48 -0.09,-1.51 0.09,-1.50 0.27,-1.49 0.44,-1.44 0.62,-1.38 0.78,-1.29 0.93,-1.19 1.06,-1.06 1.19,-0.93 1.29,-0.78 1.38,-0.62 1.44,-0.44 1.49,-0.27 1.50,-0.09 1.51,0.09 1.48,0.27 1.45,0.45 1.37,0.61 1.30,0.78 1.18,0.93 1.07,1.07 1.07,1.07 L 1.07,1.07 Z"></path></g></svg>