<svg version="1.1" xmlns="http://www.w3.org/2000/svg" viewBox="0 0 586.5521271477485 314.45799184328393" width="1759.6563814432454" height="943.3739755298518">
  <!-- svg-source:excalidraw -->
  
  <defs>
    <style class="style-fonts">
      @font-face {
        font-family: "Virgil";
        src: url("https://excalidraw.com/Virgil.woff2");
      }
      @font-face {
        font-family: "Cascadia";
        src: url("https://excalidraw.com/Cascadia.woff2");
      }
    </style>
  </defs>
  <g transform="translate(354.15900017659374 234.12820105068272) rotate(0 27.334114723500534 -76.96712308246742)" stroke="none"><path fill="#ced4da" d="M -1.43,-0.52 Q -1.43,-0.52 -1.52,-1.58 -1.61,-2.65 -1.14,-3.80 -0.67,-4.96 -0.12,-6.69 0.43,-8.42 0.91,-9.73 1.38,-11.04 2.03,-12.70 2.67,-14.36 3.04,-15.43 3.40,-16.50 3.68,-17.70 3.96,-18.90 4.27,-19.97 4.59,-21.03 4.98,-22.34 5.37,-23.65 5.77,-24.73 6.17,-25.81 6.51,-26.94 6.84,-28.07 7.37,-29.82 7.90,-31.57 8.23,-32.87 8.57,-34.17 8.87,-35.25 9.18,-36.33 9.54,-38.08 9.90,-39.83 10.18,-41.09 10.46,-42.34 10.75,-43.63 11.03,-44.92 11.37,-46.54 11.71,-48.16 12.11,-49.52 12.51,-50.88 12.90,-52.34 13.29,-53.80 13.66,-54.90 14.03,-55.99 14.50,-57.46 14.98,-58.93 15.52,-60.29 16.07,-61.65 16.65,-63.03 17.24,-64.41 17.93,-66.01 18.62,-67.61 19.11,-68.92 19.61,-70.23 19.93,-71.26 20.25,-72.30 20.54,-73.33 20.84,-74.36 21.23,-75.68 21.62,-76.99 22.07,-78.14 22.52,-79.30 22.93,-80.47 23.34,-81.65 23.86,-83.02 24.39,-84.39 24.75,-85.45 25.12,-86.50 25.63,-87.95 26.14,-89.40 26.46,-90.53 26.78,-91.66 27.09,-92.79 27.39,-93.91 27.80,-95.41 28.20,-96.90 28.59,-98.24 28.98,-99.57 29.45,-100.79 29.93,-102.01 30.46,-103.42 30.99,-104.82 31.42,-106.09 31.85,-107.36 32.27,-108.77 32.70,-110.18 33.32,-111.91 33.94,-113.64 34.42,-115.36 34.91,-117.07 35.25,-118.31 35.59,-119.55 36.06,-120.78 36.52,-122.02 36.92,-123.16 37.31,-124.31 37.88,-125.63 38.44,-126.95 38.96,-128.23 39.48,-129.50 39.94,-130.47 40.41,-131.43 40.98,-132.76 41.54,-134.10 41.95,-135.19 42.36,-136.29 42.86,-137.44 43.37,-138.58 43.85,-139.98 44.32,-141.38 44.78,-142.40 45.24,-143.42 46.08,-144.95 46.92,-146.48 47.46,-147.40 48.00,-148.32 48.52,-149.30 49.04,-150.29 49.60,-151.27 50.16,-152.24 51.64,-153.31 53.13,-154.37 53.25,-154.54 53.38,-154.71 53.55,-154.84 53.72,-154.96 53.93,-155.02 54.13,-155.08 54.34,-155.07 54.55,-155.07 54.75,-154.99 54.95,-154.92 55.12,-154.78 55.28,-154.65 55.40,-154.47 55.51,-154.29 55.56,-154.08 55.61,-153.88 55.59,-153.67 55.57,-153.45 55.49,-153.26 55.40,-153.06 55.26,-152.91 55.12,-152.75 54.93,-152.65 54.75,-152.54 54.54,-152.50 54.33,-152.47 54.12,-152.50 53.91,-152.52 53.72,-152.62 53.53,-152.72 53.38,-152.87 53.23,-153.02 53.14,-153.21 53.04,-153.40 53.01,-153.61 52.99,-153.82 53.03,-154.03 53.07,-154.24 53.18,-154.42 53.28,-154.61 53.44,-154.75 53.60,-154.89 53.79,-154.97 53.99,-155.05 54.20,-155.07 54.41,-155.09 54.62,-155.03 54.83,-154.98 55.00,-154.87 55.18,-154.75 55.31,-154.58 55.45,-154.42 55.52,-154.22 55.59,-154.02 55.60,-153.81 55.60,-153.59 55.54,-153.39 55.47,-153.19 55.47,-153.19 55.47,-153.19 54.87,-151.11 54.26,-149.04 53.68,-147.89 53.11,-146.75 52.58,-145.80 52.05,-144.85 51.52,-143.84 50.99,-142.82 50.35,-141.50 49.72,-140.19 49.26,-138.91 48.80,-137.64 48.38,-136.66 47.96,-135.68 47.58,-134.61 47.20,-133.54 46.66,-132.29 46.12,-131.05 45.61,-129.74 45.10,-128.44 44.44,-127.04 43.78,-125.65 43.30,-124.51 42.81,-123.37 42.35,-122.27 41.88,-121.17 41.37,-119.62 40.85,-118.06 40.47,-116.72 40.09,-115.37 39.58,-113.62 39.07,-111.87 38.49,-110.30 37.92,-108.73 37.46,-107.28 37.00,-105.83 36.47,-104.32 35.93,-102.82 35.42,-101.51 34.92,-100.20 34.47,-99.09 34.03,-97.97 33.65,-96.67 33.26,-95.36 32.91,-94.15 32.55,-92.93 32.19,-91.57 31.82,-90.20 31.43,-88.90 31.04,-87.60 30.60,-86.41 30.17,-85.22 29.73,-83.93 29.30,-82.64 28.80,-81.35 28.29,-80.07 27.85,-78.80 27.40,-77.54 27.00,-76.52 26.60,-75.51 26.24,-74.36 25.87,-73.21 25.51,-71.97 25.14,-70.72 24.79,-69.60 24.44,-68.48 23.85,-66.97 23.26,-65.46 22.64,-63.98 22.01,-62.50 21.45,-61.20 20.90,-59.89 20.50,-58.83 20.10,-57.78 19.67,-56.77 19.23,-55.75 18.73,-54.09 18.23,-52.44 17.82,-50.93 17.41,-49.42 17.03,-48.17 16.66,-46.93 16.42,-45.77 16.18,-44.61 15.90,-43.45 15.62,-42.28 15.33,-41.00 15.05,-39.73 14.73,-38.14 14.42,-36.56 14.18,-35.40 13.93,-34.25 13.64,-33.09 13.35,-31.94 12.89,-30.46 12.42,-28.99 12.05,-27.69 11.67,-26.39 11.34,-25.25 11.00,-24.11 10.55,-22.71 10.10,-21.31 9.79,-20.30 9.47,-19.28 9.03,-17.71 8.60,-16.14 8.30,-15.09 8.01,-14.05 7.42,-12.58 6.83,-11.10 6.37,-9.77 5.90,-8.45 5.41,-7.10 4.92,-5.75 4.43,-4.38 3.93,-3.00 3.43,-1.99 2.94,-0.98 2.19,-0.23 1.43,0.52 1.35,0.68 1.27,0.85 1.15,0.99 1.03,1.13 0.88,1.23 0.72,1.34 0.55,1.41 0.38,1.48 0.20,1.50 0.02,1.53 -0.16,1.51 -0.34,1.49 -0.51,1.42 -0.69,1.36 -0.84,1.26 -0.99,1.15 -1.12,1.02 -1.24,0.88 -1.33,0.72 -1.42,0.56 -1.47,0.38 -1.51,0.20 -1.51,0.02 -1.52,-0.16 -1.48,-0.34 -1.43,-0.52 -1.43,-0.52 L -1.43,-0.52 Z"></path></g><g transform="translate(406.2376817049819 80.19395488574924) rotate(0 23.30593785307326 -0.4315880269882655)" stroke="none"><path fill="#ced4da" d="M 0.13,-1.66 Q 0.13,-1.66 1.16,-1.94 2.18,-2.22 3.32,-2.23 4.46,-2.24 5.89,-2.24 7.31,-2.25 8.46,-2.26 9.62,-2.28 10.90,-2.30 12.17,-2.33 13.24,-2.34 14.31,-2.35 15.72,-2.35 17.13,-2.36 18.28,-2.36 19.42,-2.37 20.50,-2.37 21.59,-2.37 22.69,-2.37 23.79,-2.37 25.08,-2.37 26.36,-2.37 27.97,-2.50 29.59,-2.64 30.73,-2.64 31.87,-2.65 33.09,-2.76 34.31,-2.88 35.82,-2.90 37.33,-2.92 39.74,-3.09 42.15,-3.26 44.22,-2.85 46.29,-2.44 46.50,-2.42 46.71,-2.40 46.90,-2.31 47.10,-2.22 47.25,-2.08 47.41,-1.94 47.51,-1.75 47.61,-1.56 47.65,-1.35 47.68,-1.14 47.65,-0.93 47.62,-0.72 47.52,-0.53 47.42,-0.35 47.27,-0.20 47.12,-0.05 46.92,0.03 46.73,0.12 46.52,0.15 46.31,0.17 46.10,0.13 45.90,0.08 45.71,-0.01 45.53,-0.12 45.39,-0.28 45.25,-0.44 45.17,-0.64 45.09,-0.84 45.08,-1.05 45.06,-1.26 45.12,-1.47 45.17,-1.67 45.29,-1.85 45.41,-2.02 45.58,-2.15 45.74,-2.29 45.94,-2.35 46.14,-2.42 46.36,-2.43 46.57,-2.43 46.77,-2.36 46.97,-2.30 47.14,-2.17 47.31,-2.04 47.44,-1.87 47.56,-1.69 47.61,-1.49 47.67,-1.29 47.66,-1.07 47.65,-0.86 47.58,-0.66 47.50,-0.46 47.37,-0.30 47.23,-0.14 47.05,-0.03 46.87,0.07 46.66,0.12 46.45,0.17 46.45,0.17 46.45,0.17 44.48,1.03 42.51,1.89 39.95,2.14 37.39,2.39 35.79,2.43 34.20,2.47 33.04,2.56 31.89,2.66 30.34,2.68 28.79,2.70 27.58,2.82 26.36,2.95 25.08,2.94 23.79,2.94 22.69,2.94 21.59,2.95 20.50,2.95 19.42,2.94 18.28,2.94 17.13,2.94 15.72,2.93 14.31,2.92 13.24,2.91 12.17,2.90 10.89,2.88 9.61,2.85 8.45,2.83 7.30,2.81 5.83,2.79 4.36,2.77 3.07,2.66 1.78,2.55 0.82,2.11 -0.13,1.66 -0.33,1.62 -0.53,1.58 -0.71,1.50 -0.89,1.41 -1.05,1.28 -1.21,1.15 -1.33,0.99 -1.45,0.83 -1.53,0.64 -1.61,0.46 -1.64,0.26 -1.67,0.06 -1.65,-0.13 -1.64,-0.33 -1.57,-0.53 -1.51,-0.72 -1.40,-0.89 -1.29,-1.06 -1.14,-1.20 -1.00,-1.34 -0.82,-1.44 -0.65,-1.54 -0.45,-1.59 -0.26,-1.65 -0.06,-1.66 0.13,-1.66 0.13,-1.66 L 0.13,-1.66 Z"></path></g><g transform="translate(450.54771947753375 78.46758960667398) rotate(0 29.63594607153516 78.26189704177364)" stroke="none"><path fill="#ced4da" d="M 1.46,-0.69 Q 1.46,-0.69 2.57,0.90 3.69,2.50 4.56,4.41 5.44,6.33 5.94,7.72 6.44,9.12 6.97,10.37 7.51,11.62 8.00,13.15 8.50,14.69 9.04,15.82 9.59,16.94 10.06,18.05 10.53,19.16 11.13,20.68 11.73,22.20 12.25,23.44 12.76,24.68 13.19,25.93 13.62,27.18 14.07,28.25 14.53,29.32 15.19,30.79 15.86,32.26 16.32,33.26 16.78,34.26 17.24,35.36 17.70,36.46 18.27,37.76 18.83,39.06 19.40,40.18 19.98,41.31 20.43,42.31 20.87,43.32 21.28,44.35 21.68,45.37 22.14,46.38 22.60,47.40 23.11,48.89 23.63,50.38 24.13,51.47 24.63,52.55 24.96,53.62 25.29,54.68 25.75,55.99 26.21,57.30 26.62,58.59 27.03,59.87 27.33,61.02 27.64,62.18 27.99,63.54 28.34,64.89 28.77,66.43 29.19,67.96 29.54,69.19 29.90,70.42 30.19,71.47 30.49,72.52 30.96,74.10 31.44,75.68 31.73,76.95 32.03,78.21 32.32,79.50 32.61,80.79 32.91,82.17 33.20,83.55 33.49,84.98 33.78,86.41 34.16,87.71 34.55,89.01 34.86,90.34 35.17,91.66 35.55,92.68 35.93,93.70 36.37,95.09 36.82,96.49 37.21,97.83 37.60,99.16 38.05,100.41 38.50,101.66 38.99,102.99 39.48,104.32 39.98,105.58 40.48,106.84 41.05,107.98 41.62,109.13 42.23,110.78 42.83,112.42 43.41,113.95 43.98,115.48 44.50,117.19 45.01,118.89 45.63,120.75 46.25,122.61 46.76,124.03 47.27,125.46 47.73,126.53 48.19,127.59 48.76,128.95 49.34,130.30 50.01,131.58 50.69,132.86 51.21,134.03 51.72,135.20 52.43,136.58 53.14,137.97 53.82,139.22 54.50,140.46 55.14,141.73 55.78,143.00 56.26,143.97 56.74,144.95 57.28,145.89 57.82,146.84 58.56,148.34 59.30,149.84 59.65,152.67 59.99,155.50 60.03,155.65 60.07,155.80 60.07,155.96 60.07,156.12 60.03,156.27 59.99,156.43 59.92,156.57 59.85,156.71 59.74,156.83 59.63,156.94 59.50,157.03 59.37,157.12 59.23,157.18 59.08,157.24 58.92,157.25 58.76,157.27 58.61,157.25 58.45,157.23 58.30,157.18 58.15,157.12 58.02,157.03 57.89,156.94 57.79,156.82 57.68,156.70 57.61,156.56 57.54,156.42 57.81,156.75 58.08,157.08 57.92,156.94 57.76,156.80 57.65,156.62 57.54,156.44 57.50,156.23 57.45,156.02 57.48,155.81 57.50,155.60 57.59,155.41 57.69,155.21 57.83,155.06 57.98,154.91 58.17,154.81 58.36,154.71 58.57,154.68 58.78,154.65 58.99,154.68 59.20,154.72 59.38,154.82 59.57,154.92 59.71,155.08 59.86,155.23 59.95,155.43 60.03,155.62 60.06,155.83 60.08,156.04 60.03,156.25 59.98,156.46 59.87,156.64 59.76,156.82 59.60,156.96 59.43,157.09 59.23,157.17 59.04,157.25 58.82,157.26 58.61,157.26 58.41,157.21 58.20,157.15 58.03,157.03 57.85,156.91 57.73,156.74 57.60,156.57 57.53,156.36 57.47,156.16 57.47,155.95 57.47,155.74 57.54,155.54 57.61,155.33 57.74,155.17 57.87,155.00 58.05,154.88 58.22,154.76 58.43,154.71 58.64,154.65 58.85,154.67 59.06,154.68 59.53,155.09 59.99,155.50 60.03,155.65 60.07,155.80 60.07,155.96 60.07,156.12 60.03,156.27 59.99,156.43 59.92,156.57 59.85,156.71 59.74,156.83 59.63,156.94 59.50,157.03 59.37,157.12 59.23,157.18 59.08,157.24 58.92,157.25 58.76,157.27 58.61,157.25 58.45,157.23 58.30,157.18 58.15,157.12 58.02,157.03 57.89,156.94 57.79,156.82 57.68,156.70 57.61,156.56 57.54,156.42 56.21,154.11 54.88,151.79 53.94,150.00 53.00,148.21 52.44,147.08 51.88,145.95 51.27,144.62 50.67,143.29 50.16,142.29 49.65,141.28 49.08,140.27 48.51,139.26 47.97,138.33 47.43,137.40 46.91,136.23 46.40,135.06 45.68,133.70 44.96,132.34 44.32,130.83 43.67,129.32 43.15,128.13 42.63,126.93 42.16,125.61 41.68,124.30 41.01,122.33 40.35,120.37 39.87,118.77 39.39,117.17 38.99,116.08 38.60,115.00 38.01,113.48 37.43,111.97 36.88,110.73 36.34,109.49 35.90,108.35 35.46,107.22 34.83,105.78 34.21,104.35 33.80,103.09 33.39,101.84 32.83,100.24 32.26,98.64 31.94,97.51 31.62,96.39 31.22,95.21 30.81,94.03 30.38,92.58 29.94,91.13 29.62,89.95 29.30,88.77 28.90,87.13 28.49,85.48 28.21,84.11 27.93,82.74 27.63,81.50 27.34,80.26 27.05,79.02 26.76,77.77 26.48,76.68 26.20,75.58 25.85,74.35 25.50,73.11 25.18,72.02 24.86,70.93 24.43,69.43 23.99,67.93 23.57,66.45 23.15,64.97 22.88,63.80 22.60,62.64 22.11,61.05 21.62,59.45 21.29,58.36 20.95,57.27 20.41,55.59 19.87,53.90 19.39,52.90 18.92,51.91 18.40,50.32 17.87,48.73 17.36,47.44 16.84,46.15 16.36,45.13 15.87,44.11 15.14,42.64 14.41,41.17 13.96,40.18 13.51,39.20 13.06,38.00 12.61,36.81 12.03,35.56 11.44,34.31 11.02,33.31 10.60,32.31 10.04,30.94 9.48,29.56 9.08,28.47 8.67,27.39 8.13,26.05 7.59,24.71 7.20,23.61 6.80,22.51 6.33,21.47 5.86,20.43 5.36,19.21 4.87,18.00 4.38,16.87 3.88,15.74 3.52,14.57 3.16,13.40 2.60,12.01 2.03,10.62 1.64,9.41 1.25,8.20 0.43,6.32 -0.38,4.44 -0.92,2.57 -1.46,0.69 -1.52,0.51 -1.58,0.32 -1.60,0.13 -1.61,-0.06 -1.58,-0.25 -1.55,-0.44 -1.47,-0.62 -1.40,-0.80 -1.28,-0.96 -1.16,-1.11 -1.01,-1.24 -0.86,-1.36 -0.69,-1.45 -0.51,-1.53 -0.32,-1.57 -0.13,-1.61 0.06,-1.60 0.25,-1.59 0.44,-1.54 0.63,-1.48 0.80,-1.39 0.97,-1.29 1.11,-1.15 1.25,-1.02 1.35,-0.86 1.46,-0.69 1.46,-0.69 L 1.46,-0.69 Z"></path></g><g transform="translate(509.5318752933438 233.55275473840516) rotate(0 -21.867289144575693 13.810922232599978)" stroke="none"><path fill="#ced4da" d="M 0.23,-1.79 Q 0.23,-1.79 1.51,-1.87 2.78,-1.95 4.34,-1.86 5.91,-1.77 6.99,-1.88 8.08,-1.99 9.47,-1.60 10.85,-1.22 11.65,-0.35 12.44,0.51 12.38,1.85 12.31,3.19 12.33,4.36 12.35,5.53 12.38,6.68 12.41,7.83 12.44,9.33 12.47,10.84 12.55,11.90 12.63,12.96 12.81,14.28 13.00,15.61 13.18,16.86 13.36,18.12 13.48,19.34 13.59,20.57 13.72,21.86 13.86,23.15 13.27,24.73 12.68,26.31 11.61,26.71 10.54,27.11 9.18,27.18 7.81,27.25 6.75,27.39 5.68,27.53 4.53,27.54 3.39,27.54 2.04,27.68 0.70,27.81 -0.51,27.82 -1.74,27.82 -3.15,27.82 -4.57,27.82 -5.66,27.98 -6.75,28.14 -7.89,28.26 -9.03,28.37 -10.26,28.51 -11.48,28.66 -12.95,28.91 -14.43,29.17 -15.76,29.21 -17.09,29.24 -18.33,29.38 -19.58,29.51 -20.79,29.64 -22.01,29.77 -23.25,29.91 -24.50,30.05 -25.80,30.08 -27.09,30.12 -28.30,30.12 -29.51,30.12 -31.16,30.00 -32.81,29.89 -34.23,29.74 -35.64,29.60 -37.10,29.45 -38.56,29.30 -39.99,29.30 -41.41,29.30 -42.56,29.30 -43.71,29.31 -44.93,29.32 -46.14,29.33 -47.43,29.53 -48.73,29.72 -49.85,29.74 -50.97,29.75 -52.23,29.55 -53.48,29.36 -54.62,28.04 -55.75,26.73 -56.01,25.59 -56.27,24.44 -56.48,23.14 -56.69,21.83 -56.74,20.68 -56.78,19.53 -56.90,18.12 -57.02,16.71 -57.16,15.50 -57.29,14.30 -57.32,13.15 -57.35,12.00 -57.44,10.69 -57.53,9.37 -57.54,8.23 -57.55,7.08 -57.66,5.82 -57.77,4.55 -57.76,3.43 -57.74,2.30 -57.52,1.00 -57.30,-0.30 -56.30,-1.22 -55.30,-2.15 -54.17,-2.07 -53.03,-1.98 -51.86,-1.69 -50.69,-1.41 -49.21,-1.15 -47.73,-0.90 -46.58,-0.38 -45.43,0.13 -43.24,0.52 -41.05,0.90 -40.89,0.87 -40.74,0.83 -40.58,0.84 -40.42,0.84 -40.27,0.88 -40.11,0.92 -39.98,1.00 -39.84,1.08 -39.72,1.18 -39.60,1.29 -39.52,1.42 -39.43,1.55 -39.38,1.70 -39.32,1.85 -39.31,2.01 -39.29,2.17 -39.31,2.32 -39.34,2.48 -39.39,2.63 -39.45,2.77 -39.55,2.90 -39.64,3.03 -39.76,3.13 -39.88,3.24 -40.02,3.31 -40.16,3.38 -39.73,2.81 -39.29,2.24 -39.34,2.45 -39.39,2.65 -39.51,2.83 -39.62,3.01 -39.79,3.15 -39.95,3.28 -40.15,3.36 -40.35,3.43 -40.56,3.44 -40.77,3.44 -40.98,3.38 -41.18,3.32 -41.35,3.20 -41.53,3.08 -41.65,2.90 -41.78,2.73 -41.84,2.53 -41.90,2.33 -41.90,2.11 -41.90,1.90 -41.82,1.70 -41.75,1.50 -41.62,1.34 -41.49,1.17 -41.31,1.05 -41.13,0.94 -40.92,0.89 -40.72,0.83 -40.51,0.85 -40.29,0.86 -40.10,0.95 -39.90,1.03 -39.74,1.17 -39.59,1.31 -39.48,1.50 -39.37,1.68 -39.33,1.89 -39.29,2.10 -39.32,2.31 -39.35,2.52 -39.44,2.71 -39.53,2.90 -39.68,3.05 -39.83,3.20 -40.02,3.30 -40.21,3.39 -40.42,3.42 -40.63,3.45 -40.84,3.42 -41.05,3.38 -41.24,3.27 -41.42,3.17 -41.56,3.01 -41.71,2.85 -41.79,2.66 -41.88,2.47 -41.46,1.69 -41.05,0.90 -40.89,0.87 -40.74,0.83 -40.58,0.84 -40.42,0.84 -40.27,0.88 -40.11,0.92 -39.98,1.00 -39.84,1.08 -39.72,1.18 -39.60,1.29 -39.52,1.42 -39.43,1.55 -39.38,1.70 -39.32,1.85 -39.31,2.01 -39.29,2.17 -39.31,2.32 -39.34,2.48 -39.39,2.63 -39.45,2.77 -39.55,2.90 -39.64,3.03 -39.76,3.13 -39.88,3.24 -40.02,3.31 -40.16,3.38 -41.24,3.59 -42.31,3.80 -43.58,4.33 -44.85,4.86 -45.98,4.72 -47.11,4.58 -48.20,4.32 -49.29,4.06 -50.36,3.85 -51.43,3.65 -52.90,3.22 -54.37,2.80 -53.57,1.79 -52.78,0.78 -52.75,1.98 -52.72,3.18 -52.54,4.56 -52.37,5.93 -52.32,7.32 -52.27,8.70 -52.13,9.87 -51.99,11.05 -52.03,12.32 -52.06,13.60 -51.85,15.15 -51.65,16.71 -51.52,17.86 -51.39,19.02 -51.34,20.27 -51.29,21.51 -51.13,22.92 -50.97,24.33 -49.65,24.33 -48.33,24.33 -46.95,24.26 -45.57,24.18 -44.24,24.19 -42.90,24.20 -41.74,24.22 -40.57,24.23 -39.49,24.25 -38.42,24.27 -37.03,24.37 -35.64,24.47 -34.48,24.66 -33.32,24.86 -32.15,24.99 -30.98,25.12 -29.52,25.12 -28.06,25.12 -26.53,25.19 -25.00,25.25 -23.66,25.02 -22.32,24.78 -21.02,24.65 -19.72,24.52 -18.45,24.39 -17.18,24.26 -15.86,24.21 -14.54,24.16 -13.13,23.91 -11.73,23.66 -10.48,23.52 -9.24,23.38 -8.13,23.22 -7.01,23.06 -5.79,22.94 -4.57,22.81 -3.16,22.81 -1.75,22.80 -0.61,22.79 0.51,22.78 1.94,22.64 3.36,22.51 4.44,22.49 5.52,22.48 6.62,22.35 7.72,22.23 8.98,22.20 10.25,22.18 9.66,23.09 9.06,24.01 8.88,22.42 8.69,20.83 8.58,19.52 8.48,18.22 8.35,17.11 8.23,16.00 8.03,14.87 7.84,13.75 7.74,12.65 7.65,11.55 7.67,10.27 7.69,8.98 7.72,7.83 7.76,6.68 7.79,5.51 7.83,4.34 8.58,3.55 9.34,2.76 8.17,2.71 6.99,2.66 5.77,2.72 4.54,2.78 3.36,2.70 2.17,2.62 0.96,2.20 -0.23,1.79 -0.44,1.73 -0.66,1.68 -0.85,1.57 -1.04,1.47 -1.20,1.32 -1.36,1.18 -1.48,1.00 -1.61,0.82 -1.68,0.61 -1.76,0.41 -1.78,0.19 -1.80,-0.02 -1.77,-0.23 -1.74,-0.45 -1.67,-0.65 -1.59,-0.85 -1.46,-1.03 -1.33,-1.21 -1.17,-1.35 -1.00,-1.49 -0.81,-1.59 -0.62,-1.69 -0.40,-1.74 -0.19,-1.79 0.02,-1.79 0.23,-1.79 0.23,-1.79 L 0.23,-1.79 Z"></path></g><g transform="translate(459.4672822001696 211.1100061104305) rotate(0 4.891372681086409 12.372280109663507)" stroke="none"><path fill="#ced4da" d="M 1.50,-0.75 Q 1.50,-0.75 2.40,0.24 3.30,1.24 4.04,2.66 4.78,4.07 5.22,5.17 5.66,6.27 6.21,7.55 6.76,8.82 7.17,9.82 7.57,10.81 8.11,12.27 8.65,13.72 9.17,14.86 9.69,15.99 10.16,17.38 10.63,18.76 10.54,22.20 10.44,25.64 10.27,25.77 10.09,25.89 9.89,25.95 9.69,26.00 9.47,26.00 9.26,25.99 9.06,25.91 8.87,25.83 8.70,25.70 8.54,25.56 8.43,25.38 8.32,25.20 8.27,24.99 8.22,24.79 8.24,24.57 8.26,24.36 8.35,24.17 8.44,23.98 8.58,23.82 8.72,23.66 8.91,23.56 9.10,23.46 9.31,23.42 9.52,23.39 9.73,23.42 9.94,23.45 10.13,23.55 10.31,23.65 10.46,23.80 10.61,23.95 10.70,24.14 10.79,24.34 10.82,24.55 10.84,24.76 10.80,24.97 10.76,25.17 10.65,25.36 10.54,25.54 10.38,25.68 10.22,25.82 10.02,25.90 9.83,25.98 9.61,25.99 9.40,26.01 9.20,25.95 8.99,25.90 8.81,25.78 8.64,25.66 8.51,25.50 8.38,25.33 8.31,25.13 8.24,24.93 8.23,24.71 8.23,24.50 8.30,24.30 8.36,24.10 8.49,23.93 8.62,23.76 8.62,23.76 8.62,23.76 7.35,22.43 6.08,21.11 5.68,19.76 5.27,18.41 4.82,17.38 4.37,16.34 3.91,15.12 3.44,13.89 3.03,12.73 2.62,11.57 2.07,10.27 1.52,8.98 0.95,7.56 0.39,6.14 -0.29,4.76 -0.98,3.39 -1.24,2.07 -1.50,0.75 -1.57,0.56 -1.64,0.37 -1.66,0.16 -1.68,-0.03 -1.65,-0.23 -1.62,-0.43 -1.55,-0.62 -1.47,-0.81 -1.35,-0.97 -1.23,-1.14 -1.08,-1.27 -0.92,-1.40 -0.74,-1.49 -0.56,-1.58 -0.36,-1.62 -0.16,-1.67 0.03,-1.67 0.23,-1.66 0.43,-1.61 0.62,-1.56 0.80,-1.46 0.98,-1.36 1.13,-1.22 1.28,-1.09 1.39,-0.92 1.50,-0.75 1.50,-0.75 L 1.50,-0.75 Z"></path></g><g transform="translate(460.04272851244673 211.97318874996813) rotate(0 -31.50616634311882 10.78978299421874)" stroke="none"><path fill="#ced4da" d="M 0.13,1.46 Q 0.13,1.46 -0.72,2.09 -1.58,2.73 -2.88,2.90 -4.17,3.07 -5.26,3.14 -6.35,3.20 -7.58,3.32 -8.81,3.45 -10.06,3.48 -11.30,3.51 -12.46,3.52 -13.61,3.53 -14.77,3.54 -15.92,3.54 -17.14,3.55 -18.36,3.55 -20.41,3.56 -22.46,3.57 -23.76,3.58 -25.06,3.59 -26.45,3.59 -27.84,3.59 -29.10,3.59 -30.37,3.59 -31.64,3.69 -32.91,3.80 -34.24,3.83 -35.57,3.86 -36.73,3.99 -37.88,4.11 -39.27,4.12 -40.65,4.12 -42.00,4.25 -43.34,4.38 -44.78,4.49 -46.23,4.60 -47.47,4.62 -48.71,4.65 -49.89,4.64 -51.06,4.64 -52.33,4.46 -53.60,4.27 -54.75,4.20 -55.89,4.13 -55.54,5.30 -55.19,6.47 -55.36,7.66 -55.54,8.86 -55.83,10.03 -56.12,11.21 -56.37,12.59 -56.62,13.98 -56.95,15.04 -57.29,16.10 -57.87,17.33 -58.44,18.55 -60.27,19.43 -62.09,20.30 -61.90,20.40 -61.72,20.51 -61.57,20.66 -61.43,20.82 -61.34,21.01 -61.25,21.21 -61.23,21.42 -61.21,21.63 -61.26,21.84 -61.31,22.04 -61.42,22.22 -61.53,22.40 -61.70,22.54 -61.86,22.68 -62.06,22.75 -62.26,22.83 -62.47,22.84 -62.68,22.85 -62.88,22.79 -63.09,22.73 -63.26,22.61 -63.44,22.49 -63.56,22.32 -63.69,22.14 -63.76,21.94 -63.82,21.74 -63.82,21.53 -63.82,21.32 -63.75,21.11 -63.68,20.91 -63.55,20.75 -63.42,20.58 -63.24,20.46 -63.06,20.34 -62.86,20.29 -62.65,20.24 -62.44,20.25 -62.23,20.26 -62.03,20.34 -61.83,20.42 -61.67,20.56 -61.51,20.70 -61.41,20.89 -61.30,21.07 -61.25,21.28 -61.21,21.49 -61.24,21.70 -61.26,21.91 -61.35,22.10 -61.45,22.29 -61.59,22.44 -61.74,22.60 -61.93,22.69 -62.12,22.79 -62.33,22.82 -62.54,22.86 -62.75,22.82 -62.96,22.78 -62.96,22.78 -62.96,22.78 -63.73,20.35 -64.50,17.92 -63.79,16.65 -63.09,15.37 -62.64,14.18 -62.18,12.99 -62.00,11.83 -61.82,10.66 -61.54,9.57 -61.26,8.49 -61.06,7.40 -60.86,6.31 -60.67,5.02 -60.47,3.74 -60.24,2.55 -60.00,1.37 -58.82,0.27 -57.64,-0.83 -56.47,-1.01 -55.29,-1.19 -54.16,-1.02 -53.03,-0.85 -51.76,-0.73 -50.48,-0.61 -49.31,-0.62 -48.14,-0.63 -46.93,-0.69 -45.72,-0.74 -44.60,-0.85 -43.47,-0.97 -42.09,-1.11 -40.71,-1.25 -39.41,-1.26 -38.10,-1.28 -36.86,-1.43 -35.61,-1.57 -34.50,-1.60 -33.39,-1.64 -31.88,-1.75 -30.37,-1.86 -29.10,-1.86 -27.84,-1.86 -26.45,-1.86 -25.06,-1.87 -23.76,-1.85 -22.46,-1.84 -21.30,-1.84 -20.15,-1.83 -18.83,-1.83 -17.52,-1.82 -16.20,-1.82 -14.88,-1.82 -13.49,-1.81 -12.10,-1.79 -10.91,-1.80 -9.73,-1.80 -8.53,-1.93 -7.33,-2.05 -6.01,-2.06 -4.68,-2.07 -3.37,-2.23 -2.05,-2.40 -1.09,-1.93 -0.13,-1.46 0.04,-1.45 0.22,-1.45 0.39,-1.40 0.56,-1.35 0.71,-1.26 0.87,-1.18 0.99,-1.06 1.12,-0.94 1.22,-0.79 1.32,-0.64 1.37,-0.47 1.43,-0.30 1.45,-0.13 1.46,0.04 1.44,0.21 1.41,0.39 1.34,0.55 1.27,0.72 1.17,0.86 1.06,1.00 0.93,1.11 0.79,1.23 0.63,1.31 0.47,1.38 0.30,1.42 0.13,1.46 0.13,1.46 L 0.13,1.46 Z"></path></g><g transform="translate(393.86540159531864 232.97728208388503) rotate(0 -17.839112274148874 12.660016436923797)" stroke="none"><path fill="#ced4da" d="M -0.15,-1.71 Q -0.15,-1.71 0.71,-2.21 1.58,-2.70 2.89,-2.84 4.20,-2.98 5.47,-3.13 6.73,-3.28 7.89,-3.36 9.04,-3.45 10.22,-3.45 11.40,-3.46 13.09,-3.13 14.77,-2.80 15.75,-2.32 16.72,-1.84 17.03,-0.50 17.34,0.83 17.36,1.89 17.38,2.96 17.52,4.27 17.66,5.58 17.68,6.66 17.71,7.75 17.72,9.21 17.73,10.66 17.87,11.79 18.01,12.92 18.13,14.28 18.25,15.63 18.40,16.92 18.55,18.21 18.59,19.31 18.63,20.40 18.76,21.60 18.89,22.80 18.60,24.64 18.31,26.47 16.85,27.20 15.38,27.93 13.99,28.09 12.60,28.24 11.07,28.35 9.53,28.47 8.43,28.48 7.33,28.50 6.07,28.51 4.81,28.52 3.75,28.52 2.68,28.52 1.32,28.43 -0.04,28.33 -1.28,28.18 -2.51,28.03 -3.95,27.97 -5.38,27.91 -6.51,27.91 -7.63,27.91 -9.73,27.82 -11.82,27.74 -14.61,27.69 -17.40,27.64 -18.61,27.64 -19.81,27.63 -20.96,27.61 -22.11,27.60 -23.33,27.51 -24.55,27.43 -25.78,27.50 -27.02,27.56 -28.23,27.64 -29.45,27.71 -30.52,27.72 -31.60,27.73 -32.86,27.73 -34.13,27.73 -35.28,27.74 -36.42,27.74 -37.77,27.74 -39.12,27.73 -40.53,27.73 -41.93,27.73 -43.00,27.84 -44.06,27.94 -45.15,28.07 -46.23,28.19 -48.84,27.57 -51.46,26.95 -51.61,26.97 -51.77,26.99 -51.93,26.97 -52.08,26.95 -52.23,26.89 -52.38,26.84 -52.51,26.75 -52.64,26.66 -52.75,26.54 -52.85,26.42 -52.92,26.28 -53.00,26.14 -53.04,25.99 -53.07,25.83 -53.07,25.67 -53.07,25.52 -53.04,25.36 -53.00,25.21 -52.92,25.07 -52.85,24.93 -52.74,24.81 -52.64,24.69 -52.51,24.60 -52.38,24.51 -52.23,24.46 -52.08,24.40 -52.58,24.97 -53.08,25.54 -53.02,25.34 -52.97,25.13 -52.85,24.96 -52.73,24.78 -52.56,24.65 -52.39,24.52 -52.19,24.45 -51.99,24.38 -51.78,24.38 -51.57,24.38 -51.36,24.44 -51.16,24.51 -50.99,24.64 -50.82,24.77 -50.70,24.94 -50.58,25.12 -50.52,25.32 -50.46,25.52 -50.47,25.74 -50.49,25.95 -50.56,26.15 -50.64,26.34 -50.78,26.51 -50.91,26.67 -51.09,26.78 -51.28,26.89 -51.48,26.94 -51.69,26.99 -51.90,26.96 -52.11,26.94 -52.31,26.85 -52.50,26.77 -52.65,26.62 -52.81,26.48 -52.91,26.29 -53.01,26.10 -53.05,25.89 -53.08,25.68 -53.05,25.47 -53.02,25.26 -52.92,25.08 -52.82,24.89 -52.67,24.74 -52.51,24.59 -52.32,24.50 -52.13,24.41 -51.92,24.39 -51.71,24.36 -51.50,24.41 -51.29,24.45 -51.11,24.56 -50.93,24.67 -50.79,24.83 -50.65,24.99 -50.57,25.19 -50.49,25.38 -50.97,26.17 -51.46,26.95 -51.61,26.97 -51.77,26.99 -51.93,26.97 -52.08,26.95 -52.23,26.89 -52.38,26.84 -52.51,26.75 -52.64,26.66 -52.75,26.54 -52.85,26.42 -52.92,26.28 -53.00,26.14 -53.04,25.99 -53.07,25.83 -53.07,25.67 -53.07,25.52 -53.04,25.36 -53.00,25.21 -52.92,25.07 -52.85,24.93 -52.74,24.81 -52.64,24.69 -52.51,24.60 -52.38,24.51 -52.23,24.46 -52.08,24.40 -50.85,23.79 -49.61,23.19 -48.14,23.04 -46.67,22.90 -45.61,22.74 -44.55,22.58 -43.24,22.45 -41.93,22.33 -40.86,22.32 -39.78,22.32 -38.72,22.32 -37.65,22.32 -36.25,22.32 -34.85,22.32 -33.57,22.32 -32.29,22.32 -31.20,22.33 -30.10,22.33 -29.00,22.29 -27.90,22.25 -26.23,22.15 -24.55,22.05 -23.32,21.97 -22.10,21.89 -20.94,21.88 -19.78,21.87 -18.57,21.87 -17.36,21.88 -14.41,21.93 -11.45,21.98 -9.24,22.07 -7.04,22.15 -5.49,22.16 -3.95,22.17 -2.22,22.32 -0.50,22.47 0.64,22.58 1.80,22.69 2.91,22.69 4.01,22.69 5.11,22.68 6.20,22.67 7.71,22.65 9.21,22.62 10.80,22.48 12.39,22.34 13.61,22.19 14.84,22.05 14.04,22.88 13.24,23.71 13.12,22.59 13.01,21.46 13.03,20.24 13.06,19.02 12.89,17.73 12.71,16.43 12.58,15.31 12.44,14.18 12.44,13.10 12.43,12.02 12.31,10.81 12.18,9.60 12.18,8.36 12.17,7.13 12.14,5.99 12.10,4.85 12.26,3.26 12.43,1.68 11.25,1.71 10.08,1.74 8.83,1.79 7.58,1.85 6.35,1.98 5.12,2.11 3.58,2.24 2.05,2.37 1.10,2.04 0.15,1.71 -0.05,1.70 -0.25,1.69 -0.45,1.64 -0.65,1.58 -0.83,1.48 -1.01,1.38 -1.16,1.24 -1.32,1.10 -1.43,0.92 -1.54,0.75 -1.61,0.55 -1.68,0.36 -1.69,0.15 -1.71,-0.05 -1.68,-0.25 -1.65,-0.46 -1.57,-0.65 -1.49,-0.84 -1.37,-1.01 -1.25,-1.17 -1.09,-1.31 -0.93,-1.44 -0.74,-1.53 -0.56,-1.62 -0.35,-1.66 -0.15,-1.71 -0.15,-1.71 L -0.15,-1.71 Z"></path></g><g transform="translate(353.8712638493332 235.2791200174804) rotate(0 1.1509189667979172 12.660003265801834)" stroke="none"><path fill="#ced4da" d="M 0.19,1.59 Q 0.19,1.59 -1.06,2.22 -2.33,2.84 -3.58,2.96 -4.83,3.07 -6.06,3.09 -7.29,3.11 -8.39,3.27 -9.49,3.42 -8.93,4.62 -8.37,5.82 -8.26,7.15 -8.15,8.47 -8.11,9.83 -8.07,11.18 -7.94,12.54 -7.82,13.90 -7.77,15.20 -7.73,16.50 -7.70,17.57 -7.66,18.63 -7.64,19.76 -7.63,20.89 -7.77,22.29 -7.90,23.69 -7.98,24.40 -8.06,25.12 -8.10,25.45 -8.14,25.78 -8.26,26.09 -8.38,26.39 -8.57,26.67 -8.76,26.94 -9.01,27.15 -9.26,27.37 -9.56,27.52 -9.85,27.67 -10.17,27.75 -10.50,27.83 -10.83,27.83 -11.16,27.82 -11.48,27.74 -11.80,27.66 -12.09,27.50 -12.38,27.35 -12.63,27.13 -12.88,26.90 -13.06,26.63 -13.25,26.36 -13.36,26.05 -13.48,25.74 -13.51,25.41 -13.55,25.08 -10.87,25.08 -8.19,25.08 -8.23,25.40 -8.27,25.72 -8.39,26.02 -8.51,26.33 -8.69,26.59 -8.88,26.86 -9.12,27.07 -9.37,27.28 -9.65,27.43 -9.94,27.58 -10.26,27.65 -10.57,27.73 -10.90,27.73 -11.22,27.72 -11.54,27.64 -11.85,27.56 -12.14,27.41 -12.42,27.26 -12.66,27.04 -12.90,26.83 -13.09,26.56 -13.27,26.29 -13.38,25.99 -13.49,25.68 -13.53,25.36 -13.57,25.04 -12.56,23.68 -11.55,22.33 -10.39,21.95 -9.24,21.57 -7.97,21.50 -6.69,21.42 -5.44,21.41 -4.19,21.41 -3.07,21.41 -1.94,21.40 -0.82,21.41 0.30,21.42 1.48,21.46 2.66,21.49 3.86,21.58 5.07,21.66 6.16,21.88 7.25,22.11 8.40,21.98 9.54,21.84 11.30,21.77 13.07,21.71 13.28,21.73 13.49,21.75 13.69,21.84 13.88,21.93 14.03,22.08 14.19,22.23 14.29,22.41 14.39,22.60 14.42,22.81 14.45,23.02 14.42,23.23 14.38,23.44 14.28,23.63 14.18,23.81 14.03,23.96 13.87,24.11 13.68,24.20 13.49,24.28 13.28,24.31 13.07,24.33 12.86,24.28 12.65,24.24 12.47,24.13 12.29,24.02 12.15,23.85 12.01,23.69 11.94,23.50 11.86,23.30 11.85,23.09 11.83,22.87 11.89,22.67 11.95,22.46 12.07,22.29 12.19,22.11 12.36,21.98 12.53,21.86 12.73,21.79 12.93,21.72 13.14,21.72 13.36,21.72 13.56,21.79 13.76,21.86 13.93,21.99 14.10,22.12 14.21,22.29 14.33,22.47 14.39,22.67 14.45,22.88 14.43,23.09 14.42,23.30 14.34,23.50 14.26,23.70 14.13,23.86 13.99,24.02 13.81,24.13 13.62,24.24 13.42,24.28 13.21,24.33 13.21,24.33 13.21,24.33 11.43,25.18 9.65,26.03 8.43,26.41 7.22,26.79 6.00,26.73 4.78,26.67 3.72,26.75 2.66,26.84 1.48,26.87 0.30,26.91 -0.82,26.92 -1.94,26.93 -3.07,26.92 -4.19,26.92 -5.42,26.92 -6.65,26.92 -7.79,27.00 -8.94,27.09 -8.56,26.08 -8.19,25.08 -8.23,25.40 -8.27,25.72 -8.39,26.02 -8.50,26.33 -8.69,26.59 -8.88,26.86 -9.12,27.07 -9.37,27.28 -9.65,27.43 -9.94,27.58 -10.26,27.65 -10.57,27.73 -10.90,27.73 -11.22,27.72 -11.54,27.64 -11.85,27.56 -12.14,27.41 -12.42,27.26 -12.66,27.04 -12.90,26.83 -13.08,26.56 -13.27,26.29 -13.38,25.99 -13.49,25.68 -13.53,25.36 -13.57,25.04 -10.81,25.08 -8.06,25.12 -8.10,25.45 -8.14,25.78 -8.26,26.09 -8.38,26.39 -8.57,26.67 -8.76,26.94 -9.01,27.15 -9.26,27.37 -9.56,27.52 -9.85,27.67 -10.17,27.75 -10.50,27.83 -10.83,27.83 -11.16,27.82 -11.48,27.74 -11.80,27.66 -12.09,27.50 -12.38,27.35 -12.63,27.13 -12.88,26.90 -13.06,26.63 -13.25,26.36 -13.36,26.05 -13.48,25.74 -13.51,25.41 -13.55,25.08 -13.43,24.10 -13.30,23.12 -13.19,22.01 -13.08,20.89 -13.06,19.76 -13.05,18.63 -13.01,17.30 -12.98,15.96 -13.00,14.61 -13.02,13.26 -13.13,11.52 -13.23,9.78 -13.36,8.56 -13.49,7.35 -13.48,6.24 -13.48,5.13 -13.47,3.80 -13.46,2.47 -13.19,1.03 -12.92,-0.40 -11.39,-1.05 -9.86,-1.70 -8.66,-1.83 -7.47,-1.96 -6.30,-1.98 -5.12,-2.00 -4.04,-2.09 -2.96,-2.18 -1.58,-1.89 -0.19,-1.59 -0.00,-1.59 0.18,-1.59 0.37,-1.55 0.56,-1.50 0.73,-1.41 0.91,-1.32 1.05,-1.20 1.20,-1.07 1.31,-0.91 1.42,-0.75 1.49,-0.57 1.56,-0.39 1.58,-0.19 1.61,-0.00 1.58,0.18 1.56,0.38 1.49,0.56 1.42,0.74 1.31,0.90 1.20,1.06 1.06,1.19 0.91,1.32 0.74,1.41 0.57,1.50 0.38,1.55 0.19,1.59 0.19,1.59 L 0.19,1.59 Z"></path></g><g transform="translate(430.4067956120332 120.47581578787253) rotate(0 1.0070508031676582 31.650027921187984)" stroke="none"><path fill="#ced4da" d="M 1.36,0.34 Q 1.36,0.34 1.22,3.11 1.08,5.89 0.71,7.22 0.34,8.55 -0.11,10.20 -0.58,11.85 -1.00,13.15 -1.42,14.46 -1.80,15.69 -2.19,16.92 -2.69,17.89 -3.19,18.85 -3.74,20.69 -4.29,22.52 -4.83,24.12 -5.38,25.71 -5.77,26.82 -6.17,27.92 -6.65,29.42 -7.14,30.91 -7.38,32.06 -7.61,33.22 -7.92,34.27 -8.23,35.33 -8.64,37.19 -9.05,39.05 -9.32,40.11 -9.59,41.17 -10.07,42.68 -10.55,44.18 -10.85,45.38 -11.14,46.58 -11.41,47.64 -11.69,48.70 -12.23,50.25 -12.78,51.79 -13.30,52.98 -13.81,54.17 -14.40,55.75 -14.99,57.33 -15.38,58.38 -15.77,59.42 -16.36,60.74 -16.94,62.06 -17.63,61.19 -18.33,60.33 -16.94,60.30 -15.55,60.27 -14.31,60.39 -13.08,60.50 -11.69,60.60 -10.31,60.71 -8.98,60.75 -7.65,60.79 -6.31,60.79 -4.98,60.80 -3.31,60.79 -1.64,60.79 -0.47,60.89 0.68,60.98 2.49,61.02 4.29,61.06 5.55,61.06 6.81,61.07 7.97,61.07 9.13,61.06 10.48,61.06 11.84,61.07 13.02,61.07 14.20,61.07 15.58,61.07 16.96,61.07 18.14,61.09 19.32,61.12 19.25,62.19 19.18,63.25 18.00,62.66 16.82,62.08 16.01,60.89 15.19,59.71 14.59,58.56 13.99,57.40 13.40,56.23 12.81,55.05 12.28,54.11 11.74,53.16 11.23,51.89 10.73,50.61 10.65,49.53 10.56,48.46 10.42,47.40 10.28,46.35 10.06,44.96 9.85,43.57 9.55,42.53 9.26,41.49 8.94,40.47 8.62,39.46 8.37,38.41 8.13,37.37 7.81,36.14 7.49,34.91 7.02,33.32 6.56,31.73 6.16,30.34 5.76,28.94 5.20,27.60 4.65,26.26 4.32,25.10 4.00,23.95 3.58,22.74 3.16,21.54 2.73,20.26 2.31,18.98 1.94,17.66 1.57,16.34 1.27,15.29 0.97,14.23 0.79,13.13 0.61,12.02 0.30,10.41 0.00,8.80 -0.17,7.73 -0.35,6.65 -0.60,5.33 -0.85,4.01 -0.96,2.08 -1.07,0.15 -1.08,-0.00 -1.09,-0.16 -1.06,-0.32 -1.04,-0.47 -0.97,-0.62 -0.91,-0.76 -0.81,-0.89 -0.72,-1.01 -0.59,-1.11 -0.47,-1.21 -0.33,-1.28 -0.18,-1.34 -0.03,-1.37 0.12,-1.40 0.28,-1.40 0.43,-1.39 0.59,-1.34 0.74,-1.30 0.87,-1.22 1.01,-1.14 1.12,-1.02 1.24,-0.91 1.32,-0.78 1.40,-0.64 1.45,-0.49 1.50,-0.34 0.92,0.42 0.35,1.20 0.14,1.19 -0.06,1.18 -0.26,1.10 -0.46,1.02 -0.62,0.88 -0.78,0.74 -0.89,0.56 -1.00,0.38 -1.05,0.17 -1.09,-0.03 -1.07,-0.24 -1.04,-0.45 -0.95,-0.64 -0.86,-0.83 -0.72,-0.99 -0.57,-1.14 -0.38,-1.24 -0.20,-1.34 0.00,-1.37 0.21,-1.41 0.42,-1.37 0.63,-1.34 0.82,-1.24 1.01,-1.14 1.15,-0.98 1.30,-0.83 1.39,-0.64 1.48,-0.44 1.50,-0.23 1.52,-0.02 1.48,0.18 1.43,0.38 1.32,0.57 1.21,0.75 1.05,0.89 0.88,1.02 0.69,1.10 0.49,1.18 0.28,1.19 0.07,1.20 -0.13,1.14 -0.33,1.09 -0.51,0.97 -0.69,0.85 -0.81,0.68 -0.94,0.51 -1.01,0.31 -1.08,0.11 -1.08,-0.10 -1.08,-0.31 -1.01,-0.51 -0.94,-0.71 -0.81,-0.88 -0.68,-1.05 -0.50,-1.17 -0.33,-1.29 -0.70,-0.57 -1.07,0.15 -1.08,-0.00 -1.09,-0.16 -1.06,-0.32 -1.04,-0.47 -0.97,-0.62 -0.91,-0.76 -0.81,-0.89 -0.72,-1.01 -0.59,-1.11 -0.47,-1.21 -0.33,-1.28 -0.18,-1.34 -0.03,-1.37 0.12,-1.40 0.28,-1.40 0.43,-1.39 0.59,-1.34 0.74,-1.30 0.87,-1.22 1.01,-1.14 1.12,-1.02 1.24,-0.91 1.32,-0.78 1.40,-0.64 1.45,-0.49 1.50,-0.34 3.01,1.31 4.53,2.97 4.96,5.33 5.39,7.70 5.71,9.37 6.03,11.04 6.28,12.50 6.53,13.96 6.86,15.10 7.19,16.25 7.59,17.54 7.99,18.83 8.39,20.04 8.79,21.25 9.25,22.56 9.72,23.87 10.06,24.93 10.40,26.00 10.80,27.11 11.20,28.22 11.54,29.24 11.87,30.26 12.14,31.29 12.42,32.32 12.71,33.47 13.00,34.63 13.42,36.20 13.84,37.77 14.37,39.36 14.90,40.95 15.15,42.44 15.40,43.94 15.53,45.02 15.65,46.10 15.80,47.18 15.94,48.27 16.25,49.55 16.55,50.83 17.24,52.04 17.92,53.25 18.42,54.19 18.91,55.13 19.46,56.26 20.01,57.39 20.82,58.34 21.63,59.28 22.44,60.21 23.26,61.14 23.49,62.37 23.72,63.60 22.81,64.83 21.90,66.06 20.61,66.34 19.32,66.62 18.14,66.65 16.96,66.68 15.58,66.68 14.20,66.68 13.02,66.68 11.84,66.68 10.48,66.68 9.13,66.68 7.97,66.67 6.81,66.67 5.54,66.67 4.27,66.67 2.46,66.64 0.65,66.60 -0.49,66.49 -1.64,66.37 -2.71,66.37 -3.78,66.36 -4.86,66.35 -5.95,66.35 -7.45,66.33 -8.95,66.31 -10.76,66.17 -12.56,66.04 -14.07,65.89 -15.59,65.74 -17.06,65.49 -18.52,65.23 -19.86,64.69 -21.19,64.15 -21.46,62.59 -21.73,61.02 -21.41,59.96 -21.10,58.90 -20.59,57.69 -20.08,56.49 -19.63,55.26 -19.18,54.04 -18.67,52.68 -18.16,51.32 -17.71,50.09 -17.25,48.86 -16.90,47.67 -16.54,46.47 -16.19,45.44 -15.85,44.41 -15.55,43.14 -15.24,41.88 -14.90,40.79 -14.56,39.70 -14.27,38.59 -13.99,37.48 -13.68,36.10 -13.37,34.72 -13.02,33.52 -12.68,32.32 -12.37,30.85 -12.05,29.38 -11.58,27.95 -11.11,26.52 -10.64,25.16 -10.16,23.80 -9.69,22.44 -9.21,21.08 -8.67,19.23 -8.13,17.37 -7.58,16.35 -7.04,15.34 -6.58,13.92 -6.12,12.51 -5.79,11.45 -5.46,10.39 -4.95,8.79 -4.45,7.19 -4.09,5.94 -3.73,4.69 -2.55,2.17 -1.36,-0.34 -1.30,-0.50 -1.24,-0.65 -1.14,-0.79 -1.05,-0.93 -0.92,-1.05 -0.79,-1.16 -0.64,-1.24 -0.49,-1.31 -0.33,-1.35 -0.16,-1.39 0.00,-1.39 0.17,-1.39 0.33,-1.35 0.50,-1.31 0.65,-1.23 0.80,-1.15 0.93,-1.04 1.05,-0.93 1.15,-0.79 1.25,-0.65 1.31,-0.49 1.36,-0.33 1.38,-0.16 1.40,0.00 1.38,0.17 1.36,0.34 1.36,0.34 L 1.36,0.34 Z"></path></g><g stroke-linecap="round" transform="translate(327.97993845096084 167.8389862877591) rotate(0 64.38562478226038 64.38562478226027)"><path d="M0 0 C27.33 0, 54.65 0, 128.77 0 M128.77 0 C128.77 36.91, 128.77 73.82, 128.77 128.77 M128.77 128.77 C90.72 128.77, 52.68 128.77, 0 128.77 M0 128.77 C0 79.71, 0 30.65, 0 0" stroke="#ced4da" stroke-width="4.5" fill="none" stroke-dasharray="8 12"></path></g><g stroke-linecap="round" transform="translate(441.5545662377606 167.72769004470388) rotate(0 64.38562478226038 64.38562478226027)"><path d="M0 0 C32.22 0, 64.43 0, 128.77 0 M128.77 0 C128.77 41.38, 128.77 82.75, 128.77 128.77 M128.77 128.77 C95.93 128.77, 63.09 128.77, 0 128.77 M0 128.77 C0 91.63, 0 54.48, 0 0" stroke="#ced4da" stroke-width="4.5" fill="none" stroke-dasharray="8 12"></path></g><g stroke-linecap="round" transform="translate(366.02458871920385 59.775081613148586) rotate(0 64.38562478226038 64.38562478226027)"><path d="M0 0 C30.67 0, 61.33 0, 128.77 0 M128.77 0 C128.77 35.98, 128.77 71.97, 128.77 128.77 M128.77 128.77 C99.09 128.77, 69.41 128.77, 0 128.77 M0 128.77 C0 83.2, 0 37.63, 0 0" stroke="#ced4da" stroke-width="4.5" fill="none" stroke-dasharray="8 12"></path></g><g stroke-linecap="round"><g transform="translate(406.14268999874025 77.81402383389218) rotate(0 -6.0795337078543525 77.13610423224077)"><path d="M1.8 -0.68 C-4.23 49.66, -10.07 98.72, -13.96 154.95 M-0.18 -0.06 C-5.23 56.57, -9.3 112.92, -11.98 154.26" stroke="#000000" stroke-width="2" fill="none"></path></g><g transform="translate(406.14268999874025 77.81402383389218) rotate(0 -6.0795337078543525 77.13610423224077)"><path d="M-18.5 124.76 C-17.36 134.8, -16.68 143.54, -13.96 154.79 M-20.48 125.37 C-17.76 135.81, -14.35 145.95, -11.98 154.1" stroke="#000000" stroke-width="2" fill="none"></path></g><g transform="translate(406.14268999874025 77.81402383389218) rotate(0 -6.0795337078543525 77.13610423224077)"><path d="M1.97 126.15 C-3.45 135.72, -9.34 144.01, -13.96 154.79 M-0.01 126.77 C-4.82 136.68, -8.94 146.31, -11.98 154.1" stroke="#000000" stroke-width="2" fill="none"></path></g></g><mask></mask><g stroke-linecap="round"><g transform="translate(395.7873160111269 233.6896408571372) rotate(0 54.06359459253031 -1.008581385840671)"><path d="M-0.68 0.43 C26.91 -2.9, 53.19 -3.67, 108.8 -0.1 M-0.06 -0.45 C29.64 -0.31, 59.05 -0.6, 108.11 -1.95" stroke="#000000" stroke-width="2" fill="none"></path></g><g transform="translate(395.7873160111269 233.6896408571372) rotate(0 54.06359459253031 -1.008581385840671)"><path d="M79.5 9.41 C87.21 4.46, 93.61 1.34, 108.64 -0.6 M80.12 8.53 C87.66 5.91, 94.9 3, 107.95 -2.45" stroke="#000000" stroke-width="2" fill="none"></path></g><g transform="translate(395.7873160111269 233.6896408571372) rotate(0 54.06359459253031 -1.008581385840671)"><path d="M79.01 -11.11 C86.81 -10.98, 93.33 -9.02, 108.64 -0.6 M79.62 -11.98 C87.29 -8.94, 94.67 -6.19, 107.95 -2.45" stroke="#000000" stroke-width="2" fill="none"></path></g></g><mask></mask><g stroke-linecap="round"><g transform="translate(505.3362724064025 231.69124089498268) rotate(0 -37.098163389159936 -54.1461601958365)"><path d="M0.43 0.1 C-23.78 -31.6, -45.44 -61.59, -72.76 -108.4 M-0.45 -0.23 C-21.81 -32.63, -43.6 -63.98, -74.62 -107.17" stroke="#000000" stroke-width="2" fill="none"></path></g><g transform="translate(505.3362724064025 231.69124089498268) rotate(0 -37.098163389159936 -54.1461601958365)"><path d="M-49.48 -90.06 C-58.71 -95.53, -66.2 -99.47, -73.26 -107.65 M-50.36 -90.4 C-57.28 -95.9, -64.48 -100.39, -75.12 -106.42" stroke="#000000" stroke-width="2" fill="none"></path></g><g transform="translate(505.3362724064025 231.69124089498268) rotate(0 -37.098163389159936 -54.1461601958365)"><path d="M-66.2 -78.15 C-70.74 -86.98, -73.44 -94.33, -73.26 -107.65 M-67.07 -78.49 C-69.04 -87.5, -71.29 -95.51, -75.12 -106.42" stroke="#000000" stroke-width="2" fill="none"></path></g></g><mask></mask><g stroke-linecap="round" transform="translate(341.53472105862625 13.797681475776926) rotate(0 64.38562478226038 64.38562478226027)"><path d="M0 0 C26.91 0, 53.83 0, 128.77 0 M128.77 0 C128.77 48.05, 128.77 96.1, 128.77 128.77 M128.77 128.77 C86.75 128.77, 44.73 128.77, 0 128.77 M0 128.77 C0 92.25, 0 55.72, 0 0" stroke="#000000" stroke-width="4.5" fill="none" stroke-dasharray="8 12"></path></g><g transform="translate(40.0535047025287 231.8053489725828) rotate(0 27.334114723500534 -76.96712308246742)" stroke="none"><path fill="#000000" d="M -1.43,-0.52 Q -1.43,-0.52 -1.52,-1.58 -1.61,-2.65 -1.14,-3.80 -0.67,-4.96 -0.12,-6.69 0.43,-8.42 0.91,-9.73 1.38,-11.04 2.03,-12.70 2.67,-14.36 3.04,-15.43 3.40,-16.50 3.68,-17.70 3.96,-18.90 4.27,-19.97 4.59,-21.03 4.98,-22.34 5.37,-23.65 5.77,-24.73 6.17,-25.81 6.51,-26.94 6.84,-28.07 7.37,-29.82 7.90,-31.57 8.23,-32.87 8.57,-34.17 8.87,-35.25 9.18,-36.33 9.54,-38.08 9.90,-39.83 10.18,-41.09 10.46,-42.34 10.75,-43.63 11.03,-44.92 11.37,-46.54 11.71,-48.16 12.11,-49.52 12.51,-50.88 12.90,-52.34 13.29,-53.80 13.66,-54.90 14.03,-55.99 14.50,-57.46 14.98,-58.93 15.52,-60.29 16.07,-61.65 16.65,-63.03 17.24,-64.41 17.93,-66.01 18.62,-67.61 19.11,-68.92 19.61,-70.23 19.93,-71.26 20.25,-72.30 20.54,-73.33 20.84,-74.36 21.23,-75.68 21.62,-76.99 22.07,-78.14 22.52,-79.30 22.93,-80.47 23.34,-81.65 23.86,-83.02 24.39,-84.39 24.75,-85.45 25.12,-86.50 25.63,-87.95 26.14,-89.40 26.46,-90.53 26.78,-91.66 27.09,-92.79 27.39,-93.91 27.80,-95.41 28.20,-96.90 28.59,-98.24 28.98,-99.57 29.45,-100.79 29.93,-102.01 30.46,-103.42 30.99,-104.82 31.42,-106.09 31.85,-107.36 32.27,-108.77 32.70,-110.18 33.32,-111.91 33.94,-113.64 34.42,-115.36 34.91,-117.07 35.25,-118.31 35.59,-119.55 36.06,-120.78 36.52,-122.02 36.92,-123.16 37.31,-124.31 37.88,-125.63 38.44,-126.95 38.96,-128.23 39.48,-129.50 39.94,-130.47 40.41,-131.43 40.98,-132.76 41.54,-134.10 41.95,-135.19 42.36,-136.29 42.86,-137.44 43.37,-138.58 43.85,-139.98 44.32,-141.38 44.78,-142.40 45.24,-143.42 46.08,-144.95 46.92,-146.48 47.46,-147.40 48.00,-148.32 48.52,-149.30 49.04,-150.29 49.60,-151.27 50.16,-152.24 51.64,-153.31 53.13,-154.37 53.25,-154.54 53.38,-154.71 53.55,-154.84 53.72,-154.96 53.93,-155.02 54.13,-155.08 54.34,-155.07 54.55,-155.07 54.75,-154.99 54.95,-154.92 55.12,-154.78 55.28,-154.65 55.40,-154.47 55.51,-154.29 55.56,-154.08 55.61,-153.88 55.59,-153.67 55.57,-153.45 55.49,-153.26 55.40,-153.06 55.26,-152.91 55.12,-152.75 54.93,-152.65 54.75,-152.54 54.54,-152.50 54.33,-152.47 54.12,-152.50 53.91,-152.52 53.72,-152.62 53.53,-152.72 53.38,-152.87 53.23,-153.02 53.14,-153.21 53.04,-153.40 53.01,-153.61 52.99,-153.82 53.03,-154.03 53.07,-154.24 53.18,-154.42 53.28,-154.61 53.44,-154.75 53.60,-154.89 53.79,-154.97 53.99,-155.05 54.20,-155.07 54.41,-155.09 54.62,-155.03 54.83,-154.98 55.00,-154.87 55.18,-154.75 55.31,-154.58 55.45,-154.42 55.52,-154.22 55.59,-154.02 55.60,-153.81 55.60,-153.59 55.54,-153.39 55.47,-153.19 55.47,-153.19 55.47,-153.19 54.87,-151.11 54.26,-149.04 53.68,-147.89 53.11,-146.75 52.58,-145.80 52.05,-144.85 51.52,-143.84 50.99,-142.82 50.35,-141.50 49.72,-140.19 49.26,-138.91 48.80,-137.64 48.38,-136.66 47.96,-135.68 47.58,-134.61 47.20,-133.54 46.66,-132.29 46.12,-131.05 45.61,-129.74 45.10,-128.44 44.44,-127.04 43.78,-125.65 43.30,-124.51 42.81,-123.37 42.35,-122.27 41.88,-121.17 41.37,-119.62 40.85,-118.06 40.47,-116.72 40.09,-115.37 39.58,-113.62 39.07,-111.87 38.49,-110.30 37.92,-108.73 37.46,-107.28 37.00,-105.83 36.47,-104.32 35.93,-102.82 35.42,-101.51 34.92,-100.20 34.47,-99.09 34.03,-97.97 33.65,-96.67 33.26,-95.36 32.91,-94.15 32.55,-92.93 32.19,-91.57 31.82,-90.20 31.43,-88.90 31.04,-87.60 30.60,-86.41 30.17,-85.22 29.73,-83.93 29.30,-82.64 28.80,-81.35 28.29,-80.07 27.85,-78.80 27.40,-77.54 27.00,-76.52 26.60,-75.51 26.24,-74.36 25.87,-73.21 25.51,-71.97 25.14,-70.72 24.79,-69.60 24.44,-68.48 23.85,-66.97 23.26,-65.46 22.64,-63.98 22.01,-62.50 21.45,-61.20 20.90,-59.89 20.50,-58.83 20.10,-57.78 19.67,-56.77 19.23,-55.75 18.73,-54.09 18.23,-52.44 17.82,-50.93 17.41,-49.42 17.03,-48.17 16.66,-46.93 16.42,-45.77 16.18,-44.61 15.90,-43.45 15.62,-42.28 15.33,-41.00 15.05,-39.73 14.73,-38.14 14.42,-36.56 14.18,-35.40 13.93,-34.25 13.64,-33.09 13.35,-31.94 12.89,-30.46 12.42,-28.99 12.05,-27.69 11.67,-26.39 11.34,-25.25 11.00,-24.11 10.55,-22.71 10.10,-21.31 9.79,-20.30 9.47,-19.28 9.03,-17.71 8.60,-16.14 8.30,-15.09 8.01,-14.05 7.42,-12.58 6.83,-11.10 6.37,-9.77 5.90,-8.45 5.41,-7.10 4.92,-5.75 4.43,-4.38 3.93,-3.00 3.43,-1.99 2.94,-0.98 2.19,-0.23 1.43,0.52 1.35,0.68 1.27,0.85 1.15,0.99 1.03,1.13 0.88,1.23 0.72,1.34 0.55,1.41 0.38,1.48 0.20,1.50 0.02,1.53 -0.16,1.51 -0.34,1.49 -0.51,1.42 -0.69,1.36 -0.84,1.26 -0.99,1.15 -1.12,1.02 -1.24,0.88 -1.33,0.72 -1.42,0.56 -1.47,0.38 -1.51,0.20 -1.51,0.02 -1.52,-0.16 -1.48,-0.34 -1.43,-0.52 -1.43,-0.52 L -1.43,-0.52 Z"></path></g><g transform="translate(92.13218623091689 77.87110280764841) rotate(0 23.30593785307326 -0.4315880269882655)" stroke="none"><path fill="#000000" d="M 0.13,-1.66 Q 0.13,-1.66 1.16,-1.94 2.18,-2.22 3.32,-2.23 4.46,-2.24 5.89,-2.24 7.31,-2.25 8.46,-2.26 9.62,-2.28 10.90,-2.30 12.17,-2.33 13.24,-2.34 14.31,-2.35 15.72,-2.35 17.13,-2.36 18.28,-2.36 19.42,-2.37 20.50,-2.37 21.59,-2.37 22.69,-2.37 23.79,-2.37 25.08,-2.37 26.36,-2.37 27.97,-2.50 29.59,-2.64 30.73,-2.64 31.87,-2.65 33.09,-2.76 34.31,-2.88 35.82,-2.90 37.33,-2.92 39.74,-3.09 42.15,-3.26 44.22,-2.85 46.29,-2.44 46.50,-2.42 46.71,-2.40 46.90,-2.31 47.10,-2.22 47.25,-2.08 47.41,-1.94 47.51,-1.75 47.61,-1.56 47.65,-1.35 47.68,-1.14 47.65,-0.93 47.62,-0.72 47.52,-0.53 47.42,-0.35 47.27,-0.20 47.12,-0.05 46.92,0.03 46.73,0.12 46.52,0.15 46.31,0.17 46.10,0.13 45.90,0.08 45.71,-0.01 45.53,-0.12 45.39,-0.28 45.25,-0.44 45.17,-0.64 45.09,-0.84 45.08,-1.05 45.06,-1.26 45.12,-1.47 45.17,-1.67 45.29,-1.85 45.41,-2.02 45.58,-2.15 45.74,-2.29 45.94,-2.35 46.14,-2.42 46.36,-2.43 46.57,-2.43 46.77,-2.36 46.97,-2.30 47.14,-2.17 47.31,-2.04 47.44,-1.87 47.56,-1.69 47.61,-1.49 47.67,-1.29 47.66,-1.07 47.65,-0.86 47.58,-0.66 47.50,-0.46 47.37,-0.30 47.23,-0.14 47.05,-0.03 46.87,0.07 46.66,0.12 46.45,0.17 46.45,0.17 46.45,0.17 44.48,1.03 42.51,1.89 39.95,2.14 37.39,2.39 35.79,2.43 34.20,2.47 33.04,2.56 31.89,2.66 30.34,2.68 28.79,2.70 27.58,2.82 26.36,2.95 25.08,2.94 23.79,2.94 22.69,2.94 21.59,2.95 20.50,2.95 19.42,2.94 18.28,2.94 17.13,2.94 15.72,2.93 14.31,2.92 13.24,2.91 12.17,2.90 10.89,2.88 9.61,2.85 8.45,2.83 7.30,2.81 5.83,2.79 4.36,2.77 3.07,2.66 1.78,2.55 0.82,2.11 -0.13,1.66 -0.33,1.62 -0.53,1.58 -0.71,1.50 -0.89,1.41 -1.05,1.28 -1.21,1.15 -1.33,0.99 -1.45,0.83 -1.53,0.64 -1.61,0.46 -1.64,0.26 -1.67,0.06 -1.65,-0.13 -1.64,-0.33 -1.57,-0.53 -1.51,-0.72 -1.40,-0.89 -1.29,-1.06 -1.14,-1.20 -1.00,-1.34 -0.82,-1.44 -0.65,-1.54 -0.45,-1.59 -0.26,-1.65 -0.06,-1.66 0.13,-1.66 0.13,-1.66 L 0.13,-1.66 Z"></path></g><g transform="translate(136.4422240034678 76.14473752857361) rotate(0 29.63594607153516 78.26189704177364)" stroke="none"><path fill="#000000" d="M 1.46,-0.69 Q 1.46,-0.69 2.57,0.90 3.69,2.50 4.56,4.41 5.44,6.33 5.94,7.72 6.44,9.12 6.97,10.37 7.51,11.62 8.00,13.15 8.50,14.69 9.04,15.82 9.59,16.94 10.06,18.05 10.53,19.16 11.13,20.68 11.73,22.20 12.25,23.44 12.76,24.68 13.19,25.93 13.62,27.18 14.07,28.25 14.53,29.32 15.19,30.79 15.86,32.26 16.32,33.26 16.78,34.26 17.24,35.36 17.70,36.46 18.27,37.76 18.83,39.06 19.40,40.18 19.98,41.31 20.43,42.31 20.87,43.32 21.28,44.35 21.68,45.37 22.14,46.38 22.60,47.40 23.11,48.89 23.63,50.38 24.13,51.47 24.63,52.55 24.96,53.62 25.29,54.68 25.75,55.99 26.21,57.30 26.62,58.59 27.03,59.87 27.33,61.02 27.64,62.18 27.99,63.54 28.34,64.89 28.77,66.43 29.19,67.96 29.54,69.19 29.90,70.42 30.19,71.47 30.49,72.52 30.96,74.10 31.44,75.68 31.73,76.95 32.03,78.21 32.32,79.50 32.61,80.79 32.91,82.17 33.20,83.55 33.49,84.98 33.78,86.41 34.16,87.71 34.55,89.01 34.86,90.34 35.17,91.66 35.55,92.68 35.93,93.70 36.37,95.09 36.82,96.49 37.21,97.83 37.60,99.16 38.05,100.41 38.50,101.66 38.99,102.99 39.48,104.32 39.98,105.58 40.48,106.84 41.05,107.98 41.62,109.13 42.23,110.78 42.83,112.42 43.41,113.95 43.98,115.48 44.50,117.19 45.01,118.89 45.63,120.75 46.25,122.61 46.76,124.03 47.27,125.46 47.73,126.53 48.19,127.59 48.76,128.95 49.34,130.30 50.01,131.58 50.69,132.86 51.21,134.03 51.72,135.20 52.43,136.58 53.14,137.97 53.82,139.22 54.50,140.46 55.14,141.73 55.78,143.00 56.26,143.97 56.74,144.95 57.28,145.89 57.82,146.84 58.56,148.34 59.30,149.84 59.65,152.67 59.99,155.50 60.03,155.65 60.07,155.80 60.07,155.96 60.07,156.12 60.03,156.27 59.99,156.43 59.92,156.57 59.85,156.71 59.74,156.83 59.63,156.94 59.50,157.03 59.37,157.12 59.23,157.18 59.08,157.24 58.92,157.25 58.76,157.27 58.61,157.25 58.45,157.23 58.30,157.18 58.15,157.12 58.02,157.03 57.89,156.94 57.79,156.82 57.68,156.70 57.61,156.56 57.54,156.42 57.81,156.75 58.08,157.08 57.92,156.94 57.76,156.80 57.65,156.62 57.54,156.44 57.50,156.23 57.45,156.02 57.48,155.81 57.50,155.60 57.59,155.41 57.69,155.21 57.83,155.06 57.98,154.91 58.17,154.81 58.36,154.71 58.57,154.68 58.78,154.65 58.99,154.68 59.20,154.72 59.38,154.82 59.57,154.92 59.71,155.08 59.86,155.23 59.95,155.43 60.03,155.62 60.06,155.83 60.08,156.04 60.03,156.25 59.98,156.46 59.87,156.64 59.76,156.82 59.60,156.96 59.43,157.09 59.23,157.17 59.04,157.25 58.82,157.26 58.61,157.26 58.41,157.21 58.20,157.15 58.03,157.03 57.85,156.91 57.73,156.74 57.60,156.57 57.53,156.36 57.47,156.16 57.47,155.95 57.47,155.74 57.54,155.54 57.61,155.33 57.74,155.17 57.87,155.00 58.05,154.88 58.22,154.76 58.43,154.71 58.64,154.65 58.85,154.67 59.06,154.68 59.53,155.09 59.99,155.50 60.03,155.65 60.07,155.80 60.07,155.96 60.07,156.12 60.03,156.27 59.99,156.43 59.92,156.57 59.85,156.71 59.74,156.83 59.63,156.94 59.50,157.03 59.37,157.12 59.23,157.18 59.08,157.24 58.92,157.25 58.76,157.27 58.61,157.25 58.45,157.23 58.30,157.18 58.15,157.12 58.02,157.03 57.89,156.94 57.79,156.82 57.68,156.70 57.61,156.56 57.54,156.42 56.21,154.11 54.88,151.79 53.94,150.00 53.00,148.21 52.44,147.08 51.88,145.95 51.27,144.62 50.67,143.29 50.16,142.29 49.65,141.28 49.08,140.27 48.51,139.26 47.97,138.33 47.43,137.40 46.91,136.23 46.40,135.06 45.68,133.70 44.96,132.34 44.32,130.83 43.67,129.32 43.15,128.13 42.63,126.93 42.16,125.61 41.68,124.30 41.01,122.33 40.35,120.37 39.87,118.77 39.39,117.17 38.99,116.08 38.60,115.00 38.01,113.48 37.43,111.97 36.88,110.73 36.34,109.49 35.90,108.35 35.46,107.22 34.83,105.78 34.21,104.35 33.80,103.09 33.39,101.84 32.83,100.24 32.26,98.64 31.94,97.51 31.62,96.39 31.22,95.21 30.81,94.03 30.38,92.58 29.94,91.13 29.62,89.95 29.30,88.77 28.90,87.13 28.49,85.48 28.21,84.11 27.93,82.74 27.63,81.50 27.34,80.26 27.05,79.02 26.76,77.77 26.48,76.68 26.20,75.58 25.85,74.35 25.50,73.11 25.18,72.02 24.86,70.93 24.43,69.43 23.99,67.93 23.57,66.45 23.15,64.97 22.88,63.80 22.60,62.64 22.11,61.05 21.62,59.45 21.29,58.36 20.95,57.27 20.41,55.59 19.87,53.90 19.39,52.90 18.92,51.91 18.40,50.32 17.87,48.73 17.36,47.44 16.84,46.15 16.36,45.13 15.87,44.11 15.14,42.64 14.41,41.17 13.96,40.18 13.51,39.20 13.06,38.00 12.61,36.81 12.03,35.56 11.44,34.31 11.02,33.31 10.60,32.31 10.04,30.94 9.48,29.56 9.08,28.47 8.67,27.39 8.13,26.05 7.59,24.71 7.20,23.61 6.80,22.51 6.33,21.47 5.86,20.43 5.36,19.21 4.87,18.00 4.38,16.87 3.88,15.74 3.52,14.57 3.16,13.40 2.60,12.01 2.03,10.62 1.64,9.41 1.25,8.20 0.43,6.32 -0.38,4.44 -0.92,2.57 -1.46,0.69 -1.52,0.51 -1.58,0.32 -1.60,0.13 -1.61,-0.06 -1.58,-0.25 -1.55,-0.44 -1.47,-0.62 -1.40,-0.80 -1.28,-0.96 -1.16,-1.11 -1.01,-1.24 -0.86,-1.36 -0.69,-1.45 -0.51,-1.53 -0.32,-1.57 -0.13,-1.61 0.06,-1.60 0.25,-1.59 0.44,-1.54 0.63,-1.48 0.80,-1.39 0.97,-1.29 1.11,-1.15 1.25,-1.02 1.35,-0.86 1.46,-0.69 1.46,-0.69 L 1.46,-0.69 Z"></path></g><g transform="translate(195.42637981927783 231.22990266030524) rotate(0 -21.867289144575693 13.810922232599978)" stroke="none"><path fill="#000000" d="M 0.23,-1.79 Q 0.23,-1.79 1.51,-1.87 2.78,-1.95 4.34,-1.86 5.91,-1.77 6.99,-1.88 8.08,-1.99 9.47,-1.60 10.85,-1.22 11.65,-0.35 12.44,0.51 12.38,1.85 12.31,3.19 12.33,4.36 12.35,5.53 12.38,6.68 12.41,7.83 12.44,9.33 12.47,10.84 12.55,11.90 12.63,12.96 12.81,14.28 13.00,15.61 13.18,16.86 13.36,18.12 13.48,19.34 13.59,20.57 13.72,21.86 13.86,23.15 13.27,24.73 12.68,26.31 11.61,26.71 10.54,27.11 9.18,27.18 7.81,27.25 6.75,27.39 5.68,27.53 4.53,27.54 3.39,27.54 2.04,27.68 0.70,27.81 -0.51,27.82 -1.74,27.82 -3.15,27.82 -4.57,27.82 -5.66,27.98 -6.75,28.14 -7.89,28.26 -9.03,28.37 -10.26,28.51 -11.48,28.66 -12.95,28.91 -14.43,29.17 -15.76,29.21 -17.09,29.24 -18.33,29.38 -19.58,29.51 -20.79,29.64 -22.01,29.77 -23.25,29.91 -24.50,30.05 -25.80,30.08 -27.09,30.12 -28.30,30.12 -29.51,30.12 -31.16,30.00 -32.81,29.89 -34.23,29.74 -35.64,29.60 -37.10,29.45 -38.56,29.30 -39.99,29.30 -41.41,29.30 -42.56,29.30 -43.71,29.31 -44.93,29.32 -46.14,29.33 -47.43,29.53 -48.73,29.72 -49.85,29.74 -50.97,29.75 -52.23,29.55 -53.48,29.36 -54.62,28.04 -55.75,26.73 -56.01,25.59 -56.27,24.44 -56.48,23.14 -56.69,21.83 -56.74,20.68 -56.78,19.53 -56.90,18.12 -57.02,16.71 -57.16,15.50 -57.29,14.30 -57.32,13.15 -57.35,12.00 -57.44,10.69 -57.53,9.37 -57.54,8.23 -57.55,7.08 -57.66,5.82 -57.77,4.55 -57.76,3.43 -57.74,2.30 -57.52,1.00 -57.30,-0.30 -56.30,-1.22 -55.30,-2.15 -54.17,-2.07 -53.03,-1.98 -51.86,-1.69 -50.69,-1.41 -49.21,-1.15 -47.73,-0.90 -46.58,-0.38 -45.43,0.13 -43.24,0.52 -41.05,0.90 -40.89,0.87 -40.74,0.83 -40.58,0.84 -40.42,0.84 -40.27,0.88 -40.11,0.92 -39.98,1.00 -39.84,1.08 -39.72,1.18 -39.60,1.29 -39.52,1.42 -39.43,1.55 -39.38,1.70 -39.32,1.85 -39.31,2.01 -39.29,2.17 -39.31,2.32 -39.34,2.48 -39.39,2.63 -39.45,2.77 -39.55,2.90 -39.64,3.03 -39.76,3.13 -39.88,3.24 -40.02,3.31 -40.16,3.38 -39.73,2.81 -39.29,2.24 -39.34,2.45 -39.39,2.65 -39.51,2.83 -39.62,3.01 -39.79,3.15 -39.95,3.28 -40.15,3.36 -40.35,3.43 -40.56,3.44 -40.77,3.44 -40.98,3.38 -41.18,3.32 -41.35,3.20 -41.53,3.08 -41.65,2.90 -41.78,2.73 -41.84,2.53 -41.90,2.33 -41.90,2.11 -41.90,1.90 -41.82,1.70 -41.75,1.50 -41.62,1.34 -41.49,1.17 -41.31,1.05 -41.13,0.94 -40.92,0.89 -40.72,0.83 -40.51,0.85 -40.29,0.86 -40.10,0.95 -39.90,1.03 -39.74,1.17 -39.59,1.31 -39.48,1.50 -39.37,1.68 -39.33,1.89 -39.29,2.10 -39.32,2.31 -39.35,2.52 -39.44,2.71 -39.53,2.90 -39.68,3.05 -39.83,3.20 -40.02,3.30 -40.21,3.39 -40.42,3.42 -40.63,3.45 -40.84,3.42 -41.05,3.38 -41.24,3.27 -41.42,3.17 -41.56,3.01 -41.71,2.85 -41.79,2.66 -41.88,2.47 -41.46,1.69 -41.05,0.90 -40.89,0.87 -40.74,0.83 -40.58,0.84 -40.42,0.84 -40.27,0.88 -40.11,0.92 -39.98,1.00 -39.84,1.08 -39.72,1.18 -39.60,1.29 -39.52,1.42 -39.43,1.55 -39.38,1.70 -39.32,1.85 -39.31,2.01 -39.29,2.17 -39.31,2.32 -39.34,2.48 -39.39,2.63 -39.45,2.77 -39.55,2.90 -39.64,3.03 -39.76,3.13 -39.88,3.24 -40.02,3.31 -40.16,3.38 -41.24,3.59 -42.31,3.80 -43.58,4.33 -44.85,4.86 -45.98,4.72 -47.11,4.58 -48.20,4.32 -49.29,4.06 -50.36,3.85 -51.43,3.65 -52.90,3.22 -54.37,2.80 -53.57,1.79 -52.78,0.78 -52.75,1.98 -52.72,3.18 -52.54,4.56 -52.37,5.93 -52.32,7.32 -52.27,8.70 -52.13,9.87 -51.99,11.05 -52.03,12.32 -52.06,13.60 -51.85,15.15 -51.65,16.71 -51.52,17.86 -51.39,19.02 -51.34,20.27 -51.29,21.51 -51.13,22.92 -50.97,24.33 -49.65,24.33 -48.33,24.33 -46.95,24.26 -45.57,24.18 -44.24,24.19 -42.90,24.20 -41.74,24.22 -40.57,24.23 -39.49,24.25 -38.42,24.27 -37.03,24.37 -35.64,24.47 -34.48,24.66 -33.32,24.86 -32.15,24.99 -30.98,25.12 -29.52,25.12 -28.06,25.12 -26.53,25.19 -25.00,25.25 -23.66,25.02 -22.32,24.78 -21.02,24.65 -19.72,24.52 -18.45,24.39 -17.18,24.26 -15.86,24.21 -14.54,24.16 -13.13,23.91 -11.73,23.66 -10.48,23.52 -9.24,23.38 -8.13,23.22 -7.01,23.06 -5.79,22.94 -4.57,22.81 -3.16,22.81 -1.75,22.80 -0.61,22.79 0.51,22.78 1.94,22.64 3.36,22.51 4.44,22.49 5.52,22.48 6.62,22.35 7.72,22.23 8.98,22.20 10.25,22.18 9.66,23.09 9.06,24.01 8.88,22.42 8.69,20.83 8.58,19.52 8.48,18.22 8.35,17.11 8.23,16.00 8.03,14.87 7.84,13.75 7.74,12.65 7.65,11.55 7.67,10.27 7.69,8.98 7.72,7.83 7.76,6.68 7.79,5.51 7.83,4.34 8.58,3.55 9.34,2.76 8.17,2.71 6.99,2.66 5.77,2.72 4.54,2.78 3.36,2.70 2.17,2.62 0.96,2.20 -0.23,1.79 -0.44,1.73 -0.66,1.68 -0.85,1.57 -1.04,1.47 -1.20,1.32 -1.36,1.18 -1.48,1.00 -1.61,0.82 -1.68,0.61 -1.76,0.41 -1.78,0.19 -1.80,-0.02 -1.77,-0.23 -1.74,-0.45 -1.67,-0.65 -1.59,-0.85 -1.46,-1.03 -1.33,-1.21 -1.17,-1.35 -1.00,-1.49 -0.81,-1.59 -0.62,-1.69 -0.40,-1.74 -0.19,-1.79 0.02,-1.79 0.23,-1.79 0.23,-1.79 L 0.23,-1.79 Z"></path></g><g transform="translate(145.36178672610367 208.7871540323306) rotate(0 4.891372681086409 12.372280109663507)" stroke="none"><path fill="#000000" d="M 1.50,-0.75 Q 1.50,-0.75 2.40,0.24 3.30,1.24 4.04,2.66 4.78,4.07 5.22,5.17 5.66,6.27 6.21,7.55 6.76,8.82 7.17,9.82 7.57,10.81 8.11,12.27 8.65,13.72 9.17,14.86 9.69,15.99 10.16,17.38 10.63,18.76 10.54,22.20 10.44,25.64 10.27,25.77 10.09,25.89 9.89,25.95 9.69,26.00 9.47,26.00 9.26,25.99 9.06,25.91 8.87,25.83 8.70,25.70 8.54,25.56 8.43,25.38 8.32,25.20 8.27,24.99 8.22,24.79 8.24,24.57 8.26,24.36 8.35,24.17 8.44,23.98 8.58,23.82 8.72,23.66 8.91,23.56 9.10,23.46 9.31,23.42 9.52,23.39 9.73,23.42 9.94,23.45 10.13,23.55 10.31,23.65 10.46,23.80 10.61,23.95 10.70,24.14 10.79,24.34 10.82,24.55 10.84,24.76 10.80,24.97 10.76,25.17 10.65,25.36 10.54,25.54 10.38,25.68 10.22,25.82 10.02,25.90 9.83,25.98 9.61,25.99 9.40,26.01 9.20,25.95 8.99,25.90 8.81,25.78 8.64,25.66 8.51,25.50 8.38,25.33 8.31,25.13 8.24,24.93 8.23,24.71 8.23,24.50 8.30,24.30 8.36,24.10 8.49,23.93 8.62,23.76 8.62,23.76 8.62,23.76 7.35,22.43 6.08,21.11 5.68,19.76 5.27,18.41 4.82,17.38 4.37,16.34 3.91,15.12 3.44,13.89 3.03,12.73 2.62,11.57 2.07,10.27 1.52,8.98 0.95,7.56 0.39,6.14 -0.29,4.76 -0.98,3.39 -1.24,2.07 -1.50,0.75 -1.57,0.56 -1.64,0.37 -1.66,0.16 -1.68,-0.03 -1.65,-0.23 -1.62,-0.43 -1.55,-0.62 -1.47,-0.81 -1.35,-0.97 -1.23,-1.14 -1.08,-1.27 -0.92,-1.40 -0.74,-1.49 -0.56,-1.58 -0.36,-1.62 -0.16,-1.67 0.03,-1.67 0.23,-1.66 0.43,-1.61 0.62,-1.56 0.80,-1.46 0.98,-1.36 1.13,-1.22 1.28,-1.09 1.39,-0.92 1.50,-0.75 1.50,-0.75 L 1.50,-0.75 Z"></path></g><g transform="translate(145.93723303838078 209.65033667186822) rotate(0 -31.50616634311882 10.78978299421874)" stroke="none"><path fill="#000000" d="M 0.13,1.46 Q 0.13,1.46 -0.72,2.09 -1.58,2.73 -2.88,2.90 -4.17,3.07 -5.26,3.14 -6.35,3.20 -7.58,3.32 -8.81,3.45 -10.06,3.48 -11.30,3.51 -12.46,3.52 -13.61,3.53 -14.77,3.54 -15.92,3.54 -17.14,3.55 -18.36,3.55 -20.41,3.56 -22.46,3.57 -23.76,3.58 -25.06,3.59 -26.45,3.59 -27.84,3.59 -29.10,3.59 -30.37,3.59 -31.64,3.69 -32.91,3.80 -34.24,3.83 -35.57,3.86 -36.73,3.99 -37.88,4.11 -39.27,4.12 -40.65,4.12 -42.00,4.25 -43.34,4.38 -44.78,4.49 -46.23,4.60 -47.47,4.62 -48.71,4.65 -49.89,4.64 -51.06,4.64 -52.33,4.46 -53.60,4.27 -54.75,4.20 -55.89,4.13 -55.54,5.30 -55.19,6.47 -55.36,7.66 -55.54,8.86 -55.83,10.03 -56.12,11.21 -56.37,12.59 -56.62,13.98 -56.95,15.04 -57.29,16.10 -57.87,17.33 -58.44,18.55 -60.27,19.43 -62.09,20.30 -61.90,20.40 -61.72,20.51 -61.57,20.66 -61.43,20.82 -61.34,21.01 -61.25,21.21 -61.23,21.42 -61.21,21.63 -61.26,21.84 -61.31,22.04 -61.42,22.22 -61.53,22.40 -61.70,22.54 -61.86,22.68 -62.06,22.75 -62.26,22.83 -62.47,22.84 -62.68,22.85 -62.88,22.79 -63.09,22.73 -63.26,22.61 -63.44,22.49 -63.56,22.32 -63.69,22.14 -63.76,21.94 -63.82,21.74 -63.82,21.53 -63.82,21.32 -63.75,21.11 -63.68,20.91 -63.55,20.75 -63.42,20.58 -63.24,20.46 -63.06,20.34 -62.86,20.29 -62.65,20.24 -62.44,20.25 -62.23,20.26 -62.03,20.34 -61.83,20.42 -61.67,20.56 -61.51,20.70 -61.41,20.89 -61.30,21.07 -61.25,21.28 -61.21,21.49 -61.24,21.70 -61.26,21.91 -61.35,22.10 -61.45,22.29 -61.59,22.44 -61.74,22.60 -61.93,22.69 -62.12,22.79 -62.33,22.82 -62.54,22.86 -62.75,22.82 -62.96,22.78 -62.96,22.78 -62.96,22.78 -63.73,20.35 -64.50,17.92 -63.79,16.65 -63.09,15.37 -62.64,14.18 -62.18,12.99 -62.00,11.83 -61.82,10.66 -61.54,9.57 -61.26,8.49 -61.06,7.40 -60.86,6.31 -60.67,5.02 -60.47,3.74 -60.24,2.55 -60.00,1.37 -58.82,0.27 -57.64,-0.83 -56.47,-1.01 -55.29,-1.19 -54.16,-1.02 -53.03,-0.85 -51.76,-0.73 -50.48,-0.61 -49.31,-0.62 -48.14,-0.63 -46.93,-0.69 -45.72,-0.74 -44.60,-0.85 -43.47,-0.97 -42.09,-1.11 -40.71,-1.25 -39.41,-1.26 -38.10,-1.28 -36.86,-1.43 -35.61,-1.57 -34.50,-1.60 -33.39,-1.64 -31.88,-1.75 -30.37,-1.86 -29.10,-1.86 -27.84,-1.86 -26.45,-1.86 -25.06,-1.87 -23.76,-1.85 -22.46,-1.84 -21.30,-1.84 -20.15,-1.83 -18.83,-1.83 -17.52,-1.82 -16.20,-1.82 -14.88,-1.82 -13.49,-1.81 -12.10,-1.79 -10.91,-1.80 -9.73,-1.80 -8.53,-1.93 -7.33,-2.05 -6.01,-2.06 -4.68,-2.07 -3.37,-2.23 -2.05,-2.40 -1.09,-1.93 -0.13,-1.46 0.04,-1.45 0.22,-1.45 0.39,-1.40 0.56,-1.35 0.71,-1.26 0.87,-1.18 0.99,-1.06 1.12,-0.94 1.22,-0.79 1.32,-0.64 1.37,-0.47 1.43,-0.30 1.45,-0.13 1.46,0.04 1.44,0.21 1.41,0.39 1.34,0.55 1.27,0.72 1.17,0.86 1.06,1.00 0.93,1.11 0.79,1.23 0.63,1.31 0.47,1.38 0.30,1.42 0.13,1.46 0.13,1.46 L 0.13,1.46 Z"></path></g><g transform="translate(79.75990612125361 230.65443000578512) rotate(0 -17.839112274148874 12.660016436923797)" stroke="none"><path fill="#000000" d="M -0.15,-1.71 Q -0.15,-1.71 0.71,-2.21 1.58,-2.70 2.89,-2.84 4.20,-2.98 5.47,-3.13 6.73,-3.28 7.89,-3.36 9.04,-3.45 10.22,-3.45 11.40,-3.46 13.09,-3.13 14.77,-2.80 15.75,-2.32 16.72,-1.84 17.03,-0.50 17.34,0.83 17.36,1.89 17.38,2.96 17.52,4.27 17.66,5.58 17.68,6.66 17.71,7.75 17.72,9.21 17.73,10.66 17.87,11.79 18.01,12.92 18.13,14.28 18.25,15.63 18.40,16.92 18.55,18.21 18.59,19.31 18.63,20.40 18.76,21.60 18.89,22.80 18.60,24.64 18.31,26.47 16.85,27.20 15.38,27.93 13.99,28.09 12.60,28.24 11.07,28.35 9.53,28.47 8.43,28.48 7.33,28.50 6.07,28.51 4.81,28.52 3.75,28.52 2.68,28.52 1.32,28.43 -0.04,28.33 -1.28,28.18 -2.51,28.03 -3.95,27.97 -5.38,27.91 -6.51,27.91 -7.63,27.91 -9.73,27.82 -11.82,27.74 -14.61,27.69 -17.40,27.64 -18.61,27.64 -19.81,27.63 -20.96,27.61 -22.11,27.60 -23.33,27.51 -24.55,27.43 -25.78,27.50 -27.02,27.56 -28.23,27.64 -29.45,27.71 -30.52,27.72 -31.60,27.73 -32.86,27.73 -34.13,27.73 -35.28,27.74 -36.42,27.74 -37.77,27.74 -39.12,27.73 -40.53,27.73 -41.93,27.73 -43.00,27.84 -44.06,27.94 -45.15,28.07 -46.23,28.19 -48.84,27.57 -51.46,26.95 -51.61,26.97 -51.77,26.99 -51.93,26.97 -52.08,26.95 -52.23,26.89 -52.38,26.84 -52.51,26.75 -52.64,26.66 -52.75,26.54 -52.85,26.42 -52.92,26.28 -53.00,26.14 -53.04,25.99 -53.07,25.83 -53.07,25.67 -53.07,25.52 -53.04,25.36 -53.00,25.21 -52.92,25.07 -52.85,24.93 -52.74,24.81 -52.64,24.69 -52.51,24.60 -52.38,24.51 -52.23,24.46 -52.08,24.40 -52.58,24.97 -53.08,25.54 -53.02,25.34 -52.97,25.13 -52.85,24.96 -52.73,24.78 -52.56,24.65 -52.39,24.52 -52.19,24.45 -51.99,24.38 -51.78,24.38 -51.57,24.38 -51.36,24.44 -51.16,24.51 -50.99,24.64 -50.82,24.77 -50.70,24.94 -50.58,25.12 -50.52,25.32 -50.46,25.52 -50.47,25.74 -50.49,25.95 -50.56,26.15 -50.64,26.34 -50.78,26.51 -50.91,26.67 -51.09,26.78 -51.28,26.89 -51.48,26.94 -51.69,26.99 -51.90,26.96 -52.11,26.94 -52.31,26.85 -52.50,26.77 -52.65,26.62 -52.81,26.48 -52.91,26.29 -53.01,26.10 -53.05,25.89 -53.08,25.68 -53.05,25.47 -53.02,25.26 -52.92,25.08 -52.82,24.89 -52.67,24.74 -52.51,24.59 -52.32,24.50 -52.13,24.41 -51.92,24.39 -51.71,24.36 -51.50,24.41 -51.29,24.45 -51.11,24.56 -50.93,24.67 -50.79,24.83 -50.65,24.99 -50.57,25.19 -50.49,25.38 -50.97,26.17 -51.46,26.95 -51.61,26.97 -51.77,26.99 -51.93,26.97 -52.08,26.95 -52.23,26.89 -52.38,26.84 -52.51,26.75 -52.64,26.66 -52.75,26.54 -52.85,26.42 -52.92,26.28 -53.00,26.14 -53.04,25.99 -53.07,25.83 -53.07,25.67 -53.07,25.52 -53.04,25.36 -53.00,25.21 -52.92,25.07 -52.85,24.93 -52.74,24.81 -52.64,24.69 -52.51,24.60 -52.38,24.51 -52.23,24.46 -52.08,24.40 -50.85,23.79 -49.61,23.19 -48.14,23.04 -46.67,22.90 -45.61,22.74 -44.55,22.58 -43.24,22.45 -41.93,22.33 -40.86,22.32 -39.78,22.32 -38.72,22.32 -37.65,22.32 -36.25,22.32 -34.85,22.32 -33.57,22.32 -32.29,22.32 -31.20,22.33 -30.10,22.33 -29.00,22.29 -27.90,22.25 -26.23,22.15 -24.55,22.05 -23.32,21.97 -22.10,21.89 -20.94,21.88 -19.78,21.87 -18.57,21.87 -17.36,21.88 -14.41,21.93 -11.45,21.98 -9.24,22.07 -7.04,22.15 -5.49,22.16 -3.95,22.17 -2.22,22.32 -0.50,22.47 0.64,22.58 1.80,22.69 2.91,22.69 4.01,22.69 5.11,22.68 6.20,22.67 7.71,22.65 9.21,22.62 10.80,22.48 12.39,22.34 13.61,22.19 14.84,22.05 14.04,22.88 13.24,23.71 13.12,22.59 13.01,21.46 13.03,20.24 13.06,19.02 12.89,17.73 12.71,16.43 12.58,15.31 12.44,14.18 12.44,13.10 12.43,12.02 12.31,10.81 12.18,9.60 12.18,8.36 12.17,7.13 12.14,5.99 12.10,4.85 12.26,3.26 12.43,1.68 11.25,1.71 10.08,1.74 8.83,1.79 7.58,1.85 6.35,1.98 5.12,2.11 3.58,2.24 2.05,2.37 1.10,2.04 0.15,1.71 -0.05,1.70 -0.25,1.69 -0.45,1.64 -0.65,1.58 -0.83,1.48 -1.01,1.38 -1.16,1.24 -1.32,1.10 -1.43,0.92 -1.54,0.75 -1.61,0.55 -1.68,0.36 -1.69,0.15 -1.71,-0.05 -1.68,-0.25 -1.65,-0.46 -1.57,-0.65 -1.49,-0.84 -1.37,-1.01 -1.25,-1.17 -1.09,-1.31 -0.93,-1.44 -0.74,-1.53 -0.56,-1.62 -0.35,-1.66 -0.15,-1.71 -0.15,-1.71 L -0.15,-1.71 Z"></path></g><g transform="translate(39.76576837526818 232.9562679393805) rotate(0 1.1509189667979172 12.660003265801834)" stroke="none"><path fill="#000000" d="M 0.19,1.59 Q 0.19,1.59 -1.06,2.22 -2.33,2.84 -3.58,2.96 -4.83,3.07 -6.06,3.09 -7.29,3.11 -8.39,3.27 -9.49,3.42 -8.93,4.62 -8.37,5.82 -8.26,7.15 -8.15,8.47 -8.11,9.83 -8.07,11.18 -7.94,12.54 -7.82,13.90 -7.77,15.20 -7.73,16.50 -7.70,17.57 -7.66,18.63 -7.64,19.76 -7.63,20.89 -7.77,22.29 -7.90,23.69 -7.98,24.40 -8.06,25.12 -8.10,25.45 -8.14,25.78 -8.26,26.09 -8.38,26.39 -8.57,26.67 -8.76,26.94 -9.01,27.15 -9.26,27.37 -9.56,27.52 -9.85,27.67 -10.17,27.75 -10.50,27.83 -10.83,27.83 -11.16,27.82 -11.48,27.74 -11.80,27.66 -12.09,27.50 -12.38,27.35 -12.63,27.13 -12.88,26.90 -13.06,26.63 -13.25,26.36 -13.36,26.05 -13.48,25.74 -13.51,25.41 -13.55,25.08 -10.87,25.08 -8.19,25.08 -8.23,25.40 -8.27,25.72 -8.39,26.02 -8.51,26.33 -8.69,26.59 -8.88,26.86 -9.12,27.07 -9.37,27.28 -9.65,27.43 -9.94,27.58 -10.26,27.65 -10.57,27.73 -10.90,27.73 -11.22,27.72 -11.54,27.64 -11.85,27.56 -12.14,27.41 -12.42,27.26 -12.66,27.04 -12.90,26.83 -13.09,26.56 -13.27,26.29 -13.38,25.99 -13.49,25.68 -13.53,25.36 -13.57,25.04 -12.56,23.68 -11.55,22.33 -10.39,21.95 -9.24,21.57 -7.97,21.50 -6.69,21.42 -5.44,21.41 -4.19,21.41 -3.07,21.41 -1.94,21.40 -0.82,21.41 0.30,21.42 1.48,21.46 2.66,21.49 3.86,21.58 5.07,21.66 6.16,21.88 7.25,22.11 8.40,21.98 9.54,21.84 11.30,21.77 13.07,21.71 13.28,21.73 13.49,21.75 13.69,21.84 13.88,21.93 14.03,22.08 14.19,22.23 14.29,22.41 14.39,22.60 14.42,22.81 14.45,23.02 14.42,23.23 14.38,23.44 14.28,23.63 14.18,23.81 14.03,23.96 13.87,24.11 13.68,24.20 13.49,24.28 13.28,24.31 13.07,24.33 12.86,24.28 12.65,24.24 12.47,24.13 12.29,24.02 12.15,23.85 12.01,23.69 11.94,23.50 11.86,23.30 11.85,23.09 11.83,22.87 11.89,22.67 11.95,22.46 12.07,22.29 12.19,22.11 12.36,21.98 12.53,21.86 12.73,21.79 12.93,21.72 13.14,21.72 13.36,21.72 13.56,21.79 13.76,21.86 13.93,21.99 14.10,22.12 14.21,22.29 14.33,22.47 14.39,22.67 14.45,22.88 14.43,23.09 14.42,23.30 14.34,23.50 14.26,23.70 14.13,23.86 13.99,24.02 13.81,24.13 13.62,24.24 13.42,24.28 13.21,24.33 13.21,24.33 13.21,24.33 11.43,25.18 9.65,26.03 8.43,26.41 7.22,26.79 6.00,26.73 4.78,26.67 3.72,26.75 2.66,26.84 1.48,26.87 0.30,26.91 -0.82,26.92 -1.94,26.93 -3.07,26.92 -4.19,26.92 -5.42,26.92 -6.65,26.92 -7.79,27.00 -8.94,27.09 -8.56,26.08 -8.19,25.08 -8.23,25.40 -8.27,25.72 -8.39,26.02 -8.50,26.33 -8.69,26.59 -8.88,26.86 -9.12,27.07 -9.37,27.28 -9.65,27.43 -9.94,27.58 -10.26,27.65 -10.57,27.73 -10.90,27.73 -11.22,27.72 -11.54,27.64 -11.85,27.56 -12.14,27.41 -12.42,27.26 -12.66,27.04 -12.90,26.83 -13.08,26.56 -13.27,26.29 -13.38,25.99 -13.49,25.68 -13.53,25.36 -13.57,25.04 -10.81,25.08 -8.06,25.12 -8.10,25.45 -8.14,25.78 -8.26,26.09 -8.38,26.39 -8.57,26.67 -8.76,26.94 -9.01,27.15 -9.26,27.37 -9.56,27.52 -9.85,27.67 -10.17,27.75 -10.50,27.83 -10.83,27.83 -11.16,27.82 -11.48,27.74 -11.80,27.66 -12.09,27.50 -12.38,27.35 -12.63,27.13 -12.88,26.90 -13.06,26.63 -13.25,26.36 -13.36,26.05 -13.48,25.74 -13.51,25.41 -13.55,25.08 -13.43,24.10 -13.30,23.12 -13.19,22.01 -13.08,20.89 -13.06,19.76 -13.05,18.63 -13.01,17.30 -12.98,15.96 -13.00,14.61 -13.02,13.26 -13.13,11.52 -13.23,9.78 -13.36,8.56 -13.49,7.35 -13.48,6.24 -13.48,5.13 -13.47,3.80 -13.46,2.47 -13.19,1.03 -12.92,-0.40 -11.39,-1.05 -9.86,-1.70 -8.66,-1.83 -7.47,-1.96 -6.30,-1.98 -5.12,-2.00 -4.04,-2.09 -2.96,-2.18 -1.58,-1.89 -0.19,-1.59 -0.00,-1.59 0.18,-1.59 0.37,-1.55 0.56,-1.50 0.73,-1.41 0.91,-1.32 1.05,-1.20 1.20,-1.07 1.31,-0.91 1.42,-0.75 1.49,-0.57 1.56,-0.39 1.58,-0.19 1.61,-0.00 1.58,0.18 1.56,0.38 1.49,0.56 1.42,0.74 1.31,0.90 1.20,1.06 1.06,1.19 0.91,1.32 0.74,1.41 0.57,1.50 0.38,1.55 0.19,1.59 0.19,1.59 L 0.19,1.59 Z"></path></g><g transform="translate(116.30130013796725 118.15296370977171) rotate(0 1.0070508031676582 31.650027921187984)" stroke="none"><path fill="#000000" d="M 1.36,0.34 Q 1.36,0.34 1.22,3.11 1.08,5.89 0.71,7.22 0.34,8.55 -0.11,10.20 -0.58,11.85 -1.00,13.15 -1.42,14.46 -1.80,15.69 -2.19,16.92 -2.69,17.89 -3.19,18.85 -3.74,20.69 -4.29,22.52 -4.83,24.12 -5.38,25.71 -5.77,26.82 -6.17,27.92 -6.65,29.42 -7.14,30.91 -7.38,32.06 -7.61,33.22 -7.92,34.27 -8.23,35.33 -8.64,37.19 -9.05,39.05 -9.32,40.11 -9.59,41.17 -10.07,42.68 -10.55,44.18 -10.85,45.38 -11.14,46.58 -11.41,47.64 -11.69,48.70 -12.23,50.25 -12.78,51.79 -13.30,52.98 -13.81,54.17 -14.40,55.75 -14.99,57.33 -15.38,58.38 -15.77,59.42 -16.36,60.74 -16.94,62.06 -17.63,61.19 -18.33,60.33 -16.94,60.30 -15.55,60.27 -14.31,60.39 -13.08,60.50 -11.69,60.60 -10.31,60.71 -8.98,60.75 -7.65,60.79 -6.31,60.79 -4.98,60.80 -3.31,60.79 -1.64,60.79 -0.47,60.89 0.68,60.98 2.49,61.02 4.29,61.06 5.55,61.06 6.81,61.07 7.97,61.07 9.13,61.06 10.48,61.06 11.84,61.07 13.02,61.07 14.20,61.07 15.58,61.07 16.96,61.07 18.14,61.09 19.32,61.12 19.25,62.19 19.18,63.25 18.00,62.66 16.82,62.08 16.01,60.89 15.19,59.71 14.59,58.56 13.99,57.40 13.40,56.23 12.81,55.05 12.28,54.11 11.74,53.16 11.23,51.89 10.73,50.61 10.65,49.53 10.56,48.46 10.42,47.40 10.28,46.35 10.06,44.96 9.85,43.57 9.55,42.53 9.26,41.49 8.94,40.47 8.62,39.46 8.37,38.41 8.13,37.37 7.81,36.14 7.49,34.91 7.02,33.32 6.56,31.73 6.16,30.34 5.76,28.94 5.20,27.60 4.65,26.26 4.32,25.10 4.00,23.95 3.58,22.74 3.16,21.54 2.73,20.26 2.31,18.98 1.94,17.66 1.57,16.34 1.27,15.29 0.97,14.23 0.79,13.13 0.61,12.02 0.30,10.41 0.00,8.80 -0.17,7.73 -0.35,6.65 -0.60,5.33 -0.85,4.01 -0.96,2.08 -1.07,0.15 -1.08,-0.00 -1.09,-0.16 -1.06,-0.32 -1.04,-0.47 -0.97,-0.62 -0.91,-0.76 -0.81,-0.89 -0.72,-1.01 -0.59,-1.11 -0.47,-1.21 -0.33,-1.28 -0.18,-1.34 -0.03,-1.37 0.12,-1.40 0.28,-1.40 0.43,-1.39 0.59,-1.34 0.74,-1.30 0.87,-1.22 1.01,-1.14 1.12,-1.02 1.24,-0.91 1.32,-0.78 1.40,-0.64 1.45,-0.49 1.50,-0.34 0.92,0.42 0.35,1.20 0.14,1.19 -0.06,1.18 -0.26,1.10 -0.46,1.02 -0.62,0.88 -0.78,0.74 -0.89,0.56 -1.00,0.38 -1.05,0.17 -1.09,-0.03 -1.07,-0.24 -1.04,-0.45 -0.95,-0.64 -0.86,-0.83 -0.72,-0.99 -0.57,-1.14 -0.38,-1.24 -0.20,-1.34 0.00,-1.37 0.21,-1.41 0.42,-1.37 0.63,-1.34 0.82,-1.24 1.01,-1.14 1.15,-0.98 1.30,-0.83 1.39,-0.64 1.48,-0.44 1.50,-0.23 1.52,-0.02 1.48,0.18 1.43,0.38 1.32,0.57 1.21,0.75 1.05,0.89 0.88,1.02 0.69,1.10 0.49,1.18 0.28,1.19 0.07,1.20 -0.13,1.14 -0.33,1.09 -0.51,0.97 -0.69,0.85 -0.81,0.68 -0.94,0.51 -1.01,0.31 -1.08,0.11 -1.08,-0.10 -1.08,-0.31 -1.01,-0.51 -0.94,-0.71 -0.81,-0.88 -0.68,-1.05 -0.50,-1.17 -0.33,-1.29 -0.70,-0.57 -1.07,0.15 -1.08,-0.00 -1.09,-0.16 -1.06,-0.32 -1.04,-0.47 -0.97,-0.62 -0.91,-0.76 -0.81,-0.89 -0.72,-1.01 -0.59,-1.11 -0.47,-1.21 -0.33,-1.28 -0.18,-1.34 -0.03,-1.37 0.12,-1.40 0.28,-1.40 0.43,-1.39 0.59,-1.34 0.74,-1.30 0.87,-1.22 1.01,-1.14 1.12,-1.02 1.24,-0.91 1.32,-0.78 1.40,-0.64 1.45,-0.49 1.50,-0.34 3.01,1.31 4.53,2.97 4.96,5.33 5.39,7.70 5.71,9.37 6.03,11.04 6.28,12.50 6.53,13.96 6.86,15.10 7.19,16.25 7.59,17.54 7.99,18.83 8.39,20.04 8.79,21.25 9.25,22.56 9.72,23.87 10.06,24.93 10.40,26.00 10.80,27.11 11.20,28.22 11.54,29.24 11.87,30.26 12.14,31.29 12.42,32.32 12.71,33.47 13.00,34.63 13.42,36.20 13.84,37.77 14.37,39.36 14.90,40.95 15.15,42.44 15.40,43.94 15.53,45.02 15.65,46.10 15.80,47.18 15.94,48.27 16.25,49.55 16.55,50.83 17.24,52.04 17.92,53.25 18.42,54.19 18.91,55.13 19.46,56.26 20.01,57.39 20.82,58.34 21.63,59.28 22.44,60.21 23.26,61.14 23.49,62.37 23.72,63.60 22.81,64.83 21.90,66.06 20.61,66.34 19.32,66.62 18.14,66.65 16.96,66.68 15.58,66.68 14.20,66.68 13.02,66.68 11.84,66.68 10.48,66.68 9.13,66.68 7.97,66.67 6.81,66.67 5.54,66.67 4.27,66.67 2.46,66.64 0.65,66.60 -0.49,66.49 -1.64,66.37 -2.71,66.37 -3.78,66.36 -4.86,66.35 -5.95,66.35 -7.45,66.33 -8.95,66.31 -10.76,66.17 -12.56,66.04 -14.07,65.89 -15.59,65.74 -17.06,65.49 -18.52,65.23 -19.86,64.69 -21.19,64.15 -21.46,62.59 -21.73,61.02 -21.41,59.96 -21.10,58.90 -20.59,57.69 -20.08,56.49 -19.63,55.26 -19.18,54.04 -18.67,52.68 -18.16,51.32 -17.71,50.09 -17.25,48.86 -16.90,47.67 -16.54,46.47 -16.19,45.44 -15.85,44.41 -15.55,43.14 -15.24,41.88 -14.90,40.79 -14.56,39.70 -14.27,38.59 -13.99,37.48 -13.68,36.10 -13.37,34.72 -13.02,33.52 -12.68,32.32 -12.37,30.85 -12.05,29.38 -11.58,27.95 -11.11,26.52 -10.64,25.16 -10.16,23.80 -9.69,22.44 -9.21,21.08 -8.67,19.23 -8.13,17.37 -7.58,16.35 -7.04,15.34 -6.58,13.92 -6.12,12.51 -5.79,11.45 -5.46,10.39 -4.95,8.79 -4.45,7.19 -4.09,5.94 -3.73,4.69 -2.55,2.17 -1.36,-0.34 -1.30,-0.50 -1.24,-0.65 -1.14,-0.79 -1.05,-0.93 -0.92,-1.05 -0.79,-1.16 -0.64,-1.24 -0.49,-1.31 -0.33,-1.35 -0.16,-1.39 0.00,-1.39 0.17,-1.39 0.33,-1.35 0.50,-1.31 0.65,-1.23 0.80,-1.15 0.93,-1.04 1.05,-0.93 1.15,-0.79 1.25,-0.65 1.31,-0.49 1.36,-0.33 1.38,-0.16 1.40,0.00 1.38,0.17 1.36,0.34 1.36,0.34 L 1.36,0.34 Z"></path></g><g transform="translate(229.83135157186007 173.39431222581084) rotate(0 14.137198988046634 -2.0195833465884334)" stroke="none"><path fill="#000000" d="M -0.15,-1.54 Q -0.15,-1.54 2.68,-2.50 5.51,-3.46 7.48,-3.85 9.45,-4.25 12.57,-4.45 15.69,-4.65 17.54,-4.73 19.39,-4.80 20.78,-4.83 22.16,-4.87 24.00,-4.88 25.84,-4.90 26.89,-4.50 27.94,-4.10 28.03,-4.29 28.11,-4.49 28.25,-4.65 28.40,-4.80 28.58,-4.91 28.77,-5.01 28.98,-5.05 29.19,-5.09 29.40,-5.06 29.61,-5.03 29.80,-4.93 29.99,-4.84 30.13,-4.68 30.28,-4.53 30.38,-4.34 30.47,-4.15 30.50,-3.94 30.53,-3.73 30.48,-3.52 30.44,-3.31 30.34,-3.13 30.23,-2.94 30.07,-2.80 29.91,-2.66 29.72,-2.58 29.52,-2.50 29.31,-2.48 29.10,-2.47 28.89,-2.52 28.69,-2.57 28.51,-2.69 28.33,-2.80 28.20,-2.97 28.07,-3.14 27.99,-3.34 27.92,-3.53 27.92,-3.75 27.91,-3.96 27.98,-4.16 28.04,-4.37 28.17,-4.54 28.29,-4.71 28.46,-4.83 28.64,-4.95 28.84,-5.02 29.04,-5.08 29.26,-5.07 29.47,-5.06 29.67,-4.99 29.87,-4.91 30.03,-4.78 30.20,-4.64 30.31,-4.46 30.42,-4.29 30.47,-4.08 30.52,-3.87 30.50,-3.66 30.49,-3.45 30.49,-3.45 30.49,-3.45 28.18,-1.28 25.87,0.87 24.08,0.90 22.29,0.92 20.96,0.95 19.63,0.98 17.84,1.06 16.04,1.13 13.30,1.28 10.57,1.43 8.33,1.87 6.09,2.30 3.12,1.92 0.15,1.54 -0.03,1.54 -0.21,1.53 -0.40,1.48 -0.58,1.43 -0.74,1.34 -0.90,1.25 -1.04,1.13 -1.18,1.00 -1.28,0.84 -1.38,0.69 -1.45,0.51 -1.51,0.33 -1.53,0.15 -1.55,-0.03 -1.52,-0.21 -1.49,-0.40 -1.42,-0.57 -1.35,-0.75 -1.24,-0.90 -1.14,-1.05 -0.99,-1.17 -0.85,-1.29 -0.68,-1.37 -0.51,-1.46 -0.33,-1.50 -0.15,-1.54 -0.15,-1.54 L -0.15,-1.54 Z"></path></g><g transform="translate(259.11548344028415 168.34534230314716) rotate(0 -8.583292782060994 -4.5440798641132005)" stroke="none"><path fill="#000000" d="M -0.72,1.44 Q -0.72,1.44 -2.12,1.35 -3.53,1.25 -4.48,0.63 -5.42,0.00 -6.34,-0.57 -7.26,-1.15 -9.11,-2.02 -10.96,-2.89 -12.59,-3.88 -14.23,-4.88 -16.15,-6.50 -18.08,-8.11 -18.17,-8.30 -18.27,-8.49 -18.30,-8.70 -18.33,-8.91 -18.30,-9.12 -18.26,-9.33 -18.16,-9.51 -18.05,-9.70 -17.90,-9.84 -17.74,-9.99 -17.55,-10.07 -17.35,-10.16 -17.14,-10.18 -16.93,-10.20 -16.72,-10.15 -16.52,-10.10 -16.34,-9.99 -16.16,-9.88 -16.02,-9.72 -15.88,-9.55 -15.81,-9.35 -15.73,-9.16 -15.72,-8.94 -15.72,-8.73 -15.78,-8.53 -15.83,-8.32 -15.96,-8.15 -16.08,-7.97 -16.25,-7.85 -16.42,-7.72 -16.62,-7.66 -16.82,-7.59 -17.04,-7.59 -17.25,-7.60 -17.45,-7.67 -17.65,-7.74 -17.82,-7.87 -17.98,-8.00 -18.10,-8.18 -18.22,-8.36 -18.27,-8.56 -18.33,-8.77 -18.31,-8.98 -18.30,-9.19 -18.22,-9.39 -18.14,-9.58 -18.00,-9.74 -17.86,-9.90 -17.67,-10.01 -17.49,-10.12 -17.28,-10.16 -17.07,-10.20 -16.86,-10.18 -16.65,-10.15 -16.46,-10.06 -16.27,-9.97 -16.12,-9.82 -15.96,-9.67 -15.96,-9.67 -15.96,-9.67 -13.71,-9.74 -11.46,-9.80 -10.47,-9.22 -9.49,-8.64 -8.09,-7.82 -6.69,-7.00 -5.05,-6.20 -3.41,-5.40 -2.26,-4.49 -1.11,-3.57 -0.19,-2.51 0.72,-1.44 0.88,-1.33 1.04,-1.23 1.18,-1.08 1.31,-0.94 1.40,-0.77 1.50,-0.60 1.55,-0.41 1.60,-0.22 1.60,-0.03 1.60,0.16 1.56,0.35 1.52,0.54 1.43,0.71 1.34,0.89 1.22,1.04 1.09,1.18 0.93,1.30 0.77,1.41 0.59,1.49 0.41,1.56 0.22,1.59 0.03,1.61 -0.16,1.59 -0.35,1.57 -0.54,1.51 -0.72,1.44 -0.72,1.44 L -0.72,1.44 Z"></path></g><g transform="translate(259.11548344028415 168.34534230314716) rotate(0 -8.583292782060994 8.583258113482998)" stroke="none"><path fill="#000000" d="M 0.98,0.98 Q 0.98,0.98 -0.13,2.76 -1.26,4.54 -2.35,5.95 -3.44,7.37 -4.55,8.64 -5.67,9.92 -6.42,10.76 -7.17,11.61 -8.82,13.01 -10.47,14.41 -11.50,15.32 -12.52,16.24 -13.43,17.19 -14.34,18.14 -15.42,16.92 -16.51,15.69 -16.65,15.75 -16.80,15.81 -16.96,15.83 -17.11,15.85 -17.27,15.83 -17.43,15.82 -17.58,15.77 -17.73,15.71 -17.86,15.62 -17.99,15.54 -18.10,15.42 -18.20,15.31 -18.28,15.17 -18.36,15.03 -18.40,14.87 -18.44,14.72 -18.44,14.56 -18.45,14.41 -18.41,14.25 -18.38,14.10 -18.31,13.95 -18.24,13.81 -18.13,13.69 -18.03,13.57 -17.90,13.48 -17.77,13.39 -18.09,13.79 -18.41,14.19 -18.32,13.99 -18.23,13.80 -18.08,13.65 -17.93,13.49 -17.75,13.39 -17.56,13.29 -17.35,13.26 -17.14,13.22 -16.93,13.26 -16.72,13.29 -16.53,13.39 -16.34,13.49 -16.20,13.65 -16.05,13.80 -15.96,13.99 -15.87,14.19 -15.85,14.40 -15.83,14.61 -15.87,14.82 -15.92,15.02 -16.03,15.21 -16.14,15.39 -16.30,15.52 -16.46,15.66 -16.66,15.74 -16.86,15.82 -17.07,15.83 -17.28,15.84 -17.49,15.79 -17.69,15.73 -17.87,15.61 -18.04,15.49 -18.17,15.32 -18.30,15.15 -18.37,14.95 -18.44,14.75 -18.44,14.54 -18.44,14.32 -18.37,14.12 -18.30,13.92 -18.17,13.75 -18.04,13.58 -17.87,13.46 -17.69,13.35 -17.49,13.29 -17.28,13.23 -17.07,13.24 -16.86,13.25 -16.66,13.33 -16.46,13.41 -16.30,13.55 -16.14,13.69 -16.03,13.87 -15.92,14.05 -15.87,14.26 -15.83,14.47 -16.17,15.08 -16.51,15.69 -16.65,15.75 -16.80,15.81 -16.96,15.83 -17.11,15.85 -17.27,15.83 -17.43,15.82 -17.58,15.77 -17.73,15.71 -17.86,15.63 -17.99,15.54 -18.10,15.42 -18.20,15.31 -18.28,15.17 -18.36,15.03 -18.40,14.88 -18.44,14.72 -18.44,14.56 -18.45,14.41 -18.41,14.25 -18.38,14.10 -18.31,13.96 -18.24,13.81 -18.13,13.69 -18.03,13.57 -17.90,13.48 -17.77,13.39 -16.93,12.96 -16.10,12.53 -14.69,11.36 -13.29,10.19 -12.04,9.20 -10.79,8.22 -10.03,7.45 -9.28,6.68 -8.21,5.53 -7.15,4.38 -5.84,2.82 -4.54,1.26 -2.76,0.13 -0.98,-0.98 -0.85,-1.09 -0.72,-1.19 -0.56,-1.26 -0.41,-1.33 -0.25,-1.36 -0.08,-1.39 0.08,-1.38 0.25,-1.37 0.41,-1.32 0.57,-1.27 0.71,-1.18 0.86,-1.10 0.98,-0.98 1.10,-0.86 1.18,-0.71 1.27,-0.57 1.32,-0.41 1.37,-0.25 1.38,-0.08 1.39,0.08 1.36,0.25 1.33,0.41 1.26,0.56 1.19,0.72 1.09,0.85 0.98,0.98 0.98,0.98 L 0.98,0.98 Z"></path></g><g stroke-linecap="round" transform="translate(10 10) rotate(0 283.27606357387424 147.22899592164197)"><path d="M-0.64 0.59 C144.17 -0.06, 287.12 0.87, 566.57 -0.53 M0 0.02 C180.52 0.38, 361 0.57, 566.42 0.4 M567.72 -1.07 C566.49 93.03, 566.23 188.44, 567.41 294.99 M566.11 -0.68 C566.87 62.13, 567.3 124.54, 566.85 294.08 M567.07 294.56 C388.86 296.6, 209.49 297.09, -0.37 294.4 M566.77 294.71 C419.74 295.24, 271.8 295.09, -0.03 294.27 M1.46 295.73 C-1.44 235.39, -1.06 175.58, 1.4 0.87 M0.43 294.5 C-1.08 199.36, -1.67 104.32, 0.21 -0.55" stroke="transparent" stroke-width="1" fill="none"></path></g></svg>