<svg version="1.1" xmlns="http://www.w3.org/2000/svg" viewBox="0 0 387.49380737418903 243.47618538992725" width="1162.481422122567" height="730.4285561697818">
  <!-- svg-source:excalidraw -->
  
  <defs>
    <style class="style-fonts">
      @font-face {
        font-family: "Virgil";
        src: url("https://excalidraw.com/Virgil.woff2");
      }
      @font-face {
        font-family: "Cascadia";
        src: url("https://excalidraw.com/Cascadia.woff2");
      }
    </style>
  </defs>
  <g transform="translate(86 113.89478711504245) rotate(0 9.035905090517474 42.3014460083084)" stroke="none"><path d="M0.18 -4.71 L-4.6 -3.76 L-4.64 -4.08 L-5.08 -4.36 L-7.46 -2.72 L-14.23 -1.87 L-15.54 -2.45 L-21.69 -2.48 L-21.92 0.13 L-22.34 -2.73 L-28.53 1.24 L-31.01 1.98 L-31.05 0.49 L-33.97 5.34 L-37.37 3.46 L-40.78 3.98 L-43.21 7.78 L-45.01 6.37 L-49.86 10.73 L-51.5 12.51 L-53.04 11.29 L-58.69 13.8 L-56.79 16.19 L-58.79 19.34 L-62.14 17.24 L-64.73 22.66 L-65.77 21.38 L-68.84 27.23 L-66.76 28.11 L-68.07 31.71 L-72.48 32.64 L-73.41 35.48 L-72.03 35.36 L-72.54 40.67 L-73.5 43.73 L-77.13 45.45 L-74.65 47.49 L-76.2 50.73 L-75.57 54.89 L-74.11 55.84 L-75.39 60.6 L-75.91 62.28 L-74.93 64.55 L-70.65 69.37 L-69.97 69.65 L-70.69 72.87 L-70.64 74.98 L-67.8 77.11 L-67.46 79.54 L-62.37 80.64 L-63.23 81.67 L-61.48 83.95 L-60.47 87.53 L-60.9 87.82 L-58.03 89.34 L-55.08 91.42 L-56.48 92.4 L-55.17 95.55 L-50.66 93.18 L-49.62 95.4 L-48.48 96.11 L-44.9 97.46 L-46.17 97.88 L-46.13 98.08 L-44.28 101.52 L-40.53 100.18 L-39.76 104.52 L-39.24 104.68 L-36.52 105.02 L-35.46 107.11 L-33.52 107.67 L-31.07 106.06 L-29.37 106.85 L-25.92 106.74 L-23.7 106.32 L-21.24 110.56 L-19.15 109.27 L-18.9 107.3 L-13.4 106.61 L-10.87 109.15 L-9.69 108.63 L-7.6 106.48 L-3.7 107.05 L-2.41 106.28 L-2.16 107.31 L1.39 104.6 L1.92 104.79 L6.55 105.01 L10.47 104.63 L11.1 101.81 L13.2 101.9 L16.44 100.24 L21.99 101.99 L25.23 100.31 L27.13 98.53 L28.87 96.95 L31.87 97.15 L31.3 96.38 L33.17 92.31 L34.58 91.78 L36.92 92.73 L39.99 93.97 L41.97 90.36 L42.13 91.59 L45.53 87.28 L46.35 87.37 L49.84 87.12 L49.89 84.19 L52.77 83.09 L54.05 81.35 L54.49 79.62 L54.1 79.98 L55.51 76.49 L55.97 74.72 L59.36 72.59 L57.56 71.83 L57.81 73.73 L57.42 69.99 L60.36 68.82 L57.43 68.04 L57.48 67.38 L57.5 68.56 L57.95 68.2 L58.81 64.63 L56.23 63.93 L56.58 62.85 L53.76 63.4 L55.31 62.55 L51.64 65.16 L49.52 64.01 L45.26 64.06 L46.96 60.81 L42.33 62.89 L38.84 61.8 L38.27 64.21 L38.92 62.26 L36.79 61.92 L35.02 61.28 L31.91 62.82 L29.61 63.81 L26.04 64.52 L24.43 62.64 L19.85 61.49 L20.61 64.41 L16.96 62.47 L17.17 63.04 L12.74 62.73 L13.23 63.41 L9.52 61.6 L8.52 61.14 L7.22 58.58 L8.73 58.78 L4.87 60.7 L3.61 58.19 L5.06 59.12 L5.51 58.52 L2.1 56.03 L4.13 55.31 L1.86 49.73 L3.79 48.28 L3.3 49.38 L3.46 46.53 L7.65 47.89 L7.53 44.03 L11.17 44.45 L12.95 43.69 L13.72 44.2 L20.65 41.18 L24.8 40.92 L25.69 38.19 L29.8 37.09 L32.36 36.64 L36.19 39.27 L34.88 35.9 L39.11 35.44 L39.56 34.46 L42.09 35.29 L45.89 36.3 L51.56 34.47 L51.57 32.35 L55.77 32.59 L57.44 31.71 L62.48 32.42 L63.69 29.91 L63.87 32.16 L63.96 30.29 L66.36 30.83 L73.01 30.05 L73.37 29.74 L77.08 25.13 L76.05 28.71 L76.39 25.18 L81.15 24.2 L83.03 25.61 L85.07 23.16 L86.55 21.2 L88.52 22.28 L87.08 19.27 L89.3 19.1 L92.77 18.07 L92.76 16.2 L91.07 15.15 L94.6 10.26 L92.11 11.58 L92.18 9.34 L95.32 7.14 L93.2 5.12 L94.79 4.01 L93.65 1.36 L92.61 -0.87 L93.86 -1.91 L93.54 -3.63 L89.85 -4.13 L90.32 -6.76 L88.57 -9.03 L85.64 -11.04 L84.65 -11.25 L83.54 -12.73 L81.71 -15.37 L80.73 -16.56 L79.02 -16.94 L80.56 -16.01 L76.87 -16.82 L77.08 -19.78 L71.85 -19.98 L72.24 -22.55 L70.86 -22.5 L66.73 -22.25 L67.81 -21.1 L65.17 -21.5 L62.91 -24.72 L60.88 -24 L58.06 -22.4 L59.16 -22.69 L56.1 -22.85 L54.61 -23.58 L50.95 -24.51 L49.21 -25.37 L50.1 -23.85 L46.86 -21.48 L43.38 -23.64 L41.51 -20.93 L40.99 -20.65 L36.34 -22.9 L36.7 -22.51 L33.94 -22.72 L30.67 -22.33 L30.2 -21.33 L28.01 -18.91 L27 -21.48 L28.23 -17.68 L26.24 -17.87 L23.08 -18.33 L19.74 -18.45 L20.71 -14.03 L17.36 -13.9 L16.79 -13.89 L14.95 -14.48 L14.77 -12.51 L8.96 -12.62 L9.75 -13.09 L6.57 -8.91 L3.77 -9.98 L4.91 -10.63 L4.53 -7.81 L1.08 -8.13 L2.08 -6.35 L-2.42 -6.47 L-0.54 -4.89 L-1.19 -6.85 L-5.35 -4.61 L-4.11 -4.63 L-5.31 -4.55 L-3.45 -3.9 L-6.43 -1.66 L-6.11 -1.77 L-6.38 -4.4 L-9.04 -4.07 L-6.53 -2.03 L0.04 -4.47" stroke="none" stroke-width="0" fill="#fcd069" fill-rule="evenodd"></path><path fill="#fcd069" d="M -1.43,-2.76 Q -1.43,-2.76 -2.74,-2.10 -4.06,-1.44 -5.37,-1.42 -6.68,-1.41 -8.44,-1.24 -10.20,-1.07 -11.87,-0.84 -13.54,-0.61 -15.07,-0.22 -16.60,0.16 -18.08,0.52 -19.57,0.88 -20.72,1.18 -21.87,1.47 -23.25,1.91 -24.62,2.34 -25.91,2.82 -27.20,3.30 -29.35,4.28 -31.51,5.27 -32.62,5.83 -33.74,6.39 -35.04,6.99 -36.33,7.59 -37.37,8.12 -38.41,8.65 -39.68,9.24 -40.96,9.82 -42.63,10.55 -44.30,11.27 -46.28,12.20 -48.26,13.12 -49.37,13.78 -50.48,14.45 -51.99,15.26 -53.50,16.07 -54.38,16.66 -55.27,17.25 -56.17,17.94 -57.07,18.63 -58.79,20.42 -60.51,22.20 -61.84,23.88 -63.18,25.57 -64.47,27.65 -65.77,29.73 -66.47,30.92 -67.18,32.11 -67.81,33.33 -68.45,34.56 -69.13,35.78 -69.82,37.01 -70.55,39.14 -71.28,41.26 -71.63,42.44 -71.97,43.61 -72.33,46.10 -72.69,48.59 -72.77,50.09 -72.85,51.60 -72.90,53.06 -72.94,54.52 -72.96,55.92 -72.98,57.33 -72.64,58.72 -72.31,60.12 -71.97,61.43 -71.64,62.74 -71.03,64.02 -70.41,65.29 -69.34,67.44 -68.28,69.60 -67.03,71.51 -65.79,73.43 -64.98,74.67 -64.16,75.92 -63.24,77.41 -62.32,78.90 -61.01,80.72 -59.70,82.53 -58.67,83.85 -57.65,85.16 -57.02,86.16 -56.39,87.16 -55.29,88.21 -54.19,89.26 -52.83,90.44 -51.48,91.62 -50.56,92.25 -49.64,92.88 -48.01,94.00 -46.39,95.12 -45.24,95.84 -44.08,96.56 -42.52,97.57 -40.96,98.58 -39.58,99.47 -38.21,100.36 -36.64,101.38 -35.06,102.41 -33.50,102.96 -31.94,103.50 -30.05,104.05 -28.16,104.60 -26.02,104.89 -23.88,105.17 -21.70,105.28 -19.51,105.39 -17.70,105.40 -15.89,105.42 -14.37,105.42 -12.84,105.43 -10.87,105.08 -8.90,104.74 -7.16,104.45 -5.41,104.16 -4.27,103.91 -3.12,103.67 -0.89,103.14 1.33,102.61 2.61,102.34 3.88,102.06 5.48,101.64 7.08,101.22 8.34,100.89 9.60,100.55 10.78,100.13 11.95,99.71 13.37,99.32 14.79,98.94 15.98,98.51 17.17,98.08 18.69,97.56 20.20,97.05 21.28,96.56 22.35,96.08 23.36,95.58 24.38,95.08 26.16,94.47 27.94,93.86 29.95,92.94 31.96,92.02 33.46,91.42 34.96,90.82 36.22,90.10 37.49,89.38 38.66,88.85 39.83,88.31 41.36,87.42 42.89,86.53 44.00,85.82 45.11,85.11 46.77,83.87 48.43,82.63 49.73,81.23 51.04,79.82 52.34,78.05 53.64,76.27 54.46,74.61 55.28,72.96 55.98,71.51 56.69,70.07 56.73,68.86 56.77,67.66 55.31,66.94 53.85,66.21 51.84,65.97 49.82,65.72 48.07,65.63 46.32,65.54 44.23,65.52 42.14,65.50 40.34,65.52 38.54,65.53 36.60,65.53 34.67,65.54 32.61,65.55 30.54,65.55 29.43,65.55 28.33,65.56 27.11,65.57 25.88,65.57 24.61,65.58 23.34,65.59 22.04,65.60 20.75,65.60 19.58,65.43 18.42,65.25 16.86,65.18 15.31,65.10 14.20,64.91 13.09,64.72 11.18,64.18 9.28,63.64 7.87,63.03 6.45,62.42 5.54,61.85 4.62,61.29 3.39,60.22 2.17,59.15 1.22,57.74 0.28,56.33 0.06,54.87 -0.16,53.41 0.31,51.05 0.79,48.68 1.42,47.75 2.06,46.82 2.92,46.06 3.78,45.29 5.48,44.07 7.17,42.85 8.36,42.27 9.56,41.69 10.94,41.24 12.33,40.80 14.34,40.17 16.35,39.54 18.80,38.93 21.24,38.32 22.56,37.93 23.88,37.54 25.61,37.04 27.33,36.55 29.64,35.85 31.95,35.14 33.23,34.98 34.51,34.82 35.67,34.62 36.83,34.41 38.79,33.90 40.75,33.40 42.54,32.97 44.33,32.54 45.86,32.20 47.40,31.85 48.57,31.55 49.75,31.25 51.04,30.96 52.34,30.66 53.41,30.39 54.48,30.12 56.18,29.82 57.88,29.52 59.06,29.26 60.24,28.99 61.29,28.72 62.34,28.45 64.05,27.92 65.76,27.38 67.20,27.07 68.64,26.77 70.77,25.90 72.90,25.03 74.00,24.75 75.10,24.48 76.47,23.90 77.84,23.32 79.00,22.80 80.17,22.29 81.86,21.45 83.54,20.61 84.83,19.77 86.11,18.92 86.85,18.15 87.58,17.37 88.28,16.21 88.97,15.05 89.65,13.56 90.34,12.06 90.67,10.23 91.00,8.41 91.12,6.86 91.24,5.31 91.26,3.85 91.28,2.38 91.15,1.11 91.01,-0.14 90.41,-1.36 89.81,-2.58 89.22,-3.57 88.63,-4.56 87.54,-5.92 86.45,-7.29 85.76,-8.11 85.07,-8.93 83.79,-10.30 82.50,-11.67 81.37,-12.50 80.23,-13.33 78.92,-14.08 77.61,-14.83 76.59,-15.30 75.58,-15.78 73.76,-16.67 71.94,-17.56 70.10,-18.12 68.25,-18.69 66.41,-19.27 64.57,-19.86 63.11,-20.20 61.66,-20.55 60.60,-20.77 59.54,-20.99 58.28,-21.08 57.02,-21.18 55.38,-21.19 53.73,-21.21 51.83,-20.98 49.93,-20.76 47.98,-20.49 46.03,-20.22 44.76,-20.03 43.49,-19.84 42.44,-19.61 41.39,-19.39 40.19,-19.26 38.98,-19.14 37.18,-18.85 35.38,-18.56 34.29,-18.22 33.20,-17.88 31.83,-17.53 30.45,-17.18 28.66,-16.66 26.87,-16.14 25.47,-15.50 24.06,-14.86 22.87,-14.36 21.69,-13.85 19.99,-13.02 18.29,-12.18 17.17,-11.78 16.05,-11.39 14.52,-10.65 12.98,-9.92 11.45,-9.22 9.92,-8.52 8.84,-8.17 7.75,-7.82 6.59,-7.20 5.42,-6.58 4.03,-5.92 2.63,-5.26 1.54,-4.65 0.45,-4.04 -1.06,-3.29 -2.59,-2.54 -3.82,-1.86 -5.04,-1.17 -6.53,-1.04 -8.02,-0.91 -7.25,-1.16 -6.49,-1.40 -6.74,-1.35 -6.98,-1.30 -7.23,-1.31 -7.48,-1.32 -7.72,-1.39 -7.96,-1.46 -8.18,-1.58 -8.40,-1.70 -8.58,-1.88 -8.76,-2.05 -8.89,-2.26 -9.03,-2.47 -9.11,-2.71 -9.19,-2.94 -9.21,-3.19 -9.23,-3.44 -9.19,-3.69 -9.15,-3.94 -9.06,-4.17 -8.96,-4.40 -8.81,-4.60 -8.66,-4.80 -8.47,-4.96 -8.28,-5.12 -8.05,-5.23 -7.82,-5.34 -5.93,-5.21 -4.03,-5.09 -3.82,-5.09 -3.60,-5.08 -3.40,-5.01 -3.21,-4.93 -3.04,-4.80 -2.88,-4.66 -2.76,-4.48 -2.65,-4.30 -2.60,-4.09 -2.55,-3.89 -2.57,-3.68 -2.59,-3.47 -2.68,-3.27 -2.76,-3.08 -2.90,-2.92 -3.05,-2.76 -3.23,-2.66 -3.42,-2.56 -3.63,-2.52 -3.84,-2.48 -4.05,-2.51 -4.26,-2.54 -4.45,-2.64 -4.64,-2.73 -4.79,-2.88 -4.93,-3.03 -5.03,-3.23 -5.12,-3.42 -5.15,-3.63 -5.17,-3.84 -5.13,-4.05 -5.09,-4.26 -4.98,-4.44 -4.88,-4.62 -4.72,-4.76 -4.56,-4.90 -4.36,-4.99 -4.17,-5.07 -3.96,-5.08 -3.74,-5.10 -3.54,-5.05 -3.33,-4.99 -3.15,-4.88 -2.98,-4.76 -2.84,-4.60 -2.71,-4.43 -2.64,-4.23 -2.57,-4.03 -2.57,-3.82 -2.56,-3.60 -2.63,-3.40 -2.69,-3.20 -2.82,-3.03 -2.94,-2.86 -3.11,-2.73 -3.29,-2.61 -3.49,-2.55 -3.69,-2.49 -3.69,-2.49 -3.69,-2.49 -5.09,-1.95 -6.49,-1.40 -6.74,-1.35 -6.98,-1.30 -7.23,-1.31 -7.48,-1.32 -7.72,-1.39 -7.96,-1.46 -8.18,-1.58 -8.40,-1.70 -8.58,-1.88 -8.76,-2.05 -8.89,-2.26 -9.03,-2.47 -9.11,-2.71 -9.19,-2.94 -9.21,-3.19 -9.23,-3.44 -9.19,-3.69 -9.15,-3.94 -9.06,-4.17 -8.96,-4.40 -8.81,-4.60 -8.66,-4.80 -8.47,-4.96 -8.28,-5.12 -8.05,-5.23 -7.82,-5.33 -7.46,-5.79 -7.10,-6.25 -6.15,-6.90 -5.21,-7.54 -4.16,-8.11 -3.11,-8.67 -2.03,-9.28 -0.95,-9.88 0.28,-10.42 1.51,-10.96 2.73,-11.61 3.95,-12.26 5.59,-12.88 7.22,-13.49 8.49,-14.15 9.75,-14.82 11.18,-15.36 12.60,-15.91 14.27,-16.62 15.95,-17.33 17.71,-18.19 19.47,-19.05 21.60,-19.96 23.73,-20.88 25.43,-21.49 27.13,-22.09 28.77,-22.58 30.41,-23.07 31.54,-23.40 32.66,-23.73 34.40,-24.01 36.14,-24.29 38.18,-24.59 40.23,-24.89 41.46,-25.15 42.70,-25.41 44.98,-25.65 47.26,-25.90 49.28,-26.16 51.30,-26.43 52.53,-26.59 53.75,-26.76 54.82,-26.75 55.88,-26.74 57.39,-26.67 58.90,-26.61 60.64,-26.30 62.39,-25.99 64.27,-25.53 66.15,-25.08 67.91,-24.52 69.67,-23.96 70.96,-23.60 72.24,-23.25 73.34,-22.82 74.44,-22.39 76.17,-21.56 77.90,-20.72 79.96,-19.68 82.02,-18.63 83.46,-17.65 84.89,-16.68 86.35,-15.31 87.81,-13.95 89.15,-12.48 90.49,-11.01 91.26,-10.18 92.02,-9.35 92.70,-8.37 93.38,-7.39 93.96,-6.42 94.54,-5.45 95.46,-3.50 96.37,-1.55 96.60,-0.49 96.83,0.55 96.82,2.19 96.81,3.83 96.73,5.67 96.66,7.52 96.28,9.55 95.91,11.59 95.27,13.80 94.63,16.02 94.16,16.98 93.68,17.93 92.63,19.55 91.57,21.16 90.65,22.11 89.74,23.06 88.86,23.78 87.97,24.50 86.90,25.05 85.83,25.60 84.11,26.46 82.39,27.31 81.29,27.79 80.20,28.27 79.15,28.76 78.11,29.24 76.53,29.68 74.96,30.11 73.70,30.62 72.45,31.13 71.11,31.63 69.76,32.12 68.54,32.37 67.32,32.62 65.51,33.18 63.69,33.75 62.56,34.04 61.43,34.32 60.12,34.61 58.81,34.90 57.32,35.16 55.83,35.42 54.69,35.71 53.55,36.00 52.32,36.28 51.08,36.56 49.84,36.87 48.60,37.18 47.10,37.52 45.60,37.85 43.80,38.29 41.99,38.72 40.91,38.97 39.83,39.21 38.80,39.49 37.77,39.77 35.49,40.10 33.20,40.44 32.06,40.69 30.92,40.94 29.88,41.35 28.83,41.76 27.13,42.25 25.42,42.74 23.99,43.16 22.55,43.59 20.27,44.16 17.99,44.72 15.97,45.37 13.95,46.01 12.93,46.31 11.91,46.62 10.42,47.40 8.92,48.18 8.09,48.88 7.27,49.59 6.29,50.50 5.31,51.41 5.34,52.64 5.37,53.88 6.03,54.85 6.68,55.83 7.70,56.41 8.72,57.00 9.90,57.59 11.08,58.18 12.62,58.62 14.17,59.06 15.68,59.24 17.19,59.42 18.98,59.65 20.76,59.88 22.05,59.88 23.34,59.89 24.61,59.90 25.88,59.90 27.11,59.91 28.33,59.92 29.43,59.93 30.54,59.93 32.61,59.93 34.67,59.94 36.61,59.95 38.54,59.96 40.36,59.98 42.17,59.99 44.35,60.02 46.54,60.05 48.60,60.21 50.66,60.38 51.95,60.59 53.24,60.81 54.41,61.01 55.57,61.20 57.24,61.92 58.91,62.63 60.17,63.91 61.43,65.19 61.70,66.54 61.97,67.89 61.89,69.05 61.82,70.22 61.43,71.60 61.04,72.98 60.36,74.53 59.68,76.08 58.82,77.78 57.96,79.47 57.33,80.33 56.70,81.19 55.96,82.31 55.21,83.42 54.47,84.30 53.72,85.18 52.84,86.10 51.95,87.02 51.00,87.81 50.04,88.61 49.14,89.29 48.24,89.96 47.18,90.65 46.12,91.34 45.20,91.96 44.27,92.57 42.56,93.40 40.85,94.22 39.73,94.97 38.61,95.72 37.20,96.33 35.78,96.93 34.10,97.60 32.42,98.26 31.17,98.90 29.92,99.55 28.53,100.04 27.14,100.53 26.01,101.12 24.87,101.71 23.55,102.30 22.22,102.89 20.75,103.41 19.27,103.93 17.85,104.44 16.43,104.94 15.25,105.27 14.06,105.59 12.65,106.10 11.24,106.61 9.96,106.96 8.67,107.31 6.94,107.76 5.22,108.21 3.97,108.48 2.72,108.75 1.55,109.01 0.39,109.27 -0.70,109.55 -1.80,109.83 -2.94,110.07 -4.08,110.31 -5.85,110.62 -7.61,110.92 -8.82,111.16 -10.02,111.41 -11.44,111.58 -12.86,111.75 -14.41,111.74 -15.95,111.73 -17.83,111.71 -19.70,111.70 -21.02,111.65 -22.33,111.61 -23.59,111.51 -24.84,111.40 -26.15,111.20 -27.46,110.99 -28.68,110.82 -29.91,110.65 -31.91,110.04 -33.92,109.43 -34.98,109.07 -36.03,108.71 -37.18,108.22 -38.32,107.72 -39.78,106.73 -41.25,105.75 -42.71,104.79 -44.18,103.83 -45.59,102.88 -47.01,101.92 -48.38,101.06 -49.75,100.19 -51.42,99.02 -53.10,97.85 -54.27,97.03 -55.43,96.21 -56.87,94.95 -58.31,93.68 -59.22,92.83 -60.12,91.97 -61.11,90.59 -62.11,89.21 -63.35,87.62 -64.58,86.03 -65.38,84.92 -66.18,83.80 -66.82,82.92 -67.45,82.04 -68.32,80.62 -69.19,79.19 -69.92,78.05 -70.66,76.92 -72.16,74.56 -73.67,72.21 -74.24,71.02 -74.81,69.84 -75.32,68.82 -75.83,67.81 -76.64,66.01 -77.44,64.22 -77.80,62.80 -78.16,61.37 -78.56,59.32 -78.96,57.28 -78.94,55.81 -78.91,54.34 -78.87,52.78 -78.82,51.22 -78.69,49.36 -78.55,47.50 -78.31,46.25 -78.07,45.01 -77.87,43.47 -77.66,41.92 -77.30,40.73 -76.94,39.55 -76.51,38.13 -76.07,36.72 -75.52,35.42 -74.98,34.13 -74.33,32.97 -73.68,31.82 -72.96,30.45 -72.24,29.07 -71.51,27.88 -70.79,26.68 -69.40,24.47 -68.01,22.25 -66.36,20.20 -64.71,18.16 -63.60,17.01 -62.49,15.85 -61.54,14.93 -60.60,14.01 -59.52,13.19 -58.45,12.38 -57.33,11.67 -56.22,10.96 -54.80,10.21 -53.38,9.46 -52.03,8.69 -50.68,7.93 -48.62,6.97 -46.57,6.02 -44.95,5.32 -43.33,4.62 -42.16,4.09 -41.00,3.57 -39.84,2.98 -38.68,2.40 -37.47,1.86 -36.26,1.32 -35.01,0.71 -33.76,0.10 -31.47,-0.93 -29.17,-1.97 -27.73,-2.50 -26.28,-3.03 -24.77,-3.49 -23.25,-3.95 -22.03,-4.26 -20.81,-4.56 -19.37,-4.87 -17.92,-5.19 -16.09,-5.63 -14.26,-6.06 -12.46,-6.28 -10.66,-6.50 -8.67,-6.65 -6.68,-6.80 -5.37,-6.78 -4.06,-6.77 -2.74,-6.11 -1.43,-5.45 -1.26,-5.43 -1.10,-5.41 -0.95,-5.35 -0.80,-5.29 -0.67,-5.20 -0.53,-5.11 -0.43,-4.99 -0.32,-4.87 -0.24,-4.72 -0.17,-4.58 -0.13,-4.42 -0.09,-4.27 -0.09,-4.10 -0.09,-3.94 -0.13,-3.79 -0.17,-3.63 -0.24,-3.48 -0.32,-3.34 -0.43,-3.22 -0.53,-3.10 -0.67,-3.01 -0.80,-2.92 -0.95,-2.86 -1.10,-2.80 -1.26,-2.78 -1.43,-2.76 -1.43,-2.76 L -1.43,-2.76 Z"></path></g><g transform="translate(12.89229527293196 180.142872401646) rotate(0 86.33334350585943 -26.000015258789062)" stroke="none"><path fill="#000000" d="M -2.03,-0.18 Q -2.03,-0.18 -2.04,-2.31 -2.05,-4.43 -1.78,-7.07 -1.51,-9.71 -1.00,-12.63 -0.49,-15.56 0.50,-19.54 1.49,-23.51 2.50,-26.94 3.50,-30.36 4.50,-33.55 5.50,-36.73 6.52,-39.48 7.53,-42.22 8.53,-44.90 9.53,-47.57 10.36,-49.53 11.19,-51.48 12.17,-53.20 13.15,-54.92 13.94,-56.20 14.73,-57.47 15.73,-58.71 16.73,-59.94 18.13,-61.44 19.52,-62.93 20.62,-64.25 21.72,-65.56 23.09,-66.84 24.45,-68.11 25.63,-69.05 26.81,-69.99 28.17,-70.83 29.53,-71.67 30.62,-72.37 31.70,-73.06 33.14,-73.66 34.58,-74.25 35.72,-74.67 36.85,-75.08 38.40,-75.48 39.94,-75.88 41.27,-76.06 42.60,-76.24 44.16,-76.31 45.73,-76.38 47.34,-76.41 48.95,-76.44 50.78,-76.45 52.62,-76.47 55.14,-76.84 57.66,-77.22 60.05,-77.75 62.45,-78.29 64.49,-79.05 66.54,-79.82 68.41,-80.56 70.28,-81.29 72.17,-82.16 74.05,-83.03 75.99,-83.97 77.94,-84.92 80.10,-86.55 82.27,-88.19 84.45,-89.72 86.64,-91.25 88.72,-92.66 90.79,-94.08 93.46,-95.68 96.13,-97.28 98.43,-98.54 100.73,-99.80 102.95,-100.76 105.17,-101.72 107.05,-102.50 108.92,-103.28 110.91,-104.01 112.89,-104.74 114.78,-105.27 116.66,-105.79 118.86,-106.21 121.07,-106.64 122.69,-106.99 124.32,-107.35 126.14,-107.52 127.96,-107.70 129.90,-107.77 131.83,-107.83 133.39,-107.66 134.96,-107.48 136.40,-107.20 137.85,-106.93 139.25,-106.35 140.66,-105.78 142.09,-104.90 143.52,-104.03 145.42,-103.21 147.32,-102.39 148.99,-101.61 150.67,-100.83 152.29,-100.13 153.90,-99.44 155.28,-98.99 156.65,-98.53 158.30,-98.17 159.95,-97.81 161.19,-97.42 162.44,-97.02 164.13,-96.57 165.82,-96.12 166.77,-95.36 167.73,-94.61 168.47,-93.68 169.21,-92.75 170.18,-90.87 171.16,-88.98 171.78,-87.14 172.41,-85.30 172.87,-83.55 173.34,-81.80 173.72,-80.09 174.11,-78.39 174.47,-76.06 174.84,-73.73 175.02,-71.92 175.19,-70.11 175.27,-68.55 175.36,-66.99 175.40,-65.56 175.44,-64.12 175.25,-62.54 175.06,-60.96 174.55,-59.35 174.04,-57.73 173.63,-56.70 173.22,-55.67 171.65,-53.72 170.09,-51.78 168.48,-50.88 166.87,-49.98 165.56,-49.40 164.26,-48.81 161.60,-48.12 158.95,-47.43 156.61,-46.77 154.27,-46.12 152.04,-45.30 149.81,-44.47 147.06,-43.52 144.32,-42.58 142.34,-41.66 140.36,-40.74 137.80,-39.40 135.25,-38.06 133.49,-37.26 131.73,-36.45 129.44,-35.04 127.15,-33.64 124.75,-32.23 122.35,-30.82 119.91,-29.60 117.47,-28.38 115.22,-27.45 112.97,-26.52 110.36,-25.39 107.76,-24.25 105.43,-23.36 103.09,-22.47 101.43,-21.73 99.76,-21.00 97.90,-20.43 96.05,-19.85 94.95,-19.32 93.85,-18.78 92.14,-18.26 90.43,-17.73 89.06,-17.19 87.70,-16.65 87.40,-17.73 87.11,-18.81 89.11,-17.82 91.11,-16.82 92.48,-16.04 93.85,-15.26 95.09,-14.77 96.33,-14.29 97.47,-13.86 98.61,-13.43 99.79,-13.09 100.96,-12.74 102.03,-12.62 103.09,-12.50 105.40,-12.18 107.70,-11.86 109.67,-11.75 111.65,-11.65 113.28,-11.62 114.90,-11.59 116.56,-11.58 118.21,-11.56 119.50,-11.73 120.78,-11.90 122.09,-12.15 123.39,-12.40 125.16,-12.70 126.93,-12.99 128.39,-13.29 129.85,-13.59 130.99,-13.89 132.14,-14.20 133.26,-14.65 134.39,-15.11 135.56,-15.51 136.74,-15.91 138.16,-16.45 139.57,-16.98 140.79,-17.41 142.01,-17.84 143.56,-18.40 145.12,-18.95 146.52,-19.45 147.92,-19.96 149.53,-20.62 151.13,-21.28 152.89,-21.69 154.64,-22.11 156.66,-21.69 158.67,-21.27 159.19,-20.25 159.71,-19.24 159.82,-17.79 159.92,-16.33 159.95,-14.99 159.97,-13.65 159.98,-12.04 159.98,-10.43 159.99,-9.24 159.99,-8.05 160.00,-6.63 160.00,-5.22 160.01,-4.06 160.01,-2.90 159.46,-0.91 158.91,1.06 158.19,2.20 157.47,3.33 156.33,4.21 155.20,5.09 153.08,6.11 150.97,7.14 149.85,7.45 148.72,7.76 146.60,8.21 144.47,8.67 143.17,8.89 141.86,9.12 140.57,9.41 139.27,9.70 138.20,10.00 137.13,10.30 135.85,10.64 134.58,10.97 133.27,11.31 131.96,11.64 130.33,12.15 128.70,12.65 127.17,13.08 125.64,13.51 124.14,14.04 122.64,14.57 121.39,15.01 120.13,15.45 118.25,16.52 116.37,17.58 115.20,18.11 114.03,18.65 112.75,19.36 111.46,20.08 110.47,20.61 109.47,21.14 108.00,22.07 106.54,23.01 105.04,23.85 103.54,24.70 102.41,25.40 101.28,26.10 100.08,26.94 98.89,27.78 97.02,29.11 95.16,30.44 93.62,31.59 92.09,32.73 91.04,33.84 89.99,34.95 88.97,36.17 87.96,37.39 86.60,39.23 85.25,41.06 84.13,42.76 83.02,44.46 82.31,46.31 81.60,48.16 81.04,49.47 80.47,50.77 77.22,52.67 73.96,54.56 73.75,54.56 73.54,54.56 73.33,54.49 73.13,54.42 72.97,54.29 72.80,54.15 72.68,53.98 72.56,53.80 72.51,53.60 72.45,53.39 72.47,53.18 72.48,52.97 72.56,52.77 72.64,52.57 72.78,52.41 72.92,52.25 73.11,52.14 73.29,52.04 73.50,51.99 73.70,51.95 73.92,51.98 74.13,52.00 74.32,52.09 74.51,52.18 74.66,52.33 74.82,52.48 74.91,52.67 75.01,52.86 75.04,53.07 75.07,53.28 75.04,53.49 75.00,53.69 74.90,53.88 74.80,54.07 74.64,54.21 74.49,54.36 74.29,54.44 74.10,54.53 73.89,54.55 73.68,54.57 73.47,54.52 73.26,54.48 73.08,54.37 72.90,54.25 72.76,54.09 72.63,53.93 72.55,53.73 72.48,53.53 72.47,53.32 72.46,53.11 72.52,52.90 72.58,52.70 72.70,52.52 72.82,52.35 72.99,52.22 73.16,52.10 73.36,52.03 73.56,51.96 73.56,51.96 73.56,51.96 74.05,50.04 74.53,48.12 75.10,46.89 75.68,45.65 76.74,43.32 77.80,40.99 79.05,39.16 80.30,37.33 81.79,35.38 83.29,33.43 84.48,32.05 85.67,30.67 87.10,29.28 88.54,27.88 90.13,26.74 91.73,25.60 93.63,24.27 95.52,22.94 96.87,22.01 98.21,21.09 99.44,20.34 100.68,19.59 102.05,18.82 103.41,18.06 105.07,17.02 106.73,15.99 107.69,15.48 108.64,14.97 111.01,13.77 113.38,12.57 114.51,11.89 115.63,11.22 116.93,10.58 118.23,9.93 119.47,9.51 120.72,9.10 122.40,8.51 124.09,7.93 125.54,7.52 126.99,7.12 128.77,6.58 130.54,6.04 131.83,5.71 133.12,5.39 134.36,5.07 135.60,4.75 136.82,4.42 138.05,4.09 139.45,3.78 140.86,3.48 143.07,3.15 145.27,2.82 146.99,2.37 148.72,1.91 150.79,1.09 152.86,0.27 153.78,-0.76 154.69,-1.80 154.67,-2.96 154.65,-4.13 154.66,-5.50 154.66,-6.87 154.67,-7.95 154.67,-9.03 154.67,-10.48 154.67,-11.92 154.67,-13.42 154.68,-14.92 155.36,-16.03 156.04,-17.14 154.49,-16.77 152.95,-16.41 151.43,-15.77 149.91,-15.14 148.22,-14.52 146.53,-13.90 145.17,-13.39 143.81,-12.88 142.66,-12.45 141.51,-12.02 140.06,-11.44 138.61,-10.85 137.54,-10.43 136.47,-10.00 135.03,-9.41 133.59,-8.82 132.31,-8.47 131.02,-8.11 129.47,-7.77 127.91,-7.42 126.20,-7.10 124.48,-6.79 123.00,-6.49 121.52,-6.19 119.85,-5.99 118.19,-5.79 116.52,-5.78 114.84,-5.78 113.15,-5.78 111.45,-5.79 110.17,-5.83 108.88,-5.88 106.85,-6.19 104.81,-6.49 103.59,-6.56 102.37,-6.63 100.82,-6.83 99.28,-7.03 97.91,-7.44 96.55,-7.85 95.32,-8.30 94.09,-8.75 92.47,-9.42 90.85,-10.09 88.35,-11.78 85.85,-13.46 84.74,-14.08 83.64,-14.70 82.78,-16.29 81.91,-17.88 83.15,-19.77 84.38,-21.65 85.50,-22.16 86.63,-22.67 87.66,-23.12 88.69,-23.58 89.99,-23.95 91.30,-24.31 92.79,-24.98 94.29,-25.65 95.82,-26.10 97.36,-26.54 99.15,-27.32 100.94,-28.09 103.16,-28.93 105.37,-29.78 108.04,-30.92 110.71,-32.07 112.76,-32.90 114.81,-33.73 117.08,-34.84 119.34,-35.96 121.70,-37.34 124.07,-38.73 126.66,-40.28 129.26,-41.83 130.88,-42.57 132.50,-43.32 135.19,-44.72 137.89,-46.12 140.14,-47.15 142.39,-48.18 145.10,-49.10 147.80,-50.03 150.27,-50.90 152.74,-51.77 155.14,-52.40 157.54,-53.03 159.74,-53.56 161.93,-54.08 163.02,-54.56 164.10,-55.03 165.73,-55.76 167.36,-56.49 168.00,-58.03 168.65,-59.57 169.05,-60.65 169.46,-61.72 169.63,-62.87 169.81,-64.02 169.79,-65.39 169.78,-66.76 169.74,-68.20 169.70,-69.63 169.57,-71.26 169.45,-72.89 169.12,-75.04 168.79,-77.20 168.43,-78.83 168.07,-80.46 167.69,-82.05 167.30,-83.63 166.84,-85.13 166.38,-86.62 165.16,-88.96 163.95,-91.29 162.40,-91.67 160.86,-92.04 159.82,-92.37 158.79,-92.70 156.89,-93.14 154.99,-93.59 153.42,-94.12 151.85,-94.65 150.16,-95.38 148.46,-96.10 146.84,-96.86 145.23,-97.62 143.00,-98.62 140.76,-99.62 138.80,-100.73 136.83,-101.84 135.58,-102.08 134.33,-102.33 133.17,-102.48 132.00,-102.63 130.22,-102.57 128.44,-102.50 126.94,-102.37 125.43,-102.24 123.74,-101.87 122.05,-101.50 120.05,-101.12 118.06,-100.74 116.38,-100.28 114.70,-99.82 112.81,-99.13 110.92,-98.44 109.09,-97.68 107.25,-96.91 105.25,-96.06 103.25,-95.20 101.04,-93.99 98.83,-92.77 96.29,-91.26 93.75,-89.74 91.69,-88.35 89.64,-86.95 87.50,-85.46 85.37,-83.97 82.78,-82.12 80.19,-80.26 78.18,-79.30 76.16,-78.35 74.13,-77.45 72.10,-76.55 70.18,-75.83 68.26,-75.11 65.90,-74.26 63.53,-73.42 60.95,-72.85 58.37,-72.29 55.51,-71.89 52.66,-71.49 50.85,-71.48 49.04,-71.47 47.49,-71.44 45.95,-71.41 43.56,-71.23 41.17,-71.04 39.86,-70.72 38.55,-70.39 37.49,-70.01 36.43,-69.62 35.40,-69.23 34.37,-68.85 33.25,-68.13 32.13,-67.42 31.02,-66.75 29.90,-66.08 28.87,-65.26 27.83,-64.45 26.69,-63.41 25.55,-62.37 24.35,-60.94 23.16,-59.51 21.88,-58.15 20.59,-56.78 19.78,-55.81 18.97,-54.84 18.21,-53.62 17.45,-52.41 16.60,-50.98 15.74,-49.55 14.96,-47.69 14.17,-45.84 13.17,-43.17 12.17,-40.50 11.19,-37.87 10.21,-35.25 9.22,-32.11 8.22,-28.98 7.25,-25.64 6.27,-22.31 5.31,-18.51 4.35,-14.70 3.86,-11.95 3.37,-9.20 3.10,-6.59 2.82,-3.99 2.43,-1.90 2.03,0.18 1.98,0.42 1.93,0.66 1.82,0.89 1.71,1.11 1.56,1.30 1.40,1.49 1.20,1.63 1.00,1.78 0.77,1.87 0.54,1.97 0.30,2.01 0.06,2.04 -0.18,2.02 -0.43,2.00 -0.66,1.92 -0.89,1.84 -1.10,1.70 -1.31,1.57 -1.48,1.39 -1.64,1.21 -1.77,0.99 -1.89,0.78 -1.95,0.54 -2.02,0.30 -2.03,0.06 -2.03,-0.18 -2.03,-0.18 L -2.03,-0.18 Z"></path></g><g transform="translate(143.5589822846507 90.142872401646) rotate(0 4.333312988281307 2.9999847412109375)" stroke="none"><path fill="#000000" d="M 0.70,1.40 Q 0.70,1.40 0.07,2.02 -0.54,2.63 0.92,3.53 2.39,4.44 4.05,4.47 5.71,4.51 6.98,4.16 8.24,3.82 8.71,2.83 9.19,1.83 7.67,1.79 6.16,1.74 5.08,1.77 4.00,1.79 2.79,1.83 1.59,1.88 0.62,1.45 -0.34,1.03 -0.50,1.01 -0.65,0.99 -0.80,0.93 -0.95,0.87 -1.08,0.78 -1.21,0.69 -1.31,0.58 -1.42,0.46 -1.49,0.32 -1.57,0.18 -1.60,0.02 -1.64,-0.12 -1.64,-0.28 -1.64,-0.44 -1.60,-0.59 -1.57,-0.75 -1.49,-0.89 -1.42,-1.03 -1.31,-1.14 -1.21,-1.26 -1.08,-1.35 -0.95,-1.44 -0.80,-1.50 -0.65,-1.55 -0.49,-1.57 -0.34,-1.59 0.21,-1.28 0.77,-0.97 0.85,-0.77 0.93,-0.58 0.95,-0.37 0.96,-0.15 0.91,0.04 0.85,0.25 0.73,0.42 0.62,0.60 0.45,0.73 0.28,0.86 0.08,0.93 -0.11,1.00 -0.32,1.01 -0.53,1.01 -0.74,0.95 -0.94,0.88 -1.11,0.75 -1.28,0.63 -1.40,0.45 -1.52,0.28 -1.58,0.08 -1.64,-0.12 -1.63,-0.33 -1.62,-0.54 -1.55,-0.74 -1.47,-0.94 -1.34,-1.10 -1.20,-1.27 -1.02,-1.38 -0.84,-1.49 -0.63,-1.54 -0.43,-1.59 -0.22,-1.57 -0.00,-1.55 0.18,-1.46 0.37,-1.38 0.53,-1.23 0.69,-1.09 0.79,-0.90 0.89,-0.71 0.93,-0.51 0.97,-0.30 0.93,-0.09 0.90,0.11 0.81,0.30 0.71,0.49 0.56,0.64 0.40,0.79 0.21,0.88 0.02,0.97 -0.18,1.00 -0.39,1.02 -0.60,0.98 -0.81,0.94 -0.99,0.83 -1.17,0.72 -0.76,0.87 -0.34,1.03 -0.50,1.01 -0.65,0.99 -0.80,0.93 -0.95,0.87 -1.08,0.78 -1.21,0.69 -1.31,0.58 -1.42,0.46 -1.49,0.32 -1.57,0.18 -1.60,0.02 -1.64,-0.12 -1.64,-0.28 -1.64,-0.44 -1.60,-0.59 -1.57,-0.75 -1.49,-0.89 -1.42,-1.03 -1.31,-1.14 -1.21,-1.26 -1.08,-1.35 -0.95,-1.44 -0.80,-1.50 -0.65,-1.55 -0.49,-1.57 -0.34,-1.59 1.26,-2.37 2.86,-3.15 3.92,-3.11 4.99,-3.07 6.34,-2.99 7.70,-2.91 9.12,-2.58 10.53,-2.24 11.73,-1.17 12.93,-0.11 13.16,1.60 13.39,3.32 13.13,4.39 12.86,5.46 12.02,6.15 11.19,6.85 9.96,7.54 8.73,8.24 7.16,8.50 5.59,8.76 4.09,8.68 2.58,8.61 1.27,8.23 -0.03,7.84 -1.31,7.20 -2.59,6.56 -3.65,5.04 -4.71,3.53 -4.57,2.45 -4.43,1.37 -3.48,0.13 -2.52,-1.09 -1.61,-1.25 -0.70,-1.40 -0.52,-1.47 -0.34,-1.53 -0.15,-1.55 0.03,-1.57 0.21,-1.54 0.40,-1.52 0.58,-1.45 0.75,-1.37 0.91,-1.26 1.06,-1.15 1.19,-1.01 1.31,-0.86 1.39,-0.69 1.48,-0.52 1.52,-0.34 1.56,-0.15 1.56,0.03 1.55,0.22 1.50,0.40 1.46,0.58 1.36,0.75 1.27,0.91 1.14,1.05 1.02,1.19 0.86,1.30 0.70,1.40 0.70,1.40 L 0.70,1.40 Z"></path></g><g transform="translate(120.89229527293196 156.142872401646) rotate(0 30.000000000000057 -9.666671752929688)" stroke="none"><path fill="#000000" d="M 1.22,-0.76 Q 1.22,-0.76 2.50,0.56 3.78,1.90 4.43,3.22 5.09,4.55 5.55,5.70 6.02,6.86 6.50,5.46 6.98,4.05 7.30,2.06 7.63,0.06 7.74,-1.27 7.85,-2.62 8.15,-3.96 8.45,-5.31 9.64,-6.76 10.82,-8.20 12.26,-7.88 13.71,-7.56 14.50,-6.53 15.30,-5.51 16.24,-4.52 17.18,-3.52 18.23,-2.98 19.27,-2.44 19.78,-3.42 20.28,-4.41 20.93,-5.89 21.57,-7.38 22.18,-8.92 22.79,-10.47 23.13,-11.90 23.46,-13.34 23.90,-14.35 24.33,-15.35 25.63,-16.35 26.93,-17.34 28.05,-17.01 29.16,-16.68 29.82,-15.84 30.47,-15.00 31.38,-13.72 32.29,-12.45 33.20,-10.94 34.12,-9.44 35.00,-8.16 35.87,-6.88 36.27,-8.15 36.67,-9.42 37.37,-11.23 38.06,-13.04 38.61,-14.19 39.16,-15.34 39.63,-16.85 40.11,-18.37 40.53,-19.66 40.95,-20.94 41.34,-22.05 41.73,-23.15 43.33,-24.27 44.94,-25.40 45.95,-24.56 46.97,-23.72 47.65,-22.21 48.33,-20.69 48.96,-19.35 49.58,-18.01 50.62,-16.82 51.66,-15.63 52.59,-15.00 53.52,-14.36 53.17,-15.64 52.81,-16.92 53.32,-17.90 53.82,-18.89 54.54,-20.77 55.27,-22.65 55.94,-24.62 56.62,-26.60 57.45,-27.56 58.27,-28.53 58.20,-28.73 58.12,-28.93 58.12,-29.14 58.11,-29.35 58.17,-29.56 58.23,-29.76 58.35,-29.93 58.47,-30.11 58.65,-30.23 58.82,-30.36 59.02,-30.42 59.22,-30.49 59.44,-30.48 59.65,-30.48 59.85,-30.41 60.05,-30.33 60.21,-30.20 60.38,-30.07 60.50,-29.89 60.61,-29.71 60.67,-29.51 60.72,-29.30 60.70,-29.09 60.69,-28.88 60.61,-28.68 60.52,-28.49 60.38,-28.33 60.24,-28.17 60.06,-28.06 59.87,-27.96 59.66,-27.91 59.46,-27.87 59.25,-27.90 59.03,-27.93 58.84,-28.02 58.65,-28.11 58.50,-28.26 58.35,-28.41 58.25,-28.60 58.16,-28.79 58.13,-29.00 58.10,-29.21 58.14,-29.42 58.17,-29.63 58.28,-29.81 58.38,-30.00 58.54,-30.14 58.70,-30.29 58.89,-30.37 59.08,-30.46 59.30,-30.48 59.51,-30.50 59.71,-30.45 59.92,-30.40 60.10,-30.28 60.28,-30.17 60.41,-30.00 60.55,-29.84 60.55,-29.84 60.55,-29.84 60.79,-27.47 61.03,-25.10 60.69,-24.09 60.34,-23.08 59.99,-22.06 59.64,-21.04 59.25,-20.00 58.87,-18.95 58.41,-17.86 57.96,-16.76 57.41,-15.71 56.87,-14.66 55.94,-13.25 55.01,-11.84 53.56,-11.26 52.11,-10.67 51.09,-11.03 50.07,-11.38 48.84,-12.53 47.62,-13.68 46.53,-14.86 45.44,-16.03 44.75,-17.53 44.06,-19.03 43.90,-20.29 43.75,-21.55 44.86,-21.47 45.97,-21.40 45.34,-19.97 44.71,-18.55 44.29,-17.02 43.87,-15.49 43.57,-14.44 43.28,-13.39 42.77,-12.33 42.26,-11.26 41.60,-9.54 40.94,-7.81 40.56,-6.81 40.18,-5.81 39.69,-4.78 39.20,-3.75 37.92,-2.73 36.63,-1.70 34.84,-2.41 33.04,-3.12 32.14,-4.24 31.25,-5.37 30.67,-6.28 30.10,-7.19 29.42,-8.35 28.74,-9.51 28.26,-10.79 27.79,-12.08 27.36,-10.39 26.92,-8.69 26.30,-7.14 25.68,-5.58 25.25,-4.48 24.82,-3.38 24.00,-2.02 23.18,-0.67 22.12,0.33 21.07,1.33 19.96,1.73 18.84,2.13 17.69,1.96 16.55,1.79 15.47,0.96 14.39,0.13 13.71,-0.77 13.03,-1.67 12.82,-3.21 12.61,-4.75 12.27,-2.90 11.93,-1.05 11.61,0.72 11.28,2.50 10.97,4.48 10.65,6.46 10.27,8.16 9.88,9.85 8.28,10.87 6.68,11.90 5.30,11.40 3.92,10.91 2.95,9.73 1.99,8.56 1.56,7.52 1.13,6.48 0.59,5.35 0.05,4.23 -0.58,2.49 -1.22,0.76 -1.30,0.60 -1.37,0.45 -1.40,0.27 -1.44,0.10 -1.43,-0.06 -1.42,-0.23 -1.37,-0.40 -1.32,-0.57 -1.23,-0.72 -1.15,-0.87 -1.03,-1.00 -0.90,-1.12 -0.76,-1.21 -0.61,-1.31 -0.44,-1.36 -0.28,-1.41 -0.10,-1.43 0.06,-1.44 0.23,-1.41 0.40,-1.38 0.56,-1.31 0.72,-1.24 0.86,-1.14 1.00,-1.03 1.11,-0.90 1.22,-0.76 1.22,-0.76 L 1.22,-0.76 Z"></path></g><g stroke-opacity="0.2" fill-opacity="0.2" transform="translate(85.55904331980696 113.47621590750538) rotate(0 -16.66668701171875 47.33332824707031)" stroke="none"><path fill="transparent" d="M 1.29,1.19 Q 1.29,1.19 -0.71,3.95 -2.71,6.71 -7.38,14.10 -12.06,21.50 -15.96,29.03 -19.85,36.57 -22.62,43.18 -25.39,49.79 -27.11,55.04 -28.83,60.28 -29.72,64.52 -30.61,68.75 -30.60,71.86 -30.60,74.97 -29.90,77.59 -29.20,80.21 -27.74,82.21 -26.29,84.21 -24.17,85.71 -22.05,87.22 -19.01,88.42 -15.96,89.62 -13.51,90.34 -11.06,91.07 -9.18,91.36 -7.29,91.64 -6.10,91.77 -4.90,91.90 -2.61,91.17 -0.31,90.44 -0.14,90.31 0.03,90.19 0.23,90.13 0.43,90.07 0.65,90.08 0.86,90.09 1.06,90.17 1.25,90.24 1.42,90.38 1.58,90.51 1.69,90.69 1.81,90.87 1.85,91.08 1.90,91.29 1.88,91.50 1.86,91.71 1.78,91.91 1.69,92.10 1.55,92.26 1.40,92.41 1.22,92.51 1.03,92.62 0.82,92.65 0.61,92.69 0.40,92.66 0.19,92.63 0.00,92.53 -0.18,92.43 -0.33,92.28 -0.47,92.13 -0.57,91.94 -0.66,91.75 -0.68,91.53 -0.71,91.32 -0.67,91.12 -0.62,90.91 -0.52,90.72 -0.41,90.54 -0.25,90.40 -0.09,90.26 0.10,90.18 0.29,90.10 0.51,90.08 0.72,90.07 0.92,90.12 1.13,90.18 1.31,90.30 1.48,90.41 1.61,90.58 1.74,90.75 1.82,90.95 1.89,91.15 1.89,91.36 1.89,91.57 1.83,91.78 1.76,91.98 1.63,92.15 1.51,92.32 1.51,92.32 1.51,92.32 -0.38,94.55 -2.29,96.78 -3.87,96.90 -5.46,97.02 -6.78,96.87 -8.09,96.73 -10.30,96.37 -12.52,96.01 -15.20,95.21 -17.89,94.42 -21.51,92.95 -25.13,91.47 -27.88,89.39 -30.62,87.31 -32.49,84.48 -34.37,81.65 -35.19,78.32 -36.00,74.99 -35.96,71.31 -35.91,67.63 -34.90,63.11 -33.90,58.60 -32.06,53.17 -30.22,47.75 -27.32,40.97 -24.43,34.20 -20.40,26.48 -16.37,18.76 -11.43,11.00 -6.48,3.25 -3.88,1.02 -1.29,-1.19 -1.13,-1.32 -0.96,-1.46 -0.77,-1.56 -0.58,-1.65 -0.38,-1.70 -0.17,-1.74 0.03,-1.74 0.24,-1.74 0.45,-1.68 0.65,-1.63 0.84,-1.52 1.02,-1.42 1.18,-1.28 1.33,-1.13 1.45,-0.96 1.57,-0.78 1.64,-0.58 1.71,-0.38 1.73,-0.17 1.75,0.03 1.72,0.24 1.69,0.45 1.61,0.65 1.53,0.84 1.41,1.02 1.29,1.19 1.29,1.19 L 1.29,1.19 Z"></path></g><g transform="translate(57.264623923574845 129.7926671303565) rotate(0 2.9988411255198457 3.8556379340897706)" stroke="none"><path fill="#000000" d="M 1.40,-0.62 Q 1.40,-0.62 2.52,0.64 3.64,1.91 4.21,2.89 4.77,3.87 5.72,4.82 6.67,5.77 5.47,6.14 4.27,6.52 3.42,5.85 2.57,5.18 1.68,4.00 0.78,2.83 -0.16,2.09 -1.11,1.34 -0.03,1.45 1.03,1.56 2.07,2.18 3.11,2.81 3.17,2.96 3.23,3.10 3.25,3.26 3.28,3.41 3.27,3.57 3.25,3.73 3.20,3.88 3.15,4.03 3.07,4.16 2.98,4.30 2.87,4.41 2.75,4.51 2.62,4.59 2.48,4.67 2.33,4.72 2.17,4.76 2.02,4.77 1.86,4.77 1.70,4.74 1.55,4.71 1.40,4.64 1.26,4.57 1.14,4.47 1.02,4.37 0.92,4.24 0.83,4.12 1.00,3.27 1.17,2.42 1.36,2.32 1.54,2.22 1.75,2.18 1.96,2.15 2.17,2.18 2.38,2.22 2.57,2.31 2.76,2.41 2.90,2.57 3.05,2.72 3.14,2.91 3.23,3.11 3.26,3.32 3.28,3.53 3.23,3.74 3.19,3.94 3.08,4.13 2.97,4.31 2.81,4.45 2.65,4.59 2.45,4.66 2.25,4.74 2.04,4.76 1.83,4.77 1.63,4.71 1.42,4.66 1.24,4.54 1.07,4.42 0.94,4.25 0.81,4.08 0.74,3.88 0.67,3.68 0.67,3.47 0.67,3.25 0.74,3.05 0.80,2.85 0.93,2.68 1.06,2.51 1.24,2.39 1.41,2.27 1.62,2.21 1.82,2.16 2.03,2.17 2.24,2.18 2.44,2.26 2.64,2.33 2.80,2.47 2.97,2.61 3.08,2.79 3.19,2.97 3.23,3.18 3.28,3.39 3.26,3.60 3.23,3.81 3.15,4.00 3.06,4.20 3.08,3.50 3.11,2.81 3.17,2.95 3.23,3.10 3.25,3.26 3.28,3.41 3.27,3.57 3.25,3.73 3.20,3.88 3.15,4.03 3.07,4.16 2.98,4.30 2.87,4.41 2.75,4.51 2.62,4.59 2.48,4.67 2.33,4.72 2.17,4.76 2.02,4.77 1.86,4.77 1.70,4.74 1.55,4.71 1.40,4.64 1.26,4.57 1.14,4.47 1.02,4.37 0.92,4.24 0.83,4.12 -0.64,3.38 -2.11,2.65 -2.32,1.34 -2.53,0.03 -1.59,-1.02 -0.65,-2.08 0.66,-2.11 1.99,-2.14 2.92,-1.43 3.85,-0.72 4.65,0.09 5.45,0.91 6.16,1.88 6.88,2.85 7.46,3.78 8.05,4.70 8.35,5.87 8.65,7.04 7.75,8.46 6.84,9.88 5.75,9.93 4.67,9.97 3.70,9.44 2.73,8.90 1.65,7.82 0.56,6.74 -0.22,5.36 -1.01,3.99 -1.20,2.30 -1.40,0.62 -1.45,0.44 -1.51,0.26 -1.52,0.08 -1.53,-0.09 -1.49,-0.28 -1.46,-0.46 -1.38,-0.63 -1.30,-0.79 -1.19,-0.94 -1.07,-1.09 -0.93,-1.20 -0.78,-1.31 -0.61,-1.39 -0.44,-1.46 -0.26,-1.49 -0.08,-1.53 0.09,-1.51 0.28,-1.50 0.46,-1.45 0.63,-1.39 0.79,-1.29 0.95,-1.20 1.08,-1.07 1.21,-0.94 1.30,-0.78 1.40,-0.62 1.40,-0.62 L 1.40,-0.62 Z"></path></g><g transform="translate(222.16043335075153 114.00000000000006) rotate(0 -9.999969482421875 24)" stroke="none"><path fill="#000000" d="M 1.65,0.51 Q 1.65,0.51 0.99,3.67 0.34,6.84 -0.27,8.42 -0.89,10.01 -3.06,14.24 -5.22,18.47 -6.12,20.36 -7.02,22.24 -9.81,26.30 -12.60,30.36 -13.95,32.23 -15.29,34.10 -17.69,36.71 -20.08,39.32 -21.85,41.16 -23.62,43.00 -25.15,44.54 -26.68,46.09 -27.97,47.20 -29.26,48.31 -29.59,48.76 -29.91,49.21 -30.16,49.38 -30.41,49.54 -30.69,49.64 -30.97,49.74 -31.26,49.78 -31.56,49.81 -31.85,49.77 -32.15,49.72 -32.42,49.61 -32.70,49.50 -32.94,49.33 -33.18,49.16 -33.37,48.93 -33.57,48.71 -33.70,48.44 -33.83,48.18 -33.90,47.89 -33.97,47.60 -33.96,47.30 -33.96,47.00 -33.88,46.72 -33.80,46.43 -33.66,46.17 -33.52,45.91 -33.32,45.69 -33.12,45.47 -29.28,44.91 -25.44,44.34 -23.51,44.25 -21.59,44.17 -17.86,43.55 -14.14,42.93 -12.07,42.67 -10.00,42.40 -6.26,41.36 -2.51,40.32 -0.61,39.86 1.27,39.39 3.49,38.64 5.71,37.89 6.93,37.54 8.15,37.19 10.04,36.71 11.94,36.23 12.13,36.15 12.32,36.06 12.53,36.04 12.75,36.02 12.95,36.07 13.16,36.11 13.34,36.22 13.52,36.34 13.66,36.50 13.79,36.66 13.87,36.86 13.95,37.06 13.96,37.27 13.97,37.48 13.91,37.69 13.85,37.89 13.73,38.07 13.61,38.24 13.44,38.37 13.26,38.49 13.06,38.56 12.86,38.63 12.65,38.62 12.44,38.62 12.24,38.55 12.03,38.48 11.87,38.35 11.70,38.22 11.58,38.04 11.46,37.87 11.41,37.66 11.35,37.46 11.37,37.24 11.38,37.03 11.46,36.84 11.54,36.64 11.68,36.48 11.82,36.32 12.01,36.21 12.19,36.10 12.40,36.06 12.60,36.02 12.82,36.04 13.03,36.07 13.22,36.16 13.41,36.25 13.56,36.40 13.72,36.54 13.81,36.73 13.91,36.92 13.94,37.13 13.97,37.34 13.94,37.55 13.90,37.76 13.80,37.95 13.70,38.13 13.54,38.28 13.39,38.42 13.39,38.42 13.39,38.42 11.54,40.43 9.69,42.43 8.55,42.74 7.41,43.04 4.98,43.82 2.55,44.61 0.72,45.05 -1.10,45.49 -5.21,46.59 -9.32,47.69 -11.31,47.94 -13.31,48.19 -17.33,48.80 -21.36,49.40 -23.23,49.48 -25.11,49.56 -27.51,49.39 -29.91,49.21 -30.16,49.38 -30.41,49.54 -30.69,49.64 -30.97,49.74 -31.26,49.78 -31.56,49.81 -31.85,49.77 -32.15,49.72 -32.42,49.61 -32.70,49.50 -32.94,49.33 -33.18,49.16 -33.37,48.93 -33.57,48.71 -33.70,48.44 -33.83,48.18 -33.90,47.89 -33.97,47.60 -33.96,47.30 -33.96,47.00 -33.88,46.72 -33.80,46.43 -33.66,46.17 -33.52,45.91 -33.32,45.69 -33.12,45.47 -32.79,45.04 -32.47,44.61 -31.33,43.64 -30.19,42.66 -28.71,41.12 -27.22,39.57 -25.51,37.75 -23.80,35.92 -21.61,33.51 -19.41,31.11 -18.09,29.29 -16.77,27.47 -14.17,23.76 -11.57,20.05 -10.62,18.08 -9.68,16.11 -7.50,12.17 -5.33,8.23 -4.75,6.82 -4.18,5.42 -2.91,2.45 -1.65,-0.51 -1.56,-0.70 -1.47,-0.89 -1.35,-1.05 -1.22,-1.22 -1.05,-1.35 -0.89,-1.48 -0.70,-1.56 -0.51,-1.65 -0.30,-1.68 -0.10,-1.72 0.10,-1.71 0.31,-1.70 0.51,-1.63 0.71,-1.57 0.88,-1.46 1.06,-1.36 1.21,-1.21 1.36,-1.06 1.46,-0.88 1.57,-0.70 1.63,-0.50 1.70,-0.31 1.71,-0.10 1.72,0.10 1.68,0.31 1.65,0.51 1.65,0.51 L 1.65,0.51 Z"></path></g><g transform="translate(224.82712036247028 113.3333129882813) rotate(0 68.33334350585938 -27.33331298828128)" stroke="none"><path fill="#000000" d="M -0.46,1.55 Q -0.46,1.55 -2.53,1.48 -4.60,1.40 -5.82,0.87 -7.05,0.33 -9.72,-2.87 -12.39,-6.07 -13.73,-7.95 -15.07,-9.83 -16.22,-16.31 -17.37,-22.78 -17.77,-25.73 -18.17,-28.69 -17.19,-35.48 -16.20,-42.27 -15.59,-45.44 -14.97,-48.61 -12.73,-54.74 -10.49,-60.87 -9.16,-64.03 -7.82,-67.19 -4.06,-72.75 -0.30,-78.32 1.65,-81.01 3.61,-83.70 7.70,-87.33 11.79,-90.96 13.89,-92.65 15.98,-94.35 22.73,-97.15 29.48,-99.95 32.66,-101.09 35.83,-102.22 42.76,-103.32 49.69,-104.41 52.95,-104.86 56.20,-105.32 63.88,-105.32 71.57,-105.33 75.34,-105.33 79.11,-105.33 87.31,-103.57 95.51,-101.81 99.31,-100.87 103.11,-99.93 109.45,-96.35 115.79,-92.76 118.96,-90.88 122.12,-89.00 126.87,-83.12 131.61,-77.24 133.88,-74.28 136.15,-71.32 138.95,-66.48 141.75,-61.64 142.94,-59.17 144.13,-56.70 145.82,-52.34 147.50,-47.97 148.21,-45.92 148.93,-43.87 150.25,-38.89 151.58,-33.92 152.31,-31.29 153.04,-28.67 153.79,-23.73 154.55,-18.80 154.84,-16.52 155.14,-14.25 153.92,-8.95 152.71,-3.65 151.97,-1.33 151.24,0.97 148.91,5.09 146.58,9.21 145.46,11.21 144.34,13.20 141.86,16.69 139.37,20.18 138.41,21.72 137.45,23.27 134.97,26.23 132.50,29.19 131.29,30.59 130.09,31.98 126.68,34.68 123.28,37.38 121.56,38.81 119.84,40.23 115.32,42.37 110.80,44.51 108.64,45.54 106.48,46.56 102.01,47.66 97.54,48.76 95.33,49.20 93.11,49.64 89.44,50.22 85.78,50.79 83.62,51.04 81.45,51.29 78.52,51.40 75.59,51.51 74.00,51.56 72.41,51.60 69.68,51.42 66.95,51.24 65.67,51.17 64.39,51.10 61.82,50.45 59.25,49.80 58.15,49.55 57.05,49.31 55.00,48.82 52.94,48.33 49.92,47.42 46.91,46.51 43.84,45.80 40.77,45.08 39.65,44.87 38.52,44.67 35.97,43.99 33.41,43.30 32.25,43.03 31.09,42.77 28.90,42.03 26.70,41.29 24.15,40.17 21.59,39.05 20.05,38.14 18.51,37.24 17.39,36.51 16.28,35.78 15.47,36.78 14.67,37.78 13.51,38.41 12.36,39.03 11.24,39.64 10.11,40.25 8.62,41.42 7.12,42.59 5.47,43.61 3.82,44.63 1.29,43.97 -1.23,43.30 -1.44,43.29 -1.65,43.27 -1.85,43.18 -2.04,43.10 -2.20,42.95 -2.36,42.81 -2.46,42.63 -2.56,42.44 -2.60,42.23 -2.64,42.02 -2.61,41.81 -2.58,41.60 -2.49,41.41 -2.39,41.22 -2.24,41.07 -2.09,40.92 -1.90,40.83 -1.71,40.74 -1.50,40.71 -1.29,40.68 -1.08,40.72 -0.87,40.76 -0.68,40.87 -0.50,40.98 -0.36,41.13 -0.22,41.29 -0.13,41.49 -0.05,41.69 -0.04,41.90 -0.02,42.11 -0.07,42.31 -0.12,42.52 -0.24,42.70 -0.36,42.88 -0.52,43.01 -0.69,43.14 -0.89,43.21 -1.09,43.29 -1.30,43.29 -1.51,43.30 -1.72,43.23 -1.92,43.17 -2.09,43.04 -2.26,42.92 -2.39,42.75 -2.51,42.57 -2.57,42.37 -2.63,42.16 -2.62,41.95 -2.62,41.74 -2.54,41.54 -2.47,41.34 -2.33,41.18 -2.20,41.01 -2.02,40.90 -1.84,40.79 -1.63,40.74 -1.43,40.69 -1.43,40.69 -1.43,40.69 0.71,39.02 2.85,37.35 3.86,36.86 4.88,36.37 5.76,35.69 6.64,35.01 8.03,34.34 9.41,33.66 10.58,33.08 11.74,32.51 12.62,31.74 13.49,30.98 14.60,30.54 15.71,30.11 16.90,30.12 18.10,30.13 19.38,30.82 20.66,31.51 21.79,32.22 22.93,32.93 24.67,33.86 26.42,34.79 27.55,35.11 28.69,35.42 30.59,36.08 32.50,36.73 33.78,37.03 35.06,37.32 37.34,37.97 39.62,38.62 40.85,38.84 42.08,39.07 44.51,39.60 46.94,40.14 47.99,40.46 49.04,40.77 50.59,41.39 52.15,42.01 53.26,42.23 54.37,42.45 56.37,42.95 58.36,43.44 59.58,43.71 60.80,43.99 62.78,44.55 64.75,45.11 66.05,45.18 67.35,45.26 69.80,45.42 72.25,45.59 73.81,45.55 75.38,45.51 78.07,45.42 80.77,45.32 82.81,45.09 84.85,44.86 88.39,44.30 91.93,43.74 94.03,43.33 96.13,42.91 100.02,41.99 103.91,41.07 106.07,40.05 108.24,39.02 112.10,37.25 115.95,35.48 117.71,34.01 119.48,32.54 122.45,30.23 125.42,27.93 126.60,26.57 127.77,25.21 130.00,22.58 132.22,19.96 133.30,18.27 134.37,16.59 136.69,13.39 139.01,10.19 140.16,8.17 141.30,6.15 143.41,2.63 145.51,-0.88 146.20,-3.00 146.88,-5.13 148.10,-9.38 149.32,-13.63 149.02,-15.79 148.73,-17.95 148.11,-22.55 147.48,-27.15 146.76,-29.82 146.04,-32.49 144.86,-37.27 143.68,-42.05 143.00,-44.02 142.32,-45.98 140.74,-50.16 139.16,-54.33 138.07,-56.62 136.98,-58.92 134.42,-63.48 131.85,-68.05 129.62,-70.98 127.38,-73.91 123.34,-79.19 119.29,-84.47 116.21,-86.30 113.12,-88.13 107.45,-91.46 101.79,-94.79 98.08,-95.70 94.38,-96.61 86.73,-98.31 79.08,-100.00 75.33,-100.00 71.57,-100.00 64.24,-100.01 56.92,-100.02 53.72,-99.59 50.52,-99.15 44.07,-98.15 37.62,-97.15 34.57,-96.06 31.52,-94.97 25.42,-92.54 19.33,-90.10 17.36,-88.50 15.38,-86.89 11.71,-83.67 8.03,-80.45 6.14,-77.84 4.25,-75.22 0.77,-70.11 -2.70,-65.00 -3.98,-61.97 -5.26,-58.95 -7.37,-53.24 -9.48,-47.52 -10.08,-44.48 -10.69,-41.43 -11.66,-35.40 -12.64,-29.38 -12.25,-26.51 -11.86,-23.65 -11.14,-18.25 -10.42,-12.85 -9.16,-11.15 -7.90,-9.44 -5.48,-6.57 -3.06,-3.70 -1.29,-2.63 0.46,-1.55 0.64,-1.47 0.82,-1.39 0.97,-1.27 1.13,-1.15 1.25,-1.00 1.37,-0.85 1.46,-0.67 1.54,-0.49 1.58,-0.30 1.61,-0.11 1.60,0.08 1.59,0.27 1.54,0.46 1.48,0.64 1.38,0.81 1.28,0.98 1.15,1.12 1.01,1.26 0.84,1.36 0.68,1.47 0.49,1.53 0.30,1.59 0.11,1.60 -0.08,1.61 -0.27,1.58 -0.46,1.55 -0.46,1.55 L -0.46,1.55 Z"></path></g><g transform="translate(246.16043335075153 66.8108349752057) rotate(0 6.148649442796568 23.364849118437974)" stroke="none"><path fill="#000000" d="M 1.53,-0.48 Q 1.53,-0.48 3.22,3.13 4.91,6.74 5.63,8.76 6.35,10.79 7.63,15.03 8.92,19.27 9.46,21.33 10.01,23.38 10.72,26.65 11.44,29.92 11.95,31.67 12.47,33.42 13.18,36.12 13.89,38.82 14.22,40.52 14.55,42.21 14.71,43.47 14.87,44.72 13.82,45.24 12.78,45.76 12.78,45.92 12.77,46.08 12.73,46.23 12.69,46.39 12.62,46.52 12.54,46.66 12.44,46.78 12.33,46.90 12.20,46.99 12.07,47.08 11.92,47.13 11.77,47.18 11.61,47.20 11.46,47.22 11.30,47.20 11.14,47.18 11.00,47.12 10.85,47.06 10.72,46.97 10.59,46.88 10.49,46.76 10.38,46.64 10.31,46.50 10.24,46.36 10.20,46.20 10.17,46.05 10.17,46.05 10.17,46.06 10.18,45.85 10.19,45.64 10.26,45.44 10.34,45.24 10.48,45.08 10.61,44.91 10.79,44.80 10.97,44.69 11.18,44.64 11.39,44.59 11.60,44.62 11.81,44.64 12.00,44.72 12.20,44.81 12.35,44.96 12.51,45.10 12.61,45.29 12.71,45.47 12.75,45.68 12.79,45.89 12.75,46.10 12.72,46.31 12.62,46.50 12.53,46.69 12.37,46.84 12.22,46.98 12.03,47.08 11.84,47.17 11.63,47.19 11.41,47.22 11.21,47.17 11.00,47.13 10.82,47.02 10.63,46.91 10.49,46.75 10.35,46.59 10.27,46.40 10.19,46.20 10.18,45.99 10.17,45.78 10.22,45.57 10.28,45.37 10.39,45.19 10.51,45.01 10.68,44.88 10.85,44.75 11.05,44.68 11.25,44.61 11.46,44.61 11.67,44.61 11.87,44.67 12.08,44.74 12.25,44.87 12.42,44.99 12.54,45.17 12.66,45.34 12.72,45.55 12.78,45.76 12.78,45.92 12.77,46.08 12.73,46.23 12.69,46.39 12.62,46.52 12.54,46.66 12.44,46.78 12.33,46.90 12.20,46.99 12.07,47.07 11.92,47.13 11.77,47.18 11.61,47.20 11.46,47.22 11.30,47.20 11.14,47.18 11.00,47.12 10.85,47.06 10.72,46.97 10.59,46.88 10.49,46.76 10.38,46.64 10.31,46.50 10.24,46.36 10.20,46.20 10.17,46.05 9.66,44.63 9.15,43.21 8.89,41.70 8.63,40.19 7.95,37.56 7.27,34.93 6.71,33.00 6.16,31.07 5.48,27.92 4.80,24.76 4.28,22.79 3.76,20.82 2.53,16.70 1.30,12.58 0.55,10.46 -0.19,8.34 -0.86,4.41 -1.53,0.48 -1.57,0.28 -1.60,0.09 -1.59,-0.09 -1.58,-0.28 -1.52,-0.47 -1.46,-0.65 -1.36,-0.82 -1.26,-0.99 -1.13,-1.12 -0.99,-1.26 -0.82,-1.36 -0.66,-1.46 -0.47,-1.52 -0.29,-1.58 -0.09,-1.59 0.09,-1.60 0.28,-1.57 0.47,-1.53 0.65,-1.45 0.83,-1.37 0.98,-1.25 1.13,-1.13 1.25,-0.98 1.37,-0.83 1.45,-0.65 1.53,-0.48 1.53,-0.48 L 1.53,-0.48 Z"></path></g><g transform="translate(259.1244192480634 89.7657803855202) rotate(0 11.067568997033845 -5.328823262360686)" stroke="none"><path fill="#000000" d="M -0.68,-1.64 Q -0.68,-1.64 1.91,-3.36 4.51,-5.08 6.32,-6.01 8.13,-6.94 11.30,-8.54 14.47,-10.14 16.13,-10.86 17.80,-11.57 19.64,-11.68 21.47,-11.79 21.67,-11.87 21.87,-11.94 22.08,-11.95 22.30,-11.96 22.50,-11.89 22.70,-11.83 22.88,-11.71 23.05,-11.59 23.18,-11.42 23.30,-11.25 23.37,-11.04 23.43,-10.84 23.43,-10.63 23.42,-10.42 23.35,-10.22 23.28,-10.02 23.15,-9.85 23.01,-9.68 22.84,-9.57 22.66,-9.45 22.45,-9.40 22.25,-9.34 22.04,-9.36 21.82,-9.38 21.63,-9.46 21.43,-9.54 21.27,-9.68 21.11,-9.82 21.01,-10.01 20.90,-10.19 20.86,-10.40 20.82,-10.61 20.84,-10.82 20.87,-11.03 20.96,-11.22 21.06,-11.41 21.21,-11.56 21.36,-11.71 21.55,-11.81 21.73,-11.91 21.95,-11.94 22.16,-11.97 22.36,-11.93 22.57,-11.89 22.76,-11.79 22.94,-11.68 23.09,-11.53 23.23,-11.37 23.32,-11.17 23.40,-10.98 23.42,-10.77 23.44,-10.56 23.39,-10.35 23.34,-10.14 23.23,-9.96 23.11,-9.78 22.95,-9.65 22.79,-9.51 22.79,-9.51 22.79,-9.51 21.47,-7.80 20.15,-6.09 18.64,-5.46 17.14,-4.82 13.98,-3.24 10.81,-1.66 8.80,-0.64 6.79,0.37 3.73,1.00 0.68,1.64 0.47,1.70 0.27,1.75 0.05,1.76 -0.15,1.77 -0.36,1.72 -0.57,1.68 -0.76,1.58 -0.96,1.49 -1.12,1.35 -1.29,1.22 -1.42,1.04 -1.54,0.87 -1.63,0.67 -1.71,0.48 -1.74,0.26 -1.77,0.05 -1.75,-0.15 -1.74,-0.36 -1.67,-0.57 -1.60,-0.77 -1.48,-0.95 -1.36,-1.13 -1.21,-1.28 -1.05,-1.43 -0.87,-1.53 -0.68,-1.64 -0.68,-1.64 L -0.68,-1.64 Z"></path></g><g transform="translate(279.7730252857874 60.25226306009665) rotate(0 5.7387644988621105 27.873883728740736)" stroke="none"><path fill="#000000" d="M 1.45,-0.35 Q 1.45,-0.35 4.06,7.25 6.66,14.85 8.47,22.89 10.27,30.93 11.26,36.03 12.25,41.12 12.68,44.05 13.11,46.97 13.29,48.46 13.47,49.94 12.72,51.94 11.96,53.94 11.96,54.10 11.96,54.26 11.92,54.41 11.88,54.57 11.81,54.71 11.73,54.85 11.63,54.97 11.52,55.09 11.39,55.18 11.26,55.27 11.12,55.32 10.97,55.38 10.81,55.40 10.65,55.42 10.50,55.40 10.34,55.38 10.19,55.32 10.04,55.27 9.91,55.18 9.78,55.09 9.68,54.97 9.57,54.85 9.50,54.71 9.42,54.57 9.39,54.42 9.35,54.26 9.62,54.72 9.89,55.17 9.74,55.02 9.59,54.87 9.49,54.68 9.40,54.49 9.37,54.28 9.34,54.07 9.38,53.86 9.42,53.66 9.52,53.47 9.63,53.28 9.78,53.14 9.94,53.00 10.14,52.91 10.33,52.83 10.54,52.81 10.75,52.79 10.96,52.84 11.17,52.89 11.35,53.01 11.53,53.12 11.66,53.29 11.79,53.45 11.87,53.65 11.94,53.85 11.95,54.06 11.95,54.27 11.89,54.48 11.83,54.68 11.71,54.85 11.59,55.03 11.41,55.15 11.24,55.28 11.04,55.34 10.84,55.40 10.62,55.40 10.41,55.39 10.21,55.32 10.01,55.25 9.84,55.12 9.68,54.98 9.56,54.81 9.45,54.63 9.40,54.42 9.34,54.22 9.36,54.00 9.38,53.79 9.46,53.60 9.54,53.40 9.68,53.24 9.83,53.08 10.01,52.98 10.19,52.87 10.40,52.83 10.61,52.79 10.82,52.82 11.03,52.85 11.49,53.40 11.96,53.94 11.96,54.10 11.96,54.26 11.92,54.41 11.88,54.57 11.81,54.71 11.73,54.85 11.63,54.97 11.52,55.09 11.39,55.18 11.26,55.27 11.12,55.32 10.97,55.38 10.81,55.40 10.65,55.42 10.50,55.40 10.34,55.38 10.19,55.32 10.04,55.27 9.91,55.18 9.78,55.09 9.68,54.97 9.57,54.85 9.50,54.71 9.42,54.57 9.39,54.42 9.35,54.26 8.33,52.48 7.31,50.70 7.14,49.28 6.97,47.87 6.56,45.08 6.16,42.29 5.20,37.27 4.24,32.25 2.55,24.25 0.87,16.25 -0.28,8.30 -1.45,0.35 -1.47,0.17 -1.49,-0.00 -1.47,-0.18 -1.45,-0.36 -1.38,-0.53 -1.32,-0.70 -1.22,-0.84 -1.11,-0.99 -0.98,-1.11 -0.84,-1.23 -0.68,-1.31 -0.52,-1.40 -0.35,-1.44 -0.17,-1.48 0.00,-1.48 0.18,-1.48 0.36,-1.44 0.53,-1.39 0.69,-1.31 0.85,-1.22 0.99,-1.10 1.12,-0.98 1.22,-0.83 1.32,-0.69 1.39,-0.52 1.45,-0.35 1.45,-0.35 L 1.45,-0.35 Z"></path></g><g transform="translate(304.7190052658606 78.95494541031456) rotate(0 2.049537304806222 11.477491469346234)" stroke="none"><path fill="#000000" d="M 1.76,-0.35 Q 1.76,-0.35 3.21,3.03 4.66,6.42 4.97,8.20 5.28,9.98 5.71,11.86 6.13,13.73 6.30,14.85 6.48,15.97 6.95,18.11 7.42,20.24 7.48,20.88 7.54,21.53 7.55,21.96 7.55,22.39 7.46,22.80 7.36,23.22 7.16,23.60 6.97,23.99 6.69,24.31 6.41,24.64 6.06,24.88 5.70,25.13 5.31,25.29 4.91,25.44 4.48,25.50 4.05,25.56 3.63,25.51 3.20,25.46 2.80,25.32 2.40,25.17 2.04,24.93 1.68,24.69 1.39,24.37 1.11,24.05 0.90,23.68 0.70,23.30 0.59,22.88 0.48,22.47 1.23,20.37 1.98,18.27 1.98,18.06 1.97,17.85 2.04,17.64 2.10,17.44 2.23,17.27 2.35,17.10 2.52,16.97 2.70,16.85 2.90,16.79 3.10,16.73 3.32,16.74 3.53,16.74 3.73,16.82 3.93,16.89 4.09,17.03 4.26,17.16 4.37,17.34 4.48,17.52 4.53,17.73 4.58,17.93 4.57,18.14 4.55,18.35 4.46,18.55 4.38,18.74 4.23,18.90 4.09,19.06 3.91,19.16 3.72,19.27 3.51,19.31 3.30,19.34 3.09,19.31 2.88,19.28 2.69,19.19 2.50,19.09 2.35,18.94 2.20,18.79 2.11,18.60 2.02,18.41 1.99,18.20 1.96,17.99 2.00,17.78 2.04,17.57 2.15,17.39 2.26,17.20 2.41,17.06 2.57,16.92 2.77,16.84 2.96,16.75 3.18,16.74 3.39,16.72 3.59,16.78 3.80,16.83 3.98,16.94 4.16,17.06 4.29,17.22 4.42,17.39 4.49,17.59 4.57,17.79 4.57,17.79 4.57,17.79 6.05,19.66 7.54,21.53 7.55,21.96 7.55,22.39 7.46,22.80 7.36,23.22 7.16,23.60 6.97,23.99 6.69,24.31 6.41,24.64 6.06,24.88 5.71,25.13 5.31,25.29 4.91,25.44 4.48,25.50 4.05,25.56 3.63,25.51 3.20,25.46 2.80,25.32 2.40,25.17 2.04,24.93 1.68,24.69 1.39,24.37 1.11,24.05 0.90,23.68 0.70,23.30 0.59,22.88 0.48,22.47 0.38,21.06 0.28,19.66 -0.18,17.34 -0.65,15.02 -0.95,13.06 -1.25,11.11 -1.54,9.41 -1.83,7.72 -1.79,4.03 -1.76,0.35 -1.77,0.13 -1.79,-0.07 -1.75,-0.29 -1.72,-0.50 -1.63,-0.70 -1.55,-0.90 -1.42,-1.07 -1.29,-1.25 -1.12,-1.38 -0.95,-1.52 -0.75,-1.61 -0.56,-1.70 -0.34,-1.74 -0.13,-1.79 0.07,-1.78 0.29,-1.77 0.50,-1.71 0.71,-1.65 0.89,-1.54 1.08,-1.43 1.24,-1.28 1.39,-1.13 1.51,-0.94 1.62,-0.76 1.69,-0.55 1.76,-0.35 1.76,-0.35 L 1.76,-0.35 Z"></path></g><g transform="translate(332.16043335075153 82.6666870117188) rotate(0 -3.33331298828125 -17)" stroke="none"><path fill="#000000" d="M -1.47,0.73 Q -1.47,0.73 -2.75,-0.54 -4.02,-1.82 -4.83,-4.19 -5.63,-6.56 -5.96,-7.75 -6.28,-8.94 -6.81,-11.18 -7.34,-13.43 -7.57,-14.61 -7.80,-15.79 -8.10,-17.66 -8.40,-19.53 -8.72,-21.66 -9.03,-23.78 -9.17,-24.91 -9.31,-26.04 -9.37,-27.37 -9.44,-28.71 -9.44,-30.07 -9.45,-31.42 -9.15,-32.49 -8.85,-33.56 -8.01,-34.48 -7.17,-35.41 -5.51,-35.65 -3.84,-35.90 -2.50,-35.03 -1.16,-34.15 -0.33,-32.02 0.50,-29.88 0.87,-27.56 1.24,-25.24 1.31,-23.72 1.37,-22.20 1.42,-19.88 1.46,-17.55 1.48,-15.76 1.50,-13.97 1.50,-11.85 1.51,-9.73 1.51,-8.17 1.51,-6.61 1.51,-4.85 1.52,-3.10 1.31,-1.96 1.09,-0.82 0.85,-0.99 0.61,-1.16 0.78,-1.03 0.95,-0.90 1.07,-0.72 1.19,-0.55 1.24,-0.34 1.30,-0.14 1.29,0.06 1.28,0.27 1.20,0.47 1.12,0.67 0.98,0.83 0.85,0.99 0.67,1.10 0.48,1.21 0.28,1.26 0.07,1.31 -0.13,1.28 -0.34,1.26 -0.54,1.17 -0.73,1.08 -0.88,0.94 -1.04,0.79 -1.14,0.60 -1.24,0.42 -1.27,0.21 -1.31,0.00 -1.27,-0.20 -1.24,-0.41 -1.14,-0.60 -1.04,-0.79 -0.89,-0.93 -0.73,-1.08 -0.54,-1.17 -0.35,-1.26 -0.14,-1.28 0.06,-1.31 0.27,-1.26 0.48,-1.22 0.66,-1.11 0.84,-1.00 0.98,-0.84 1.12,-0.67 1.20,-0.48 1.28,-0.28 1.29,-0.07 1.30,0.13 1.24,0.34 1.19,0.54 1.07,0.72 0.95,0.90 0.78,1.02 0.61,1.15 0.41,1.22 0.21,1.29 0.00,1.29 -0.20,1.29 -0.41,1.22 -0.61,1.16 -0.61,1.16 -0.61,1.16 -2.40,-0.97 -4.19,-3.10 -4.18,-4.85 -4.17,-6.61 -4.18,-8.17 -4.18,-9.72 -4.17,-11.84 -4.17,-13.96 -4.16,-15.74 -4.15,-17.52 -4.15,-19.79 -4.15,-22.06 -4.17,-23.43 -4.18,-24.80 -4.42,-26.54 -4.66,-28.28 -4.23,-29.85 -3.80,-31.42 -3.76,-30.20 -3.72,-28.97 -3.54,-26.80 -3.37,-24.62 -3.06,-22.52 -2.75,-20.41 -2.48,-18.64 -2.21,-16.87 -2.01,-15.79 -1.80,-14.72 -1.31,-12.56 -0.81,-10.41 -0.54,-9.36 -0.26,-8.30 0.34,-6.30 0.95,-4.30 1.21,-2.52 1.47,-0.73 1.54,-0.55 1.61,-0.36 1.63,-0.16 1.65,0.03 1.62,0.22 1.59,0.42 1.52,0.61 1.44,0.79 1.33,0.95 1.21,1.12 1.06,1.25 0.91,1.37 0.73,1.46 0.55,1.55 0.36,1.60 0.16,1.64 -0.03,1.64 -0.23,1.63 -0.42,1.58 -0.61,1.53 -0.79,1.43 -0.96,1.34 -1.11,1.20 -1.25,1.07 -1.36,0.90 -1.47,0.73 -1.47,0.73 L -1.47,0.73 Z"></path></g><g transform="translate(335.49380737418903 95.33334350585943) rotate(0 -0.66668701171875 2)" stroke="none"><path fill="#000000" d="M 0.82,1.02 Q 0.82,1.02 0.28,2.26 -0.24,3.51 -0.43,2.45 -0.62,1.40 -0.99,2.75 -1.36,4.10 -2.73,4.03 -4.09,3.95 -2.62,1.65 -1.14,-0.64 -1.01,-0.80 -0.88,-0.97 -0.70,-1.08 -0.52,-1.20 -0.31,-1.25 -0.11,-1.30 0.09,-1.29 0.31,-1.27 0.50,-1.19 0.70,-1.10 0.86,-0.96 1.02,-0.82 1.12,-0.64 1.23,-0.45 1.27,-0.24 1.31,-0.04 1.28,0.16 1.25,0.38 1.16,0.57 1.06,0.76 0.92,0.91 0.77,1.06 0.58,1.15 0.39,1.25 0.18,1.28 -0.03,1.31 -0.23,1.27 -0.44,1.23 -0.63,1.13 -0.81,1.02 -0.96,0.86 -1.10,0.71 -1.18,0.51 -1.27,0.32 -1.29,0.11 -1.30,-0.10 -1.25,-0.30 -1.20,-0.51 -1.09,-0.69 -0.98,-0.87 -0.81,-1.00 -0.65,-1.14 -0.45,-1.21 -0.25,-1.28 -0.04,-1.29 0.17,-1.30 0.37,-1.24 0.57,-1.17 0.75,-1.05 0.92,-0.93 1.04,-0.76 1.17,-0.58 1.23,-0.38 1.30,-0.18 1.29,0.03 1.29,0.24 1.21,0.44 1.14,0.64 1.14,0.64 1.14,0.64 -0.20,3.38 -1.55,6.13 -3.37,6.26 -5.19,6.39 -5.77,4.87 -6.35,3.36 -5.89,1.71 -5.43,0.06 -4.45,-1.27 -3.47,-2.62 -2.05,-3.16 -0.64,-3.71 1.39,-3.19 3.43,-2.67 4.01,-1.72 4.58,-0.78 4.10,1.49 3.62,3.76 2.40,4.88 1.18,5.99 -0.23,6.26 -1.65,6.54 -3.00,5.74 -4.36,4.95 -4.69,3.42 -5.03,1.89 -4.31,0.72 -3.58,-0.44 -2.20,-0.73 -0.82,-1.02 -0.68,-1.10 -0.55,-1.19 -0.40,-1.24 -0.24,-1.28 -0.09,-1.30 0.06,-1.31 0.22,-1.28 0.37,-1.25 0.52,-1.19 0.66,-1.13 0.79,-1.03 0.91,-0.93 1.01,-0.81 1.11,-0.69 1.18,-0.54 1.24,-0.40 1.27,-0.24 1.31,-0.09 1.30,0.06 1.29,0.22 1.24,0.37 1.20,0.52 1.12,0.66 1.04,0.79 0.93,0.91 0.82,1.02 0.82,1.02 L 0.82,1.02 Z"></path></g><g transform="translate(300.6198555994923 63.378379331355916) rotate(0 0.40996000069037564 -2.45945977711861)" stroke="none"><path fill="#000000" d="M -0.86,1.15 Q -0.86,1.15 -2.09,0.81 -3.32,0.46 -4.20,-1.84 -5.09,-4.14 -4.29,-5.51 -3.50,-6.87 -2.56,-7.61 -1.62,-8.35 0.41,-8.82 2.45,-9.28 3.67,-8.55 4.89,-7.81 5.44,-6.17 6.00,-4.52 5.91,-3.20 5.82,-1.88 4.96,-0.02 4.11,1.83 2.34,1.51 0.57,1.18 0.42,1.23 0.27,1.28 0.11,1.29 -0.04,1.31 -0.20,1.28 -0.35,1.26 -0.50,1.20 -0.64,1.14 -0.77,1.04 -0.90,0.95 -1.00,0.83 -1.10,0.70 -1.17,0.56 -1.24,0.42 -1.27,0.26 -1.30,0.11 -1.30,-0.04 -1.29,-0.20 -1.25,-0.35 -1.21,-0.50 -1.13,-0.64 -1.05,-0.78 -0.94,-0.89 -0.83,-1.01 -0.70,-1.09 -0.57,-1.18 -0.85,-0.92 -1.13,-0.66 -0.99,-0.83 -0.85,-0.99 -0.67,-1.10 -0.49,-1.21 -0.28,-1.26 -0.08,-1.31 0.13,-1.28 0.34,-1.26 0.53,-1.18 0.72,-1.09 0.88,-0.94 1.03,-0.80 1.14,-0.61 1.24,-0.42 1.27,-0.21 1.31,-0.00 1.28,0.20 1.24,0.41 1.14,0.59 1.05,0.78 0.89,0.93 0.74,1.08 0.55,1.17 0.36,1.26 0.14,1.28 -0.06,1.31 -0.26,1.26 -0.47,1.22 -0.65,1.11 -0.84,1.00 -0.98,0.84 -1.12,0.68 -1.20,0.48 -1.28,0.29 -1.29,0.07 -1.30,-0.13 -1.25,-0.33 -1.19,-0.54 -1.07,-0.71 -0.96,-0.89 -0.79,-1.02 -0.62,-1.15 -0.42,-1.22 -0.22,-1.29 -0.00,-1.29 0.20,-1.29 0.40,-1.23 0.60,-1.16 0.77,-1.03 0.94,-0.91 1.06,-0.73 1.18,-0.56 1.24,-0.35 1.30,-0.15 1.29,0.06 1.28,0.27 0.92,0.72 0.57,1.18 0.42,1.23 0.27,1.28 0.11,1.29 -0.04,1.31 -0.20,1.28 -0.35,1.26 -0.50,1.20 -0.64,1.14 -0.77,1.04 -0.90,0.95 -1.00,0.83 -1.10,0.70 -1.17,0.56 -1.24,0.42 -1.27,0.26 -1.30,0.11 -1.30,-0.04 -1.29,-0.20 -1.25,-0.35 -1.21,-0.50 -1.13,-0.64 -1.05,-0.78 -0.94,-0.89 -0.83,-1.01 -0.70,-1.09 -0.57,-1.18 0.28,-1.87 1.14,-2.56 1.41,-3.77 1.69,-4.97 0.62,-4.13 -0.44,-3.29 0.21,-2.22 0.86,-1.15 0.99,-1.03 1.11,-0.91 1.21,-0.76 1.30,-0.62 1.36,-0.45 1.41,-0.29 1.43,-0.11 1.44,0.05 1.41,0.22 1.38,0.40 1.32,0.56 1.25,0.72 1.14,0.86 1.04,1.00 0.90,1.11 0.77,1.22 0.61,1.29 0.45,1.37 0.28,1.40 0.11,1.44 -0.05,1.43 -0.23,1.42 -0.39,1.37 -0.56,1.33 -0.71,1.24 -0.86,1.15 -0.86,1.15 L -0.86,1.15 Z"></path></g></svg>