<svg version="1.1" xmlns="http://www.w3.org/2000/svg" viewBox="0 0 182.31746408043688 198.66668701171875" width="546.9523922413107" height="596.0000610351562">
  <!-- svg-source:excalidraw -->
  
  <defs>
    <style class="style-fonts">
      @font-face {
        font-family: "Virgil";
        src: url("https://excalidraw.com/Virgil.woff2");
      }
      @font-face {
        font-family: "Cascadia";
        src: url("https://excalidraw.com/Cascadia.woff2");
      }
    </style>
  </defs>
  <g stroke-opacity="0.6" fill-opacity="0.6" stroke-linecap="round" transform="translate(10 25.291742906437833) rotate(0 54.680928559732266 67.80123371205673)"><path d="M31.2 5.76 C38.04 0.58, 47.61 -0.93, 56.13 -0.37 C64.64 0.19, 74.86 3.71, 82.29 9.12 C89.72 14.53, 96.37 23.19, 100.69 32.08 C105.01 40.96, 107.51 52.1, 108.21 62.44 C108.92 72.77, 108.15 84.3, 104.91 94.09 C101.67 103.89, 95.29 114.46, 88.75 121.21 C82.22 127.96, 73.96 132.5, 65.71 134.59 C57.45 136.67, 47.29 136.77, 39.23 133.7 C31.17 130.62, 23.28 123.71, 17.32 116.11 C11.37 108.52, 6.41 98.05, 3.5 88.12 C0.59 78.18, -1.34 66.88, -0.13 56.51 C1.08 46.14, 4.68 34.83, 10.76 25.9 C16.84 16.96, 31.14 6.55, 36.34 2.89 C41.54 -0.77, 41.68 2.82, 41.97 3.93 M75.41 5.61 C83.44 8.29, 91.92 16.06, 97.45 23.78 C102.98 31.51, 106.82 41.44, 108.59 51.96 C110.35 62.48, 110.12 76.79, 108.04 86.9 C105.96 97.02, 102.09 105.02, 96.11 112.67 C90.14 120.32, 80.35 128.87, 72.18 132.8 C64 136.73, 55.44 137.91, 47.06 136.25 C38.69 134.59, 28.78 129.24, 21.93 122.83 C15.08 116.43, 9.43 107.33, 5.94 97.83 C2.46 88.33, 0.68 76.15, 1.01 65.82 C1.35 55.5, 4.09 44.96, 7.96 35.88 C11.83 26.81, 17.51 17.22, 24.24 11.36 C30.96 5.5, 39.74 1.82, 48.29 0.71 C56.85 -0.4, 70.93 3.56, 75.58 4.72 C80.24 5.88, 76.56 6.79, 76.24 7.65" stroke="none" stroke-width="0" fill="#fab005"></path><path d="M72.8 4.37 C80.64 6.63, 89.77 13.76, 95.66 21.38 C101.56 29, 105.95 39.67, 108.16 50.06 C110.36 60.45, 110.85 73.53, 108.91 83.71 C106.97 93.88, 102.36 103.24, 96.52 111.13 C90.68 119.02, 81.98 127.19, 73.86 131.06 C65.74 134.93, 56.04 135.59, 47.79 134.35 C39.53 133.11, 31.02 129.31, 24.32 123.62 C17.62 117.93, 11.49 109.44, 7.59 100.22 C3.68 91, 1.14 78.96, 0.88 68.29 C0.61 57.62, 2.26 45.65, 5.99 36.21 C9.71 26.77, 16.22 17.58, 23.22 11.63 C30.22 5.68, 38.74 1.3, 48 0.51 C57.26 -0.27, 73.1 5.11, 78.76 6.94 C84.43 8.78, 82.38 10.65, 82.01 11.51 M63.18 1.82 C71.54 2, 80.69 6.09, 87.75 12.42 C94.82 18.75, 101.78 30.22, 105.55 39.82 C109.32 49.42, 111 59.88, 110.37 70.02 C109.74 80.17, 106.28 91.48, 101.78 100.7 C97.29 109.92, 90.28 119.57, 83.41 125.35 C76.53 131.13, 68.73 134.46, 60.55 135.37 C52.37 136.27, 42.2 134.63, 34.33 130.78 C26.46 126.92, 18.84 120.49, 13.36 112.23 C7.87 103.96, 3.08 91.82, 1.44 81.19 C-0.21 70.55, 1.4 58.46, 3.5 48.4 C5.6 38.33, 8.59 28.32, 14.04 20.8 C19.49 13.28, 28.13 6.64, 36.2 3.3 C44.27 -0.04, 57.73 0.77, 62.48 0.76 C67.22 0.74, 64.91 1.87, 64.67 3.21" stroke="transparent" stroke-width="1" fill="none"></path></g><g transform="translate(62.31752511559313 146) rotate(0 20.6666259765625 -65.99998474121094)" stroke="none"><path fill="#000000" d="M -1.01,1.44 Q -1.01,1.44 -3.23,0.53 -5.44,-0.37 -7.61,-1.91 -9.78,-3.44 -12.00,-5.56 -14.23,-7.69 -16.76,-10.76 -19.28,-13.84 -21.33,-16.71 -23.37,-19.57 -25.06,-22.61 -26.76,-25.66 -28.06,-28.53 -29.37,-31.40 -30.72,-34.96 -32.06,-38.53 -32.85,-41.70 -33.65,-44.86 -34.17,-47.55 -34.70,-50.25 -35.11,-52.95 -35.53,-55.65 -35.72,-58.23 -35.91,-60.82 -35.98,-64.23 -36.06,-67.65 -35.90,-70.71 -35.74,-73.78 -35.47,-76.44 -35.21,-79.10 -34.69,-81.87 -34.18,-84.63 -32.94,-87.91 -31.71,-91.19 -30.62,-93.85 -29.54,-96.51 -28.26,-98.92 -26.97,-101.32 -25.46,-103.87 -23.96,-106.42 -22.30,-108.73 -20.65,-111.05 -18.94,-113.05 -17.23,-115.04 -15.18,-117.39 -13.14,-119.74 -10.75,-121.67 -8.36,-123.61 -5.98,-125.20 -3.60,-126.79 -0.32,-128.30 2.94,-129.81 5.90,-130.84 8.87,-131.88 11.46,-132.69 14.05,-133.50 16.59,-134.07 19.14,-134.63 21.27,-134.88 23.40,-135.12 25.49,-135.22 27.59,-135.32 30.41,-134.97 33.23,-134.61 35.61,-134.06 37.99,-133.50 40.42,-132.66 42.86,-131.82 45.71,-130.46 48.55,-129.10 51.01,-127.50 53.47,-125.90 55.67,-124.25 57.88,-122.60 59.93,-120.41 61.99,-118.23 63.66,-115.89 65.33,-113.55 66.83,-110.97 68.33,-108.39 69.92,-105.38 71.52,-102.37 72.63,-99.63 73.75,-96.90 74.65,-93.52 75.55,-90.13 76.13,-87.14 76.71,-84.15 76.97,-81.04 77.23,-77.93 77.14,-74.60 77.05,-71.27 76.61,-67.86 76.18,-64.45 75.41,-60.30 74.63,-56.15 73.90,-53.52 73.16,-50.90 72.29,-47.74 71.42,-44.57 70.45,-41.79 69.47,-39.00 68.10,-35.67 66.72,-32.33 65.12,-29.45 63.52,-26.56 62.10,-24.05 60.69,-21.54 58.45,-18.70 56.21,-15.86 54.33,-13.71 52.45,-11.56 49.79,-9.32 47.13,-7.07 44.62,-5.35 42.11,-3.62 40.21,-2.49 38.31,-1.37 34.62,-1.52 30.93,-1.67 30.72,-1.65 30.50,-1.64 30.30,-1.70 30.09,-1.76 29.92,-1.88 29.74,-2.00 29.62,-2.17 29.49,-2.34 29.42,-2.54 29.35,-2.74 29.35,-2.95 29.35,-3.16 29.42,-3.37 29.49,-3.57 29.62,-3.74 29.75,-3.90 29.93,-4.02 30.10,-4.14 30.31,-4.20 30.51,-4.25 30.72,-4.24 30.94,-4.23 31.13,-4.15 31.33,-4.07 31.49,-3.93 31.65,-3.80 31.76,-3.61 31.87,-3.43 31.92,-3.22 31.96,-3.02 31.94,-2.80 31.91,-2.59 31.82,-2.40 31.73,-2.21 31.59,-2.05 31.44,-1.90 31.25,-1.80 31.07,-1.70 30.86,-1.67 30.65,-1.64 30.44,-1.67 30.23,-1.71 30.04,-1.81 29.85,-1.91 29.71,-2.06 29.56,-2.21 29.47,-2.41 29.38,-2.60 29.36,-2.81 29.34,-3.02 29.38,-3.23 29.43,-3.44 29.54,-3.62 29.65,-3.80 29.81,-3.94 29.98,-4.08 30.17,-4.15 30.37,-4.23 30.37,-4.23 30.37,-4.23 32.68,-5.68 34.98,-7.13 36.67,-8.16 38.35,-9.19 40.66,-10.71 42.97,-12.24 45.35,-14.05 47.72,-15.86 49.58,-17.83 51.43,-19.80 53.46,-22.15 55.49,-24.51 56.92,-26.99 58.35,-29.48 59.82,-32.04 61.29,-34.61 62.64,-37.77 63.98,-40.94 64.90,-43.53 65.82,-46.12 66.70,-49.30 67.57,-52.47 68.25,-54.84 68.92,-57.21 69.66,-61.20 70.40,-65.20 70.81,-68.32 71.22,-71.44 71.31,-74.46 71.41,-77.47 71.21,-80.28 71.01,-83.08 70.50,-85.89 69.99,-88.70 69.23,-91.74 68.47,-94.78 67.49,-97.25 66.51,-99.73 64.97,-102.64 63.44,-105.56 62.08,-107.92 60.72,-110.28 59.28,-112.35 57.83,-114.41 56.16,-116.27 54.49,-118.12 52.44,-119.67 50.40,-121.22 48.26,-122.64 46.12,-124.06 43.57,-125.30 41.01,-126.53 38.86,-127.29 36.70,-128.05 34.59,-128.55 32.49,-129.06 30.16,-129.39 27.84,-129.72 25.94,-129.63 24.04,-129.53 22.19,-129.33 20.35,-129.12 18.04,-128.62 15.74,-128.12 13.23,-127.33 10.72,-126.54 8.00,-125.61 5.29,-124.67 2.41,-123.37 -0.47,-122.06 -2.64,-120.62 -4.82,-119.18 -6.85,-117.59 -8.87,-116.00 -10.90,-113.67 -12.92,-111.34 -14.48,-109.54 -16.03,-107.74 -17.55,-105.63 -19.07,-103.52 -20.52,-101.07 -21.97,-98.63 -23.12,-96.50 -24.28,-94.36 -25.34,-91.76 -26.40,-89.15 -27.50,-86.36 -28.60,-83.57 -29.08,-81.05 -29.55,-78.54 -29.81,-76.00 -30.06,-73.47 -30.22,-70.62 -30.38,-67.77 -30.31,-64.49 -30.24,-61.21 -30.08,-58.86 -29.92,-56.51 -29.52,-53.92 -29.12,-51.33 -28.63,-48.78 -28.14,-46.22 -27.45,-43.37 -26.75,-40.51 -25.49,-37.12 -24.23,-33.74 -23.02,-31.06 -21.81,-28.39 -20.28,-25.62 -18.76,-22.84 -16.83,-20.13 -14.91,-17.41 -12.61,-14.58 -10.31,-11.75 -8.41,-9.89 -6.51,-8.03 -4.36,-6.51 -2.21,-4.98 -0.60,-3.21 1.01,-1.44 1.17,-1.30 1.33,-1.16 1.45,-0.98 1.57,-0.81 1.64,-0.61 1.72,-0.41 1.74,-0.20 1.76,0.01 1.74,0.22 1.71,0.43 1.63,0.63 1.56,0.83 1.43,1.00 1.31,1.18 1.15,1.32 0.99,1.46 0.80,1.56 0.61,1.65 0.40,1.70 0.20,1.75 -0.01,1.75 -0.22,1.75 -0.43,1.70 -0.63,1.64 -0.82,1.54 -1.01,1.44 -1.01,1.44 L -1.01,1.44 Z"></path></g><g transform="translate(75.65083810387438 131.33334350585938) rotate(0 6.666656494140625 -26.333343505859375)" stroke="none"><path fill="#000000" d="M -0.87,1.45 Q -0.87,1.45 -2.97,0.60 -5.07,-0.25 -7.05,-2.02 -9.03,-3.79 -10.88,-6.17 -12.73,-8.55 -14.33,-11.37 -15.92,-14.20 -17.23,-18.24 -18.53,-22.28 -19.09,-25.61 -19.64,-28.94 -19.86,-32.11 -20.09,-35.29 -20.18,-38.17 -20.26,-41.06 -20.10,-43.72 -19.94,-46.38 -19.26,-49.37 -18.59,-52.37 -17.90,-54.44 -17.20,-56.51 -16.71,-57.78 -16.22,-59.05 -15.24,-60.58 -14.26,-62.10 -13.27,-62.65 -12.29,-63.19 -10.59,-63.37 -8.88,-63.54 -7.66,-63.02 -6.43,-62.49 -5.41,-61.28 -4.39,-60.07 -3.64,-58.81 -2.90,-57.56 -2.33,-55.89 -1.75,-54.22 -1.33,-52.56 -0.91,-50.90 -0.55,-49.24 -0.18,-47.58 0.00,-45.38 0.18,-43.18 0.26,-41.31 0.34,-39.44 0.38,-37.88 0.42,-36.32 0.46,-34.43 0.49,-32.55 0.29,-31.36 0.09,-30.17 -0.17,-29.59 -0.43,-29.02 -0.53,-28.73 -0.63,-28.43 -0.79,-28.18 -0.96,-27.92 -1.18,-27.70 -1.40,-27.49 -1.66,-27.34 -1.93,-27.19 -2.22,-27.10 -2.52,-27.01 -2.83,-27.00 -3.13,-26.99 -3.43,-27.05 -3.73,-27.11 -4.01,-27.25 -4.29,-27.38 -4.52,-27.57 -4.76,-27.77 -4.95,-28.01 -5.13,-28.26 -5.25,-28.54 -5.37,-28.82 -5.42,-29.12 -5.47,-29.43 -5.44,-29.73 -5.42,-30.04 -5.57,-31.35 -5.72,-32.66 -5.71,-34.59 -5.70,-36.51 -5.68,-38.47 -5.66,-40.44 -5.26,-42.99 -4.86,-45.54 -4.27,-47.47 -3.69,-49.40 -3.06,-51.16 -2.43,-52.93 -1.28,-54.83 -0.13,-56.73 1.08,-57.88 2.30,-59.03 3.23,-59.69 4.16,-60.35 5.18,-60.74 6.19,-61.13 8.35,-60.84 10.50,-60.55 11.37,-59.11 12.23,-57.67 12.64,-55.93 13.06,-54.18 13.25,-52.00 13.44,-49.82 13.32,-47.46 13.20,-45.11 13.15,-43.25 13.10,-41.39 12.88,-39.52 12.66,-37.64 11.77,-36.02 10.88,-34.40 11.31,-34.87 11.75,-35.34 11.64,-35.09 11.52,-34.83 11.35,-34.60 11.18,-34.38 10.96,-34.20 10.74,-34.03 10.48,-33.91 10.23,-33.79 9.95,-33.74 9.67,-33.68 9.39,-33.70 9.11,-33.71 8.84,-33.79 8.57,-33.87 8.32,-34.02 8.08,-34.16 7.88,-34.36 7.68,-34.56 7.53,-34.80 7.38,-35.04 7.29,-35.31 7.21,-35.57 7.19,-35.86 7.17,-36.14 7.21,-36.42 7.26,-36.69 7.16,-39.42 7.06,-42.14 7.69,-44.18 8.32,-46.23 8.97,-47.95 9.62,-49.67 11.20,-51.81 12.77,-53.94 13.99,-55.36 15.22,-56.78 16.42,-57.85 17.62,-58.93 18.97,-59.53 20.33,-60.13 21.61,-60.36 22.90,-60.59 24.40,-60.23 25.90,-59.87 27.08,-58.96 28.27,-58.05 29.12,-57.05 29.98,-56.05 30.77,-54.77 31.57,-53.50 32.19,-51.61 32.81,-49.73 33.06,-47.89 33.31,-46.06 33.42,-44.11 33.53,-42.17 33.19,-39.80 32.84,-37.43 32.09,-35.01 31.34,-32.59 30.29,-29.31 29.24,-26.04 28.23,-23.09 27.21,-20.14 26.22,-17.50 25.22,-14.87 24.24,-12.54 23.26,-10.22 22.26,-8.22 21.25,-6.21 20.08,-4.01 18.90,-1.81 18.04,-0.14 17.19,1.52 16.42,2.88 15.65,4.25 14.94,5.42 14.24,6.59 12.07,7.10 9.90,7.60 9.80,7.73 9.70,7.85 9.58,7.94 9.45,8.04 9.30,8.10 9.16,8.16 9.00,8.19 8.85,8.22 8.69,8.20 8.53,8.19 8.38,8.14 8.23,8.09 8.10,8.01 7.96,7.92 7.85,7.81 7.74,7.69 7.66,7.56 7.58,7.42 7.54,7.27 7.49,7.12 7.49,6.96 7.48,6.80 7.51,6.65 7.54,6.49 7.61,6.35 7.68,6.20 7.59,6.66 7.49,7.12 7.49,6.91 7.49,6.69 7.56,6.49 7.63,6.29 7.76,6.12 7.89,5.95 8.06,5.83 8.24,5.71 8.44,5.66 8.65,5.60 8.86,5.61 9.07,5.62 9.27,5.70 9.47,5.78 9.63,5.91 9.79,6.05 9.90,6.23 10.01,6.42 10.06,6.62 10.10,6.83 10.08,7.04 10.06,7.25 9.97,7.45 9.88,7.64 9.73,7.79 9.59,7.95 9.40,8.05 9.21,8.15 9.00,8.18 8.79,8.22 8.58,8.18 8.37,8.15 8.19,8.05 8.00,7.95 7.85,7.80 7.70,7.64 7.62,7.45 7.53,7.26 7.50,7.05 7.48,6.83 7.52,6.63 7.57,6.42 7.68,6.24 7.79,6.05 7.95,5.92 8.11,5.78 8.31,5.70 8.51,5.62 8.72,5.61 8.93,5.60 9.14,5.65 9.34,5.71 9.52,5.83 9.69,5.95 9.82,6.12 9.95,6.29 9.93,6.94 9.90,7.60 9.80,7.73 9.70,7.85 9.58,7.94 9.45,8.04 9.30,8.10 9.16,8.16 9.00,8.19 8.85,8.22 8.69,8.20 8.53,8.19 8.38,8.14 8.23,8.09 8.10,8.01 7.96,7.92 7.85,7.81 7.74,7.69 7.66,7.56 7.58,7.42 7.54,7.27 7.49,7.12 7.49,6.96 7.48,6.80 7.51,6.65 7.54,6.49 7.61,6.35 7.68,6.20 8.43,4.81 9.18,3.41 9.88,2.33 10.59,1.26 11.35,0.04 12.10,-1.16 13.03,-2.86 13.95,-4.55 15.16,-6.66 16.37,-8.77 17.37,-10.59 18.37,-12.41 19.40,-14.58 20.43,-16.75 21.46,-19.28 22.49,-21.81 23.54,-24.69 24.59,-27.57 25.69,-30.81 26.79,-34.05 27.48,-36.12 28.17,-38.19 28.52,-40.08 28.87,-41.97 28.80,-43.73 28.74,-45.49 28.58,-46.96 28.41,-48.43 28.06,-49.81 27.71,-51.19 26.52,-52.94 25.33,-54.69 24.38,-55.46 23.43,-56.22 21.98,-55.88 20.53,-55.55 19.58,-54.69 18.63,-53.84 17.50,-52.52 16.37,-51.21 15.11,-49.62 13.86,-48.03 13.26,-46.40 12.66,-44.77 12.16,-43.44 11.66,-42.11 11.69,-40.44 11.73,-38.78 11.74,-37.06 11.75,-35.35 11.64,-35.09 11.52,-34.83 11.35,-34.60 11.18,-34.38 10.96,-34.20 10.74,-34.03 10.48,-33.91 10.23,-33.79 9.95,-33.74 9.67,-33.68 9.39,-33.70 9.11,-33.71 8.84,-33.79 8.57,-33.87 8.32,-34.02 8.08,-34.16 7.88,-34.36 7.68,-34.56 7.53,-34.80 7.38,-35.04 7.29,-35.31 7.21,-35.57 7.19,-35.86 7.17,-36.14 7.21,-36.42 7.26,-36.69 7.61,-37.46 7.96,-38.23 8.17,-39.88 8.38,-41.53 8.44,-43.45 8.49,-45.38 8.63,-47.42 8.77,-49.47 8.65,-51.31 8.53,-53.16 7.64,-54.88 6.76,-56.59 5.26,-55.44 3.76,-54.28 2.85,-52.81 1.94,-51.34 1.35,-49.68 0.75,-48.03 0.24,-46.41 -0.26,-44.80 -0.61,-42.62 -0.97,-40.45 -0.93,-38.50 -0.89,-36.56 -0.84,-34.71 -0.79,-32.85 -0.61,-30.93 -0.43,-29.02 -0.53,-28.73 -0.63,-28.43 -0.79,-28.18 -0.96,-27.92 -1.18,-27.70 -1.40,-27.49 -1.66,-27.34 -1.93,-27.19 -2.22,-27.10 -2.52,-27.01 -2.83,-27.00 -3.13,-26.99 -3.43,-27.05 -3.73,-27.11 -4.01,-27.25 -4.29,-27.38 -4.52,-27.57 -4.76,-27.77 -4.95,-28.01 -5.13,-28.26 -5.25,-28.54 -5.37,-28.82 -5.42,-29.12 -5.47,-29.43 -5.44,-29.73 -5.42,-30.04 -4.96,-31.29 -4.50,-32.54 -4.50,-34.39 -4.50,-36.23 -4.52,-37.75 -4.54,-39.27 -4.58,-41.04 -4.63,-42.82 -4.75,-44.69 -4.87,-46.55 -5.22,-48.15 -5.57,-49.74 -5.94,-51.24 -6.31,-52.73 -6.68,-53.96 -7.06,-55.19 -7.64,-56.25 -8.23,-57.32 -9.06,-58.10 -9.90,-58.89 -10.86,-58.12 -11.82,-57.34 -12.27,-56.18 -12.72,-55.02 -13.34,-53.17 -13.96,-51.32 -14.57,-48.70 -15.17,-46.08 -15.31,-43.65 -15.45,-41.21 -15.35,-38.42 -15.25,-35.63 -15.04,-32.68 -14.83,-29.72 -14.35,-26.73 -13.88,-23.75 -12.77,-20.15 -11.65,-16.56 -10.26,-14.04 -8.86,-11.51 -7.29,-9.43 -5.72,-7.35 -4.16,-5.84 -2.59,-4.34 -0.86,-2.90 0.87,-1.45 1.03,-1.33 1.19,-1.20 1.32,-1.04 1.45,-0.88 1.53,-0.69 1.62,-0.51 1.65,-0.30 1.69,-0.10 1.68,0.09 1.67,0.30 1.61,0.49 1.55,0.69 1.44,0.86 1.34,1.04 1.19,1.18 1.05,1.33 0.87,1.44 0.70,1.54 0.50,1.61 0.31,1.67 0.10,1.68 -0.09,1.69 -0.29,1.66 -0.50,1.62 -0.68,1.54 -0.87,1.45 -0.87,1.45 L -0.87,1.45 Z"></path></g><g transform="translate(54.31752511559313 152.66668701171875) rotate(0 23.33331298828125 12.666656494140625)" stroke="none"><path fill="#000000" d="M 0.12,-1.73 Q 0.12,-1.73 2.83,-1.90 5.54,-2.08 8.15,-2.01 10.77,-1.94 14.12,-2.65 17.47,-3.36 20.45,-4.23 23.42,-5.09 25.86,-5.83 28.30,-6.57 30.03,-7.24 31.75,-7.92 32.99,-8.55 34.22,-9.19 35.45,-9.70 36.67,-10.22 38.38,-11.09 40.09,-11.96 41.60,-12.49 43.10,-13.01 44.28,-13.05 45.47,-13.09 46.96,-12.33 48.45,-11.58 48.51,-9.53 48.57,-7.48 47.56,-5.92 46.56,-4.36 45.03,-3.04 43.49,-1.71 41.40,-0.54 39.32,0.63 37.11,1.68 34.89,2.73 32.53,3.60 30.17,4.46 27.83,5.22 25.49,5.98 24.19,6.46 22.88,6.95 22.47,7.11 22.06,7.27 21.78,7.33 21.50,7.40 21.21,7.40 20.92,7.39 20.64,7.32 20.36,7.25 20.11,7.11 19.85,6.98 19.64,6.78 19.42,6.59 19.26,6.35 19.10,6.11 19.00,5.84 18.90,5.57 18.86,5.28 18.83,4.99 18.87,4.70 18.91,4.42 19.01,4.15 19.12,3.88 19.28,3.64 19.45,3.40 19.67,3.21 19.89,3.02 20.15,2.89 20.40,2.76 21.83,2.38 23.25,2.00 24.99,1.53 26.73,1.06 28.71,0.65 30.68,0.24 32.89,-0.11 35.09,-0.47 37.06,-0.61 39.04,-0.74 40.28,-0.79 41.52,-0.84 42.62,-0.43 43.72,-0.03 44.38,1.29 45.05,2.61 44.35,4.38 43.65,6.14 42.29,7.76 40.93,9.38 39.36,10.86 37.79,12.34 36.10,13.60 34.42,14.86 33.15,15.77 31.88,16.67 30.38,17.35 28.87,18.03 27.51,18.41 26.15,18.78 25.86,18.84 25.58,18.89 25.29,18.88 25.01,18.86 24.73,18.78 24.45,18.70 24.21,18.55 23.96,18.41 23.75,18.20 23.55,18.00 23.40,17.76 23.24,17.51 23.16,17.24 23.07,16.96 23.05,16.68 23.03,16.39 23.08,16.11 23.12,15.82 23.24,15.56 23.36,15.30 23.53,15.07 23.71,14.84 23.93,14.66 24.16,14.48 24.42,14.36 24.68,14.24 26.72,14.28 28.75,14.32 30.20,13.97 31.65,13.62 33.67,13.44 35.70,13.27 37.38,13.02 39.07,12.78 41.31,13.27 43.55,13.77 44.10,15.17 44.65,16.57 44.11,18.28 43.56,20.00 41.93,22.29 40.30,24.59 38.45,26.58 36.59,28.57 34.86,30.22 33.13,31.87 31.61,33.18 30.10,34.50 28.32,35.59 26.54,36.68 25.46,37.28 24.38,37.88 22.05,37.58 19.72,37.27 19.51,37.26 19.30,37.25 19.10,37.17 18.90,37.10 18.74,36.96 18.58,36.82 18.47,36.64 18.36,36.46 18.31,36.25 18.26,36.04 18.28,35.83 18.31,35.62 18.39,35.43 18.48,35.24 18.63,35.08 18.77,34.93 18.96,34.83 19.15,34.72 19.36,34.69 19.57,34.65 19.78,34.69 19.99,34.72 20.17,34.82 20.36,34.92 20.51,35.07 20.66,35.23 20.75,35.42 20.84,35.61 20.86,35.82 20.88,36.03 20.84,36.24 20.80,36.45 20.69,36.63 20.58,36.81 20.42,36.95 20.26,37.09 20.06,37.17 19.86,37.25 19.65,37.26 19.44,37.27 19.23,37.22 19.03,37.16 18.85,37.04 18.67,36.92 18.54,36.76 18.42,36.59 18.35,36.39 18.28,36.19 18.28,35.97 18.28,35.76 18.34,35.56 18.41,35.36 18.54,35.19 18.67,35.02 18.84,34.90 19.02,34.78 19.22,34.72 19.42,34.66 19.42,34.66 19.42,34.66 20.42,33.53 21.42,32.40 22.46,31.85 23.50,31.30 24.91,30.58 26.33,29.86 27.82,28.72 29.31,27.57 31.03,26.15 32.75,24.73 34.52,23.10 36.28,21.47 38.01,19.39 39.74,17.31 37.91,17.59 36.09,17.86 34.36,18.00 32.64,18.14 30.68,18.55 28.72,18.95 27.43,18.87 26.15,18.78 25.86,18.84 25.58,18.89 25.29,18.88 25.01,18.86 24.73,18.78 24.45,18.70 24.21,18.55 23.96,18.41 23.75,18.20 23.55,18.00 23.40,17.76 23.24,17.51 23.16,17.24 23.07,16.97 23.05,16.68 23.03,16.39 23.08,16.11 23.12,15.82 23.24,15.56 23.36,15.30 23.53,15.07 23.71,14.84 23.93,14.66 24.16,14.48 24.42,14.36 24.68,14.24 25.82,13.93 26.96,13.62 28.05,13.17 29.14,12.72 30.37,11.87 31.61,11.02 33.10,9.96 34.60,8.90 36.00,7.62 37.41,6.33 39.53,5.02 41.65,3.70 40.53,3.78 39.41,3.86 37.64,4.04 35.87,4.21 33.76,4.57 31.66,4.93 29.82,5.31 27.98,5.69 26.14,6.18 24.30,6.68 23.18,6.97 22.06,7.27 21.78,7.33 21.50,7.40 21.21,7.40 20.92,7.39 20.64,7.32 20.36,7.25 20.11,7.11 19.85,6.98 19.64,6.78 19.42,6.59 19.26,6.35 19.10,6.11 19.00,5.84 18.90,5.57 18.86,5.28 18.83,4.99 18.87,4.70 18.91,4.42 19.01,4.15 19.12,3.88 19.28,3.64 19.45,3.40 19.67,3.21 19.89,3.02 20.15,2.89 20.40,2.76 20.77,2.49 21.13,2.22 22.55,1.70 23.97,1.18 26.23,0.48 28.48,-0.21 30.63,-0.97 32.78,-1.73 34.87,-2.71 36.96,-3.69 38.67,-4.59 40.38,-5.49 41.48,-6.34 42.57,-7.19 44.05,-7.71 45.53,-8.23 44.33,-8.15 43.13,-8.08 41.93,-7.58 40.73,-7.07 39.66,-6.38 38.60,-5.68 37.53,-5.23 36.46,-4.78 35.00,-4.05 33.55,-3.32 31.66,-2.58 29.76,-1.84 27.29,-1.06 24.81,-0.28 21.63,0.62 18.46,1.53 14.55,2.28 10.65,3.03 7.92,2.94 5.19,2.85 2.53,2.29 -0.12,1.73 -0.32,1.69 -0.53,1.65 -0.72,1.56 -0.91,1.47 -1.07,1.34 -1.24,1.21 -1.36,1.04 -1.49,0.88 -1.57,0.69 -1.66,0.49 -1.69,0.29 -1.73,0.08 -1.71,-0.12 -1.70,-0.33 -1.64,-0.53 -1.57,-0.73 -1.46,-0.90 -1.35,-1.08 -1.20,-1.23 -1.05,-1.37 -0.87,-1.48 -0.69,-1.59 -0.49,-1.65 -0.29,-1.71 -0.08,-1.72 0.12,-1.73 0.12,-1.73 L 0.12,-1.73 Z"></path></g><g transform="translate(146.98415109215563 25.333343505859375) rotate(0 9.66668701171875 -7.6666717529296875)" stroke="none"><path fill="#000000" d="M -1.12,-1.56 Q -1.12,-1.56 1.27,-3.89 3.66,-6.21 5.85,-8.10 8.03,-9.99 9.98,-11.60 11.94,-13.21 13.40,-14.29 14.87,-15.36 15.80,-15.28 16.74,-15.21 16.87,-15.29 17.01,-15.37 17.16,-15.41 17.31,-15.46 17.47,-15.47 17.63,-15.47 17.78,-15.44 17.94,-15.41 18.08,-15.34 18.23,-15.28 18.35,-15.18 18.47,-15.08 18.57,-14.95 18.66,-14.83 18.73,-14.68 18.79,-14.54 18.82,-14.38 18.84,-14.22 18.83,-14.07 18.82,-13.91 18.77,-13.76 18.72,-13.61 18.64,-13.47 18.55,-13.34 18.44,-13.23 18.33,-13.12 18.16,-13.03 18.00,-12.94 17.79,-12.89 17.58,-12.85 17.37,-12.88 17.16,-12.90 16.97,-12.99 16.78,-13.09 16.63,-13.23 16.48,-13.38 16.38,-13.57 16.28,-13.76 16.25,-13.97 16.22,-14.18 16.26,-14.39 16.29,-14.60 16.39,-14.79 16.50,-14.97 16.65,-15.12 16.81,-15.26 17.00,-15.35 17.20,-15.43 17.41,-15.45 17.62,-15.47 17.83,-15.42 18.03,-15.38 18.21,-15.26 18.39,-15.15 18.53,-14.99 18.67,-14.82 18.74,-14.63 18.82,-14.43 18.83,-14.22 18.83,-14.00 18.78,-13.80 18.72,-13.60 18.59,-13.42 18.47,-13.25 18.30,-13.12 18.13,-12.99 17.93,-12.93 17.73,-12.86 17.51,-12.87 17.30,-12.87 17.10,-12.94 16.90,-13.01 16.73,-13.14 16.57,-13.27 16.45,-13.45 16.33,-13.63 16.28,-13.83 16.22,-14.04 16.24,-14.25 16.25,-14.46 16.33,-14.66 16.42,-14.86 16.56,-15.02 16.69,-15.18 16.71,-15.19 16.74,-15.21 16.87,-15.29 17.01,-15.37 17.16,-15.41 17.31,-15.46 17.47,-15.47 17.63,-15.47 17.78,-15.44 17.94,-15.41 18.08,-15.34 18.23,-15.28 18.35,-15.18 18.47,-15.08 18.57,-14.95 18.66,-14.83 18.73,-14.68 18.79,-14.54 18.82,-14.38 18.84,-14.22 18.83,-14.07 18.82,-13.91 18.77,-13.76 18.72,-13.61 18.64,-13.47 18.55,-13.34 18.44,-13.23 18.33,-13.12 18.33,-11.97 18.33,-10.82 17.00,-9.76 15.67,-8.71 13.76,-7.12 11.85,-5.53 9.46,-3.49 7.06,-1.45 4.09,0.05 1.12,1.56 0.91,1.67 0.71,1.79 0.48,1.84 0.26,1.90 0.03,1.91 -0.20,1.91 -0.42,1.86 -0.65,1.81 -0.86,1.70 -1.06,1.60 -1.24,1.45 -1.42,1.30 -1.55,1.11 -1.69,0.92 -1.77,0.70 -1.86,0.49 -1.89,0.26 -1.92,0.03 -1.90,-0.20 -1.87,-0.43 -1.79,-0.64 -1.72,-0.86 -1.59,-1.06 -1.46,-1.25 -1.29,-1.41 -1.11,-1.56 -1.12,-1.56 L -1.12,-1.56 Z"></path></g><g transform="translate(151.65083810387438 44.66668701171875) rotate(0 10.33331298828125 0)" stroke="none"><path fill="#000000" d="M 0,-1.88 Q 0,-1.88 1.91,-2.45 3.83,-3.02 5.79,-3.06 7.76,-3.10 9.93,-3.10 12.11,-3.11 13.80,-3.04 15.49,-2.98 17.84,-2.14 20.20,-1.31 20.41,-1.27 20.62,-1.24 20.80,-1.14 20.99,-1.04 21.14,-0.89 21.28,-0.73 21.37,-0.54 21.46,-0.35 21.48,-0.14 21.51,0.07 21.46,0.27 21.42,0.48 21.31,0.66 21.20,0.85 21.03,0.98 20.87,1.12 20.68,1.20 20.48,1.28 20.27,1.29 20.05,1.30 19.85,1.24 19.64,1.19 19.47,1.07 19.29,0.95 19.16,0.78 19.04,0.61 18.97,0.41 18.90,0.21 18.90,-0.00 18.90,-0.21 18.97,-0.41 19.04,-0.61 19.16,-0.78 19.29,-0.95 19.47,-1.07 19.64,-1.19 19.85,-1.24 20.05,-1.30 20.27,-1.29 20.48,-1.28 20.68,-1.20 20.87,-1.12 21.03,-0.98 21.20,-0.84 21.31,-0.66 21.42,-0.48 21.46,-0.27 21.51,-0.07 21.48,0.14 21.46,0.35 21.37,0.54 21.28,0.73 21.14,0.89 20.99,1.04 20.80,1.14 20.61,1.24 20.41,1.27 20.20,1.31 20.20,1.31 20.20,1.31 17.84,2.14 15.49,2.98 13.80,3.04 12.11,3.11 9.93,3.10 7.76,3.10 5.79,3.06 3.83,3.02 1.91,2.45 0,1.88 -0.22,1.86 -0.45,1.83 -0.66,1.75 -0.87,1.67 -1.06,1.54 -1.25,1.41 -1.40,1.24 -1.55,1.07 -1.66,0.87 -1.76,0.66 -1.82,0.44 -1.87,0.22 -1.87,-0.00 -1.87,-0.22 -1.82,-0.44 -1.76,-0.66 -1.66,-0.87 -1.55,-1.07 -1.40,-1.24 -1.25,-1.41 -1.06,-1.54 -0.87,-1.67 -0.66,-1.75 -0.45,-1.83 -0.22,-1.86 0.00,-1.88 0.00,-1.88 L 0,-1.88 Z"></path></g><g transform="translate(148.31752511559313 58.66668701171875) rotate(0 11.66668701171875 6.666656494140625)" stroke="none"><path fill="#000000" d="M 1.10,-1.93 Q 1.10,-1.93 5.44,-0.18 9.78,1.56 12.62,3.07 15.46,4.58 17.42,5.62 19.38,6.65 21.48,9.28 23.57,11.90 23.72,12.05 23.88,12.20 23.98,12.38 24.08,12.57 24.11,12.78 24.14,12.99 24.11,13.20 24.07,13.41 23.97,13.60 23.87,13.79 23.72,13.93 23.56,14.08 23.37,14.17 23.18,14.25 22.96,14.28 22.75,14.30 22.55,14.25 22.34,14.21 22.16,14.09 21.98,13.98 21.84,13.82 21.70,13.66 21.62,13.46 21.55,13.26 21.54,13.05 21.52,12.84 21.58,12.64 21.64,12.43 21.76,12.26 21.88,12.08 22.05,11.95 22.22,11.82 22.42,11.76 22.62,11.69 22.83,11.69 23.05,11.69 23.25,11.76 23.45,11.83 23.62,11.96 23.79,12.09 23.91,12.26 24.02,12.44 24.08,12.65 24.14,12.85 24.12,13.06 24.11,13.27 24.03,13.47 23.95,13.67 23.81,13.83 23.68,13.99 23.49,14.10 23.31,14.21 23.10,14.25 22.90,14.30 22.68,14.27 22.47,14.25 22.28,14.16 22.09,14.07 22.09,14.07 22.09,14.07 19.08,13.50 16.08,12.92 14.08,11.87 12.07,10.82 9.19,9.22 6.31,7.63 2.60,4.78 -1.10,1.93 -1.32,1.77 -1.54,1.61 -1.71,1.41 -1.88,1.20 -1.99,0.95 -2.11,0.71 -2.17,0.45 -2.22,0.18 -2.21,-0.07 -2.20,-0.34 -2.13,-0.60 -2.05,-0.86 -1.92,-1.10 -1.79,-1.33 -1.60,-1.52 -1.42,-1.72 -1.19,-1.86 -0.96,-2.01 -0.71,-2.10 -0.45,-2.18 -0.18,-2.20 0.08,-2.23 0.34,-2.19 0.61,-2.14 0.86,-2.04 1.10,-1.93 1.10,-1.93 L 1.10,-1.93 Z"></path></g></svg>