<svg version="1.1" xmlns="http://www.w3.org/2000/svg" viewBox="0 0 456.66664123535156 315" width="1369.9999237060547" height="945">
  <!-- svg-source:excalidraw -->
  
  <defs>
    <style class="style-fonts">
      @font-face {
        font-family: "Virgil";
        src: url("https://excalidraw.com/Virgil.woff2");
      }
      @font-face {
        font-family: "Cascadia";
        src: url("https://excalidraw.com/Cascadia.woff2");
      }
    </style>
  </defs>
  <g transform="translate(239.99685149156016 189.32635695713316) rotate(0 -19.70116067192663 43.34252396324382)" stroke="none"><path fill="#ced4da" d="M 4.48,3.69 Q 4.48,3.69 2.60,8.01 0.71,12.33 -2.07,16.35 -4.86,20.37 -7.38,25.43 -9.90,30.48 -12.13,35.32 -14.36,40.16 -16.16,44.11 -17.97,48.07 -20.82,53.39 -23.67,58.71 -24.98,63.00 -26.29,67.30 -27.60,72.54 -28.90,77.79 -34.50,78.86 -40.10,79.94 -36.36,77.29 -32.62,74.64 -31.97,74.10 -31.31,73.55 -30.52,73.25 -29.73,72.94 -28.88,72.90 -28.03,72.87 -27.21,73.10 -26.40,73.34 -25.70,73.82 -25.00,74.31 -24.49,74.99 -23.99,75.67 -23.72,76.48 -23.46,77.29 -23.47,78.14 -23.48,78.99 -23.76,79.79 -24.04,80.59 -24.56,81.26 -25.08,81.93 -25.79,82.40 -26.49,82.87 -27.32,83.09 -28.14,83.31 -28.98,83.26 -29.83,83.20 -30.62,82.88 -31.41,82.56 -32.05,82.00 -32.69,81.44 -33.12,80.71 -33.55,79.98 -33.73,79.15 -33.90,78.31 -33.80,77.47 -33.70,76.63 -33.33,75.86 -32.97,75.09 -32.38,74.48 -31.79,73.87 -31.03,73.48 -30.28,73.09 -29.44,72.96 -28.60,72.83 -27.76,72.98 -26.92,73.12 -26.18,73.53 -25.43,73.93 -24.85,74.56 -24.27,75.18 -23.92,75.96 -23.58,76.73 -23.49,77.58 -23.41,78.42 -23.60,79.25 -23.79,80.08 -24.24,80.80 -24.68,81.53 -24.68,81.52 -24.68,81.52 -28.08,87.11 -31.48,92.69 -37.16,92.57 -42.85,92.44 -45.36,88.80 -47.86,85.17 -47.24,78.77 -46.63,72.37 -45.33,67.78 -44.04,63.19 -41.75,56.44 -39.46,49.68 -36.99,45.10 -34.52,40.52 -32.55,36.40 -30.58,32.29 -27.74,26.54 -24.90,20.80 -21.45,14.97 -18.00,9.15 -15.12,5.41 -12.25,1.66 -8.37,-1.01 -4.48,-3.69 -3.98,-4.18 -3.47,-4.66 -2.86,-5.01 -2.25,-5.35 -1.58,-5.55 -0.90,-5.74 -0.20,-5.76 0.49,-5.79 1.17,-5.65 1.86,-5.50 2.49,-5.20 3.12,-4.90 3.67,-4.45 4.21,-4.01 4.62,-3.44 5.04,-2.88 5.32,-2.24 5.59,-1.59 5.70,-0.90 5.81,-0.20 5.75,0.48 5.69,1.18 5.46,1.85 5.24,2.51 4.86,3.10 4.48,3.69 4.48,3.69 L 4.48,3.69 Z"></path></g><g transform="translate(335.2787319648953 106.22331439322193) rotate(0 -68.41670907625496 86.68506432370725)" stroke="none"><path fill="#ced4da" d="M 4.82,3.48 Q 4.82,3.48 2.80,7.66 0.78,11.84 -3.02,17.67 -6.83,23.50 -9.97,28.69 -13.11,33.88 -15.47,38.37 -17.82,42.86 -20.36,47.30 -22.90,51.74 -25.34,56.05 -27.77,60.35 -30.01,64.77 -32.25,69.18 -34.48,73.82 -36.71,78.46 -39.25,81.96 -41.79,85.46 -45.10,88.98 -48.41,92.50 -51.53,95.99 -54.64,99.48 -58.50,102.69 -62.35,105.91 -66.32,109.56 -70.29,113.21 -73.56,116.97 -76.84,120.74 -80.17,124.86 -83.50,128.98 -87.29,132.94 -91.08,136.90 -94.89,140.12 -98.70,143.34 -103.53,148.38 -108.36,153.42 -111.36,157.44 -114.36,161.46 -117.95,166.82 -121.54,172.17 -127.43,174.72 -133.32,177.27 -134.03,177.73 -134.75,178.19 -135.58,178.40 -136.40,178.60 -137.25,178.53 -138.09,178.46 -138.88,178.13 -139.66,177.79 -140.29,177.22 -140.92,176.66 -141.34,175.92 -141.76,175.18 -141.92,174.34 -142.08,173.51 -141.97,172.67 -141.85,171.82 -141.47,171.06 -141.10,170.30 -140.50,169.70 -139.89,169.10 -139.13,168.72 -138.37,168.34 -137.53,168.23 -136.69,168.11 -135.85,168.27 -135.02,168.43 -134.28,168.85 -133.54,169.27 -132.97,169.90 -132.40,170.54 -132.07,171.32 -131.73,172.10 -131.66,172.94 -131.59,173.79 -131.80,174.62 -132.00,175.44 -132.46,176.16 -132.92,176.87 -133.58,177.41 -134.24,177.94 -135.04,178.23 -135.84,178.52 -136.69,178.55 -137.54,178.57 -138.35,178.32 -139.16,178.07 -139.85,177.58 -140.54,177.08 -141.04,176.39 -141.53,175.70 -141.78,174.89 -142.03,174.07 -142.01,173.23 -141.99,172.38 -141.69,171.58 -141.40,170.78 -140.87,170.12 -140.34,169.45 -140.34,169.46 -140.34,169.46 -137.84,164.18 -135.33,158.90 -133.05,155.10 -130.76,151.31 -127.68,147.12 -124.59,142.93 -121.57,139.56 -118.55,136.18 -113.54,131.32 -108.53,126.46 -103.40,122.11 -98.28,117.75 -94.69,113.40 -91.10,109.05 -85.84,103.59 -80.59,98.12 -76.91,94.89 -73.23,91.67 -69.00,88.03 -64.77,84.38 -61.68,81.35 -58.59,78.33 -55.05,74.22 -51.50,70.11 -48.91,64.74 -46.33,59.37 -44.15,55.66 -41.96,51.95 -39.41,47.71 -36.86,43.47 -34.56,39.59 -32.26,35.72 -29.56,30.88 -26.86,26.04 -23.49,20.52 -20.12,15.01 -15.80,8.99 -11.49,2.98 -8.15,-0.24 -4.82,-3.48 -4.33,-4.00 -3.84,-4.53 -3.24,-4.92 -2.65,-5.32 -1.97,-5.56 -1.29,-5.80 -0.58,-5.87 0.12,-5.94 0.83,-5.84 1.54,-5.74 2.21,-5.47 2.87,-5.20 3.45,-4.78 4.03,-4.36 4.50,-3.81 4.96,-3.27 5.28,-2.63 5.60,-1.98 5.76,-1.28 5.91,-0.59 5.90,0.12 5.88,0.84 5.70,1.53 5.51,2.22 5.16,2.85 4.82,3.48 4.82,3.48 L 4.82,3.48 Z"></path></g><g transform="translate(317.3686395631346 105.5069198795943) rotate(0 -55.16323020473163 72.35694449008429)" stroke="none"><path fill="#ced4da" d="M 4.78,4.09 Q 4.78,4.09 -0.40,12.16 -5.58,20.22 -8.43,23.51 -11.27,26.79 -14.53,31.13 -17.79,35.46 -22.06,41.34 -26.34,47.21 -30.70,52.73 -35.05,58.24 -39.96,63.79 -44.87,69.33 -49.83,74.62 -54.79,79.91 -59.49,84.15 -64.19,88.38 -67.60,92.56 -71.02,96.74 -74.44,101.21 -77.87,105.69 -80.97,111.12 -84.08,116.56 -86.88,121.64 -89.67,126.72 -91.84,131.56 -94.00,136.40 -96.78,141.61 -99.56,146.81 -100.17,147.56 -100.79,148.30 -101.48,149.27 -102.17,150.23 -103.07,151.00 -103.96,151.77 -105.02,152.30 -106.08,152.83 -107.23,153.10 -108.39,153.36 -109.57,153.34 -110.76,153.32 -111.90,153.01 -113.05,152.71 -114.08,152.14 -115.12,151.57 -116.00,150.77 -116.87,149.97 -117.52,148.99 -118.18,148.00 -118.58,146.89 -118.98,145.77 -119.10,144.59 -119.23,143.42 -119.06,142.24 -118.90,141.07 -118.46,139.97 -118.02,138.87 -114.01,135.96 -110.01,133.05 -109.51,132.36 -109.01,131.67 -108.32,131.18 -107.62,130.68 -106.81,130.43 -106.00,130.19 -105.15,130.21 -104.30,130.24 -103.50,130.54 -102.71,130.83 -102.05,131.37 -101.38,131.90 -100.93,132.62 -100.47,133.34 -100.27,134.16 -100.07,134.99 -100.14,135.83 -100.21,136.68 -100.55,137.46 -100.89,138.24 -101.46,138.87 -102.03,139.50 -102.77,139.92 -103.51,140.33 -104.35,140.49 -105.18,140.65 -106.02,140.53 -106.87,140.41 -107.63,140.03 -108.39,139.65 -108.99,139.05 -109.58,138.45 -109.96,137.68 -110.33,136.92 -110.45,136.08 -110.56,135.23 -110.39,134.40 -110.23,133.57 -109.81,132.83 -109.39,132.09 -108.75,131.52 -108.12,130.96 -107.34,130.63 -106.56,130.29 -105.71,130.23 -104.86,130.16 -104.04,130.37 -103.21,130.58 -102.50,131.04 -101.78,131.50 -101.25,132.16 -100.72,132.83 -100.43,133.63 -100.14,134.42 -100.12,135.27 -100.10,136.12 -100.36,136.94 -100.61,137.75 -100.61,137.75 -100.61,137.75 -100.70,143.02 -100.79,148.30 -101.48,149.26 -102.16,150.23 -103.06,151.00 -103.96,151.77 -105.02,152.30 -106.08,152.83 -107.23,153.09 -108.39,153.36 -109.57,153.34 -110.76,153.32 -111.90,153.01 -113.05,152.71 -114.08,152.14 -115.12,151.57 -116.00,150.77 -116.87,149.97 -117.52,148.99 -118.18,148.00 -118.58,146.89 -118.98,145.77 -119.10,144.60 -119.23,143.42 -119.06,142.25 -118.90,141.07 -118.46,139.97 -118.02,138.87 -117.39,138.10 -116.76,137.33 -114.13,132.75 -111.50,128.17 -109.65,124.14 -107.81,120.12 -105.26,115.06 -102.71,110.01 -99.85,105.10 -96.99,100.18 -93.94,95.52 -90.89,90.86 -87.67,86.65 -84.44,82.45 -80.53,78.09 -76.62,73.73 -72.43,69.98 -68.23,66.22 -63.60,61.36 -58.96,56.51 -54.30,51.34 -49.63,46.18 -45.51,41.17 -41.39,36.17 -36.76,30.26 -32.13,24.36 -28.44,19.73 -24.76,15.11 -21.94,11.86 -19.13,8.61 -11.95,2.25 -4.78,-4.09 -4.22,-4.61 -3.66,-5.12 -2.99,-5.48 -2.32,-5.85 -1.59,-6.04 -0.86,-6.23 -0.10,-6.25 0.65,-6.26 1.39,-6.09 2.13,-5.92 2.81,-5.58 3.49,-5.24 4.06,-4.74 4.64,-4.25 5.08,-3.63 5.52,-3.01 5.80,-2.31 6.08,-1.60 6.19,-0.85 6.29,-0.10 6.21,0.65 6.13,1.40 5.88,2.12 5.62,2.83 5.20,3.46 4.78,4.09 4.78,4.09 L 4.78,4.09 Z"></path></g><g transform="translate(364.6513989402076 48.910900647607605) rotate(0 -80.95382622858966 111.75924943671828)" stroke="none"><path fill="#ced4da" d="M 5.33,3.12 Q 5.33,3.12 2.66,9.58 -0.00,16.04 -5.36,25.14 -10.71,34.24 -15.48,41.27 -20.24,48.31 -23.33,52.46 -26.41,56.61 -29.93,61.66 -33.45,66.72 -36.37,71.01 -39.28,75.30 -43.12,80.70 -46.96,86.09 -50.68,91.12 -54.39,96.15 -58.24,101.06 -62.09,105.97 -66.77,111.36 -71.45,116.76 -75.66,121.58 -79.87,126.40 -82.99,130.39 -86.12,134.38 -89.40,138.93 -92.68,143.48 -97.11,148.81 -101.55,154.14 -104.92,158.70 -108.28,163.26 -110.77,167.40 -113.26,171.54 -117.06,177.36 -120.87,183.18 -125.40,188.76 -129.92,194.35 -133.92,199.14 -137.92,203.93 -141.03,208.27 -144.13,212.61 -146.63,217.10 -149.13,221.58 -153.01,223.69 -156.88,225.81 -157.47,226.41 -158.07,227.02 -158.82,227.41 -159.58,227.80 -160.42,227.92 -161.26,228.05 -162.10,227.90 -162.93,227.75 -163.68,227.34 -164.42,226.93 -165.00,226.31 -165.57,225.68 -165.92,224.91 -166.27,224.13 -166.35,223.29 -166.43,222.44 -166.23,221.61 -166.04,220.78 -165.59,220.06 -165.14,219.34 -164.49,218.80 -163.83,218.26 -163.04,217.95 -162.24,217.65 -161.39,217.62 -160.55,217.58 -159.73,217.82 -158.91,218.06 -158.22,218.55 -157.52,219.03 -157.02,219.72 -156.51,220.40 -156.25,221.21 -155.99,222.02 -156.00,222.87 -156.01,223.72 -156.30,224.52 -156.58,225.32 -157.10,225.99 -157.63,226.66 -158.34,227.13 -159.05,227.60 -159.87,227.81 -160.69,228.03 -161.54,227.97 -162.39,227.91 -163.17,227.59 -163.96,227.26 -164.60,226.70 -165.24,226.14 -165.67,225.41 -166.09,224.67 -166.26,223.84 -166.44,223.01 -166.33,222.16 -166.23,221.32 -165.86,220.55 -165.49,219.79 -165.49,219.79 -165.49,219.79 -164.05,213.90 -162.60,208.02 -159.78,203.46 -156.95,198.91 -154.31,195.47 -151.67,192.03 -147.58,187.23 -143.48,182.43 -139.55,177.78 -135.62,173.13 -131.97,167.78 -128.32,162.43 -125.58,157.94 -122.84,153.45 -118.72,148.00 -114.60,142.56 -110.71,138.01 -106.83,133.46 -103.40,128.80 -99.97,124.13 -96.48,119.71 -92.99,115.29 -88.55,110.26 -84.11,105.24 -79.54,100.30 -74.98,95.37 -71.20,90.86 -67.43,86.36 -63.73,81.52 -60.03,76.68 -56.27,71.63 -52.51,66.59 -49.44,62.15 -46.36,57.71 -42.73,52.48 -39.09,47.25 -36.09,43.16 -33.09,39.06 -28.78,32.65 -24.47,26.24 -19.23,17.04 -13.99,7.84 -9.66,2.35 -5.33,-3.12 -4.88,-3.71 -4.42,-4.31 -3.84,-4.77 -3.26,-5.24 -2.59,-5.56 -1.91,-5.87 -1.18,-6.02 -0.45,-6.16 0.28,-6.12 1.03,-6.09 1.74,-5.88 2.46,-5.67 3.10,-5.29 3.74,-4.91 4.28,-4.39 4.81,-3.87 5.20,-3.24 5.60,-2.61 5.83,-1.90 6.06,-1.19 6.11,-0.45 6.17,0.29 6.05,1.02 5.92,1.75 5.62,2.44 5.33,3.12 5.33,3.12 L 5.33,3.12 Z"></path></g><g stroke-linecap="round" transform="translate(10 10) rotate(0 218.33332061767578 147.5)"><path d="M-1.97 -0.29 C136.73 2.16, 274.16 5.45, 438.41 0.76 M-0.52 -0.7 C151.23 3.48, 301.29 3.24, 437.26 -0.49 M434.44 1 C440.83 68.45, 437.17 140.38, 438.8 293.3 M437.59 0.11 C438.36 77.3, 437.95 153.97, 435.24 294.01 M436.22 293.54 C287.52 294.27, 139.74 294.61, -0.24 294.89 M437.54 294.22 C347.83 294.02, 258.57 293.02, -0.88 294.37 M-2.08 292.68 C-1.19 176.45, -1.02 60.86, -0.32 1.5 M-0.21 294.38 C-3.1 201.25, -4.56 107.58, -0.47 -1.31" stroke="#000000" stroke-width="2" fill="none"></path></g><g transform="translate(44.128401539876336 171.54561627806697) rotate(0 83.11676444907192 39.13748783755398)" stroke="none"><path fill="#ced4da" d="M -1.61,-6.78 Q -1.61,-6.78 3.02,-8.92 7.66,-11.06 14.71,-13.02 21.75,-14.97 30.05,-16.70 38.35,-18.43 45.46,-19.23 52.56,-20.03 59.15,-20.74 65.73,-21.45 73.32,-22.24 80.90,-23.03 89.39,-23.43 97.87,-23.83 104.50,-23.38 111.12,-22.93 116.09,-22.16 121.05,-21.39 125.44,-20.57 129.82,-19.75 134.37,-18.29 138.92,-16.83 143.05,-14.35 147.18,-11.87 149.39,-5.98 151.61,-0.09 149.97,4.73 148.34,9.56 143.18,14.60 138.02,19.64 132.06,23.21 126.10,26.78 120.64,29.90 115.18,33.01 109.29,36.82 103.40,40.63 98.80,44.66 94.20,48.70 98.73,51.05 103.26,53.39 107.84,52.66 112.42,51.93 116.96,50.49 121.51,49.05 125.62,47.76 129.74,46.47 135.29,46.74 140.85,47.02 145.12,49.16 149.39,51.30 152.09,56.15 154.80,60.99 154.16,66.24 153.52,71.49 151.88,76.51 150.25,81.52 156.41,79.22 162.58,76.91 163.28,76.43 163.98,75.94 164.79,75.71 165.61,75.47 166.46,75.51 167.31,75.55 168.10,75.86 168.89,76.16 169.55,76.71 170.20,77.25 170.64,77.98 171.09,78.70 171.28,79.53 171.47,80.36 171.39,81.20 171.30,82.05 170.95,82.82 170.60,83.60 170.03,84.22 169.45,84.84 168.70,85.25 167.95,85.65 167.12,85.80 166.28,85.94 165.44,85.81 164.60,85.69 163.84,85.29 163.09,84.90 162.50,84.29 161.91,83.68 161.54,82.91 161.18,82.14 161.08,81.30 160.98,80.46 161.16,79.62 161.33,78.79 161.76,78.06 162.19,77.33 162.83,76.77 163.48,76.22 164.26,75.89 165.05,75.57 165.90,75.52 166.75,75.46 167.57,75.68 168.39,75.90 169.10,76.37 169.80,76.84 170.33,77.51 170.85,78.19 171.13,78.99 171.40,79.79 171.41,80.64 171.42,81.49 171.16,82.30 170.89,83.11 170.39,83.79 169.88,84.47 169.88,84.47 169.88,84.47 169.39,86.91 168.90,89.35 164.06,94.31 159.23,99.27 154.83,100.75 150.44,102.22 145.91,101.52 141.37,100.83 137.71,98.19 134.05,95.55 132.23,90.59 130.41,85.63 130.67,81.18 130.93,76.73 132.83,71.25 134.74,65.78 130.38,67.27 126.02,68.77 121.42,70.03 116.82,71.29 109.42,72.25 102.02,73.20 95.76,72.54 89.50,71.89 83.33,68.10 77.17,64.31 75.42,57.03 73.67,49.75 75.00,45.03 76.32,40.31 80.43,35.63 84.55,30.94 88.42,27.53 92.29,24.12 98.77,19.93 105.25,15.74 108.95,13.63 112.64,11.52 117.79,8.72 122.93,5.92 126.52,2.96 130.12,0.00 124.02,-1.40 117.92,-2.81 113.23,-3.51 108.53,-4.21 103.38,-4.56 98.24,-4.91 90.58,-4.63 82.92,-4.35 75.44,-3.57 67.96,-2.79 61.08,-2.11 54.20,-1.44 47.86,-0.80 41.52,-0.17 33.97,1.31 26.42,2.79 19.12,4.61 11.82,6.42 6.72,6.60 1.61,6.78 0.78,6.87 -0.05,6.97 -0.88,6.86 -1.72,6.75 -2.50,6.45 -3.29,6.14 -3.97,5.66 -4.66,5.18 -5.21,4.55 -5.77,3.91 -6.15,3.16 -6.54,2.42 -6.73,1.60 -6.93,0.78 -6.92,-0.05 -6.91,-0.89 -6.70,-1.71 -6.50,-2.52 -6.10,-3.26 -5.70,-4.00 -5.14,-4.63 -4.58,-5.25 -3.88,-5.72 -3.19,-6.20 -2.40,-6.49 -1.61,-6.78 -1.61,-6.78 L -1.61,-6.78 Z"></path></g><g transform="translate(343.15923558699274 62.52259317316407) rotate(0 -51.939405701749365 64.83468731645905)" stroke="none"><path fill="#ced4da" d="M 4.72,3.98 Q 4.72,3.98 2.33,8.65 -0.05,13.33 -3.33,17.67 -6.60,22.01 -11.29,27.73 -15.98,33.46 -20.08,38.65 -24.19,43.84 -28.91,49.52 -33.63,55.20 -38.62,60.76 -43.61,66.32 -47.39,70.70 -51.16,75.09 -55.43,80.59 -59.70,86.08 -64.86,92.93 -70.01,99.78 -73.95,105.57 -77.90,111.37 -80.77,115.50 -83.65,119.64 -87.64,124.95 -91.62,130.27 -94.92,130.10 -98.22,129.93 -98.66,130.39 -99.09,130.85 -99.63,131.19 -100.16,131.53 -100.76,131.73 -101.36,131.94 -101.99,131.99 -102.62,132.05 -103.24,131.95 -103.87,131.85 -104.45,131.61 -105.04,131.36 -105.55,130.99 -106.06,130.61 -106.46,130.12 -106.86,129.63 -107.14,129.06 -107.41,128.49 -107.54,127.87 -107.67,127.25 -107.65,126.62 -107.63,125.99 -107.46,125.38 -107.29,124.77 -106.97,124.22 -106.66,123.67 -107.12,125.78 -107.58,127.89 -107.62,127.04 -107.66,126.19 -107.43,125.38 -107.19,124.56 -106.71,123.86 -106.23,123.16 -105.55,122.65 -104.87,122.14 -104.06,121.87 -103.25,121.61 -102.40,121.61 -101.55,121.62 -100.75,121.90 -99.95,122.18 -99.27,122.69 -98.60,123.21 -98.13,123.92 -97.66,124.63 -97.44,125.45 -97.21,126.27 -97.27,127.12 -97.32,127.97 -97.64,128.75 -97.96,129.54 -98.51,130.18 -99.07,130.83 -99.80,131.26 -100.53,131.69 -101.36,131.87 -102.20,132.05 -103.04,131.95 -103.88,131.85 -104.65,131.49 -105.42,131.13 -106.03,130.54 -106.65,129.95 -107.04,129.19 -107.43,128.44 -107.56,127.60 -107.69,126.76 -107.55,125.92 -107.41,125.08 -107.00,124.34 -106.60,123.59 -105.98,123.01 -105.36,122.43 -104.58,122.08 -103.81,121.73 -102.96,121.64 -102.12,121.56 -101.29,121.74 -100.46,121.93 -99.74,122.38 -99.01,122.82 -98.46,123.47 -97.92,124.12 -98.07,127.03 -98.22,129.93 -98.66,130.39 -99.09,130.85 -99.63,131.19 -100.16,131.53 -100.76,131.73 -101.36,131.94 -101.99,131.99 -102.62,132.05 -103.24,131.95 -103.87,131.85 -104.45,131.61 -105.04,131.37 -105.55,130.99 -106.06,130.61 -106.46,130.12 -106.86,129.64 -107.14,129.06 -107.41,128.49 -107.54,127.87 -107.67,127.26 -107.65,126.62 -107.63,125.99 -107.46,125.38 -107.29,124.77 -106.97,124.22 -106.66,123.67 -107.22,120.98 -107.77,118.30 -103.82,113.11 -99.86,107.92 -97.01,104.12 -94.15,100.33 -89.87,94.22 -85.59,88.10 -80.30,81.31 -75.00,74.51 -70.49,68.83 -65.98,63.16 -61.46,58.04 -56.93,52.91 -52.36,48.07 -47.79,43.23 -43.14,37.81 -38.48,32.38 -33.89,26.75 -29.30,21.12 -24.86,16.06 -20.41,11.00 -16.77,6.66 -13.12,2.32 -8.92,-0.83 -4.72,-3.98 -4.18,-4.48 -3.63,-4.99 -2.98,-5.36 -2.33,-5.72 -1.61,-5.91 -0.89,-6.11 -0.15,-6.13 0.59,-6.15 1.31,-5.99 2.04,-5.83 2.71,-5.50 3.38,-5.17 3.95,-4.69 4.52,-4.21 4.96,-3.61 5.39,-3.00 5.68,-2.31 5.96,-1.62 6.07,-0.89 6.17,-0.15 6.10,0.58 6.03,1.32 5.79,2.03 5.54,2.73 5.13,3.35 4.72,3.98 4.72,3.98 L 4.72,3.98 Z"></path></g><g transform="translate(302.49433422289076 197.57896476875044) rotate(0 -18.39512287855132 33.44567796100205)" stroke="none"><path fill="#444444" d="M 2.47,-2.12 Q 2.47,-2.12 4.02,-0.85 5.58,0.40 7.05,2.17 8.52,3.95 9.86,6.34 11.20,8.74 11.42,11.01 11.64,13.28 11.34,15.62 11.04,17.95 9.75,19.70 8.45,21.45 6.54,22.80 4.63,24.15 2.33,25.46 0.03,26.77 -2.75,27.93 -5.55,29.09 -7.91,29.86 -10.27,30.63 -13.26,31.56 -16.26,32.50 -18.80,33.27 -21.33,34.04 -24.24,34.71 -27.16,35.39 -30.46,35.93 -33.75,36.46 -36.03,36.57 -38.30,36.68 -40.70,36.51 -43.09,36.34 -45.30,36.10 -47.52,35.85 -49.94,35.77 -52.37,35.68 -54.59,35.95 -56.82,36.22 -57.91,38.72 -59.01,41.22 -59.48,43.85 -59.96,46.47 -58.07,48.59 -56.17,50.71 -53.21,52.18 -50.24,53.65 -47.81,54.44 -45.38,55.23 -43.26,56.04 -41.14,56.85 -38.82,57.69 -36.51,58.53 -33.62,59.10 -30.73,59.68 -28.16,60.27 -25.60,60.86 -23.25,61.04 -20.90,61.23 -18.43,61.04 -15.95,60.85 -13.32,60.27 -10.69,59.69 -7.95,59.17 -5.20,58.64 -2.09,57.93 1.01,57.22 3.44,56.74 5.86,56.25 8.34,55.63 10.82,55.01 13.08,54.38 15.34,53.75 18.11,53.32 20.89,52.88 23.37,52.68 25.84,52.48 28.14,55.87 30.43,59.26 30.45,59.68 30.48,60.11 30.36,60.52 30.25,60.93 30.01,61.28 29.77,61.63 29.44,61.89 29.10,62.15 28.70,62.28 28.29,62.42 27.87,62.42 27.44,62.42 27.04,62.28 26.64,62.15 26.30,61.89 25.96,61.63 25.72,61.28 25.48,60.93 25.37,60.52 25.26,60.11 25.28,59.69 25.30,59.26 25.46,58.87 25.61,58.47 25.89,58.15 26.16,57.82 26.53,57.61 26.89,57.39 27.31,57.29 27.72,57.20 28.14,57.25 28.57,57.29 28.95,57.47 29.34,57.65 29.65,57.94 29.96,58.23 30.16,58.61 30.36,58.99 30.42,59.40 30.49,59.82 30.42,60.24 30.36,60.66 30.16,61.04 29.96,61.41 29.65,61.71 29.34,62.00 28.96,62.18 28.57,62.36 28.15,62.40 27.73,62.45 27.31,62.36 26.90,62.27 26.53,62.05 26.17,61.83 25.89,61.50 25.62,61.18 25.46,60.79 25.30,60.39 25.30,60.39 25.30,60.39 25.15,61.99 25.00,63.58 22.42,63.82 19.85,64.06 16.95,64.86 14.05,65.66 11.41,66.35 8.77,67.03 6.12,67.55 3.48,68.06 1.07,68.67 -1.34,69.27 -3.68,69.69 -6.02,70.11 -8.68,70.69 -11.34,71.26 -13.82,71.74 -16.30,72.22 -18.84,72.28 -21.37,72.33 -24.62,72.02 -27.86,71.72 -29.95,71.16 -32.04,70.60 -34.57,70.01 -37.10,69.41 -40.47,68.29 -43.85,67.16 -46.29,66.05 -48.74,64.94 -51.48,63.87 -54.23,62.80 -58.06,60.63 -61.89,58.45 -63.72,56.40 -65.56,54.34 -67.24,50.68 -68.93,47.03 -68.61,44.60 -68.30,42.18 -67.72,40.04 -67.14,37.90 -65.62,34.66 -64.10,31.42 -61.80,29.63 -59.49,27.85 -57.21,27.32 -54.94,26.80 -52.33,26.87 -49.72,26.95 -47.03,27.28 -44.35,27.60 -42.12,27.75 -39.89,27.91 -37.41,27.82 -34.93,27.73 -31.81,27.20 -28.68,26.66 -26.22,26.11 -23.76,25.55 -21.19,24.78 -18.61,24.01 -15.73,23.16 -12.85,22.31 -10.75,21.69 -8.64,21.07 -6.37,20.20 -4.10,19.32 -1.85,18.15 0.39,16.98 2.15,15.24 3.92,13.51 3.17,11.28 2.43,9.05 0.98,7.31 -0.45,5.58 -1.46,3.85 -2.47,2.12 -2.69,1.79 -2.90,1.46 -3.04,1.09 -3.17,0.72 -3.21,0.33 -3.25,-0.05 -3.20,-0.44 -3.14,-0.83 -3.00,-1.19 -2.85,-1.56 -2.63,-1.88 -2.40,-2.19 -2.10,-2.45 -1.80,-2.71 -1.45,-2.88 -1.10,-3.06 -0.72,-3.15 -0.33,-3.23 0.05,-3.23 0.44,-3.22 0.82,-3.12 1.20,-3.02 1.54,-2.83 1.89,-2.65 2.18,-2.38 2.47,-2.11 2.47,-2.11 L 2.47,-2.12 Z"></path></g><g transform="translate(222.8794212283476 197.78351981991523) rotate(0 18.147526241362357 17.521787010317325)" stroke="none"><path fill="#444444" d="M 2.30,-2.30 Q 2.30,-2.30 7.43,1.92 12.55,6.15 15.62,9.21 18.69,12.28 23.35,17.66 28.02,23.03 30.26,25.58 32.50,28.12 35.01,30.42 37.53,32.72 37.87,32.98 38.21,33.24 38.44,33.60 38.68,33.95 38.79,34.36 38.90,34.77 38.88,35.19 38.85,35.62 38.69,36.01 38.53,36.41 38.26,36.73 37.98,37.05 37.61,37.27 37.25,37.48 36.83,37.57 36.42,37.66 35.99,37.61 35.57,37.57 35.19,37.38 34.80,37.20 34.50,36.91 34.19,36.62 33.99,36.24 33.80,35.86 33.73,35.44 33.66,35.02 33.73,34.60 33.81,34.19 34.01,33.81 34.21,33.44 34.52,33.15 34.83,32.86 35.22,32.68 35.60,32.50 36.02,32.46 36.45,32.42 36.86,32.51 37.28,32.60 37.64,32.83 38.00,33.05 38.28,33.37 38.55,33.70 38.70,34.09 38.86,34.49 38.88,34.91 38.90,35.34 38.78,35.75 38.67,36.16 38.43,36.51 38.19,36.86 37.85,37.11 37.51,37.37 37.10,37.50 36.70,37.63 36.27,37.63 35.85,37.63 35.45,37.49 35.05,37.35 35.05,37.35 35.05,37.35 33.36,36.85 31.68,36.34 28.74,35.31 25.80,34.28 23.46,31.63 21.12,28.98 16.70,23.84 12.28,18.69 9.21,15.62 6.15,12.55 1.92,7.43 -2.30,2.30 -2.54,1.99 -2.78,1.68 -2.94,1.32 -3.11,0.96 -3.18,0.58 -3.25,0.19 -3.22,-0.19 -3.20,-0.58 -3.08,-0.96 -2.97,-1.33 -2.76,-1.67 -2.56,-2.00 -2.28,-2.28 -2.00,-2.56 -1.67,-2.76 -1.33,-2.97 -0.96,-3.08 -0.58,-3.20 -0.19,-3.22 0.19,-3.25 0.58,-3.18 0.96,-3.11 1.32,-2.94 1.68,-2.78 1.99,-2.54 2.30,-2.30 2.30,-2.30 L 2.30,-2.30 Z"></path></g><g transform="translate(303.09839439347525 100.55109272000527) rotate(358.64576818843375 21.276394271491313 20.65065504044628)" stroke="none"><path fill="#444444" d="M 2.20,-2.30 Q 2.20,-2.30 10.52,4.81 18.85,11.94 22.58,15.52 26.30,19.09 30.79,23.50 35.28,27.91 37.31,30.28 39.33,32.65 40.57,34.58 41.81,36.51 43.05,37.92 44.29,39.33 44.56,39.66 44.82,39.99 44.97,40.38 45.12,40.78 45.14,41.21 45.15,41.63 45.03,42.04 44.91,42.45 44.66,42.79 44.42,43.14 44.08,43.39 43.73,43.64 43.33,43.77 42.92,43.90 42.50,43.89 42.07,43.88 41.67,43.74 41.27,43.59 40.94,43.33 40.61,43.06 40.37,42.71 40.14,42.35 40.04,41.94 39.93,41.53 39.96,41.10 39.99,40.68 40.16,40.29 40.32,39.90 40.61,39.58 40.89,39.26 41.26,39.05 41.62,38.84 42.04,38.75 42.46,38.67 42.88,38.73 43.30,38.78 43.68,38.97 44.06,39.15 44.37,39.45 44.67,39.75 44.86,40.13 45.05,40.51 45.11,40.93 45.17,41.35 45.10,41.77 45.02,42.18 44.81,42.56 44.61,42.93 44.29,43.21 43.98,43.50 43.59,43.67 43.20,43.84 42.78,43.88 42.35,43.92 41.94,43.82 41.53,43.72 41.17,43.49 40.81,43.26 40.81,43.26 40.81,43.26 39.26,42.21 37.71,41.15 35.18,39.75 32.65,38.35 30.88,36.26 29.11,34.17 24.68,29.79 20.25,25.41 16.53,21.84 12.81,18.27 5.30,10.29 -2.20,2.30 -2.44,2.01 -2.69,1.71 -2.85,1.36 -3.02,1.02 -3.10,0.64 -3.18,0.26 -3.16,-0.11 -3.15,-0.50 -3.04,-0.87 -2.94,-1.24 -2.74,-1.57 -2.55,-1.91 -2.29,-2.18 -2.02,-2.46 -1.70,-2.67 -1.37,-2.88 -1.01,-3.00 -0.64,-3.12 -0.26,-3.15 0.11,-3.19 0.49,-3.12 0.87,-3.06 1.23,-2.91 1.58,-2.76 1.89,-2.53 2.20,-2.30 2.20,-2.30 L 2.20,-2.30 Z"></path></g><g transform="translate(316.4938635971407 89.56053300794838) rotate(352.825084863754 16.895990487637732 19.39909064090432)" stroke="none"><path fill="#444444" d="M 2.31,-2.47 Q 2.31,-2.47 8.05,2.19 13.79,6.86 17.68,11.32 21.58,15.78 25.82,21.90 30.07,28.02 32.97,32.60 35.87,37.19 36.07,37.56 36.27,37.94 36.34,38.36 36.41,38.77 36.35,39.19 36.28,39.61 36.09,39.99 35.89,40.37 35.58,40.66 35.28,40.96 34.89,41.14 34.51,41.32 34.09,41.37 33.66,41.42 33.25,41.33 32.83,41.24 32.47,41.02 32.10,40.81 31.82,40.49 31.55,40.16 31.39,39.77 31.23,39.38 31.20,38.95 31.17,38.53 31.28,38.12 31.40,37.71 31.63,37.35 31.87,37.00 32.20,36.74 32.54,36.48 32.94,36.34 33.34,36.20 33.77,36.20 34.19,36.20 34.60,36.33 35.00,36.46 35.34,36.72 35.68,36.97 35.92,37.32 36.16,37.67 36.28,38.08 36.40,38.49 36.38,38.92 36.36,39.34 36.20,39.74 36.05,40.13 35.77,40.46 35.50,40.78 35.14,41.00 34.78,41.23 34.36,41.32 33.95,41.41 33.52,41.37 33.10,41.33 32.72,41.15 32.33,40.98 32.02,40.69 31.71,40.40 31.71,40.40 31.71,40.40 28.01,36.43 24.31,32.46 19.62,27.01 14.93,21.55 11.36,17.42 7.79,13.28 2.74,7.87 -2.31,2.47 -2.57,2.16 -2.83,1.85 -3.01,1.48 -3.19,1.11 -3.28,0.71 -3.37,0.32 -3.36,-0.08 -3.35,-0.49 -3.24,-0.88 -3.13,-1.28 -2.93,-1.63 -2.73,-1.99 -2.45,-2.29 -2.17,-2.59 -1.83,-2.81 -1.49,-3.03 -1.11,-3.17 -0.72,-3.30 -0.31,-3.34 0.08,-3.38 0.49,-3.32 0.89,-3.26 1.27,-3.11 1.65,-2.95 1.98,-2.71 2.31,-2.47 2.31,-2.47 L 2.31,-2.47 Z"></path></g><g transform="translate(334.727415221804 66.05433347219287) rotate(0 34.41777749795506 7.763508401897866)" stroke="none"><path fill="#444444" d="M -2.18,-2.49 Q -2.18,-2.49 -0.02,-5.34 2.14,-8.19 6.10,-12.09 10.06,-15.98 11.61,-17.85 13.16,-19.72 15.03,-21.73 16.91,-23.75 19.40,-25.72 21.89,-27.68 25.18,-29.15 28.48,-30.62 34.39,-27.81 40.30,-25.00 42.42,-23.53 44.54,-22.05 48.24,-18.35 51.94,-14.65 53.53,-12.65 55.11,-10.65 57.27,-8.69 59.43,-6.74 62.11,-4.31 64.79,-1.88 67.27,0.59 69.75,3.06 71.00,4.79 72.24,6.52 71.79,9.67 71.34,12.83 68.95,17.60 66.57,22.36 63.51,26.98 60.46,31.60 58.00,34.37 55.55,37.15 53.33,39.21 51.11,41.26 49.50,42.66 47.89,44.06 46.12,44.52 44.34,44.98 43.98,45.22 43.63,45.45 43.22,45.56 42.81,45.67 42.38,45.64 41.96,45.62 41.57,45.45 41.17,45.29 40.85,45.02 40.53,44.74 40.31,44.37 40.10,44.00 40.01,43.59 39.92,43.17 39.97,42.75 40.02,42.33 40.21,41.95 40.39,41.56 40.68,41.26 40.98,40.95 41.36,40.75 41.73,40.56 42.15,40.49 42.57,40.43 42.99,40.50 43.41,40.58 43.78,40.78 44.16,40.98 44.45,41.29 44.74,41.60 44.91,41.99 45.09,42.38 45.13,42.80 45.17,43.22 45.07,43.64 44.98,44.05 44.76,44.41 44.53,44.78 44.21,45.05 43.88,45.32 43.48,45.47 43.09,45.63 42.66,45.65 42.24,45.66 41.83,45.55 41.42,45.43 41.07,45.19 40.72,44.95 40.47,44.60 40.22,44.26 40.08,43.86 39.95,43.46 39.96,43.03 39.96,42.61 40.10,42.20 40.24,41.80 40.50,41.47 40.76,41.13 40.76,41.13 40.76,41.13 41.35,39.39 41.94,37.65 43.54,36.07 45.14,34.49 47.08,32.89 49.01,31.29 51.26,28.81 53.50,26.33 56.36,22.02 59.21,17.70 60.86,15.37 62.51,13.04 63.97,11.48 65.42,9.92 63.85,8.45 62.27,6.99 59.84,4.74 57.40,2.49 55.49,1.08 53.58,-0.32 49.63,-4.41 45.67,-8.50 42.60,-11.70 39.53,-14.90 37.58,-16.26 35.63,-17.62 31.38,-19.69 27.13,-21.77 24.98,-19.98 22.84,-18.19 21.13,-16.35 19.41,-14.51 17.61,-12.35 15.80,-10.19 11.86,-6.26 7.93,-2.34 5.05,-0.21 2.18,1.92 1.88,2.14 1.59,2.37 1.25,2.53 0.90,2.68 0.53,2.74 0.17,2.81 -0.20,2.78 -0.57,2.76 -0.93,2.65 -1.28,2.53 -1.60,2.34 -1.92,2.14 -2.19,1.88 -2.45,1.61 -2.64,1.29 -2.83,0.97 -2.94,0.61 -3.05,0.25 -3.07,-0.11 -3.09,-0.49 -3.02,-0.85 -2.95,-1.22 -2.80,-1.56 -2.64,-1.90 -2.41,-2.20 -2.18,-2.49 -2.18,-2.49 L -2.18,-2.49 Z"></path></g><g transform="translate(214.11849907737178 257.85815266484974) rotate(0 -3.7546645528083786 3.128925321763404)" stroke="none"><path fill="#444444" d="M 2.75,-0.85 Q 2.75,-0.85 2.79,-0.16 2.83,0.52 2.55,1.14 2.27,1.77 1.72,2.20 1.18,2.63 0.50,2.75 -0.17,2.88 -0.83,2.67 -1.49,2.46 -1.98,1.98 -2.46,1.49 -2.67,0.83 -2.88,0.17 -2.75,-0.50 -2.63,-1.18 -2.20,-1.72 -1.77,-2.27 -1.14,-2.55 -0.51,-2.83 0.16,-2.79 0.85,-2.75 1.44,-2.39 2.04,-2.04 2.39,-1.44 L 2.75,-0.85 Z"></path></g><g transform="translate(56.42258785941942 161.48846733719074) rotate(0 78.22215908629664 42.552874480434184)" stroke="none"><path fill="#444444" d="M -0.18,-3.25 Q -0.18,-3.25 32.17,-5.51 64.53,-7.77 78.66,-8.53 92.78,-9.29 99.29,-9.25 105.81,-9.20 112.31,-7.26 118.81,-5.32 122.59,-3.75 126.37,-2.18 131.00,-0.05 135.62,2.07 137.43,4.91 139.24,7.75 138.09,11.29 136.94,14.83 131.83,20.04 126.73,25.24 124.86,26.78 122.99,28.31 119.04,30.63 115.09,32.95 113.03,33.92 110.97,34.88 108.79,36.80 106.61,38.71 102.47,42.61 98.34,46.50 95.40,50.26 92.45,54.01 92.04,56.87 91.64,59.73 94.32,61.79 97.00,63.86 103.08,64.39 109.16,64.92 111.60,64.91 114.03,64.91 117.77,64.55 121.51,64.19 123.95,64.03 126.39,63.86 129.86,64.17 133.34,64.47 137.94,66.17 142.55,67.86 143.63,70.84 144.71,73.82 143.09,77.92 141.47,82.03 142.08,84.37 142.68,86.70 146.36,87.07 150.05,87.43 153.53,88.11 157.01,88.79 157.40,88.95 157.79,89.11 158.12,89.38 158.44,89.66 158.66,90.02 158.88,90.39 158.97,90.80 159.06,91.22 159.02,91.64 158.97,92.06 158.79,92.45 158.61,92.83 158.32,93.14 158.03,93.45 157.65,93.65 157.28,93.85 156.86,93.92 156.44,93.99 156.02,93.92 155.60,93.85 155.22,93.65 154.85,93.45 154.56,93.14 154.26,92.83 154.09,92.45 153.91,92.06 153.86,91.64 153.82,91.21 153.91,90.80 154.00,90.38 154.22,90.02 154.44,89.66 154.76,89.38 155.09,89.11 155.48,88.95 155.88,88.79 156.30,88.77 156.72,88.75 157.13,88.86 157.54,88.98 157.90,89.21 158.25,89.45 158.50,89.79 158.76,90.13 158.90,90.53 159.03,90.94 159.03,91.36 159.03,91.79 158.90,92.19 158.76,92.59 158.50,92.93 158.24,93.27 157.89,93.50 157.54,93.74 157.13,93.86 156.72,93.97 156.30,93.95 155.87,93.92 155.87,93.92 155.87,93.92 154.74,94.15 153.61,94.37 149.71,94.62 145.80,94.87 142.06,93.91 138.31,92.95 136.31,91.38 134.30,89.82 133.17,87.12 132.03,84.43 133.41,81.10 134.78,77.77 136.12,75.15 137.46,72.52 135.04,72.42 132.61,72.32 129.75,72.03 126.88,71.75 124.56,71.90 122.23,72.04 118.15,72.41 114.06,72.78 111.63,72.79 109.20,72.80 103.67,72.70 98.15,72.59 95.68,71.67 93.20,70.74 89.14,68.01 85.08,65.28 84.31,62.53 83.54,59.78 84.77,54.34 86.00,48.90 87.94,46.47 89.87,44.04 91.24,42.32 92.61,40.61 96.99,36.52 101.37,32.43 106.22,29.17 111.07,25.90 114.49,24.01 117.92,22.11 119.85,20.52 121.79,18.92 124.98,16.63 128.17,14.34 130.09,11.65 132.01,8.95 129.67,7.80 127.32,6.64 125.30,5.96 123.28,5.28 119.86,3.87 116.43,2.46 111.04,0.77 105.66,-0.90 99.45,-0.93 93.23,-0.95 79.11,-0.19 64.99,0.57 32.59,1.91 0.18,3.25 -0.21,3.23 -0.60,3.20 -0.97,3.08 -1.35,2.97 -1.69,2.76 -2.02,2.56 -2.30,2.28 -2.57,2.00 -2.78,1.66 -2.98,1.32 -3.09,0.94 -3.21,0.57 -3.23,0.17 -3.25,-0.21 -3.18,-0.60 -3.11,-0.98 -2.94,-1.34 -2.78,-1.70 -2.54,-2.01 -2.29,-2.32 -1.98,-2.56 -1.67,-2.80 -1.31,-2.96 -0.95,-3.12 -0.56,-3.19 -0.18,-3.25 -0.18,-3.25 L -0.18,-3.25 Z"></path></g><g transform="translate(335.5193578125993 167.7462033974482) rotate(0 16.895990487637732 13.14132593482941)" stroke="none"><path fill="#444444" d="M 1.94,-2.48 Q 1.94,-2.48 7.28,1.10 12.61,4.68 14.90,6.85 17.20,9.01 21.26,12.25 25.32,15.49 28.39,17.49 31.46,19.48 33.12,21.04 34.78,22.60 35.14,22.82 35.51,23.04 35.78,23.37 36.05,23.69 36.20,24.09 36.36,24.49 36.38,24.91 36.40,25.34 36.28,25.74 36.16,26.15 35.92,26.50 35.68,26.85 35.34,27.10 34.99,27.36 34.59,27.49 34.19,27.62 33.76,27.62 33.34,27.61 32.94,27.47 32.53,27.33 32.20,27.07 31.86,26.81 31.63,26.46 31.39,26.11 31.28,25.69 31.17,25.28 31.20,24.86 31.23,24.44 31.39,24.04 31.55,23.65 31.83,23.33 32.11,23.01 32.47,22.79 32.84,22.58 33.25,22.49 33.67,22.40 34.09,22.45 34.51,22.50 34.90,22.68 35.28,22.87 35.59,23.16 35.89,23.46 36.09,23.83 36.28,24.21 36.35,24.63 36.41,25.05 36.34,25.47 36.27,25.89 36.06,26.26 35.86,26.64 35.55,26.93 35.24,27.21 34.85,27.39 34.46,27.56 34.04,27.61 33.62,27.65 33.20,27.55 32.79,27.46 32.79,27.46 32.79,27.46 29.72,27.07 26.65,26.69 23.31,24.37 19.98,22.04 15.74,18.51 11.51,14.98 9.52,13.06 7.53,11.14 2.79,6.81 -1.94,2.48 -2.21,2.21 -2.48,1.94 -2.68,1.61 -2.87,1.29 -2.99,0.92 -3.10,0.56 -3.12,0.18 -3.15,-0.19 -3.08,-0.56 -3.01,-0.94 -2.85,-1.29 -2.69,-1.63 -2.46,-1.93 -2.22,-2.23 -1.92,-2.46 -1.62,-2.70 -1.28,-2.85 -0.93,-3.01 -0.56,-3.08 -0.18,-3.15 0.19,-3.12 0.57,-3.10 0.93,-2.98 1.29,-2.87 1.62,-2.67 1.95,-2.48 1.95,-2.48 L 1.94,-2.48 Z"></path></g><g transform="translate(371.814410295324 192.77731951338228) rotate(0 -13.141325934829297 38.17241340494627)" stroke="none"><path fill="#444444" d="M 3.18,0.26 Q 3.18,0.26 3.23,4.61 3.29,8.97 3.15,11.48 3.00,13.99 1.17,22.95 -0.66,31.91 -1.84,36.08 -3.03,40.24 -6.09,47.61 -9.15,54.97 -10.40,58.28 -11.64,61.59 -14.07,66.18 -16.50,70.78 -17.99,73.15 -19.48,75.53 -22.19,76.43 -24.91,77.33 -25.30,77.49 -25.69,77.65 -26.12,77.68 -26.54,77.70 -26.95,77.59 -27.36,77.48 -27.72,77.24 -28.07,77.01 -28.33,76.67 -28.59,76.34 -28.73,75.93 -28.87,75.53 -28.87,75.11 -28.87,74.68 -28.74,74.28 -28.61,73.88 -28.35,73.54 -28.10,73.19 -27.75,72.95 -27.40,72.71 -26.99,72.60 -26.58,72.48 -26.16,72.50 -25.73,72.52 -25.34,72.67 -24.94,72.83 -24.61,73.10 -24.29,73.37 -24.07,73.74 -23.84,74.10 -23.75,74.51 -23.66,74.93 -23.70,75.35 -23.74,75.77 -23.92,76.16 -24.09,76.55 -24.38,76.86 -24.67,77.17 -25.05,77.37 -25.42,77.57 -25.84,77.64 -26.26,77.71 -26.68,77.65 -27.10,77.58 -27.48,77.39 -27.85,77.19 -28.15,76.88 -28.44,76.58 -28.62,76.19 -28.80,75.81 -28.85,75.39 -28.90,74.97 -28.81,74.55 -28.72,74.13 -28.51,73.77 -28.29,73.40 -27.97,73.12 -27.65,72.85 -27.65,72.85 -27.65,72.85 -27.11,71.76 -26.56,70.66 -25.34,68.65 -24.12,66.64 -21.86,62.60 -19.61,58.57 -18.30,55.11 -16.99,51.65 -14.03,44.79 -11.08,37.94 -9.96,34.04 -8.84,30.14 -6.95,21.82 -5.05,13.49 -4.89,10.89 -4.73,8.30 -3.95,4.01 -3.18,-0.26 -3.10,-0.64 -3.02,-1.01 -2.85,-1.36 -2.69,-1.71 -2.44,-2.01 -2.20,-2.30 -1.89,-2.53 -1.58,-2.76 -1.23,-2.91 -0.88,-3.06 -0.50,-3.12 -0.12,-3.19 0.26,-3.15 0.64,-3.12 1.01,-3.00 1.37,-2.88 1.70,-2.67 2.02,-2.46 2.29,-2.18 2.55,-1.91 2.74,-1.57 2.94,-1.24 3.04,-0.87 3.15,-0.50 3.16,-0.11 3.18,0.26 3.18,0.26 L 3.18,0.26 Z"></path></g><g transform="translate(396.8454691196241 191.52578375965777) rotate(0 -16.270193964958253 46.307510387425395)" stroke="none"><path fill="#444444" d="M 3.08,0.09 Q 3.08,0.09 3.21,11.98 3.34,23.87 2.48,32.33 1.63,40.79 -3.51,53.52 -8.66,66.24 -11.20,71.86 -13.74,77.48 -18.81,82.46 -23.88,87.44 -27.22,90.90 -30.57,94.35 -30.90,94.62 -31.23,94.89 -31.62,95.04 -32.02,95.19 -32.45,95.20 -32.87,95.22 -33.28,95.09 -33.69,94.97 -34.03,94.73 -34.38,94.48 -34.63,94.14 -34.88,93.79 -35.01,93.39 -35.14,92.98 -35.13,92.56 -35.12,92.13 -34.97,91.73 -34.83,91.33 -34.57,91.00 -34.30,90.67 -33.95,90.44 -33.59,90.20 -33.18,90.10 -32.77,89.99 -32.34,90.03 -31.92,90.06 -31.53,90.22 -31.14,90.39 -30.82,90.67 -30.50,90.95 -30.29,91.32 -30.08,91.69 -29.99,92.10 -29.91,92.52 -29.96,92.94 -30.02,93.36 -30.21,93.75 -30.39,94.13 -30.69,94.43 -30.99,94.73 -31.37,94.92 -31.75,95.12 -32.17,95.18 -32.59,95.24 -33.01,95.16 -33.42,95.08 -33.80,94.88 -34.17,94.67 -34.45,94.35 -34.74,94.04 -34.91,93.65 -35.08,93.26 -35.12,92.84 -35.15,92.42 -35.06,92.00 -34.96,91.59 -34.73,91.23 -34.50,90.87 -34.50,90.87 -34.50,90.87 -31.49,87.13 -28.47,83.39 -24.93,78.63 -21.40,73.88 -18.93,68.45 -16.45,63.01 -11.50,51.42 -6.56,39.83 -5.67,31.73 -4.78,23.62 -3.93,11.76 -3.08,-0.09 -3.03,-0.46 -2.97,-0.83 -2.83,-1.17 -2.69,-1.51 -2.47,-1.81 -2.25,-2.11 -1.96,-2.35 -1.67,-2.59 -1.34,-2.75 -1.00,-2.92 -0.64,-2.99 -0.27,-3.07 0.09,-3.06 0.46,-3.05 0.82,-2.95 1.18,-2.85 1.50,-2.67 1.83,-2.48 2.10,-2.23 2.37,-1.97 2.57,-1.66 2.77,-1.35 2.90,-1.00 3.02,-0.64 3.05,-0.27 3.08,0.09 3.08,0.09 L 3.08,0.09 Z"></path></g><g transform="translate(275.1839334478227 126.86209099834218) rotate(0 -30.87167359161691 34.6263572416367)" stroke="none"><path fill="#444444" d="M 0.69,3.00 Q 0.69,3.00 -2.27,4.38 -5.23,5.77 -9.29,6.50 -13.34,7.22 -16.80,8.24 -20.25,9.26 -23.82,10.70 -27.38,12.15 -31.22,14.23 -35.07,16.32 -38.00,18.09 -40.94,19.86 -44.21,22.01 -47.48,24.17 -49.91,26.15 -52.33,28.13 -54.11,29.72 -55.89,31.31 -56.43,33.71 -56.96,36.10 -57.03,38.58 -57.10,41.05 -56.53,43.32 -55.97,45.60 -54.96,48.02 -53.96,50.45 -52.75,53.87 -51.55,57.29 -50.99,60.06 -50.44,62.84 -50.68,65.59 -50.93,68.35 -50.85,68.77 -50.77,69.18 -50.83,69.61 -50.89,70.03 -51.08,70.41 -51.27,70.79 -51.57,71.09 -51.87,71.39 -52.25,71.57 -52.63,71.76 -53.05,71.82 -53.47,71.87 -53.89,71.79 -54.31,71.71 -54.68,71.50 -55.05,71.29 -55.33,70.97 -55.61,70.66 -55.78,70.26 -55.95,69.87 -55.98,69.45 -56.01,69.03 -55.91,68.61 -55.80,68.20 -55.57,67.84 -55.34,67.49 -55.01,67.22 -54.68,66.96 -54.28,66.81 -53.88,66.67 -53.46,66.66 -53.03,66.65 -52.63,66.77 -52.22,66.90 -51.88,67.15 -51.53,67.40 -51.28,67.74 -51.04,68.09 -50.91,68.50 -50.79,68.90 -50.80,69.33 -50.82,69.75 -50.96,70.15 -51.11,70.55 -51.38,70.88 -51.65,71.21 -52.01,71.44 -52.36,71.66 -52.78,71.77 -53.19,71.87 -53.61,71.83 -54.04,71.79 -54.43,71.63 -54.82,71.46 -55.13,71.17 -55.45,70.89 -55.66,70.52 -55.86,70.15 -55.86,70.15 -55.86,70.15 -57.64,68.53 -59.42,66.91 -59.98,63.60 -60.55,60.29 -61.54,57.12 -62.53,53.95 -63.57,51.37 -64.62,48.80 -65.47,44.86 -66.31,40.92 -66.22,38.18 -66.14,35.44 -65.85,33.04 -65.57,30.63 -64.13,27.92 -62.69,25.20 -60.55,23.26 -58.41,21.33 -55.40,18.90 -52.40,16.47 -49.02,14.26 -45.64,12.05 -42.46,10.12 -39.27,8.20 -35.32,6.09 -31.37,3.97 -26.97,2.23 -22.58,0.49 -18.67,-0.57 -14.76,-1.64 -11.00,-2.27 -7.23,-2.89 -3.96,-2.94 -0.69,-3.00 -0.32,-3.04 0.04,-3.08 0.41,-3.03 0.78,-2.98 1.12,-2.84 1.47,-2.70 1.77,-2.49 2.07,-2.27 2.32,-1.99 2.56,-1.71 2.73,-1.38 2.89,-1.05 2.98,-0.68 3.06,-0.32 3.06,0.04 3.05,0.41 2.96,0.77 2.86,1.13 2.68,1.46 2.51,1.78 2.26,2.06 2.00,2.33 1.70,2.54 1.39,2.75 1.04,2.87 0.69,3.00 0.69,3.00 L 0.69,3.00 Z"></path></g><g transform="translate(320.73100077165077 76.67331631925163) rotate(0 24.613899336936242 22.945184998636705)" stroke="none"><path fill="#444444" d="M 1.78,-2.61 Q 1.78,-2.61 6.71,-0.03 11.64,2.53 13.87,3.74 16.10,4.95 19.95,7.53 23.80,10.12 27.41,12.94 31.02,15.77 32.77,17.20 34.53,18.63 36.75,21.19 38.97,23.74 41.64,26.52 44.32,29.30 46.46,32.45 48.60,35.60 49.56,39.18 50.51,42.76 50.84,43.03 51.17,43.29 51.40,43.65 51.63,44.01 51.74,44.42 51.84,44.83 51.81,45.25 51.77,45.68 51.61,46.07 51.44,46.46 51.16,46.78 50.87,47.09 50.50,47.30 50.14,47.51 49.72,47.60 49.30,47.68 48.88,47.62 48.46,47.56 48.08,47.38 47.70,47.19 47.39,46.89 47.09,46.59 46.90,46.21 46.71,45.83 46.66,45.41 46.60,44.99 46.68,44.57 46.75,44.15 46.96,43.78 47.17,43.41 47.49,43.13 47.80,42.84 48.19,42.67 48.58,42.50 49.01,42.47 49.43,42.43 49.84,42.53 50.25,42.64 50.61,42.86 50.97,43.09 51.24,43.42 51.51,43.75 51.65,44.15 51.80,44.55 51.81,44.97 51.83,45.40 51.70,45.81 51.58,46.21 51.33,46.56 51.08,46.90 50.74,47.15 50.40,47.40 49.99,47.53 49.58,47.65 49.16,47.64 48.73,47.63 48.34,47.49 47.94,47.34 47.94,47.34 47.94,47.34 44.53,43.98 41.12,40.62 39.34,37.96 37.57,35.30 34.83,32.45 32.08,29.60 30.44,27.60 28.80,25.61 27.12,24.24 25.44,22.86 22.09,20.22 18.75,17.58 15.27,15.20 11.78,12.82 9.18,11.38 6.58,9.94 2.39,6.27 -1.78,2.61 -2.07,2.35 -2.35,2.10 -2.57,1.79 -2.79,1.48 -2.93,1.12 -3.06,0.76 -3.11,0.39 -3.16,0.01 -3.11,-0.36 -3.07,-0.74 -2.94,-1.10 -2.80,-1.45 -2.59,-1.77 -2.37,-2.08 -2.09,-2.34 -1.80,-2.59 -1.47,-2.77 -1.13,-2.95 -0.76,-3.04 -0.39,-3.13 -0.01,-3.14 0.36,-3.14 0.73,-3.05 1.10,-2.96 1.44,-2.78 1.78,-2.61 1.78,-2.61 L 1.78,-2.61 Z"></path></g><g transform="translate(221.48148116936454 195.34926991603515) rotate(0 39.94899856074653 -45.894899700149836)" stroke="none"><path fill="#444444" d="M -2.39,-1.99 Q -2.39,-1.99 -1.29,-4.33 -0.19,-6.67 1.89,-9.12 3.97,-11.56 5.98,-13.73 7.99,-15.89 11.16,-19.17 14.34,-22.44 15.93,-24.05 17.53,-25.66 20.42,-28.62 23.31,-31.58 25.62,-34.42 27.92,-37.26 30.58,-40.62 33.23,-43.98 35.97,-47.51 38.71,-51.04 41.33,-54.10 43.95,-57.17 46.09,-59.99 48.24,-62.82 49.83,-64.97 51.42,-67.12 53.38,-69.66 55.35,-72.21 57.62,-74.84 59.89,-77.46 62.13,-79.71 64.37,-81.96 66.11,-83.79 67.86,-85.61 69.43,-87.31 71.01,-89.01 73.61,-89.93 76.21,-90.85 76.19,-91.27 76.17,-91.69 76.28,-92.10 76.39,-92.51 76.63,-92.87 76.87,-93.22 77.21,-93.48 77.55,-93.73 77.95,-93.87 78.35,-94.00 78.78,-94.01 79.20,-94.01 79.60,-93.87 80.01,-93.74 80.34,-93.48 80.68,-93.22 80.92,-92.87 81.16,-92.52 81.28,-92.11 81.39,-91.70 81.37,-91.28 81.34,-90.85 81.19,-90.46 81.03,-90.06 80.76,-89.74 80.48,-89.41 80.12,-89.19 79.75,-88.97 79.34,-88.88 78.92,-88.79 78.50,-88.84 78.08,-88.88 77.69,-89.06 77.31,-89.24 77.00,-89.53 76.69,-89.82 76.49,-90.20 76.29,-90.57 76.22,-90.99 76.15,-91.41 76.22,-91.83 76.29,-92.25 76.49,-92.63 76.69,-93.00 76.99,-93.29 77.30,-93.59 77.69,-93.76 78.07,-93.94 78.50,-93.99 78.92,-94.04 79.33,-93.95 79.75,-93.85 80.11,-93.64 80.48,-93.42 80.75,-93.09 81.03,-92.77 81.19,-92.37 81.34,-91.98 81.34,-91.98 81.34,-91.98 79.48,-87.52 77.61,-83.06 75.92,-81.24 74.22,-79.42 72.38,-77.43 70.53,-75.45 68.55,-73.48 66.56,-71.50 64.49,-69.10 62.42,-66.69 60.59,-64.33 58.76,-61.96 57.07,-59.66 55.37,-57.36 53.14,-54.42 50.90,-51.49 48.31,-48.45 45.72,-45.41 43.02,-41.94 40.32,-38.47 37.68,-35.12 35.03,-31.76 32.28,-28.46 29.54,-25.16 26.69,-22.28 23.84,-19.39 22.25,-17.79 20.67,-16.20 17.57,-13.03 14.48,-9.86 12.60,-7.83 10.71,-5.80 8.65,-3.40 6.60,-1.01 4.49,0.48 2.39,1.99 2.11,2.24 1.84,2.50 1.51,2.69 1.19,2.87 0.82,2.97 0.46,3.07 0.09,3.08 -0.28,3.09 -0.64,3.02 -1.01,2.94 -1.35,2.77 -1.68,2.61 -1.97,2.37 -2.26,2.13 -2.48,1.83 -2.71,1.52 -2.85,1.18 -2.99,0.83 -3.05,0.46 -3.11,0.09 -3.07,-0.27 -3.04,-0.65 -2.92,-1.00 -2.79,-1.36 -2.59,-1.67 -2.39,-1.99 -2.39,-1.99 L -2.39,-1.99 Z"></path></g><g transform="translate(271.27836812595547 219.13285746229735) rotate(0 36.604447775997755 -40.13481355320255)" stroke="none"><path fill="#444444" d="M -2.54,-1.73 Q -2.54,-1.73 -1.27,-4.31 -0.00,-6.89 1.66,-9.25 3.34,-11.61 8.97,-17.68 14.60,-23.74 16.98,-26.09 19.36,-28.43 21.94,-31.06 24.52,-33.70 27.35,-36.82 30.17,-39.94 32.29,-42.16 34.41,-44.37 36.11,-46.18 37.82,-47.99 39.32,-49.77 40.83,-51.55 42.89,-53.64 44.94,-55.73 46.95,-58.14 48.96,-60.54 51.30,-63.25 53.63,-65.96 55.37,-67.95 57.11,-69.95 59.77,-72.84 62.43,-75.72 64.28,-77.44 66.12,-79.16 68.16,-79.76 70.21,-80.37 70.29,-80.79 70.38,-81.20 70.59,-81.57 70.81,-81.94 71.13,-82.22 71.45,-82.50 71.84,-82.66 72.23,-82.82 72.66,-82.85 73.08,-82.88 73.49,-82.77 73.90,-82.66 74.26,-82.43 74.61,-82.20 74.87,-81.86 75.14,-81.53 75.28,-81.12 75.42,-80.72 75.42,-80.30 75.43,-79.87 75.30,-79.47 75.17,-79.06 74.92,-78.72 74.66,-78.38 74.31,-78.14 73.97,-77.90 73.56,-77.78 73.15,-77.66 72.73,-77.67 72.30,-77.69 71.90,-77.84 71.51,-78.00 71.18,-78.27 70.85,-78.54 70.63,-78.90 70.41,-79.26 70.31,-79.67 70.21,-80.09 70.25,-80.51 70.29,-80.93 70.47,-81.32 70.64,-81.71 70.93,-82.02 71.22,-82.33 71.59,-82.54 71.96,-82.74 72.38,-82.82 72.80,-82.89 73.22,-82.83 73.64,-82.76 74.02,-82.57 74.39,-82.38 74.69,-82.07 74.99,-81.77 75.17,-81.38 75.35,-81.00 75.41,-80.58 75.46,-80.16 75.46,-80.16 75.46,-80.16 73.32,-77.02 71.19,-73.88 69.41,-72.25 67.64,-70.62 65.05,-67.81 62.47,-64.99 60.80,-63.03 59.14,-61.08 56.95,-58.40 54.75,-55.73 52.63,-53.14 50.50,-50.55 48.70,-48.59 46.89,-46.63 45.24,-44.69 43.59,-42.74 41.81,-40.82 40.02,-38.90 38.01,-36.77 35.99,-34.64 33.10,-31.42 30.22,-28.20 27.60,-25.45 24.99,-22.71 22.68,-20.44 20.37,-18.16 15.03,-12.62 9.69,-7.08 8.05,-4.79 6.41,-2.51 4.48,-0.38 2.54,1.73 2.29,2.01 2.05,2.29 1.74,2.50 1.44,2.71 1.09,2.84 0.75,2.98 0.38,3.02 0.01,3.07 -0.35,3.03 -0.71,2.99 -1.06,2.86 -1.41,2.73 -1.72,2.52 -2.02,2.31 -2.27,2.03 -2.52,1.76 -2.69,1.43 -2.87,1.10 -2.96,0.74 -3.05,0.38 -3.05,0.01 -3.05,-0.35 -2.96,-0.71 -2.88,-1.07 -2.71,-1.40 -2.54,-1.73 -2.54,-1.73 L -2.54,-1.73 Z"></path></g><g transform="translate(210.33292184903053 256.29473320431157) rotate(0 5.945892633727681 -27.12816384803807)" stroke="none"><path fill="#444444" d="M -2.97,-0.52 Q -2.97,-0.52 -2.72,-4.22 -2.47,-7.92 -1.28,-13.73 -0.09,-19.54 0.68,-23.13 1.47,-26.72 2.39,-30.61 3.32,-34.49 4.10,-37.63 4.87,-40.77 5.38,-43.32 5.90,-45.86 6.34,-47.98 6.79,-50.10 8.28,-52.95 9.76,-55.80 10.06,-56.09 10.37,-56.39 10.75,-56.58 11.13,-56.77 11.55,-56.82 11.97,-56.88 12.39,-56.79 12.81,-56.71 13.18,-56.50 13.54,-56.29 13.83,-55.97 14.11,-55.65 14.27,-55.26 14.44,-54.87 14.47,-54.45 14.50,-54.02 14.40,-53.61 14.29,-53.20 14.06,-52.84 13.83,-52.49 13.50,-52.22 13.17,-51.96 12.77,-51.81 12.37,-51.67 11.94,-51.66 11.52,-51.65 11.11,-51.78 10.71,-51.90 10.36,-52.15 10.02,-52.40 9.77,-52.75 9.53,-53.10 9.40,-53.50 9.28,-53.91 9.30,-54.34 9.31,-54.76 9.46,-55.16 9.61,-55.56 9.88,-55.89 10.14,-56.22 10.50,-56.44 10.86,-56.67 11.28,-56.77 11.69,-56.87 12.11,-56.83 12.54,-56.80 12.93,-56.63 13.31,-56.46 13.63,-56.17 13.94,-55.88 14.15,-55.51 14.36,-55.14 14.44,-54.72 14.51,-54.31 14.45,-53.89 14.39,-53.47 14.20,-53.09 14.01,-52.71 14.01,-52.71 14.01,-52.71 14.11,-51.38 14.21,-50.05 13.73,-47.26 13.25,-44.46 12.69,-41.65 12.13,-38.83 11.37,-35.72 10.61,-32.61 9.74,-28.87 8.88,-25.13 8.13,-21.56 7.38,-18.00 6.21,-12.30 5.04,-6.60 4.00,-3.03 2.97,0.52 2.86,0.87 2.75,1.22 2.57,1.53 2.38,1.84 2.13,2.10 1.87,2.36 1.56,2.55 1.25,2.74 0.90,2.85 0.56,2.96 0.20,2.98 -0.16,3.01 -0.52,2.95 -0.87,2.88 -1.21,2.73 -1.54,2.59 -1.83,2.37 -2.11,2.14 -2.34,1.86 -2.57,1.57 -2.72,1.24 -2.87,0.91 -2.94,0.55 -3.01,0.20 -2.99,-0.16 -2.97,-0.52 -2.97,-0.52 L -2.97,-0.52 Z"></path></g><g transform="translate(211.4477777810638 253.32179539312324) rotate(0 8.918847456267201 -4.273625747028859)" stroke="none"><path fill="#444444" d="M -1.27,-2.54 Q -1.27,-2.54 0.68,-3.98 2.63,-5.41 4.75,-6.42 6.86,-7.43 9.75,-8.84 12.63,-10.25 14.97,-10.68 17.31,-11.12 17.73,-11.13 18.16,-11.15 18.56,-11.03 18.97,-10.91 19.32,-10.67 19.67,-10.42 19.92,-10.08 20.17,-9.74 20.30,-9.33 20.43,-8.93 20.42,-8.50 20.42,-8.08 20.28,-7.68 20.13,-7.28 19.87,-6.94 19.61,-6.61 19.25,-6.38 18.90,-6.14 18.49,-6.03 18.08,-5.93 17.65,-5.96 17.23,-5.99 16.84,-6.15 16.44,-6.31 16.13,-6.59 15.81,-6.87 15.59,-7.24 15.38,-7.61 15.29,-8.02 15.21,-8.44 15.26,-8.86 15.31,-9.28 15.50,-9.67 15.68,-10.05 15.98,-10.35 16.27,-10.66 16.65,-10.85 17.03,-11.04 17.45,-11.11 17.87,-11.17 18.29,-11.09 18.71,-11.02 19.08,-10.81 19.45,-10.61 19.74,-10.30 20.03,-9.98 20.20,-9.59 20.37,-9.21 20.41,-8.78 20.45,-8.36 20.36,-7.95 20.26,-7.53 20.03,-7.17 19.81,-6.81 19.48,-6.54 19.15,-6.27 18.76,-6.12 18.36,-5.97 18.36,-5.97 18.36,-5.97 17.11,-4.81 15.87,-3.66 12.94,-2.22 10.01,-0.79 7.96,0.17 5.91,1.14 3.59,1.84 1.27,2.54 0.95,2.66 0.62,2.77 0.28,2.81 -0.05,2.84 -0.39,2.80 -0.73,2.75 -1.05,2.62 -1.37,2.49 -1.65,2.29 -1.93,2.09 -2.15,1.83 -2.37,1.57 -2.52,1.26 -2.68,0.95 -2.75,0.62 -2.83,0.28 -2.82,-0.05 -2.82,-0.39 -2.73,-0.73 -2.64,-1.06 -2.47,-1.36 -2.31,-1.66 -2.07,-1.91 -1.84,-2.16 -1.56,-2.35 -1.27,-2.54 -1.27,-2.54 L -1.27,-2.54 Z"></path></g><g transform="translate(188.77770505363515 257.0001999608951) rotate(0 5.475163823430989 11.406584336783567)" stroke="none"><path fill="#ced4da" d="M 2.57,-0.85 Q 2.57,-0.85 4.34,2.05 6.10,4.96 7.01,8.06 7.92,11.17 9.21,13.17 10.50,15.17 11.73,18.14 12.96,21.12 13.17,21.48 13.39,21.85 13.48,22.26 13.57,22.68 13.52,23.10 13.47,23.52 13.29,23.91 13.11,24.29 12.82,24.60 12.52,24.91 12.15,25.10 11.77,25.30 11.35,25.37 10.93,25.43 10.51,25.36 10.09,25.29 9.72,25.09 9.34,24.89 9.05,24.58 8.76,24.27 8.59,23.88 8.41,23.50 8.37,23.07 8.32,22.65 8.42,22.24 8.51,21.82 8.73,21.46 8.95,21.10 9.28,20.82 9.60,20.55 10.00,20.39 10.39,20.24 10.82,20.22 11.24,20.20 11.65,20.31 12.06,20.43 12.41,20.67 12.76,20.91 13.02,21.25 13.27,21.59 13.41,21.99 13.54,22.40 13.54,22.82 13.53,23.25 13.40,23.65 13.26,24.05 13.00,24.39 12.74,24.73 12.39,24.96 12.03,25.20 11.62,25.31 11.21,25.42 10.79,25.40 10.37,25.37 9.97,25.21 9.58,25.05 9.26,24.77 8.93,24.50 8.93,24.50 8.93,24.50 6.79,23.20 4.65,21.91 3.28,19.92 1.92,17.94 0.89,15.81 -0.13,13.68 -1.02,10.65 -1.91,7.63 -2.24,4.24 -2.57,0.85 -2.64,0.53 -2.70,0.21 -2.69,-0.10 -2.68,-0.43 -2.58,-0.75 -2.49,-1.06 -2.33,-1.34 -2.17,-1.63 -1.94,-1.86 -1.71,-2.10 -1.43,-2.27 -1.16,-2.45 -0.85,-2.55 -0.54,-2.66 -0.21,-2.68 0.11,-2.71 0.43,-2.66 0.75,-2.60 1.05,-2.47 1.35,-2.35 1.62,-2.15 1.88,-1.95 2.08,-1.70 2.29,-1.45 2.43,-1.15 2.57,-0.85 2.57,-0.85 L 2.57,-0.85 Z"></path></g><g transform="translate(183.30254123020427 263.3878771641696) rotate(0 9.125259114989944 10.950327646861865)" stroke="none"><path fill="#ced4da" d="M 2.91,-0.64 Q 2.91,-0.64 3.87,1.59 4.83,3.83 6.22,6.17 7.61,8.51 8.76,10.43 9.91,12.36 11.74,14.67 13.56,16.99 14.72,15.67 15.88,14.36 16.13,14.02 16.37,13.67 16.71,13.42 17.06,13.17 17.46,13.04 17.87,12.91 18.29,12.92 18.72,12.92 19.12,13.07 19.52,13.21 19.85,13.47 20.18,13.74 20.42,14.09 20.65,14.45 20.75,14.86 20.86,15.27 20.83,15.69 20.80,16.12 20.64,16.51 20.47,16.90 20.19,17.22 19.91,17.54 19.54,17.75 19.17,17.96 18.76,18.05 18.34,18.13 17.92,18.08 17.50,18.03 17.12,17.84 16.73,17.66 16.43,17.36 16.13,17.06 15.93,16.68 15.74,16.30 15.68,15.88 15.62,15.46 15.70,15.04 15.77,14.63 15.98,14.25 16.18,13.88 16.50,13.59 16.81,13.31 17.20,13.14 17.59,12.97 18.01,12.93 18.43,12.89 18.85,12.99 19.26,13.09 19.62,13.31 19.98,13.54 20.25,13.87 20.52,14.19 20.67,14.59 20.82,14.99 20.84,15.41 20.85,15.84 20.73,16.25 20.61,16.65 20.61,16.65 20.61,16.65 20.13,18.66 19.64,20.67 15.94,22.99 12.23,25.32 9.28,23.23 6.33,21.15 4.68,18.78 3.03,16.41 1.82,14.35 0.62,12.29 -1.05,8.94 -2.73,5.60 -2.82,3.12 -2.91,0.64 -2.95,0.28 -2.98,-0.06 -2.93,-0.42 -2.88,-0.78 -2.74,-1.11 -2.61,-1.44 -2.40,-1.74 -2.19,-2.03 -1.91,-2.26 -1.64,-2.49 -1.31,-2.65 -0.99,-2.81 -0.64,-2.89 -0.29,-2.97 0.06,-2.96 0.42,-2.95 0.77,-2.86 1.12,-2.76 1.43,-2.59 1.75,-2.41 2.01,-2.17 2.28,-1.92 2.47,-1.62 2.67,-1.32 2.79,-0.98 2.91,-0.64 2.91,-0.64 L 2.91,-0.64 Z"></path></g></svg>