<?xml version="1.0" encoding="UTF-8" standalone="no"?>
<svg
   version="1.1"
   viewBox="0 0 456.66664123535156 315"
   width="1369.9999237060547"
   height="945"
   id="svg5784"
   sodipodi:docname="Proj_HandDrawing_Hover.svg"
   inkscape:version="1.2.1 (9c6d41e410, 2022-07-14)"
   xmlns:inkscape="http://www.inkscape.org/namespaces/inkscape"
   xmlns:sodipodi="http://sodipodi.sourceforge.net/DTD/sodipodi-0.dtd"
   xmlns="http://www.w3.org/2000/svg"
   xmlns:svg="http://www.w3.org/2000/svg">
  <sodipodi:namedview
     id="namedview5786"
     pagecolor="#ffffff"
     bordercolor="#000000"
     borderopacity="0.25"
     inkscape:showpageshadow="2"
     inkscape:pageopacity="0.0"
     inkscape:pagecheckerboard="0"
     inkscape:deskcolor="#d1d1d1"
     showgrid="false"
     inkscape:zoom="0.29481489"
     inkscape:cx="-844.59777"
     inkscape:cy="400.25115"
     inkscape:window-width="1920"
     inkscape:window-height="986"
     inkscape:window-x="-11"
     inkscape:window-y="-11"
     inkscape:window-maximized="1"
     inkscape:current-layer="svg5784" />
  <!-- svg-source:excalidraw -->
  <defs
     id="defs5682">
    <style
       class="style-fonts"
       id="style5680">
      @font-face {
        font-family: &quot;Virgil&quot;;
        src: url(&quot;https://excalidraw.com/Virgil.woff2&quot;);
      }
      @font-face {
        font-family: &quot;Cascadia&quot;;
        src: url(&quot;https://excalidraw.com/Cascadia.woff2&quot;);
      }
    </style>
  </defs>
  <g
     transform="translate(239.99685149156016 189.32635695713316) rotate(0 -19.70116067192663 43.34252396324382)"
     stroke="none"
     id="g5686"
     style="fill:#fcd069;fill-opacity:1">
    <path
       fill="#ced4da"
       d="M 4.48,3.69 Q 4.48,3.69 2.60,8.01 0.71,12.33 -2.07,16.35 -4.86,20.37 -7.38,25.43 -9.90,30.48 -12.13,35.32 -14.36,40.16 -16.16,44.11 -17.97,48.07 -20.82,53.39 -23.67,58.71 -24.98,63.00 -26.29,67.30 -27.60,72.54 -28.90,77.79 -34.50,78.86 -40.10,79.94 -37.00,78.03 -33.91,76.13 -33.26,75.59 -32.60,75.04 -31.81,74.74 -31.02,74.43 -30.17,74.39 -29.32,74.35 -28.50,74.59 -27.69,74.83 -26.99,75.31 -26.29,75.79 -25.78,76.48 -25.27,77.16 -25.01,77.97 -24.75,78.77 -24.76,79.62 -24.77,80.47 -25.04,81.28 -25.32,82.08 -25.85,82.75 -26.37,83.42 -27.08,83.89 -27.78,84.36 -28.60,84.58 -29.43,84.80 -30.27,84.74 -31.12,84.69 -31.91,84.37 -32.69,84.04 -33.34,83.49 -33.98,82.93 -34.41,82.20 -34.84,81.46 -35.01,80.63 -35.19,79.80 -35.09,78.96 -34.99,78.11 -34.62,77.35 -34.26,76.58 -33.67,75.97 -33.08,75.36 -32.32,74.97 -31.57,74.57 -30.73,74.45 -29.89,74.32 -29.05,74.46 -28.21,74.61 -27.46,75.02 -26.72,75.42 -26.14,76.04 -25.56,76.67 -25.21,77.44 -24.86,78.22 -24.78,79.06 -24.70,79.91 -24.89,80.74 -25.08,81.57 -25.53,82.29 -25.97,83.01 -25.97,83.01 -25.97,83.01 -28.73,87.85 -31.48,92.69 -37.16,92.57 -42.85,92.44 -45.36,88.80 -47.86,85.17 -47.24,78.77 -46.63,72.37 -45.33,67.78 -44.04,63.19 -41.75,56.44 -39.46,49.68 -36.99,45.10 -34.52,40.52 -32.55,36.40 -30.58,32.29 -27.74,26.54 -24.90,20.80 -21.45,14.97 -18.00,9.15 -15.12,5.41 -12.25,1.66 -8.37,-1.01 -4.48,-3.69 -3.98,-4.18 -3.47,-4.66 -2.86,-5.01 -2.25,-5.35 -1.58,-5.55 -0.90,-5.74 -0.20,-5.76 0.49,-5.79 1.17,-5.65 1.86,-5.50 2.49,-5.20 3.12,-4.90 3.67,-4.45 4.21,-4.01 4.62,-3.44 5.04,-2.88 5.32,-2.24 5.59,-1.59 5.70,-0.90 5.81,-0.20 5.75,0.48 5.69,1.18 5.46,1.85 5.24,2.51 4.86,3.10 4.48,3.69 4.48,3.69 L 4.48,3.69 Z"
       id="path5684"
       style="fill:#fcd069;fill-opacity:1" />
  </g>
  <g
     transform="translate(335.2787319648953 106.22331439322193) rotate(0 -68.41670907625496 86.68506432370725)"
     stroke="none"
     id="g5690"
     style="fill:#fcd069;fill-opacity:1">
    <path
       fill="#ced4da"
       d="M 4.82,3.48 Q 4.82,3.48 2.80,7.66 0.78,11.84 -3.02,17.67 -6.83,23.50 -9.97,28.69 -13.11,33.88 -15.47,38.37 -17.82,42.86 -20.36,47.30 -22.90,51.74 -25.34,56.05 -27.77,60.35 -30.01,64.77 -32.25,69.18 -34.48,73.82 -36.71,78.46 -39.25,81.96 -41.79,85.46 -45.10,88.98 -48.41,92.50 -51.53,95.99 -54.64,99.48 -58.50,102.69 -62.35,105.91 -66.32,109.56 -70.29,113.21 -73.56,116.97 -76.84,120.74 -80.17,124.86 -83.50,128.98 -87.29,132.94 -91.08,136.90 -94.89,140.12 -98.70,143.34 -103.53,148.38 -108.36,153.42 -111.36,157.44 -114.36,161.46 -117.95,166.82 -121.54,172.17 -127.23,174.55 -132.93,176.92 -133.64,177.38 -134.36,177.84 -135.18,178.04 -136.01,178.25 -136.86,178.18 -137.70,178.11 -138.48,177.78 -139.26,177.44 -139.90,176.87 -140.53,176.31 -140.95,175.57 -141.37,174.83 -141.53,173.99 -141.69,173.16 -141.57,172.31 -141.46,171.47 -141.08,170.71 -140.70,169.95 -140.10,169.35 -139.50,168.75 -138.74,168.37 -137.98,167.99 -137.14,167.88 -136.30,167.76 -135.46,167.92 -134.63,168.08 -133.89,168.50 -133.15,168.92 -132.58,169.55 -132.01,170.18 -131.67,170.96 -131.34,171.74 -131.27,172.59 -131.20,173.44 -131.41,174.26 -131.61,175.09 -132.07,175.80 -132.53,176.52 -133.19,177.05 -133.85,177.59 -134.65,177.88 -135.45,178.17 -136.30,178.20 -137.15,178.22 -137.96,177.97 -138.77,177.72 -139.46,177.22 -140.15,176.73 -140.65,176.04 -141.14,175.35 -141.39,174.54 -141.64,173.72 -141.62,172.87 -141.60,172.02 -141.30,171.23 -141.01,170.43 -140.48,169.77 -139.94,169.10 -139.95,169.10 -139.95,169.10 -137.64,164.00 -135.33,158.90 -133.05,155.10 -130.76,151.31 -127.68,147.12 -124.59,142.93 -121.57,139.56 -118.55,136.18 -113.54,131.32 -108.53,126.46 -103.40,122.11 -98.28,117.75 -94.69,113.40 -91.10,109.05 -85.84,103.59 -80.59,98.12 -76.91,94.89 -73.23,91.67 -69.00,88.03 -64.77,84.38 -61.68,81.35 -58.59,78.33 -55.05,74.22 -51.50,70.11 -48.91,64.74 -46.33,59.37 -44.15,55.66 -41.96,51.95 -39.41,47.71 -36.86,43.47 -34.56,39.59 -32.26,35.72 -29.56,30.88 -26.86,26.04 -23.49,20.52 -20.12,15.01 -15.80,8.99 -11.49,2.98 -8.15,-0.24 -4.82,-3.48 -4.33,-4.00 -3.84,-4.53 -3.24,-4.92 -2.65,-5.32 -1.97,-5.56 -1.29,-5.80 -0.58,-5.87 0.12,-5.94 0.83,-5.84 1.54,-5.74 2.21,-5.47 2.87,-5.20 3.45,-4.78 4.03,-4.36 4.50,-3.81 4.96,-3.27 5.28,-2.63 5.60,-1.98 5.76,-1.28 5.91,-0.59 5.90,0.12 5.88,0.84 5.70,1.53 5.51,2.22 5.16,2.85 4.82,3.48 4.82,3.48 L 4.82,3.48 Z"
       id="path5688"
       style="fill:#fcd069;fill-opacity:1" />
  </g>
  <g
     transform="translate(317.3686395631346 105.5069198795943) rotate(0 -55.16323020473163 72.35694449008429)"
     stroke="none"
     id="g5694"
     style="fill:#fcd069;fill-opacity:1">
    <path
       fill="#ced4da"
       d="M 4.78,4.09 Q 4.78,4.09 -0.40,12.16 -5.58,20.22 -8.43,23.51 -11.27,26.79 -14.53,31.13 -17.79,35.46 -22.06,41.34 -26.34,47.21 -30.70,52.73 -35.05,58.24 -39.96,63.79 -44.87,69.33 -49.83,74.62 -54.79,79.91 -59.49,84.15 -64.19,88.38 -67.60,92.56 -71.02,96.74 -74.44,101.21 -77.87,105.69 -80.97,111.12 -84.08,116.56 -86.88,121.64 -89.67,126.72 -91.84,131.56 -94.00,136.40 -96.78,141.61 -99.56,146.81 -100.17,147.56 -100.79,148.30 -101.48,149.27 -102.17,150.23 -103.07,151.00 -103.96,151.77 -105.02,152.30 -106.08,152.83 -107.23,153.10 -108.39,153.36 -109.57,153.34 -110.76,153.32 -111.90,153.01 -113.05,152.71 -114.08,152.14 -115.12,151.57 -116.00,150.77 -116.87,149.97 -117.52,148.99 -118.18,148.00 -118.58,146.89 -118.98,145.77 -119.10,144.59 -119.23,143.42 -119.06,142.24 -118.90,141.07 -118.46,139.97 -118.02,138.87 -114.38,136.70 -110.75,134.53 -110.25,133.84 -109.75,133.15 -109.06,132.65 -108.36,132.16 -107.55,131.91 -106.74,131.67 -105.89,131.69 -105.04,131.72 -104.24,132.02 -103.45,132.31 -102.79,132.85 -102.12,133.38 -101.67,134.10 -101.21,134.82 -101.01,135.64 -100.81,136.47 -100.88,137.31 -100.95,138.16 -101.29,138.94 -101.63,139.72 -102.20,140.35 -102.77,140.98 -103.51,141.40 -104.25,141.81 -105.09,141.97 -105.92,142.13 -106.76,142.01 -107.61,141.89 -108.37,141.51 -109.13,141.13 -109.73,140.53 -110.32,139.93 -110.70,139.16 -111.07,138.40 -111.19,137.56 -111.30,136.71 -111.13,135.88 -110.97,135.05 -110.55,134.31 -110.13,133.57 -109.49,133.00 -108.86,132.44 -108.08,132.11 -107.30,131.77 -106.45,131.71 -105.60,131.64 -104.78,131.85 -103.95,132.06 -103.24,132.52 -102.52,132.98 -101.99,133.64 -101.46,134.31 -101.17,135.11 -100.88,135.90 -100.86,136.75 -100.84,137.60 -101.10,138.41 -101.35,139.23 -101.35,139.23 -101.35,139.23 -101.07,143.76 -100.79,148.30 -101.48,149.26 -102.16,150.23 -103.06,151.00 -103.96,151.77 -105.02,152.30 -106.08,152.83 -107.23,153.09 -108.39,153.36 -109.57,153.34 -110.76,153.32 -111.90,153.01 -113.05,152.71 -114.08,152.14 -115.12,151.57 -116.00,150.77 -116.87,149.97 -117.52,148.99 -118.18,148.00 -118.58,146.89 -118.98,145.77 -119.10,144.60 -119.23,143.42 -119.06,142.25 -118.90,141.07 -118.46,139.97 -118.02,138.87 -117.39,138.10 -116.76,137.33 -114.13,132.75 -111.50,128.17 -109.65,124.14 -107.81,120.12 -105.26,115.06 -102.71,110.01 -99.85,105.10 -96.99,100.18 -93.94,95.52 -90.89,90.86 -87.67,86.65 -84.44,82.45 -80.53,78.09 -76.62,73.73 -72.43,69.98 -68.23,66.22 -63.60,61.36 -58.96,56.51 -54.30,51.34 -49.63,46.18 -45.51,41.17 -41.39,36.17 -36.76,30.26 -32.13,24.36 -28.44,19.73 -24.76,15.11 -21.94,11.86 -19.13,8.61 -11.95,2.25 -4.78,-4.09 -4.22,-4.61 -3.66,-5.12 -2.99,-5.48 -2.32,-5.85 -1.59,-6.04 -0.86,-6.23 -0.10,-6.25 0.65,-6.26 1.39,-6.09 2.13,-5.92 2.81,-5.58 3.49,-5.24 4.06,-4.74 4.64,-4.25 5.08,-3.63 5.52,-3.01 5.80,-2.31 6.08,-1.60 6.19,-0.85 6.29,-0.10 6.21,0.65 6.13,1.40 5.88,2.12 5.62,2.83 5.20,3.46 4.78,4.09 4.78,4.09 L 4.78,4.09 Z"
       id="path5692"
       style="fill:#fcd069;fill-opacity:1" />
  </g>
  <g
     transform="translate(364.6513989402076 48.910900647607605) rotate(0 -80.95382622858966 111.75924943671828)"
     stroke="none"
     id="g5698"
     style="fill:#fcd069;fill-opacity:1">
    <path
       fill="#ced4da"
       d="M 5.33,3.12 Q 5.33,3.12 2.66,9.58 -0.00,16.04 -5.36,25.14 -10.71,34.24 -15.48,41.27 -20.24,48.31 -23.33,52.46 -26.41,56.61 -29.93,61.66 -33.45,66.72 -36.37,71.01 -39.28,75.30 -43.12,80.70 -46.96,86.09 -50.68,91.12 -54.39,96.15 -58.24,101.06 -62.09,105.97 -66.77,111.36 -71.45,116.76 -75.66,121.58 -79.87,126.40 -82.99,130.39 -86.12,134.38 -89.40,138.93 -92.68,143.48 -97.11,148.81 -101.55,154.14 -104.92,158.70 -108.28,163.26 -110.77,167.40 -113.26,171.54 -117.06,177.36 -120.87,183.18 -125.40,188.76 -129.92,194.35 -133.92,199.14 -137.92,203.93 -141.03,208.27 -144.13,212.61 -146.63,217.10 -149.13,221.58 -152.95,223.61 -156.76,225.63 -157.35,226.24 -157.95,226.85 -158.70,227.24 -159.46,227.63 -160.30,227.75 -161.14,227.88 -161.98,227.73 -162.81,227.58 -163.56,227.17 -164.30,226.76 -164.88,226.14 -165.46,225.51 -165.80,224.74 -166.15,223.96 -166.23,223.12 -166.31,222.27 -166.11,221.44 -165.92,220.61 -165.47,219.89 -165.02,219.17 -164.37,218.63 -163.71,218.09 -162.92,217.78 -162.12,217.48 -161.28,217.45 -160.43,217.41 -159.61,217.65 -158.79,217.89 -158.10,218.38 -157.40,218.86 -156.90,219.55 -156.39,220.23 -156.13,221.04 -155.87,221.85 -155.88,222.70 -155.90,223.55 -156.18,224.35 -156.46,225.15 -156.98,225.82 -157.51,226.49 -158.22,226.96 -158.93,227.43 -159.75,227.64 -160.57,227.86 -161.42,227.80 -162.27,227.74 -163.05,227.42 -163.84,227.09 -164.48,226.53 -165.12,225.97 -165.55,225.24 -165.97,224.50 -166.15,223.67 -166.32,222.84 -166.21,221.99 -166.11,221.15 -165.74,220.38 -165.37,219.62 -165.37,219.62 -165.37,219.62 -163.99,213.82 -162.60,208.02 -159.78,203.46 -156.95,198.91 -154.31,195.47 -151.67,192.03 -147.58,187.23 -143.48,182.43 -139.55,177.78 -135.62,173.13 -131.97,167.78 -128.32,162.43 -125.58,157.94 -122.84,153.45 -118.72,148.00 -114.60,142.56 -110.71,138.01 -106.83,133.46 -103.40,128.80 -99.97,124.13 -96.48,119.71 -92.99,115.29 -88.55,110.26 -84.11,105.24 -79.54,100.30 -74.98,95.37 -71.20,90.86 -67.43,86.36 -63.73,81.52 -60.03,76.68 -56.27,71.63 -52.51,66.59 -49.44,62.15 -46.36,57.71 -42.73,52.48 -39.09,47.25 -36.09,43.16 -33.09,39.06 -28.78,32.65 -24.47,26.24 -19.23,17.04 -13.99,7.84 -9.66,2.35 -5.33,-3.12 -4.88,-3.71 -4.42,-4.31 -3.84,-4.77 -3.26,-5.24 -2.59,-5.56 -1.91,-5.87 -1.18,-6.02 -0.45,-6.16 0.28,-6.12 1.03,-6.09 1.74,-5.88 2.46,-5.67 3.10,-5.29 3.74,-4.91 4.28,-4.39 4.81,-3.87 5.20,-3.24 5.60,-2.61 5.83,-1.90 6.06,-1.19 6.11,-0.45 6.17,0.29 6.05,1.02 5.92,1.75 5.62,2.44 5.33,3.12 5.33,3.12 L 5.33,3.12 Z"
       id="path5696"
       style="fill:#fcd069;fill-opacity:1" />
  </g>
  <g
     stroke-linecap="round"
     transform="translate(10 10) rotate(0 218.33332061767578 147.5)"
     id="g5702">
    <path
       d="M-1.97 -0.29 C136.73 2.16, 274.16 5.45, 438.41 0.76 M-0.52 -0.7 C151.23 3.48, 301.29 3.24, 437.26 -0.49 M434.44 1 C440.83 68.45, 437.17 140.38, 438.8 293.3 M437.59 0.11 C438.36 77.3, 437.95 153.97, 435.24 294.01 M436.22 293.54 C287.52 294.27, 139.74 294.61, -0.24 294.89 M437.54 294.22 C347.83 294.02, 258.57 293.02, -0.88 294.37 M-2.08 292.68 C-1.19 176.45, -1.02 60.86, -0.32 1.5 M-0.21 294.38 C-3.1 201.25, -4.56 107.58, -0.47 -1.31"
       stroke="#000000"
       stroke-width="2"
       fill="none"
       id="path5700" />
  </g>
  <g
     transform="translate(44.128401539876336 171.54561627806697) rotate(0 83.11676444907192 39.13748783755398)"
     stroke="none"
     id="g5706"
     style="fill:#fcd069;fill-opacity:1">
    <path
       fill="#ced4da"
       d="M -1.61,-6.78 Q -1.61,-6.78 3.02,-8.92 7.66,-11.06 14.71,-13.02 21.75,-14.97 30.05,-16.70 38.35,-18.43 45.46,-19.23 52.56,-20.03 59.15,-20.74 65.73,-21.45 73.32,-22.24 80.90,-23.03 89.39,-23.43 97.87,-23.83 104.50,-23.38 111.12,-22.93 116.09,-22.16 121.05,-21.39 125.44,-20.57 129.82,-19.75 134.37,-18.29 138.92,-16.83 143.05,-14.35 147.18,-11.87 149.39,-5.98 151.61,-0.09 149.97,4.73 148.34,9.56 143.18,14.60 138.02,19.64 132.06,23.21 126.10,26.78 120.64,29.90 115.18,33.01 109.29,36.82 103.40,40.63 98.80,44.66 94.20,48.70 98.73,51.05 103.26,53.39 107.84,52.66 112.42,51.93 116.96,50.49 121.51,49.05 125.62,47.76 129.74,46.47 135.29,46.74 140.85,47.02 145.12,49.16 149.39,51.30 152.09,56.15 154.80,60.99 154.16,66.24 153.52,71.49 151.88,76.51 150.25,81.52 155.79,79.82 161.33,78.12 162.03,77.64 162.73,77.15 163.54,76.92 164.36,76.68 165.21,76.72 166.06,76.76 166.85,77.06 167.64,77.37 168.30,77.92 168.95,78.46 169.39,79.18 169.84,79.91 170.03,80.74 170.22,81.56 170.14,82.41 170.05,83.26 169.70,84.03 169.35,84.80 168.78,85.43 168.20,86.05 167.45,86.46 166.70,86.86 165.87,87.01 165.03,87.15 164.19,87.02 163.35,86.89 162.59,86.50 161.84,86.11 161.25,85.50 160.66,84.89 160.29,84.12 159.93,83.35 159.83,82.51 159.73,81.66 159.90,80.83 160.08,80.00 160.51,79.27 160.94,78.54 161.58,77.98 162.23,77.42 163.01,77.10 163.80,76.78 164.65,76.73 165.50,76.67 166.32,76.89 167.14,77.11 167.85,77.58 168.55,78.05 169.07,78.72 169.60,79.39 169.87,80.20 170.15,81.00 170.16,81.85 170.17,82.70 169.91,83.51 169.64,84.32 169.13,85.00 168.63,85.68 168.63,85.68 168.63,85.68 163.93,92.48 159.23,99.27 154.83,100.75 150.44,102.22 145.91,101.52 141.37,100.83 137.71,98.19 134.05,95.55 132.23,90.59 130.41,85.63 130.67,81.18 130.93,76.73 132.83,71.25 134.74,65.78 130.38,67.27 126.02,68.77 121.42,70.03 116.82,71.29 109.42,72.25 102.02,73.20 95.76,72.54 89.50,71.89 83.33,68.10 77.17,64.31 75.42,57.03 73.67,49.75 75.00,45.03 76.32,40.31 80.43,35.63 84.55,30.94 88.42,27.53 92.29,24.12 98.77,19.93 105.25,15.74 108.95,13.63 112.64,11.52 117.79,8.72 122.93,5.92 126.52,2.96 130.12,0.00 124.02,-1.40 117.92,-2.81 113.23,-3.51 108.53,-4.21 103.38,-4.56 98.24,-4.91 90.58,-4.63 82.92,-4.35 75.44,-3.57 67.96,-2.79 61.08,-2.11 54.20,-1.44 47.86,-0.80 41.52,-0.17 33.97,1.31 26.42,2.79 19.12,4.61 11.82,6.42 6.72,6.60 1.61,6.78 0.78,6.87 -0.05,6.97 -0.88,6.86 -1.72,6.75 -2.50,6.45 -3.29,6.14 -3.97,5.66 -4.66,5.18 -5.21,4.55 -5.77,3.91 -6.15,3.16 -6.54,2.42 -6.73,1.60 -6.93,0.78 -6.92,-0.05 -6.91,-0.89 -6.70,-1.71 -6.50,-2.52 -6.10,-3.26 -5.70,-4.00 -5.14,-4.63 -4.58,-5.25 -3.88,-5.72 -3.19,-6.20 -2.40,-6.49 -1.61,-6.78 -1.61,-6.78 L -1.61,-6.78 Z"
       id="path5704"
       style="fill:#fcd069;fill-opacity:1" />
  </g>
  <g
     transform="translate(343.15923558699274 62.52259317316407) rotate(0 -51.939405701749365 64.83468731645905)"
     stroke="none"
     id="g5710"
     style="fill:#fcd069;fill-opacity:1">
    <path
       fill="#ced4da"
       d="M 4.72,3.98 Q 4.72,3.98 2.33,8.65 -0.05,13.33 -3.33,17.67 -6.60,22.01 -11.29,27.73 -15.98,33.46 -20.08,38.65 -24.19,43.84 -28.91,49.52 -33.63,55.20 -38.62,60.76 -43.61,66.32 -47.39,70.70 -51.16,75.09 -55.43,80.59 -59.70,86.08 -64.86,92.93 -70.01,99.78 -73.95,105.57 -77.90,111.37 -80.77,115.50 -83.65,119.64 -87.64,124.95 -91.62,130.27 -94.89,130.15 -98.16,130.03 -98.60,130.49 -99.03,130.95 -99.56,131.29 -100.10,131.63 -100.70,131.84 -101.30,132.04 -101.93,132.10 -102.56,132.15 -103.18,132.06 -103.81,131.96 -104.39,131.71 -104.98,131.47 -105.49,131.09 -105.99,130.71 -106.40,130.23 -106.80,129.74 -107.08,129.17 -107.35,128.60 -107.48,127.98 -107.61,127.36 -107.59,126.73 -107.57,126.09 -107.40,125.48 -107.23,124.87 -106.91,124.32 -106.60,123.77 -107.06,125.88 -107.52,128.00 -107.56,127.15 -107.60,126.30 -107.36,125.48 -107.13,124.66 -106.65,123.96 -106.17,123.26 -105.49,122.75 -104.81,122.24 -104.00,121.98 -103.19,121.71 -102.34,121.72 -101.49,121.73 -100.69,122.00 -99.88,122.28 -99.21,122.80 -98.54,123.32 -98.07,124.03 -97.60,124.73 -97.37,125.55 -97.15,126.37 -97.20,127.22 -97.26,128.07 -97.58,128.86 -97.90,129.64 -98.45,130.29 -99.01,130.93 -99.74,131.36 -100.47,131.80 -101.30,131.97 -102.13,132.15 -102.98,132.05 -103.82,131.95 -104.59,131.59 -105.36,131.23 -105.97,130.64 -106.58,130.05 -106.98,129.30 -107.37,128.54 -107.50,127.70 -107.63,126.86 -107.49,126.03 -107.34,125.19 -106.94,124.44 -106.54,123.69 -105.92,123.11 -105.29,122.53 -104.52,122.18 -103.75,121.83 -102.90,121.75 -102.06,121.66 -101.23,121.85 -100.40,122.04 -99.67,122.48 -98.95,122.92 -98.40,123.58 -97.86,124.23 -98.01,127.13 -98.16,130.03 -98.59,130.49 -99.03,130.95 -99.56,131.29 -100.10,131.63 -100.70,131.84 -101.30,132.04 -101.93,132.10 -102.56,132.15 -103.18,132.06 -103.81,131.96 -104.39,131.71 -104.98,131.47 -105.49,131.09 -105.99,130.72 -106.40,130.23 -106.80,129.74 -107.08,129.17 -107.35,128.60 -107.48,127.98 -107.61,127.36 -107.59,126.73 -107.57,126.09 -107.40,125.48 -107.23,124.88 -106.91,124.32 -106.60,123.77 -107.19,121.03 -107.77,118.30 -103.82,113.11 -99.86,107.92 -97.01,104.12 -94.15,100.33 -89.87,94.22 -85.59,88.10 -80.30,81.31 -75.00,74.51 -70.49,68.83 -65.98,63.16 -61.46,58.04 -56.93,52.91 -52.36,48.07 -47.79,43.23 -43.14,37.81 -38.48,32.38 -33.89,26.75 -29.30,21.12 -24.86,16.06 -20.41,11.00 -16.77,6.66 -13.12,2.32 -8.92,-0.83 -4.72,-3.98 -4.18,-4.48 -3.63,-4.99 -2.98,-5.36 -2.33,-5.72 -1.61,-5.91 -0.89,-6.11 -0.15,-6.13 0.59,-6.15 1.31,-5.99 2.04,-5.83 2.71,-5.50 3.38,-5.17 3.95,-4.69 4.52,-4.21 4.96,-3.61 5.39,-3.00 5.68,-2.31 5.96,-1.62 6.07,-0.89 6.17,-0.15 6.10,0.58 6.03,1.32 5.79,2.03 5.54,2.73 5.13,3.35 4.72,3.98 4.72,3.98 L 4.72,3.98 Z"
       id="path5708"
       style="fill:#fcd069;fill-opacity:1" />
  </g>
  <g
     transform="translate(302.49433422289076 197.57896476875044) rotate(0 -18.39512287855132 33.44567796100205)"
     stroke="none"
     id="g5714">
    <path
       fill="#000000"
       d="M 2.47,-2.12 Q 2.47,-2.12 4.02,-0.85 5.58,0.40 7.05,2.17 8.52,3.95 9.86,6.34 11.20,8.74 11.42,11.01 11.64,13.28 11.34,15.62 11.04,17.95 9.75,19.70 8.45,21.45 6.54,22.80 4.63,24.15 2.33,25.46 0.03,26.77 -2.75,27.93 -5.55,29.09 -7.91,29.86 -10.27,30.63 -13.26,31.56 -16.26,32.50 -18.80,33.27 -21.33,34.04 -24.24,34.71 -27.16,35.39 -30.46,35.93 -33.75,36.46 -36.03,36.57 -38.30,36.68 -40.70,36.51 -43.09,36.34 -45.30,36.10 -47.52,35.85 -49.94,35.77 -52.37,35.68 -54.59,35.95 -56.82,36.22 -57.91,38.72 -59.01,41.22 -59.48,43.85 -59.96,46.47 -58.07,48.59 -56.17,50.71 -53.21,52.18 -50.24,53.65 -47.81,54.44 -45.38,55.23 -43.26,56.04 -41.14,56.85 -38.82,57.69 -36.51,58.53 -33.62,59.10 -30.73,59.68 -28.16,60.27 -25.60,60.86 -23.25,61.04 -20.90,61.23 -18.43,61.04 -15.95,60.85 -13.32,60.27 -10.69,59.69 -7.95,59.17 -5.20,58.64 -2.09,57.93 1.01,57.22 3.44,56.74 5.86,56.25 8.34,55.63 10.82,55.01 13.08,54.38 15.34,53.75 18.11,53.32 20.89,52.88 25.62,55.90 30.36,58.92 30.38,59.35 30.40,59.77 30.29,60.18 30.18,60.59 29.94,60.94 29.70,61.30 29.36,61.55 29.02,61.81 28.62,61.95 28.22,62.08 27.79,62.08 27.37,62.08 26.97,61.95 26.56,61.81 26.23,61.56 25.89,61.30 25.65,60.95 25.41,60.60 25.30,60.19 25.18,59.78 25.20,59.35 25.23,58.93 25.38,58.53 25.54,58.14 25.82,57.81 26.09,57.49 26.45,57.27 26.82,57.05 27.23,56.96 27.65,56.87 28.07,56.91 28.49,56.96 28.88,57.14 29.27,57.32 29.57,57.61 29.88,57.90 30.08,58.28 30.28,58.65 30.35,59.07 30.42,59.49 30.35,59.91 30.28,60.33 30.08,60.70 29.88,61.08 29.58,61.37 29.27,61.66 28.88,61.84 28.50,62.02 28.07,62.07 27.65,62.11 27.24,62.02 26.82,61.93 26.46,61.71 26.09,61.49 25.82,61.17 25.54,60.85 25.39,60.45 25.23,60.06 25.23,60.06 25.23,60.06 25.11,61.82 25.00,63.58 22.42,63.82 19.85,64.06 16.95,64.86 14.05,65.66 11.41,66.35 8.77,67.03 6.12,67.55 3.48,68.06 1.07,68.67 -1.34,69.27 -3.68,69.69 -6.02,70.11 -8.68,70.69 -11.34,71.26 -13.82,71.74 -16.30,72.22 -18.84,72.28 -21.37,72.33 -24.62,72.02 -27.86,71.72 -29.95,71.16 -32.04,70.60 -34.57,70.01 -37.10,69.41 -40.47,68.29 -43.85,67.16 -46.29,66.05 -48.74,64.94 -51.48,63.87 -54.23,62.80 -58.06,60.63 -61.89,58.45 -63.72,56.40 -65.56,54.34 -67.24,50.68 -68.93,47.03 -68.61,44.60 -68.30,42.18 -67.72,40.04 -67.14,37.90 -65.62,34.66 -64.10,31.42 -61.80,29.63 -59.49,27.85 -57.21,27.32 -54.94,26.80 -52.33,26.87 -49.72,26.95 -47.03,27.28 -44.35,27.60 -42.12,27.75 -39.89,27.91 -37.41,27.82 -34.93,27.73 -31.81,27.20 -28.68,26.66 -26.22,26.11 -23.76,25.55 -21.19,24.78 -18.61,24.01 -15.73,23.16 -12.85,22.31 -10.75,21.69 -8.64,21.07 -6.37,20.20 -4.10,19.32 -1.85,18.15 0.39,16.98 2.15,15.24 3.92,13.51 3.17,11.28 2.43,9.05 0.98,7.31 -0.45,5.58 -1.46,3.85 -2.47,2.12 -2.69,1.79 -2.90,1.46 -3.04,1.09 -3.17,0.72 -3.21,0.33 -3.25,-0.05 -3.20,-0.44 -3.14,-0.83 -3.00,-1.19 -2.85,-1.56 -2.63,-1.88 -2.40,-2.19 -2.10,-2.45 -1.80,-2.71 -1.45,-2.88 -1.10,-3.06 -0.72,-3.15 -0.33,-3.23 0.05,-3.23 0.44,-3.22 0.82,-3.12 1.20,-3.02 1.54,-2.83 1.89,-2.65 2.18,-2.38 2.47,-2.11 2.47,-2.11 L 2.47,-2.12 Z"
       id="path5712" />
  </g>
  <g
     transform="translate(222.8794212283476 197.78351981991523) rotate(0 18.147526241362357 17.521787010317325)"
     stroke="none"
     id="g5718">
    <path
       fill="#000000"
       d="M 2.30,-2.30 Q 2.30,-2.30 7.43,1.92 12.55,6.15 15.62,9.21 18.69,12.28 23.35,17.66 28.02,23.03 30.26,25.58 32.50,28.12 34.37,30.07 36.24,32.03 36.58,32.29 36.92,32.55 37.15,32.90 37.39,33.26 37.50,33.67 37.61,34.08 37.59,34.50 37.56,34.92 37.40,35.32 37.24,35.71 36.97,36.03 36.69,36.36 36.32,36.57 35.96,36.79 35.54,36.88 35.13,36.97 34.71,36.92 34.28,36.87 33.90,36.69 33.51,36.51 33.21,36.22 32.90,35.92 32.70,35.55 32.51,35.17 32.44,34.75 32.37,34.33 32.44,33.91 32.52,33.49 32.72,33.12 32.92,32.74 33.23,32.45 33.54,32.16 33.93,31.99 34.31,31.81 34.74,31.77 35.16,31.72 35.57,31.82 35.99,31.91 36.35,32.13 36.71,32.35 36.99,32.68 37.26,33.00 37.41,33.40 37.57,33.80 37.59,34.22 37.61,34.64 37.49,35.05 37.38,35.46 37.14,35.81 36.90,36.16 36.56,36.42 36.22,36.67 35.81,36.81 35.41,36.94 34.98,36.94 34.56,36.93 34.16,36.80 33.76,36.66 33.76,36.66 33.76,36.66 29.78,35.47 25.80,34.28 23.46,31.63 21.12,28.98 16.70,23.84 12.28,18.69 9.21,15.62 6.15,12.55 1.92,7.43 -2.30,2.30 -2.54,1.99 -2.78,1.68 -2.94,1.32 -3.11,0.96 -3.18,0.58 -3.25,0.19 -3.22,-0.19 -3.20,-0.58 -3.08,-0.96 -2.97,-1.33 -2.76,-1.67 -2.56,-2.00 -2.28,-2.28 -2.00,-2.56 -1.67,-2.76 -1.33,-2.97 -0.96,-3.08 -0.58,-3.20 -0.19,-3.22 0.19,-3.25 0.58,-3.18 0.96,-3.11 1.32,-2.94 1.68,-2.78 1.99,-2.54 2.30,-2.30 2.30,-2.30 L 2.30,-2.30 Z"
       id="path5716" />
  </g>
  <g
     transform="translate(303.09839439347525 100.55109272000527) rotate(358.64576818843375 21.276394271491313 20.65065504044628)"
     stroke="none"
     id="g5722">
    <path
       fill="#000000"
       d="M 2.20,-2.30 Q 2.20,-2.30 10.52,4.81 18.85,11.94 22.58,15.52 26.30,19.09 30.79,23.50 35.28,27.91 37.31,30.28 39.33,32.65 41.22,35.46 43.10,38.28 43.37,38.61 43.64,38.94 43.79,39.34 43.94,39.74 43.95,40.16 43.97,40.58 43.85,40.99 43.72,41.40 43.48,41.75 43.23,42.09 42.89,42.34 42.55,42.59 42.14,42.72 41.74,42.85 41.31,42.84 40.89,42.83 40.49,42.69 40.09,42.54 39.75,42.28 39.42,42.02 39.19,41.66 38.96,41.30 38.85,40.89 38.75,40.48 38.78,40.06 38.81,39.63 38.97,39.24 39.14,38.85 39.42,38.53 39.70,38.21 40.07,38.00 40.44,37.79 40.86,37.71 41.27,37.62 41.69,37.68 42.12,37.73 42.50,37.92 42.88,38.11 43.18,38.40 43.49,38.70 43.68,39.08 43.87,39.46 43.93,39.88 43.99,40.30 43.91,40.72 43.84,41.14 43.63,41.51 43.42,41.88 43.11,42.17 42.79,42.45 42.40,42.62 42.02,42.79 41.59,42.83 41.17,42.87 40.76,42.77 40.34,42.67 39.98,42.44 39.62,42.22 39.62,42.22 39.62,42.22 36.14,40.28 32.65,38.35 30.88,36.26 29.11,34.17 24.68,29.79 20.25,25.41 16.53,21.84 12.81,18.27 5.30,10.29 -2.20,2.30 -2.44,2.01 -2.69,1.71 -2.85,1.36 -3.02,1.02 -3.10,0.64 -3.18,0.26 -3.16,-0.11 -3.15,-0.50 -3.04,-0.87 -2.94,-1.24 -2.74,-1.57 -2.55,-1.91 -2.29,-2.18 -2.02,-2.46 -1.70,-2.67 -1.37,-2.88 -1.01,-3.00 -0.64,-3.12 -0.26,-3.15 0.11,-3.19 0.49,-3.12 0.87,-3.06 1.23,-2.91 1.58,-2.76 1.89,-2.53 2.20,-2.30 2.20,-2.30 L 2.20,-2.30 Z"
       id="path5720" />
  </g>
  <g
     transform="translate(316.4938635971407 89.56053300794838) rotate(352.825084863754 16.895990487637732 19.39909064090432)"
     stroke="none"
     id="g5726">
    <path
       fill="#000000"
       d="M 2.31,-2.47 Q 2.31,-2.47 8.05,2.19 13.79,6.86 17.68,11.32 21.58,15.78 25.82,21.90 30.07,28.02 31.56,30.79 33.06,33.55 33.26,33.93 33.46,34.30 33.54,34.72 33.61,35.14 33.54,35.56 33.48,35.98 33.28,36.36 33.08,36.73 32.78,37.03 32.47,37.32 32.09,37.50 31.70,37.68 31.28,37.73 30.86,37.78 30.44,37.69 30.03,37.61 29.66,37.39 29.30,37.17 29.02,36.85 28.74,36.53 28.58,36.14 28.42,35.74 28.39,35.32 28.37,34.89 28.48,34.48 28.59,34.07 28.83,33.72 29.06,33.37 29.40,33.11 29.73,32.85 30.14,32.71 30.54,32.57 30.96,32.57 31.39,32.56 31.79,32.70 32.20,32.83 32.54,33.08 32.88,33.34 33.12,33.69 33.36,34.04 33.47,34.45 33.59,34.86 33.57,35.28 33.55,35.70 33.40,36.10 33.24,36.50 32.97,36.82 32.70,37.15 32.33,37.37 31.97,37.59 31.56,37.69 31.14,37.78 30.72,37.74 30.30,37.69 29.91,37.52 29.52,37.34 29.21,37.05 28.90,36.76 28.90,36.76 28.90,36.76 26.60,34.61 24.31,32.46 19.62,27.01 14.93,21.55 11.36,17.42 7.79,13.28 2.74,7.87 -2.31,2.47 -2.57,2.16 -2.83,1.85 -3.01,1.48 -3.19,1.11 -3.28,0.71 -3.37,0.32 -3.36,-0.08 -3.35,-0.49 -3.24,-0.88 -3.13,-1.28 -2.93,-1.63 -2.73,-1.99 -2.45,-2.29 -2.17,-2.59 -1.83,-2.81 -1.49,-3.03 -1.11,-3.17 -0.72,-3.30 -0.31,-3.34 0.08,-3.38 0.49,-3.32 0.89,-3.26 1.27,-3.11 1.65,-2.95 1.98,-2.71 2.31,-2.47 2.31,-2.47 L 2.31,-2.47 Z"
       id="path5724" />
  </g>
  <g
     transform="translate(334.727415221804 66.05433347219287) rotate(0 34.41777749795506 7.763508401897809)"
     stroke="none"
     id="g5730">
    <path
       fill="#000000"
       d="M -2.18,-2.49 Q -2.18,-2.49 -0.02,-5.34 2.14,-8.19 6.10,-12.09 10.06,-15.98 11.61,-17.85 13.16,-19.72 15.03,-21.73 16.91,-23.75 19.40,-25.72 21.89,-27.68 25.18,-29.15 28.48,-30.62 34.39,-27.81 40.30,-25.00 42.42,-23.53 44.54,-22.05 48.24,-18.35 51.94,-14.65 53.53,-12.65 55.11,-10.65 57.27,-8.69 59.43,-6.74 62.11,-4.31 64.79,-1.88 67.27,0.59 69.75,3.06 71.00,4.79 72.24,6.52 71.79,9.67 71.34,12.83 68.95,17.60 66.57,22.36 63.51,26.98 60.46,31.60 58.00,34.37 55.55,37.15 53.33,39.21 51.11,41.26 48.22,42.65 45.34,44.04 44.99,44.28 44.63,44.51 44.22,44.62 43.81,44.73 43.39,44.71 42.97,44.68 42.57,44.52 42.18,44.36 41.86,44.08 41.54,43.80 41.32,43.44 41.11,43.07 41.02,42.65 40.93,42.24 40.98,41.82 41.03,41.39 41.21,41.01 41.40,40.63 41.69,40.32 41.99,40.01 42.36,39.82 42.74,39.62 43.16,39.56 43.58,39.49 44.00,39.57 44.42,39.64 44.79,39.84 45.16,40.05 45.45,40.36 45.74,40.67 45.92,41.06 46.09,41.44 46.13,41.87 46.18,42.29 46.08,42.70 45.99,43.12 45.76,43.48 45.54,43.84 45.21,44.11 44.89,44.38 44.49,44.54 44.09,44.69 43.67,44.71 43.25,44.73 42.84,44.61 42.43,44.49 42.08,44.25 41.73,44.01 41.48,43.67 41.22,43.33 41.09,42.92 40.96,42.52 40.96,42.09 40.97,41.67 41.11,41.27 41.25,40.87 41.51,40.53 41.77,40.20 41.77,40.20 41.77,40.20 43.45,37.34 45.14,34.49 47.08,32.89 49.01,31.29 51.26,28.81 53.50,26.33 56.36,22.02 59.21,17.70 60.86,15.37 62.51,13.04 63.97,11.48 65.42,9.92 63.85,8.45 62.27,6.99 59.84,4.74 57.40,2.49 55.49,1.08 53.58,-0.32 49.63,-4.41 45.67,-8.50 42.60,-11.70 39.53,-14.90 37.58,-16.26 35.63,-17.62 31.38,-19.69 27.13,-21.77 24.98,-19.98 22.84,-18.19 21.13,-16.35 19.41,-14.51 17.61,-12.35 15.80,-10.19 11.86,-6.26 7.93,-2.34 5.05,-0.21 2.18,1.92 1.88,2.14 1.59,2.37 1.25,2.53 0.90,2.68 0.53,2.74 0.17,2.81 -0.20,2.78 -0.57,2.76 -0.93,2.65 -1.28,2.53 -1.60,2.34 -1.92,2.14 -2.19,1.88 -2.45,1.61 -2.64,1.29 -2.83,0.97 -2.94,0.61 -3.05,0.25 -3.07,-0.11 -3.09,-0.49 -3.02,-0.85 -2.95,-1.22 -2.80,-1.56 -2.64,-1.90 -2.41,-2.20 -2.18,-2.49 -2.18,-2.49 L -2.18,-2.49 Z"
       id="path5728" />
  </g>
  <g
     transform="translate(214.11849907737178 257.85815266484974) rotate(0 -3.7546645528083786 3.128925321763404)"
     stroke="none"
     id="g5734">
    <path
       fill="#000000"
       d="M 2.75,-0.85 Q 2.75,-0.85 2.79,-0.16 2.83,0.52 2.55,1.14 2.27,1.77 1.72,2.20 1.18,2.63 0.50,2.75 -0.17,2.88 -0.83,2.67 -1.49,2.46 -1.98,1.98 -2.46,1.49 -2.67,0.83 -2.88,0.17 -2.75,-0.50 -2.63,-1.18 -2.20,-1.72 -1.77,-2.27 -1.14,-2.55 -0.51,-2.83 0.16,-2.79 0.85,-2.75 1.44,-2.39 2.04,-2.04 2.39,-1.44 L 2.75,-0.85 Z"
       id="path5732" />
  </g>
  <g
     transform="translate(56.42258785941942 161.48846733719074) rotate(0 78.22215908629664 42.552874480434184)"
     stroke="none"
     id="g5738">
    <path
       fill="#000000"
       d="M -0.18,-3.25 Q -0.18,-3.25 32.17,-5.51 64.53,-7.77 78.66,-8.53 92.78,-9.29 99.29,-9.25 105.81,-9.20 112.31,-7.26 118.81,-5.32 122.59,-3.75 126.37,-2.18 131.00,-0.05 135.62,2.07 137.43,4.91 139.24,7.75 138.09,11.29 136.94,14.83 131.83,20.04 126.73,25.24 124.86,26.78 122.99,28.31 119.04,30.63 115.09,32.95 113.03,33.92 110.97,34.88 108.79,36.80 106.61,38.71 102.47,42.61 98.34,46.50 95.40,50.26 92.45,54.01 92.04,56.87 91.64,59.73 94.32,61.79 97.00,63.86 103.08,64.39 109.16,64.92 111.60,64.91 114.03,64.91 117.77,64.55 121.51,64.19 123.95,64.03 126.39,63.86 129.86,64.17 133.34,64.47 137.94,66.17 142.55,67.86 143.63,70.84 144.71,73.82 143.09,77.92 141.47,82.03 142.08,84.37 142.68,86.70 146.36,87.07 150.05,87.43 153.21,88.04 156.37,88.65 156.77,88.81 157.16,88.97 157.49,89.24 157.81,89.52 158.03,89.88 158.25,90.25 158.34,90.66 158.43,91.08 158.39,91.50 158.34,91.92 158.16,92.31 157.98,92.69 157.69,93.00 157.40,93.31 157.02,93.51 156.65,93.71 156.23,93.78 155.81,93.85 155.39,93.78 154.97,93.71 154.59,93.51 154.22,93.31 153.93,93.00 153.63,92.69 153.46,92.31 153.28,91.92 153.23,91.50 153.19,91.08 153.28,90.66 153.37,90.25 153.59,89.88 153.81,89.52 154.13,89.24 154.46,88.97 154.85,88.81 155.25,88.65 155.67,88.63 156.09,88.61 156.50,88.72 156.91,88.84 157.26,89.08 157.62,89.31 157.87,89.65 158.13,89.99 158.27,90.39 158.40,90.80 158.40,91.22 158.40,91.65 158.26,92.05 158.13,92.45 157.87,92.79 157.61,93.13 157.26,93.37 156.91,93.60 156.50,93.72 156.09,93.83 155.67,93.81 155.24,93.78 155.24,93.78 155.24,93.78 150.52,94.33 145.80,94.87 142.06,93.91 138.31,92.95 136.31,91.38 134.30,89.82 133.17,87.12 132.03,84.43 133.41,81.10 134.78,77.77 136.12,75.15 137.46,72.52 135.04,72.42 132.61,72.32 129.75,72.03 126.88,71.75 124.56,71.90 122.23,72.04 118.15,72.41 114.06,72.78 111.63,72.79 109.20,72.80 103.67,72.70 98.15,72.59 95.68,71.67 93.20,70.74 89.14,68.01 85.08,65.28 84.31,62.53 83.54,59.78 84.77,54.34 86.00,48.90 87.94,46.47 89.87,44.04 91.24,42.32 92.61,40.61 96.99,36.52 101.37,32.43 106.22,29.17 111.07,25.90 114.49,24.01 117.92,22.11 119.85,20.52 121.79,18.92 124.98,16.63 128.17,14.34 130.09,11.65 132.01,8.95 129.67,7.80 127.32,6.64 125.30,5.96 123.28,5.28 119.86,3.87 116.43,2.46 111.04,0.77 105.66,-0.90 99.45,-0.93 93.23,-0.95 79.11,-0.19 64.99,0.57 32.59,1.91 0.18,3.25 -0.21,3.23 -0.60,3.20 -0.97,3.08 -1.35,2.97 -1.69,2.76 -2.02,2.56 -2.30,2.28 -2.57,2.00 -2.78,1.66 -2.98,1.32 -3.09,0.94 -3.21,0.57 -3.23,0.17 -3.25,-0.21 -3.18,-0.60 -3.11,-0.98 -2.94,-1.34 -2.78,-1.70 -2.54,-2.01 -2.29,-2.32 -1.98,-2.56 -1.67,-2.80 -1.31,-2.96 -0.95,-3.12 -0.56,-3.19 -0.18,-3.25 -0.18,-3.25 L -0.18,-3.25 Z"
       id="path5736" />
  </g>
  <g
     transform="translate(335.5193578125993 167.7462033974482) rotate(0 16.895990487637732 13.14132593482941)"
     stroke="none"
     id="g5742">
    <path
       fill="#000000"
       d="M 1.94,-2.48 Q 1.94,-2.48 7.28,1.10 12.61,4.68 14.90,6.85 17.20,9.01 21.26,12.25 25.32,15.49 28.39,17.49 31.46,19.48 32.69,20.86 33.93,22.25 34.29,22.47 34.65,22.69 34.92,23.02 35.20,23.34 35.35,23.74 35.50,24.14 35.52,24.56 35.54,24.99 35.42,25.39 35.30,25.80 35.06,26.15 34.82,26.50 34.48,26.75 34.14,27.01 33.74,27.14 33.33,27.27 32.91,27.27 32.48,27.26 32.08,27.12 31.68,26.98 31.34,26.72 31.01,26.46 30.77,26.11 30.54,25.75 30.43,25.34 30.32,24.93 30.35,24.51 30.37,24.09 30.53,23.69 30.69,23.30 30.97,22.98 31.25,22.66 31.62,22.44 31.98,22.23 32.40,22.14 32.82,22.05 33.24,22.10 33.66,22.15 34.04,22.33 34.43,22.52 34.73,22.81 35.04,23.11 35.23,23.48 35.43,23.86 35.49,24.28 35.56,24.70 35.49,25.12 35.41,25.54 35.21,25.91 35.01,26.29 34.70,26.58 34.38,26.86 34.00,27.04 33.61,27.21 33.19,27.26 32.76,27.30 32.35,27.20 31.94,27.11 31.94,27.11 31.94,27.11 29.29,26.90 26.65,26.69 23.31,24.37 19.98,22.04 15.74,18.51 11.51,14.98 9.52,13.06 7.53,11.14 2.79,6.81 -1.94,2.48 -2.21,2.21 -2.48,1.94 -2.68,1.61 -2.87,1.29 -2.99,0.92 -3.10,0.56 -3.12,0.18 -3.15,-0.19 -3.08,-0.56 -3.01,-0.94 -2.85,-1.29 -2.69,-1.63 -2.46,-1.93 -2.22,-2.23 -1.92,-2.46 -1.62,-2.70 -1.28,-2.85 -0.93,-3.01 -0.56,-3.08 -0.18,-3.15 0.19,-3.12 0.57,-3.10 0.93,-2.98 1.29,-2.87 1.62,-2.67 1.95,-2.48 1.95,-2.48 L 1.94,-2.48 Z"
       id="path5740" />
  </g>
  <g
     transform="translate(371.814410295324 192.77731951338228) rotate(0 -13.141325934829297 38.17241340494627)"
     stroke="none"
     id="g5746">
    <path
       fill="#000000"
       d="M 3.18,0.26 Q 3.18,0.26 3.23,4.61 3.29,8.97 3.15,11.48 3.00,13.99 1.17,22.95 -0.66,31.91 -1.84,36.08 -3.03,40.24 -6.09,47.61 -9.15,54.97 -10.40,58.28 -11.64,61.59 -14.07,66.18 -16.50,70.78 -17.99,73.15 -19.48,75.53 -21.90,76.25 -24.32,76.97 -24.71,77.13 -25.11,77.29 -25.53,77.32 -25.95,77.34 -26.36,77.23 -26.77,77.12 -27.13,76.88 -27.48,76.65 -27.74,76.31 -28.00,75.98 -28.14,75.57 -28.28,75.17 -28.28,74.75 -28.28,74.32 -28.15,73.92 -28.02,73.52 -27.76,73.18 -27.51,72.84 -27.16,72.59 -26.81,72.35 -26.40,72.24 -25.99,72.12 -25.57,72.14 -25.14,72.16 -24.75,72.31 -24.35,72.47 -24.03,72.74 -23.70,73.01 -23.48,73.38 -23.26,73.74 -23.16,74.15 -23.07,74.57 -23.11,74.99 -23.15,75.41 -23.33,75.80 -23.50,76.19 -23.79,76.50 -24.08,76.81 -24.46,77.01 -24.83,77.21 -25.25,77.28 -25.67,77.36 -26.09,77.29 -26.51,77.22 -26.89,77.03 -27.26,76.83 -27.56,76.52 -27.85,76.22 -28.03,75.83 -28.22,75.45 -28.26,75.03 -28.31,74.61 -28.23,74.19 -28.14,73.77 -27.92,73.41 -27.70,73.04 -27.38,72.77 -27.06,72.49 -27.06,72.49 -27.06,72.49 -26.81,71.58 -26.56,70.66 -25.34,68.65 -24.12,66.64 -21.86,62.60 -19.61,58.57 -18.30,55.11 -16.99,51.65 -14.03,44.79 -11.08,37.94 -9.96,34.04 -8.84,30.14 -6.95,21.82 -5.05,13.49 -4.89,10.89 -4.73,8.30 -3.95,4.01 -3.18,-0.26 -3.10,-0.64 -3.02,-1.01 -2.85,-1.36 -2.69,-1.71 -2.44,-2.01 -2.20,-2.30 -1.89,-2.53 -1.58,-2.76 -1.23,-2.91 -0.88,-3.06 -0.50,-3.12 -0.12,-3.19 0.26,-3.15 0.64,-3.12 1.01,-3.00 1.37,-2.88 1.70,-2.67 2.02,-2.46 2.29,-2.18 2.55,-1.91 2.74,-1.57 2.94,-1.24 3.04,-0.87 3.15,-0.50 3.16,-0.11 3.18,0.26 3.18,0.26 L 3.18,0.26 Z"
       id="path5744" />
  </g>
  <g
     transform="translate(396.8454691196241 191.52578375965777) rotate(0 -16.270193964958253 46.307510387425395)"
     stroke="none"
     id="g5750">
    <path
       fill="#000000"
       d="M 3.08,0.09 Q 3.08,0.09 3.21,11.98 3.34,23.87 2.48,32.33 1.63,40.79 -3.51,53.52 -8.66,66.24 -11.20,71.86 -13.74,77.48 -18.81,82.46 -23.88,87.44 -25.87,89.37 -27.86,91.29 -28.19,91.56 -28.52,91.83 -28.92,91.98 -29.32,92.13 -29.74,92.14 -30.17,92.16 -30.57,92.04 -30.98,91.91 -31.33,91.67 -31.68,91.42 -31.93,91.08 -32.18,90.74 -32.30,90.33 -32.43,89.93 -32.42,89.50 -32.41,89.08 -32.27,88.68 -32.13,88.28 -31.86,87.94 -31.60,87.61 -31.24,87.38 -30.89,87.15 -30.48,87.04 -30.06,86.94 -29.64,86.97 -29.22,87.00 -28.82,87.16 -28.43,87.33 -28.11,87.61 -27.80,87.89 -27.58,88.26 -27.37,88.63 -27.29,89.05 -27.21,89.46 -27.26,89.88 -27.32,90.31 -27.50,90.69 -27.69,91.07 -27.99,91.37 -28.28,91.67 -28.66,91.87 -29.04,92.06 -29.46,92.12 -29.88,92.18 -30.30,92.10 -30.72,92.02 -31.09,91.82 -31.46,91.61 -31.75,91.30 -32.04,90.98 -32.21,90.59 -32.38,90.20 -32.41,89.78 -32.45,89.36 -32.35,88.94 -32.25,88.53 -32.03,88.17 -31.80,87.81 -31.80,87.81 -31.80,87.81 -30.13,85.60 -28.47,83.39 -24.93,78.63 -21.40,73.88 -18.93,68.45 -16.45,63.01 -11.50,51.42 -6.56,39.83 -5.67,31.73 -4.78,23.62 -3.93,11.76 -3.08,-0.09 -3.03,-0.46 -2.97,-0.83 -2.83,-1.17 -2.69,-1.51 -2.47,-1.81 -2.25,-2.11 -1.96,-2.35 -1.67,-2.59 -1.34,-2.75 -1.00,-2.92 -0.64,-2.99 -0.27,-3.07 0.09,-3.06 0.46,-3.05 0.82,-2.95 1.18,-2.85 1.50,-2.67 1.83,-2.48 2.10,-2.23 2.37,-1.97 2.57,-1.66 2.77,-1.35 2.90,-1.00 3.02,-0.64 3.05,-0.27 3.08,0.09 3.08,0.09 L 3.08,0.09 Z"
       id="path5748" />
  </g>
  <g
     transform="translate(275.1839334478227 126.86209099834218) rotate(0 -30.87167359161691 34.6263572416367)"
     stroke="none"
     id="g5754">
    <path
       fill="#000000"
       d="M 0.69,3.00 Q 0.69,3.00 -2.27,4.38 -5.23,5.77 -9.29,6.50 -13.34,7.22 -16.80,8.24 -20.25,9.26 -23.82,10.70 -27.38,12.15 -31.22,14.23 -35.07,16.32 -38.00,18.09 -40.94,19.86 -44.21,22.01 -47.48,24.17 -49.91,26.15 -52.33,28.13 -54.11,29.72 -55.89,31.31 -56.43,33.71 -56.96,36.10 -57.03,38.58 -57.10,41.05 -56.53,43.32 -55.97,45.60 -54.96,48.02 -53.96,50.45 -52.75,53.87 -51.55,57.29 -50.99,60.06 -50.44,62.84 -50.80,65.28 -51.15,67.72 -51.08,68.14 -51.00,68.56 -51.06,68.98 -51.11,69.40 -51.30,69.78 -51.49,70.16 -51.80,70.46 -52.10,70.76 -52.48,70.95 -52.86,71.13 -53.28,71.19 -53.70,71.25 -54.12,71.16 -54.54,71.08 -54.91,70.87 -55.28,70.66 -55.56,70.34 -55.84,70.03 -56.01,69.64 -56.17,69.25 -56.21,68.82 -56.24,68.40 -56.14,67.99 -56.03,67.57 -55.80,67.22 -55.57,66.86 -55.24,66.59 -54.91,66.33 -54.51,66.18 -54.11,66.04 -53.68,66.03 -53.26,66.02 -52.85,66.14 -52.45,66.27 -52.10,66.52 -51.76,66.77 -51.51,67.11 -51.27,67.46 -51.14,67.87 -51.02,68.27 -51.03,68.70 -51.05,69.12 -51.19,69.52 -51.34,69.92 -51.61,70.25 -51.88,70.58 -52.23,70.81 -52.59,71.04 -53.01,71.14 -53.42,71.24 -53.84,71.20 -54.27,71.17 -54.66,71.00 -55.05,70.83 -55.36,70.54 -55.68,70.26 -55.88,69.89 -56.09,69.52 -56.09,69.52 -56.09,69.52 -57.75,68.21 -59.42,66.91 -59.98,63.60 -60.55,60.29 -61.54,57.12 -62.53,53.95 -63.57,51.37 -64.62,48.80 -65.47,44.86 -66.31,40.92 -66.22,38.18 -66.14,35.44 -65.85,33.04 -65.57,30.63 -64.13,27.92 -62.69,25.20 -60.55,23.26 -58.41,21.33 -55.40,18.90 -52.40,16.47 -49.02,14.26 -45.64,12.05 -42.46,10.12 -39.27,8.20 -35.32,6.09 -31.37,3.97 -26.97,2.23 -22.58,0.49 -18.67,-0.57 -14.76,-1.64 -11.00,-2.27 -7.23,-2.89 -3.96,-2.94 -0.69,-3.00 -0.32,-3.04 0.04,-3.08 0.41,-3.03 0.78,-2.98 1.12,-2.84 1.47,-2.70 1.77,-2.49 2.07,-2.27 2.32,-1.99 2.56,-1.71 2.73,-1.38 2.89,-1.05 2.98,-0.68 3.06,-0.32 3.06,0.04 3.05,0.41 2.96,0.77 2.86,1.13 2.68,1.46 2.51,1.78 2.26,2.06 2.00,2.33 1.70,2.54 1.39,2.75 1.04,2.87 0.69,3.00 0.69,3.00 L 0.69,3.00 Z"
       id="path5752" />
  </g>
  <g
     transform="translate(320.73100077165077 76.67331631925163) rotate(0 24.613899336936242 22.945184998636705)"
     stroke="none"
     id="g5758">
    <path
       fill="#000000"
       d="M 1.78,-2.61 Q 1.78,-2.61 6.71,-0.03 11.64,2.53 13.87,3.74 16.10,4.95 19.95,7.53 23.80,10.12 27.41,12.94 31.02,15.77 32.77,17.20 34.53,18.63 36.75,21.19 38.97,23.74 41.64,26.52 44.32,29.30 46.46,32.45 48.60,35.60 49.49,39.14 50.38,42.69 50.71,42.95 51.04,43.22 51.27,43.58 51.50,43.93 51.61,44.35 51.71,44.76 51.68,45.18 51.64,45.61 51.48,46.00 51.31,46.39 51.03,46.70 50.75,47.02 50.38,47.23 50.01,47.44 49.59,47.52 49.17,47.60 48.75,47.55 48.33,47.49 47.95,47.30 47.57,47.12 47.27,46.82 46.97,46.52 46.78,46.14 46.59,45.76 46.53,45.34 46.47,44.91 46.55,44.50 46.63,44.08 46.83,43.71 47.04,43.34 47.36,43.05 47.67,42.77 48.06,42.60 48.45,42.43 48.88,42.40 49.30,42.36 49.71,42.46 50.13,42.56 50.48,42.79 50.84,43.02 51.11,43.35 51.38,43.68 51.52,44.08 51.67,44.48 51.69,44.90 51.70,45.33 51.57,45.73 51.45,46.14 51.20,46.49 50.96,46.83 50.61,47.08 50.27,47.33 49.86,47.45 49.46,47.58 49.03,47.57 48.61,47.56 48.21,47.41 47.81,47.27 47.81,47.27 47.81,47.27 44.46,43.94 41.12,40.62 39.34,37.96 37.57,35.30 34.83,32.45 32.08,29.60 30.44,27.60 28.80,25.61 27.12,24.24 25.44,22.86 22.09,20.22 18.75,17.58 15.27,15.20 11.78,12.82 9.18,11.38 6.58,9.94 2.39,6.27 -1.78,2.61 -2.07,2.35 -2.35,2.10 -2.57,1.79 -2.79,1.48 -2.93,1.12 -3.06,0.76 -3.11,0.39 -3.16,0.01 -3.11,-0.36 -3.07,-0.74 -2.94,-1.10 -2.80,-1.45 -2.59,-1.77 -2.37,-2.08 -2.09,-2.34 -1.80,-2.59 -1.47,-2.77 -1.13,-2.95 -0.76,-3.04 -0.39,-3.13 -0.01,-3.14 0.36,-3.14 0.73,-3.05 1.10,-2.96 1.44,-2.78 1.78,-2.61 1.78,-2.61 L 1.78,-2.61 Z"
       id="path5756" />
  </g>
  <g
     transform="translate(221.48148116936454 195.34926991603515) rotate(0 39.94899856074653 -45.894899700149836)"
     stroke="none"
     id="g5762">
    <path
       fill="#000000"
       d="M -2.39,-1.99 Q -2.39,-1.99 -1.29,-4.33 -0.19,-6.67 1.89,-9.12 3.97,-11.56 5.98,-13.73 7.99,-15.89 11.16,-19.17 14.34,-22.44 15.93,-24.05 17.53,-25.66 20.42,-28.62 23.31,-31.58 25.62,-34.42 27.92,-37.26 30.58,-40.62 33.23,-43.98 35.97,-47.51 38.71,-51.04 41.33,-54.10 43.95,-57.17 46.09,-59.99 48.24,-62.82 49.83,-64.97 51.42,-67.12 53.38,-69.66 55.35,-72.21 57.62,-74.84 59.89,-77.46 62.13,-79.71 64.37,-81.96 66.11,-83.79 67.86,-85.61 69.43,-87.31 71.01,-89.01 73.62,-89.87 76.24,-90.74 76.21,-91.16 76.19,-91.59 76.30,-92.00 76.42,-92.41 76.65,-92.76 76.89,-93.11 77.23,-93.37 77.57,-93.63 77.97,-93.76 78.37,-93.90 78.80,-93.90 79.22,-93.90 79.63,-93.76 80.03,-93.63 80.37,-93.37 80.71,-93.12 80.95,-92.76 81.18,-92.41 81.30,-92.00 81.41,-91.59 81.39,-91.17 81.37,-90.74 81.21,-90.35 81.05,-89.96 80.78,-89.63 80.50,-89.31 80.14,-89.09 79.78,-88.87 79.36,-88.78 78.95,-88.68 78.52,-88.73 78.10,-88.78 77.72,-88.95 77.33,-89.13 77.02,-89.42 76.71,-89.72 76.51,-90.09 76.31,-90.47 76.24,-90.89 76.17,-91.30 76.24,-91.72 76.31,-92.14 76.51,-92.52 76.71,-92.89 77.02,-93.19 77.33,-93.48 77.71,-93.66 78.10,-93.84 78.52,-93.88 78.94,-93.93 79.36,-93.84 79.77,-93.75 80.14,-93.53 80.50,-93.31 80.78,-92.99 81.05,-92.66 81.21,-92.27 81.37,-91.87 81.37,-91.87 81.37,-91.87 79.49,-87.47 77.61,-83.06 75.92,-81.24 74.22,-79.42 72.38,-77.43 70.53,-75.45 68.55,-73.48 66.56,-71.50 64.49,-69.10 62.42,-66.69 60.59,-64.33 58.76,-61.96 57.07,-59.66 55.37,-57.36 53.14,-54.42 50.90,-51.49 48.31,-48.45 45.72,-45.41 43.02,-41.94 40.32,-38.47 37.68,-35.12 35.03,-31.76 32.28,-28.46 29.54,-25.16 26.69,-22.28 23.84,-19.39 22.25,-17.79 20.67,-16.20 17.57,-13.03 14.48,-9.86 12.60,-7.83 10.71,-5.80 8.65,-3.40 6.60,-1.01 4.49,0.48 2.39,1.99 2.11,2.24 1.84,2.50 1.51,2.69 1.19,2.87 0.82,2.97 0.46,3.07 0.09,3.08 -0.28,3.09 -0.64,3.02 -1.01,2.94 -1.35,2.77 -1.68,2.61 -1.97,2.37 -2.26,2.13 -2.48,1.83 -2.71,1.52 -2.85,1.18 -2.99,0.83 -3.05,0.46 -3.11,0.09 -3.07,-0.27 -3.04,-0.65 -2.92,-1.00 -2.79,-1.36 -2.59,-1.67 -2.39,-1.99 -2.39,-1.99 L -2.39,-1.99 Z"
       id="path5760" />
  </g>
  <g
     transform="translate(271.27836812595547 219.13285746229735) rotate(0 36.604447775997755 -40.13481355320255)"
     stroke="none"
     id="g5766">
    <path
       fill="#000000"
       d="M -2.54,-1.73 Q -2.54,-1.73 -1.27,-4.31 -0.00,-6.89 1.66,-9.25 3.34,-11.61 8.97,-17.68 14.60,-23.74 16.98,-26.09 19.36,-28.43 21.94,-31.06 24.52,-33.70 27.35,-36.82 30.17,-39.94 32.29,-42.16 34.41,-44.37 36.11,-46.18 37.82,-47.99 39.32,-49.77 40.83,-51.55 42.89,-53.64 44.94,-55.73 46.95,-58.14 48.96,-60.54 51.30,-63.25 53.63,-65.96 55.37,-67.95 57.11,-69.95 59.77,-72.84 62.43,-75.72 64.28,-77.44 66.12,-79.16 68.16,-79.74 70.21,-80.32 70.29,-80.73 70.38,-81.15 70.59,-81.52 70.81,-81.88 71.13,-82.16 71.45,-82.44 71.84,-82.60 72.23,-82.77 72.66,-82.80 73.08,-82.82 73.49,-82.72 73.90,-82.61 74.26,-82.37 74.61,-82.14 74.87,-81.81 75.13,-81.47 75.28,-81.07 75.42,-80.67 75.42,-80.24 75.43,-79.82 75.30,-79.41 75.17,-79.01 74.91,-78.67 74.66,-78.33 74.31,-78.08 73.96,-77.84 73.56,-77.72 73.15,-77.60 72.72,-77.62 72.30,-77.64 71.90,-77.79 71.51,-77.94 71.18,-78.21 70.85,-78.48 70.63,-78.84 70.40,-79.21 70.31,-79.62 70.21,-80.03 70.25,-80.46 70.29,-80.88 70.46,-81.27 70.64,-81.66 70.93,-81.97 71.21,-82.28 71.59,-82.48 71.96,-82.69 72.38,-82.76 72.80,-82.84 73.22,-82.77 73.64,-82.71 74.01,-82.52 74.39,-82.32 74.69,-82.02 74.98,-81.71 75.17,-81.33 75.35,-80.95 75.40,-80.52 75.45,-80.10 75.45,-80.10 75.45,-80.10 73.32,-76.99 71.19,-73.88 69.41,-72.25 67.64,-70.62 65.05,-67.81 62.47,-64.99 60.80,-63.03 59.14,-61.08 56.95,-58.40 54.75,-55.73 52.63,-53.14 50.50,-50.55 48.70,-48.59 46.89,-46.63 45.24,-44.69 43.59,-42.74 41.81,-40.82 40.02,-38.90 38.01,-36.77 35.99,-34.64 33.10,-31.42 30.22,-28.20 27.60,-25.45 24.99,-22.71 22.68,-20.44 20.37,-18.16 15.03,-12.62 9.69,-7.08 8.05,-4.79 6.41,-2.51 4.48,-0.38 2.54,1.73 2.29,2.01 2.05,2.29 1.74,2.50 1.44,2.71 1.09,2.84 0.75,2.98 0.38,3.02 0.01,3.07 -0.35,3.03 -0.71,2.99 -1.06,2.86 -1.41,2.73 -1.72,2.52 -2.02,2.31 -2.27,2.03 -2.52,1.76 -2.69,1.43 -2.87,1.10 -2.96,0.74 -3.05,0.38 -3.05,0.01 -3.05,-0.35 -2.96,-0.71 -2.88,-1.07 -2.71,-1.40 -2.54,-1.73 -2.54,-1.73 L -2.54,-1.73 Z"
       id="path5764" />
  </g>
  <g
     transform="translate(210.33292184903053 256.29473320431157) rotate(0 5.945892633727681 -27.12816384803807)"
     stroke="none"
     id="g5770">
    <path
       fill="#000000"
       d="M -2.97,-0.52 Q -2.97,-0.52 -2.72,-4.22 -2.47,-7.92 -1.28,-13.73 -0.09,-19.54 0.68,-23.13 1.47,-26.72 2.39,-30.61 3.32,-34.49 4.10,-37.63 4.87,-40.77 5.38,-43.32 5.90,-45.86 6.34,-47.98 6.79,-50.10 8.23,-52.88 9.66,-55.65 9.96,-55.95 10.26,-56.25 10.65,-56.44 11.03,-56.62 11.45,-56.68 11.87,-56.73 12.29,-56.65 12.70,-56.57 13.07,-56.36 13.44,-56.15 13.72,-55.83 14.00,-55.51 14.17,-55.12 14.34,-54.73 14.37,-54.30 14.40,-53.88 14.30,-53.47 14.19,-53.06 13.96,-52.70 13.73,-52.34 13.40,-52.08 13.06,-51.82 12.66,-51.67 12.26,-51.53 11.84,-51.52 11.41,-51.51 11.01,-51.64 10.60,-51.76 10.26,-52.01 9.92,-52.26 9.67,-52.61 9.42,-52.96 9.30,-53.36 9.18,-53.77 9.19,-54.19 9.21,-54.62 9.36,-55.02 9.50,-55.42 9.77,-55.75 10.04,-56.07 10.40,-56.30 10.76,-56.53 11.17,-56.63 11.59,-56.73 12.01,-56.69 12.43,-56.65 12.82,-56.48 13.21,-56.31 13.53,-56.03 13.84,-55.74 14.05,-55.37 14.25,-55.00 14.33,-54.58 14.41,-54.16 14.35,-53.74 14.29,-53.32 14.10,-52.94 13.91,-52.56 13.91,-52.56 13.91,-52.57 14.06,-51.31 14.21,-50.05 13.73,-47.26 13.25,-44.46 12.69,-41.65 12.13,-38.83 11.37,-35.72 10.61,-32.61 9.74,-28.87 8.88,-25.13 8.13,-21.56 7.38,-18.00 6.21,-12.30 5.04,-6.60 4.00,-3.03 2.97,0.52 2.86,0.87 2.75,1.22 2.57,1.53 2.38,1.84 2.13,2.10 1.87,2.36 1.56,2.55 1.25,2.74 0.90,2.85 0.56,2.96 0.20,2.98 -0.16,3.01 -0.52,2.95 -0.87,2.88 -1.21,2.73 -1.54,2.59 -1.83,2.37 -2.11,2.14 -2.34,1.86 -2.57,1.57 -2.72,1.24 -2.87,0.91 -2.94,0.55 -3.01,0.20 -2.99,-0.16 -2.97,-0.52 -2.97,-0.52 L -2.97,-0.52 Z"
       id="path5768" />
  </g>
  <g
     transform="translate(211.4477777810638 253.32179539312324) rotate(0 8.918847456267201 -4.273625747028859)"
     stroke="none"
     id="g5774">
    <path
       fill="#000000"
       d="M -1.27,-2.54 Q -1.27,-2.54 0.68,-3.98 2.63,-5.41 4.75,-6.42 6.86,-7.43 9.75,-8.84 12.63,-10.25 14.90,-10.67 17.16,-11.09 17.59,-11.10 18.01,-11.12 18.42,-11.00 18.83,-10.88 19.18,-10.64 19.53,-10.39 19.78,-10.05 20.03,-9.71 20.16,-9.30 20.29,-8.90 20.28,-8.47 20.28,-8.05 20.13,-7.65 19.99,-7.25 19.73,-6.91 19.47,-6.58 19.11,-6.35 18.76,-6.11 18.35,-6.01 17.94,-5.90 17.51,-5.93 17.09,-5.96 16.70,-6.12 16.30,-6.28 15.98,-6.56 15.66,-6.84 15.45,-7.21 15.24,-7.58 15.15,-7.99 15.07,-8.41 15.12,-8.83 15.17,-9.25 15.35,-9.64 15.54,-10.02 15.84,-10.32 16.13,-10.63 16.51,-10.82 16.89,-11.01 17.31,-11.08 17.73,-11.14 18.15,-11.06 18.57,-10.99 18.94,-10.78 19.31,-10.58 19.60,-10.27 19.89,-9.95 20.06,-9.57 20.23,-9.18 20.27,-8.75 20.31,-8.33 20.21,-7.92 20.12,-7.50 19.89,-7.14 19.67,-6.78 19.34,-6.51 19.01,-6.24 18.61,-6.09 18.22,-5.94 18.22,-5.94 18.22,-5.94 17.04,-4.80 15.87,-3.66 12.94,-2.22 10.01,-0.79 7.96,0.17 5.91,1.14 3.59,1.84 1.27,2.54 0.95,2.66 0.62,2.77 0.28,2.81 -0.05,2.84 -0.39,2.80 -0.73,2.75 -1.05,2.62 -1.37,2.49 -1.65,2.29 -1.93,2.09 -2.15,1.83 -2.37,1.57 -2.52,1.26 -2.68,0.95 -2.75,0.62 -2.83,0.28 -2.82,-0.05 -2.82,-0.39 -2.73,-0.73 -2.64,-1.06 -2.47,-1.36 -2.31,-1.66 -2.07,-1.91 -1.84,-2.16 -1.56,-2.35 -1.27,-2.54 -1.27,-2.54 L -1.27,-2.54 Z"
       id="path5772" />
  </g>
  <g
     transform="translate(188.77770505363515 257.0001999608951) rotate(0 5.475163823430989 11.406584336783567)"
     stroke="none"
     id="g5778"
     style="fill:#fcd069;fill-opacity:1">
    <path
       fill="#ced4da"
       d="M 2.57,-0.85 Q 2.57,-0.85 4.34,2.05 6.10,4.96 7.01,8.06 7.92,11.17 9.21,13.17 10.50,15.17 11.49,17.86 12.48,20.55 12.69,20.91 12.91,21.28 13.00,21.69 13.09,22.11 13.04,22.53 12.99,22.95 12.81,23.34 12.63,23.72 12.34,24.03 12.04,24.34 11.67,24.53 11.29,24.73 10.87,24.80 10.45,24.86 10.03,24.79 9.61,24.72 9.24,24.52 8.86,24.32 8.57,24.01 8.28,23.70 8.11,23.31 7.93,22.92 7.89,22.50 7.84,22.08 7.94,21.66 8.03,21.25 8.25,20.89 8.47,20.52 8.80,20.25 9.12,19.98 9.52,19.82 9.91,19.67 10.34,19.65 10.76,19.63 11.17,19.74 11.58,19.86 11.93,20.10 12.28,20.34 12.54,20.68 12.79,21.02 12.93,21.42 13.06,21.83 13.06,22.25 13.05,22.67 12.92,23.08 12.78,23.48 12.52,23.82 12.26,24.15 11.91,24.39 11.55,24.63 11.14,24.74 10.73,24.85 10.31,24.82 9.88,24.80 9.49,24.64 9.10,24.48 8.77,24.20 8.45,23.92 8.45,23.92 8.45,23.93 6.55,22.92 4.65,21.91 3.28,19.92 1.92,17.94 0.89,15.81 -0.13,13.68 -1.02,10.65 -1.91,7.63 -2.24,4.24 -2.57,0.85 -2.64,0.53 -2.70,0.21 -2.69,-0.10 -2.68,-0.43 -2.58,-0.75 -2.49,-1.06 -2.33,-1.34 -2.17,-1.63 -1.94,-1.86 -1.71,-2.10 -1.43,-2.27 -1.16,-2.45 -0.85,-2.55 -0.54,-2.66 -0.21,-2.68 0.11,-2.71 0.43,-2.66 0.75,-2.60 1.05,-2.47 1.35,-2.35 1.62,-2.15 1.88,-1.95 2.08,-1.70 2.29,-1.45 2.43,-1.15 2.57,-0.85 2.57,-0.85 L 2.57,-0.85 Z"
       id="path5776"
       style="fill:#fcd069;fill-opacity:1" />
  </g>
  <g
     transform="translate(183.30254123020427 263.3878771641696) rotate(0 9.125259114989944 10.950327646861865)"
     stroke="none"
     id="g5782"
     style="fill:#fcd069;fill-opacity:1">
    <path
       fill="#ced4da"
       d="M 2.91,-0.64 Q 2.91,-0.64 3.87,1.59 4.83,3.83 6.22,6.17 7.61,8.51 8.76,10.43 9.91,12.36 11.74,14.67 13.56,16.99 14.58,15.96 15.60,14.94 15.85,14.59 16.09,14.24 16.44,13.99 16.78,13.74 17.18,13.61 17.59,13.48 18.01,13.49 18.44,13.50 18.84,13.64 19.24,13.78 19.57,14.05 19.91,14.31 20.14,14.66 20.37,15.02 20.48,15.43 20.58,15.84 20.55,16.27 20.52,16.69 20.36,17.08 20.19,17.47 19.91,17.79 19.63,18.11 19.27,18.33 18.90,18.54 18.48,18.62 18.06,18.71 17.64,18.65 17.22,18.60 16.84,18.41 16.46,18.23 16.15,17.93 15.85,17.63 15.66,17.25 15.46,16.88 15.40,16.46 15.34,16.03 15.42,15.62 15.49,15.20 15.70,14.83 15.91,14.45 16.22,14.17 16.53,13.88 16.92,13.71 17.31,13.54 17.73,13.50 18.16,13.46 18.57,13.56 18.98,13.66 19.34,13.88 19.70,14.11 19.97,14.44 20.24,14.77 20.39,15.16 20.54,15.56 20.56,15.99 20.57,16.41 20.45,16.82 20.33,17.23 20.33,17.23 20.33,17.23 16.28,21.27 12.23,25.32 9.28,23.23 6.33,21.15 4.68,18.78 3.03,16.41 1.82,14.35 0.62,12.29 -1.05,8.94 -2.73,5.60 -2.82,3.12 -2.91,0.64 -2.95,0.28 -2.98,-0.06 -2.93,-0.42 -2.88,-0.78 -2.74,-1.11 -2.61,-1.44 -2.40,-1.74 -2.19,-2.03 -1.91,-2.26 -1.64,-2.49 -1.31,-2.65 -0.99,-2.81 -0.64,-2.89 -0.29,-2.97 0.06,-2.96 0.42,-2.95 0.77,-2.86 1.12,-2.76 1.43,-2.59 1.75,-2.41 2.01,-2.17 2.28,-1.92 2.47,-1.62 2.67,-1.32 2.79,-0.98 2.91,-0.64 2.91,-0.64 L 2.91,-0.64 Z"
       id="path5780"
       style="fill:#fcd069;fill-opacity:1" />
  </g>
</svg>
