<svg version="1.1" xmlns="http://www.w3.org/2000/svg" viewBox="0 0 456.66664123535156 315" width="1369.9999237060547" height="945">
  <!-- svg-source:excalidraw -->
  
  <defs>
    <style class="style-fonts">
      @font-face {
        font-family: "Virgil";
        src: url("https://excalidraw.com/Virgil.woff2");
      }
      @font-face {
        font-family: "Cascadia";
        src: url("https://excalidraw.com/Cascadia.woff2");
      }
    </style>
  </defs>
  <g transform="translate(265.2759073980361 236.84735305250615) rotate(0 -3.730621454101481 10.078512018451079)" stroke="none"><path fill="#f8cc65" d="M 3.57,1.44 Q 3.57,1.44 2.23,1.40 0.88,1.36 -0.94,1.22 -2.77,1.07 -4.43,1.28 -6.09,1.48 -7.91,2.05 -9.72,2.61 -11.68,3.38 -13.64,4.15 -15.13,5.01 -16.63,5.88 -17.97,6.80 -19.31,7.73 -20.11,8.63 -20.90,9.53 -20.87,11.01 -20.84,12.49 -20.01,13.40 -19.19,14.32 -18.08,15.44 -16.97,16.56 -15.07,17.37 -13.18,18.17 -11.22,18.54 -9.27,18.90 -8.06,18.98 -6.85,19.06 -5.57,19.10 -4.29,19.14 -2.76,19.03 -1.23,18.93 0.07,18.65 1.38,18.36 3.36,17.60 5.34,16.83 7.12,15.89 8.91,14.94 10.31,13.96 11.71,12.98 12.53,11.97 13.35,10.96 13.71,9.75 14.08,8.54 13.92,7.24 13.77,5.94 12.97,5.23 12.17,4.51 11.11,3.56 10.06,2.61 9.04,2.25 8.01,1.88 6.98,1.43 5.95,0.98 4.77,0.97 3.58,0.96 2.42,0.99 1.27,1.03 -0.31,1.45 -1.91,1.87 -3.19,2.39 -4.48,2.92 -5.66,3.22 -6.84,3.52 -7.84,3.93 -8.85,4.33 -10.04,4.93 -11.23,5.52 -12.55,7.26 -13.87,9.00 -14.73,10.26 -15.59,11.53 -17.00,10.41 -18.40,9.30 -17.49,8.61 -16.58,7.93 -15.28,6.70 -13.98,5.47 -13.13,4.53 -12.28,3.58 -11.52,2.43 -10.76,1.28 -9.04,0.30 -7.32,-0.67 -8.55,-0.17 -9.78,0.32 -9.63,0.10 -9.48,-0.11 -9.28,-0.29 -9.08,-0.46 -8.85,-0.59 -8.61,-0.71 -8.36,-0.78 -8.10,-0.84 -7.83,-0.84 -7.57,-0.84 -7.31,-0.78 -7.05,-0.71 -6.82,-0.59 -6.58,-0.47 -6.38,-0.29 -6.18,-0.12 -6.03,0.09 -5.88,0.31 -5.79,0.56 -5.69,0.80 -5.66,1.07 -5.63,1.33 -5.66,1.59 -5.69,1.86 -5.78,2.10 -5.88,2.35 -6.96,3.96 -8.04,5.56 -8.99,6.86 -9.94,8.16 -10.78,9.35 -11.62,10.53 -12.23,11.61 -12.83,12.69 -13.43,14.02 -14.02,15.36 -14.17,15.58 -14.32,15.81 -14.52,15.99 -14.72,16.18 -14.95,16.31 -15.19,16.44 -15.45,16.51 -15.71,16.59 -15.99,16.59 -16.26,16.60 -16.52,16.54 -16.79,16.48 -17.03,16.36 -17.27,16.24 -17.48,16.07 -17.69,15.89 -17.85,15.67 -18.01,15.45 -18.11,15.20 -18.21,14.95 -18.25,14.68 -18.29,14.41 -18.26,14.14 -18.24,13.87 -18.15,13.62 -18.06,13.36 -17.17,12.33 -16.28,11.30 -15.55,10.35 -14.82,9.39 -13.82,8.26 -12.83,7.13 -12.00,6.06 -11.17,4.99 -10.39,3.78 -9.61,2.58 -8.52,1.16 -7.44,-0.26 -7.26,-0.43 -7.07,-0.59 -6.89,-0.78 -6.71,-0.96 -6.50,-1.09 -6.28,-1.23 -6.04,-1.30 -5.79,-1.38 -5.54,-1.40 -5.28,-1.42 -5.03,-1.37 -4.78,-1.33 -4.55,-1.23 -4.31,-1.13 -4.11,-0.97 -3.91,-0.81 -3.75,-0.61 -3.59,-0.42 -3.49,-0.18 -3.38,0.04 -3.33,0.29 -3.28,0.54 -3.30,0.79 -3.31,1.05 -3.38,1.29 -3.46,1.54 -3.59,1.76 -3.72,1.98 -3.95,3.04 -4.18,4.10 -4.82,5.36 -5.46,6.63 -6.32,8.22 -7.19,9.81 -7.71,10.73 -8.23,11.66 -8.76,12.59 -9.29,13.52 -9.76,14.34 -10.24,15.16 -10.42,15.36 -10.60,15.55 -10.83,15.69 -11.05,15.84 -11.30,15.93 -11.55,16.01 -11.81,16.04 -12.07,16.07 -12.34,16.03 -12.60,15.99 -12.84,15.89 -13.09,15.79 -13.30,15.63 -13.52,15.48 -13.69,15.27 -13.86,15.07 -13.98,14.83 -14.09,14.60 -14.15,14.34 -14.21,14.08 -14.20,13.81 -14.19,13.55 -14.12,13.29 -14.05,13.04 -13.92,12.81 -13.80,12.58 -12.45,11.03 -11.10,9.48 -10.13,8.43 -9.15,7.39 -8.33,6.36 -7.51,5.32 -6.52,4.07 -5.54,2.82 -4.81,1.89 -4.09,0.96 -3.62,0.43 -3.16,-0.08 -2.97,-0.27 -2.79,-0.45 -2.57,-0.58 -2.35,-0.72 -2.10,-0.80 -1.85,-0.87 -1.59,-0.89 -1.34,-0.90 -1.08,-0.86 -0.83,-0.81 -0.59,-0.71 -0.35,-0.60 -0.15,-0.44 0.05,-0.28 0.21,-0.08 0.37,0.12 0.47,0.35 0.58,0.59 0.63,0.85 0.67,1.10 0.66,1.36 0.64,1.62 0.56,1.87 0.49,2.11 0.35,2.33 0.22,2.56 -0.89,4.77 -2.01,6.97 -2.78,8.13 -3.55,9.29 -4.30,10.53 -5.06,11.76 -5.91,12.90 -6.76,14.03 -6.94,14.26 -7.12,14.49 -7.35,14.66 -7.58,14.84 -7.85,14.96 -8.11,15.08 -8.40,15.13 -8.68,15.18 -8.97,15.16 -9.26,15.14 -9.54,15.05 -9.81,14.96 -10.06,14.81 -10.31,14.66 -10.51,14.45 -10.72,14.25 -10.87,14.00 -11.02,13.75 -11.10,13.47 -11.18,13.19 -11.20,12.91 -11.22,12.62 -11.16,12.33 -11.11,12.05 -10.99,11.78 -10.87,11.52 -9.95,10.76 -9.03,10.01 -8.16,9.28 -7.29,8.55 -6.57,7.70 -5.85,6.86 -5.03,5.91 -4.20,4.97 -3.39,4.04 -2.58,3.11 -1.61,1.99 -0.63,0.86 -0.42,0.70 -0.21,0.53 0.03,0.42 0.27,0.31 0.54,0.26 0.80,0.21 1.07,0.22 1.34,0.24 1.59,0.32 1.85,0.40 2.08,0.54 2.31,0.67 2.50,0.86 2.69,1.05 2.83,1.28 2.97,1.51 3.06,1.77 3.14,2.02 3.15,2.29 3.17,2.56 3.12,2.83 3.08,3.09 2.97,3.34 2.86,3.58 2.69,3.79 2.53,4.01 1.85,5.33 1.17,6.66 0.44,7.85 -0.29,9.05 -1.30,10.35 -2.32,11.66 -3.11,12.88 -3.90,14.10 -4.41,14.82 -4.91,15.54 -5.08,15.77 -5.24,16.00 -5.45,16.18 -5.67,16.37 -5.92,16.50 -6.17,16.62 -6.45,16.69 -6.72,16.75 -7.01,16.75 -7.29,16.75 -7.56,16.67 -7.84,16.60 -8.08,16.47 -8.33,16.33 -8.54,16.14 -8.75,15.95 -8.91,15.72 -9.07,15.49 -9.16,15.22 -9.26,14.95 -9.29,14.67 -9.32,14.39 -9.28,14.11 -9.25,13.83 -9.14,13.57 -9.04,13.30 -8.21,12.51 -7.38,11.71 -5.80,9.94 -4.22,8.18 -3.09,6.96 -1.96,5.75 -1.03,4.71 -0.11,3.68 1.72,2.21 3.56,0.75 3.19,0.87 2.83,1.00 3.06,0.83 3.28,0.67 3.54,0.56 3.80,0.46 4.08,0.42 4.36,0.38 4.64,0.40 4.92,0.43 5.19,0.52 5.45,0.62 5.69,0.77 5.92,0.93 6.11,1.13 6.30,1.34 6.44,1.59 6.58,1.83 6.65,2.10 6.72,2.37 6.73,2.66 6.74,2.94 6.68,3.21 6.61,3.49 6.49,3.74 6.36,3.99 6.18,4.20 6.00,4.42 5.08,5.85 4.16,7.28 3.35,8.58 2.54,9.87 1.71,11.13 0.87,12.39 0.37,13.31 -0.12,14.23 -0.32,14.45 -0.52,14.68 -0.76,14.85 -1.00,15.02 -1.28,15.13 -1.56,15.23 -1.85,15.27 -2.15,15.31 -2.45,15.28 -2.74,15.24 -3.02,15.14 -3.30,15.04 -3.55,14.87 -3.79,14.70 -3.99,14.48 -4.19,14.26 -4.33,14.00 -4.47,13.74 -4.55,13.45 -4.62,13.16 -4.62,12.86 -4.63,12.56 -4.56,12.27 -4.49,11.98 -4.35,11.72 -4.22,11.45 -3.17,10.84 -2.13,10.22 -0.34,8.07 1.44,5.91 2.34,4.93 3.24,3.96 4.18,2.82 5.13,1.68 5.87,0.59 6.61,-0.50 6.64,-0.51 6.67,-0.52 6.83,-0.75 6.98,-0.98 7.19,-1.16 7.40,-1.34 7.65,-1.47 7.89,-1.60 8.16,-1.67 8.43,-1.73 8.71,-1.73 8.99,-1.73 9.26,-1.66 9.53,-1.59 9.77,-1.46 10.02,-1.33 10.23,-1.15 10.43,-0.97 10.59,-0.74 10.75,-0.51 10.84,-0.25 10.94,0.00 10.97,0.28 11.01,0.55 10.97,0.83 10.94,1.11 10.84,1.36 10.74,1.62 9.69,3.39 8.64,5.17 7.90,6.33 7.16,7.49 6.57,8.47 5.98,9.44 5.23,10.50 4.48,11.55 4.29,11.76 4.10,11.97 3.87,12.13 3.64,12.29 3.37,12.39 3.11,12.49 2.83,12.52 2.55,12.55 2.27,12.52 1.98,12.48 1.72,12.38 1.46,12.28 1.23,12.12 0.99,11.96 0.81,11.74 0.62,11.53 0.49,11.28 0.36,11.03 0.30,10.76 0.23,10.48 0.23,10.20 0.23,9.92 0.30,9.64 0.37,9.37 0.50,9.12 0.64,8.87 1.94,7.56 3.25,6.25 4.12,5.40 4.99,4.56 5.77,3.67 6.55,2.77 6.75,2.58 6.95,2.39 7.19,2.25 7.43,2.12 7.70,2.04 7.96,1.97 8.24,1.96 8.52,1.95 8.79,2.01 9.06,2.06 9.30,2.18 9.55,2.30 9.77,2.48 9.98,2.65 10.14,2.88 10.31,3.10 10.41,3.35 10.52,3.61 10.56,3.88 10.61,4.15 10.58,4.43 10.56,4.70 10.47,4.96 10.38,5.23 10.23,5.46 10.08,5.69 9.32,7.20 8.56,8.71 8.09,9.74 7.62,10.78 7.05,12.03 6.47,13.28 6.31,13.52 6.14,13.77 5.92,13.97 5.70,14.17 5.44,14.31 5.17,14.45 4.88,14.52 4.60,14.60 4.30,14.60 4.00,14.60 3.71,14.53 3.42,14.46 3.16,14.33 2.89,14.19 2.67,14.00 2.44,13.80 2.27,13.56 2.10,13.31 2.00,13.04 1.89,12.76 1.85,12.46 1.81,12.17 1.84,11.87 1.88,11.58 1.98,11.30 2.08,11.02 3.24,10.15 4.39,9.28 5.87,8.02 7.35,6.76 7.55,6.70 7.75,6.65 7.98,6.47 8.21,6.30 8.47,6.18 8.73,6.06 9.02,6.01 9.30,5.96 9.59,5.98 9.87,6.00 10.15,6.08 10.42,6.17 10.67,6.32 10.91,6.47 11.11,6.67 11.32,6.88 11.46,7.12 11.61,7.37 11.70,7.65 11.78,7.92 11.80,8.21 11.81,8.49 11.76,8.78 11.71,9.06 11.59,9.32 11.47,9.58 11.29,9.81 11.11,10.03 10.78,11.31 10.45,12.58 10.06,13.39 9.68,14.19 9.50,14.41 9.33,14.62 9.12,14.79 8.90,14.96 8.65,15.07 8.39,15.18 8.12,15.23 7.85,15.28 7.58,15.26 7.30,15.24 7.04,15.16 6.78,15.07 6.54,14.93 6.31,14.79 6.12,14.59 5.92,14.39 5.78,14.16 5.64,13.92 5.56,13.66 5.48,13.39 5.47,13.12 5.45,12.85 5.50,12.57 5.55,12.30 5.67,12.05 5.78,11.80 6.80,11.18 7.82,10.55 8.57,9.50 9.31,8.46 9.36,8.43 9.41,8.40 9.59,8.19 9.78,7.98 10.01,7.82 10.24,7.66 10.50,7.56 10.76,7.45 11.04,7.42 11.32,7.38 11.60,7.41 11.87,7.44 12.14,7.54 12.40,7.64 12.63,7.79 12.87,7.95 13.05,8.16 13.24,8.37 13.38,8.62 13.51,8.86 13.58,9.14 13.65,9.41 13.65,9.69 13.65,9.97 13.59,10.24 13.52,10.52 13.40,10.77 13.27,11.02 12.87,12.44 12.47,13.87 12.35,14.25 12.23,14.63 12.08,14.87 11.93,15.12 11.73,15.31 11.52,15.51 11.28,15.65 11.03,15.80 10.76,15.88 10.49,15.96 10.20,15.97 9.92,15.98 9.64,15.93 9.36,15.87 9.11,15.75 8.85,15.63 8.63,15.45 8.41,15.27 8.24,15.05 8.06,14.82 7.95,14.56 7.84,14.30 7.79,14.02 7.75,13.74 7.77,13.46 7.79,13.17 7.88,12.90 7.97,12.63 9.10,12.15 10.23,11.68 10.97,10.44 11.72,9.20 12.21,8.61 12.70,8.02 12.88,7.82 13.06,7.62 13.28,7.48 13.50,7.33 13.75,7.24 14.01,7.15 14.27,7.12 14.54,7.09 14.80,7.12 15.07,7.16 15.32,7.26 15.56,7.36 15.78,7.51 16.00,7.67 16.17,7.87 16.35,8.07 16.47,8.31 16.59,8.55 16.65,8.81 16.71,9.07 16.71,9.34 16.70,9.61 16.63,9.86 16.57,10.12 16.44,10.36 16.31,10.59 15.68,11.76 15.05,12.93 14.68,13.49 14.32,14.05 14.14,14.24 13.96,14.44 13.74,14.58 13.52,14.72 13.27,14.81 13.03,14.90 12.76,14.92 12.50,14.95 12.24,14.91 11.98,14.87 11.74,14.78 11.50,14.68 11.28,14.52 11.07,14.37 10.90,14.17 10.73,13.97 10.62,13.73 10.50,13.50 10.44,13.24 10.39,12.98 10.39,12.72 10.40,12.46 10.47,12.21 10.54,11.95 10.67,11.72 10.79,11.49 11.37,10.42 11.96,9.34 10.86,8.75 9.75,8.17 8.58,7.83 7.40,7.50 6.18,7.18 4.95,6.86 3.77,6.83 2.58,6.79 1.18,7.27 -0.21,7.74 -1.51,8.19 -2.82,8.63 -4.22,9.08 -5.63,9.53 -6.96,10.01 -8.28,10.50 -9.30,11.06 -10.31,11.62 -11.49,12.81 -12.66,13.99 -11.33,14.07 -10.00,14.15 -8.95,14.38 -7.91,14.61 -6.84,14.84 -5.78,15.07 -4.39,15.34 -3.00,15.61 -1.62,15.61 -0.23,15.62 0.94,15.42 2.13,15.21 3.43,14.70 4.73,14.18 5.91,13.79 7.08,13.41 8.34,13.10 9.60,12.78 9.96,13.98 10.32,15.17 9.24,15.12 8.16,15.08 7.05,15.07 5.93,15.06 4.88,15.35 3.82,15.63 2.38,16.06 0.93,16.49 0.32,16.62 -0.29,16.75 -0.56,16.77 -0.82,16.79 -1.08,16.74 -1.34,16.70 -1.58,16.59 -1.82,16.49 -2.03,16.33 -2.24,16.17 -2.41,15.96 -2.58,15.75 -2.69,15.51 -2.80,15.27 -2.85,15.01 -2.90,14.75 -2.89,14.49 -2.87,14.23 -2.80,13.97 -2.72,13.72 -2.59,13.49 -2.45,13.26 -2.27,13.07 -2.08,12.89 -1.86,12.75 -1.63,12.61 -1.38,12.53 -1.13,12.44 -2.36,13.28 -3.59,14.12 -5.12,14.56 -6.64,14.99 -8.23,14.68 -9.82,14.37 -10.82,13.80 -11.82,13.23 -12.69,12.50 -13.56,11.77 -14.71,11.39 -15.85,11.00 -16.90,11.83 -17.96,12.66 -16.67,13.04 -15.39,13.41 -14.01,13.58 -12.64,13.74 -11.49,13.75 -10.34,13.76 -9.09,13.76 -7.83,13.76 -6.62,13.82 -5.42,13.88 -4.18,13.67 -2.94,13.46 -2.73,13.42 -2.52,13.38 -2.31,13.42 -2.10,13.45 -1.91,13.54 -1.72,13.64 -1.58,13.79 -1.43,13.95 -1.34,14.14 -1.24,14.33 -1.22,14.54 -1.19,14.75 -1.24,14.96 -1.28,15.17 -1.39,15.35 -1.49,15.53 -1.65,15.67 -1.81,15.81 -2.01,15.89 -2.21,15.98 -2.42,15.99 -2.63,16.00 -2.84,15.95 -3.04,15.90 -3.22,15.78 -3.40,15.66 -3.53,15.49 -3.66,15.33 -3.73,15.13 -3.80,14.93 -3.80,14.71 -3.80,14.50 -3.74,14.30 -3.67,14.10 -3.55,13.93 -3.42,13.76 -3.25,13.63 -3.07,13.51 -2.87,13.45 -2.66,13.39 -2.45,13.40 -2.24,13.41 -2.04,13.49 -1.84,13.56 -1.68,13.70 -1.52,13.83 -1.40,14.01 -1.29,14.19 -1.24,14.40 -1.20,14.61 -1.22,14.82 -1.24,15.03 -1.32,15.23 -1.41,15.42 -1.55,15.58 -1.70,15.73 -1.88,15.83 -2.07,15.94 -2.07,15.94 -2.07,15.94 -3.95,17.12 -5.83,18.30 -7.25,18.30 -8.68,18.30 -9.83,18.30 -10.98,18.29 -12.38,18.27 -13.78,18.25 -14.92,17.99 -16.07,17.72 -17.42,17.11 -18.78,16.50 -19.94,15.59 -21.11,14.67 -21.44,13.14 -21.77,11.62 -21.04,10.10 -20.32,8.57 -18.88,7.72 -17.45,6.87 -16.36,6.63 -15.27,6.39 -13.92,6.68 -12.56,6.97 -11.65,7.54 -10.73,8.11 -9.55,9.03 -8.38,9.95 -6.96,9.94 -5.54,9.93 -4.45,9.69 -3.36,9.45 -1.80,9.36 -0.25,9.26 1.09,9.83 2.43,10.40 2.83,11.79 3.22,13.18 2.46,14.29 1.70,15.40 0.70,16.07 -0.29,16.75 -0.55,16.77 -0.82,16.79 -1.08,16.74 -1.34,16.70 -1.58,16.59 -1.82,16.49 -2.03,16.33 -2.24,16.17 -2.41,15.96 -2.58,15.75 -2.69,15.51 -2.80,15.27 -2.85,15.01 -2.90,14.75 -2.89,14.49 -2.87,14.23 -2.80,13.97 -2.72,13.72 -2.59,13.49 -2.45,13.26 -2.27,13.07 -2.08,12.89 -1.86,12.75 -1.63,12.61 -1.38,12.53 -1.13,12.44 -1.16,12.41 -1.18,12.38 -0.01,12.07 1.16,11.76 2.74,11.33 4.31,10.91 5.69,10.75 7.06,10.59 8.36,10.61 9.66,10.64 10.80,10.85 11.95,11.05 12.73,11.81 13.51,12.56 13.25,14.25 12.98,15.93 11.36,16.66 9.74,17.38 8.52,17.59 7.31,17.81 6.03,18.32 4.76,18.83 3.60,19.25 2.44,19.66 1.10,19.88 -0.24,20.09 -1.59,20.05 -2.94,20.01 -4.60,19.77 -6.26,19.53 -7.35,19.29 -8.45,19.06 -10.30,18.57 -12.16,18.09 -13.10,17.46 -14.05,16.82 -14.93,15.98 -15.81,15.14 -16.08,13.87 -16.34,12.60 -15.62,11.33 -14.89,10.05 -14.17,9.23 -13.45,8.41 -12.16,7.64 -10.88,6.87 -9.89,6.45 -8.90,6.03 -7.64,5.53 -6.38,5.03 -5.26,4.73 -4.14,4.43 -2.86,3.99 -1.57,3.54 -0.34,3.12 0.87,2.69 2.31,2.56 3.75,2.43 5.29,2.59 6.83,2.74 7.90,3.19 8.97,3.65 10.19,3.76 11.42,3.86 12.74,4.14 14.07,4.42 15.09,5.47 16.12,6.52 16.16,7.73 16.19,8.93 15.84,10.51 15.48,12.09 14.90,13.07 14.32,14.05 14.14,14.24 13.96,14.44 13.74,14.58 13.52,14.72 13.27,14.81 13.03,14.90 12.76,14.92 12.50,14.95 12.24,14.91 11.98,14.87 11.74,14.78 11.50,14.68 11.29,14.52 11.07,14.37 10.90,14.17 10.73,13.97 10.62,13.73 10.50,13.50 10.44,13.24 10.39,12.98 10.39,12.72 10.40,12.46 10.47,12.21 10.54,11.95 10.67,11.72 10.79,11.49 10.84,12.70 10.90,13.91 10.97,12.42 11.05,10.93 11.87,9.47 12.70,8.02 12.88,7.82 13.06,7.62 13.28,7.48 13.50,7.33 13.75,7.24 14.01,7.15 14.27,7.12 14.54,7.09 14.80,7.12 15.07,7.16 15.31,7.26 15.56,7.36 15.78,7.51 16.00,7.67 16.17,7.87 16.35,8.07 16.47,8.31 16.59,8.55 16.65,8.81 16.71,9.07 16.71,9.34 16.70,9.61 16.63,9.86 16.57,10.12 16.44,10.36 16.31,10.59 15.69,11.29 15.08,11.99 13.65,13.31 12.23,14.63 12.08,14.87 11.93,15.12 11.73,15.31 11.52,15.51 11.28,15.65 11.03,15.80 10.76,15.88 10.49,15.96 10.20,15.97 9.92,15.98 9.64,15.93 9.36,15.87 9.11,15.75 8.85,15.63 8.63,15.45 8.41,15.27 8.24,15.05 8.06,14.82 7.95,14.56 7.84,14.30 7.79,14.02 7.75,13.74 7.77,13.46 7.79,13.17 7.88,12.90 7.97,12.63 8.32,11.75 8.68,10.87 9.04,9.64 9.41,8.40 9.59,8.19 9.78,7.98 10.01,7.82 10.24,7.66 10.50,7.56 10.76,7.45 11.04,7.42 11.32,7.38 11.60,7.41 11.87,7.44 12.14,7.54 12.40,7.64 12.63,7.79 12.87,7.95 13.05,8.16 13.24,8.37 13.38,8.62 13.51,8.86 13.58,9.14 13.65,9.41 13.65,9.69 13.65,9.97 13.59,10.24 13.52,10.52 13.40,10.77 13.27,11.02 12.74,11.59 12.21,12.17 10.95,13.18 9.68,14.19 9.51,14.41 9.33,14.62 9.12,14.79 8.90,14.96 8.65,15.07 8.40,15.18 8.12,15.23 7.85,15.28 7.58,15.26 7.30,15.24 7.04,15.16 6.78,15.07 6.54,14.93 6.31,14.79 6.12,14.59 5.92,14.39 5.78,14.16 5.64,13.92 5.56,13.66 5.48,13.40 5.47,13.12 5.45,12.85 5.50,12.57 5.55,12.30 5.67,12.05 5.78,11.80 5.65,11.80 5.52,11.80 6.03,10.59 6.53,9.37 7.14,8.01 7.75,6.65 7.98,6.47 8.21,6.30 8.47,6.18 8.73,6.06 9.02,6.01 9.30,5.96 9.59,5.98 9.87,6.00 10.15,6.08 10.42,6.17 10.67,6.32 10.91,6.47 11.11,6.67 11.32,6.88 11.46,7.12 11.61,7.37 11.70,7.65 11.78,7.92 11.80,8.21 11.81,8.49 11.76,8.78 11.71,9.06 11.59,9.32 11.47,9.58 11.29,9.81 11.11,10.03 10.65,10.11 10.18,10.20 9.41,11.03 8.63,11.86 7.55,12.57 6.47,13.28 6.31,13.52 6.14,13.77 5.92,13.97 5.70,14.17 5.44,14.31 5.17,14.45 4.89,14.52 4.60,14.60 4.30,14.60 4.00,14.60 3.71,14.53 3.42,14.46 3.16,14.33 2.89,14.19 2.67,14.00 2.45,13.80 2.27,13.56 2.10,13.31 2.00,13.04 1.89,12.76 1.85,12.46 1.81,12.17 1.84,11.87 1.88,11.58 1.98,11.30 2.08,11.02 2.63,9.84 3.17,8.65 3.82,7.34 4.47,6.02 5.51,4.40 6.55,2.77 6.75,2.58 6.95,2.39 7.19,2.25 7.43,2.12 7.70,2.04 7.96,1.97 8.24,1.96 8.52,1.95 8.79,2.01 9.06,2.06 9.30,2.18 9.55,2.30 9.77,2.48 9.98,2.65 10.14,2.88 10.31,3.10 10.41,3.35 10.52,3.61 10.56,3.88 10.61,4.15 10.58,4.43 10.56,4.70 10.47,4.96 10.38,5.23 10.23,5.46 10.08,5.69 9.72,6.08 9.35,6.46 8.05,7.87 6.75,9.29 5.61,10.42 4.48,11.55 4.29,11.76 4.10,11.97 3.87,12.13 3.64,12.29 3.37,12.39 3.11,12.49 2.83,12.52 2.55,12.55 2.27,12.52 1.99,12.48 1.72,12.38 1.46,12.28 1.23,12.12 0.99,11.96 0.81,11.75 0.62,11.53 0.49,11.28 0.36,11.03 0.30,10.76 0.23,10.48 0.23,10.20 0.23,9.92 0.30,9.64 0.37,9.37 0.50,9.12 0.64,8.87 1.21,7.85 1.78,6.84 2.43,5.81 3.08,4.79 3.81,3.74 4.54,2.69 5.60,1.08 6.67,-0.52 6.83,-0.75 6.98,-0.98 7.19,-1.16 7.40,-1.34 7.65,-1.47 7.89,-1.60 8.16,-1.67 8.43,-1.73 8.71,-1.73 8.99,-1.73 9.26,-1.66 9.53,-1.59 9.77,-1.46 10.02,-1.34 10.22,-1.15 10.43,-0.97 10.59,-0.74 10.75,-0.51 10.84,-0.25 10.94,0.00 10.97,0.28 11.01,0.55 10.97,0.83 10.94,1.11 10.84,1.36 10.74,1.62 10.56,1.74 10.38,1.85 9.50,3.21 8.62,4.56 7.60,5.80 6.59,7.03 5.78,7.91 4.96,8.80 3.65,10.45 2.34,12.10 1.10,13.16 -0.12,14.23 -0.32,14.45 -0.52,14.68 -0.76,14.85 -1.00,15.02 -1.28,15.13 -1.56,15.23 -1.85,15.27 -2.15,15.31 -2.45,15.28 -2.74,15.24 -3.02,15.14 -3.30,15.04 -3.55,14.87 -3.79,14.70 -3.99,14.48 -4.19,14.26 -4.33,14.00 -4.47,13.74 -4.55,13.45 -4.62,13.16 -4.62,12.86 -4.63,12.56 -4.56,12.27 -4.49,11.98 -4.35,11.72 -4.22,11.45 -3.70,10.54 -3.19,9.62 -2.36,8.42 -1.52,7.22 -0.58,5.83 0.35,4.44 1.59,2.72 2.83,1.00 3.06,0.83 3.28,0.67 3.54,0.56 3.80,0.46 4.08,0.42 4.36,0.38 4.64,0.40 4.92,0.43 5.19,0.52 5.45,0.62 5.69,0.77 5.92,0.93 6.11,1.13 6.30,1.34 6.44,1.59 6.58,1.83 6.65,2.10 6.72,2.37 6.73,2.65 6.74,2.94 6.68,3.21 6.61,3.49 6.49,3.74 6.36,3.99 6.18,4.20 6.00,4.42 5.43,4.50 4.86,4.57 4.07,5.65 3.28,6.72 2.34,7.77 1.41,8.82 0.32,10.03 -0.75,11.24 -1.91,12.57 -3.07,13.90 -3.99,14.72 -4.91,15.54 -5.08,15.77 -5.24,16.00 -5.45,16.18 -5.67,16.37 -5.92,16.50 -6.17,16.62 -6.45,16.69 -6.72,16.75 -7.00,16.75 -7.29,16.75 -7.56,16.67 -7.84,16.60 -8.08,16.47 -8.33,16.34 -8.54,16.14 -8.75,15.95 -8.91,15.72 -9.07,15.49 -9.16,15.22 -9.26,14.95 -9.29,14.67 -9.32,14.39 -9.28,14.11 -9.25,13.83 -9.14,13.57 -9.04,13.31 -8.50,12.34 -7.95,11.38 -7.01,10.01 -6.06,8.64 -5.17,7.57 -4.27,6.50 -3.42,5.21 -2.56,3.91 -1.60,2.39 -0.63,0.86 -0.42,0.70 -0.21,0.53 0.03,0.42 0.27,0.31 0.54,0.26 0.80,0.21 1.07,0.22 1.34,0.24 1.59,0.32 1.85,0.40 2.08,0.54 2.31,0.67 2.50,0.86 2.69,1.05 2.83,1.28 2.97,1.51 3.06,1.77 3.14,2.02 3.15,2.29 3.17,2.56 3.12,2.83 3.08,3.09 2.97,3.34 2.86,3.58 2.69,3.79 2.53,4.01 1.65,5.02 0.76,6.04 -0.03,6.96 -0.84,7.89 -1.65,8.82 -2.46,9.76 -3.41,10.87 -4.37,11.97 -5.56,13.00 -6.76,14.03 -6.94,14.26 -7.12,14.49 -7.35,14.66 -7.58,14.84 -7.85,14.96 -8.11,15.08 -8.40,15.13 -8.68,15.18 -8.97,15.16 -9.26,15.14 -9.54,15.05 -9.81,14.96 -10.06,14.81 -10.31,14.66 -10.51,14.46 -10.72,14.25 -10.87,14.00 -11.02,13.75 -11.10,13.47 -11.18,13.20 -11.20,12.91 -11.22,12.62 -11.16,12.33 -11.11,12.05 -10.99,11.78 -10.87,11.52 -10.00,10.36 -9.14,9.20 -8.30,7.89 -7.47,6.58 -6.66,5.46 -5.86,4.35 -5.17,3.41 -4.48,2.47 -3.82,1.19 -3.16,-0.08 -2.97,-0.27 -2.79,-0.45 -2.57,-0.58 -2.35,-0.72 -2.10,-0.80 -1.85,-0.87 -1.59,-0.89 -1.34,-0.90 -1.08,-0.86 -0.83,-0.81 -0.59,-0.71 -0.35,-0.60 -0.15,-0.44 0.05,-0.28 0.21,-0.08 0.37,0.12 0.47,0.35 0.58,0.59 0.63,0.85 0.67,1.10 0.66,1.36 0.64,1.62 0.56,1.87 0.49,2.11 0.35,2.33 0.22,2.56 -0.23,3.08 -0.69,3.61 -1.42,4.54 -2.15,5.47 -3.14,6.74 -4.12,8.00 -5.04,9.17 -5.96,10.34 -6.91,11.37 -7.86,12.41 -9.05,13.78 -10.24,15.16 -10.42,15.36 -10.60,15.55 -10.83,15.69 -11.05,15.84 -11.30,15.93 -11.55,16.01 -11.81,16.04 -12.07,16.07 -12.34,16.03 -12.60,15.99 -12.84,15.89 -13.09,15.79 -13.30,15.63 -13.52,15.48 -13.69,15.27 -13.86,15.07 -13.98,14.83 -14.09,14.60 -14.15,14.34 -14.21,14.08 -14.20,13.81 -14.19,13.55 -14.12,13.29 -14.05,13.04 -13.92,12.81 -13.80,12.58 -13.50,11.91 -13.20,11.25 -12.14,9.43 -11.07,7.61 -10.20,6.11 -9.32,4.61 -8.75,3.57 -8.18,2.53 -7.63,0.96 -7.07,-0.59 -6.89,-0.78 -6.71,-0.96 -6.50,-1.09 -6.28,-1.23 -6.04,-1.30 -5.79,-1.38 -5.54,-1.40 -5.28,-1.42 -5.03,-1.37 -4.78,-1.33 -4.55,-1.23 -4.32,-1.13 -4.11,-0.97 -3.91,-0.81 -3.75,-0.62 -3.59,-0.42 -3.49,-0.18 -3.38,0.04 -3.33,0.29 -3.28,0.54 -3.30,0.79 -3.31,1.05 -3.38,1.29 -3.46,1.54 -3.59,1.76 -3.72,1.98 -3.97,2.12 -4.23,2.27 -5.21,3.54 -6.18,4.82 -7.05,6.15 -7.92,7.47 -8.81,8.64 -9.70,9.81 -10.56,10.85 -11.42,11.89 -12.72,13.62 -14.02,15.36 -14.17,15.58 -14.32,15.81 -14.52,15.99 -14.72,16.18 -14.95,16.31 -15.19,16.44 -15.45,16.51 -15.71,16.59 -15.98,16.59 -16.26,16.60 -16.52,16.54 -16.79,16.48 -17.03,16.36 -17.27,16.24 -17.48,16.07 -17.69,15.89 -17.85,15.67 -18.01,15.45 -18.11,15.20 -18.21,14.95 -18.25,14.68 -18.29,14.41 -18.26,14.14 -18.24,13.87 -18.15,13.62 -18.06,13.36 -17.88,12.85 -17.69,12.34 -17.22,11.38 -16.74,10.43 -16.00,9.18 -15.26,7.92 -14.39,6.72 -13.51,5.52 -12.60,4.31 -11.70,3.10 -10.74,1.71 -9.78,0.32 -9.63,0.10 -9.48,-0.11 -9.28,-0.29 -9.08,-0.46 -8.85,-0.59 -8.61,-0.71 -8.36,-0.78 -8.10,-0.84 -7.83,-0.84 -7.57,-0.84 -7.31,-0.78 -7.05,-0.71 -6.82,-0.59 -6.58,-0.47 -6.38,-0.29 -6.18,-0.12 -6.03,0.09 -5.88,0.31 -5.79,0.55 -5.69,0.80 -5.66,1.07 -5.63,1.33 -5.66,1.59 -5.69,1.86 -5.78,2.10 -5.88,2.35 -6.39,2.91 -6.90,3.47 -7.92,5.02 -8.93,6.56 -9.77,7.53 -10.62,8.50 -12.51,10.30 -14.40,12.11 -15.58,12.64 -16.76,13.17 -18.36,12.24 -19.97,11.30 -19.90,10.15 -19.83,9.01 -18.76,7.41 -17.69,5.82 -16.99,4.99 -16.29,4.16 -15.55,3.21 -14.81,2.26 -13.20,1.22 -11.59,0.18 -10.01,-0.51 -8.42,-1.21 -7.38,-1.44 -6.34,-1.68 -5.15,-2.07 -3.96,-2.47 -2.56,-2.67 -1.15,-2.88 0.06,-3.33 1.28,-3.78 2.46,-3.73 3.65,-3.69 4.94,-3.58 6.24,-3.47 7.61,-2.98 8.98,-2.49 10.08,-2.08 11.17,-1.67 12.43,-0.92 13.69,-0.17 14.55,0.60 15.40,1.38 16.18,2.32 16.97,3.27 17.59,4.73 18.21,6.20 18.38,7.48 18.55,8.75 18.39,10.11 18.23,11.46 17.53,12.61 16.82,13.76 15.76,15.04 14.69,16.31 12.93,17.58 11.18,18.85 10.10,19.48 9.03,20.11 8.03,20.60 7.04,21.08 5.93,21.53 4.82,21.98 3.58,22.42 2.34,22.86 0.72,23.21 -0.90,23.55 -2.66,23.67 -4.42,23.80 -5.80,23.76 -7.18,23.72 -8.61,23.61 -10.04,23.50 -12.40,23.03 -14.77,22.56 -16.25,22.01 -17.72,21.46 -18.81,20.84 -19.90,20.23 -20.78,19.49 -21.67,18.75 -22.91,17.26 -24.15,15.77 -24.96,14.21 -25.77,12.65 -25.84,10.94 -25.92,9.23 -25.29,7.91 -24.65,6.59 -23.81,5.67 -22.96,4.75 -21.78,3.83 -20.61,2.90 -19.10,1.86 -17.60,0.82 -16.59,0.32 -15.59,-0.18 -13.46,-1.02 -11.33,-1.86 -9.22,-2.50 -7.11,-3.14 -5.68,-3.42 -4.26,-3.69 -2.31,-3.55 -0.36,-3.41 0.94,-3.18 2.25,-2.94 3.37,-2.19 4.49,-1.44 4.66,-1.36 4.83,-1.28 4.97,-1.17 5.11,-1.06 5.22,-0.91 5.33,-0.77 5.41,-0.60 5.48,-0.43 5.51,-0.25 5.54,-0.07 5.53,0.10 5.52,0.28 5.46,0.45 5.41,0.63 5.31,0.78 5.22,0.94 5.09,1.07 4.96,1.19 4.80,1.29 4.64,1.38 4.47,1.43 4.29,1.48 4.11,1.49 3.93,1.50 3.75,1.47 3.57,1.44 3.57,1.44 L 3.57,1.44 Z"></path></g><g transform="translate(205.9541165090768 255.63643867440305) rotate(0 22.757115115356527 8.610799172495945)" stroke="none"><path fill="#000000" d="M 0.48,-1.46 Q 0.48,-1.46 1.72,-1.63 2.96,-1.81 4.68,-1.19 6.40,-0.57 7.50,-0.02 8.59,0.53 10.05,1.15 11.50,1.77 13.24,2.35 14.97,2.94 16.93,3.56 18.88,4.19 20.54,4.82 22.20,5.46 23.72,6.02 25.23,6.58 26.73,6.95 28.22,7.32 29.32,7.65 30.41,7.99 31.70,8.59 32.99,9.19 34.28,9.74 35.57,10.29 36.68,10.67 37.79,11.04 39.06,11.74 40.34,12.44 41.96,13.11 43.58,13.78 44.54,14.84 45.49,15.89 45.70,15.95 45.90,16.01 46.08,16.13 46.25,16.25 46.38,16.42 46.50,16.59 46.57,16.80 46.63,17.00 46.63,17.21 46.63,17.42 46.56,17.62 46.49,17.82 46.36,17.99 46.23,18.16 46.05,18.28 45.87,18.39 45.67,18.45 45.46,18.50 45.25,18.49 45.04,18.47 44.84,18.39 44.65,18.31 44.49,18.17 44.33,18.03 44.22,17.85 44.11,17.67 44.07,17.46 44.02,17.25 44.05,17.04 44.07,16.83 44.17,16.64 44.26,16.45 44.41,16.29 44.55,16.14 44.74,16.04 44.93,15.95 45.14,15.91 45.35,15.88 45.56,15.92 45.77,15.96 45.96,16.06 46.14,16.16 46.29,16.32 46.43,16.47 46.52,16.67 46.61,16.86 46.63,17.07 46.65,17.28 46.60,17.49 46.55,17.70 46.44,17.88 46.33,18.06 46.16,18.19 46.00,18.33 45.80,18.41 45.60,18.48 45.39,18.49 45.18,18.50 45.18,18.50 45.18,18.50 42.16,18.38 39.15,18.25 38.13,17.84 37.11,17.43 35.95,16.82 34.79,16.22 33.20,15.68 31.61,15.14 30.43,14.56 29.25,13.98 27.79,13.44 26.33,12.89 24.92,12.54 23.50,12.18 22.33,11.80 21.16,11.42 19.90,10.86 18.64,10.29 17.03,9.70 15.42,9.11 13.33,8.44 11.23,7.77 9.34,7.00 7.45,6.23 5.99,5.39 4.54,4.55 2.91,3.89 1.28,3.22 0.39,2.34 -0.48,1.46 -0.65,1.38 -0.82,1.30 -0.96,1.18 -1.11,1.06 -1.22,0.91 -1.33,0.77 -1.40,0.60 -1.48,0.42 -1.51,0.24 -1.54,0.06 -1.52,-0.12 -1.51,-0.30 -1.45,-0.48 -1.39,-0.66 -1.29,-0.81 -1.19,-0.97 -1.06,-1.10 -0.92,-1.23 -0.76,-1.32 -0.60,-1.41 -0.42,-1.46 -0.24,-1.52 -0.06,-1.52 0.12,-1.53 0.30,-1.49 0.48,-1.46 0.48,-1.46 L 0.48,-1.46 Z"></path></g><g transform="translate(212.10468131333937 256.8665488197462) rotate(0 21.527019047560543 -6.1505718430364595)" stroke="none"><path fill="#000000" d="M -1.24,-0.53 Q -1.24,-0.53 -1.12,-1.95 -1.01,-3.37 -0.34,-4.42 0.32,-5.48 0.97,-6.32 1.62,-7.16 2.45,-8.10 3.27,-9.04 4.12,-9.91 4.96,-10.78 6.02,-11.60 7.09,-12.41 8.06,-13.04 9.03,-13.68 10.04,-14.08 11.06,-14.48 12.07,-14.95 13.07,-15.43 14.26,-15.87 15.44,-16.31 16.88,-16.42 18.31,-16.54 19.96,-16.22 21.60,-15.90 22.63,-15.25 23.67,-14.60 24.60,-13.75 25.52,-12.90 25.92,-11.47 26.31,-10.04 26.33,-8.96 26.34,-7.88 25.68,-6.51 25.03,-5.15 24.02,-4.09 23.02,-3.03 21.76,-2.06 20.50,-1.10 19.65,0.01 18.81,1.14 18.12,2.32 17.43,3.51 17.17,3.64 16.91,3.76 16.63,3.83 16.34,3.89 16.05,3.88 15.76,3.88 15.48,3.80 15.21,3.72 14.95,3.58 14.70,3.44 14.49,3.25 14.27,3.05 14.11,2.81 13.96,2.56 13.86,2.29 13.76,2.02 13.74,1.73 13.71,1.44 13.75,1.15 13.79,0.87 13.90,0.60 14.01,0.33 14.18,0.10 14.35,-0.13 14.57,-0.32 14.79,-0.50 15.87,-1.23 16.95,-1.96 18.13,-2.84 19.32,-3.73 20.41,-4.61 21.50,-5.49 22.66,-6.15 23.82,-6.81 25.01,-7.56 26.20,-8.31 27.55,-8.91 28.91,-9.50 30.26,-9.90 31.61,-10.30 32.66,-10.62 33.70,-10.94 35.19,-11.27 36.67,-11.59 37.78,-11.82 38.89,-12.04 41.40,-11.28 43.91,-10.52 44.10,-10.43 44.29,-10.33 44.44,-10.18 44.59,-10.03 44.68,-9.84 44.77,-9.64 44.80,-9.43 44.83,-9.22 44.79,-9.02 44.74,-8.81 44.64,-8.62 44.53,-8.44 44.37,-8.30 44.21,-8.16 44.02,-8.07 43.82,-7.99 43.61,-7.98 43.40,-7.96 43.19,-8.01 42.99,-8.06 42.81,-8.18 42.63,-8.30 42.50,-8.46 42.37,-8.63 42.30,-8.83 42.22,-9.03 42.22,-9.24 42.21,-9.45 42.28,-9.66 42.34,-9.86 42.47,-10.03 42.59,-10.20 42.77,-10.33 42.94,-10.45 43.14,-10.51 43.35,-10.57 43.56,-10.56 43.77,-10.56 43.97,-10.48 44.17,-10.41 44.33,-10.27 44.50,-10.14 44.61,-9.96 44.72,-9.78 44.77,-9.57 44.82,-9.37 44.81,-9.15 44.79,-8.94 44.70,-8.75 44.62,-8.55 44.47,-8.40 44.33,-8.24 44.14,-8.14 43.96,-8.03 43.75,-7.99 43.54,-7.95 43.33,-7.98 43.12,-8.02 43.12,-8.01 43.12,-8.01 42.00,-7.98 40.89,-7.94 39.59,-7.36 38.29,-6.78 37.15,-6.67 36.00,-6.57 34.86,-6.37 33.71,-6.18 31.99,-5.60 30.28,-5.02 28.90,-4.30 27.52,-3.57 26.00,-2.67 24.48,-1.76 23.39,-0.90 22.31,-0.04 21.11,0.85 19.91,1.74 18.67,2.62 17.43,3.51 17.17,3.64 16.91,3.76 16.63,3.83 16.34,3.89 16.05,3.88 15.76,3.88 15.49,3.80 15.21,3.72 14.95,3.58 14.70,3.44 14.49,3.25 14.27,3.05 14.11,2.81 13.96,2.56 13.86,2.29 13.76,2.02 13.74,1.73 13.71,1.44 13.75,1.15 13.79,0.87 13.90,0.60 14.01,0.33 14.18,0.10 14.35,-0.13 14.57,-0.32 14.79,-0.50 14.66,-0.59 14.52,-0.67 15.15,-1.59 15.78,-2.52 16.85,-3.63 17.92,-4.75 18.81,-5.62 19.69,-6.49 20.65,-7.27 21.60,-8.04 21.73,-9.22 21.86,-10.40 20.76,-11.08 19.65,-11.76 18.42,-11.87 17.18,-11.98 16.07,-11.48 14.97,-10.98 13.45,-10.49 11.94,-9.99 11.03,-9.35 10.12,-8.71 9.23,-8.06 8.33,-7.42 7.53,-6.61 6.72,-5.80 5.96,-5.01 5.20,-4.21 4.17,-2.89 3.13,-1.58 2.19,-0.52 1.24,0.53 1.16,0.67 1.08,0.81 0.97,0.93 0.85,1.05 0.71,1.14 0.57,1.22 0.42,1.27 0.26,1.33 0.10,1.34 -0.05,1.35 -0.21,1.33 -0.38,1.30 -0.53,1.23 -0.68,1.17 -0.81,1.07 -0.94,0.97 -1.04,0.85 -1.14,0.72 -1.21,0.57 -1.28,0.42 -1.32,0.26 -1.35,0.10 -1.34,-0.05 -1.33,-0.22 -1.29,-0.37 -1.24,-0.53 -1.24,-0.53 L -1.24,-0.53 Z"></path></g><g transform="translate(177.6614846233556 273.4730991308402) rotate(0 15.991488199648785 14.146315942860667)" stroke="none"><path fill="#000000" d="M 0.51,-1.21 Q 0.51,-1.21 2.01,-1.29 3.51,-1.37 4.80,-0.78 6.08,-0.19 7.14,0.50 8.21,1.19 9.05,1.87 9.88,2.56 11.53,3.69 13.17,4.82 14.01,5.50 14.84,6.19 16.15,7.17 17.46,8.14 18.67,9.45 19.87,10.75 20.89,11.79 21.91,12.83 22.80,13.97 23.69,15.11 24.67,16.13 25.65,17.14 26.33,18.14 27.01,19.14 27.66,20.16 28.30,21.17 29.36,22.22 30.42,23.27 31.37,24.21 32.32,25.15 32.59,25.20 32.85,25.24 32.95,25.37 33.05,25.49 33.11,25.64 33.18,25.78 33.20,25.94 33.23,26.09 33.22,26.25 33.22,26.41 33.17,26.56 33.12,26.71 33.04,26.85 32.96,26.98 32.85,27.09 32.73,27.21 32.60,27.29 32.46,27.37 32.31,27.42 32.16,27.46 32.00,27.47 31.85,27.48 31.69,27.46 31.53,27.43 31.39,27.36 31.25,27.30 31.12,27.20 31.00,27.10 30.88,26.33 30.76,25.56 30.89,25.39 31.02,25.22 31.19,25.10 31.37,24.98 31.57,24.93 31.78,24.87 31.99,24.88 32.20,24.89 32.40,24.97 32.60,25.04 32.76,25.18 32.92,25.32 33.03,25.50 33.14,25.68 33.19,25.89 33.23,26.10 33.21,26.31 33.19,26.52 33.10,26.71 33.01,26.91 32.87,27.06 32.72,27.22 32.53,27.32 32.35,27.42 32.14,27.45 31.93,27.49 31.72,27.45 31.51,27.42 31.32,27.32 31.13,27.22 30.99,27.07 30.84,26.91 30.75,26.72 30.66,26.53 30.64,26.32 30.61,26.11 30.66,25.90 30.70,25.69 30.81,25.51 30.92,25.33 31.08,25.19 31.24,25.05 31.44,24.97 31.64,24.89 31.85,24.88 32.06,24.87 32.26,24.92 32.47,24.98 32.65,25.10 32.82,25.22 32.95,25.38 33.08,25.55 33.15,25.75 33.22,25.96 33.22,26.17 33.22,26.38 33.03,25.81 32.85,25.24 32.95,25.37 33.05,25.49 33.11,25.64 33.18,25.78 33.20,25.94 33.23,26.09 33.22,26.25 33.22,26.41 33.17,26.56 33.12,26.71 33.04,26.85 32.96,26.98 32.85,27.09 32.73,27.21 32.60,27.29 32.46,27.37 32.31,27.42 32.16,27.46 32.00,27.47 31.85,27.48 31.69,27.46 31.53,27.43 31.39,27.36 31.25,27.30 31.12,27.20 31.00,27.10 29.00,27.57 27.01,28.04 26.07,27.14 25.13,26.23 24.34,25.40 23.55,24.57 23.00,23.61 22.44,22.64 21.56,21.28 20.68,19.92 19.88,19.19 19.09,18.46 18.05,17.04 17.01,15.62 15.85,14.38 14.68,13.14 13.77,12.32 12.86,11.50 11.44,10.43 10.03,9.35 9.13,8.70 8.22,8.05 7.31,7.38 6.41,6.71 5.10,5.67 3.80,4.63 2.61,4.06 1.43,3.49 0.45,2.35 -0.51,1.21 -0.65,1.13 -0.79,1.05 -0.90,0.94 -1.02,0.83 -1.10,0.69 -1.19,0.56 -1.24,0.41 -1.29,0.26 -1.30,0.10 -1.31,-0.05 -1.29,-0.21 -1.26,-0.36 -1.20,-0.51 -1.13,-0.66 -1.04,-0.78 -0.94,-0.91 -0.82,-1.01 -0.70,-1.11 -0.55,-1.18 -0.41,-1.25 -0.25,-1.28 -0.10,-1.31 0.05,-1.30 0.21,-1.29 0.36,-1.25 0.51,-1.21 0.51,-1.21 L 0.51,-1.21 Z"></path></g><g transform="translate(178.27650450215936 269.78275461726344) rotate(0 27.67759792937028 6.150578881809736)" stroke="none"><path fill="#000000" d="M 0.19,-1.53 Q 0.19,-1.53 1.68,-2.00 3.18,-2.47 4.88,-2.15 6.59,-1.82 8.33,-1.30 10.06,-0.77 11.69,-0.43 13.32,-0.10 15.21,0.47 17.10,1.04 18.75,1.61 20.40,2.18 21.84,2.52 23.28,2.87 24.67,3.15 26.06,3.44 27.49,3.77 28.92,4.10 30.50,4.41 32.08,4.73 33.39,5.00 34.70,5.26 36.33,5.57 37.95,5.89 39.14,5.95 40.34,6.02 41.43,6.25 42.53,6.48 44.49,6.85 46.45,7.22 47.96,7.52 49.47,7.82 50.69,7.89 51.90,7.96 53.06,8.23 54.22,8.49 53.47,9.19 52.73,9.89 52.89,9.92 53.04,9.94 53.19,10.00 53.34,10.06 53.46,10.16 53.59,10.25 53.69,10.37 53.79,10.50 53.86,10.64 53.93,10.78 53.96,10.94 53.99,11.09 53.99,11.25 53.98,11.41 53.94,11.56 53.89,11.71 53.82,11.85 53.74,11.99 53.63,12.10 53.52,12.22 53.39,12.30 53.25,12.39 53.10,12.44 52.95,12.49 52.79,12.50 52.64,12.52 52.26,12.38 51.89,12.25 51.74,12.10 51.60,11.94 51.51,11.75 51.42,11.56 51.40,11.34 51.37,11.13 51.42,10.93 51.46,10.72 51.57,10.54 51.68,10.35 51.84,10.22 52.01,10.08 52.20,10.00 52.40,9.92 52.61,9.91 52.83,9.90 53.03,9.95 53.23,10.01 53.41,10.13 53.59,10.25 53.72,10.42 53.84,10.59 53.91,10.79 53.98,10.99 53.98,11.20 53.98,11.42 53.91,11.62 53.84,11.82 53.72,11.99 53.59,12.16 53.41,12.28 53.24,12.40 53.03,12.45 52.83,12.51 52.61,12.50 52.40,12.49 52.20,12.41 52.01,12.33 51.85,12.19 51.68,12.05 51.57,11.87 51.46,11.69 51.42,11.48 51.37,11.28 51.40,11.06 51.42,10.85 51.51,10.66 51.60,10.47 51.74,10.31 51.89,10.16 52.08,10.06 52.26,9.96 52.47,9.92 52.68,9.89 52.89,9.92 53.10,9.96 52.92,9.93 52.73,9.89 52.89,9.92 53.04,9.94 53.19,10.00 53.34,10.06 53.46,10.16 53.59,10.25 53.69,10.37 53.79,10.50 53.86,10.64 53.93,10.78 53.96,10.94 53.99,11.09 53.99,11.25 53.98,11.41 53.94,11.56 53.89,11.71 53.82,11.85 53.74,11.99 53.63,12.10 53.52,12.22 53.39,12.30 53.25,12.39 53.10,12.44 52.95,12.49 52.79,12.50 52.64,12.52 53.22,13.64 53.80,14.77 52.31,14.48 50.83,14.19 49.71,14.11 48.60,14.02 47.34,13.74 46.09,13.46 44.75,13.19 43.41,12.92 42.26,12.77 41.11,12.62 39.75,12.41 38.40,12.21 36.84,11.90 35.29,11.59 33.59,11.28 31.89,10.97 30.79,10.70 29.69,10.43 27.95,10.07 26.21,9.71 24.67,9.37 23.13,9.03 21.68,8.66 20.24,8.28 18.55,7.68 16.86,7.08 15.28,6.63 13.70,6.17 12.13,5.69 10.55,5.20 9.40,5.02 8.24,4.83 6.57,4.25 4.91,3.67 3.69,3.42 2.47,3.18 1.14,2.35 -0.19,1.53 -0.37,1.49 -0.55,1.44 -0.71,1.35 -0.88,1.27 -1.02,1.14 -1.16,1.02 -1.26,0.86 -1.37,0.71 -1.43,0.54 -1.50,0.36 -1.52,0.17 -1.54,-0.00 -1.52,-0.19 -1.50,-0.37 -1.43,-0.55 -1.36,-0.72 -1.26,-0.87 -1.15,-1.03 -1.01,-1.15 -0.87,-1.27 -0.70,-1.36 -0.54,-1.45 -0.36,-1.49 -0.18,-1.53 0.00,-1.53 0.19,-1.53 0.19,-1.53 L 0.19,-1.53 Z"></path></g><g transform="translate(189.96261423188093 287.0043670398022) rotate(0 7.38068902715284 -3.690344513576406)" stroke="none"><path fill="#000000" d="M -0.79,-1.05 Q -0.79,-1.05 -0.36,-1.96 0.06,-2.87 1.16,-3.30 2.27,-3.73 3.66,-4.46 5.04,-5.20 6.48,-6.07 7.92,-6.95 9.24,-7.61 10.55,-8.28 12.39,-8.43 14.22,-8.59 14.44,-8.61 14.65,-8.64 14.85,-8.59 15.06,-8.54 15.24,-8.43 15.42,-8.32 15.56,-8.16 15.70,-7.99 15.77,-7.80 15.85,-7.60 15.86,-7.39 15.87,-7.17 15.81,-6.97 15.75,-6.76 15.63,-6.59 15.51,-6.41 15.34,-6.29 15.17,-6.16 14.97,-6.09 14.77,-6.03 14.56,-6.03 14.34,-6.03 14.14,-6.10 13.94,-6.17 13.77,-6.30 13.61,-6.43 13.49,-6.61 13.37,-6.78 13.32,-6.99 13.26,-7.19 13.27,-7.40 13.29,-7.62 13.37,-7.81 13.45,-8.01 13.59,-8.17 13.72,-8.33 13.91,-8.44 14.09,-8.55 14.30,-8.59 14.51,-8.64 14.72,-8.61 14.93,-8.59 15.12,-8.50 15.31,-8.41 15.46,-8.26 15.62,-8.11 15.72,-7.92 15.81,-7.73 15.85,-7.52 15.88,-7.31 15.84,-7.11 15.81,-6.90 15.71,-6.71 15.61,-6.52 15.45,-6.38 15.30,-6.23 15.10,-6.14 14.91,-6.06 14.91,-6.06 14.91,-6.06 13.42,-4.97 11.94,-3.88 10.80,-3.30 9.66,-2.71 8.63,-2.07 7.61,-1.42 6.38,-1.03 5.14,-0.63 3.95,0.06 2.76,0.75 1.77,0.90 0.79,1.05 0.65,1.13 0.51,1.21 0.36,1.25 0.21,1.30 0.05,1.31 -0.10,1.31 -0.26,1.28 -0.41,1.25 -0.56,1.18 -0.70,1.11 -0.83,1.01 -0.95,0.91 -1.04,0.78 -1.14,0.65 -1.20,0.51 -1.26,0.36 -1.29,0.20 -1.31,0.05 -1.30,-0.10 -1.29,-0.26 -1.24,-0.41 -1.19,-0.56 -1.10,-0.70 -1.02,-0.83 -0.90,-0.94 -0.79,-1.05 -0.79,-1.05 L -0.79,-1.05 Z"></path></g><g transform="translate(233.14238255021132 25.551155049856334) rotate(0 -23.84397964827656 63.53002490782802)" stroke="none"><path d="M-20.23 2.27 L-18.91 0.24 L-17.5 -3.8 L-15.6 -1.53 L-12.75 2.9 L-11.92 -0.21 L-10.65 1.32 L-8.86 4.26 L-11.13 4.04 L-6.28 4.9 L-7.51 2.01 L-9.04 7.09 L-7.58 8.62 L-3.8 2.79 L-5.08 9.77 L-0.37 3.28 L0.31 4.72 L1.65 4.77 L-1.55 11.64 L5.09 9.48 L5.78 8.74 L7.55 12.58 L6.45 8.6 L9.09 12.56 L7.41 6.76 L8.73 10.45 L7.83 10.22 L11.18 11.7 L8.43 7.32 L12.14 14.68 L7.43 14.95 L12.97 14.7 L14.72 8.37 L12.97 16.02 L12.67 13.81 L17.63 12.36 L18.22 16.44 L15.43 12.77 L14.39 12.87 L21.84 16.85 L18.8 13.08 L22.55 17.14 L21.5 15.56 L21.15 17.51 L24.78 17.76 L22.91 16.37 L26.82 18.45 L29.17 17.06 L30.04 17.49 L24.25 14.81 L25.27 16.05 L29.06 18.3 L29.97 22.27 L32.59 20.61 L35.66 24.8 L35.9 21.4 L36.45 25.65 L40.07 19.62 L38.37 22.28 L42.29 19.17 L36.73 26.57 L39.8 26.5 L38.22 22.93 L41.34 26.85 L45.21 24.57 L41.35 24.55 L42.13 25.24 L44.18 26.72 L46.38 25.11 L48.39 27.01 L49.99 27.81 L46.44 23.48 L54.49 26.29 L49.56 31.15 L53.64 26.06 L53.81 30.48 L56.02 31.03 L57.99 33.28 L54.97 32.58 L63.36 34.43 L60.29 27.42 L63.25 27.61 L63.83 32.81 L64.11 29.05 L68.57 32.39 L64.46 31.37 L67.57 29.32 L65.28 32.67 L70.33 32.03 L69.75 30.39 L70.57 37.54 L74.95 35.95 L78.44 33.26 L80.21 30.81 L78.18 33.53 L78.21 31.75 L80.62 35.63 L80.37 33.01 L78.64 39.25 L85.12 33.79 L84.81 36.62 L83.49 34.2 L83.07 37.83 L84.93 39.32 L83.95 34.83 L84.6 39.15 L88.6 39.61 L88.63 36.62 L84.76 40.14 L87.76 35.61 L89.15 41.73 L85.85 36.93 L90.18 41.16 L92.69 42.33 L88.16 38.69 L92.27 43.05 L95.61 40.43 L90.5 38.16 L88.99 39.45 L90.97 39.7 L96.39 45.89 L88.79 46.77 L95.47 45.61 L91.66 47.97 L90.46 46.39 L97.73 49.83 L97.52 54.04 L94.32 53.75 L97.54 58.47 L93.31 52.44 L92.41 58.89 L94.12 60.61 L94.09 55.08 L96.24 62.48 L96.6 63.59 L94.67 62.11 L95.47 60.45 L94.11 63.42 L93.91 64.63 L93.14 61.43 L95.06 62.58 L92.03 65.93 L93.71 66.61 L95.13 69.28 L94.73 71.41 L89.74 71.7 L91.44 69.33 L91.26 71.94 L88.83 72.95 L92.2 76.09 L89.94 75.93 L89.15 71.19 L90.28 76.73 L93.14 78.79 L93.56 78.91 L89.41 75.28 L87.41 75.32 L93.14 80.1 L91.68 78.31 L93.14 75.49 L86.11 82.09 L86.31 78.77 L90.12 79.03 L88.01 78.06 L93.22 80.68 L91.79 80.02 L89.34 79.66 L83.5 81.87 L89.4 86.23 L85.37 84.38 L84.85 87.92 L83.69 88.48 L79.27 88.85 L78.64 89.14 L84.48 92.88 L82.48 92.62 L80.71 94.24 L75.01 91.76 L79.9 91.72 L74.75 90.7 L79.49 89.46 L74.69 94.53 L75.55 94.5 L70.79 90.9 L72.58 98.46 L77.24 98.75 L75.28 94.26 L70.14 94.54 L71.75 98.32 L67.26 95.64 L67.36 98.51 L65.89 100.9 L67.95 96.05 L63.93 100.49 L68.32 104.68 L69.72 99.14 L67.51 104.57 L61.29 102.52 L60.45 103.35 L60.18 104.15 L61.75 106.52 L62.39 108.1 L56.88 109.18 L56.28 112.71 L57.95 106.42 L59.57 110.31 L57.98 111.77 L53 107.25 L55.86 110.47 L50.41 111.36 L53.82 116.31 L53.2 109.79 L52.46 116.42 L47.34 115.16 L47.75 116.85 L47.96 112.51 L44.67 116.75 L43.01 113.4 L43.08 114.43 L45.36 116.74 L38.98 118.92 L40.7 114.36 L39.31 115.49 L42.24 120.66 L41.8 121.95 L41.43 116.81 L34.82 119.06 L40.15 122.54 L33.84 116.91 L32.34 118.51 L36.43 122.66 L29.86 122.32 L26.14 127.51 L26.54 127.44 L21 126.03 L19.75 130.11 L22.84 127.29 L18.07 124.36 L20.39 125.68 L19.75 131.01 L12.97 129.96 L15.65 123.8 L13.45 127.34 L8.16 128.89 L14.34 129.53 L9.33 126.98 L4.62 125.06 L9.68 125.56 L7.33 126.99 L7.77 126.66 L5.19 126.81 L-0.69 128.73 L4.83 130.9 L-3.92 131.13 L-3.46 124.63 L-3.71 130.19 L-3.85 132.27 L-7.62 131.15 L-5.36 125.04 L-6.92 128.2 L-12.9 128.56 L-10.9 123.4 L-13.45 123.93 L-12.01 125.88 L-18.16 123.17 L-20.8 127.57 L-21.97 125.8 L-23.98 120.55 L-24.14 121.72 L-27.44 118.1 L-24.79 120.85 L-28.68 117.63 L-23.6 121.37 L-28.93 122.82 L-31.78 119.6 L-32.8 119.9 L-31.82 123.58 L-28.3 118.42 L-33.19 123 L-31.94 118.48 L-37.47 119.76 L-35.06 120.58 L-35.32 121.96 L-40.42 113.62 L-38.9 116.84 L-44.38 110.36 L-46.2 114.36 L-50.83 109.89 L-53.18 114.36 L-54.63 115.37 L-55.63 111.03 L-51.35 111.47 L-59.52 113.55 L-53.07 109.37 L-58.93 109.46 L-60.83 106.53 L-60.76 109.81 L-64.42 111.49 L-66.41 113.09 L-60.24 105.19 L-65.08 107.15 L-66.49 109.5 L-67.65 108.35 L-67.98 111.23 L-72.24 106.96 L-75.07 104 L-79.01 101.99 L-86.02 98.63 L-87.44 100.02 L-84.61 97.83 L-86.86 103.04 L-87.94 100.15 L-92.77 95.95 L-88.52 95.5 L-91.67 100.78 L-89.72 96.84 L-97.33 97.92 L-94.84 93.55 L-93.45 94.72 L-102.05 95.95 L-103.27 97.46 L-100.37 91.28 L-103.44 90.29 L-105.76 93.59 L-113.86 90.44 L-112.14 92.29 L-116.36 94.08 L-113.72 91.31 L-111.02 86.17 L-117.98 89.64 L-115.85 87.13 L-118.69 90.69 L-117.95 86.49 L-124.52 84.94 L-125.07 90.02 L-119.82 89.14 L-121.02 86.97 L-126.73 81.49 L-132.64 84.97 L-129.24 82.99 L-135.57 76.76 L-132.47 76.19 L-135.68 75.63 L-140.29 79.96 L-141.62 79.87 L-135.12 76.81 L-136.21 71.57 L-142.26 69.09 L-141.82 68.53 L-140.55 70.25 L-140.07 70.71 L-142.08 66.16 L-145.22 65.77 L-145.56 65.44 L-140.37 56.55 L-144.04 51.76 L-146.04 51.9 L-139.58 49.9 L-145.21 46.44 L-145.08 49.42 L-143.33 44.9 L-142.49 40.3 L-139.82 44.33 L-141.11 40.41 L-137.85 39.1 L-141.7 38.7 L-137.77 35.06 L-141.98 34.91 L-131.95 28.92 L-135.34 24.35 L-132.38 19.99 L-129.85 20.21 L-127.61 17.01 L-131.82 24.2 L-129.97 19.98 L-128.61 14.2 L-128.42 21.41 L-127.8 13.87 L-130.41 17.86 L-128.05 16.56 L-122.6 18.11 L-123.22 18.19 L-128.32 12.06 L-121.71 14.78 L-121.83 7.68 L-116.99 4.94 L-118.9 4.26 L-118.73 11.41 L-118.75 4.73 L-115.67 6.08 L-111.91 9.64 L-113.88 2.64 L-109.75 3.57 L-111.37 6.08 L-112.83 4.94 L-106.86 2.34 L-105.18 7.67 L-106.98 1.23 L-106.93 0.06 L-96.74 2.01 L-101.5 2.43 L-97.94 -0.41 L-96.13 -1.42 L-97.82 -0.88 L-93.28 1.09 L-89.48 -1.84 L-88.83 2.02 L-91.79 1.33 L-87.28 1.96 L-91.57 4.6 L-84.37 2.87 L-90.27 1.42 L-85.55 -1.87 L-84.42 1.62 L-80.53 -0.97 L-79.88 -2.95 L-75.78 2.99 L-76.05 -3.5 L-73.17 -0.84 L-68.75 -3.38 L-72.54 0.16 L-66.57 3 L-66.08 -0.84 L-64.43 3.77 L-62.58 2.65 L-66.26 2.41 L-67.43 -3.4 L-58.01 -0.69 L-53.52 -2.61 L-53.93 -2.58 L-53.4 1.39 L-48.69 2.48 L-47.84 -4.07 L-52.9 -0.67 L-49.45 2.19 L-48.03 0.1 L-44.78 0.82 L-49.61 2.42 L-46.31 -0.59 L-45.16 0.86 L-41.53 -3.49 L-45.02 -1.08 L-39.05 1.58 L-37.33 -2.96 L-36.93 -0.97 L-33.7 -2.87 L-38.87 0.74 L-34.68 -3.57 L-31.03 -0.08 L-35.99 2.72 L-33.53 2.32 L-34.59 -3.26 L-30.81 -3.36 L-29.55 -0.92 L-28.99 -2.57 L-31.84 3.25 L-26.78 3.28 L-24.1 -1.59 L-23.26 -1.94 L-27.12 5.81 L-20.23 6.23 L-19.92 2.86 L-20.36 6.1 L-20.72 3.92 L-17.3 0.51 L-23.65 0.27 L-22.68 1.12 L-18.8 2.53 L-22.04 4.12 L-20.18 -0.15 L-18.87 0.11 L-13.75 1.82 L-14.59 2.61 L-17.4 2.91 L-12.56 4.63 L-13.48 3.66 L-16.22 6.13 L-17.93 -2.03" stroke="none" stroke-width="0" fill="#f8cc65" fill-rule="evenodd"></path><path fill="#f8cc65" d="M -15.81,-5.44 Q -15.81,-5.44 -12.81,-6.21 -9.82,-6.98 -5.20,-5.23 -0.57,-3.47 3.44,-1.75 7.46,-0.02 11.96,1.59 16.46,3.21 20.74,4.83 25.02,6.44 29.27,8.37 33.52,10.30 37.44,11.94 41.36,13.59 46.09,15.25 50.82,16.90 54.93,18.14 59.03,19.38 63.83,20.71 68.62,22.05 72.76,23.08 76.91,24.11 81.59,25.34 86.27,26.56 91.08,29.31 95.88,32.06 98.76,35.24 101.65,38.41 103.13,43.90 104.60,49.39 104.86,53.92 105.12,58.45 104.20,64.01 103.28,69.57 102.18,74.20 101.08,78.82 99.96,83.62 98.85,88.41 96.00,92.26 93.15,96.10 89.52,98.70 85.89,101.31 82.28,103.72 78.66,106.13 75.13,109.20 71.61,112.27 68.21,115.31 64.81,118.34 61.32,120.82 57.84,123.29 53.58,124.94 49.31,126.59 44.57,128.41 39.82,130.22 35.87,132.02 31.92,133.81 26.58,135.46 21.24,137.11 16.41,137.89 11.59,138.68 7.29,138.68 2.99,138.69 -2.33,138.66 -7.65,138.64 -12.03,137.65 -16.41,136.66 -21.07,134.21 -25.73,131.75 -30.61,130.61 -35.48,129.46 -41.12,127.32 -46.77,125.17 -51.82,123.36 -56.87,121.55 -61.53,120.63 -66.19,119.71 -71.83,118.33 -77.47,116.95 -83.09,114.91 -88.71,112.87 -92.96,110.96 -97.21,109.06 -102.85,107.15 -108.48,105.24 -112.84,103.30 -117.19,101.37 -121.69,99.16 -126.19,96.96 -131.21,94.62 -136.24,92.29 -140.64,89.05 -145.04,85.82 -147.44,82.24 -149.84,78.66 -151.57,73.86 -153.30,69.06 -153.67,62.78 -154.04,56.50 -153.88,51.75 -153.71,47.00 -152.78,41.47 -151.84,35.93 -149.99,30.71 -148.14,25.49 -146.05,21.68 -143.96,17.87 -141.04,14.09 -138.12,10.31 -133.92,6.01 -129.72,1.70 -125.85,-1.03 -121.98,-3.77 -117.20,-5.43 -112.42,-7.08 -107.75,-8.11 -103.09,-9.13 -98.74,-9.69 -94.39,-10.26 -89.83,-10.49 -85.26,-10.72 -80.41,-11.09 -75.55,-11.46 -70.97,-11.75 -66.39,-12.03 -61.63,-12.28 -56.87,-12.52 -52.58,-12.82 -48.30,-13.11 -43.51,-13.09 -38.72,-13.07 -33.67,-12.26 -28.62,-11.45 -23.75,-9.64 -18.88,-7.82 -14.31,-6.82 -9.75,-5.83 -8.41,-0.76 -7.07,4.29 -9.86,1.87 -12.64,-0.54 -12.42,0.05 -12.20,0.64 -12.13,1.27 -12.05,1.90 -12.13,2.52 -12.21,3.15 -12.44,3.74 -12.67,4.33 -13.03,4.85 -13.39,5.37 -13.87,5.79 -14.34,6.21 -14.91,6.50 -15.47,6.79 -16.08,6.94 -16.70,7.09 -17.33,7.09 -17.97,7.08 -18.58,6.93 -19.19,6.77 -19.75,6.48 -20.31,6.18 -20.78,5.76 -21.26,5.33 -21.61,4.81 -21.97,4.29 -22.26,3.01 -22.56,1.72 -22.40,0.89 -22.24,0.05 -21.82,-0.68 -21.40,-1.42 -20.76,-1.98 -20.13,-2.55 -19.35,-2.88 -18.57,-3.22 -17.72,-3.29 -16.87,-3.35 -16.05,-3.15 -15.22,-2.94 -14.51,-2.48 -13.79,-2.02 -13.26,-1.36 -12.73,-0.70 -12.44,0.09 -12.15,0.89 -12.12,1.74 -12.10,2.59 -12.35,3.40 -12.60,4.21 -13.10,4.90 -13.60,5.59 -14.29,6.09 -14.98,6.58 -15.79,6.83 -16.61,7.08 -17.46,7.05 -18.31,7.03 -19.10,6.73 -19.90,6.44 -20.56,5.91 -21.22,5.37 -21.68,4.66 -22.14,3.94 -22.34,3.11 -22.54,2.29 -22.47,1.44 -22.40,0.59 -22.07,-0.18 -21.73,-0.96 -21.16,-1.59 -20.59,-2.22 -19.85,-2.64 -19.11,-3.05 -18.28,-3.21 -17.44,-3.37 -16.60,-3.25 -15.76,-3.14 -15.00,-2.76 -14.23,-2.38 -13.63,-1.78 -13.03,-1.18 -12.66,-0.41 -12.28,0.34 -12.46,-0.10 -12.64,-0.54 -12.42,0.04 -12.20,0.64 -12.13,1.27 -12.05,1.90 -12.13,2.52 -12.21,3.15 -12.44,3.74 -12.67,4.33 -13.03,4.85 -13.39,5.37 -13.87,5.79 -14.34,6.21 -14.91,6.50 -15.47,6.79 -16.08,6.94 -16.70,7.09 -17.33,7.09 -17.97,7.08 -18.58,6.93 -19.19,6.77 -19.75,6.48 -20.31,6.18 -20.78,5.76 -21.26,5.34 -21.61,4.81 -21.97,4.29 -23.39,3.81 -24.82,3.34 -23.25,8.90 -21.68,14.46 -26.35,13.11 -31.03,11.76 -35.60,11.19 -40.18,10.62 -44.74,10.63 -49.30,10.64 -53.66,10.99 -58.01,11.33 -63.40,11.56 -68.78,11.78 -73.04,12.08 -77.30,12.38 -82.02,12.89 -86.74,13.40 -91.04,13.68 -95.34,13.97 -99.96,14.23 -104.59,14.48 -109.12,17.34 -113.65,20.19 -116.75,23.36 -119.85,26.52 -122.54,30.36 -125.22,34.20 -127.05,38.81 -128.88,43.43 -129.43,48.10 -129.99,52.78 -130.07,57.99 -130.14,63.19 -127.41,67.28 -124.68,71.36 -120.23,73.54 -115.79,75.73 -110.88,78.00 -105.97,80.28 -101.63,82.21 -97.29,84.14 -93.10,85.57 -88.91,87.01 -84.36,89.28 -79.81,91.56 -75.05,93.54 -70.29,95.52 -65.87,97.08 -61.46,98.65 -57.26,99.39 -53.06,100.13 -48.39,101.84 -43.71,103.55 -39.67,105.17 -35.63,106.80 -30.44,108.53 -25.24,110.27 -20.43,112.09 -15.62,113.91 -11.62,115.92 -7.63,117.93 -2.32,117.91 2.98,117.88 7.82,117.62 12.67,117.36 17.63,115.56 22.59,113.76 28.46,111.21 34.33,108.65 38.60,106.89 42.86,105.13 47.05,102.19 51.23,99.24 55.13,95.54 59.02,91.84 62.54,89.06 66.05,86.29 70.37,83.67 74.68,81.05 77.46,77.61 80.24,74.18 81.12,69.66 82.00,65.15 82.86,60.46 83.71,55.76 84.57,51.55 85.42,47.35 81.28,46.21 77.14,45.08 72.28,44.02 67.43,42.96 62.90,41.63 58.37,40.29 54.28,38.98 50.19,37.68 44.67,35.96 39.16,34.25 34.10,32.17 29.04,30.08 24.81,28.19 20.58,26.30 16.57,24.57 12.55,22.85 7.24,20.67 1.92,18.49 -3.24,16.24 -8.42,13.99 -12.59,12.19 -16.77,10.38 -18.41,7.76 -20.04,5.13 -20.65,4.80 -21.25,4.47 -21.75,4.01 -22.26,3.54 -22.64,2.97 -23.02,2.40 -23.25,1.75 -23.48,1.10 -23.55,0.42 -23.62,-0.25 -23.53,-0.93 -23.43,-1.61 -23.18,-2.25 -22.92,-2.89 -22.52,-3.45 -22.12,-4.00 -21.60,-4.45 -21.08,-4.90 -20.46,-5.21 -19.85,-5.51 -19.18,-5.67 -18.51,-5.82 -17.82,-5.81 -17.14,-5.79 -16.47,-5.62 -15.81,-5.44 -15.81,-5.44 L -15.81,-5.44 Z"></path></g><g stroke-linecap="round" transform="translate(10 10) rotate(0 218.33332061767578 147.5)"><path d="M0 0.3 C119.93 -0.8, 237.3 -1.08, 436.37 -0.85 M0.15 0.03 C148.72 0.53, 297.72 0.32, 436.28 0.06 M435.68 0.17 C436.34 82.59, 435.26 166.06, 438.01 294.57 M437.14 -0.39 C435.05 92.66, 436.31 183.33, 436.58 294.44 M436.84 294.09 C283.95 296.66, 133.17 296.34, 0.17 294.06 M436.66 294.77 C329.07 296.97, 221.34 296.89, 0.05 294.78 M-0.83 295.66 C-2.15 185.89, -2.44 78.95, -0.86 -0.77 M0.53 295.64 C0.36 219.95, 0.49 146.57, -0.25 0.72" stroke="#000000" stroke-width="2" fill="none"></path></g><g transform="translate(107.53662631399516 63.71632406252047) rotate(0 122.08889296497102 -7.380689027152812)" stroke="none"><path fill="#000000" d="M 0.50,-1.60 Q 0.50,-1.60 3.40,-0.95 6.30,-0.30 8.34,0.22 10.39,0.75 13.22,1.52 16.06,2.28 19.38,3.13 22.69,3.98 27.05,4.86 31.42,5.73 37.34,6.81 43.27,7.89 47.19,8.52 51.11,9.16 54.41,9.79 57.71,10.42 61.25,11.22 64.80,12.02 68.21,12.71 71.62,13.40 75.90,14.22 80.18,15.04 83.94,15.75 87.71,16.45 91.08,17.10 94.46,17.76 97.50,18.39 100.54,19.02 103.87,20.02 107.19,21.02 109.56,21.60 111.94,22.17 113.93,22.80 115.92,23.42 117.66,24.05 119.40,24.67 120.65,25.10 121.89,25.54 123.33,26.09 124.78,26.64 126.02,27.02 127.27,27.40 128.36,27.75 129.46,28.11 130.59,28.42 131.72,28.73 133.17,29.25 134.63,29.76 135.74,30.15 136.84,30.53 137.97,30.85 139.10,31.18 140.83,31.55 142.56,31.93 144.33,32.54 146.11,33.16 147.22,33.53 148.34,33.90 150.12,33.52 151.89,33.14 153.37,32.53 154.85,31.92 156.30,31.16 157.75,30.40 159.61,29.37 161.48,28.34 163.37,27.35 165.26,26.36 167.98,24.89 170.71,23.42 173.09,22.09 175.48,20.76 177.80,19.63 180.11,18.50 182.57,17.02 185.03,15.55 187.29,14.49 189.54,13.43 191.50,12.48 193.45,11.53 195.56,10.58 197.67,9.63 199.46,8.86 201.25,8.10 203.02,7.27 204.79,6.44 206.91,5.68 209.02,4.92 210.64,4.14 212.26,3.35 213.82,2.78 215.37,2.20 216.62,1.65 217.87,1.10 219.24,0.36 220.60,-0.36 222.79,-1.57 224.98,-2.78 226.52,-3.50 228.06,-4.23 229.32,-5.11 230.58,-5.99 231.61,-6.53 232.65,-7.08 233.81,-7.81 234.97,-8.54 236.37,-9.38 237.78,-10.21 238.74,-10.84 239.70,-11.46 240.82,-12.18 241.94,-12.90 241.85,-12.83 241.76,-12.76 241.94,-12.99 242.12,-13.22 242.34,-13.40 242.57,-13.58 242.83,-13.70 243.09,-13.82 243.38,-13.87 243.66,-13.93 243.95,-13.91 244.24,-13.90 244.52,-13.81 244.79,-13.73 245.04,-13.58 245.29,-13.43 245.50,-13.23 245.70,-13.03 245.85,-12.78 246.00,-12.53 246.09,-12.26 246.18,-11.98 246.20,-11.70 246.22,-11.41 246.17,-11.12 246.12,-10.84 246.00,-10.57 245.89,-10.31 244.19,-9.88 242.49,-9.46 240.96,-10.37 239.44,-11.28 238.51,-11.82 237.57,-12.35 235.79,-13.26 234.02,-14.17 232.41,-14.89 230.81,-15.62 228.88,-16.45 226.95,-17.29 225.12,-17.97 223.29,-18.66 221.72,-19.33 220.14,-20.00 218.63,-20.62 217.13,-21.23 215.72,-21.86 214.32,-22.50 213.16,-22.89 211.99,-23.28 210.64,-23.85 209.30,-24.43 207.77,-24.98 206.25,-25.54 205.06,-25.95 203.86,-26.37 202.71,-26.70 201.56,-27.04 200.36,-27.35 199.16,-27.67 195.29,-28.71 191.42,-29.75 188.75,-30.34 186.09,-30.94 184.50,-31.39 182.92,-31.84 181.00,-32.27 179.07,-32.70 177.26,-33.29 175.45,-33.88 173.59,-34.53 171.74,-35.18 170.37,-35.50 169.00,-35.82 165.59,-37.15 162.18,-38.48 160.43,-39.08 158.68,-39.67 157.38,-40.11 156.08,-40.54 155.00,-40.90 153.93,-41.27 152.07,-41.63 150.22,-42.00 148.37,-42.62 146.53,-43.25 145.44,-43.61 144.34,-43.98 141.84,-44.89 139.33,-45.81 138.10,-46.24 136.88,-46.68 135.04,-47.76 133.20,-48.85 133.00,-48.78 132.80,-48.71 132.59,-48.70 132.38,-48.70 132.17,-48.76 131.97,-48.83 131.80,-48.95 131.63,-49.08 131.51,-49.25 131.38,-49.42 131.32,-49.63 131.26,-49.83 131.27,-50.04 131.28,-50.26 131.35,-50.46 131.43,-50.65 131.56,-50.82 131.69,-50.98 131.87,-51.10 132.05,-51.21 132.26,-51.26 132.47,-51.31 132.68,-51.29 132.89,-51.27 133.09,-51.19 133.28,-51.10 133.44,-50.96 133.59,-50.81 133.70,-50.63 133.80,-50.44 133.84,-50.23 133.88,-50.02 133.85,-49.81 133.82,-49.60 133.72,-49.41 133.63,-49.22 133.47,-49.08 133.32,-48.93 133.13,-48.83 132.94,-48.74 132.73,-48.71 132.52,-48.69 132.31,-48.73 132.10,-48.77 131.92,-48.88 131.73,-48.98 131.59,-49.14 131.45,-49.30 131.37,-49.50 131.29,-49.69 131.27,-49.90 131.26,-50.12 131.31,-50.32 131.36,-50.53 131.48,-50.71 131.59,-50.88 131.76,-51.02 131.93,-51.15 131.93,-51.15 131.93,-51.15 135.29,-51.39 138.65,-51.64 139.91,-51.19 141.17,-50.73 142.85,-50.10 144.52,-49.47 145.86,-49.08 147.20,-48.69 148.47,-48.15 149.74,-47.61 151.45,-47.12 153.16,-46.63 154.36,-46.43 155.57,-46.23 156.65,-45.87 157.74,-45.51 159.04,-45.08 160.34,-44.65 162.21,-44.04 164.09,-43.43 167.28,-42.20 170.46,-40.98 172.09,-40.57 173.71,-40.17 175.33,-39.60 176.94,-39.04 178.07,-38.71 179.20,-38.37 180.68,-37.89 182.17,-37.42 183.29,-37.19 184.41,-36.97 185.83,-36.55 187.26,-36.13 190.01,-35.50 192.77,-34.87 196.66,-33.86 200.55,-32.85 201.81,-32.51 203.06,-32.17 204.35,-31.79 205.64,-31.41 206.86,-30.98 208.08,-30.54 209.74,-29.93 211.41,-29.32 212.56,-28.81 213.72,-28.30 215.13,-27.81 216.53,-27.31 217.84,-26.70 219.15,-26.09 220.69,-25.44 222.23,-24.79 223.68,-24.14 225.12,-23.50 227.07,-22.75 229.01,-22.01 230.97,-21.14 232.92,-20.27 234.64,-19.48 236.36,-18.70 238.23,-17.71 240.10,-16.73 241.11,-16.15 242.11,-15.57 243.48,-14.67 244.85,-13.78 243.31,-13.27 241.76,-12.76 241.94,-12.99 242.12,-13.22 242.34,-13.40 242.57,-13.58 242.83,-13.70 243.09,-13.82 243.38,-13.87 243.66,-13.93 243.95,-13.91 244.24,-13.90 244.52,-13.81 244.79,-13.73 245.04,-13.58 245.29,-13.43 245.50,-13.23 245.70,-13.03 245.85,-12.78 246.00,-12.53 246.09,-12.26 246.18,-11.98 246.20,-11.70 246.22,-11.41 246.17,-11.12 246.12,-10.84 246.00,-10.57 245.89,-10.31 245.54,-10.11 245.20,-9.91 244.19,-8.99 243.19,-8.07 242.22,-7.43 241.26,-6.79 240.12,-6.08 238.97,-5.36 237.60,-4.41 236.22,-3.47 234.90,-2.84 233.57,-2.20 231.85,-1.03 230.12,0.13 228.72,0.79 227.32,1.45 225.10,2.67 222.88,3.88 221.35,4.71 219.82,5.53 218.43,6.14 217.04,6.74 215.70,7.23 214.36,7.72 212.50,8.60 210.65,9.48 208.75,10.15 206.85,10.83 205.00,11.69 203.15,12.56 201.40,13.30 199.66,14.05 197.62,14.97 195.57,15.89 193.58,16.86 191.59,17.82 189.56,18.77 187.52,19.71 184.88,21.29 182.24,22.87 180.03,23.93 177.83,25.00 175.42,26.34 173.00,27.68 170.25,29.16 167.50,30.64 165.66,31.61 163.82,32.57 161.89,33.63 159.97,34.69 158.33,35.54 156.69,36.38 155.06,37.04 153.43,37.70 151.81,38.18 150.18,38.65 148.82,38.47 147.46,38.28 145.96,37.79 144.46,37.30 142.93,36.77 141.41,36.24 139.64,35.85 137.86,35.46 136.63,35.10 135.39,34.75 134.26,34.36 133.13,33.97 131.83,33.50 130.52,33.03 129.31,32.69 128.10,32.36 127.02,32.01 125.95,31.66 124.57,31.23 123.19,30.81 121.81,30.28 120.42,29.75 119.16,29.31 117.89,28.87 116.24,28.27 114.58,27.67 112.73,27.09 110.89,26.50 108.39,25.89 105.90,25.29 102.77,24.34 99.63,23.39 96.62,22.76 93.61,22.13 90.25,21.48 86.89,20.83 83.12,20.12 79.34,19.41 75.04,18.59 70.74,17.76 67.28,17.06 63.81,16.37 60.34,15.58 56.87,14.79 53.63,14.17 50.40,13.55 46.43,12.90 42.47,12.26 36.51,11.16 30.54,10.07 26.07,9.15 21.59,8.24 18.26,7.38 14.92,6.52 12.09,5.75 9.27,4.98 7.14,4.41 5.00,3.84 2.25,2.72 -0.50,1.60 -0.68,1.51 -0.86,1.43 -1.02,1.31 -1.18,1.18 -1.31,1.02 -1.43,0.86 -1.52,0.68 -1.60,0.49 -1.63,0.29 -1.67,0.09 -1.66,-0.10 -1.65,-0.30 -1.59,-0.49 -1.53,-0.69 -1.42,-0.86 -1.32,-1.03 -1.17,-1.17 -1.03,-1.32 -0.86,-1.42 -0.68,-1.53 -0.49,-1.59 -0.30,-1.65 -0.09,-1.66 0.10,-1.67 0.30,-1.63 0.50,-1.60 0.50,-1.60 L 0.50,-1.60 Z"></path></g><g transform="translate(255.76545489095008 106.15530004619677) rotate(0 1.2301242228902254 21.83452898696231)" stroke="none"><path fill="#000000" d="M -1.32,-0.66 Q -1.32,-0.66 -0.88,-1.77 -0.43,-2.88 -0.07,-3.35 0.29,-3.81 0.40,-3.98 0.52,-4.16 0.68,-4.30 0.83,-4.45 1.02,-4.55 1.20,-4.65 1.41,-4.71 1.61,-4.76 1.83,-4.77 2.04,-4.77 2.25,-4.72 2.45,-4.68 2.64,-4.58 2.83,-4.49 2.99,-4.35 3.16,-4.21 3.28,-4.04 3.40,-3.87 3.48,-3.67 3.56,-3.47 3.59,-3.26 3.62,-3.05 3.60,-2.84 3.58,-2.63 3.51,-2.43 3.44,-2.23 3.97,-1.08 4.51,0.06 4.53,1.64 4.55,3.21 4.55,5.12 4.56,7.02 4.57,9.07 4.58,11.12 4.58,13.75 4.59,16.39 4.59,18.57 4.59,20.76 4.59,22.57 4.60,24.38 4.60,25.68 4.60,26.98 4.60,28.24 4.60,29.50 4.43,31.88 4.26,34.26 3.99,35.40 3.71,36.55 3.61,38.32 3.51,40.09 3.30,41.81 3.09,43.54 1.66,45.79 0.23,48.04 0.02,48.02 -0.19,48.01 -0.38,47.92 -0.58,47.84 -0.74,47.70 -0.90,47.56 -1.00,47.38 -1.11,47.19 -1.15,46.98 -1.19,46.78 -1.17,46.57 -1.14,46.35 -1.05,46.16 -0.95,45.97 -0.80,45.82 -0.66,45.67 -0.47,45.57 -0.28,45.48 -0.07,45.45 0.13,45.42 0.34,45.45 0.55,45.49 0.74,45.60 0.92,45.70 1.07,45.86 1.21,46.01 1.30,46.21 1.38,46.40 1.40,46.61 1.42,46.82 1.37,47.03 1.32,47.24 1.21,47.42 1.09,47.60 0.93,47.73 0.77,47.87 0.57,47.94 0.37,48.02 0.16,48.02 -0.05,48.03 -0.25,47.97 -0.45,47.91 -0.63,47.79 -0.80,47.67 -0.93,47.49 -1.05,47.32 -1.12,47.12 -1.18,46.92 -1.18,46.70 -1.17,46.49 -1.10,46.29 -1.03,46.09 -0.90,45.93 -0.77,45.76 -0.59,45.64 -0.41,45.53 -0.20,45.47 -0.00,45.42 -0.00,45.42 -0.00,45.42 -0.48,43.37 -0.96,41.32 -0.88,39.70 -0.80,38.09 -0.42,35.92 -0.05,33.76 0.13,31.63 0.32,29.50 0.32,28.24 0.32,26.98 0.32,25.68 0.31,24.38 0.32,22.57 0.32,20.76 0.32,18.58 0.32,16.39 0.32,13.76 0.32,11.12 0.33,9.08 0.33,7.03 0.33,5.14 0.33,3.25 0.51,0.96 0.70,-1.31 0.49,-2.56 0.28,-3.81 0.40,-3.98 0.52,-4.16 0.68,-4.30 0.83,-4.45 1.02,-4.55 1.20,-4.65 1.41,-4.71 1.61,-4.76 1.83,-4.77 2.04,-4.77 2.25,-4.72 2.45,-4.68 2.64,-4.58 2.83,-4.49 2.99,-4.35 3.16,-4.21 3.28,-4.04 3.40,-3.87 3.48,-3.67 3.56,-3.47 3.59,-3.26 3.62,-3.05 3.60,-2.84 3.58,-2.63 3.51,-2.43 3.44,-2.23 3.00,-1.79 2.56,-1.35 1.94,-0.34 1.32,0.66 1.23,0.81 1.13,0.96 1.00,1.08 0.86,1.20 0.71,1.29 0.55,1.37 0.38,1.42 0.20,1.47 0.02,1.47 -0.15,1.47 -0.32,1.43 -0.49,1.40 -0.66,1.32 -0.82,1.24 -0.95,1.12 -1.09,1.00 -1.19,0.86 -1.30,0.71 -1.36,0.55 -1.43,0.38 -1.46,0.20 -1.48,0.02 -1.46,-0.14 -1.45,-0.32 -1.39,-0.49 -1.32,-0.66 -1.32,-0.66 L -1.32,-0.66 Z"></path></g><g transform="translate(257.61062714773834 155.9749509794783) rotate(0 51.66482319006991 -28.600169980217288)" stroke="none"><path fill="#000000" d="M -0.88,-1.38 Q -0.88,-1.38 1.41,-3.24 3.71,-5.09 6.03,-6.50 8.34,-7.90 10.56,-9.21 12.79,-10.52 15.12,-11.95 17.46,-13.38 20.75,-15.40 24.04,-17.43 27.26,-19.21 30.48,-20.98 33.26,-22.44 36.04,-23.91 38.43,-25.22 40.82,-26.53 42.93,-27.64 45.03,-28.74 47.55,-29.93 50.07,-31.12 52.18,-32.15 54.28,-33.17 56.10,-33.98 57.92,-34.79 59.71,-35.65 61.50,-36.50 64.09,-37.59 66.68,-38.69 68.57,-39.64 70.46,-40.60 72.44,-41.41 74.42,-42.23 76.02,-43.05 77.62,-43.86 79.28,-44.61 80.93,-45.35 82.74,-46.04 84.55,-46.72 86.63,-47.68 88.71,-48.64 90.23,-49.53 91.75,-50.43 92.94,-51.17 94.13,-51.92 96.14,-53.52 98.16,-55.12 99.80,-56.57 101.44,-58.03 101.57,-58.11 101.70,-58.20 101.85,-58.25 102.00,-58.31 102.16,-58.32 102.32,-58.34 102.47,-58.31 102.63,-58.29 102.78,-58.23 102.92,-58.17 103.05,-58.08 103.18,-57.99 103.28,-57.86 103.39,-57.74 103.46,-57.60 103.53,-57.46 103.56,-57.30 103.59,-57.15 103.59,-56.99 103.59,-56.83 103.54,-56.68 103.50,-56.53 103.43,-56.39 103.35,-56.25 103.24,-56.14 103.13,-56.02 102.14,-56.20 101.14,-56.38 101.07,-56.57 101.00,-56.77 100.99,-56.99 100.99,-57.20 101.05,-57.40 101.11,-57.61 101.23,-57.78 101.36,-57.95 101.53,-58.07 101.70,-58.20 101.90,-58.26 102.11,-58.32 102.32,-58.32 102.53,-58.31 102.73,-58.24 102.93,-58.17 103.10,-58.03 103.26,-57.90 103.38,-57.72 103.49,-57.54 103.54,-57.34 103.60,-57.13 103.58,-56.92 103.56,-56.71 103.48,-56.51 103.39,-56.32 103.25,-56.16 103.11,-56.00 102.93,-55.90 102.74,-55.79 102.53,-55.75 102.32,-55.71 102.11,-55.74 101.90,-55.77 101.71,-55.86 101.52,-55.96 101.37,-56.11 101.22,-56.26 101.13,-56.45 101.03,-56.64 101.00,-56.85 100.97,-57.06 101.01,-57.27 101.05,-57.47 101.16,-57.66 101.26,-57.84 101.42,-57.99 101.58,-58.13 101.77,-58.21 101.97,-58.30 102.18,-58.31 102.39,-58.33 102.60,-58.28 102.80,-58.23 102.98,-58.12 103.16,-58.00 102.30,-58.01 101.44,-58.03 101.57,-58.11 101.70,-58.20 101.85,-58.25 102.00,-58.31 102.16,-58.32 102.32,-58.34 102.47,-58.31 102.63,-58.29 102.78,-58.23 102.92,-58.17 103.05,-58.08 103.18,-57.99 103.28,-57.86 103.39,-57.74 103.46,-57.60 103.53,-57.46 103.56,-57.30 103.59,-57.15 103.59,-56.99 103.59,-56.83 103.54,-56.68 103.50,-56.53 103.43,-56.39 103.35,-56.25 103.24,-56.14 103.13,-56.02 102.11,-53.72 101.09,-51.41 99.82,-50.42 98.55,-49.42 97.58,-48.67 96.61,-47.93 95.36,-47.16 94.11,-46.39 92.38,-45.39 90.66,-44.38 88.43,-43.37 86.20,-42.35 84.52,-41.72 82.85,-41.08 81.30,-40.39 79.74,-39.69 77.97,-38.79 76.19,-37.89 74.38,-37.16 72.56,-36.43 70.53,-35.41 68.49,-34.39 66.00,-33.33 63.51,-32.28 61.66,-31.40 59.81,-30.52 58.07,-29.75 56.32,-28.97 54.20,-27.94 52.07,-26.91 49.63,-25.76 47.20,-24.61 45.13,-23.52 43.07,-22.44 40.64,-21.11 38.20,-19.77 35.46,-18.34 32.72,-16.90 29.59,-15.19 26.47,-13.47 23.16,-11.45 19.86,-9.44 17.48,-7.99 15.11,-6.55 12.91,-5.27 10.71,-3.99 8.44,-2.63 6.18,-1.26 3.53,0.05 0.88,1.38 0.71,1.46 0.53,1.55 0.33,1.59 0.14,1.63 -0.05,1.63 -0.25,1.62 -0.44,1.57 -0.63,1.51 -0.80,1.41 -0.97,1.32 -1.12,1.18 -1.26,1.04 -1.37,0.88 -1.47,0.71 -1.54,0.52 -1.60,0.34 -1.62,0.14 -1.64,-0.05 -1.61,-0.24 -1.58,-0.44 -1.50,-0.62 -1.42,-0.81 -1.31,-0.97 -1.19,-1.12 -1.04,-1.25 -0.88,-1.38 -0.88,-1.38 L -0.88,-1.38 Z"></path></g><g transform="translate(253.92028263416182 158.43517127016457) rotate(0 -71.34665590329519 -21.52700497001348)" stroke="none"><path fill="#000000" d="M -0.68,1.37 Q -0.68,1.37 -1.91,1.17 -3.13,0.96 -5.11,0.09 -7.10,-0.76 -8.49,-1.32 -9.88,-1.88 -11.64,-2.45 -13.39,-3.01 -15.29,-3.39 -17.20,-3.78 -19.34,-4.31 -21.49,-4.84 -23.64,-5.41 -25.79,-5.99 -28.49,-6.76 -31.18,-7.54 -33.40,-8.22 -35.62,-8.91 -37.78,-9.55 -39.93,-10.19 -42.63,-10.99 -45.32,-11.80 -47.69,-12.49 -50.07,-13.19 -52.16,-13.84 -54.26,-14.50 -56.21,-15.13 -58.17,-15.76 -59.92,-16.40 -61.67,-17.03 -63.30,-17.66 -64.93,-18.28 -67.25,-19.27 -69.57,-20.26 -71.40,-21.03 -73.24,-21.79 -75.04,-22.45 -76.85,-23.11 -78.67,-23.75 -80.50,-24.39 -83.01,-25.18 -85.53,-25.97 -87.69,-26.67 -89.84,-27.37 -91.57,-27.83 -93.30,-28.28 -95.03,-28.86 -96.75,-29.44 -98.26,-29.83 -99.76,-30.22 -101.84,-30.75 -103.92,-31.28 -105.66,-31.67 -107.40,-32.07 -108.87,-32.42 -110.34,-32.77 -111.82,-33.09 -113.30,-33.41 -114.97,-33.71 -116.63,-34.02 -117.96,-34.35 -119.28,-34.67 -120.53,-34.98 -121.77,-35.29 -124.26,-35.96 -126.75,-36.63 -128.36,-37.09 -129.96,-37.55 -131.93,-38.00 -133.90,-38.45 -135.83,-39.04 -137.76,-39.64 -140.11,-40.68 -142.47,-41.72 -142.68,-41.77 -142.88,-41.82 -143.06,-41.93 -143.24,-42.04 -143.38,-42.21 -143.51,-42.37 -143.59,-42.57 -143.66,-42.77 -143.67,-42.98 -143.68,-43.19 -143.62,-43.40 -143.56,-43.60 -143.43,-43.77 -143.31,-43.95 -143.14,-44.07 -142.97,-44.20 -142.77,-44.26 -142.56,-44.33 -142.35,-44.32 -142.14,-44.32 -141.94,-44.25 -141.74,-44.18 -141.57,-44.04 -141.41,-43.91 -141.29,-43.73 -141.17,-43.56 -141.12,-43.35 -141.07,-43.14 -141.08,-42.93 -141.10,-42.72 -141.18,-42.52 -141.26,-42.33 -141.40,-42.17 -141.54,-42.01 -141.73,-41.90 -141.91,-41.80 -142.12,-41.76 -142.33,-41.71 -142.54,-41.74 -142.75,-41.77 -142.94,-41.86 -143.13,-41.95 -143.28,-42.10 -143.43,-42.25 -143.53,-42.44 -143.63,-42.63 -143.66,-42.84 -143.69,-43.05 -143.65,-43.26 -143.61,-43.47 -143.51,-43.65 -143.41,-43.84 -143.25,-43.98 -143.09,-44.13 -142.90,-44.21 -142.70,-44.30 -142.49,-44.32 -142.28,-44.34 -142.28,-44.34 -142.28,-44.34 -140.19,-44.51 -138.09,-44.69 -136.26,-44.22 -134.43,-43.75 -132.65,-43.23 -130.87,-42.72 -129.73,-42.49 -128.60,-42.27 -127.04,-41.82 -125.48,-41.36 -123.03,-40.71 -120.58,-40.06 -119.34,-39.75 -118.10,-39.43 -116.92,-39.14 -115.74,-38.84 -114.00,-38.52 -112.27,-38.20 -110.74,-37.87 -109.21,-37.54 -107.76,-37.20 -106.31,-36.85 -104.51,-36.44 -102.71,-36.03 -100.61,-35.51 -98.52,-34.98 -96.85,-34.54 -95.18,-34.11 -93.62,-33.58 -92.05,-33.05 -90.18,-32.56 -88.32,-32.07 -86.18,-31.38 -84.05,-30.69 -81.46,-29.87 -78.87,-29.06 -77.00,-28.41 -75.14,-27.76 -73.24,-27.07 -71.35,-26.37 -69.48,-25.60 -67.62,-24.83 -65.38,-23.88 -63.15,-22.93 -61.56,-22.32 -59.97,-21.71 -58.30,-21.11 -56.63,-20.50 -54.70,-19.87 -52.77,-19.25 -50.72,-18.60 -48.67,-17.96 -46.28,-17.26 -43.89,-16.57 -41.21,-15.76 -38.52,-14.96 -36.33,-14.31 -34.14,-13.66 -31.97,-12.98 -29.79,-12.30 -27.14,-11.52 -24.49,-10.74 -22.39,-10.14 -20.28,-9.55 -18.24,-9.01 -16.19,-8.47 -14.06,-7.99 -11.93,-7.51 -10.01,-6.88 -8.09,-6.24 -6.68,-5.65 -5.26,-5.06 -3.18,-4.07 -1.10,-3.08 -0.21,-2.23 0.68,-1.37 0.84,-1.27 0.99,-1.17 1.12,-1.03 1.24,-0.89 1.33,-0.73 1.42,-0.57 1.47,-0.39 1.52,-0.21 1.52,-0.02 1.53,0.15 1.48,0.33 1.44,0.51 1.36,0.68 1.28,0.84 1.16,0.98 1.04,1.13 0.89,1.23 0.74,1.34 0.56,1.41 0.39,1.48 0.21,1.51 0.03,1.53 -0.15,1.51 -0.33,1.50 -0.51,1.43 -0.68,1.37 -0.68,1.37 L -0.68,1.37 Z"></path></g><g transform="translate(215.78674143060164 147.36413772943524) rotate(0 49.81965093328171 -2.4602343682331025)" stroke="none"><path fill="#000000" d="M 1.09,-0.81 Q 1.09,-0.81 1.97,-0.37 2.86,0.06 3.89,1.15 4.91,2.24 5.97,3.50 7.02,4.77 7.81,5.59 8.60,6.42 9.50,7.01 10.40,7.61 11.53,8.48 12.67,9.35 13.94,10.22 15.21,11.10 16.93,11.32 18.64,11.53 19.92,11.58 21.20,11.62 22.59,11.88 23.98,12.15 25.29,12.19 26.61,12.23 27.99,12.24 29.37,12.24 30.86,12.24 32.36,12.24 33.64,12.24 34.92,12.24 36.26,12.24 37.60,12.24 39.04,12.24 40.49,12.24 41.59,12.13 42.70,12.02 43.95,11.85 45.20,11.68 46.90,11.42 48.60,11.15 50.20,11.10 51.80,11.04 53.17,10.75 54.55,10.46 55.62,10.50 56.69,10.55 57.89,10.18 59.10,9.81 60.39,9.57 61.68,9.33 62.88,9.06 64.08,8.79 65.31,8.68 66.54,8.57 67.61,8.31 68.68,8.04 70.08,7.48 71.48,6.92 73.33,6.38 75.18,5.83 76.34,5.18 77.51,4.53 78.98,3.65 80.46,2.77 81.41,2.15 82.36,1.54 83.30,0.91 84.25,0.29 85.74,-0.60 87.23,-1.50 88.31,-2.28 89.40,-3.07 90.64,-4.00 91.89,-4.92 92.97,-5.95 94.05,-6.97 95.00,-7.57 95.94,-8.17 96.23,-9.51 96.51,-10.86 96.76,-12.03 97.02,-13.20 96.91,-14.37 96.81,-15.54 97.06,-16.80 97.31,-18.06 97.33,-18.22 97.35,-18.38 97.41,-18.53 97.46,-18.67 97.55,-18.80 97.64,-18.93 97.76,-19.04 97.88,-19.14 98.02,-19.22 98.16,-19.29 98.31,-19.33 98.47,-19.37 98.63,-19.37 98.79,-19.37 98.94,-19.33 99.09,-19.29 99.23,-19.22 99.37,-19.14 99.49,-19.04 99.61,-18.93 99.70,-18.80 99.79,-18.67 99.85,-18.52 99.90,-18.38 99.92,-18.22 99.94,-18.06 99.59,-17.48 99.23,-16.90 99.03,-16.83 98.83,-16.77 98.62,-16.77 98.40,-16.77 98.20,-16.84 98.00,-16.91 97.83,-17.04 97.67,-17.17 97.55,-17.34 97.43,-17.52 97.38,-17.73 97.32,-17.93 97.33,-18.14 97.35,-18.35 97.43,-18.55 97.51,-18.75 97.64,-18.91 97.78,-19.07 97.97,-19.18 98.15,-19.29 98.36,-19.33 98.57,-19.37 98.78,-19.35 98.99,-19.33 99.18,-19.23 99.37,-19.14 99.52,-19.00 99.68,-18.85 99.78,-18.66 99.87,-18.47 99.91,-18.26 99.94,-18.05 99.90,-17.84 99.87,-17.63 99.77,-17.45 99.67,-17.26 99.51,-17.12 99.36,-16.97 99.16,-16.88 98.97,-16.79 98.76,-16.77 98.55,-16.75 98.34,-16.80 98.13,-16.85 97.95,-16.96 97.77,-17.07 97.63,-17.23 97.50,-17.39 97.42,-17.59 97.34,-17.79 97.33,-18.00 97.32,-18.21 97.38,-18.42 97.44,-18.62 97.56,-18.80 97.68,-18.97 97.50,-18.52 97.31,-18.06 97.33,-18.22 97.35,-18.38 97.41,-18.53 97.46,-18.67 97.55,-18.80 97.64,-18.93 97.76,-19.04 97.88,-19.14 98.02,-19.22 98.16,-19.29 98.31,-19.33 98.47,-19.37 98.63,-19.37 98.78,-19.37 98.94,-19.33 99.09,-19.29 99.23,-19.22 99.37,-19.14 99.49,-19.04 99.61,-18.93 99.70,-18.80 99.79,-18.67 99.85,-18.52 99.90,-18.38 99.92,-18.22 99.94,-18.06 101.22,-17.41 102.50,-16.76 102.46,-15.50 102.41,-14.25 102.29,-13.02 102.16,-11.79 101.81,-10.52 101.45,-9.25 100.84,-8.15 100.24,-7.04 99.57,-5.88 98.91,-4.72 97.95,-4.02 96.99,-3.32 96.07,-2.63 95.16,-1.93 93.93,-1.01 92.70,-0.08 91.83,0.76 90.97,1.61 90.04,2.23 89.11,2.85 87.84,3.55 86.57,4.24 85.64,4.87 84.71,5.49 83.51,6.35 82.31,7.21 81.30,7.87 80.28,8.52 79.12,9.11 77.95,9.71 76.68,10.27 75.41,10.83 74.22,11.29 73.04,11.75 72.00,12.00 70.95,12.26 69.17,12.90 67.38,13.53 66.15,13.67 64.93,13.80 63.59,14.05 62.26,14.30 61.06,14.55 59.87,14.81 58.67,15.05 57.47,15.28 55.87,15.40 54.26,15.51 53.11,15.77 51.96,16.03 50.59,16.08 49.23,16.13 47.91,16.40 46.59,16.67 45.44,16.73 44.29,16.79 42.39,17.03 40.49,17.27 39.37,17.27 38.26,17.27 37.16,17.27 36.06,17.27 34.99,17.27 33.91,17.27 32.56,17.27 31.21,17.27 29.77,17.27 28.33,17.27 27.12,17.27 25.91,17.27 24.64,17.20 23.37,17.14 22.24,16.89 21.10,16.64 19.54,16.55 17.98,16.47 16.76,16.15 15.53,15.83 14.22,15.46 12.90,15.09 11.98,14.48 11.06,13.87 9.69,13.14 8.33,12.41 7.44,11.52 6.55,10.62 5.22,9.52 3.88,8.42 3.03,7.49 2.18,6.55 1.52,5.61 0.87,4.67 0.06,3.72 -0.74,2.76 -0.91,1.79 -1.09,0.81 -1.17,0.67 -1.25,0.53 -1.30,0.37 -1.34,0.21 -1.35,0.05 -1.36,-0.11 -1.32,-0.27 -1.29,-0.43 -1.22,-0.58 -1.15,-0.73 -1.04,-0.85 -0.94,-0.98 -0.81,-1.08 -0.68,-1.18 -0.53,-1.24 -0.37,-1.31 -0.21,-1.33 -0.05,-1.36 0.11,-1.35 0.27,-1.33 0.43,-1.28 0.58,-1.23 0.72,-1.14 0.86,-1.05 0.97,-0.93 1.09,-0.81 1.09,-0.81 L 1.09,-0.81 Z"></path></g><g transform="translate(352.32948843292934 50.18505615355798) rotate(0 3.0752964796784568 25.524887578086066)" stroke="none"><path fill="#000000" d="M 1.45,-0.20 Q 1.45,-0.20 2.15,0.95 2.84,2.11 3.23,4.12 3.63,6.14 3.98,7.87 4.34,9.60 4.43,11.04 4.51,12.48 4.80,13.82 5.08,15.15 5.27,16.24 5.46,17.33 5.59,18.38 5.73,19.44 5.80,20.89 5.87,22.34 6.14,24.07 6.41,25.79 6.47,27.41 6.53,29.03 6.79,30.16 7.05,31.30 7.35,32.51 7.66,33.73 7.73,34.85 7.80,35.98 8.05,37.04 8.31,38.09 8.38,39.21 8.44,40.33 8.69,41.43 8.94,42.52 9.02,43.94 9.09,45.36 9.10,46.43 9.11,47.49 8.03,48.72 6.95,49.95 6.94,50.11 6.92,50.26 6.86,50.41 6.81,50.56 6.72,50.69 6.63,50.82 6.51,50.93 6.39,51.03 6.25,51.10 6.11,51.18 5.96,51.22 5.80,51.25 5.64,51.25 5.49,51.25 5.33,51.22 5.18,51.18 5.04,51.11 4.90,51.03 4.78,50.93 4.66,50.82 4.57,50.69 4.48,50.56 4.42,50.41 4.37,50.27 4.35,50.11 4.33,49.95 4.37,50.18 4.41,50.41 4.37,50.20 4.33,50.00 4.36,49.78 4.38,49.57 4.48,49.38 4.57,49.19 4.72,49.04 4.87,48.89 5.06,48.79 5.25,48.70 5.46,48.67 5.67,48.64 5.88,48.68 6.09,48.72 6.27,48.82 6.46,48.92 6.60,49.08 6.74,49.24 6.83,49.43 6.91,49.63 6.93,49.84 6.95,50.05 6.90,50.26 6.85,50.46 6.74,50.64 6.62,50.82 6.46,50.96 6.30,51.09 6.10,51.16 5.90,51.24 5.69,51.25 5.47,51.25 5.27,51.19 5.07,51.13 4.89,51.01 4.72,50.89 4.59,50.71 4.47,50.54 4.41,50.34 4.34,50.14 4.35,49.92 4.35,49.71 4.42,49.51 4.49,49.31 4.63,49.15 4.76,48.98 4.94,48.86 5.11,48.75 5.32,48.70 5.53,48.64 5.74,48.66 5.95,48.67 6.15,48.76 6.34,48.84 6.50,48.98 6.66,49.12 6.81,49.54 6.95,49.95 6.94,50.11 6.92,50.26 6.86,50.41 6.81,50.56 6.72,50.69 6.63,50.82 6.51,50.93 6.39,51.03 6.25,51.10 6.11,51.18 5.96,51.22 5.80,51.25 5.64,51.25 5.49,51.25 5.33,51.22 5.18,51.18 5.04,51.11 4.90,51.03 4.78,50.93 4.66,50.82 4.57,50.69 4.48,50.56 4.42,50.42 4.37,50.27 4.35,50.11 4.33,49.95 3.76,48.07 3.19,46.19 3.16,44.91 3.13,43.62 2.86,42.47 2.59,41.31 2.56,40.08 2.52,38.84 2.25,37.53 1.98,36.22 1.92,35.02 1.85,33.83 1.55,32.51 1.25,31.18 1.02,29.52 0.78,27.85 0.74,26.77 0.69,25.69 0.46,24.08 0.23,22.47 0.20,21.23 0.17,20.00 -0.09,18.48 -0.35,16.96 -0.39,15.77 -0.43,14.59 -0.66,13.02 -0.90,11.45 -0.97,10.20 -1.03,8.95 -1.30,6.93 -1.57,4.92 -1.85,3.87 -2.13,2.83 -1.79,1.52 -1.45,0.20 -1.46,0.03 -1.46,-0.14 -1.42,-0.31 -1.38,-0.49 -1.30,-0.65 -1.22,-0.81 -1.11,-0.94 -0.99,-1.08 -0.85,-1.18 -0.71,-1.28 -0.54,-1.35 -0.38,-1.42 -0.20,-1.44 -0.03,-1.47 0.14,-1.45 0.32,-1.43 0.48,-1.37 0.65,-1.31 0.80,-1.21 0.95,-1.12 1.07,-0.99 1.19,-0.86 1.27,-0.70 1.36,-0.55 1.41,-0.37 1.45,-0.20 1.45,-0.20 L 1.45,-0.20 Z"></path></g><g transform="translate(249.7358155813381 168.86674212991875) rotate(0 6.0930613746072595 36.92764751194511)" stroke="none"><path fill="#000000" d="M 1.43,-0.31 Q 1.43,-0.31 1.89,0.58 2.36,1.48 2.61,3.08 2.86,4.69 3.06,6.07 3.25,7.44 3.45,9.00 3.65,10.56 3.89,12.03 4.12,13.50 4.32,15.06 4.52,16.62 4.71,18.19 4.89,19.76 5.18,21.21 5.46,22.66 5.67,24.18 5.87,25.70 6.19,27.19 6.52,28.69 6.82,30.24 7.13,31.79 7.39,33.27 7.66,34.76 8.02,36.44 8.38,38.11 8.73,39.67 9.09,41.22 9.31,42.60 9.54,43.98 9.88,45.66 10.22,47.34 10.49,48.91 10.75,50.47 10.95,51.90 11.15,53.33 11.34,54.56 11.53,55.79 11.82,57.52 12.11,59.25 12.22,60.41 12.32,61.57 12.61,62.96 12.89,64.35 12.99,65.48 13.08,66.60 13.27,67.83 13.45,69.07 13.13,70.70 12.81,72.33 12.98,72.46 13.15,72.59 13.26,72.77 13.38,72.95 13.43,73.16 13.48,73.36 13.47,73.57 13.45,73.79 13.37,73.98 13.29,74.18 13.15,74.34 13.01,74.50 12.82,74.60 12.64,74.71 12.43,74.75 12.22,74.79 12.01,74.76 11.80,74.74 11.61,74.64 11.42,74.55 11.27,74.40 11.11,74.25 11.02,74.06 10.92,73.87 10.89,73.66 10.86,73.45 10.90,73.24 10.94,73.03 11.04,72.85 11.15,72.66 11.30,72.52 11.46,72.38 11.66,72.29 11.85,72.21 12.06,72.19 12.27,72.17 12.48,72.22 12.69,72.27 12.87,72.38 13.05,72.49 13.18,72.66 13.31,72.82 13.39,73.02 13.46,73.22 13.47,73.43 13.48,73.65 13.42,73.85 13.36,74.05 13.23,74.23 13.11,74.40 12.94,74.53 12.77,74.65 12.56,74.71 12.36,74.78 12.15,74.77 11.94,74.77 11.74,74.70 11.54,74.63 11.54,74.63 11.54,74.63 10.59,72.63 9.65,70.63 9.49,69.33 9.33,68.03 9.15,66.92 8.97,65.80 8.75,64.50 8.54,63.20 8.31,61.49 8.08,59.79 7.79,57.98 7.50,56.17 7.31,54.91 7.12,53.64 6.93,52.29 6.73,50.94 6.48,49.51 6.23,48.09 5.89,46.43 5.55,44.78 5.34,43.47 5.13,42.15 4.76,40.51 4.38,38.88 4.04,37.28 3.70,35.68 3.46,34.29 3.22,32.90 2.89,31.25 2.56,29.59 2.20,27.95 1.84,26.31 1.64,24.84 1.44,23.38 1.14,21.72 0.84,20.06 0.65,18.47 0.47,16.88 0.28,15.39 0.09,13.89 -0.12,12.51 -0.34,11.14 -0.52,9.66 -0.69,8.17 -0.88,6.77 -1.08,5.37 -1.29,3.85 -1.51,2.34 -1.47,1.32 -1.43,0.31 -1.45,0.14 -1.46,-0.03 -1.44,-0.20 -1.41,-0.38 -1.35,-0.54 -1.28,-0.71 -1.18,-0.85 -1.07,-0.99 -0.94,-1.11 -0.80,-1.22 -0.64,-1.30 -0.48,-1.38 -0.31,-1.42 -0.14,-1.46 0.03,-1.45 0.21,-1.45 0.38,-1.40 0.55,-1.36 0.70,-1.27 0.86,-1.18 0.99,-1.06 1.12,-0.94 1.21,-0.80 1.31,-0.65 1.37,-0.48 1.43,-0.31 1.43,-0.31 L 1.43,-0.31 Z"></path></g><g transform="translate(280.38574940842454 166.2818126360089) rotate(0 -8.308720056282596 38.95866233543609)" stroke="none"><path fill="#000000" d="M 1.39,0.41 Q 1.39,0.41 1.30,1.54 1.20,2.67 0.79,4.60 0.38,6.52 0.08,7.59 -0.21,8.67 -0.59,10.22 -0.98,11.78 -1.37,13.55 -1.76,15.31 -2.12,17.18 -2.48,19.04 -2.85,20.79 -3.23,22.54 -3.55,24.38 -3.86,26.21 -4.11,27.73 -4.35,29.25 -4.69,31.16 -5.04,33.07 -5.39,34.69 -5.74,36.31 -5.96,37.75 -6.18,39.18 -6.53,40.78 -6.88,42.39 -7.09,43.83 -7.30,45.27 -7.63,46.80 -7.96,48.33 -8.17,49.63 -8.37,50.93 -8.72,52.57 -9.06,54.20 -9.27,55.44 -9.49,56.68 -9.97,58.22 -10.45,59.76 -10.83,61.05 -11.21,62.35 -11.48,63.54 -11.74,64.73 -12.07,65.97 -12.41,67.20 -12.66,68.37 -12.90,69.53 -13.10,70.59 -13.29,71.64 -13.47,72.84 -13.65,74.04 -14.46,75.81 -15.27,77.59 -15.29,77.74 -15.31,77.90 -15.37,78.05 -15.43,78.19 -15.52,78.32 -15.62,78.45 -15.74,78.55 -15.86,78.66 -16.00,78.73 -16.14,78.80 -16.29,78.83 -16.45,78.87 -16.61,78.87 -16.76,78.86 -16.92,78.82 -17.07,78.78 -17.21,78.71 -17.35,78.63 -17.46,78.52 -17.58,78.41 -17.67,78.28 -17.76,78.15 -17.81,78.00 -17.86,77.85 -17.88,77.70 -17.90,77.54 -17.75,77.96 -17.60,78.39 -17.71,78.20 -17.81,78.02 -17.85,77.81 -17.89,77.60 -17.87,77.39 -17.84,77.18 -17.74,76.99 -17.65,76.80 -17.50,76.65 -17.35,76.50 -17.16,76.40 -16.97,76.31 -16.76,76.28 -16.55,76.25 -16.34,76.29 -16.13,76.33 -15.95,76.43 -15.76,76.54 -15.62,76.69 -15.48,76.85 -15.39,77.05 -15.31,77.24 -15.29,77.45 -15.27,77.67 -15.32,77.87 -15.37,78.08 -15.49,78.26 -15.60,78.44 -15.77,78.57 -15.93,78.70 -16.13,78.78 -16.33,78.85 -16.54,78.86 -16.76,78.86 -16.96,78.80 -17.16,78.74 -17.34,78.62 -17.51,78.49 -17.63,78.32 -17.76,78.15 -17.82,77.95 -17.88,77.74 -17.88,77.53 -17.87,77.32 -17.80,77.12 -17.73,76.92 -17.59,76.75 -17.46,76.59 -17.28,76.47 -17.10,76.36 -16.90,76.31 -16.69,76.25 -16.48,76.27 -16.27,76.29 -16.07,76.37 -15.88,76.45 -15.57,77.02 -15.27,77.59 -15.29,77.74 -15.31,77.90 -15.37,78.05 -15.43,78.19 -15.52,78.32 -15.62,78.45 -15.74,78.55 -15.86,78.66 -16.00,78.73 -16.14,78.80 -16.29,78.83 -16.45,78.87 -16.61,78.87 -16.76,78.86 -16.92,78.82 -17.07,78.78 -17.21,78.71 -17.35,78.63 -17.46,78.52 -17.58,78.42 -17.67,78.28 -17.76,78.15 -17.81,78.00 -17.86,77.85 -17.88,77.70 -17.90,77.54 -17.98,75.86 -18.06,74.19 -17.86,73.14 -17.65,72.10 -17.53,70.85 -17.42,69.61 -17.11,68.44 -16.81,67.28 -16.43,65.69 -16.04,64.10 -15.68,62.52 -15.32,60.93 -14.94,59.61 -14.55,58.29 -14.14,57.05 -13.73,55.81 -13.52,54.56 -13.31,53.32 -12.97,51.75 -12.63,50.17 -12.41,48.80 -12.18,47.44 -11.83,45.91 -11.48,44.38 -11.27,42.94 -11.05,41.51 -10.70,39.93 -10.35,38.35 -10.06,36.73 -9.78,35.11 -9.49,33.75 -9.19,32.39 -8.84,30.48 -8.49,28.58 -8.22,26.92 -7.96,25.27 -7.62,23.44 -7.29,21.61 -6.93,19.97 -6.56,18.34 -6.16,16.40 -5.76,14.45 -5.32,12.54 -4.87,10.63 -4.46,9.08 -4.06,7.53 -3.54,5.70 -3.03,3.87 -2.75,2.72 -2.47,1.57 -1.93,0.57 -1.39,-0.41 -1.32,-0.58 -1.25,-0.74 -1.15,-0.88 -1.04,-1.02 -0.90,-1.13 -0.76,-1.24 -0.60,-1.31 -0.44,-1.39 -0.27,-1.42 -0.10,-1.45 0.07,-1.44 0.24,-1.43 0.41,-1.38 0.58,-1.33 0.73,-1.24 0.88,-1.15 1.01,-1.03 1.14,-0.91 1.23,-0.76 1.32,-0.61 1.38,-0.44 1.43,-0.27 1.44,-0.10 1.45,0.07 1.42,0.24 1.39,0.42 1.39,0.41 L 1.39,0.41 Z"></path></g><g transform="translate(250.4743572058071 234.96723176794512) rotate(0 -7.385517669495044 -11.632208078795657)" stroke="none"><path fill="#000000" d="M -0.93,1.19 Q -0.93,1.19 -2.12,0.75 -3.32,0.31 -4.11,-0.59 -4.90,-1.50 -6.25,-3.41 -7.60,-5.32 -8.88,-7.40 -10.15,-9.48 -10.80,-10.54 -11.45,-11.60 -12.11,-12.49 -12.77,-13.39 -13.97,-15.34 -15.17,-17.29 -15.51,-19.82 -15.85,-22.36 -15.89,-22.57 -15.92,-22.78 -15.88,-22.99 -15.85,-23.20 -15.75,-23.39 -15.64,-23.57 -15.49,-23.72 -15.33,-23.86 -15.14,-23.95 -14.95,-24.04 -14.73,-24.06 -14.52,-24.08 -14.32,-24.03 -14.11,-23.99 -13.93,-23.87 -13.75,-23.76 -13.61,-23.60 -13.47,-23.44 -13.40,-23.24 -13.32,-23.04 -13.31,-22.83 -13.30,-22.62 -13.36,-22.41 -13.42,-22.21 -13.54,-22.03 -13.66,-21.86 -13.83,-21.73 -14.00,-21.60 -14.20,-21.54 -14.40,-21.47 -14.62,-21.47 -14.83,-21.48 -15.03,-21.54 -15.23,-21.61 -15.40,-21.74 -15.57,-21.87 -15.68,-22.05 -15.80,-22.23 -15.86,-22.43 -15.91,-22.64 -15.90,-22.85 -15.89,-23.06 -15.81,-23.26 -15.72,-23.46 -15.59,-23.62 -15.45,-23.78 -15.26,-23.89 -15.08,-23.99 -14.87,-24.04 -14.67,-24.08 -14.45,-24.06 -14.24,-24.03 -14.05,-23.94 -13.86,-23.85 -13.71,-23.70 -13.55,-23.56 -13.46,-23.37 -13.36,-23.18 -13.36,-23.18 -13.36,-23.18 -12.26,-21.32 -11.17,-19.46 -9.99,-17.82 -8.81,-16.17 -8.08,-15.09 -7.35,-14.02 -6.73,-12.92 -6.10,-11.83 -4.90,-9.81 -3.70,-7.79 -3.10,-6.83 -2.50,-5.86 -1.50,-4.57 -0.49,-3.28 0.21,-2.24 0.93,-1.19 1.06,-1.06 1.19,-0.93 1.28,-0.78 1.38,-0.62 1.43,-0.45 1.49,-0.27 1.50,-0.09 1.51,0.08 1.48,0.26 1.44,0.44 1.37,0.61 1.30,0.77 1.18,0.92 1.07,1.06 0.93,1.18 0.78,1.29 0.62,1.37 0.45,1.44 0.27,1.47 0.09,1.51 -0.08,1.50 -0.26,1.49 -0.44,1.43 -0.61,1.38 -0.77,1.29 -0.93,1.19 -0.93,1.19 L -0.93,1.19 Z"></path></g><g transform="translate(274.10806107976714 233.12084389850452) rotate(0 11.447564220611298 -12.924672825750577)" stroke="none"><path fill="#000000" d="M -1.06,-0.94 Q -1.06,-0.94 -0.45,-2.11 0.14,-3.29 1.43,-4.80 2.73,-6.30 3.93,-7.80 5.14,-9.30 6.11,-10.35 7.08,-11.39 7.91,-12.25 8.74,-13.11 10.11,-14.64 11.47,-16.17 12.32,-17.03 13.17,-17.90 14.60,-19.50 16.03,-21.09 16.94,-22.03 17.85,-22.97 18.52,-23.83 19.20,-24.69 20.36,-25.67 21.52,-26.64 21.64,-26.75 21.75,-26.86 21.89,-26.94 22.02,-27.02 22.17,-27.07 22.32,-27.12 22.48,-27.12 22.64,-27.13 22.80,-27.10 22.95,-27.07 23.10,-27.01 23.24,-26.94 23.36,-26.84 23.49,-26.74 23.58,-26.62 23.68,-26.49 23.74,-26.35 23.81,-26.20 23.83,-26.05 23.86,-25.89 23.85,-25.73 23.84,-25.57 23.79,-25.42 23.74,-25.27 23.66,-25.14 23.58,-25.00 22.53,-25.04 21.47,-25.07 21.38,-25.26 21.29,-25.45 21.26,-25.67 21.24,-25.88 21.28,-26.08 21.32,-26.29 21.43,-26.48 21.54,-26.66 21.70,-26.80 21.86,-26.94 22.06,-27.02 22.25,-27.10 22.46,-27.12 22.68,-27.13 22.88,-27.08 23.09,-27.02 23.26,-26.90 23.44,-26.79 23.57,-26.62 23.70,-26.45 23.77,-26.25 23.84,-26.05 23.85,-25.84 23.85,-25.63 23.78,-25.42 23.72,-25.22 23.59,-25.05 23.47,-24.88 23.29,-24.76 23.12,-24.64 22.91,-24.58 22.71,-24.52 22.50,-24.53 22.28,-24.54 22.09,-24.61 21.89,-24.69 21.72,-24.82 21.56,-24.96 21.45,-25.14 21.34,-25.32 21.29,-25.53 21.24,-25.73 21.26,-25.95 21.28,-26.16 21.37,-26.35 21.45,-26.55 21.60,-26.70 21.74,-26.86 21.93,-26.96 22.12,-27.06 22.32,-27.10 22.53,-27.14 22.74,-27.10 22.95,-27.07 23.14,-26.98 23.33,-26.88 22.43,-26.76 21.52,-26.64 21.64,-26.75 21.75,-26.86 21.89,-26.94 22.02,-27.02 22.17,-27.07 22.32,-27.12 22.48,-27.12 22.64,-27.13 22.80,-27.10 22.95,-27.07 23.10,-27.01 23.24,-26.94 23.36,-26.84 23.49,-26.74 23.58,-26.62 23.68,-26.49 23.74,-26.35 23.81,-26.20 23.83,-26.05 23.86,-25.89 23.85,-25.73 23.84,-25.57 23.79,-25.42 23.74,-25.27 23.66,-25.14 23.58,-25.00 23.03,-23.58 22.47,-22.16 21.63,-21.12 20.79,-20.08 19.91,-19.17 19.03,-18.25 17.58,-16.64 16.12,-15.02 14.63,-13.46 13.14,-11.90 12.44,-11.06 11.73,-10.23 10.93,-9.40 10.13,-8.56 9.25,-7.63 8.38,-6.69 7.71,-5.85 7.04,-5.02 5.85,-3.63 4.66,-2.25 3.95,-1.39 3.25,-0.52 2.15,0.20 1.06,0.94 0.93,1.05 0.80,1.17 0.65,1.25 0.50,1.33 0.33,1.37 0.16,1.41 -0.00,1.41 -0.17,1.41 -0.34,1.37 -0.50,1.33 -0.65,1.25 -0.81,1.17 -0.93,1.05 -1.06,0.94 -1.16,0.80 -1.26,0.65 -1.32,0.49 -1.38,0.33 -1.40,0.16 -1.42,-0.00 -1.40,-0.17 -1.38,-0.34 -1.32,-0.50 -1.26,-0.66 -1.16,-0.80 -1.06,-0.94 -1.06,-0.94 L -1.06,-0.94 Z"></path></g><g transform="translate(276.6930074778113 243.0913079660436) rotate(0 14.401781430889883 -4.431317363350786)" stroke="none"><path fill="#000000" d="M -0.49,-1.56 Q -0.49,-1.56 1.64,-2.91 3.78,-4.25 6.72,-5.11 9.66,-5.97 11.51,-6.53 13.37,-7.09 15.75,-7.80 18.13,-8.52 20.07,-8.98 22.00,-9.43 24.65,-9.60 27.31,-9.77 27.52,-9.80 27.73,-9.83 27.94,-9.79 28.15,-9.75 28.33,-9.65 28.52,-9.54 28.66,-9.38 28.80,-9.23 28.89,-9.03 28.97,-8.84 28.99,-8.63 29.01,-8.41 28.96,-8.21 28.91,-8.00 28.80,-7.82 28.68,-7.64 28.52,-7.51 28.35,-7.37 28.15,-7.30 27.96,-7.22 27.74,-7.22 27.53,-7.21 27.33,-7.27 27.12,-7.33 26.95,-7.46 26.78,-7.58 26.65,-7.75 26.53,-7.92 26.46,-8.13 26.40,-8.33 26.40,-8.54 26.41,-8.75 26.48,-8.95 26.55,-9.15 26.69,-9.32 26.82,-9.49 27.00,-9.60 27.17,-9.72 27.38,-9.77 27.59,-9.82 27.80,-9.81 28.01,-9.79 28.21,-9.71 28.40,-9.62 28.56,-9.48 28.72,-9.34 28.82,-9.16 28.93,-8.97 28.97,-8.76 29.01,-8.56 28.99,-8.35 28.96,-8.13 28.86,-7.94 28.77,-7.75 28.62,-7.60 28.47,-7.45 28.28,-7.36 28.09,-7.26 28.09,-7.26 28.09,-7.26 25.77,-5.86 23.44,-4.47 21.65,-3.84 19.85,-3.22 17.46,-2.38 15.06,-1.55 13.18,-0.96 11.29,-0.38 8.42,0.45 5.55,1.28 3.02,1.42 0.49,1.56 0.30,1.60 0.10,1.64 -0.08,1.63 -0.28,1.62 -0.47,1.56 -0.66,1.50 -0.83,1.40 -1.00,1.30 -1.14,1.16 -1.29,1.02 -1.39,0.85 -1.49,0.68 -1.55,0.49 -1.61,0.30 -1.63,0.10 -1.64,-0.08 -1.60,-0.28 -1.57,-0.48 -1.49,-0.66 -1.41,-0.84 -1.29,-1.00 -1.17,-1.15 -1.01,-1.28 -0.86,-1.40 -0.67,-1.48 -0.49,-1.56 -0.49,-1.56 L -0.49,-1.56 Z"></path></g><g transform="translate(233.48766318514163 236.81360273325163) rotate(0 -7.016263761394782 -5.169867439886843)" stroke="none"><path fill="#000000" d="M -0.87,1.20 Q -0.87,1.20 -2.39,0.83 -3.90,0.46 -5.26,-0.54 -6.61,-1.54 -7.61,-2.29 -8.61,-3.03 -9.58,-3.80 -10.54,-4.57 -11.48,-5.36 -12.42,-6.15 -13.46,-7.49 -14.50,-8.84 -14.66,-8.98 -14.81,-9.12 -14.92,-9.31 -15.02,-9.49 -15.06,-9.70 -15.10,-9.91 -15.07,-10.12 -15.04,-10.33 -14.94,-10.52 -14.85,-10.71 -14.69,-10.86 -14.54,-11.01 -14.35,-11.10 -14.16,-11.20 -13.95,-11.22 -13.74,-11.25 -13.53,-11.21 -13.32,-11.17 -13.14,-11.06 -12.95,-10.95 -12.81,-10.80 -12.67,-10.64 -12.59,-10.44 -12.51,-10.24 -12.49,-10.03 -12.48,-9.82 -12.53,-9.62 -12.58,-9.41 -12.70,-9.23 -12.81,-9.05 -12.98,-8.92 -13.15,-8.79 -13.35,-8.72 -13.55,-8.65 -13.76,-8.64 -13.97,-8.64 -14.17,-8.70 -14.38,-8.77 -14.55,-8.89 -14.72,-9.02 -14.84,-9.19 -14.97,-9.36 -15.03,-9.57 -15.09,-9.77 -15.08,-9.98 -15.07,-10.19 -15.00,-10.39 -14.92,-10.59 -14.79,-10.76 -14.65,-10.92 -14.47,-11.03 -14.29,-11.15 -14.09,-11.20 -13.88,-11.25 -13.67,-11.23 -13.46,-11.21 -13.26,-11.12 -13.07,-11.04 -13.07,-11.04 -13.07,-11.04 -11.33,-10.58 -9.60,-10.12 -8.45,-9.43 -7.31,-8.74 -6.36,-8.03 -5.42,-7.32 -4.43,-6.58 -3.43,-5.83 -2.09,-4.85 -0.76,-3.86 0.05,-2.53 0.87,-1.20 1.00,-1.08 1.13,-0.95 1.23,-0.80 1.33,-0.65 1.39,-0.48 1.45,-0.32 1.46,-0.14 1.48,0.03 1.46,0.21 1.43,0.39 1.36,0.55 1.29,0.72 1.19,0.86 1.08,1.01 0.95,1.12 0.81,1.24 0.65,1.32 0.49,1.40 0.31,1.44 0.14,1.48 -0.03,1.47 -0.21,1.47 -0.38,1.42 -0.56,1.37 -0.71,1.28 -0.87,1.20 -0.87,1.20 L -0.87,1.20 Z"></path></g></svg>