<svg version="1.1" xmlns="http://www.w3.org/2000/svg" viewBox="0 0 456.66664123535156 315" width="1369.9999237060547" height="945">
  <!-- svg-source:excalidraw -->
  
  <defs>
    <style class="style-fonts">
      @font-face {
        font-family: "Virgil";
        src: url("https://excalidraw.com/Virgil.woff2");
      }
      @font-face {
        font-family: "Cascadia";
        src: url("https://excalidraw.com/Cascadia.woff2");
      }
    </style>
  </defs>
  <g transform="translate(45.74011457207621 157.6296638491781) rotate(0 83.68373046280806 47.77467789830075)" stroke="none"><path fill="#fcd069" d="M 1.60,-5.08 Q 1.60,-5.08 5.60,-5.87 9.60,-6.66 14.45,-5.83 19.30,-5.00 24.42,-4.68 29.55,-4.37 34.01,-4.68 38.48,-5.00 43.09,-5.82 47.71,-6.64 52.91,-7.27 58.12,-7.90 62.60,-8.02 67.08,-8.15 71.53,-8.23 75.98,-8.31 80.98,-8.33 85.98,-8.35 91.23,-7.94 96.49,-7.52 101.31,-7.65 106.12,-7.77 111.29,-7.50 116.46,-7.23 121.73,-5.96 127.00,-4.69 130.49,-1.44 133.98,1.79 134.74,6.03 135.50,10.27 134.12,16.63 132.75,22.99 129.86,26.35 126.98,29.70 123.59,32.42 120.20,35.14 116.71,38.90 113.22,42.65 109.52,46.29 105.82,49.92 102.70,53.62 99.58,57.33 104.80,58.62 110.03,59.90 114.45,59.78 118.87,59.65 123.32,59.60 127.77,59.55 132.31,60.22 136.85,60.88 140.88,63.25 144.92,65.62 148.17,70.60 151.42,75.57 150.58,80.49 149.73,85.42 147.26,88.89 144.80,92.36 147.53,88.95 150.27,85.54 154.85,84.92 159.43,84.30 161.91,87.38 164.40,90.46 165.12,90.01 165.84,89.56 166.66,89.36 167.49,89.16 168.34,89.24 169.18,89.32 169.96,89.66 170.74,90.01 171.36,90.58 171.99,91.16 172.40,91.90 172.81,92.64 172.96,93.48 173.12,94.32 172.99,95.16 172.87,96.00 172.48,96.76 172.10,97.51 171.49,98.11 170.88,98.70 170.12,99.07 169.35,99.44 168.51,99.55 167.66,99.65 166.83,99.49 166.00,99.32 165.26,98.89 164.53,98.46 163.97,97.83 163.41,97.19 163.08,96.40 162.75,95.62 162.69,94.77 162.63,93.92 162.85,93.10 163.06,92.28 163.52,91.57 163.99,90.85 164.66,90.33 165.33,89.80 166.13,89.52 166.93,89.24 167.78,89.22 168.63,89.21 169.44,89.47 170.25,89.72 170.93,90.23 171.62,90.73 172.11,91.43 172.59,92.12 172.83,92.94 173.08,93.75 173.04,94.60 173.01,95.45 172.71,96.24 172.41,97.04 171.87,97.70 171.33,98.35 171.33,98.35 171.33,98.35 164.49,101.38 157.64,104.40 151.84,104.93 146.03,105.47 141.57,104.68 137.11,103.90 132.76,101.14 128.42,98.37 127.03,93.08 125.64,87.78 129.87,85.39 134.09,83.00 129.62,81.69 125.16,80.38 118.86,80.59 112.57,80.80 107.89,80.42 103.22,80.05 96.15,77.62 89.09,75.20 84.98,70.99 80.88,66.78 79.96,61.60 79.05,56.41 80.23,52.16 81.42,47.90 83.79,44.18 86.17,40.47 89.69,37.26 93.22,34.04 96.82,30.28 100.43,26.53 103.83,23.21 107.22,19.89 110.04,16.42 112.87,12.95 108.61,12.84 104.35,12.73 99.46,12.67 94.56,12.61 90.27,12.35 85.98,12.10 80.98,12.08 75.98,12.06 71.53,11.98 67.08,11.90 61.92,11.80 56.75,11.70 51.69,12.18 46.63,12.66 41.19,13.25 35.75,13.83 31.22,14.05 26.69,14.26 21.31,13.84 15.92,13.42 9.98,12.20 4.03,10.97 1.21,8.02 -1.60,5.08 -2.18,4.81 -2.77,4.54 -3.27,4.15 -3.78,3.75 -4.17,3.24 -4.56,2.73 -4.83,2.15 -5.09,1.56 -5.20,0.93 -5.31,0.30 -5.27,-0.33 -5.23,-0.98 -5.04,-1.59 -4.84,-2.20 -4.51,-2.75 -4.18,-3.30 -3.72,-3.75 -3.26,-4.20 -2.71,-4.53 -2.16,-4.86 -1.55,-5.05 -0.93,-5.24 -0.29,-5.28 0.34,-5.31 0.97,-5.19 1.60,-5.08 1.60,-5.08 L 1.60,-5.08 Z"></path></g><g transform="translate(229.34475904397664 239.439906119258) rotate(0 69.00785854612411 -89.61655742350342)" stroke="none"><path fill="#fcd069" d="M -5.97,-2.51 Q -5.97,-2.51 -5.36,-6.27 -4.75,-10.03 -2.58,-14.49 -0.40,-18.95 2.05,-23.38 4.51,-27.81 6.79,-32.65 9.08,-37.49 12.30,-43.19 15.52,-48.88 19.62,-55.53 23.73,-62.18 27.57,-67.52 31.40,-72.87 35.62,-78.33 39.84,-83.79 43.73,-88.10 47.62,-92.42 50.55,-95.86 53.49,-99.30 56.52,-102.82 59.56,-106.33 62.73,-110.01 65.91,-113.69 69.11,-117.39 72.31,-121.09 75.50,-124.88 78.69,-128.67 81.77,-132.47 84.85,-136.28 88.37,-139.21 91.90,-142.15 96.02,-145.87 100.15,-149.58 103.61,-152.29 107.07,-155.00 110.90,-157.99 114.74,-160.98 117.80,-164.25 120.86,-167.52 123.01,-171.23 125.16,-174.94 127.91,-178.92 130.66,-182.90 129.78,-182.61 128.90,-182.33 129.47,-183.35 130.04,-184.37 130.83,-185.23 131.63,-186.08 132.61,-186.72 133.59,-187.37 134.69,-187.75 135.80,-188.14 136.96,-188.25 138.13,-188.37 139.29,-188.20 140.44,-188.03 141.53,-187.58 142.61,-187.14 143.56,-186.45 144.50,-185.77 145.26,-184.87 146.01,-183.98 146.53,-182.93 147.05,-181.88 147.30,-180.73 147.55,-179.59 147.52,-178.42 147.49,-177.25 147.18,-176.12 146.88,-174.99 138.26,-178.51 129.65,-182.02 130.17,-182.96 130.70,-183.91 131.44,-184.70 132.17,-185.49 133.08,-186.08 133.99,-186.68 135.01,-187.03 136.03,-187.39 137.10,-187.50 138.18,-187.60 139.25,-187.44 140.32,-187.29 141.32,-186.88 142.33,-186.47 143.20,-185.83 144.08,-185.20 144.77,-184.37 145.47,-183.54 145.95,-182.57 146.43,-181.60 146.66,-180.55 146.89,-179.49 146.87,-178.41 146.84,-177.33 146.55,-176.28 146.27,-175.24 143.95,-170.72 141.63,-166.21 138.95,-161.68 136.27,-157.15 133.83,-153.48 131.39,-149.82 127.94,-145.72 124.49,-141.61 121.32,-138.19 118.16,-134.77 115.27,-131.29 112.39,-127.82 107.06,-121.63 101.74,-115.45 98.73,-112.00 95.73,-108.55 92.60,-104.81 89.46,-101.08 85.06,-94.95 80.65,-88.82 77.91,-84.81 75.17,-80.81 71.93,-76.10 68.70,-71.39 65.39,-67.51 62.08,-63.63 59.27,-59.68 56.46,-55.73 53.54,-51.36 50.61,-47.00 47.99,-42.56 45.37,-38.13 43.08,-34.50 40.79,-30.87 38.48,-27.08 36.17,-23.30 33.02,-18.76 29.88,-14.21 23.84,-13.33 17.81,-12.46 17.06,-12.86 16.31,-13.26 15.73,-13.88 15.15,-14.49 14.79,-15.27 14.44,-16.04 14.35,-16.88 14.26,-17.73 14.44,-18.56 14.63,-19.39 15.07,-20.11 15.51,-20.84 16.16,-21.39 16.80,-21.94 17.60,-22.25 18.39,-22.56 19.23,-22.61 20.08,-22.65 20.90,-22.42 21.72,-22.19 22.42,-21.71 23.12,-21.24 23.64,-20.56 24.15,-19.88 24.42,-19.07 24.69,-18.27 24.69,-17.42 24.68,-16.57 24.41,-15.76 24.14,-14.96 23.62,-14.28 23.10,-13.61 22.40,-13.13 21.70,-12.66 20.88,-12.43 20.06,-12.21 19.21,-12.26 18.36,-12.30 17.57,-12.62 16.78,-12.94 16.14,-13.49 15.49,-14.04 15.05,-14.77 14.62,-15.50 14.44,-16.33 14.26,-17.16 14.35,-18.01 14.44,-18.85 14.80,-19.62 15.16,-20.39 15.75,-21.01 16.33,-21.62 17.09,-22.02 17.84,-22.41 18.68,-22.55 19.52,-22.68 20.35,-22.54 21.19,-22.40 21.19,-22.41 21.19,-22.41 18.92,-24.59 16.66,-26.78 19.43,-31.34 22.21,-35.91 25.17,-40.68 28.14,-45.45 30.70,-49.60 33.25,-53.75 36.27,-58.20 39.28,-62.64 42.22,-67.31 45.15,-71.97 48.86,-76.33 52.57,-80.69 55.52,-84.83 58.47,-88.96 60.97,-92.58 63.48,-96.20 66.69,-100.86 69.89,-105.52 72.52,-108.91 75.15,-112.31 78.58,-116.40 82.01,-120.50 87.85,-126.88 93.68,-133.26 96.62,-136.86 99.55,-140.47 103.10,-144.79 106.64,-149.10 110.11,-152.85 113.59,-156.61 116.64,-160.59 119.68,-164.57 122.57,-169.46 125.46,-174.36 127.55,-178.19 129.65,-182.02 130.17,-182.96 130.70,-183.91 131.44,-184.70 132.17,-185.49 133.08,-186.08 133.98,-186.68 135.01,-187.03 136.03,-187.39 137.10,-187.50 138.18,-187.60 139.25,-187.44 140.32,-187.29 141.32,-186.88 142.32,-186.47 143.20,-185.83 144.07,-185.20 144.77,-184.37 145.47,-183.54 145.95,-182.57 146.43,-181.60 146.66,-180.55 146.89,-179.49 146.87,-178.41 146.84,-177.33 146.55,-176.28 146.27,-175.24 137.58,-178.78 128.90,-182.33 129.47,-183.35 130.04,-184.37 130.83,-185.23 131.63,-186.08 132.61,-186.72 133.59,-187.37 134.69,-187.75 135.80,-188.14 136.96,-188.25 138.13,-188.37 139.28,-188.20 140.44,-188.03 141.53,-187.58 142.61,-187.14 143.56,-186.45 144.50,-185.77 145.26,-184.87 146.01,-183.98 146.53,-182.93 147.05,-181.88 147.30,-180.74 147.55,-179.59 147.52,-178.42 147.49,-177.25 147.18,-176.12 146.88,-175.00 145.51,-171.73 144.14,-168.47 140.89,-163.94 137.64,-159.41 135.20,-155.89 132.75,-152.37 128.89,-148.58 125.03,-144.78 121.39,-142.04 117.74,-139.31 113.65,-136.18 109.56,-133.05 106.08,-129.79 102.60,-126.52 99.26,-123.56 95.91,-120.60 92.76,-117.07 89.60,-113.55 86.54,-110.15 83.48,-106.75 80.33,-103.13 77.18,-99.50 73.92,-95.95 70.66,-92.41 67.73,-88.86 64.80,-85.32 61.31,-81.43 57.82,-77.54 54.22,-73.47 50.62,-69.41 47.91,-65.74 45.21,-62.07 41.77,-57.33 38.34,-52.59 34.45,-46.34 30.56,-40.10 28.06,-35.98 25.56,-31.86 23.58,-27.73 21.60,-23.60 19.16,-19.34 16.73,-15.08 13.61,-9.34 10.49,-3.61 8.23,-0.54 5.97,2.51 5.58,3.19 5.20,3.87 4.66,4.44 4.12,5.00 3.46,5.42 2.80,5.84 2.06,6.09 1.32,6.34 0.54,6.41 -0.23,6.48 -1.00,6.35 -1.77,6.23 -2.49,5.93 -3.21,5.63 -3.84,5.16 -4.47,4.69 -4.97,4.09 -5.46,3.48 -5.80,2.78 -6.14,2.07 -6.30,1.31 -6.46,0.54 -6.43,-0.23 -6.40,-1.01 -6.19,-1.76 -5.97,-2.51 -5.97,-2.51 L -5.97,-2.51 Z"></path></g><g transform="translate(228.09570974029657 225.07626794089674) rotate(0 48.0869402242206 -54.64423466156131)" stroke="none"><path fill="#fcd069" d="M -5.95,-1.70 Q -5.95,-1.70 -5.84,-5.74 -5.73,-9.79 -4.21,-14.22 -2.69,-18.64 -0.63,-23.34 1.41,-28.03 4.13,-32.61 6.85,-37.18 9.49,-40.96 12.14,-44.74 15.35,-48.75 18.56,-52.75 21.91,-56.21 25.26,-59.68 29.22,-63.14 33.18,-66.61 36.69,-69.76 40.20,-72.91 44.08,-76.20 47.96,-79.48 52.03,-82.62 56.10,-85.76 59.69,-88.69 63.28,-91.62 66.55,-94.51 69.81,-97.40 73.57,-100.93 77.33,-104.45 80.71,-107.43 84.09,-110.42 87.40,-108.84 90.70,-107.26 90.51,-108.09 90.32,-108.91 90.41,-109.76 90.49,-110.60 90.84,-111.38 91.19,-112.15 91.77,-112.77 92.35,-113.40 93.10,-113.80 93.85,-114.20 94.69,-114.35 95.52,-114.49 96.36,-114.36 97.20,-114.23 97.96,-113.84 98.71,-113.44 99.30,-112.83 99.89,-112.22 100.25,-111.45 100.61,-110.68 100.71,-109.84 100.81,-108.99 100.63,-108.16 100.46,-107.33 100.02,-106.60 99.59,-105.87 98.95,-105.31 98.30,-104.76 97.52,-104.44 96.73,-104.12 95.88,-104.06 95.03,-104.01 94.21,-104.23 93.39,-104.45 92.69,-104.93 91.98,-105.40 91.46,-106.07 90.94,-106.74 90.66,-107.55 90.39,-108.35 90.38,-109.20 90.37,-110.05 90.64,-110.86 90.90,-111.66 91.41,-112.34 91.92,-113.02 92.62,-113.51 93.32,-113.99 94.14,-114.22 94.96,-114.46 95.81,-114.42 96.66,-114.38 97.45,-114.07 98.24,-113.76 98.89,-113.21 99.54,-112.67 99.99,-111.94 100.43,-111.22 100.43,-111.22 100.43,-111.22 98.46,-104.45 96.49,-97.69 92.84,-94.42 89.18,-91.15 85.82,-87.93 82.45,-84.72 78.74,-81.49 75.03,-78.26 71.36,-75.26 67.69,-72.26 63.37,-68.92 59.06,-65.58 55.54,-62.58 52.03,-59.59 48.26,-56.25 44.49,-52.91 41.17,-50.02 37.84,-47.13 34.27,-43.42 30.69,-39.71 27.24,-35.41 23.79,-31.10 21.12,-27.41 18.45,-23.72 16.38,-19.62 14.30,-15.52 12.17,-10.40 10.04,-5.28 8.00,-1.79 5.95,1.70 5.66,2.39 5.37,3.07 4.93,3.67 4.48,4.27 3.90,4.75 3.33,5.22 2.65,5.54 1.98,5.87 1.25,6.02 0.52,6.17 -0.22,6.14 -0.97,6.11 -1.69,5.91 -2.40,5.70 -3.05,5.33 -3.70,4.96 -4.24,4.45 -4.78,3.93 -5.18,3.30 -5.58,2.67 -5.82,1.96 -6.06,1.26 -6.12,0.51 -6.19,-0.22 -6.07,-0.96 -5.95,-1.70 -5.95,-1.70 L -5.95,-1.70 Z"></path></g><g transform="translate(370.482985045036 52.71272415094927) rotate(0 -55.26874501960276 84.93276547268965)" stroke="none"><path fill="#fcd069" d="M 5.22,2.35 Q 5.22,2.35 4.47,6.33 3.72,10.31 1.92,14.41 0.13,18.51 -1.98,23.43 -4.11,28.35 -6.51,32.81 -8.90,37.28 -11.38,40.81 -13.85,44.34 -16.89,49.08 -19.93,53.82 -22.41,57.61 -24.89,61.39 -27.52,66.08 -30.16,70.76 -32.43,74.52 -34.70,78.28 -37.54,82.47 -40.39,86.66 -43.25,90.39 -46.11,94.11 -48.24,97.82 -50.37,101.52 -53.33,106.51 -56.29,111.51 -58.53,116.27 -60.77,121.04 -63.41,124.86 -66.04,128.68 -68.51,132.17 -70.99,135.66 -73.79,139.22 -76.59,142.78 -79.57,146.96 -82.54,151.15 -85.26,154.96 -87.98,158.77 -90.89,161.91 -93.79,165.04 -97.56,168.19 -101.33,171.34 -103.34,171.08 -105.36,170.81 -105.68,171.59 -106.01,172.38 -106.57,173.02 -107.12,173.66 -107.86,174.09 -108.59,174.51 -109.42,174.69 -110.26,174.86 -111.10,174.76 -111.94,174.65 -112.71,174.29 -113.48,173.92 -114.09,173.33 -114.70,172.73 -115.09,171.98 -115.47,171.22 -115.60,170.38 -115.73,169.54 -115.58,168.71 -115.43,167.87 -115.02,167.12 -114.61,166.38 -113.99,165.80 -113.37,165.22 -112.59,164.88 -111.81,164.53 -110.97,164.45 -110.12,164.37 -109.29,164.56 -108.47,164.76 -107.74,165.20 -107.02,165.65 -106.48,166.31 -105.94,166.96 -105.63,167.75 -105.33,168.55 -105.29,169.40 -105.26,170.25 -105.50,171.06 -105.74,171.88 -106.22,172.58 -106.71,173.27 -107.39,173.78 -108.07,174.28 -108.88,174.54 -109.69,174.80 -110.54,174.79 -111.39,174.78 -112.19,174.50 -113.00,174.22 -113.67,173.70 -114.33,173.17 -114.80,172.46 -115.27,171.75 -115.49,170.93 -115.70,170.11 -115.65,169.26 -115.59,168.41 -115.59,168.41 -115.59,168.41 -115.73,165.27 -115.88,162.12 -113.18,158.77 -110.48,155.42 -106.46,151.23 -102.43,147.04 -99.54,143.00 -96.65,138.95 -92.95,134.52 -89.24,130.10 -86.06,125.95 -82.88,121.81 -79.85,117.83 -76.83,113.86 -74.56,109.31 -72.29,104.76 -69.72,100.66 -67.16,96.55 -64.93,92.68 -62.70,88.80 -59.87,84.73 -57.04,80.65 -53.70,76.29 -50.37,71.92 -47.82,68.02 -45.27,64.12 -43.08,60.44 -40.88,56.77 -37.54,51.65 -34.20,46.53 -31.71,42.88 -29.22,39.23 -26.52,35.50 -23.82,31.77 -21.08,27.05 -18.33,22.32 -16.31,17.79 -14.30,13.25 -12.24,8.65 -10.18,4.05 -7.70,0.85 -5.22,-2.35 -4.86,-2.94 -4.50,-3.53 -4.02,-4.01 -3.53,-4.50 -2.94,-4.86 -2.35,-5.22 -1.69,-5.42 -1.03,-5.63 -0.34,-5.67 0.34,-5.71 1.02,-5.59 1.70,-5.46 2.33,-5.18 2.96,-4.90 3.50,-4.47 4.04,-4.04 4.47,-3.50 4.90,-2.96 5.18,-2.33 5.46,-1.70 5.59,-1.02 5.71,-0.34 5.67,0.34 5.63,1.03 5.42,1.69 5.22,2.35 5.22,2.35 L 5.22,2.35 Z"></path></g><g transform="translate(260.5700196576704 216.9577047553521) rotate(0 -17.486147087172412 17.4861470871723)" stroke="none"><path fill="#fcd069" d="M 4.26,4.26 Q 4.26,4.26 2.17,7.56 0.08,10.85 -3.60,14.10 -7.29,17.35 -10.72,20.16 -14.15,22.97 -16.45,27.01 -18.75,31.05 -22.07,34.89 -25.39,38.72 -31.49,40.23 -37.60,41.74 -40.35,36.15 -43.11,30.57 -41.26,25.66 -39.41,20.75 -37.70,16.86 -35.99,12.96 -31.67,8.38 -27.36,3.80 -26.58,3.46 -25.80,3.12 -24.96,3.04 -24.11,2.97 -23.28,3.17 -22.46,3.37 -21.74,3.82 -21.02,4.27 -20.48,4.93 -19.94,5.59 -19.64,6.38 -19.34,7.18 -19.31,8.03 -19.28,8.88 -19.53,9.69 -19.77,10.50 -20.26,11.20 -20.75,11.89 -21.44,12.39 -22.12,12.90 -22.94,13.15 -23.75,13.41 -24.60,13.39 -25.45,13.37 -26.25,13.09 -27.05,12.80 -27.71,12.27 -28.38,11.75 -28.84,11.03 -29.30,10.32 -29.52,9.50 -29.73,8.67 -29.67,7.83 -29.60,6.98 -29.27,6.20 -28.94,5.41 -28.38,4.78 -27.82,4.14 -27.08,3.71 -26.34,3.29 -25.51,3.12 -24.68,2.96 -23.83,3.07 -22.99,3.17 -22.23,3.55 -21.46,3.92 -20.86,4.51 -20.25,5.11 -19.87,5.87 -19.49,6.63 -19.36,7.47 -19.24,8.31 -19.40,9.15 -19.55,9.98 -19.96,10.72 -20.38,11.47 -21.00,12.04 -21.63,12.61 -21.63,12.61 -21.63,12.61 -21.46,16.57 -21.28,20.52 -24.43,25.08 -27.58,29.63 -32.87,29.08 -38.17,28.53 -34.56,24.58 -30.94,20.62 -28.34,16.78 -25.73,12.94 -22.20,9.30 -18.68,5.66 -14.76,2.79 -10.85,-0.08 -7.56,-2.17 -4.26,-4.26 -3.69,-4.71 -3.12,-5.16 -2.45,-5.46 -1.79,-5.76 -1.07,-5.89 -0.36,-6.02 0.36,-5.98 1.08,-5.93 1.78,-5.72 2.47,-5.50 3.09,-5.12 3.72,-4.75 4.23,-4.23 4.75,-3.72 5.12,-3.09 5.50,-2.47 5.72,-1.78 5.93,-1.08 5.98,-0.36 6.02,0.36 5.89,1.08 5.76,1.79 5.46,2.45 5.16,3.12 4.71,3.69 4.26,4.26 4.26,4.26 L 4.26,4.26 Z"></path></g><g stroke-linecap="round" transform="translate(10 10) rotate(0 218.33332061767578 147.5)"><path d="M-0.96 0.98 C118.71 -1.83, 237.08 -2.27, 435.03 0.55 M0.34 -0.81 C101.2 -1.83, 200.34 -2.18, 436.14 0.75 M438.99 -2.4 C437.66 97.61, 436.94 194.43, 438.5 292.86 M436.08 0.72 C437.41 64.19, 438.99 126.05, 435.53 294.36 M438.51 296.5 C311.03 298.64, 191.09 300.5, -1.8 294.88 M437.07 294.01 C300.29 297.59, 163.44 297.68, -0.68 294.83 M1.79 293.38 C2.98 186.53, 3.16 81.31, -1.94 1.71 M-1.41 294.24 C1.28 178.42, 1.58 64.51, 0.13 0.33" stroke="#000000" stroke-width="2" fill="none"></path></g><g transform="translate(231.42958907856064 192.47888676296134) rotate(0 61.90087600559741 -31.582087383840417)" stroke="none"><path fill="#000000" d="M -1.27,-0.63 Q -1.27,-0.63 -1.01,-2.32 -0.75,-4.01 0.03,-5.31 0.82,-6.62 1.64,-7.69 2.46,-8.76 3.47,-10.24 4.47,-11.73 5.48,-13.11 6.48,-14.49 7.23,-15.44 7.98,-16.39 8.89,-17.51 9.79,-18.64 11.04,-20.04 12.29,-21.45 13.50,-22.69 14.71,-23.92 15.78,-25.20 16.84,-26.48 17.90,-27.58 18.96,-28.69 19.74,-29.61 20.52,-30.53 22.02,-32.13 23.51,-33.74 24.65,-34.88 25.78,-36.03 27.18,-37.58 28.58,-39.14 29.50,-40.27 30.42,-41.40 31.99,-43.12 33.55,-44.83 34.40,-45.70 35.26,-46.57 36.63,-47.97 38.00,-49.36 40.23,-51.67 42.45,-53.98 44.19,-55.82 45.93,-57.66 47.13,-58.93 48.33,-60.20 49.22,-60.96 50.11,-61.73 50.84,-62.70 51.56,-63.67 52.80,-65.31 54.04,-66.95 55.27,-68.21 56.50,-69.48 57.50,-70.63 58.50,-71.78 60.20,-73.44 61.89,-75.09 63.14,-76.42 64.38,-77.75 65.28,-78.85 66.19,-79.95 67.46,-81.35 68.72,-82.76 69.85,-84.05 70.98,-85.34 71.66,-86.35 72.35,-87.36 73.51,-88.71 74.68,-90.06 75.62,-91.30 76.57,-92.54 77.91,-94.00 79.25,-95.47 80.05,-96.25 80.84,-97.04 81.63,-97.81 82.42,-98.58 84.48,-99.25 86.55,-99.91 87.99,-99.24 89.43,-98.58 90.47,-98.05 91.50,-97.52 92.93,-96.78 94.35,-96.05 95.85,-95.29 97.35,-94.53 98.78,-93.62 100.21,-92.71 101.13,-91.90 102.05,-91.08 103.15,-90.43 104.25,-89.78 105.14,-88.95 106.03,-88.13 107.31,-87.34 108.60,-86.55 110.09,-85.53 111.57,-84.52 112.70,-83.72 113.83,-82.92 115.18,-81.72 116.52,-80.52 117.27,-79.59 118.01,-78.66 118.82,-77.83 119.63,-77.01 120.52,-75.91 121.41,-74.81 122.25,-73.92 123.10,-73.03 123.62,-72.05 124.14,-71.07 125.00,-69.61 125.86,-68.16 126.41,-67.04 126.95,-65.92 126.81,-64.48 126.68,-63.04 125.66,-61.64 124.65,-60.25 123.63,-59.21 122.60,-58.17 121.94,-57.21 121.28,-56.25 120.41,-55.25 119.54,-54.26 118.72,-53.37 117.90,-52.48 116.95,-51.33 116.00,-50.19 115.01,-48.98 114.02,-47.77 112.27,-45.07 110.52,-42.36 109.58,-40.75 108.64,-39.14 108.01,-38.26 107.38,-37.38 106.80,-36.45 106.22,-35.52 105.43,-34.32 104.64,-33.11 103.92,-32.26 103.19,-31.42 102.30,-30.14 101.42,-28.87 100.69,-27.79 99.96,-26.71 99.02,-25.33 98.07,-23.95 97.03,-22.57 95.98,-21.19 95.12,-20.26 94.26,-19.32 93.33,-18.39 92.40,-17.45 91.26,-16.31 90.12,-15.17 89.22,-14.27 88.32,-13.37 87.12,-12.18 85.93,-10.99 84.96,-10.08 83.98,-9.18 83.25,-8.39 82.51,-7.61 81.49,-6.60 80.46,-5.59 79.39,-4.47 78.31,-3.36 77.57,-2.49 76.82,-1.62 76.10,-0.83 75.38,-0.03 74.01,1.30 72.65,2.64 71.73,3.83 70.80,5.02 69.75,6.32 68.70,7.62 67.94,8.69 67.19,9.76 66.22,10.94 65.25,12.11 64.30,13.29 63.34,14.48 61.54,16.46 59.75,18.44 58.44,20.04 57.14,21.63 56.17,22.46 55.19,23.29 53.80,24.50 52.41,25.72 51.42,26.74 50.43,27.77 49.39,28.66 48.36,29.55 47.21,30.40 46.06,31.24 44.78,32.02 43.51,32.81 41.89,33.88 40.27,34.96 38.54,35.40 36.80,35.83 36.61,35.91 36.41,35.99 36.20,36.00 35.99,36.02 35.78,35.96 35.58,35.91 35.40,35.79 35.22,35.67 35.09,35.50 34.96,35.33 34.89,35.13 34.83,34.93 34.82,34.72 34.82,34.51 34.89,34.30 34.96,34.10 35.08,33.93 35.21,33.76 35.39,33.64 35.56,33.52 35.76,33.46 35.97,33.41 36.18,33.42 36.39,33.43 36.59,33.50 36.79,33.58 36.95,33.72 37.11,33.85 37.23,34.03 37.34,34.22 37.38,34.42 37.43,34.63 37.41,34.84 37.39,35.05 37.30,35.25 37.21,35.44 37.07,35.60 36.92,35.75 36.73,35.85 36.55,35.95 36.34,35.99 36.13,36.02 35.92,35.99 35.71,35.96 35.52,35.86 35.33,35.76 35.18,35.61 35.04,35.45 34.95,35.26 34.86,35.07 34.83,34.86 34.81,34.65 34.85,34.44 34.90,34.23 35.00,34.05 35.11,33.87 35.27,33.73 35.44,33.59 35.43,33.59 35.43,33.59 35.86,32.49 36.28,31.39 37.44,30.32 38.59,29.25 39.97,28.51 41.34,27.78 42.65,26.65 43.95,25.52 44.93,24.81 45.90,24.10 47.26,22.67 48.62,21.24 49.94,20.09 51.26,18.93 52.53,17.74 53.80,16.54 54.58,15.53 55.36,14.52 57.25,12.40 59.14,10.27 60.00,9.20 60.86,8.12 61.99,6.88 63.13,5.63 63.67,4.69 64.21,3.75 65.27,2.42 66.34,1.09 67.28,-0.10 68.22,-1.30 69.22,-2.39 70.23,-3.48 71.16,-4.35 72.09,-5.22 73.08,-6.39 74.07,-7.55 75.04,-8.53 76.01,-9.51 76.88,-10.48 77.74,-11.45 78.64,-12.27 79.53,-13.10 80.64,-14.15 81.75,-15.21 82.93,-16.39 84.12,-17.57 85.01,-18.47 85.91,-19.37 87.04,-20.51 88.18,-21.65 89.07,-22.55 89.96,-23.46 90.70,-24.23 91.43,-25.01 92.33,-26.21 93.23,-27.41 94.27,-28.90 95.30,-30.40 95.99,-31.42 96.68,-32.44 97.69,-33.88 98.71,-35.31 99.79,-36.72 100.87,-38.13 101.72,-39.49 102.57,-40.85 103.44,-42.09 104.30,-43.32 104.90,-44.42 105.49,-45.52 106.87,-47.69 108.25,-49.86 108.89,-50.76 109.53,-51.66 110.29,-52.63 111.06,-53.60 111.81,-54.38 112.55,-55.15 113.50,-56.09 114.44,-57.04 115.20,-58.05 115.95,-59.07 116.78,-60.13 117.60,-61.18 118.53,-62.11 119.46,-63.04 120.28,-63.98 121.11,-64.92 120.34,-66.20 119.57,-67.48 118.88,-68.63 118.19,-69.78 117.32,-70.86 116.45,-71.95 115.51,-72.90 114.57,-73.85 113.59,-75.04 112.62,-76.23 111.76,-76.91 110.89,-77.60 109.97,-78.38 109.05,-79.16 108.21,-79.87 107.38,-80.58 105.62,-81.64 103.87,-82.71 102.16,-83.96 100.44,-85.21 99.11,-86.33 97.77,-87.45 96.53,-88.20 95.29,-88.96 94.36,-89.48 93.43,-90.00 91.90,-90.79 90.37,-91.57 89.06,-92.31 87.74,-93.05 86.58,-93.65 85.41,-94.25 84.54,-95.01 83.67,-95.77 85.42,-96.06 87.18,-96.35 86.48,-95.32 85.77,-94.29 84.90,-93.41 84.03,-92.54 83.26,-91.79 82.49,-91.05 81.72,-90.01 80.96,-88.97 80.01,-87.74 79.07,-86.50 78.03,-85.34 76.99,-84.17 76.15,-82.95 75.31,-81.73 74.06,-80.31 72.81,-78.88 71.66,-77.63 70.52,-76.38 69.57,-75.23 68.61,-74.07 67.09,-72.49 65.57,-70.91 64.12,-69.53 62.67,-68.14 61.56,-66.87 60.45,-65.60 59.45,-64.59 58.44,-63.58 57.16,-61.91 55.88,-60.25 54.08,-58.33 52.28,-56.42 51.13,-55.23 49.99,-54.04 48.85,-52.78 47.72,-51.52 46.94,-50.78 46.17,-50.04 44.79,-48.78 43.42,-47.51 42.61,-46.55 41.80,-45.58 40.43,-44.21 39.05,-42.85 38.22,-42.00 37.38,-41.15 35.94,-39.61 34.50,-38.06 33.54,-36.90 32.57,-35.74 31.03,-34.05 29.49,-32.35 28.38,-31.22 27.26,-30.09 25.87,-28.63 24.48,-27.17 23.58,-26.10 22.67,-25.04 21.68,-24.01 20.68,-22.99 19.54,-21.63 18.40,-20.28 17.23,-19.09 16.06,-17.90 14.94,-16.66 13.82,-15.42 12.92,-14.29 12.02,-13.16 10.91,-11.78 9.80,-10.41 9.18,-9.54 8.55,-8.67 7.49,-7.15 6.42,-5.62 5.74,-4.80 5.06,-3.98 4.36,-2.89 3.66,-1.79 2.47,-0.58 1.27,0.63 1.18,0.78 1.08,0.92 0.96,1.04 0.83,1.15 0.68,1.24 0.53,1.32 0.36,1.36 0.19,1.41 0.02,1.41 -0.14,1.42 -0.31,1.38 -0.48,1.34 -0.63,1.26 -0.78,1.19 -0.91,1.07 -1.05,0.96 -1.15,0.82 -1.25,0.68 -1.31,0.52 -1.37,0.36 -1.40,0.19 -1.42,0.02 -1.41,-0.14 -1.39,-0.31 -1.33,-0.47 -1.27,-0.63 -1.27,-0.63 L -1.27,-0.63 Z"></path></g><g transform="translate(308.23720079918985 191.97355800556397) rotate(0 -11.116885691599464 37.14054179534469)" stroke="none"><path fill="#000000" d="M 0.47,-1.26 Q 0.47,-1.26 1.80,-1.27 3.13,-1.28 4.61,-0.68 6.09,-0.08 7.30,0.60 8.50,1.29 9.38,2.04 10.26,2.79 11.31,3.99 12.36,5.20 12.77,6.24 13.18,7.28 13.65,8.31 14.11,9.35 13.91,11.02 13.72,12.69 13.25,13.76 12.78,14.83 11.57,16.34 10.35,17.85 9.66,18.75 8.97,19.64 8.17,20.46 7.38,21.29 6.01,22.47 4.65,23.66 3.10,25.07 1.54,26.47 0.60,27.27 -0.33,28.06 -1.30,28.57 -2.27,29.09 -3.33,29.72 -4.38,30.35 -5.60,30.88 -6.83,31.41 -7.93,31.93 -9.04,32.44 -10.16,32.93 -11.27,33.42 -12.34,33.83 -13.41,34.24 -14.65,34.66 -15.89,35.07 -17.02,35.61 -18.15,36.15 -19.66,36.70 -21.16,37.26 -22.63,37.83 -24.10,38.40 -25.72,38.76 -27.34,39.12 -28.61,39.38 -29.89,39.65 -31.27,39.90 -32.65,40.16 -34.25,40.53 -35.85,40.90 -37.17,41.07 -38.48,41.23 -40.17,41.49 -41.86,41.76 -43.10,41.78 -44.33,41.80 -45.65,41.99 -46.98,42.17 -48.33,42.23 -49.69,42.29 -50.94,42.29 -52.20,42.29 -53.44,42.28 -54.68,42.28 -55.86,42.22 -57.04,42.17 -57.48,43.17 -57.93,44.16 -58.40,45.46 -58.88,46.76 -59.13,47.97 -59.38,49.19 -59.39,50.41 -59.39,51.63 -59.39,52.90 -59.39,54.18 -58.72,55.41 -58.06,56.64 -57.18,57.55 -56.31,58.45 -55.53,59.24 -54.75,60.02 -52.68,61.51 -50.60,62.99 -49.41,63.81 -48.22,64.62 -47.20,65.21 -46.17,65.80 -45.17,66.35 -44.16,66.89 -42.89,67.33 -41.61,67.77 -39.87,68.42 -38.12,69.06 -36.69,69.35 -35.26,69.64 -33.38,69.92 -31.50,70.20 -30.15,70.50 -28.80,70.80 -27.30,71.06 -25.80,71.31 -24.59,71.35 -23.37,71.39 -21.48,71.61 -19.58,71.82 -18.22,71.86 -16.85,71.90 -15.10,71.91 -13.35,71.91 -12.06,71.91 -10.77,71.92 -9.56,71.91 -8.35,71.91 -6.83,71.91 -5.31,71.91 -3.93,71.91 -2.55,71.91 -0.82,71.92 0.91,71.92 2.56,71.78 4.21,71.65 5.68,71.42 7.16,71.19 8.73,71.07 10.30,70.95 11.78,70.73 13.26,70.50 14.62,70.27 15.99,70.03 17.44,69.75 18.89,69.46 20.20,69.03 21.51,68.60 22.55,68.33 23.59,68.05 24.99,67.68 26.40,67.31 27.98,67.12 29.56,66.93 31.05,66.91 32.55,66.90 33.73,66.90 34.92,66.90 36.34,67.13 37.75,67.35 38.24,68.81 38.73,70.26 38.89,70.29 39.04,70.32 39.18,70.39 39.32,70.46 39.45,70.56 39.57,70.67 39.66,70.79 39.75,70.92 39.81,71.07 39.87,71.21 39.90,71.37 39.92,71.53 39.91,71.69 39.89,71.84 39.84,71.99 39.79,72.14 39.70,72.27 39.61,72.41 39.50,72.52 39.38,72.62 39.24,72.70 39.11,72.78 38.95,72.82 38.80,72.86 38.64,72.87 38.49,72.87 38.80,72.82 39.12,72.77 38.91,72.82 38.71,72.87 38.50,72.85 38.28,72.84 38.09,72.75 37.90,72.67 37.74,72.52 37.58,72.38 37.48,72.20 37.37,72.01 37.33,71.80 37.29,71.59 37.32,71.38 37.35,71.17 37.45,70.98 37.55,70.79 37.70,70.64 37.85,70.49 38.04,70.40 38.23,70.31 38.44,70.28 38.65,70.25 38.86,70.29 39.07,70.33 39.25,70.44 39.44,70.54 39.58,70.70 39.72,70.86 39.80,71.06 39.88,71.25 39.90,71.47 39.92,71.68 39.86,71.88 39.81,72.09 39.70,72.27 39.58,72.45 39.41,72.58 39.25,72.71 39.05,72.78 38.85,72.85 38.64,72.86 38.42,72.86 38.22,72.80 38.02,72.74 37.85,72.61 37.67,72.49 37.55,72.31 37.43,72.14 37.37,71.94 37.31,71.73 37.31,71.52 37.32,71.31 37.39,71.11 37.47,70.91 37.60,70.75 37.74,70.58 38.23,70.42 38.73,70.26 38.89,70.29 39.04,70.32 39.18,70.39 39.32,70.46 39.45,70.56 39.57,70.67 39.66,70.79 39.75,70.92 39.81,71.07 39.87,71.21 39.90,71.37 39.92,71.53 39.91,71.69 39.89,71.84 39.84,71.99 39.79,72.14 39.70,72.27 39.61,72.41 39.50,72.52 39.38,72.62 39.25,72.70 39.11,72.78 38.95,72.82 38.80,72.86 38.64,72.87 38.49,72.87 37.69,72.89 36.89,72.91 35.60,72.74 34.32,72.56 32.91,72.56 31.50,72.56 30.30,72.57 29.10,72.59 27.85,72.87 26.59,73.14 25.34,73.40 24.08,73.65 22.55,74.16 21.01,74.67 19.68,74.95 18.34,75.23 17.11,75.53 15.87,75.83 14.82,76.03 13.77,76.23 12.15,76.46 10.52,76.69 9.35,76.77 8.17,76.86 6.62,77.10 5.06,77.33 2.99,77.49 0.91,77.65 -0.82,77.65 -2.55,77.65 -3.93,77.65 -5.31,77.65 -6.83,77.65 -8.35,77.65 -9.56,77.65 -10.77,77.64 -12.07,77.64 -13.36,77.64 -15.15,77.63 -16.93,77.62 -18.43,77.59 -19.93,77.55 -21.74,77.33 -23.55,77.12 -24.93,77.06 -26.31,77.01 -27.43,76.89 -28.54,76.77 -29.90,76.48 -31.25,76.19 -32.67,75.83 -34.09,75.47 -35.27,75.35 -36.45,75.24 -38.40,74.78 -40.35,74.31 -41.95,73.73 -43.56,73.14 -45.21,72.52 -46.86,71.91 -47.96,71.32 -49.06,70.72 -50.24,70.02 -51.43,69.31 -52.71,68.44 -53.99,67.57 -56.35,65.77 -58.72,63.98 -59.53,63.15 -60.33,62.33 -61.36,61.21 -62.39,60.09 -63.19,58.88 -63.99,57.66 -64.43,56.55 -64.86,55.44 -64.88,53.80 -64.90,52.15 -64.90,50.86 -64.89,49.56 -64.82,48.44 -64.75,47.33 -64.36,45.80 -63.97,44.27 -63.28,42.83 -62.59,41.39 -61.88,40.25 -61.17,39.10 -60.16,38.19 -59.14,37.27 -57.68,36.91 -56.22,36.55 -54.91,36.54 -53.61,36.53 -52.33,36.53 -51.06,36.53 -49.53,36.50 -48.01,36.46 -46.96,36.23 -45.91,36.01 -44.42,35.99 -42.92,35.98 -41.78,35.95 -40.64,35.92 -39.47,35.65 -38.29,35.38 -36.80,35.09 -35.30,34.79 -33.93,34.54 -32.56,34.28 -31.13,34.10 -29.70,33.92 -28.45,33.61 -27.19,33.29 -26.11,32.95 -25.03,32.62 -23.95,32.17 -22.88,31.71 -21.61,31.24 -20.33,30.77 -19.13,30.21 -17.92,29.65 -16.03,29.02 -14.14,28.39 -13.06,27.94 -11.99,27.48 -10.82,26.94 -9.66,26.41 -8.39,25.87 -7.13,25.34 -5.88,24.64 -4.63,23.93 -3.59,23.24 -2.56,22.55 -1.25,21.60 0.04,20.65 0.90,19.83 1.76,19.01 2.61,18.18 3.47,17.36 4.42,16.39 5.37,15.43 6.15,14.65 6.93,13.88 7.79,12.74 8.65,11.60 8.78,10.35 8.91,9.10 8.52,8.05 8.14,7.00 6.97,6.09 5.80,5.18 4.87,4.61 3.93,4.04 2.72,3.53 1.51,3.02 0.52,2.14 -0.47,1.26 -0.62,1.19 -0.76,1.11 -0.88,1.00 -1.01,0.90 -1.10,0.76 -1.19,0.63 -1.25,0.48 -1.31,0.32 -1.33,0.16 -1.35,0.00 -1.33,-0.15 -1.31,-0.31 -1.25,-0.47 -1.20,-0.62 -1.10,-0.75 -1.01,-0.89 -0.89,-1.00 -0.77,-1.11 -0.62,-1.18 -0.48,-1.26 -0.32,-1.30 -0.16,-1.34 -0.00,-1.34 0.15,-1.34 0.31,-1.30 0.47,-1.26 0.47,-1.26 L 0.47,-1.26 Z"></path></g><g transform="translate(228.90303781721104 193.48949801493745) rotate(0 0.2526412472897164 33.098027393213556)" stroke="none"><path fill="#000000" d="M 1.44,0.60 Q 1.44,0.60 1.04,2.48 0.64,4.36 0.19,5.41 -0.25,6.47 -0.77,8.51 -1.28,10.56 -1.77,12.69 -2.25,14.83 -2.53,16.39 -2.80,17.95 -3.22,19.56 -3.63,21.17 -3.90,22.62 -4.18,24.07 -4.64,26.03 -5.11,27.99 -5.22,29.12 -5.33,30.26 -5.51,31.35 -5.68,32.44 -5.95,33.75 -6.22,35.06 -6.29,36.38 -6.35,37.71 -6.58,38.95 -6.82,40.19 -7.22,42.17 -7.62,44.14 -7.88,45.62 -8.14,47.09 -8.39,48.72 -8.63,50.34 -8.88,52.08 -9.12,53.83 -9.21,55.14 -9.30,56.46 -9.52,58.36 -9.74,60.25 -9.99,61.68 -10.23,63.11 -10.54,64.71 -10.84,66.31 -12.05,64.98 -13.27,63.66 -12.03,62.82 -10.79,61.98 -9.43,61.46 -8.08,60.94 -6.41,60.21 -4.75,59.48 -3.48,58.87 -2.21,58.26 -1.20,57.67 -0.19,57.09 0.98,56.16 2.15,55.24 3.45,54.47 4.74,53.71 5.85,53.13 6.95,52.54 8.07,52.19 9.19,51.83 11.01,51.62 12.83,51.42 12.90,51.22 12.98,51.02 13.11,50.86 13.25,50.69 13.43,50.58 13.60,50.47 13.81,50.42 14.02,50.37 14.23,50.38 14.44,50.40 14.64,50.49 14.83,50.57 14.99,50.72 15.14,50.86 15.25,51.04 15.35,51.23 15.39,51.44 15.43,51.65 15.40,51.86 15.37,52.07 15.27,52.26 15.18,52.45 15.03,52.60 14.88,52.75 14.68,52.84 14.49,52.93 14.28,52.96 14.07,52.99 13.86,52.95 13.66,52.91 13.47,52.80 13.29,52.69 13.15,52.53 13.01,52.38 12.92,52.18 12.84,51.98 12.82,51.77 12.81,51.56 12.86,51.35 12.91,51.15 13.03,50.97 13.14,50.79 13.31,50.66 13.48,50.53 13.68,50.46 13.88,50.38 14.09,50.38 14.30,50.38 14.50,50.44 14.71,50.50 14.88,50.63 15.05,50.75 15.17,50.93 15.30,51.10 15.36,51.30 15.42,51.51 15.41,51.72 15.40,51.93 15.40,51.93 15.40,51.93 13.50,54.45 11.59,56.96 10.19,57.53 8.79,58.10 7.75,58.68 6.71,59.25 5.36,59.96 4.02,60.67 2.75,61.65 1.48,62.63 0.34,63.19 -0.78,63.75 -2.43,64.53 -4.07,65.30 -5.69,66.02 -7.30,66.73 -8.84,67.28 -10.39,67.83 -11.87,68.10 -13.35,68.36 -14.66,67.32 -15.98,66.29 -15.90,64.36 -15.81,62.43 -15.57,61.16 -15.32,59.89 -15.09,58.06 -14.85,56.24 -14.73,54.60 -14.60,52.97 -14.34,51.22 -14.07,49.46 -13.80,47.76 -13.53,46.06 -13.24,44.50 -12.94,42.94 -12.56,41.15 -12.17,39.36 -11.93,37.78 -11.68,36.20 -11.41,34.45 -11.15,32.70 -10.93,31.33 -10.70,29.96 -10.51,28.33 -10.33,26.69 -9.85,24.78 -9.36,22.86 -8.95,21.17 -8.54,19.49 -8.14,18.17 -7.74,16.86 -7.41,15.34 -7.08,13.82 -6.51,11.70 -5.94,9.58 -5.20,7.10 -4.46,4.62 -4.00,3.61 -3.55,2.61 -2.50,1.00 -1.44,-0.60 -1.35,-0.76 -1.26,-0.93 -1.13,-1.07 -1.00,-1.20 -0.84,-1.31 -0.68,-1.41 -0.50,-1.47 -0.32,-1.53 -0.13,-1.55 0.05,-1.57 0.23,-1.54 0.42,-1.51 0.59,-1.43 0.77,-1.36 0.92,-1.25 1.07,-1.14 1.20,-0.99 1.32,-0.85 1.40,-0.67 1.48,-0.50 1.52,-0.32 1.56,-0.13 1.55,0.05 1.55,0.23 1.50,0.42 1.44,0.60 1.44,0.60 L 1.44,0.60 Z"></path></g><g transform="translate(227.38709780783824 193.9948267723339) rotate(0 18.191280112476875 17.93861573377842)" stroke="none"><path fill="#000000" d="M 1.50,-0.64 Q 1.50,-0.64 2.17,0.27 2.84,1.18 3.22,2.28 3.59,3.38 4.46,5.04 5.33,6.69 6.00,7.96 6.66,9.23 7.48,10.53 8.29,11.84 9.01,12.89 9.73,13.95 10.36,15.02 11.00,16.09 11.59,17.02 12.19,17.95 13.31,19.24 14.43,20.54 15.41,21.44 16.38,22.34 17.51,23.04 18.65,23.75 19.91,24.60 21.18,25.45 22.39,25.95 23.61,26.46 24.92,26.81 26.22,27.16 27.44,27.72 28.67,28.27 29.82,28.93 30.98,29.58 31.98,30.09 32.97,30.59 34.27,31.29 35.57,31.99 36.45,33.45 37.32,34.92 37.41,35.11 37.50,35.31 37.52,35.52 37.54,35.73 37.49,35.94 37.44,36.14 37.33,36.32 37.22,36.51 37.05,36.64 36.89,36.78 36.69,36.85 36.49,36.93 36.28,36.94 36.07,36.95 35.86,36.89 35.66,36.83 35.49,36.71 35.31,36.59 35.19,36.41 35.06,36.24 34.99,36.04 34.93,35.84 34.93,35.63 34.93,35.41 35.00,35.21 35.07,35.01 35.20,34.85 35.33,34.68 35.51,34.56 35.69,34.44 35.90,34.39 36.10,34.34 36.31,34.35 36.52,34.36 36.72,34.45 36.92,34.53 37.08,34.67 37.24,34.81 37.35,34.99 37.45,35.17 37.50,35.38 37.54,35.59 37.51,35.80 37.49,36.01 37.40,36.20 37.30,36.39 37.16,36.55 37.01,36.70 36.82,36.80 36.63,36.89 36.42,36.92 36.21,36.96 36.00,36.92 35.79,36.88 35.61,36.78 35.42,36.68 35.27,36.52 35.13,36.37 35.13,36.37 35.13,36.37 33.69,36.02 32.25,35.67 31.21,35.11 30.17,34.55 29.22,33.85 28.27,33.15 27.23,32.60 26.18,32.04 24.78,31.60 23.39,31.17 22.26,30.85 21.12,30.52 19.69,29.95 18.26,29.37 17.29,28.70 16.33,28.03 14.99,27.16 13.65,26.29 12.67,25.42 11.70,24.56 10.80,23.45 9.90,22.35 8.86,20.91 7.81,19.48 6.98,18.12 6.15,16.76 5.31,15.51 4.47,14.25 3.52,12.64 2.57,11.02 1.96,9.85 1.34,8.68 0.88,7.73 0.41,6.77 -0.34,4.82 -1.10,2.88 -1.30,1.76 -1.50,0.64 -1.55,0.45 -1.61,0.26 -1.62,0.06 -1.63,-0.12 -1.59,-0.32 -1.55,-0.51 -1.46,-0.69 -1.38,-0.87 -1.26,-1.02 -1.13,-1.17 -0.97,-1.29 -0.82,-1.41 -0.63,-1.49 -0.45,-1.57 -0.26,-1.60 -0.06,-1.63 0.12,-1.61 0.32,-1.60 0.51,-1.54 0.69,-1.47 0.86,-1.37 1.03,-1.26 1.16,-1.12 1.30,-0.98 1.40,-0.81 1.50,-0.64 1.50,-0.64 L 1.50,-0.64 Z"></path></g><g transform="translate(226.3764402930442 188.43637236082986) rotate(0 29.560830182774794 -34.86662021558061)" stroke="none"><path fill="#000000" d="M -1.42,0.20 Q -1.42,0.20 -2.05,-0.74 -2.67,-1.69 -2.97,-3.22 -3.26,-4.76 -3.71,-6.22 -4.16,-7.67 -4.68,-9.26 -5.21,-10.85 -5.64,-12.54 -6.08,-14.22 -6.60,-15.71 -7.13,-17.19 -7.59,-18.98 -8.05,-20.76 -8.48,-22.12 -8.92,-23.48 -9.12,-24.79 -9.32,-26.10 -9.51,-27.36 -9.71,-28.63 -9.84,-29.79 -9.96,-30.95 -10.00,-32.29 -10.04,-33.64 -9.82,-34.96 -9.59,-36.28 -9.06,-37.71 -8.52,-39.15 -7.71,-40.58 -6.91,-42.01 -6.25,-42.97 -5.59,-43.93 -4.53,-45.08 -3.46,-46.22 -2.40,-46.87 -1.35,-47.51 0.03,-48.44 1.42,-49.37 2.36,-50.03 3.30,-50.68 4.17,-51.39 5.05,-52.11 6.18,-53.00 7.30,-53.89 8.48,-54.77 9.65,-55.65 10.70,-56.25 11.74,-56.85 13.07,-57.60 14.39,-58.35 16.01,-59.14 17.64,-59.93 19.01,-60.51 20.38,-61.09 21.57,-61.67 22.75,-62.26 24.82,-63.07 26.88,-63.87 28.51,-64.59 30.13,-65.31 31.51,-65.96 32.88,-66.60 34.26,-67.27 35.64,-67.95 36.65,-68.32 37.66,-68.68 38.83,-69.21 40.00,-69.75 41.51,-70.32 43.03,-70.89 44.15,-71.20 45.28,-71.52 46.92,-71.89 48.56,-72.25 49.67,-72.52 50.77,-72.78 51.83,-73.03 52.90,-73.29 54.08,-73.34 55.26,-73.40 56.58,-73.42 57.90,-73.43 59.25,-73.43 60.61,-73.43 62.19,-73.23 63.77,-73.02 64.90,-72.06 66.03,-71.11 66.18,-71.07 66.33,-71.02 66.47,-70.94 66.60,-70.86 66.72,-70.75 66.83,-70.63 66.91,-70.50 66.99,-70.36 67.04,-70.21 67.09,-70.06 67.10,-69.90 67.11,-69.75 67.08,-69.59 67.05,-69.43 66.99,-69.29 66.92,-69.14 66.83,-69.02 66.73,-68.89 66.60,-68.80 66.48,-68.70 66.34,-68.63 66.19,-68.57 66.04,-68.54 65.88,-68.51 65.72,-68.52 65.56,-68.53 65.92,-68.56 66.27,-68.59 66.06,-68.55 65.85,-68.51 65.64,-68.53 65.43,-68.56 65.24,-68.65 65.04,-68.74 64.89,-68.89 64.74,-69.04 64.64,-69.23 64.55,-69.42 64.52,-69.63 64.48,-69.84 64.52,-70.05 64.56,-70.26 64.66,-70.44 64.76,-70.63 64.92,-70.77 65.08,-70.92 65.27,-71.00 65.46,-71.09 65.68,-71.11 65.89,-71.13 66.09,-71.08 66.30,-71.03 66.48,-70.92 66.66,-70.81 66.80,-70.64 66.93,-70.48 67.01,-70.28 67.08,-70.08 67.09,-69.87 67.10,-69.66 67.04,-69.46 66.98,-69.25 66.86,-69.08 66.74,-68.90 66.57,-68.78 66.40,-68.65 66.19,-68.59 65.99,-68.52 65.78,-68.52 65.57,-68.53 65.37,-68.60 65.16,-68.67 65.00,-68.80 64.83,-68.93 64.71,-69.11 64.60,-69.29 64.54,-69.49 64.49,-69.70 64.50,-69.91 64.52,-70.12 64.60,-70.32 64.68,-70.51 64.82,-70.67 64.96,-70.83 65.50,-70.97 66.03,-71.11 66.18,-71.07 66.33,-71.02 66.47,-70.94 66.60,-70.86 66.72,-70.75 66.83,-70.63 66.91,-70.50 66.99,-70.36 67.04,-70.21 67.09,-70.06 67.10,-69.90 67.11,-69.75 67.08,-69.59 67.05,-69.43 66.99,-69.29 66.92,-69.14 66.83,-69.02 66.73,-68.89 66.60,-68.80 66.48,-68.70 66.34,-68.63 66.19,-68.57 66.04,-68.54 65.88,-68.51 65.72,-68.52 65.57,-68.53 64.38,-68.10 63.19,-67.68 61.90,-67.86 60.61,-68.04 59.26,-68.04 57.91,-68.05 56.66,-68.04 55.40,-68.03 54.22,-67.97 53.04,-67.91 51.94,-67.68 50.84,-67.46 49.56,-67.15 48.29,-66.83 46.56,-66.32 44.83,-65.81 43.26,-65.16 41.69,-64.50 40.39,-63.96 39.09,-63.41 38.03,-63.01 36.97,-62.60 36.02,-62.08 35.06,-61.55 33.53,-60.83 31.99,-60.10 30.57,-59.46 29.14,-58.82 27.17,-58.03 25.19,-57.25 23.95,-56.65 22.70,-56.04 21.40,-55.50 20.09,-54.95 18.36,-54.10 16.62,-53.25 15.65,-52.69 14.68,-52.13 13.53,-51.46 12.38,-50.79 11.53,-50.14 10.67,-49.49 9.46,-48.56 8.26,-47.63 6.91,-46.72 5.56,-45.80 4.59,-45.10 3.61,-44.40 2.35,-43.59 1.10,-42.78 0.02,-41.99 -1.04,-41.19 -1.94,-40.16 -2.83,-39.13 -3.52,-37.97 -4.22,-36.81 -4.66,-35.69 -5.10,-34.57 -5.11,-33.23 -5.12,-31.89 -5.04,-30.74 -4.95,-29.58 -4.73,-28.11 -4.51,-26.63 -4.18,-25.27 -3.86,-23.91 -3.38,-22.01 -2.90,-20.11 -2.57,-18.85 -2.23,-17.60 -1.80,-16.44 -1.37,-15.28 -1.05,-13.97 -0.74,-12.66 -0.31,-11.57 0.11,-10.48 0.43,-9.16 0.75,-7.84 1.12,-6.63 1.50,-5.41 1.80,-3.89 2.09,-2.37 1.76,-1.28 1.42,-0.20 1.43,-0.03 1.43,0.14 1.39,0.31 1.35,0.48 1.28,0.63 1.20,0.79 1.09,0.92 0.97,1.05 0.83,1.16 0.69,1.26 0.53,1.32 0.37,1.39 0.20,1.41 0.03,1.44 -0.14,1.42 -0.31,1.40 -0.47,1.34 -0.64,1.29 -0.78,1.19 -0.93,1.09 -1.05,0.97 -1.16,0.84 -1.25,0.69 -1.33,0.53 -1.38,0.37 -1.42,0.20 -1.42,0.20 L -1.42,0.20 Z"></path></g><g transform="translate(229.40832031179048 190.96294675358786) rotate(0 -2.021245635361197 -6.821730042178842)" stroke="none"><path fill="#000000" d="M -1.39,0.46 Q -1.39,0.46 -2.00,-0.30 -2.61,-1.06 -3.07,-2.52 -3.53,-3.99 -3.84,-5.37 -4.16,-6.76 -4.61,-7.94 -5.05,-9.12 -5.12,-10.94 -5.18,-12.77 -5.20,-12.98 -5.21,-13.19 -5.16,-13.40 -5.10,-13.60 -4.99,-13.78 -4.87,-13.96 -4.70,-14.09 -4.53,-14.22 -4.33,-14.29 -4.13,-14.36 -3.92,-14.36 -3.71,-14.36 -3.50,-14.30 -3.30,-14.23 -3.13,-14.11 -2.96,-13.98 -2.84,-13.80 -2.72,-13.63 -2.66,-13.43 -2.60,-13.22 -2.61,-13.01 -2.62,-12.80 -2.69,-12.60 -2.77,-12.40 -2.91,-12.24 -3.04,-12.07 -3.22,-11.96 -3.40,-11.85 -3.61,-11.80 -3.82,-11.75 -4.03,-11.78 -4.24,-11.80 -4.44,-11.88 -4.63,-11.97 -4.78,-12.11 -4.94,-12.26 -5.04,-12.45 -5.14,-12.63 -5.18,-12.84 -5.22,-13.05 -5.19,-13.26 -5.15,-13.47 -5.06,-13.66 -4.96,-13.85 -4.81,-14.00 -4.65,-14.14 -4.46,-14.24 -4.27,-14.33 -4.06,-14.35 -3.85,-14.38 -3.64,-14.33 -3.43,-14.29 -3.25,-14.18 -3.07,-14.08 -2.93,-13.92 -2.79,-13.75 -2.71,-13.56 -2.62,-13.36 -2.63,-13.36 -2.63,-13.36 -1.98,-12.20 -1.34,-11.03 -0.81,-9.98 -0.28,-8.94 -0.06,-7.81 0.14,-6.69 0.41,-5.59 0.68,-4.50 1.06,-3.46 1.45,-2.42 1.42,-1.44 1.39,-0.46 1.42,-0.29 1.46,-0.11 1.45,0.05 1.44,0.23 1.40,0.40 1.35,0.57 1.26,0.72 1.17,0.88 1.05,1.01 0.92,1.13 0.77,1.23 0.62,1.32 0.46,1.38 0.29,1.43 0.11,1.45 -0.05,1.46 -0.23,1.43 -0.40,1.41 -0.57,1.34 -0.73,1.27 -0.87,1.16 -1.01,1.05 -1.12,0.92 -1.24,0.78 -1.31,0.62 -1.39,0.46 -1.39,0.46 L -1.39,0.46 Z"></path></g><g transform="translate(324.40725840771483 88.88963736819551) rotate(0 20.717831373826016 14.401430089044084)" stroke="none"><path fill="#000000" d="M 0,-1.46 Q 0,-1.46 1.30,-1.92 2.61,-2.38 3.90,-2.23 5.19,-2.09 6.45,-1.88 7.71,-1.68 9.55,-1.18 11.38,-0.68 12.50,-0.24 13.62,0.19 15.03,0.73 16.45,1.27 17.41,1.72 18.38,2.17 19.58,2.82 20.77,3.46 22.47,4.40 24.16,5.33 25.01,6.05 25.85,6.76 27.15,8.15 28.45,9.53 29.67,10.67 30.89,11.81 31.75,12.66 32.61,13.50 33.84,14.81 35.07,16.12 36.27,17.32 37.46,18.52 38.51,19.80 39.56,21.09 40.33,22.09 41.10,23.10 41.88,24.18 42.66,25.26 41.70,26.19 40.74,27.13 40.82,27.26 40.90,27.40 40.95,27.55 40.99,27.70 41.00,27.86 41.01,28.02 40.98,28.17 40.95,28.33 40.89,28.47 40.82,28.62 40.72,28.74 40.62,28.87 40.50,28.96 40.37,29.06 40.23,29.12 40.08,29.19 39.93,29.22 39.77,29.24 39.61,29.23 39.46,29.22 39.31,29.18 39.15,29.13 39.02,29.04 38.88,28.96 38.77,28.85 38.66,28.74 38.72,28.80 38.77,28.86 38.65,28.69 38.52,28.51 38.46,28.31 38.40,28.11 38.40,27.89 38.41,27.68 38.48,27.48 38.56,27.28 38.69,27.12 38.83,26.95 39.01,26.84 39.18,26.72 39.39,26.67 39.60,26.62 39.81,26.64 40.02,26.66 40.22,26.74 40.41,26.83 40.57,26.97 40.73,27.11 40.83,27.30 40.93,27.48 40.97,27.69 41.01,27.90 40.98,28.11 40.95,28.32 40.86,28.51 40.76,28.70 40.61,28.85 40.46,29.00 40.27,29.10 40.08,29.19 39.87,29.22 39.66,29.25 39.45,29.20 39.24,29.16 39.06,29.06 38.87,28.95 38.73,28.80 38.59,28.64 38.51,28.44 38.42,28.25 38.41,28.03 38.39,27.82 38.44,27.62 38.50,27.41 38.61,27.23 38.73,27.05 38.89,26.92 39.06,26.79 39.26,26.71 39.46,26.64 39.67,26.64 39.88,26.63 40.08,26.69 40.29,26.76 40.51,26.94 40.74,27.13 40.82,27.26 40.90,27.40 40.95,27.55 40.99,27.70 41.00,27.86 41.01,28.02 40.98,28.17 40.95,28.33 40.89,28.47 40.82,28.62 40.72,28.74 40.62,28.87 40.50,28.96 40.37,29.06 40.23,29.12 40.08,29.19 39.93,29.22 39.77,29.24 39.61,29.23 39.46,29.22 39.31,29.18 39.15,29.13 39.02,29.04 38.88,28.96 38.77,28.85 38.66,28.74 38.23,28.10 37.79,27.47 37.05,26.34 36.31,25.22 35.60,24.29 34.90,23.36 33.93,22.18 32.96,21.00 32.03,20.18 31.10,19.36 30.24,18.42 29.38,17.47 28.49,16.59 27.61,15.72 26.78,15.01 25.95,14.30 25.23,13.51 24.51,12.72 23.52,11.64 22.53,10.56 21.44,9.64 20.36,8.73 19.35,8.27 18.35,7.82 17.30,7.22 16.25,6.62 14.69,5.86 13.12,5.10 11.63,4.55 10.14,4.00 8.51,3.54 6.89,3.09 4.75,2.74 2.61,2.38 1.30,1.92 0,1.46 -0.17,1.44 -0.35,1.42 -0.51,1.35 -0.68,1.29 -0.82,1.19 -0.97,1.09 -1.08,0.96 -1.20,0.83 -1.28,0.67 -1.36,0.51 -1.41,0.34 -1.45,0.17 -1.45,-0.00 -1.45,-0.17 -1.41,-0.34 -1.36,-0.51 -1.28,-0.67 -1.20,-0.83 -1.08,-0.96 -0.97,-1.09 -0.82,-1.19 -0.68,-1.29 -0.51,-1.35 -0.35,-1.42 -0.17,-1.44 0.00,-1.46 0.00,-1.46 L 0,-1.46 Z"></path></g><g transform="translate(335.018838473326 78.27805730258387) rotate(0 21.22316013122304 16.928004481802304)" stroke="none"><path fill="#000000" d="M 0.36,-1.60 Q 0.36,-1.60 2.34,-1.55 4.32,-1.50 6.42,-0.93 8.52,-0.36 10.40,0.35 12.28,1.07 13.44,1.74 14.59,2.41 16.39,3.36 18.19,4.30 19.46,5.01 20.73,5.72 21.73,6.33 22.73,6.94 23.99,7.92 25.25,8.91 26.39,9.99 27.53,11.08 29.03,12.36 30.52,13.64 31.81,14.88 33.09,16.12 33.93,16.81 34.76,17.49 36.02,18.66 37.29,19.83 37.98,20.66 38.66,21.49 39.57,22.68 40.48,23.87 41.06,24.82 41.63,25.77 42.19,26.88 42.76,27.98 43.43,29.39 44.10,30.80 42.32,31.39 40.55,31.99 40.59,32.14 40.64,32.29 40.65,32.45 40.66,32.60 40.63,32.76 40.61,32.92 40.54,33.06 40.48,33.20 40.38,33.33 40.28,33.45 40.16,33.55 40.03,33.65 39.89,33.72 39.74,33.78 39.59,33.81 39.43,33.84 39.28,33.83 39.12,33.82 38.97,33.77 38.82,33.73 38.68,33.65 38.54,33.56 38.43,33.45 38.32,33.34 38.24,33.21 38.15,33.07 38.31,33.29 38.47,33.50 38.34,33.34 38.21,33.17 38.13,32.97 38.06,32.77 38.06,32.56 38.05,32.35 38.11,32.14 38.18,31.94 38.30,31.77 38.42,31.60 38.60,31.47 38.77,31.35 38.97,31.29 39.18,31.23 39.39,31.23 39.60,31.24 39.80,31.31 40.00,31.39 40.17,31.52 40.33,31.65 40.44,31.83 40.56,32.01 40.61,32.22 40.66,32.43 40.64,32.64 40.62,32.85 40.54,33.04 40.46,33.24 40.31,33.40 40.17,33.55 39.99,33.66 39.80,33.76 39.59,33.80 39.38,33.84 39.17,33.81 38.96,33.78 38.77,33.69 38.58,33.59 38.43,33.44 38.28,33.29 38.19,33.10 38.09,32.91 38.07,32.70 38.04,32.49 38.08,32.28 38.12,32.07 38.22,31.89 38.33,31.70 38.49,31.56 38.65,31.42 38.84,31.34 39.04,31.25 39.25,31.24 39.46,31.22 39.67,31.27 39.87,31.32 40.21,31.65 40.55,31.99 40.59,32.14 40.64,32.29 40.65,32.45 40.66,32.60 40.63,32.76 40.61,32.92 40.54,33.06 40.48,33.20 40.38,33.33 40.28,33.45 40.16,33.55 40.03,33.65 39.89,33.72 39.75,33.78 39.59,33.81 39.43,33.84 39.28,33.83 39.12,33.82 38.97,33.77 38.82,33.73 38.68,33.65 38.54,33.56 38.43,33.45 38.32,33.34 38.24,33.21 38.15,33.07 38.56,32.98 38.96,32.89 38.48,31.82 38.00,30.76 37.43,29.64 36.87,28.52 36.13,27.40 35.40,26.28 34.45,25.02 33.51,23.76 32.38,22.72 31.26,21.68 30.26,20.84 29.27,20.00 28.51,19.25 27.76,18.50 26.61,17.44 25.46,16.38 24.61,15.68 23.75,14.97 22.73,13.97 21.70,12.97 20.81,12.25 19.91,11.53 19.00,10.97 18.08,10.40 16.90,9.73 15.73,9.05 14.51,8.41 13.29,7.76 11.74,6.76 10.18,5.77 8.47,5.05 6.75,4.33 4.99,3.78 3.22,3.24 1.42,2.42 -0.36,1.60 -0.55,1.53 -0.74,1.46 -0.90,1.35 -1.07,1.24 -1.20,1.09 -1.33,0.95 -1.43,0.77 -1.52,0.60 -1.57,0.41 -1.62,0.22 -1.63,0.02 -1.63,-0.17 -1.58,-0.36 -1.54,-0.55 -1.45,-0.73 -1.36,-0.91 -1.23,-1.06 -1.10,-1.21 -0.94,-1.32 -0.78,-1.44 -0.60,-1.51 -0.41,-1.58 -0.22,-1.61 -0.02,-1.64 0.17,-1.62 0.36,-1.60 0.36,-1.60 L 0.36,-1.60 Z"></path></g><g transform="translate(340.07194099602475 150.53787212650332) rotate(0 22.233794514607894 18.443932925470904)" stroke="none"><path fill="#000000" d="M 1.05,-0.97 Q 1.05,-0.97 3.18,0.56 5.30,2.09 6.19,3.03 7.07,3.97 8.51,5.12 9.95,6.27 10.83,6.90 11.72,7.53 13.06,8.56 14.40,9.59 15.51,10.43 16.62,11.28 18.05,12.52 19.47,13.76 20.99,15.05 22.52,16.33 24.03,17.38 25.53,18.44 26.85,19.45 28.17,20.46 29.50,21.52 30.82,22.57 31.75,23.34 32.68,24.10 33.45,24.90 34.22,25.70 35.45,26.77 36.69,27.84 37.57,28.49 38.46,29.14 39.79,30.35 41.12,31.57 42.01,32.24 42.91,32.92 43.90,34.42 44.88,35.91 44.98,36.03 45.09,36.15 45.16,36.29 45.23,36.43 45.26,36.59 45.29,36.74 45.29,36.90 45.29,37.06 45.25,37.21 45.20,37.37 45.13,37.50 45.05,37.64 44.94,37.76 44.84,37.87 44.70,37.96 44.57,38.05 44.42,38.10 44.27,38.15 44.11,38.17 43.96,38.18 43.80,38.16 43.64,38.14 43.50,38.08 43.35,38.02 43.22,37.93 43.09,37.83 43.56,38.01 44.02,38.18 43.81,38.16 43.60,38.13 43.41,38.03 43.22,37.93 43.07,37.78 42.92,37.63 42.82,37.44 42.73,37.25 42.70,37.04 42.67,36.83 42.72,36.62 42.76,36.41 42.86,36.23 42.97,36.04 43.13,35.90 43.29,35.76 43.48,35.68 43.68,35.60 43.89,35.58 44.10,35.56 44.31,35.62 44.51,35.67 44.69,35.78 44.87,35.90 45.00,36.07 45.13,36.23 45.21,36.43 45.28,36.63 45.28,36.84 45.29,37.06 45.22,37.26 45.16,37.46 45.04,37.63 44.91,37.81 44.74,37.93 44.56,38.05 44.36,38.11 44.16,38.17 43.95,38.17 43.73,38.16 43.53,38.09 43.34,38.01 43.17,37.88 43.01,37.74 42.89,37.56 42.78,37.38 42.73,37.18 42.68,36.97 42.70,36.76 42.71,36.55 42.80,36.35 42.88,36.16 43.03,36.00 43.17,35.84 43.36,35.74 43.54,35.64 44.21,35.77 44.88,35.91 44.98,36.03 45.09,36.15 45.16,36.29 45.23,36.43 45.26,36.59 45.29,36.74 45.29,36.90 45.29,37.06 45.25,37.21 45.20,37.37 45.13,37.50 45.05,37.64 44.94,37.76 44.84,37.87 44.70,37.96 44.57,38.05 44.42,38.10 44.27,38.15 44.11,38.17 43.96,38.18 43.80,38.16 43.64,38.14 43.50,38.08 43.35,38.02 43.22,37.93 43.09,37.83 40.87,37.21 38.64,36.58 37.81,35.74 36.98,34.90 35.62,33.82 34.25,32.73 32.97,31.69 31.68,30.64 30.09,29.24 28.50,27.85 27.46,26.89 26.41,25.94 25.07,24.83 23.72,23.72 22.49,22.81 21.25,21.90 19.50,20.55 17.74,19.19 16.79,18.42 15.85,17.64 14.62,16.54 13.40,15.45 12.27,14.56 11.14,13.67 9.93,12.66 8.72,11.65 7.72,10.91 6.72,10.17 5.08,8.77 3.44,7.37 2.55,6.41 1.66,5.46 0.30,3.21 -1.05,0.97 -1.15,0.83 -1.25,0.69 -1.32,0.53 -1.38,0.37 -1.41,0.20 -1.43,0.02 -1.41,-0.14 -1.40,-0.31 -1.34,-0.47 -1.28,-0.64 -1.18,-0.78 -1.09,-0.92 -0.96,-1.04 -0.83,-1.16 -0.68,-1.24 -0.53,-1.33 -0.36,-1.37 -0.20,-1.42 -0.02,-1.42 0.14,-1.42 0.31,-1.39 0.48,-1.35 0.63,-1.27 0.79,-1.19 0.92,-1.08 1.05,-0.97 1.05,-0.97 L 1.05,-0.97 Z"></path></g><g transform="translate(386.0554700346138 183.38324670672273) rotate(0 -19.7072201218499 43.20429026713259)" stroke="none"><path fill="#000000" d="M 1.81,0 Q 1.81,0 2.14,1.59 2.47,3.19 2.50,4.60 2.53,6.00 2.39,7.96 2.26,9.93 2.07,11.39 1.89,12.86 1.48,15.41 1.08,17.97 0.75,19.71 0.42,21.45 0.19,22.55 -0.02,23.65 -0.29,25.24 -0.56,26.83 -0.80,27.88 -1.03,28.93 -1.30,30.51 -1.57,32.10 -2.05,33.72 -2.54,35.33 -3.00,36.88 -3.46,38.43 -4.15,40.75 -4.84,43.07 -5.41,44.69 -5.98,46.30 -6.59,47.88 -7.19,49.45 -7.84,50.95 -8.49,52.45 -9.23,53.89 -9.96,55.33 -10.49,56.28 -11.01,57.23 -11.59,58.27 -12.16,59.31 -13.31,61.13 -14.46,62.95 -15.26,64.26 -16.06,65.58 -16.94,67.05 -17.83,68.51 -19.31,70.46 -20.79,72.41 -21.56,73.44 -22.33,74.47 -23.72,76.22 -25.11,77.98 -26.29,79.23 -27.47,80.48 -28.31,81.33 -29.15,82.17 -30.12,83.20 -31.10,84.23 -32.17,85.26 -33.25,86.29 -34.18,86.99 -35.11,87.70 -36.77,86.91 -38.42,86.12 -38.56,86.20 -38.69,86.29 -38.84,86.34 -38.99,86.39 -39.15,86.40 -39.31,86.41 -39.46,86.39 -39.62,86.36 -39.77,86.30 -39.91,86.24 -40.04,86.14 -40.17,86.05 -40.27,85.93 -40.37,85.80 -40.43,85.66 -40.50,85.52 -40.53,85.36 -40.57,85.21 -40.56,85.05 -40.55,84.89 -40.51,84.74 -40.47,84.59 -40.39,84.45 -40.31,84.31 -40.20,84.20 -40.09,84.08 -40.30,84.78 -40.51,85.49 -40.54,85.28 -40.57,85.07 -40.53,84.86 -40.49,84.65 -40.39,84.46 -40.28,84.28 -40.12,84.14 -39.97,83.99 -39.77,83.91 -39.58,83.83 -39.36,83.81 -39.15,83.79 -38.95,83.84 -38.74,83.89 -38.56,84.01 -38.38,84.12 -38.25,84.29 -38.11,84.45 -38.04,84.65 -37.97,84.85 -37.96,85.06 -37.96,85.28 -38.02,85.48 -38.08,85.68 -38.20,85.85 -38.33,86.03 -38.50,86.15 -38.67,86.28 -38.88,86.34 -39.08,86.40 -39.29,86.40 -39.50,86.39 -39.70,86.32 -39.90,86.24 -40.07,86.11 -40.23,85.98 -40.35,85.80 -40.46,85.62 -40.51,85.41 -40.57,85.21 -40.55,85.00 -40.53,84.78 -40.45,84.59 -40.36,84.39 -40.22,84.23 -40.08,84.08 -39.90,83.97 -39.71,83.87 -39.50,83.83 -39.29,83.79 -39.08,83.82 -38.87,83.84 -38.68,83.94 -38.49,84.03 -38.34,84.18 -38.19,84.33 -38.31,85.22 -38.42,86.12 -38.56,86.20 -38.69,86.29 -38.84,86.34 -38.99,86.39 -39.15,86.40 -39.31,86.41 -39.46,86.39 -39.62,86.36 -39.77,86.30 -39.91,86.24 -40.04,86.14 -40.17,86.05 -40.27,85.93 -40.37,85.80 -40.43,85.66 -40.50,85.52 -40.53,85.36 -40.57,85.21 -40.56,85.05 -40.55,84.89 -40.51,84.74 -40.47,84.59 -40.39,84.45 -40.31,84.31 -40.20,84.20 -40.09,84.08 -39.37,83.67 -38.64,83.26 -37.49,82.31 -36.33,81.35 -35.35,80.52 -34.36,79.69 -33.33,78.48 -32.30,77.28 -31.40,76.36 -30.51,75.45 -29.33,74.15 -28.16,72.85 -27.51,71.93 -26.86,71.02 -26.06,69.98 -25.25,68.94 -24.45,67.90 -23.64,66.86 -22.77,65.65 -21.89,64.44 -20.86,62.78 -19.82,61.12 -18.90,59.64 -17.98,58.16 -17.22,56.72 -16.45,55.28 -15.75,54.16 -15.05,53.04 -14.55,51.93 -14.04,50.83 -13.43,49.67 -12.82,48.52 -12.32,47.39 -11.81,46.26 -11.47,45.19 -11.12,44.12 -10.61,42.70 -10.10,41.28 -9.71,40.18 -9.33,39.08 -8.72,37.08 -8.12,35.07 -7.73,33.53 -7.33,31.99 -6.98,30.69 -6.62,29.40 -6.29,27.60 -5.95,25.81 -5.65,24.18 -5.34,22.55 -5.11,21.41 -4.87,20.28 -4.51,18.57 -4.15,16.86 -3.73,14.49 -3.30,12.12 -3.07,10.67 -2.84,9.22 -2.68,7.61 -2.53,6.00 -2.50,4.60 -2.47,3.19 -2.14,1.59 -1.81,0 -1.79,-0.21 -1.76,-0.43 -1.68,-0.64 -1.61,-0.84 -1.48,-1.02 -1.36,-1.20 -1.19,-1.35 -1.03,-1.49 -0.83,-1.59 -0.64,-1.70 -0.43,-1.75 -0.21,-1.80 0.00,-1.80 0.21,-1.80 0.43,-1.75 0.64,-1.70 0.83,-1.59 1.03,-1.49 1.19,-1.35 1.36,-1.20 1.48,-1.02 1.61,-0.84 1.68,-0.63 1.76,-0.43 1.79,-0.21 1.81,0.00 1.81,0.00 L 1.81,0 Z"></path></g><g transform="translate(408.2892414178127 188.43637236082986) rotate(0 -23.74971139257218 48.762733112932324)" stroke="none"><path fill="#000000" d="M 1.49,0 Q 1.49,0 1.90,1.30 2.32,2.61 2.19,4.43 2.07,6.25 1.70,8.80 1.34,11.36 0.93,13.33 0.52,15.31 0.37,16.49 0.21,17.67 0.00,19.10 -0.21,20.53 -0.43,22.14 -0.65,23.75 -0.92,24.86 -1.18,25.96 -1.39,27.18 -1.59,28.41 -1.83,29.69 -2.07,30.97 -2.57,32.93 -3.08,34.89 -3.49,36.30 -3.90,37.71 -4.44,39.60 -4.97,41.50 -5.23,42.65 -5.50,43.80 -6.08,45.60 -6.67,47.39 -7.44,49.80 -8.22,52.22 -8.66,53.82 -9.09,55.43 -9.52,56.66 -9.94,57.88 -10.68,59.66 -11.43,61.45 -11.89,62.52 -12.36,63.60 -12.88,64.70 -13.39,65.81 -14.22,67.39 -15.04,68.97 -15.63,70.09 -16.21,71.21 -16.92,72.46 -17.62,73.70 -18.30,74.65 -18.97,75.60 -20.07,77.34 -21.17,79.08 -21.94,80.30 -22.70,81.52 -23.51,82.68 -24.32,83.84 -24.93,84.75 -25.53,85.65 -26.32,86.59 -27.11,87.54 -27.89,88.37 -28.66,89.21 -29.62,90.21 -30.58,91.22 -31.46,92.10 -32.34,92.98 -33.43,93.67 -34.53,94.36 -35.53,95.07 -36.53,95.77 -37.84,96.43 -39.14,97.09 -40.18,97.65 -41.22,98.20 -42.43,98.71 -43.64,99.23 -45.37,99.02 -47.11,98.80 -47.32,98.79 -47.53,98.78 -47.73,98.70 -47.93,98.62 -48.09,98.48 -48.25,98.34 -48.36,98.15 -48.47,97.97 -48.51,97.76 -48.55,97.56 -48.53,97.34 -48.51,97.13 -48.41,96.94 -48.32,96.75 -48.18,96.60 -48.03,96.44 -47.84,96.35 -47.65,96.25 -47.44,96.21 -47.23,96.18 -47.02,96.22 -46.81,96.25 -46.63,96.35 -46.44,96.46 -46.29,96.61 -46.15,96.77 -46.06,96.96 -45.97,97.15 -45.95,97.37 -45.93,97.58 -45.98,97.78 -46.03,97.99 -46.14,98.17 -46.25,98.35 -46.41,98.49 -46.57,98.63 -46.77,98.70 -46.97,98.78 -47.18,98.79 -47.40,98.80 -47.60,98.74 -47.80,98.68 -47.98,98.56 -48.15,98.44 -48.28,98.27 -48.41,98.10 -48.47,97.90 -48.54,97.70 -48.54,97.48 -48.54,97.27 -48.47,97.07 -48.40,96.87 -48.27,96.70 -48.14,96.53 -47.96,96.42 -47.78,96.30 -47.58,96.24 -47.37,96.19 -47.37,96.19 -47.37,96.19 -45.35,94.54 -43.33,92.89 -42.23,92.37 -41.13,91.84 -40.05,91.13 -38.97,90.43 -37.65,89.65 -36.33,88.88 -35.50,88.04 -34.67,87.20 -33.75,86.26 -32.83,85.32 -31.53,83.88 -30.23,82.45 -29.60,81.53 -28.97,80.62 -28.23,79.55 -27.49,78.48 -26.67,77.19 -25.85,75.90 -24.70,74.10 -23.56,72.30 -22.93,71.44 -22.31,70.58 -21.68,69.47 -21.04,68.35 -20.41,67.17 -19.77,66.00 -19.11,64.71 -18.45,63.42 -17.96,62.38 -17.46,61.35 -16.92,60.13 -16.37,58.91 -15.77,57.48 -15.16,56.04 -14.80,55.03 -14.43,54.02 -13.93,52.20 -13.43,50.38 -12.65,48.02 -11.87,45.65 -11.33,44.08 -10.79,42.51 -10.45,41.21 -10.12,39.91 -9.59,38.04 -9.06,36.17 -8.68,34.92 -8.29,33.67 -7.79,31.80 -7.28,29.94 -7.02,28.67 -6.76,27.40 -6.23,25.20 -5.71,23.00 -5.45,21.38 -5.19,19.75 -4.96,18.36 -4.73,16.97 -4.53,15.61 -4.32,14.26 -3.88,12.31 -3.44,10.37 -3.04,8.11 -2.65,5.85 -2.48,4.23 -2.32,2.61 -1.90,1.30 -1.49,0 -1.47,-0.17 -1.45,-0.35 -1.38,-0.52 -1.32,-0.69 -1.22,-0.84 -1.11,-0.99 -0.98,-1.11 -0.84,-1.22 -0.68,-1.31 -0.52,-1.39 -0.35,-1.44 -0.18,-1.48 0.00,-1.48 0.18,-1.48 0.35,-1.44 0.52,-1.39 0.68,-1.31 0.84,-1.22 0.98,-1.11 1.11,-0.99 1.22,-0.84 1.32,-0.69 1.38,-0.52 1.45,-0.35 1.47,-0.17 1.49,0.00 1.49,0.00 L 1.49,0 Z"></path></g><g transform="translate(43.95833354228762 153.56975214524937) rotate(0 84.1346705202053 52.80524751506334)" stroke="none"><path fill="#000000" d="M -0.63,-1.26 Q -0.63,-1.26 -0.50,-1.80 -0.37,-2.35 1.02,-2.54 2.42,-2.73 3.76,-2.80 5.11,-2.86 7.47,-2.74 9.83,-2.63 11.22,-2.58 12.60,-2.54 13.69,-2.36 14.77,-2.17 16.02,-1.99 17.26,-1.80 18.67,-1.59 20.07,-1.37 21.84,-1.28 23.60,-1.18 25.09,-1.18 26.58,-1.19 28.52,-1.19 30.47,-1.19 32.17,-1.21 33.87,-1.22 35.46,-1.22 37.05,-1.23 39.16,-1.24 41.27,-1.24 42.62,-1.25 43.98,-1.26 45.28,-1.27 46.58,-1.27 48.94,-1.28 51.31,-1.29 53.52,-1.29 55.72,-1.30 57.13,-1.30 58.55,-1.31 60.16,-1.31 61.78,-1.30 64.04,-1.31 66.31,-1.31 68.02,-1.31 69.74,-1.31 70.90,-1.32 72.06,-1.32 73.42,-1.32 74.79,-1.32 76.73,-1.46 78.68,-1.59 80.03,-1.66 81.38,-1.73 83.33,-1.77 85.29,-1.81 86.48,-1.82 87.67,-1.82 89.33,-1.82 90.98,-1.82 92.14,-1.83 93.29,-1.83 94.92,-1.83 96.55,-1.83 97.85,-1.83 99.14,-1.83 100.42,-1.83 101.70,-1.83 103.40,-1.83 105.11,-1.82 106.27,-1.83 107.43,-1.83 108.92,-1.83 110.41,-1.82 111.64,-1.83 112.88,-1.83 114.41,-1.82 115.95,-1.82 117.45,-1.83 118.95,-1.83 120.12,-1.66 121.29,-1.50 122.70,-1.30 124.12,-1.09 126.62,-0.65 129.11,-0.21 130.69,0.13 132.26,0.48 133.29,1.00 134.32,1.52 135.53,2.13 136.73,2.74 138.13,3.47 139.52,4.20 140.65,5.10 141.78,5.99 142.74,6.89 143.71,7.79 144.61,8.91 145.51,10.02 146.05,11.17 146.59,12.32 146.69,13.57 146.80,14.82 146.81,16.17 146.82,17.52 146.57,18.90 146.32,20.27 145.64,21.52 144.97,22.77 144.18,23.96 143.39,25.14 142.16,26.45 140.93,27.75 139.92,28.97 138.91,30.20 137.67,31.27 136.42,32.34 135.23,33.19 134.03,34.05 132.65,35.11 131.27,36.16 129.84,37.13 128.41,38.10 127.36,38.82 126.31,39.55 124.56,40.84 122.81,42.13 121.46,43.17 120.12,44.22 119.28,45.00 118.44,45.77 116.98,46.81 115.51,47.85 114.06,49.03 112.61,50.20 111.41,51.14 110.22,52.07 109.07,52.98 107.92,53.88 106.70,55.21 105.49,56.55 104.49,57.88 103.49,59.22 102.96,60.18 102.42,61.15 101.88,62.41 101.34,63.68 101.59,64.74 101.84,65.81 101.84,66.94 101.84,68.07 102.65,69.11 103.47,70.15 105.06,70.51 106.66,70.86 108.29,71.14 109.91,71.41 111.34,71.64 112.77,71.87 114.24,71.91 115.70,71.96 116.90,71.95 118.11,71.95 119.56,71.75 121.02,71.56 122.28,71.32 123.55,71.08 124.86,70.71 126.17,70.33 127.58,70.16 128.99,69.99 130.07,69.77 131.14,69.54 132.22,69.30 133.29,69.06 134.61,68.99 135.94,68.92 137.05,68.92 138.17,68.93 139.56,68.92 140.95,68.92 142.41,68.91 143.88,68.91 145.09,69.13 146.30,69.35 147.35,69.60 148.39,69.84 149.44,70.10 150.49,70.37 152.25,71.27 154.01,72.16 154.98,72.93 155.95,73.70 156.90,74.56 157.85,75.42 158.51,76.67 159.18,77.92 159.50,79.03 159.83,80.15 159.90,81.65 159.97,83.16 159.74,84.55 159.50,85.95 158.81,87.21 158.13,88.47 156.78,90.06 155.44,91.65 154.77,92.62 154.10,93.59 153.93,94.79 153.75,96.00 154.68,96.83 155.61,97.66 156.50,98.52 157.40,99.39 158.96,100.41 160.52,101.44 161.73,101.54 162.95,101.65 164.14,101.91 165.32,102.17 167.13,102.47 168.94,102.77 170.35,104.00 171.76,105.22 171.86,105.41 171.96,105.59 172.00,105.80 172.03,106.01 172.00,106.22 171.97,106.43 171.87,106.62 171.77,106.81 171.62,106.95 171.46,107.10 171.27,107.19 171.08,107.28 170.87,107.31 170.65,107.33 170.45,107.29 170.24,107.24 170.06,107.13 169.87,107.02 169.74,106.86 169.60,106.70 169.52,106.50 169.44,106.31 169.43,106.09 169.41,105.88 169.47,105.68 169.53,105.47 169.64,105.30 169.76,105.12 169.93,104.99 170.10,104.86 170.30,104.79 170.50,104.72 170.71,104.72 170.93,104.72 171.13,104.79 171.33,104.86 171.50,104.98 171.67,105.11 171.79,105.29 171.91,105.46 171.97,105.67 172.02,105.87 172.01,106.08 172.00,106.29 171.93,106.49 171.85,106.69 171.71,106.85 171.57,107.02 171.39,107.13 171.21,107.24 171.00,107.28 170.80,107.33 170.59,107.31 170.37,107.29 170.18,107.20 169.99,107.11 169.83,106.96 169.68,106.82 169.68,106.82 169.68,106.82 168.34,107.37 167.00,107.92 165.77,107.87 164.54,107.81 163.44,107.56 162.34,107.32 161.17,107.04 160.00,106.77 158.51,106.10 157.01,105.44 155.95,104.95 154.89,104.47 153.93,103.73 152.96,102.99 151.75,101.88 150.54,100.78 149.87,99.68 149.21,98.58 148.74,97.06 148.27,95.55 148.35,94.44 148.44,93.32 148.93,91.86 149.43,90.40 150.48,88.99 151.53,87.59 152.39,86.56 153.24,85.53 153.76,84.39 154.28,83.26 154.25,82.18 154.22,81.10 153.83,79.94 153.44,78.78 152.17,77.84 150.90,76.90 149.63,76.31 148.35,75.72 147.27,75.45 146.18,75.18 145.03,74.89 143.88,74.59 142.42,74.59 140.95,74.58 139.56,74.58 138.18,74.58 137.12,74.58 136.05,74.59 134.79,74.67 133.53,74.75 132.30,74.97 131.06,75.18 129.87,75.43 128.68,75.68 127.26,75.90 125.83,76.12 124.60,76.45 123.38,76.77 121.87,77.03 120.37,77.28 119.24,77.44 118.11,77.61 116.88,77.60 115.66,77.59 114.12,77.53 112.58,77.47 111.08,77.21 109.58,76.96 108.42,76.73 107.26,76.50 105.79,76.20 104.32,75.89 102.97,75.53 101.62,75.18 100.35,74.26 99.07,73.34 97.97,72.26 96.88,71.18 96.56,69.62 96.23,68.06 96.24,66.93 96.24,65.79 96.27,64.37 96.30,62.94 96.68,61.90 97.05,60.85 97.28,59.70 97.50,58.56 98.18,57.34 98.87,56.12 99.77,54.83 100.68,53.54 101.67,52.51 102.66,51.47 103.60,50.48 104.53,49.49 105.75,48.54 106.96,47.58 108.08,46.72 109.20,45.85 110.73,44.61 112.25,43.37 113.48,42.52 114.71,41.66 115.72,40.74 116.74,39.82 118.12,38.74 119.49,37.66 120.45,36.95 121.40,36.24 122.29,35.60 123.18,34.95 124.38,34.11 125.57,33.28 126.73,32.49 127.88,31.70 129.34,30.58 130.81,29.46 131.70,28.84 132.60,28.23 133.68,27.31 134.75,26.40 135.82,25.11 136.88,23.82 138.25,22.44 139.62,21.06 140.41,19.73 141.21,18.41 141.20,17.19 141.19,15.98 141.29,14.90 141.40,13.82 140.45,12.68 139.50,11.54 138.50,10.63 137.50,9.71 136.49,9.12 135.49,8.53 134.37,7.86 133.25,7.19 132.08,6.59 130.92,5.98 129.33,5.64 127.73,5.30 126.64,5.01 125.55,4.71 124.43,4.62 123.30,4.52 121.12,4.19 118.94,3.85 117.44,3.85 115.95,3.84 114.41,3.85 112.88,3.85 111.64,3.85 110.41,3.85 108.92,3.85 107.43,3.85 106.27,3.85 105.11,3.85 103.40,3.85 101.70,3.85 100.42,3.85 99.14,3.85 97.85,3.85 96.55,3.85 94.92,3.85 93.29,3.85 92.14,3.85 90.99,3.85 89.34,3.85 87.70,3.86 86.52,3.86 85.35,3.86 83.50,3.90 81.66,3.94 80.50,3.99 79.34,4.04 77.06,4.20 74.79,4.35 73.42,4.35 72.06,4.35 70.90,4.35 69.74,4.34 68.02,4.34 66.31,4.34 64.04,4.34 61.78,4.33 60.16,4.34 58.55,4.34 57.13,4.33 55.72,4.33 53.52,4.33 51.31,4.33 48.94,4.31 46.58,4.30 45.28,4.30 43.97,4.30 42.62,4.29 41.26,4.27 39.16,4.26 37.05,4.26 35.45,4.25 33.86,4.24 32.15,4.22 30.45,4.20 28.48,4.18 26.52,4.16 24.96,4.12 23.41,4.09 21.31,3.89 19.22,3.70 17.81,3.44 16.40,3.18 14.40,2.77 12.39,2.37 10.87,2.29 9.34,2.21 7.27,2.07 5.20,1.93 3.37,1.85 1.53,1.77 1.08,1.51 0.63,1.26 0.47,1.32 0.31,1.37 0.14,1.39 -0.02,1.41 -0.19,1.38 -0.36,1.36 -0.52,1.30 -0.68,1.23 -0.81,1.13 -0.95,1.03 -1.06,0.90 -1.17,0.77 -1.25,0.62 -1.33,0.47 -1.36,0.30 -1.40,0.14 -1.40,-0.02 -1.39,-0.19 -1.35,-0.36 -1.31,-0.52 -1.22,-0.67 -1.14,-0.82 -1.03,-0.95 -0.91,-1.07 -0.77,-1.17 -0.63,-1.26 -0.63,-1.26 L -0.63,-1.26 Z"></path></g><g transform="translate(342.9634738723298 71.92312700254615) rotate(0 30.806071001779742 2.933905128559445)" stroke="none"><path fill="#000000" d="M -1.07,-1.19 Q -1.07,-1.19 -0.10,-2.53 0.86,-3.88 2.08,-5.13 3.31,-6.38 4.45,-7.84 5.58,-9.30 6.32,-10.11 7.05,-10.93 7.74,-11.88 8.44,-12.83 9.42,-14.09 10.40,-15.35 11.36,-16.38 12.32,-17.42 13.11,-18.56 13.90,-19.69 14.76,-20.77 15.63,-21.84 16.55,-23.01 17.48,-24.18 18.39,-24.86 19.30,-25.55 20.18,-26.17 21.06,-26.78 22.50,-26.82 23.93,-26.85 25.07,-26.66 26.20,-26.46 27.45,-26.26 28.70,-26.05 30.26,-25.67 31.83,-25.28 33.07,-24.86 34.31,-24.43 36.00,-23.99 37.69,-23.55 39.02,-22.87 40.35,-22.20 41.36,-21.80 42.36,-21.41 43.44,-20.75 44.53,-20.10 45.68,-19.32 46.83,-18.54 47.75,-17.99 48.68,-17.44 49.67,-16.71 50.66,-15.98 51.69,-15.15 52.72,-14.32 53.75,-13.17 54.78,-12.01 56.16,-10.82 57.54,-9.63 58.76,-8.43 59.99,-7.22 60.73,-6.40 61.46,-5.58 62.46,-4.31 63.45,-3.03 63.78,-1.83 64.11,-0.63 64.35,0.72 64.58,2.08 64.06,3.59 63.53,5.10 62.90,6.00 62.27,6.90 61.51,7.99 60.74,9.08 59.91,10.21 59.08,11.33 58.15,12.36 57.21,13.39 56.35,14.55 55.49,15.70 54.53,16.98 53.57,18.26 52.76,19.30 51.96,20.33 51.07,21.28 50.18,22.23 49.51,23.20 48.84,24.18 48.15,25.15 47.45,26.13 46.81,27.00 46.17,27.87 45.29,28.58 44.40,29.30 43.19,30.34 41.97,31.39 40.21,31.35 38.45,31.30 38.24,31.34 38.03,31.38 37.82,31.35 37.61,31.32 37.42,31.23 37.23,31.13 37.08,30.98 36.93,30.83 36.84,30.64 36.74,30.45 36.71,30.24 36.69,30.03 36.73,29.82 36.77,29.61 36.87,29.43 36.98,29.24 37.14,29.10 37.30,28.96 37.49,28.88 37.69,28.79 37.90,28.78 38.11,28.76 38.32,28.81 38.52,28.87 38.70,28.98 38.88,29.10 39.01,29.26 39.15,29.43 39.22,29.63 39.29,29.83 39.30,30.04 39.30,30.25 39.24,30.46 39.17,30.66 39.05,30.83 38.92,31.00 38.75,31.13 38.58,31.25 38.37,31.31 38.17,31.37 37.96,31.37 37.75,31.36 37.55,31.28 37.35,31.21 37.18,31.08 37.02,30.94 36.90,30.76 36.79,30.58 36.74,30.38 36.69,30.17 36.71,29.96 36.73,29.75 36.81,29.55 36.90,29.36 37.04,29.20 37.18,29.04 37.37,28.94 37.55,28.83 37.55,28.84 37.55,28.84 38.74,26.97 39.93,25.11 40.81,24.15 41.69,23.19 42.65,21.80 43.61,20.41 44.56,19.11 45.52,17.82 46.29,17.03 47.07,16.24 47.86,15.26 48.65,14.28 49.46,13.22 50.27,12.17 51.10,11.18 51.92,10.18 53.07,8.85 54.22,7.52 54.93,6.61 55.64,5.70 56.63,4.45 57.63,3.20 58.35,2.19 59.08,1.18 58.45,-0.03 57.81,-1.25 57.04,-1.98 56.26,-2.72 55.12,-3.84 53.98,-4.96 53.00,-5.75 52.03,-6.55 51.04,-7.42 50.05,-8.30 49.30,-9.14 48.54,-9.98 47.29,-11.01 46.04,-12.04 45.02,-12.65 44.00,-13.27 42.73,-14.12 41.47,-14.96 40.54,-15.50 39.60,-16.03 38.43,-16.68 37.26,-17.34 35.59,-17.95 33.92,-18.55 32.10,-19.06 30.27,-19.57 29.06,-19.90 27.85,-20.23 26.74,-20.44 25.63,-20.64 24.00,-21.08 22.37,-21.52 21.46,-20.39 20.55,-19.26 19.90,-18.40 19.25,-17.55 18.51,-16.75 17.78,-15.95 16.73,-14.70 15.67,-13.44 14.73,-12.30 13.78,-11.15 12.88,-10.06 11.97,-8.97 10.95,-7.70 9.93,-6.44 9.18,-5.61 8.43,-4.79 7.04,-3.49 5.66,-2.20 4.81,-1.32 3.95,-0.45 2.51,0.36 1.07,1.19 0.91,1.30 0.75,1.41 0.57,1.48 0.39,1.55 0.20,1.57 0.01,1.60 -0.17,1.58 -0.37,1.55 -0.55,1.49 -0.73,1.42 -0.89,1.31 -1.05,1.20 -1.18,1.06 -1.31,0.92 -1.40,0.75 -1.49,0.58 -1.54,0.39 -1.59,0.20 -1.59,0.01 -1.59,-0.18 -1.54,-0.36 -1.50,-0.55 -1.41,-0.72 -1.32,-0.90 -1.19,-1.04 -1.07,-1.19 -1.07,-1.19 L -1.07,-1.19 Z"></path></g><g transform="translate(235.70351342315553 207.028640661983) rotate(0 47.285344801121596 -52.8954818814143)" stroke="none"><path fill="#000000" d="M -1.45,-0.72 Q -1.45,-0.72 -1.09,-1.98 -0.73,-3.25 0.03,-4.42 0.80,-5.60 2.01,-7.32 3.21,-9.05 3.94,-10.20 4.67,-11.34 5.82,-12.90 6.97,-14.46 7.68,-15.47 8.39,-16.49 9.89,-18.36 11.39,-20.24 12.64,-21.53 13.89,-22.83 14.70,-23.55 15.52,-24.27 16.34,-25.16 17.15,-26.05 17.96,-27.00 18.78,-27.96 19.83,-29.19 20.88,-30.42 22.52,-32.45 24.17,-34.48 25.67,-36.10 27.17,-37.72 28.14,-38.71 29.12,-39.70 30.16,-40.63 31.19,-41.55 32.66,-42.84 34.13,-44.12 35.22,-45.04 36.31,-45.95 37.65,-47.20 38.99,-48.44 39.96,-49.27 40.93,-50.11 42.27,-51.55 43.62,-52.99 44.43,-53.92 45.23,-54.85 46.64,-56.45 48.05,-58.06 48.98,-59.15 49.90,-60.24 51.02,-61.44 52.14,-62.64 53.77,-64.48 55.40,-66.33 56.67,-67.62 57.94,-68.91 59.54,-70.69 61.14,-72.48 62.26,-73.61 63.37,-74.75 64.14,-75.64 64.91,-76.53 65.95,-77.73 66.98,-78.94 67.79,-79.82 68.60,-80.70 69.66,-81.97 70.73,-83.24 71.43,-84.19 72.13,-85.13 73.69,-87.08 75.25,-89.04 76.02,-89.83 76.80,-90.62 77.79,-91.61 78.78,-92.60 80.23,-94.05 81.69,-95.51 82.49,-96.43 83.30,-97.35 84.15,-98.24 85.00,-99.14 86.14,-100.31 87.27,-101.48 88.52,-102.72 89.76,-103.97 91.60,-105.24 93.43,-106.51 93.61,-106.64 93.78,-106.76 93.98,-106.82 94.19,-106.88 94.40,-106.88 94.61,-106.87 94.81,-106.80 95.01,-106.73 95.17,-106.59 95.34,-106.46 95.45,-106.28 95.57,-106.10 95.62,-105.90 95.67,-105.69 95.65,-105.48 95.64,-105.27 95.55,-105.07 95.47,-104.88 95.33,-104.72 95.19,-104.56 95.00,-104.46 94.82,-104.35 94.61,-104.31 94.40,-104.27 94.19,-104.30 93.98,-104.33 93.79,-104.42 93.60,-104.52 93.45,-104.67 93.30,-104.82 93.20,-105.01 93.11,-105.20 93.08,-105.41 93.05,-105.62 93.09,-105.83 93.13,-106.04 93.23,-106.22 93.34,-106.41 93.50,-106.55 93.66,-106.69 93.85,-106.77 94.05,-106.86 94.26,-106.88 94.47,-106.89 94.68,-106.84 94.88,-106.79 95.06,-106.68 95.24,-106.56 95.37,-106.40 95.51,-106.23 95.58,-106.03 95.65,-105.83 95.66,-105.62 95.66,-105.41 95.60,-105.20 95.54,-105.00 95.42,-104.83 95.29,-104.65 95.29,-104.65 95.29,-104.65 94.02,-102.82 92.75,-100.98 91.52,-99.74 90.29,-98.50 89.19,-97.37 88.08,-96.23 87.28,-95.38 86.49,-94.54 85.59,-93.52 84.69,-92.51 83.24,-91.05 81.78,-89.60 80.17,-87.99 78.56,-86.39 77.04,-84.49 75.52,-82.60 74.34,-81.09 73.15,-79.58 72.44,-78.71 71.72,-77.84 70.96,-77.01 70.19,-76.18 69.15,-74.97 68.11,-73.76 67.26,-72.77 66.40,-71.79 65.31,-70.67 64.22,-69.56 63.30,-68.59 62.37,-67.62 61.67,-66.78 60.97,-65.95 59.73,-64.68 58.49,-63.41 56.86,-61.58 55.24,-59.75 54.19,-58.63 53.14,-57.51 52.21,-56.40 51.28,-55.29 49.85,-53.68 48.43,-52.07 47.54,-51.05 46.66,-50.03 45.17,-48.47 43.69,-46.91 42.81,-46.15 41.92,-45.39 40.48,-44.05 39.03,-42.72 37.95,-41.81 36.88,-40.91 35.44,-39.65 34.00,-38.39 33.07,-37.56 32.13,-36.73 31.17,-35.76 30.22,-34.79 28.82,-33.28 27.42,-31.77 26.47,-30.62 25.51,-29.47 24.81,-28.56 24.10,-27.66 23.05,-26.44 22.00,-25.21 21.13,-24.19 20.26,-23.17 18.60,-21.53 16.94,-19.89 15.74,-18.64 14.53,-17.39 13.19,-15.72 11.86,-14.06 11.09,-12.97 10.33,-11.88 9.28,-10.48 8.24,-9.07 7.40,-7.77 6.57,-6.47 5.45,-4.87 4.32,-3.26 3.68,-2.31 3.04,-1.35 2.24,-0.31 1.45,0.72 1.34,0.88 1.23,1.05 1.09,1.18 0.94,1.31 0.77,1.41 0.60,1.50 0.41,1.55 0.22,1.60 0.03,1.60 -0.16,1.61 -0.35,1.57 -0.54,1.52 -0.71,1.43 -0.89,1.35 -1.04,1.22 -1.19,1.09 -1.30,0.94 -1.42,0.78 -1.49,0.60 -1.56,0.41 -1.59,0.22 -1.62,0.03 -1.60,-0.16 -1.58,-0.35 -1.51,-0.54 -1.45,-0.72 -1.45,-0.72 L -1.45,-0.72 Z"></path></g><g transform="translate(250.93098708214893 220.2525099858576) rotate(0 48.88825028160545 -51.69330735696576)" stroke="none"><path fill="#000000" d="M -1.11,-0.74 Q -1.11,-0.74 -0.53,-2.35 0.05,-3.95 1.05,-5.29 2.05,-6.62 3.27,-8.16 4.50,-9.70 5.72,-11.04 6.94,-12.37 7.96,-13.58 8.99,-14.80 9.76,-15.61 10.54,-16.42 11.32,-17.21 12.11,-18.01 13.80,-19.76 15.50,-21.52 17.26,-23.19 19.03,-24.85 20.53,-26.12 22.02,-27.39 23.02,-28.45 24.02,-29.51 25.11,-30.51 26.20,-31.51 27.15,-32.54 28.10,-33.57 29.31,-34.93 30.51,-36.30 31.66,-37.50 32.80,-38.71 33.99,-39.93 35.18,-41.15 35.91,-41.93 36.65,-42.70 37.54,-43.87 38.43,-45.04 39.25,-45.93 40.08,-46.83 40.95,-47.83 41.83,-48.84 43.41,-50.56 45.00,-52.29 46.58,-53.83 48.15,-55.38 49.73,-57.12 51.31,-58.86 52.52,-60.21 53.73,-61.56 54.64,-62.53 55.55,-63.50 56.82,-64.96 58.08,-66.42 59.08,-67.56 60.08,-68.71 61.47,-70.16 62.87,-71.61 64.14,-72.91 65.42,-74.21 66.59,-75.62 67.76,-77.02 69.12,-78.65 70.48,-80.27 71.42,-81.28 72.35,-82.28 73.50,-83.64 74.66,-85.00 75.40,-85.94 76.14,-86.88 77.65,-88.31 79.16,-89.74 79.99,-90.63 80.82,-91.51 82.07,-92.66 83.32,-93.80 84.47,-94.59 85.61,-95.38 86.55,-96.31 87.48,-97.23 88.57,-98.14 89.66,-99.05 90.67,-100.04 91.69,-101.02 92.57,-101.86 93.46,-102.69 94.81,-102.77 96.17,-102.85 96.13,-103.06 96.09,-103.27 96.12,-103.48 96.15,-103.69 96.25,-103.88 96.34,-104.07 96.49,-104.22 96.65,-104.37 96.84,-104.46 97.03,-104.55 97.24,-104.58 97.45,-104.60 97.66,-104.56 97.87,-104.52 98.05,-104.41 98.23,-104.31 98.38,-104.15 98.52,-103.99 98.60,-103.79 98.68,-103.60 98.70,-103.39 98.71,-103.17 98.66,-102.97 98.60,-102.76 98.49,-102.58 98.37,-102.41 98.21,-102.27 98.04,-102.14 97.84,-102.07 97.64,-102.00 97.43,-102.00 97.21,-101.99 97.01,-102.06 96.81,-102.12 96.64,-102.25 96.47,-102.37 96.34,-102.55 96.22,-102.72 96.16,-102.92 96.10,-103.13 96.11,-103.34 96.12,-103.55 96.19,-103.75 96.27,-103.95 96.40,-104.11 96.53,-104.28 96.71,-104.39 96.89,-104.50 97.10,-104.55 97.31,-104.60 97.52,-104.58 97.73,-104.56 97.93,-104.48 98.12,-104.39 98.28,-104.25 98.43,-104.11 98.54,-103.92 98.64,-103.73 98.64,-103.73 98.64,-103.73 97.38,-101.32 96.11,-98.92 95.14,-98.09 94.17,-97.27 93.28,-96.33 92.40,-95.40 91.28,-94.46 90.15,-93.53 89.31,-92.67 88.46,-91.82 87.45,-91.15 86.44,-90.48 85.37,-89.52 84.31,-88.56 83.22,-87.42 82.13,-86.28 80.84,-85.07 79.55,-83.86 78.79,-82.89 78.03,-81.93 76.86,-80.55 75.69,-79.18 74.85,-78.28 74.01,-77.37 72.63,-75.74 71.25,-74.10 69.96,-72.56 68.67,-71.02 67.41,-69.74 66.15,-68.46 64.83,-67.07 63.51,-65.69 62.46,-64.51 61.42,-63.32 60.14,-61.85 58.87,-60.38 58.03,-59.50 57.20,-58.62 55.90,-57.17 54.59,-55.72 52.97,-53.94 51.35,-52.16 49.75,-50.58 48.15,-49.00 46.71,-47.43 45.26,-45.86 43.63,-44.05 42.00,-42.23 41.13,-41.24 40.26,-40.24 39.33,-39.12 38.39,-38.00 37.23,-36.80 36.06,-35.60 35.01,-34.50 33.95,-33.39 32.67,-31.95 31.39,-30.51 30.31,-29.35 29.22,-28.20 28.24,-27.31 27.25,-26.42 26.07,-25.20 24.89,-23.98 23.37,-22.69 21.86,-21.41 20.20,-19.86 18.54,-18.31 16.89,-16.62 15.24,-14.92 14.47,-14.14 13.70,-13.36 12.60,-12.20 11.50,-11.05 10.79,-10.20 10.08,-9.36 8.98,-8.17 7.89,-6.99 6.70,-5.50 5.50,-4.01 4.56,-2.79 3.63,-1.57 2.37,-0.41 1.11,0.74 1.01,0.86 0.90,0.99 0.77,1.08 0.64,1.17 0.49,1.23 0.34,1.29 0.18,1.32 0.02,1.34 -0.13,1.32 -0.30,1.30 -0.45,1.25 -0.60,1.19 -0.73,1.10 -0.87,1.01 -0.98,0.90 -1.09,0.78 -1.17,0.63 -1.24,0.49 -1.28,0.33 -1.33,0.18 -1.33,0.02 -1.33,-0.14 -1.29,-0.29 -1.26,-0.45 -1.19,-0.60 -1.11,-0.74 -1.11,-0.74 L -1.11,-0.74 Z"></path></g><g transform="translate(222.0789085573308 241.4908333375215) rotate(0 4.407944212186749 4.007236185723286)" stroke="none"><path fill="#000000" d="M 0.73,1.10 Q 0.73,1.10 0.62,1.46 0.51,1.81 0.41,2.03 0.30,2.24 0.09,2.34 -0.10,2.45 -0.33,2.50 -0.55,2.55 -0.78,2.55 -1.01,2.54 -1.23,2.48 -1.46,2.43 -1.66,2.32 -1.86,2.21 -2.03,2.05 -2.20,1.89 -2.33,1.70 -2.45,1.51 -2.53,1.30 -2.61,1.08 -2.63,0.85 -2.66,0.62 -2.63,0.39 -2.60,0.16 -2.51,-0.04 -2.43,-0.25 -2.29,-0.44 -2.16,-0.63 -1.98,-0.78 -1.81,-0.93 -0.51,-1.09 0.78,-1.25 2.05,-0.93 3.31,-0.61 4.41,-0.20 5.52,0.20 6.61,0.89 7.70,1.57 8.59,2.22 9.48,2.87 10.19,3.75 10.90,4.63 10.74,6.05 10.58,7.46 10.62,7.62 10.67,7.77 10.67,7.93 10.68,8.08 10.65,8.24 10.62,8.39 10.55,8.54 10.48,8.68 10.39,8.80 10.29,8.93 10.16,9.02 10.03,9.12 9.89,9.18 9.74,9.24 9.59,9.27 9.43,9.30 9.27,9.28 9.11,9.27 8.96,9.22 8.81,9.17 8.68,9.09 8.55,9.01 8.44,8.89 8.33,8.78 8.25,8.64 8.17,8.51 8.66,8.89 9.15,9.28 8.95,9.21 8.75,9.14 8.58,9.01 8.41,8.88 8.29,8.70 8.17,8.53 8.12,8.32 8.06,8.11 8.08,7.90 8.09,7.69 8.17,7.49 8.25,7.30 8.39,7.14 8.53,6.98 8.71,6.87 8.90,6.76 9.10,6.72 9.31,6.67 9.52,6.70 9.73,6.72 9.93,6.81 10.12,6.90 10.27,7.05 10.42,7.20 10.52,7.39 10.62,7.58 10.65,7.79 10.68,8.00 10.65,8.21 10.61,8.42 10.51,8.60 10.41,8.79 10.25,8.93 10.10,9.08 9.90,9.17 9.71,9.25 9.50,9.27 9.29,9.30 9.08,9.25 8.87,9.20 8.69,9.09 8.51,8.98 8.38,8.81 8.24,8.65 8.16,8.45 8.09,8.26 8.08,8.04 8.07,7.83 8.13,7.63 8.18,7.42 8.31,7.25 8.43,7.07 8.60,6.95 8.77,6.82 8.97,6.75 9.17,6.69 9.87,7.08 10.58,7.46 10.62,7.62 10.67,7.77 10.67,7.93 10.68,8.08 10.65,8.24 10.62,8.39 10.55,8.54 10.48,8.68 10.39,8.80 10.29,8.93 10.16,9.02 10.03,9.12 9.89,9.18 9.74,9.24 9.59,9.27 9.43,9.30 9.27,9.28 9.11,9.27 8.96,9.22 8.81,9.17 8.68,9.09 8.55,9.01 8.44,8.89 8.33,8.78 8.25,8.64 8.17,8.51 7.41,7.32 6.65,6.13 5.75,5.47 4.85,4.80 3.69,4.24 2.52,3.67 1.41,2.95 0.30,2.24 0.09,2.34 -0.10,2.45 -0.33,2.50 -0.55,2.55 -0.78,2.55 -1.01,2.54 -1.23,2.48 -1.46,2.43 -1.66,2.32 -1.86,2.21 -2.03,2.05 -2.20,1.89 -2.33,1.70 -2.45,1.51 -2.53,1.30 -2.61,1.08 -2.63,0.85 -2.66,0.62 -2.63,0.39 -2.60,0.16 -2.51,-0.04 -2.43,-0.25 -2.29,-0.44 -2.16,-0.63 -1.98,-0.78 -1.81,-0.93 -1.85,-0.91 -1.89,-0.89 -1.31,-1.00 -0.73,-1.10 -0.59,-1.18 -0.45,-1.25 -0.29,-1.28 -0.13,-1.32 0.02,-1.32 0.18,-1.31 0.33,-1.27 0.49,-1.23 0.63,-1.16 0.77,-1.08 0.89,-0.97 1.01,-0.86 1.10,-0.73 1.18,-0.59 1.24,-0.44 1.29,-0.29 1.31,-0.13 1.33,0.02 1.30,0.18 1.28,0.33 1.22,0.48 1.16,0.63 1.07,0.76 0.98,0.89 0.86,1.00 0.73,1.10 0.73,1.10 L 0.73,1.10 Z"></path></g><g transform="translate(221.67817301538116 243.8951732145897) rotate(0 -0.8014343965843409 6.211217463645312)" stroke="none"><path fill="#000000" d="M 1.58,0.15 Q 1.58,0.15 1.64,1.32 1.71,2.49 1.56,3.71 1.41,4.94 1.19,6.55 0.97,8.17 0.34,10.26 -0.27,12.35 -0.33,12.56 -0.38,12.77 -0.49,12.95 -0.61,13.12 -0.77,13.26 -0.94,13.39 -1.14,13.46 -1.34,13.54 -1.55,13.54 -1.76,13.55 -1.97,13.48 -2.17,13.42 -2.34,13.30 -2.51,13.17 -2.64,13.00 -2.76,12.83 -2.82,12.62 -2.89,12.42 -2.88,12.21 -2.87,12.00 -2.80,11.80 -2.73,11.60 -2.59,11.43 -2.46,11.27 -2.28,11.15 -2.10,11.04 -1.89,10.99 -1.69,10.94 -1.48,10.95 -1.26,10.97 -1.07,11.06 -0.87,11.14 -0.72,11.28 -0.56,11.42 -0.45,11.61 -0.35,11.79 -0.31,12.00 -0.27,12.21 -0.30,12.42 -0.33,12.63 -0.42,12.82 -0.52,13.01 -0.67,13.16 -0.82,13.31 -1.01,13.41 -1.20,13.50 -1.41,13.53 -1.62,13.56 -1.83,13.52 -2.04,13.48 -2.22,13.37 -2.41,13.27 -2.55,13.11 -2.69,12.95 -2.78,12.75 -2.86,12.56 -2.88,12.35 -2.89,12.14 -2.89,12.14 -2.89,12.14 -2.92,9.62 -2.95,7.10 -2.74,5.74 -2.53,4.39 -2.35,3.25 -2.17,2.10 -1.88,0.97 -1.58,-0.15 -1.53,-0.34 -1.49,-0.53 -1.41,-0.70 -1.32,-0.87 -1.20,-1.02 -1.07,-1.16 -0.92,-1.27 -0.76,-1.39 -0.59,-1.46 -0.41,-1.53 -0.22,-1.56 -0.03,-1.58 0.15,-1.56 0.34,-1.55 0.52,-1.48 0.70,-1.42 0.86,-1.31 1.02,-1.21 1.15,-1.07 1.28,-0.93 1.38,-0.76 1.47,-0.59 1.52,-0.40 1.57,-0.22 1.57,-0.03 1.58,0.15 1.58,0.15 L 1.58,0.15 Z"></path></g><g transform="translate(224.08251289244936 249.50530570896808) rotate(0 1.4025377095089198 -0.4007263701209922)" stroke="none"><path fill="#000000" d="M 1.48,-0.24 Q 1.48,-0.24 1.76,0.39 2.05,1.04 2.21,1.35 2.37,1.66 2.38,1.88 2.39,2.11 2.35,2.32 2.30,2.54 2.21,2.74 2.12,2.94 1.98,3.12 1.84,3.29 1.66,3.42 1.48,3.56 1.28,3.65 1.07,3.73 0.85,3.77 0.64,3.81 0.41,3.79 0.19,3.77 -0.01,3.70 -0.22,3.63 -0.41,3.52 -0.60,3.40 -0.75,3.24 -0.91,3.08 -1.02,2.89 -1.13,2.69 -1.19,2.48 -1.25,2.27 -0.78,1.11 -0.31,-0.04 0.11,-1.04 0.54,-2.05 1.82,-2.01 3.10,-1.97 2.68,-0.90 2.26,0.17 1.79,0.66 1.32,1.15 1.29,1.30 1.26,1.46 1.19,1.60 1.12,1.74 1.02,1.86 0.92,1.99 0.79,2.08 0.67,2.18 0.52,2.24 0.37,2.30 0.22,2.33 0.06,2.35 -0.09,2.34 -0.24,2.33 -0.39,2.28 -0.54,2.23 -0.68,2.14 -0.81,2.06 -0.92,1.94 -1.03,1.83 -1.11,1.69 -1.19,1.55 -1.23,1.40 -1.28,1.25 -1.28,1.09 -1.29,0.93 -1.26,0.78 -1.23,0.64 -1.13,0.45 -1.04,0.26 -0.88,0.11 -0.73,-0.03 -0.54,-0.12 -0.35,-0.21 -0.14,-0.24 0.06,-0.26 0.27,-0.22 0.48,-0.18 0.66,-0.07 0.85,0.03 0.99,0.19 1.13,0.35 1.21,0.54 1.29,0.74 1.30,0.95 1.32,1.16 1.26,1.37 1.21,1.57 1.09,1.75 0.98,1.93 0.81,2.06 0.64,2.19 0.44,2.26 0.24,2.33 0.03,2.33 -0.17,2.34 -0.38,2.27 -0.58,2.21 -0.75,2.08 -0.92,1.96 -1.04,1.78 -1.16,1.61 -1.22,1.40 -1.28,1.20 -1.28,0.99 -1.27,0.77 -1.19,0.58 -1.11,0.38 -0.98,0.21 -0.84,0.05 -0.66,-0.05 -0.48,-0.16 -0.28,-0.21 -0.07,-0.26 0.13,-0.24 0.34,-0.22 0.54,-0.13 0.73,-0.05 0.89,0.09 1.04,0.23 1.15,0.42 1.25,0.60 1.29,0.81 1.32,1.02 1.32,1.08 1.32,1.14 1.29,1.30 1.26,1.46 1.19,1.60 1.12,1.74 1.02,1.86 0.92,1.99 0.79,2.08 0.67,2.18 0.52,2.24 0.37,2.30 0.22,2.33 0.06,2.35 -0.09,2.34 -0.24,2.33 -0.39,2.28 -0.54,2.23 -0.68,2.14 -0.81,2.06 -0.92,1.94 -1.03,1.83 -1.11,1.69 -1.19,1.55 -1.23,1.40 -1.28,1.25 -1.28,1.09 -1.29,0.93 -1.31,0.70 -1.33,0.46 -1.13,-0.61 -0.92,-1.69 -0.24,-2.88 0.44,-4.07 1.71,-4.50 2.99,-4.93 3.74,-3.82 4.50,-2.71 4.17,-1.53 3.85,-0.34 3.11,0.66 2.37,1.66 2.38,1.88 2.39,2.11 2.35,2.32 2.30,2.54 2.21,2.74 2.12,2.94 1.98,3.12 1.84,3.29 1.66,3.42 1.48,3.56 1.28,3.65 1.07,3.73 0.85,3.77 0.64,3.81 0.41,3.79 0.19,3.77 -0.01,3.70 -0.22,3.63 -0.41,3.52 -0.60,3.40 -0.75,3.24 -0.91,3.08 -1.02,2.89 -1.13,2.69 -1.19,2.48 -1.25,2.27 -1.42,1.99 -1.59,1.72 -1.53,0.98 -1.48,0.24 -1.48,0.06 -1.49,-0.11 -1.46,-0.29 -1.42,-0.46 -1.34,-0.63 -1.27,-0.79 -1.15,-0.93 -1.04,-1.07 -0.90,-1.18 -0.75,-1.29 -0.58,-1.36 -0.42,-1.44 -0.24,-1.47 -0.06,-1.50 0.11,-1.48 0.29,-1.47 0.46,-1.41 0.63,-1.35 0.79,-1.26 0.94,-1.16 1.07,-1.03 1.19,-0.90 1.28,-0.75 1.37,-0.59 1.43,-0.42 1.48,-0.24 1.48,-0.24 L 1.48,-0.24 Z"></path></g><g transform="translate(224.483248434399 247.10096583189988) rotate(0 -1.202169938534098 3.205783445481302)" stroke="none"><path fill="#000000" d="M 1.50,0.60 Q 1.50,0.60 1.21,1.82 0.93,3.04 -0.08,4.82 -1.09,6.60 -1.18,6.79 -1.27,6.98 -1.41,7.14 -1.56,7.29 -1.75,7.39 -1.94,7.49 -2.15,7.52 -2.36,7.56 -2.56,7.52 -2.77,7.49 -2.96,7.39 -3.15,7.29 -3.30,7.13 -3.44,6.98 -3.53,6.79 -3.62,6.59 -3.64,6.38 -3.66,6.17 -3.62,5.96 -3.57,5.75 -3.46,5.57 -3.35,5.39 -3.19,5.25 -3.03,5.12 -2.83,5.04 -2.63,4.96 -2.42,4.95 -2.21,4.94 -2.01,4.99 -1.80,5.05 -1.62,5.17 -1.45,5.29 -1.32,5.46 -1.19,5.63 -1.12,5.83 -1.06,6.03 -1.06,6.24 -1.06,6.46 -1.13,6.66 -1.19,6.86 -1.32,7.03 -1.45,7.20 -1.63,7.32 -1.80,7.44 -2.01,7.49 -2.21,7.55 -2.43,7.54 -2.64,7.52 -2.84,7.45 -3.03,7.37 -3.19,7.23 -3.36,7.09 -3.47,6.91 -3.57,6.73 -3.62,6.52 -3.67,6.31 -3.64,6.10 -3.62,5.89 -3.62,5.89 -3.62,5.89 -3.19,3.72 -2.77,1.56 -2.13,0.48 -1.50,-0.60 -1.40,-0.77 -1.31,-0.94 -1.18,-1.08 -1.05,-1.23 -0.88,-1.33 -0.72,-1.44 -0.54,-1.51 -0.35,-1.57 -0.16,-1.59 0.02,-1.61 0.22,-1.59 0.41,-1.56 0.59,-1.49 0.77,-1.41 0.93,-1.30 1.09,-1.19 1.22,-1.04 1.34,-0.89 1.43,-0.72 1.52,-0.54 1.56,-0.35 1.60,-0.16 1.60,0.02 1.60,0.22 1.55,0.41 1.50,0.60 1.50,0.60 L 1.50,0.60 Z"></path></g><g transform="translate(223.2810784958649 252.71109832627826) rotate(0 3.606509815602294 -2.8050662471890746)" stroke="none"><path fill="#000000" d="M -0.93,-1.20 Q -0.93,-1.20 -0.01,-2.16 0.90,-3.11 3.79,-4.96 6.68,-6.81 6.89,-6.85 7.10,-6.88 7.31,-6.84 7.51,-6.80 7.70,-6.70 7.89,-6.60 8.03,-6.44 8.18,-6.29 8.26,-6.09 8.35,-5.90 8.37,-5.69 8.39,-5.48 8.34,-5.27 8.29,-5.06 8.18,-4.88 8.07,-4.70 7.91,-4.57 7.74,-4.43 7.55,-4.35 7.35,-4.28 7.14,-4.27 6.92,-4.26 6.72,-4.32 6.51,-4.38 6.34,-4.50 6.17,-4.62 6.04,-4.79 5.91,-4.96 5.85,-5.16 5.78,-5.37 5.78,-5.58 5.79,-5.79 5.86,-5.99 5.93,-6.19 6.06,-6.36 6.19,-6.53 6.37,-6.65 6.54,-6.76 6.75,-6.82 6.95,-6.87 7.17,-6.86 7.38,-6.84 7.57,-6.76 7.77,-6.68 7.93,-6.54 8.09,-6.40 8.20,-6.22 8.31,-6.04 8.35,-5.83 8.39,-5.62 8.37,-5.41 8.34,-5.20 8.25,-5.01 8.16,-4.81 8.01,-4.66 7.86,-4.51 7.67,-4.41 7.48,-4.31 7.48,-4.31 7.49,-4.31 6.42,-3.23 5.35,-2.15 4.29,-1.13 3.24,-0.10 2.09,0.54 0.93,1.20 0.77,1.30 0.62,1.39 0.44,1.44 0.26,1.50 0.08,1.51 -0.09,1.52 -0.27,1.49 -0.45,1.45 -0.62,1.38 -0.79,1.30 -0.93,1.19 -1.08,1.07 -1.19,0.93 -1.30,0.78 -1.38,0.61 -1.45,0.44 -1.49,0.26 -1.52,0.08 -1.51,-0.09 -1.50,-0.28 -1.44,-0.45 -1.39,-0.63 -1.29,-0.78 -1.19,-0.94 -1.06,-1.07 -0.93,-1.20 -0.93,-1.20 L -0.93,-1.20 Z"></path></g><g transform="translate(229.69266373048526 246.70024863360777) rotate(0 0.6010849692669353 2.2039721060933744)" stroke="none"><path fill="#000000" d="M 1.46,-0.62 Q 1.46,-0.62 1.93,0.12 2.40,0.88 2.09,1.16 1.79,1.45 1.80,1.61 1.82,1.77 1.79,1.92 1.76,2.08 1.70,2.23 1.64,2.37 1.54,2.50 1.45,2.62 1.32,2.72 1.20,2.82 1.06,2.89 0.92,2.96 0.76,2.99 0.61,3.02 0.45,3.01 0.29,3.01 0.14,2.96 -0.01,2.92 -0.14,2.84 -0.28,2.76 -0.39,2.65 -0.51,2.54 -0.59,2.41 -0.68,2.27 -0.72,2.12 -0.77,1.97 -0.79,1.82 -0.80,1.66 -0.76,1.45 -0.72,1.25 -0.61,1.06 -0.50,0.88 -0.34,0.74 -0.18,0.60 0.00,0.52 0.20,0.43 0.41,0.42 0.62,0.40 0.83,0.46 1.03,0.51 1.21,0.63 1.39,0.74 1.52,0.91 1.65,1.08 1.72,1.28 1.80,1.48 1.80,1.69 1.80,1.90 1.74,2.10 1.67,2.31 1.55,2.48 1.42,2.65 1.25,2.77 1.07,2.89 0.87,2.95 0.67,3.01 0.45,3.01 0.24,3.00 0.04,2.92 -0.15,2.85 -0.31,2.71 -0.47,2.58 -0.59,2.40 -0.70,2.22 -0.75,2.01 -0.80,1.80 -0.78,1.59 -0.76,1.38 -0.67,1.19 -0.59,0.99 -0.44,0.84 -0.30,0.68 -0.11,0.58 0.06,0.47 0.27,0.44 0.48,0.40 0.69,0.43 0.90,0.46 1.09,0.56 1.28,0.65 1.43,0.80 1.58,0.96 1.67,1.15 1.76,1.34 1.78,1.40 1.79,1.45 1.80,1.61 1.82,1.77 1.79,1.92 1.76,2.08 1.70,2.23 1.64,2.37 1.54,2.50 1.45,2.62 1.32,2.72 1.20,2.82 1.06,2.89 0.92,2.96 0.76,2.99 0.61,3.02 0.45,3.01 0.29,3.01 0.14,2.96 -0.00,2.92 -0.14,2.84 -0.28,2.76 -0.39,2.65 -0.51,2.54 -0.59,2.41 -0.68,2.27 -0.72,2.12 -0.77,1.97 -0.89,2.16 -1.01,2.34 -1.24,1.48 -1.46,0.62 -1.52,0.44 -1.57,0.25 -1.58,0.06 -1.59,-0.12 -1.55,-0.31 -1.51,-0.50 -1.43,-0.67 -1.35,-0.85 -1.22,-0.99 -1.10,-1.14 -0.95,-1.26 -0.80,-1.38 -0.62,-1.45 -0.44,-1.53 -0.25,-1.56 -0.06,-1.59 0.12,-1.57 0.31,-1.56 0.49,-1.50 0.68,-1.44 0.84,-1.34 1.00,-1.23 1.14,-1.10 1.27,-0.96 1.37,-0.79 1.46,-0.62 1.46,-0.62 L 1.46,-0.62 Z"></path></g><g transform="translate(230.89483366901914 248.7038529687261) rotate(0 0.4007171982922273 1.0018113393880412)" stroke="none"><path fill="#000000" d="M 1.32,-0.66 Q 1.32,-0.66 1.35,-0.43 1.37,-0.19 1.42,-0.04 1.47,0.10 1.49,0.26 1.50,0.41 1.48,0.57 1.46,0.73 1.40,0.87 1.34,1.02 1.25,1.15 1.16,1.28 1.04,1.38 0.92,1.48 0.77,1.55 0.63,1.62 0.48,1.66 0.32,1.69 0.17,1.69 0.01,1.69 -0.14,1.65 -0.29,1.61 -0.43,1.53 -0.57,1.45 -0.68,1.35 -0.80,1.24 -0.89,1.11 -0.97,0.97 -1.04,0.77 -1.10,0.57 -1.09,0.36 -1.09,0.14 -1.02,-0.05 -0.94,-0.25 -0.81,-0.41 -0.68,-0.58 -0.50,-0.69 -0.32,-0.81 -0.12,-0.86 0.08,-0.91 0.29,-0.90 0.50,-0.88 0.70,-0.80 0.89,-0.71 1.05,-0.57 1.21,-0.43 1.32,-0.24 1.42,-0.06 1.46,0.14 1.50,0.35 1.48,0.56 1.45,0.77 1.35,0.96 1.26,1.15 1.11,1.30 0.96,1.45 0.77,1.55 0.58,1.64 0.37,1.67 0.16,1.70 -0.04,1.66 -0.25,1.62 -0.43,1.52 -0.62,1.41 -0.76,1.26 -0.90,1.10 -0.99,0.90 -1.07,0.71 -1.09,0.50 -1.11,0.28 -1.06,0.08 -1.01,-0.12 -0.89,-0.30 -0.78,-0.48 -0.61,-0.61 -0.45,-0.74 -0.25,-0.82 -0.05,-0.89 0.15,-0.90 0.36,-0.91 0.57,-0.84 0.77,-0.78 0.94,-0.66 1.12,-0.53 1.24,-0.36 1.37,-0.19 1.37,-0.19 1.37,-0.19 1.42,-0.04 1.47,0.10 1.49,0.25 1.50,0.41 1.48,0.57 1.46,0.73 1.40,0.87 1.34,1.02 1.25,1.15 1.16,1.28 1.04,1.38 0.92,1.48 0.77,1.55 0.63,1.62 0.48,1.66 0.32,1.69 0.17,1.69 0.01,1.69 -0.14,1.65 -0.29,1.61 -0.43,1.53 -0.57,1.45 -0.68,1.35 -0.80,1.24 -0.89,1.11 -0.97,0.97 -1.15,0.82 -1.32,0.66 -1.39,0.49 -1.45,0.32 -1.46,0.14 -1.48,-0.02 -1.46,-0.20 -1.43,-0.38 -1.36,-0.55 -1.30,-0.71 -1.19,-0.86 -1.09,-1.00 -0.95,-1.12 -0.82,-1.24 -0.66,-1.32 -0.49,-1.40 -0.32,-1.43 -0.15,-1.47 0.02,-1.47 0.20,-1.47 0.38,-1.42 0.55,-1.37 0.71,-1.29 0.86,-1.20 1.00,-1.08 1.13,-0.96 1.23,-0.81 1.32,-0.66 1.32,-0.66 L 1.32,-0.66 Z"></path></g><g transform="translate(229.2919281885354 248.7038529687261) rotate(0 -3.205792617310067 1.803254907801147)" stroke="none"><path fill="#000000" d="M 0.55,1.49 Q 0.55,1.49 -0.28,2.04 -1.12,2.60 -3.15,3.42 -5.18,4.24 -5.35,4.36 -5.53,4.48 -5.73,4.54 -5.93,4.60 -6.15,4.59 -6.36,4.58 -6.56,4.50 -6.75,4.42 -6.92,4.29 -7.08,4.15 -7.19,3.97 -7.30,3.79 -7.35,3.58 -7.40,3.37 -7.38,3.16 -7.35,2.95 -7.27,2.76 -7.18,2.56 -7.03,2.41 -6.89,2.25 -6.70,2.15 -6.51,2.05 -6.30,2.02 -6.10,1.98 -5.89,2.01 -5.68,2.05 -5.49,2.14 -5.30,2.24 -5.15,2.39 -5.00,2.55 -4.91,2.74 -4.82,2.93 -4.80,3.14 -4.77,3.35 -4.82,3.56 -4.86,3.77 -4.97,3.95 -5.08,4.14 -5.24,4.27 -5.40,4.41 -5.60,4.49 -5.79,4.57 -6.01,4.59 -6.22,4.60 -6.42,4.54 -6.63,4.49 -6.81,4.37 -6.98,4.25 -7.11,4.08 -7.24,3.92 -7.31,3.72 -7.38,3.51 -7.38,3.30 -7.38,3.09 -7.32,2.89 -7.25,2.69 -7.12,2.52 -7.00,2.35 -7.00,2.35 -7.00,2.35 -4.78,0.56 -2.56,-1.22 -1.55,-1.35 -0.55,-1.49 -0.37,-1.53 -0.18,-1.58 0.00,-1.58 0.19,-1.58 0.38,-1.53 0.57,-1.48 0.73,-1.39 0.90,-1.30 1.05,-1.17 1.19,-1.05 1.30,-0.89 1.41,-0.73 1.48,-0.55 1.54,-0.37 1.57,-0.18 1.59,0.00 1.56,0.19 1.54,0.38 1.47,0.56 1.40,0.74 1.29,0.90 1.18,1.06 1.04,1.18 0.89,1.31 0.72,1.40 0.55,1.49 0.55,1.49 L 0.55,1.49 Z"></path></g><g transform="translate(218.07166319977887 237.082889125335) rotate(0 6.01084969267049 5.4097647234033275)" stroke="none"><path fill="#000000" d="M 1.07,-0.76 Q 1.07,-0.76 1.88,-0.13 2.70,0.50 3.78,2.02 4.87,3.54 5.62,4.43 6.37,5.33 7.21,6.02 8.06,6.71 10.35,8.18 12.64,9.65 12.79,9.79 12.94,9.94 13.04,10.13 13.14,10.32 13.17,10.53 13.20,10.74 13.17,10.95 13.13,11.16 13.03,11.34 12.93,11.53 12.78,11.67 12.62,11.82 12.43,11.91 12.23,12.00 12.02,12.02 11.81,12.04 11.60,11.99 11.40,11.94 11.22,11.83 11.03,11.72 10.90,11.56 10.76,11.40 10.68,11.20 10.61,11.00 10.60,10.79 10.59,10.58 10.64,10.37 10.70,10.17 10.82,9.99 10.94,9.82 11.11,9.69 11.28,9.56 11.49,9.50 11.69,9.43 11.90,9.43 12.11,9.43 12.31,9.50 12.51,9.57 12.68,9.70 12.85,9.83 12.97,10.01 13.09,10.18 13.14,10.39 13.20,10.60 13.18,10.81 13.17,11.02 13.09,11.22 13.01,11.41 12.87,11.57 12.73,11.73 12.55,11.84 12.37,11.95 12.16,12.00 11.95,12.04 11.74,12.02 11.53,11.99 11.34,11.90 11.15,11.81 11.15,11.81 11.15,11.81 8.92,10.94 6.70,10.07 5.72,9.40 4.74,8.72 3.88,8.03 3.03,7.33 2.12,5.99 1.21,4.64 0.40,3.68 -0.39,2.71 -0.73,1.74 -1.07,0.76 -1.15,0.62 -1.22,0.48 -1.26,0.33 -1.30,0.18 -1.31,0.02 -1.31,-0.13 -1.27,-0.29 -1.24,-0.44 -1.17,-0.59 -1.09,-0.73 -0.99,-0.85 -0.89,-0.97 -0.76,-1.06 -0.63,-1.15 -0.48,-1.21 -0.33,-1.27 -0.17,-1.29 -0.02,-1.32 0.13,-1.30 0.29,-1.28 0.44,-1.23 0.59,-1.17 0.72,-1.09 0.85,-1.00 0.96,-0.88 1.07,-0.76 1.07,-0.76 L 1.07,-0.76 Z"></path></g><g transform="translate(227.28832385341707 246.2995130916579) rotate(0 1.8032549078010334 0.8014527402418707)" stroke="none"><path fill="#000000" d="M 0.37,-1.29 Q 0.37,-1.29 1.24,-1.30 2.12,-1.30 2.06,-0.95 2.00,-0.60 2.13,-0.52 2.27,-0.43 2.38,-0.32 2.49,-0.21 2.57,-0.07 2.65,0.06 2.69,0.21 2.74,0.36 2.75,0.52 2.75,0.68 2.72,0.83 2.69,0.99 2.63,1.13 2.56,1.27 2.46,1.40 2.36,1.52 2.24,1.62 2.11,1.71 1.96,1.78 1.82,1.84 1.66,1.86 1.51,1.89 1.35,1.88 1.19,1.87 1.04,1.82 0.89,1.77 0.74,1.67 0.59,1.58 0.45,1.41 0.32,1.25 0.24,1.05 0.16,0.86 0.15,0.64 0.14,0.43 0.20,0.23 0.26,0.02 0.38,-0.14 0.50,-0.32 0.67,-0.45 0.83,-0.57 1.04,-0.64 1.24,-0.71 1.45,-0.71 1.66,-0.71 1.86,-0.64 2.07,-0.57 2.23,-0.44 2.40,-0.31 2.52,-0.13 2.64,0.03 2.70,0.24 2.75,0.44 2.74,0.66 2.73,0.87 2.65,1.06 2.57,1.26 2.43,1.42 2.29,1.58 2.11,1.69 1.93,1.80 1.72,1.85 1.51,1.89 1.30,1.87 1.09,1.84 0.90,1.75 0.70,1.66 0.55,1.52 0.40,1.37 0.30,1.18 0.20,0.99 0.17,0.78 0.13,0.57 0.17,0.36 0.20,0.15 0.30,-0.02 0.40,-0.21 0.56,-0.36 0.71,-0.50 0.91,-0.59 1.10,-0.68 1.31,-0.70 1.52,-0.72 1.73,-0.67 1.94,-0.63 1.97,-0.61 2.00,-0.60 2.13,-0.52 2.27,-0.43 2.38,-0.32 2.49,-0.21 2.57,-0.07 2.65,0.06 2.69,0.21 2.74,0.36 2.75,0.52 2.75,0.68 2.72,0.83 2.69,0.99 2.63,1.13 2.56,1.27 2.46,1.40 2.36,1.52 2.24,1.62 2.11,1.71 1.97,1.78 1.82,1.84 1.66,1.86 1.51,1.89 1.35,1.88 1.19,1.87 1.04,1.82 0.89,1.77 1.00,2.00 1.10,2.22 0.36,1.76 -0.37,1.29 -0.52,1.23 -0.67,1.17 -0.80,1.07 -0.93,0.97 -1.03,0.85 -1.13,0.72 -1.20,0.57 -1.27,0.43 -1.31,0.27 -1.34,0.11 -1.33,-0.04 -1.33,-0.21 -1.28,-0.36 -1.24,-0.52 -1.16,-0.66 -1.08,-0.80 -0.97,-0.92 -0.85,-1.04 -0.72,-1.13 -0.58,-1.21 -0.42,-1.27 -0.27,-1.32 -0.11,-1.33 0.04,-1.34 0.21,-1.32 0.37,-1.29 0.37,-1.29 L 0.37,-1.29 Z"></path></g></svg>