<svg version="1.1" xmlns="http://www.w3.org/2000/svg" viewBox="0 0 190.3484607912369 201.8850084800306" width="190.3484607912369" height="201.8850084800306">
  <!-- svg-source:excalidraw -->
  
  <defs>
    <style class="style-fonts">
      @font-face {
        font-family: "Virgil";
        src: url("https://excalidraw.com/Virgil.woff2");
      }
      @font-face {
        font-family: "Cascadia";
        src: url("https://excalidraw.com/Cascadia.woff2");
      }
    </style>
  </defs>
  <g stroke-opacity="0.6" fill-opacity="0.6" stroke-linecap="round" transform="translate(10 20.473247369447677) rotate(0 79.32171033580562 85.70588055529146)"><path d="M81.84 -0.04 C92.05 -1.17, 104.17 2.9, 114.04 8.15 C123.9 13.39, 134 22.28, 141.04 31.42 C148.08 40.56, 153.48 51.98, 156.26 62.98 C159.04 73.99, 159.34 85.91, 157.74 97.47 C156.14 109.02, 152.55 122.5, 146.67 132.31 C140.78 142.13, 131.48 149.86, 122.42 156.35 C113.36 162.83, 102.74 169, 92.32 171.21 C81.89 173.43, 70.27 172.79, 59.89 169.62 C49.52 166.45, 38.52 159.64, 30.06 152.19 C21.6 144.73, 14.14 135.08, 9.13 124.89 C4.11 114.69, 0.75 102.53, -0.03 91.02 C-0.82 79.52, 0.56 66.68, 4.4 55.87 C8.24 45.06, 15.35 34.39, 22.98 26.14 C30.6 17.89, 38.14 10.38, 50.16 6.38 C62.17 2.38, 85.8 2.07, 95.09 2.14 C104.38 2.21, 106.09 5.31, 105.9 6.79 M47.37 6.11 C55.93 0.62, 68.68 0.12, 79.65 0.52 C90.61 0.92, 103.19 3.8, 113.16 8.49 C123.14 13.19, 132.42 20.18, 139.51 28.7 C146.61 37.23, 152.6 48.21, 155.73 59.66 C158.85 71.1, 159.69 85.84, 158.26 97.38 C156.84 108.93, 152.65 118.91, 147.18 128.91 C141.71 138.9, 134.42 150.76, 125.43 157.36 C116.44 163.96, 103.87 166.31, 93.24 168.53 C82.62 170.76, 71.98 173.03, 61.67 170.7 C51.35 168.38, 40.16 161.98, 31.34 154.61 C22.51 147.23, 13.96 136.55, 8.72 126.45 C3.48 116.35, 0.83 105.6, -0.09 94.02 C-1.01 82.43, -0.4 67.9, 3.19 56.92 C6.78 45.94, 13.73 36.62, 21.44 28.12 C29.15 19.61, 44.79 9.43, 49.46 5.9 C54.13 2.36, 49.13 5.34, 49.44 6.93" stroke="none" stroke-width="0" fill="#fab005"></path><path d="M60.46 2.99 C70.37 -0.78, 84.64 -0.08, 95.28 2.08 C105.92 4.25, 115.63 9.35, 124.3 15.96 C132.97 22.57, 141.51 31.94, 147.29 41.73 C153.06 51.52, 157.56 63.05, 158.95 74.69 C160.33 86.33, 159 100.52, 155.6 111.58 C152.2 122.64, 145.47 132.45, 138.54 141.07 C131.6 149.68, 123.47 158.08, 113.99 163.26 C104.51 168.43, 92.66 171.89, 81.66 172.11 C70.65 172.32, 57.89 169.2, 47.97 164.53 C38.05 159.87, 29.26 152.65, 22.14 144.14 C15.03 135.62, 8.87 124.33, 5.27 113.44 C1.66 102.55, -0.39 90.38, 0.5 78.78 C1.39 67.18, 5.54 53.96, 10.6 43.84 C15.66 33.72, 20.88 25.31, 30.85 18.08 C40.82 10.85, 62.23 3.35, 70.42 0.48 C78.61 -2.4, 79.8 -0.7, 79.99 0.83 M94 2.22 C104.06 2.98, 115.83 9.03, 124.73 15.76 C133.63 22.48, 141.75 32.63, 147.39 42.6 C153.03 52.56, 157.44 63.91, 158.59 75.53 C159.73 87.14, 157.65 101.27, 154.25 112.3 C150.86 123.33, 144.96 133.06, 138.2 141.69 C131.44 150.33, 123.53 159.13, 113.71 164.11 C103.89 169.09, 89.97 171.44, 79.26 171.56 C68.56 171.68, 59.3 169.3, 49.46 164.85 C39.62 160.4, 27.71 153.36, 20.25 144.87 C12.78 136.37, 7.84 125.03, 4.68 113.9 C1.51 102.78, 0.51 89.58, 1.27 78.11 C2.04 66.65, 4.37 55.3, 9.26 45.12 C14.15 34.94, 21.81 24.06, 30.62 17.02 C39.43 9.99, 51.37 5.74, 62.12 2.93 C72.87 0.12, 89.55 -0.03, 95.13 0.17 C100.71 0.36, 95.78 2.27, 95.62 4.08" stroke="transparent" stroke-width="1" fill="none"></path></g><g transform="translate(97.90916335846623 14.293726511330306) rotate(0 1.7174788114959938 82.86868187693983)" stroke="none"><path fill="#000000" d="M 0.60,3.41 Q 0.60,3.41 -3.48,4.73 -7.57,6.05 -10.67,7.25 -13.77,8.44 -16.57,10.26 -19.37,12.08 -22.53,14.55 -25.69,17.01 -28.64,19.92 -31.58,22.82 -35.53,27.23 -39.48,31.64 -42.57,35.65 -45.66,39.67 -48.41,43.77 -51.16,47.88 -53.49,52.20 -55.81,56.52 -59.25,63.56 -62.69,70.60 -64.62,75.01 -66.55,79.42 -68.06,83.46 -69.57,87.49 -70.64,91.51 -71.71,95.52 -72.37,99.78 -73.04,104.04 -73.06,109.54 -73.08,115.04 -72.62,119.73 -72.15,124.42 -71.05,128.04 -69.94,131.65 -68.19,134.57 -66.43,137.50 -64.08,140.38 -61.73,143.25 -58.22,146.28 -54.71,149.30 -51.27,151.81 -47.83,154.32 -44.52,156.30 -41.21,158.27 -37.79,159.76 -34.37,161.25 -29.77,162.29 -25.16,163.33 -20.63,163.77 -16.09,164.22 -11.60,164.17 -7.10,164.13 -2.47,163.39 2.15,162.66 8.15,160.92 14.16,159.19 17.99,157.96 21.82,156.73 26.02,154.40 30.21,152.06 33.67,149.66 37.14,147.25 40.31,144.77 43.49,142.28 46.23,139.82 48.97,137.37 51.61,133.89 54.25,130.42 56.38,127.21 58.51,124.01 60.35,120.77 62.19,117.53 65.13,110.47 68.07,103.40 70.09,97.92 72.11,92.43 73.38,86.66 74.66,80.89 75.20,77.24 75.75,73.59 76.23,69.58 76.71,65.56 76.66,61.18 76.61,56.80 76.13,53.41 75.66,50.02 74.36,47.04 73.07,44.07 72.20,41.78 71.33,39.49 69.24,36.57 67.15,33.66 65.74,31.81 64.33,29.97 62.83,28.31 61.33,26.64 59.32,24.81 57.32,22.98 54.14,20.14 50.97,17.31 49.26,15.96 47.55,14.62 45.10,13.09 42.64,11.56 39.61,9.98 36.59,8.40 33.33,7.05 30.07,5.69 26.36,4.47 22.65,3.25 19.78,2.61 16.91,1.96 13.32,1.51 9.73,1.06 7.08,0.97 4.44,0.88 1.59,0.88 -1.26,0.87 -2.89,0.70 -4.52,0.52 -4.80,0.87 -5.08,1.21 -5.43,1.47 -5.78,1.74 -6.18,1.91 -6.59,2.08 -7.02,2.15 -7.45,2.22 -7.89,2.19 -8.33,2.15 -8.74,2.02 -9.16,1.88 -9.53,1.64 -9.90,1.41 -10.21,1.09 -10.51,0.78 -10.73,0.40 -10.95,0.02 -11.08,-0.39 -11.20,-0.82 -11.22,-1.26 -11.24,-1.69 -11.15,-2.12 -11.06,-2.55 -10.88,-2.95 -10.69,-3.35 -5.10,-2.96 0.47,-2.58 0.87,-2.43 1.27,-2.29 1.61,-2.03 1.94,-1.76 2.17,-1.40 2.40,-1.05 2.51,-0.64 2.61,-0.22 2.58,0.19 2.55,0.61 2.38,1.00 2.22,1.40 1.93,1.71 1.65,2.03 1.28,2.24 0.92,2.45 0.50,2.54 0.08,2.62 -0.33,2.57 -0.75,2.51 -1.13,2.32 -1.51,2.14 -1.82,1.84 -2.12,1.54 -2.31,1.16 -2.50,0.78 -2.56,0.36 -2.62,-0.05 -2.54,-0.47 -2.47,-0.89 -2.26,-1.26 -2.05,-1.63 -1.74,-1.91 -1.42,-2.20 -1.03,-2.37 -0.64,-2.54 -0.22,-2.58 0.19,-2.61 0.61,-2.51 1.02,-2.41 1.38,-2.19 1.74,-1.96 2.01,-1.63 2.27,-1.30 2.42,-0.90 2.57,-0.51 2.59,-0.08 2.60,0.33 2.48,0.74 2.35,1.15 2.11,1.49 1.86,1.84 1.52,2.09 1.18,2.34 0.77,2.47 0.36,2.60 -0.05,2.59 -0.47,2.58 -0.47,2.58 -0.47,2.58 -2.50,1.55 -4.52,0.52 -4.80,0.87 -5.08,1.21 -5.43,1.47 -5.78,1.74 -6.18,1.91 -6.58,2.08 -7.02,2.15 -7.45,2.22 -7.89,2.19 -8.33,2.15 -8.74,2.02 -9.16,1.88 -9.53,1.64 -9.90,1.41 -10.21,1.09 -10.51,0.78 -10.73,0.40 -10.95,0.02 -11.08,-0.39 -11.20,-0.82 -11.22,-1.25 -11.24,-1.69 -11.15,-2.12 -11.06,-2.55 -10.88,-2.95 -10.69,-3.35 -11.11,-3.98 -11.54,-4.62 -8.84,-6.61 -6.13,-8.59 -3.68,-9.02 -1.24,-9.45 1.70,-9.42 4.65,-9.39 7.47,-9.30 10.28,-9.21 14.38,-8.67 18.48,-8.14 22.29,-7.23 26.09,-6.31 29.77,-5.11 33.44,-3.90 37.14,-2.34 40.85,-0.79 44.07,0.88 47.29,2.55 50.57,4.62 53.84,6.70 55.67,8.16 57.50,9.62 60.83,12.60 64.16,15.58 66.50,17.76 68.83,19.94 70.57,21.91 72.31,23.88 73.87,25.93 75.44,27.99 78.04,31.92 80.64,35.86 81.49,38.07 82.35,40.29 83.96,44.44 85.57,48.58 86.11,52.64 86.65,56.71 86.68,61.73 86.70,66.75 86.20,70.92 85.70,75.09 85.09,79.09 84.48,83.08 83.03,89.47 81.59,95.87 79.54,101.58 77.49,107.30 74.33,114.97 71.18,122.65 69.14,126.20 67.10,129.76 64.74,133.25 62.39,136.73 59.12,140.88 55.84,145.02 52.82,147.71 49.80,150.39 46.37,153.04 42.95,155.68 39.03,158.37 35.10,161.06 30.04,163.75 24.97,166.44 20.97,167.73 16.96,169.01 10.32,170.88 3.69,172.75 -1.66,173.53 -7.02,174.30 -12.08,174.32 -17.14,174.34 -22.32,173.77 -27.49,173.21 -32.96,171.86 -38.42,170.52 -42.42,168.73 -46.43,166.94 -50.12,164.69 -53.81,162.44 -57.56,159.64 -61.31,156.85 -65.42,153.20 -69.52,149.55 -72.32,146.03 -75.11,142.50 -77.32,138.50 -79.54,134.50 -80.80,129.94 -82.07,125.39 -82.53,120.16 -82.99,114.92 -82.88,108.69 -82.77,102.45 -81.95,97.69 -81.13,92.92 -79.86,88.48 -78.59,84.04 -76.93,79.81 -75.27,75.58 -73.24,70.99 -71.20,66.40 -67.63,59.23 -64.05,52.06 -61.49,47.36 -58.93,42.66 -55.99,38.30 -53.05,33.95 -49.74,29.68 -46.42,25.41 -42.26,20.79 -38.10,16.16 -34.75,12.91 -31.40,9.66 -27.87,6.94 -24.34,4.22 -20.70,1.97 -17.05,-0.27 -13.13,-1.68 -9.21,-3.09 -4.90,-3.25 -0.60,-3.41 -0.18,-3.43 0.23,-3.45 0.64,-3.38 1.05,-3.30 1.43,-3.12 1.81,-2.95 2.13,-2.69 2.46,-2.43 2.72,-2.10 2.97,-1.77 3.14,-1.39 3.31,-1.00 3.38,-0.59 3.46,-0.18 3.43,0.23 3.40,0.64 3.27,1.04 3.15,1.44 2.93,1.79 2.71,2.15 2.41,2.44 2.11,2.74 1.76,2.95 1.40,3.17 1.00,3.29 0.60,3.41 0.60,3.41 L 0.60,3.41 Z"></path></g><g transform="translate(79.01683746682971 66.67697767490961) rotate(0 -0.42936478910897335 11.163661412374438)" stroke="none"><path fill="#000000" d="M 3.49,0.23 Q 3.49,0.23 3.93,3.98 4.36,7.73 4.27,10.46 4.17,13.20 4.12,16.39 4.08,19.59 3.19,20.76 2.30,21.93 2.44,22.33 2.58,22.73 2.59,23.15 2.59,23.58 2.46,23.98 2.33,24.39 2.08,24.73 1.82,25.07 1.47,25.31 1.12,25.55 0.72,25.67 0.31,25.79 -0.11,25.77 -0.53,25.75 -0.93,25.60 -1.33,25.45 -1.65,25.17 -1.98,24.90 -2.20,24.54 -2.42,24.18 -2.52,23.77 -2.62,23.35 -2.57,22.93 -2.53,22.51 -2.36,22.12 -2.18,21.73 -1.90,21.42 -1.61,21.11 -1.23,20.90 -0.86,20.70 -0.44,20.63 -0.02,20.55 0.39,20.62 0.81,20.68 1.18,20.88 1.56,21.07 1.86,21.38 2.15,21.68 2.34,22.07 2.52,22.45 2.57,22.87 2.62,23.30 2.53,23.71 2.45,24.13 2.23,24.49 2.01,24.86 1.69,25.14 1.37,25.42 0.98,25.58 0.59,25.74 0.16,25.77 -0.25,25.80 -0.66,25.69 -1.07,25.58 -1.43,25.34 -1.78,25.11 -2.04,24.77 -2.30,24.44 -2.30,24.44 -2.30,24.44 -4.02,21.94 -5.74,19.45 -5.66,16.14 -5.57,12.84 -5.46,9.96 -5.35,7.08 -4.42,3.42 -3.49,-0.23 -3.41,-0.64 -3.33,-1.06 -3.16,-1.44 -2.98,-1.82 -2.72,-2.16 -2.46,-2.49 -2.12,-2.74 -1.79,-3.00 -1.40,-3.17 -1.02,-3.34 -0.60,-3.42 -0.18,-3.49 0.23,-3.46 0.65,-3.44 1.05,-3.31 1.45,-3.18 1.81,-2.96 2.17,-2.74 2.47,-2.44 2.76,-2.14 2.98,-1.77 3.20,-1.41 3.32,-1.01 3.44,-0.60 3.47,-0.18 3.49,0.23 3.49,0.23 L 3.49,0.23 Z"></path></g><g transform="translate(118.5189877166589 58.94829354058743) rotate(0 -0.42936478910897335 13.310524668039534)" stroke="none"><path fill="#000000" d="M 3.15,0 Q 3.15,0 4.13,3.20 5.11,6.41 5.12,9.01 5.14,11.61 5.19,14.44 5.23,17.28 5.24,19.47 5.26,21.66 3.23,24.94 1.21,28.23 0.90,28.52 0.59,28.81 0.20,28.98 -0.18,29.15 -0.60,29.20 -1.02,29.24 -1.44,29.14 -1.85,29.05 -2.21,28.82 -2.58,28.60 -2.85,28.27 -3.12,27.95 -3.27,27.55 -3.42,27.15 -3.44,26.73 -3.46,26.30 -3.34,25.90 -3.23,25.49 -2.98,25.14 -2.74,24.79 -2.40,24.54 -2.06,24.28 -1.66,24.15 -1.25,24.02 -0.83,24.02 -0.40,24.03 -0.00,24.17 0.39,24.31 0.73,24.57 1.06,24.83 1.30,25.18 1.53,25.54 1.64,25.95 1.75,26.36 1.72,26.78 1.70,27.21 1.53,27.60 1.37,27.99 1.09,28.32 0.82,28.64 0.45,28.85 0.08,29.07 -0.32,29.15 -0.74,29.24 -1.16,29.19 -1.58,29.14 -1.97,28.96 -2.35,28.77 -2.66,28.48 -2.96,28.18 -3.16,27.81 -3.35,27.43 -3.42,27.01 -3.48,26.59 -3.41,26.17 -3.33,25.75 -3.13,25.38 -2.93,25.00 -2.93,25.00 -2.93,25.00 -4.09,23.33 -5.26,21.66 -5.24,19.47 -5.23,17.28 -5.19,14.44 -5.14,11.61 -5.12,9.01 -5.11,6.41 -4.13,3.20 -3.15,0 -3.11,-0.37 -3.06,-0.75 -2.92,-1.11 -2.79,-1.46 -2.57,-1.77 -2.36,-2.09 -2.07,-2.34 -1.79,-2.59 -1.45,-2.77 -1.11,-2.95 -0.74,-3.04 -0.38,-3.13 0.00,-3.13 0.38,-3.13 0.74,-3.04 1.11,-2.95 1.45,-2.77 1.79,-2.59 2.07,-2.34 2.36,-2.09 2.57,-1.77 2.79,-1.46 2.92,-1.11 3.06,-0.75 3.11,-0.37 3.15,0.00 3.15,0.00 L 3.15,0 Z"></path></g><g transform="translate(68.71192528773338 115.62531052561712) rotate(0 34.34971381534115 3.8643420671612603)" stroke="none"><path fill="#000000" d="M 2.84,-1.65 Q 2.84,-1.65 5.13,0.97 7.41,3.61 8.77,5.38 10.13,7.16 12.04,8.94 13.94,10.71 17.45,12.69 20.95,14.66 25.63,15.09 30.32,15.52 33.46,14.45 36.61,13.38 39.41,12.04 42.21,10.69 44.61,8.82 47.01,6.96 48.96,5.03 50.91,3.10 53.23,0.58 55.56,-1.94 56.99,-3.69 58.42,-5.45 59.74,-7.49 61.06,-9.54 63.66,-11.71 66.27,-13.88 66.49,-14.24 66.71,-14.60 67.04,-14.87 67.37,-15.14 67.76,-15.30 68.16,-15.45 68.59,-15.47 69.01,-15.48 69.42,-15.37 69.83,-15.25 70.17,-15.00 70.52,-14.76 70.78,-14.42 71.03,-14.08 71.16,-13.67 71.29,-13.27 71.29,-12.84 71.28,-12.42 71.14,-12.02 71.00,-11.62 70.74,-11.28 70.48,-10.95 70.12,-10.71 69.77,-10.48 69.36,-10.37 68.95,-10.26 68.52,-10.29 68.10,-10.32 67.71,-10.48 67.31,-10.64 66.99,-10.92 66.67,-11.20 66.46,-11.57 66.24,-11.93 66.16,-12.35 66.07,-12.77 66.12,-13.19 66.17,-13.61 66.36,-13.99 66.54,-14.38 66.83,-14.68 67.13,-14.99 67.51,-15.18 67.89,-15.38 68.31,-15.44 68.73,-15.50 69.15,-15.43 69.56,-15.35 69.94,-15.15 70.31,-14.95 70.60,-14.64 70.89,-14.32 71.06,-13.94 71.23,-13.55 71.27,-13.12 71.32,-12.70 71.22,-12.29 71.12,-11.87 71.12,-11.87 71.12,-11.87 70.23,-8.21 69.33,-4.55 67.61,-1.95 65.90,0.64 64.29,2.61 62.68,4.57 60.19,7.32 57.69,10.06 55.26,12.39 52.83,14.73 49.59,17.08 46.35,19.43 42.84,21.04 39.33,22.64 34.60,23.88 29.87,25.11 26.71,24.89 23.54,24.67 20.24,24.01 16.95,23.35 14.26,22.03 11.57,20.71 9.43,19.09 7.29,17.46 4.98,15.07 2.67,12.68 1.08,10.46 -0.50,8.23 -1.67,4.94 -2.84,1.65 -3.00,1.29 -3.15,0.93 -3.22,0.53 -3.29,0.14 -3.26,-0.24 -3.23,-0.64 -3.10,-1.02 -2.98,-1.39 -2.77,-1.73 -2.56,-2.07 -2.27,-2.34 -1.99,-2.62 -1.64,-2.82 -1.30,-3.02 -0.92,-3.13 -0.54,-3.24 -0.14,-3.26 0.25,-3.28 0.63,-3.20 1.02,-3.12 1.38,-2.96 1.74,-2.79 2.05,-2.54 2.36,-2.29 2.60,-1.97 2.84,-1.65 2.84,-1.65 L 2.84,-1.65 Z"></path></g></svg>